<svg width="272" height="272" viewBox="0 0 272 272" fill="none" xmlns="http://www.w3.org/2000/svg">
<g filter="url(#filter0_d_33_2)">
<path fill-rule="evenodd" clip-rule="evenodd" d="M136 264C206.692 264 264 206.692 264 136C264 65.3076 206.692 8 136 8C65.3076 8 8 65.3076 8 136C8 206.692 65.3076 264 136 264ZM136.5 232C189.243 232 232 189.243 232 136.5C232 83.7568 189.243 41 136.5 41C83.7568 41 41 83.7568 41 136.5C41 189.243 83.7568 232 136.5 232Z" fill="#42CC65" fill-opacity="0.8" shape-rendering="crispEdges"/>
</g>
<g filter="url(#filter1_d_33_2)">
<path d="M46.016 147.16C41.792 147.16 38.56 146.189 36.32 144.248C34.08 142.285 32.96 139.384 32.96 135.544C32.96 131.725 34.08 128.835 36.32 126.872C38.56 124.909 41.792 123.939 46.016 123.96L57.536 124.024V128.12H46.368C43.5947 128.12 41.536 128.707 40.192 129.88C38.848 131.053 38.176 132.941 38.176 135.544C38.176 138.147 38.848 140.045 40.192 141.24C41.536 142.413 43.5947 143 46.368 143H57.856V147.16H46.016ZM71.9795 147.16C67.9048 147.16 64.7475 146.189 62.5075 144.248C60.2675 142.285 59.1475 139.384 59.1475 135.544C59.1475 131.725 60.2675 128.845 62.5075 126.904C64.7475 124.941 67.9795 123.96 72.2035 123.96H77.9635C82.1875 123.96 85.4195 124.941 87.6595 126.904C89.8995 128.845 91.0195 131.725 91.0195 135.544C91.0195 139.384 89.8995 142.285 87.6595 144.248C85.4195 146.189 82.2408 147.16 78.1235 147.16H71.9795ZM72.5555 128.12C70.1875 128.12 68.3422 128.547 67.0195 129.4C65.6968 130.253 64.8648 131.608 64.5235 133.464H85.6435C85.3022 131.608 84.4702 130.253 83.1475 129.4C81.8248 128.547 79.9795 128.12 77.6115 128.12H72.5555ZM72.6515 143H77.6115C80.0008 143 81.8462 142.573 83.1475 141.72C84.4702 140.867 85.3022 139.501 85.6435 137.624H64.5235C64.8648 139.501 65.6968 140.867 67.0195 141.72C68.3422 142.573 70.2195 143 72.6515 143ZM94.2088 147V124.12H113.377C115.745 124.12 117.579 124.717 118.881 125.912C120.203 127.107 120.865 128.92 120.865 131.352C120.865 133.421 120.385 135.043 119.425 136.216C118.465 137.389 117.099 138.125 115.329 138.424L120.609 147H114.785L109.889 138.584H99.3288V147H94.2088ZM112.769 128.28H99.3288V134.392L112.769 134.424C113.707 134.424 114.422 134.189 114.913 133.72C115.425 133.251 115.681 132.461 115.681 131.352C115.681 130.221 115.425 129.432 114.913 128.984C114.422 128.515 113.707 128.28 112.769 128.28ZM124.709 147V124.12H143.877C146.245 124.12 148.079 124.717 149.381 125.912C150.703 127.107 151.365 128.92 151.365 131.352C151.365 133.421 150.885 135.043 149.925 136.216C148.965 137.389 147.599 138.125 145.829 138.424L151.109 147H145.285L140.389 138.584H129.829V147H124.709ZM143.269 128.28H129.829V134.392L143.269 134.424C144.207 134.424 144.922 134.189 145.413 133.72C145.925 133.251 146.181 132.461 146.181 131.352C146.181 130.221 145.925 129.432 145.413 128.984C144.922 128.515 144.207 128.28 143.269 128.28ZM155.209 147V124.12H180.297V128.28H160.329V133.336H178.441V137.496H160.329V142.84H180.297V147H155.209ZM195.579 147.16C191.355 147.16 188.123 146.189 185.883 144.248C183.643 142.285 182.523 139.384 182.523 135.544C182.523 131.725 183.643 128.835 185.883 126.872C188.123 124.909 191.355 123.939 195.579 123.96L207.099 124.024V128.12H195.931C193.157 128.12 191.099 128.707 189.755 129.88C188.411 131.053 187.739 132.941 187.739 135.544C187.739 138.147 188.411 140.045 189.755 141.24C191.099 142.413 193.157 143 195.931 143H207.419V147.16H195.579ZM209.815 135.704V124.12H237.975V135.704H232.791V128.28H225.815V147H220.695V128.28H214.999V135.704H209.815Z" fill="#85F8A2"/>
</g>
<defs>
<filter id="filter0_d_33_2" x="0" y="0" width="272" height="272" filterUnits="userSpaceOnUse" color-interpolation-filters="sRGB">
<feFlood flood-opacity="0" result="BackgroundImageFix"/>
<feColorMatrix in="SourceAlpha" type="matrix" values="0 0 0 0 0 0 0 0 0 0 0 0 0 0 0 0 0 0 127 0" result="hardAlpha"/>
<feOffset/>
<feGaussianBlur stdDeviation="4"/>
<feComposite in2="hardAlpha" operator="out"/>
<feColorMatrix type="matrix" values="0 0 0 0 0.258824 0 0 0 0 0.8 0 0 0 0 0.394118 0 0 0 1 0"/>
<feBlend mode="normal" in2="BackgroundImageFix" result="effect1_dropShadow_33_2"/>
<feBlend mode="normal" in="SourceGraphic" in2="effect1_dropShadow_33_2" result="shape"/>
</filter>
<filter id="filter1_d_33_2" x="24.96" y="115.928" width="221.015" height="39.232" filterUnits="userSpaceOnUse" color-interpolation-filters="sRGB">
<feFlood flood-opacity="0" result="BackgroundImageFix"/>
<feColorMatrix in="SourceAlpha" type="matrix" values="0 0 0 0 0 0 0 0 0 0 0 0 0 0 0 0 0 0 127 0" result="hardAlpha"/>
<feOffset/>
<feGaussianBlur stdDeviation="4"/>
<feComposite in2="hardAlpha" operator="out"/>
<feColorMatrix type="matrix" values="0 0 0 0 0.258824 0 0 0 0 0.8 0 0 0 0 0.394118 0 0 0 1 0"/>
<feBlend mode="normal" in2="BackgroundImageFix" result="effect1_dropShadow_33_2"/>
<feBlend mode="normal" in="SourceGraphic" in2="effect1_dropShadow_33_2" result="shape"/>
</filter>
</defs>
</svg>
