<svg width="322" height="336" viewBox="0 0 322 336" fill="none" xmlns="http://www.w3.org/2000/svg">
<path fill-rule="evenodd" clip-rule="evenodd" d="M321.392 0V56V84V112V140V168V196V224V252V280V336L293.392 280L265.392 224L237.457 168.131L217.789 187.799L197.99 207.598L178.191 227.397L158.392 247.196L178.191 266.995L197.99 286.794L178.191 306.593L158.392 326.392L138.593 306.593L118.794 286.794L138.593 266.995L118.794 286.794L98.9949 266.995L79.1959 247.196L59.397 227.397L39.5979 207.598L19.799 187.799L0 168L19.799 148.201L39.598 128.402L59.397 108.603L79.1959 88.804L98.9949 69.005L118.794 49.206L138.593 29.4071L158.392 9.60807L178.191 29.4071L197.99 49.2061L178.191 69.005L158.392 88.8039L178.191 108.603L197.99 128.402L217.789 148.201L237.457 167.869L265.392 112L293.392 56L321.392 0Z" fill="#3EB3CB"/>
</svg>
