<svg width="311" height="187" viewBox="0 0 311 187" fill="none" xmlns="http://www.w3.org/2000/svg">
<g filter="url(#filter0_d_122_1161)">
<rect x="76" y="5" width="64" height="17" stroke="white" stroke-width="2"/>
<rect x="162" y="5" width="64" height="17" stroke="white" stroke-width="2"/>
<rect x="7" y="5" width="64" height="17" stroke="white" stroke-width="2"/>
<path d="M237.012 18.648C235.516 18.648 234.38 18.416 233.604 17.952C232.828 17.48 232.44 16.792 232.44 15.888C232.44 15.128 232.724 14.436 233.292 13.812C233.86 13.18 234.744 12.596 235.944 12.06C237.152 11.524 238.704 11.016 240.6 10.536L240.936 11.82C239.328 12.228 238.004 12.644 236.964 13.068C235.932 13.492 235.168 13.928 234.672 14.376C234.184 14.816 233.94 15.288 233.94 15.792C233.94 16.832 234.992 17.352 237.096 17.352C237.44 17.352 237.8 17.336 238.176 17.304C238.552 17.272 238.972 17.228 239.436 17.172C239.908 17.108 240.444 17.028 241.044 16.932L241.212 18.228C240.452 18.356 239.716 18.456 239.004 18.528C238.3 18.608 237.636 18.648 237.012 18.648ZM234.732 13.284C234.5 12.5 234.304 11.732 234.144 10.98C233.984 10.22 233.856 9.468 233.76 8.724L235.212 8.508C235.316 9.252 235.448 9.996 235.608 10.74C235.768 11.476 235.96 12.208 236.184 12.936L234.732 13.284ZM246.852 18.348C246.444 18.348 246.068 18.224 245.724 17.976C245.38 17.72 245.08 17.364 244.824 16.908C244.568 16.452 244.368 15.916 244.224 15.3C244.088 14.676 244.02 14.004 244.02 13.284C244.02 12.7 244.068 12.084 244.164 11.436C244.268 10.78 244.424 10.092 244.632 9.372L246.036 9.54C245.852 10.204 245.712 10.836 245.616 11.436C245.52 12.036 245.472 12.6 245.472 13.128C245.472 13.632 245.512 14.108 245.592 14.556C245.672 15.004 245.78 15.396 245.916 15.732C246.06 16.068 246.22 16.332 246.396 16.524C246.58 16.716 246.772 16.812 246.972 16.812C247.164 16.812 247.372 16.732 247.596 16.572C247.828 16.404 248.064 16.18 248.304 15.9C248.544 15.62 248.768 15.3 248.976 14.94C249.192 14.58 249.372 14.204 249.516 13.812L250.8 14.46C250.6 15.004 250.352 15.512 250.056 15.984C249.76 16.456 249.432 16.872 249.072 17.232C248.72 17.584 248.352 17.856 247.968 18.048C247.584 18.248 247.212 18.348 246.852 18.348ZM252.876 17.184C252.876 16.272 252.812 15.364 252.684 14.46C252.564 13.556 252.384 12.688 252.144 11.856C251.912 11.024 251.632 10.26 251.304 9.564L252.636 9.168C253.004 9.896 253.308 10.692 253.548 11.556C253.796 12.412 253.984 13.316 254.112 14.268C254.248 15.212 254.316 16.184 254.316 17.184H252.876ZM256.956 18.66L256.092 17.604L262.944 12.228L262.968 12.612H256.572V11.364H264.48V12.612L261.324 15.156L260.652 15.096C260.684 14.832 260.784 14.636 260.952 14.508C261.12 14.372 261.344 14.304 261.624 14.304C262.008 14.304 262.292 14.38 262.476 14.532C262.66 14.676 262.788 14.864 262.86 15.096C262.94 15.328 263.004 15.564 263.052 15.804C263.092 16.036 263.144 16.26 263.208 16.476C263.28 16.684 263.396 16.856 263.556 16.992C263.716 17.12 263.956 17.184 264.276 17.184C264.412 17.184 264.592 17.176 264.816 17.16C265.048 17.136 265.284 17.108 265.524 17.076C265.772 17.036 265.988 16.996 266.172 16.956L266.304 18.204C266.072 18.268 265.824 18.32 265.56 18.36C265.296 18.4 265.04 18.428 264.792 18.444C264.552 18.468 264.34 18.48 264.156 18.48C263.676 18.48 263.288 18.416 262.992 18.288C262.704 18.168 262.48 18.008 262.32 17.808C262.16 17.608 262.044 17.392 261.972 17.16C261.9 16.928 261.84 16.712 261.792 16.512C261.752 16.312 261.708 16.14 261.66 15.996C261.612 15.852 261.544 15.74 261.456 15.66C261.376 15.572 261.252 15.528 261.084 15.528C261.02 15.528 260.952 15.544 260.88 15.576C260.808 15.6 260.716 15.652 260.604 15.732C260.5 15.804 260.352 15.92 260.16 16.08L256.956 18.66ZM264.204 10.26C263.612 10.26 262.948 10.244 262.212 10.212C261.476 10.18 260.712 10.136 259.92 10.08C259.136 10.024 258.36 9.96 257.592 9.888L257.748 8.604C258.532 8.684 259.304 8.756 260.064 8.82C260.824 8.884 261.556 8.932 262.26 8.964C262.964 8.996 263.612 9.012 264.204 9.012V10.26ZM273.108 18.564C272.244 18.564 271.568 18.372 271.08 17.988C270.6 17.596 270.36 17.052 270.36 16.356C270.36 15.644 270.6 15.096 271.08 14.712C271.56 14.328 272.236 14.136 273.108 14.136C273.492 14.136 273.856 14.184 274.2 14.28C274.552 14.368 274.916 14.528 275.292 14.76C275.668 14.992 276.092 15.312 276.564 15.72C277.036 16.12 277.584 16.632 278.208 17.256L277.332 18.204C276.764 17.628 276.272 17.156 275.856 16.788C275.44 16.412 275.076 16.12 274.764 15.912C274.452 15.704 274.16 15.56 273.888 15.48C273.616 15.392 273.332 15.348 273.036 15.348C272.108 15.348 271.644 15.684 271.644 16.356C271.644 17.02 272.108 17.352 273.036 17.352C273.532 17.352 273.884 17.248 274.092 17.04C274.308 16.824 274.416 16.472 274.416 15.984V11.112H274.08V8.628H275.472V11.112H275.808V16.044C275.808 16.884 275.58 17.516 275.124 17.94C274.668 18.356 273.996 18.564 273.108 18.564ZM268.176 18.78C267.968 17.956 267.816 17.144 267.72 16.344C267.624 15.544 267.576 14.696 267.576 13.8C267.576 12.912 267.624 12.072 267.72 11.28C267.816 10.48 267.968 9.668 268.176 8.844L269.592 9.024C269.4 9.8 269.256 10.58 269.16 11.364C269.072 12.14 269.028 12.952 269.028 13.8C269.028 14.648 269.072 15.464 269.16 16.248C269.256 17.032 269.4 17.804 269.592 18.564L268.176 18.78ZM270.396 11.724V10.512H278.028V11.724H270.396ZM276.156 10.26C276.084 9.876 276.004 9.512 275.916 9.168C275.828 8.824 275.724 8.48 275.604 8.136L276.72 7.86C276.856 8.204 276.968 8.552 277.056 8.904C277.144 9.256 277.22 9.636 277.284 10.044L276.156 10.26ZM277.824 10.128C277.76 9.736 277.684 9.368 277.596 9.024C277.516 8.68 277.416 8.336 277.296 7.992L278.424 7.74C278.544 8.084 278.644 8.436 278.724 8.796C278.812 9.148 278.884 9.524 278.94 9.924L277.824 10.128ZM284.184 15.372C284.184 15.036 284.22 14.72 284.292 14.424C284.364 14.128 284.496 13.844 284.688 13.572C284.88 13.292 285.148 13.032 285.492 12.792C285.764 12.6 285.984 12.424 286.152 12.264C286.32 12.104 286.436 11.948 286.5 11.796C286.572 11.644 286.608 11.492 286.608 11.34C286.608 11.028 286.468 10.804 286.188 10.668C285.916 10.524 285.48 10.452 284.88 10.452C284.456 10.452 284.036 10.488 283.62 10.56C283.204 10.624 282.768 10.732 282.312 10.884L282 9.576C282.456 9.432 282.952 9.32 283.488 9.24C284.024 9.16 284.556 9.12 285.084 9.12C287.148 9.12 288.18 9.788 288.18 11.124C288.18 11.428 288.128 11.708 288.024 11.964C287.928 12.212 287.768 12.456 287.544 12.696C287.32 12.936 287.024 13.184 286.656 13.44C286.416 13.608 286.224 13.796 286.08 14.004C285.936 14.212 285.836 14.432 285.78 14.664C285.724 14.896 285.688 15.132 285.672 15.372H284.184ZM284.076 18V16.368H285.78V18H284.076Z" fill="white"/>
<path d="M152.02 17.124C152.444 17.076 152.832 16.956 153.184 16.764C153.544 16.564 153.852 16.312 154.108 16.008C154.372 15.696 154.576 15.34 154.72 14.94C154.864 14.54 154.936 14.108 154.936 13.644C154.936 12.988 154.784 12.416 154.48 11.928C154.176 11.432 153.752 11.052 153.208 10.788C152.672 10.524 152.048 10.392 151.336 10.392C150.728 10.392 150.164 10.492 149.644 10.692C149.124 10.892 148.664 11.172 148.264 11.532C147.872 11.884 147.564 12.3 147.34 12.78C147.116 13.252 147.004 13.76 147.004 14.304C147.004 14.696 147.068 15.072 147.196 15.432C147.324 15.792 147.484 16.088 147.676 16.32C147.876 16.544 148.084 16.656 148.3 16.656C148.612 16.656 148.912 16.372 149.2 15.804C149.488 15.236 149.748 14.42 149.98 13.356C150.22 12.284 150.42 11 150.58 9.504L151.972 9.648C151.796 11.136 151.596 12.412 151.372 13.476C151.148 14.54 150.892 15.412 150.604 16.092C150.316 16.772 149.988 17.276 149.62 17.604C149.252 17.924 148.836 18.084 148.372 18.084C147.988 18.084 147.632 17.988 147.304 17.796C146.976 17.604 146.692 17.336 146.452 16.992C146.212 16.648 146.024 16.248 145.888 15.792C145.752 15.328 145.684 14.832 145.684 14.304C145.684 13.552 145.824 12.86 146.104 12.228C146.384 11.588 146.776 11.036 147.28 10.572C147.784 10.108 148.38 9.748 149.068 9.492C149.764 9.228 150.524 9.096 151.348 9.096C152.316 9.096 153.172 9.28 153.916 9.648C154.668 10.016 155.256 10.54 155.68 11.22C156.104 11.9 156.316 12.708 156.316 13.644C156.316 14.276 156.22 14.864 156.028 15.408C155.844 15.952 155.58 16.436 155.236 16.86C154.892 17.276 154.48 17.616 154 17.88C153.52 18.144 152.988 18.312 152.404 18.384L152.02 17.124Z" fill="white"/>
</g>
<g filter="url(#filter1_d_122_1161)">
<rect x="6" y="58.5526" width="91" height="29" transform="rotate(-15 6 58.5526)" fill="#128FCD" fill-opacity="0.2" shape-rendering="crispEdges"/>
<rect x="7.22474" y="59.2597" width="89" height="27" transform="rotate(-15 7.22474 59.2597)" stroke="#48BCCB" stroke-opacity="0.5" stroke-width="2" shape-rendering="crispEdges"/>
</g>
<path d="M38.8256 72.475C37.8055 72.7483 36.8619 72.7913 35.9945 72.6041C35.1375 72.4141 34.4076 72.0189 33.805 71.4184C33.2024 70.8179 32.7713 70.0334 32.5118 69.0649C32.3075 68.3025 32.2413 67.5196 32.3132 66.7163C32.3851 65.913 32.5865 65.1191 32.9174 64.3348C33.2456 63.5401 33.6947 62.7848 34.2648 62.0688L34.6805 62.3218L29.9668 63.5849L29.5485 62.0239L35.715 60.3716L36.1581 62.0253C35.6016 62.6272 35.1523 63.2997 34.8103 64.0429C34.4787 64.7833 34.2676 65.5411 34.1772 66.3162C34.097 67.0886 34.1536 67.8354 34.3468 68.5567C34.6174 69.5664 35.1067 70.28 35.815 70.6976C36.5307 71.1022 37.3934 71.1691 38.4032 70.8986C39.5365 70.5949 40.316 70.0216 40.7417 69.1787C41.1646 68.3255 41.2063 67.2653 40.8667 65.998C40.7204 65.4519 40.5036 64.8695 40.2164 64.2508C39.9394 63.6293 39.6054 63.001 39.2144 62.3659C38.8206 61.7205 38.3842 61.081 37.9052 60.4474L38.8868 59.0414C39.4465 59.3994 40.0684 59.7628 40.7525 60.1317C41.4339 60.4902 42.1279 60.8343 42.8346 61.1639C43.5517 61.4908 44.2422 61.7806 44.9063 62.0334L44.36 63.7037C43.9901 63.5599 43.5928 63.3958 43.1679 63.2114C42.7506 63.0141 42.2979 62.7875 41.8098 62.5318C41.3188 62.2658 40.7678 61.9607 40.1565 61.6165L40.22 61.2351C40.648 61.7609 41.0269 62.2888 41.3566 62.8189C41.6836 63.3386 41.9615 63.8605 42.1902 64.3845C42.4265 64.8954 42.6095 65.393 42.7393 65.8772C43.0292 66.9591 43.0664 67.9429 42.851 68.8289C42.646 69.712 42.202 70.466 41.519 71.0907C40.8361 71.7154 39.9383 72.1768 38.8256 72.475ZM56.5166 64.6868C56.3415 64.7338 56.1443 64.7811 55.9252 64.8287C55.7136 64.8633 55.4969 64.8993 55.275 64.9367L54.899 63.3479C55.046 63.3195 55.2084 63.287 55.3864 63.2504C55.5643 63.2138 55.7305 63.1748 55.885 63.1334C56.6063 62.9401 57.0869 62.6733 57.327 62.3329C57.5671 61.9925 57.6112 61.5389 57.4594 60.9723C57.3296 60.488 57.1379 60.1639 56.8841 60C56.6379 59.823 56.3191 59.787 55.9275 59.8919C55.7627 59.9361 55.5725 60.0091 55.3568 60.1111C55.1487 60.2 54.9026 60.3322 54.6183 60.5077C54.3416 60.6702 54.0011 60.8829 53.5967 61.1459L48.3795 64.5481L47.4275 63.0971L52.6601 59.6907C53.1414 59.3851 53.55 59.1376 53.8857 58.9482C54.2187 58.7486 54.5137 58.5922 54.7705 58.4792C55.0376 58.3635 55.2949 58.2725 55.5421 58.2062C56.4694 57.9578 57.2494 58.0248 57.8819 58.4075C58.5118 58.7798 58.9564 59.4503 59.216 60.4188C59.4976 61.4697 59.4117 62.3651 58.9584 63.1049C58.5051 63.8448 57.6912 64.3721 56.5166 64.6868ZM53.618 68.6439C53.0334 67.5748 52.4282 66.5112 51.8023 65.4531C51.1737 64.3847 50.5455 63.3383 49.9176 62.3139C49.3001 61.2868 48.6898 60.3073 48.0868 59.3757L49.6275 58.4493C50.2147 59.3631 50.8222 60.3323 51.4501 61.3567C52.0752 62.3708 52.7048 63.4223 53.3389 64.5113C53.9703 65.59 54.5969 66.692 55.2187 67.8174L53.618 68.6439ZM54.5272 62.7021C54.1726 62.0793 53.7454 61.3711 53.2456 60.5774C52.743 59.7734 52.1823 58.8967 51.5635 57.9471L53.1012 57.0713C53.4199 57.5601 53.7469 58.0799 54.0822 58.6305C54.425 59.1681 54.7589 59.7136 55.0839 60.267C55.4164 60.8074 55.7214 61.3275 55.9989 61.8274L54.5272 62.7021ZM74.3899 63.575C73.512 63.2249 72.7126 62.9201 71.9915 62.6606C71.2732 62.4113 70.5992 62.1833 69.9696 61.9766C69.3399 61.7698 68.7261 61.5809 68.1282 61.4099C67.5274 61.2285 66.9033 61.0424 66.2558 60.8514C65.585 60.6557 65.044 60.4915 64.633 60.3587C64.2295 60.2128 63.9064 60.0785 63.6637 59.9558C63.4313 59.8304 63.2556 59.6897 63.1365 59.5339C63.025 59.365 62.9375 59.1621 62.874 58.9251C62.8078 58.6778 62.7858 58.4518 62.8083 58.247C62.8382 58.0291 62.9276 57.8064 63.0765 57.5788C63.2225 57.3409 63.4455 57.0603 63.7454 56.737C64.0453 56.4137 64.4357 56.0164 64.9168 55.5452C65.4158 55.0581 65.9603 54.5147 66.5505 53.9148C67.1407 53.315 67.7535 52.6759 68.389 51.9977C69.0244 51.3194 69.6464 50.6116 70.255 49.8743L71.7385 51.0836C71.368 51.5142 70.9731 51.9568 70.5538 52.4114C70.1318 52.8558 69.7135 53.2937 69.2991 53.725C68.8818 54.146 68.481 54.546 68.0967 54.9251C67.7199 55.291 67.3788 55.6254 67.0734 55.9281C66.7653 56.2205 66.5144 56.4588 66.3209 56.6432C65.9441 57.0092 65.6514 57.2975 65.4428 57.508C65.2444 57.7157 65.1076 57.8849 65.0321 58.0155C64.9643 58.1331 64.9455 58.2486 64.9759 58.3619C65.0062 58.4752 65.0634 58.5648 65.1473 58.6307C65.2415 58.6938 65.4147 58.7633 65.667 58.8393C65.9192 58.9153 66.3014 59.0227 66.8134 59.1615C67.0966 59.2292 67.4592 59.3253 67.9011 59.4499C68.3534 59.5716 68.8668 59.7156 69.4414 59.8819C70.0133 60.0379 70.614 60.2192 71.2437 60.426C71.8808 60.6197 72.5287 60.8326 73.1872 61.0647C73.8533 61.2838 74.5001 61.5136 75.1277 61.754L74.3899 63.575Z" fill="white"/>
<g filter="url(#filter2_d_122_1161)">
<rect x="216.506" y="45" width="91" height="29" transform="rotate(15 216.506 45)" fill="#128FCD" fill-opacity="0.2" shape-rendering="crispEdges"/>
<rect x="217.213" y="46.2247" width="89" height="27" transform="rotate(15 217.213 46.2247)" stroke="#48BCCB" stroke-opacity="0.5" stroke-width="2" shape-rendering="crispEdges"/>
</g>
<path d="M247.334 75.7467C246.253 75.4568 245.382 75.1627 244.722 74.8644C244.059 74.5764 243.569 74.2409 243.252 73.8578C242.946 73.4775 242.781 73.0193 242.759 72.4833C242.75 71.9398 242.851 71.2766 243.06 70.4935L245.433 61.6379L247.257 62.1266L244.884 70.9822C244.754 71.4664 244.692 71.8638 244.697 72.1744C244.713 72.4877 244.818 72.7534 245.014 72.9715C245.209 73.1895 245.527 73.385 245.966 73.558C246.416 73.7338 247.017 73.9224 247.769 74.124C248.542 74.331 249.372 74.5313 250.259 74.7247C251.148 74.9079 252.018 75.0635 252.867 75.1916L252.571 76.8517C251.701 76.718 250.807 76.5503 249.89 76.3486C248.969 76.1571 248.117 75.9565 247.334 75.7467ZM241.623 65.0396L242.041 63.4787L256.713 67.0788L256.295 68.6398L241.623 65.0396ZM250.541 72.4978C250.221 72.4122 249.862 72.2885 249.464 72.1265C249.068 71.9543 248.668 71.7587 248.263 71.5397C247.871 71.3131 247.492 71.0791 247.126 70.8375L247.989 69.3461C248.456 69.6256 248.837 69.8494 249.135 70.0174C249.445 70.1779 249.704 70.3026 249.912 70.3914C250.131 70.4831 250.327 70.5524 250.503 70.5993C250.667 70.6435 250.78 70.635 250.841 70.5739C250.904 70.5026 250.984 70.2866 251.081 69.926L252.857 63.2958L254.696 63.7886L252.758 71.0215C252.628 71.5057 252.473 71.8783 252.293 72.1392C252.116 72.3898 251.887 72.5437 251.606 72.6011C251.328 72.6482 250.973 72.6138 250.541 72.4978ZM256.58 78.456L255.13 77.4381L263.509 66.1996L265.076 67.1496L260.606 73.0747L260.134 72.5505C260.762 72.2661 261.366 72.0745 261.944 71.9755C262.533 71.8793 263.075 71.8975 263.57 72.03C263.951 72.1322 264.258 72.3029 264.492 72.5423C264.729 72.7714 264.904 73.0667 265.017 73.4283C265.133 73.7795 265.2 74.1895 265.218 74.6581C265.246 75.1295 265.242 75.6586 265.206 76.2453C265.183 76.7029 265.175 77.1038 265.182 77.448C265.2 77.795 265.262 78.0768 265.37 78.2934C265.488 78.5127 265.676 78.6569 265.933 78.7259C266.386 78.8474 266.872 78.6628 267.39 78.1721C267.911 77.6712 268.503 76.8195 269.168 75.6172L270.646 76.5929C270.071 77.6648 269.506 78.5182 268.949 79.1531C268.395 79.7777 267.824 80.1989 267.236 80.4167C266.645 80.6448 266.025 80.6719 265.375 80.498C264.932 80.3793 264.572 80.1998 264.294 79.9597C264.026 79.7223 263.819 79.4239 263.672 79.0643C263.526 78.7048 263.427 78.2918 263.375 77.8252C263.336 77.351 263.332 76.8309 263.363 76.2647C263.381 75.7838 263.373 75.3619 263.337 74.9991C263.312 74.639 263.23 74.3465 263.092 74.1217C262.964 73.8996 262.75 73.7485 262.451 73.6685C262.256 73.616 262.018 73.5965 261.738 73.6099C261.459 73.6233 261.159 73.692 260.838 73.816C260.531 73.9324 260.21 74.1224 259.874 74.3858C259.541 74.6389 259.212 74.9814 258.886 75.4132L256.58 78.456Z" fill="white"/>
<g filter="url(#filter3_d_122_1161)">
<rect x="39.5" y="102" width="91" height="29" transform="rotate(30 39.5 102)" fill="#128FCD" fill-opacity="0.2" shape-rendering="crispEdges"/>
<rect x="39.866" y="103.366" width="89" height="27" transform="rotate(30 39.866 103.366)" stroke="#48BCCB" stroke-opacity="0.5" stroke-width="2" shape-rendering="crispEdges"/>
</g>
<path d="M53.3107 135.183C52.2577 134.575 51.4899 133.91 51.0076 133.188C50.5292 132.481 50.3256 131.692 50.397 130.822C50.4776 129.957 50.8272 128.989 51.4458 127.917L55.3418 121.169L57.0323 122.145L53.1363 128.893C52.5123 129.974 52.2853 130.89 52.4553 131.641C52.6306 132.382 53.2171 133.041 54.2147 133.617C54.9445 134.039 55.6639 134.275 56.3728 134.327C57.0909 134.385 57.8497 134.244 58.649 133.905C59.4629 133.562 60.3729 133.01 61.3792 132.248L62.5573 133.76C61.6544 134.47 60.8039 135.026 60.0056 135.427C59.2219 135.825 58.4633 136.083 57.7298 136.201C57.0109 136.316 56.2887 136.287 55.5631 136.114C54.8375 135.941 54.0867 135.631 53.3107 135.183ZM60.1848 128.621C60.2496 128.018 60.28 127.432 60.2759 126.863C60.2811 126.299 60.2573 125.701 60.2046 125.067L61.7941 125.098C61.8468 125.732 61.8699 126.342 61.8633 126.93C61.8621 127.508 61.831 128.106 61.77 128.723L60.1848 128.621ZM62.7469 129.047C62.821 128.449 62.8633 127.864 62.8738 127.291C62.8936 126.724 62.8817 126.126 62.8382 125.497L64.4037 125.57C64.4472 126.198 64.461 126.804 64.4452 127.386C64.4386 127.973 64.3903 128.579 64.3002 129.205L62.7469 129.047ZM63.7378 139.171L67.6738 132.354L69.1842 133.226L67.0642 136.897L66.2189 136.409C66.729 135.953 67.2718 135.589 67.8472 135.317C68.4318 135.051 69.0273 134.884 69.6335 134.815C70.249 134.752 70.8727 134.792 71.5045 134.935C72.1362 135.078 72.757 135.325 73.3667 135.677C74.1703 136.141 74.7831 136.68 75.2051 137.293C75.6417 137.902 75.8749 138.554 75.9049 139.249C75.9402 139.934 75.7605 140.619 75.3659 141.302C74.9659 141.995 74.4648 142.5 73.8628 142.818C73.2607 143.135 72.5867 143.257 71.8408 143.184C71.1042 143.116 70.3294 142.847 69.5165 142.378C68.7683 141.946 68.1917 141.441 67.7868 140.862C67.3818 140.283 67.1058 139.588 66.9585 138.776L68.4838 138.087C68.6129 138.802 68.822 139.378 69.1112 139.816C69.4003 140.254 69.8127 140.627 70.3485 140.937C71.0968 141.369 71.7747 141.539 72.3824 141.446C72.9954 141.344 73.4726 140.998 73.814 140.406C74.0486 140 74.1536 139.605 74.1288 139.221C74.1094 138.828 73.9622 138.454 73.6873 138.098C73.4269 137.738 73.0427 137.412 72.5347 137.118C71.9434 136.777 71.3351 136.561 70.7097 136.471C70.0989 136.377 69.4982 136.394 68.9075 136.521C68.3314 136.644 67.7992 136.872 67.3109 137.206C66.8371 137.536 66.4482 137.964 66.1442 138.491L65.2482 140.043L63.7378 139.171ZM66.3649 141.501C66.9559 141.608 67.4393 141.634 67.8153 141.58C68.1913 141.527 68.5268 141.351 68.8219 141.053C69.1169 140.755 69.4351 140.311 69.7764 139.72L73.0484 134.052L74.5865 134.94L71.3145 140.608C70.8505 141.411 70.3833 142.028 69.9131 142.459C69.452 142.895 68.9296 143.16 68.3457 143.254C67.7657 143.362 67.0765 143.34 66.278 143.187L66.3649 141.501ZM78.643 147.85C79.7967 148.455 80.8722 148.928 81.8696 149.27C82.8723 149.602 83.7777 149.805 84.5857 149.877C85.3938 149.95 86.0734 149.892 86.6247 149.706C87.1812 149.51 87.5955 149.176 87.8675 148.705C88.1715 148.179 88.1626 147.65 87.8408 147.119C87.5336 146.585 86.8996 146.04 85.9389 145.485C85.4678 145.213 84.9272 144.944 84.3172 144.678C83.7124 144.403 82.9959 144.119 82.1677 143.825C81.3394 143.532 80.3532 143.203 79.2091 142.838L79.6873 141.082C81.212 141.555 82.5712 142.038 83.7651 142.531C84.9643 143.014 85.9888 143.5 86.8386 143.991C88.3628 144.871 89.3643 145.782 89.843 146.723C90.3217 147.665 90.2758 148.63 89.7051 149.618C89.2838 150.348 88.6965 150.896 87.9434 151.262C87.2049 151.623 86.3315 151.803 85.3234 151.8C84.3152 151.796 83.2034 151.61 81.9878 151.241C80.7815 150.877 79.4953 150.332 78.1291 149.604L78.643 147.85ZM90.2666 143.846C89.6293 143.478 88.9167 143.048 88.129 142.556C87.3559 142.06 86.5585 141.532 85.7367 140.972C84.9296 140.407 84.1481 139.851 83.3925 139.304L84.5283 137.817C85.1585 138.304 85.8542 138.816 86.6152 139.354C87.3762 139.892 88.1525 140.414 88.9441 140.92C89.7356 141.427 90.4778 141.88 91.1706 142.28L90.2666 143.846Z" fill="white"/>
<g filter="url(#filter4_d_122_1161)">
<rect x="165" y="155.5" width="91" height="29" transform="rotate(-30 165 155.5)" fill="#128FCD" fill-opacity="0.2" shape-rendering="crispEdges"/>
<rect x="166.366" y="155.866" width="89" height="27" transform="rotate(-30 166.366 155.866)" stroke="#48BCCB" stroke-opacity="0.5" stroke-width="2" shape-rendering="crispEdges"/>
</g>
<path d="M206.124 156.985C205.034 157.614 204.063 157.885 203.212 157.798C202.375 157.714 201.728 157.275 201.269 156.481C200.81 155.686 200.757 154.91 201.108 154.153C201.459 153.396 202.184 152.701 203.284 152.066C203.884 151.719 204.503 151.448 205.141 151.252C205.78 151.056 206.468 150.936 207.206 150.891C207.953 150.842 208.779 150.864 209.683 150.958C210.582 151.042 211.59 151.199 212.707 151.429L212.262 153.09C211.214 152.895 210.278 152.757 209.456 152.677C208.638 152.583 207.91 152.548 207.271 152.572C206.627 152.587 206.046 152.669 205.529 152.82C205.017 152.956 204.529 153.157 204.068 153.424C202.885 154.107 202.497 154.799 202.902 155.501C203.11 155.861 203.418 156.053 203.825 156.076C204.228 156.09 204.715 155.932 205.288 155.601C205.971 155.207 206.392 154.773 206.55 154.3C206.708 153.827 206.617 153.295 206.275 152.704L201.235 143.974L202.801 143.07L207.841 151.8C208.444 152.843 208.601 153.799 208.314 154.667C208.036 155.53 207.306 156.302 206.124 156.985ZM198.996 152.768L198.204 151.396L208.929 145.204L209.721 146.576L198.996 152.768ZM197.225 150.021L196.417 148.621L207.419 142.269L208.227 143.669L197.225 150.021ZM216.993 150.82L215.248 151.126L213.226 137.254L215.006 136.818L216.035 144.168L215.33 144.132C215.574 143.486 215.865 142.924 216.204 142.445C216.552 141.96 216.948 141.59 217.392 141.334C217.734 141.137 218.072 141.04 218.407 141.044C218.736 141.038 219.068 141.123 219.404 141.299C219.734 141.466 220.071 141.708 220.415 142.027C220.769 142.34 221.14 142.717 221.53 143.157C221.837 143.497 222.115 143.786 222.363 144.025C222.621 144.258 222.864 144.413 223.094 144.49C223.332 144.562 223.567 144.531 223.798 144.397C224.204 144.163 224.417 143.689 224.436 142.976C224.45 142.253 224.267 141.232 223.887 139.912L225.622 139.557C225.974 140.721 226.177 141.724 226.233 142.567C226.283 143.4 226.177 144.102 225.914 144.672C225.658 145.251 225.238 145.709 224.656 146.045C224.259 146.274 223.877 146.402 223.511 146.429C223.154 146.45 222.796 146.386 222.439 146.235C222.081 146.085 221.718 145.863 221.352 145.569C220.989 145.261 220.619 144.897 220.24 144.475C219.913 144.122 219.608 143.829 219.327 143.598C219.055 143.361 218.79 143.212 218.533 143.151C218.285 143.084 218.028 143.129 217.76 143.283C217.584 143.385 217.402 143.539 217.214 143.746C217.026 143.953 216.862 144.214 216.723 144.528C216.588 144.828 216.495 145.189 216.444 145.613C216.388 146.027 216.397 146.502 216.472 147.038L216.993 150.82Z" fill="white"/>
<g filter="url(#filter5_d_122_1161)">
<rect x="98" y="94.5526" width="91" height="29" transform="rotate(-15 98 94.5526)" fill="#128FCD" fill-opacity="0.2" shape-rendering="crispEdges"/>
<rect x="99.2247" y="95.2597" width="89" height="27" transform="rotate(-15 99.2247 95.2597)" stroke="#48BCCB" stroke-opacity="0.5" stroke-width="2" shape-rendering="crispEdges"/>
</g>
<path d="M140.322 105.649L139.887 104.026L145.698 102.469L144.58 98.2963L140.16 99.4806L139.738 97.9043L144.158 96.7199L143.238 93.2889L137.736 94.7632L137.302 93.1404L150.191 89.6867L150.626 91.3095L145.124 92.7837L146.043 96.2147L150.463 95.0303L150.886 96.6067L146.466 97.7911L147.584 101.964L153.395 100.407L153.829 102.03L140.322 105.649Z" fill="white"/>
<defs>
<filter id="filter0_d_122_1161" x="2" y="0" width="290.18" height="27" filterUnits="userSpaceOnUse" color-interpolation-filters="sRGB">
<feFlood flood-opacity="0" result="BackgroundImageFix"/>
<feColorMatrix in="SourceAlpha" type="matrix" values="0 0 0 0 0 0 0 0 0 0 0 0 0 0 0 0 0 0 127 0" result="hardAlpha"/>
<feOffset/>
<feGaussianBlur stdDeviation="2"/>
<feComposite in2="hardAlpha" operator="out"/>
<feColorMatrix type="matrix" values="0 0 0 0 1 0 0 0 0 1 0 0 0 0 1 0 0 0 0.6 0"/>
<feBlend mode="normal" in2="BackgroundImageFix" result="effect1_dropShadow_122_1161"/>
<feBlend mode="normal" in="SourceGraphic" in2="effect1_dropShadow_122_1161" result="shape"/>
</filter>
<filter id="filter1_d_122_1161" x="0" y="29" width="107.405" height="63.5644" filterUnits="userSpaceOnUse" color-interpolation-filters="sRGB">
<feFlood flood-opacity="0" result="BackgroundImageFix"/>
<feColorMatrix in="SourceAlpha" type="matrix" values="0 0 0 0 0 0 0 0 0 0 0 0 0 0 0 0 0 0 127 0" result="hardAlpha"/>
<feOffset/>
<feGaussianBlur stdDeviation="3"/>
<feComposite in2="hardAlpha" operator="out"/>
<feColorMatrix type="matrix" values="0 0 0 0 0.282353 0 0 0 0 0.737255 0 0 0 0 0.796078 0 0 0 0.25 0"/>
<feBlend mode="normal" in2="BackgroundImageFix" result="effect1_dropShadow_122_1161"/>
<feBlend mode="normal" in="SourceGraphic" in2="effect1_dropShadow_122_1161" result="shape"/>
</filter>
<filter id="filter2_d_122_1161" x="203" y="39" width="107.405" height="63.5644" filterUnits="userSpaceOnUse" color-interpolation-filters="sRGB">
<feFlood flood-opacity="0" result="BackgroundImageFix"/>
<feColorMatrix in="SourceAlpha" type="matrix" values="0 0 0 0 0 0 0 0 0 0 0 0 0 0 0 0 0 0 127 0" result="hardAlpha"/>
<feOffset/>
<feGaussianBlur stdDeviation="3"/>
<feComposite in2="hardAlpha" operator="out"/>
<feColorMatrix type="matrix" values="0 0 0 0 0.282353 0 0 0 0 0.737255 0 0 0 0 0.796078 0 0 0 0.25 0"/>
<feBlend mode="normal" in2="BackgroundImageFix" result="effect1_dropShadow_122_1161"/>
<feBlend mode="normal" in="SourceGraphic" in2="effect1_dropShadow_122_1161" result="shape"/>
</filter>
<filter id="filter3_d_122_1161" x="19" y="96" width="105.309" height="82.6147" filterUnits="userSpaceOnUse" color-interpolation-filters="sRGB">
<feFlood flood-opacity="0" result="BackgroundImageFix"/>
<feColorMatrix in="SourceAlpha" type="matrix" values="0 0 0 0 0 0 0 0 0 0 0 0 0 0 0 0 0 0 127 0" result="hardAlpha"/>
<feOffset/>
<feGaussianBlur stdDeviation="3"/>
<feComposite in2="hardAlpha" operator="out"/>
<feColorMatrix type="matrix" values="0 0 0 0 0.282353 0 0 0 0 0.737255 0 0 0 0 0.796078 0 0 0 0.25 0"/>
<feBlend mode="normal" in2="BackgroundImageFix" result="effect1_dropShadow_122_1161"/>
<feBlend mode="normal" in="SourceGraphic" in2="effect1_dropShadow_122_1161" result="shape"/>
</filter>
<filter id="filter4_d_122_1161" x="159" y="104" width="105.309" height="82.6147" filterUnits="userSpaceOnUse" color-interpolation-filters="sRGB">
<feFlood flood-opacity="0" result="BackgroundImageFix"/>
<feColorMatrix in="SourceAlpha" type="matrix" values="0 0 0 0 0 0 0 0 0 0 0 0 0 0 0 0 0 0 127 0" result="hardAlpha"/>
<feOffset/>
<feGaussianBlur stdDeviation="3"/>
<feComposite in2="hardAlpha" operator="out"/>
<feColorMatrix type="matrix" values="0 0 0 0 0.282353 0 0 0 0 0.737255 0 0 0 0 0.796078 0 0 0 0.25 0"/>
<feBlend mode="normal" in2="BackgroundImageFix" result="effect1_dropShadow_122_1161"/>
<feBlend mode="normal" in="SourceGraphic" in2="effect1_dropShadow_122_1161" result="shape"/>
</filter>
<filter id="filter5_d_122_1161" x="92" y="65" width="107.405" height="63.5644" filterUnits="userSpaceOnUse" color-interpolation-filters="sRGB">
<feFlood flood-opacity="0" result="BackgroundImageFix"/>
<feColorMatrix in="SourceAlpha" type="matrix" values="0 0 0 0 0 0 0 0 0 0 0 0 0 0 0 0 0 0 127 0" result="hardAlpha"/>
<feOffset/>
<feGaussianBlur stdDeviation="3"/>
<feComposite in2="hardAlpha" operator="out"/>
<feColorMatrix type="matrix" values="0 0 0 0 0.282353 0 0 0 0 0.737255 0 0 0 0 0.796078 0 0 0 0.25 0"/>
<feBlend mode="normal" in2="BackgroundImageFix" result="effect1_dropShadow_122_1161"/>
<feBlend mode="normal" in="SourceGraphic" in2="effect1_dropShadow_122_1161" result="shape"/>
</filter>
</defs>
</svg>
