<svg width="321" height="187" viewBox="0 0 321 187" fill="none" xmlns="http://www.w3.org/2000/svg">
<g filter="url(#filter0_d_122_1105)">
<rect x="22" y="153.505" width="139" height="29" transform="rotate(-20.864 22 153.505)" fill="#128FCD" fill-opacity="0.2" shape-rendering="crispEdges"/>
<rect x="23.2906" y="154.083" width="137" height="27" transform="rotate(-20.864 23.2906 154.083)" stroke="#48BCCB" stroke-opacity="0.5" stroke-width="2" shape-rendering="crispEdges"/>
</g>
<path d="M44.5192 168.765C44.2701 168.86 43.9623 168.966 43.5958 169.083C43.2432 169.206 42.7671 169.364 42.1677 169.559L41.5003 168.032C42.0461 167.847 42.4854 167.697 42.8181 167.581C43.1608 167.462 43.4268 167.367 43.6162 167.294C43.8454 167.207 44.0061 167.134 44.0982 167.076C44.1902 167.018 44.2272 166.936 44.2092 166.829C44.1873 166.711 44.1308 166.533 44.0397 166.294L42.068 161.121L37.0894 163.018L36.5081 161.493L45.6282 158.017L46.2094 159.542L43.907 160.42L45.8786 165.593C46.08 166.121 46.2146 166.549 46.2825 166.877C46.3604 167.202 46.3531 167.467 46.2606 167.673C46.1719 167.89 45.9806 168.077 45.6868 168.235C45.4068 168.398 45.0176 168.575 44.5192 168.765ZM36.8132 171.908L33.9925 164.507L35.7567 163.835L38.5774 171.235L36.8132 171.908ZM33.8072 168.019L32.6165 166.333C32.9866 165.747 33.2989 165.188 33.5532 164.657C33.8075 164.127 34.0224 163.582 34.198 163.025C34.3797 162.453 34.5305 161.831 34.6505 161.157L36.3244 161.461C36.1713 162.706 35.834 163.948 35.3126 165.185L35.032 164.539C35.0021 164.79 34.948 165.067 34.8698 165.371C34.7915 165.675 34.6933 165.986 34.5752 166.305C34.467 166.621 34.3451 166.93 34.2094 167.233C34.0836 167.532 33.9496 167.794 33.8072 168.019ZM32.3568 162.956L31.1348 161.726C31.503 161.255 31.8215 160.803 32.09 160.369C32.3548 159.926 32.584 159.479 32.7776 159.028C32.9674 158.568 33.137 158.07 33.2864 157.533L34.9212 157.869C34.7462 158.518 34.5422 159.121 34.3092 159.678C34.0862 160.231 33.8138 160.774 33.4921 161.307C33.1765 161.827 32.7981 162.377 32.3568 162.956ZM36.208 158.954L35.621 157.414L43.5001 154.411L44.0871 155.951L36.208 158.954ZM60.6434 162.911C59.7344 162.652 58.908 162.431 58.1642 162.246C57.4241 162.071 56.7304 161.914 56.0829 161.772C55.4355 161.631 54.8056 161.506 54.1933 161.397C53.5771 161.278 52.9373 161.156 52.2737 161.032C51.5863 160.906 51.0314 160.798 50.609 160.708C50.1927 160.604 49.8576 160.504 49.6036 160.406C49.3596 160.305 49.1704 160.183 49.0361 160.04C48.9079 159.884 48.8001 159.691 48.7127 159.462C48.6216 159.222 48.5767 159 48.5781 158.794C48.5856 158.574 48.6518 158.343 48.7766 158.102C48.8976 157.85 49.0907 157.548 49.356 157.196C49.6213 156.844 49.9691 156.409 50.3996 155.891C50.8461 155.355 51.3323 154.759 51.8581 154.102C52.384 153.445 52.9283 152.747 53.4911 152.007C54.0539 151.267 54.6004 150.5 55.1304 149.704L56.7297 150.755C56.4051 151.222 56.0575 151.702 55.6869 152.197C55.3125 152.683 54.9411 153.161 54.5729 153.632C54.2008 154.094 53.843 154.533 53.4994 154.949C53.162 155.351 52.8569 155.719 52.584 156.051C52.3073 156.374 52.0821 156.636 51.9084 156.84C51.571 157.242 51.3093 157.559 51.1233 157.789C50.9472 158.016 50.8283 158.199 50.7666 158.336C50.7111 158.46 50.7043 158.577 50.7461 158.687C50.7878 158.796 50.8538 158.88 50.944 158.936C51.0442 158.99 51.2236 159.041 51.4823 159.091C51.741 159.141 52.1322 159.208 52.6557 159.294C52.9443 159.333 53.3148 159.391 53.7672 159.47C54.2295 159.545 54.755 159.636 55.3436 159.742C55.9284 159.839 56.5445 159.958 57.1919 160.1C57.8456 160.227 58.5118 160.373 59.1906 160.536C59.8755 160.686 60.5425 160.849 61.1913 161.024L60.6434 162.911ZM65.3588 157.672L63.3302 152.349L61.9846 152.862L61.4375 151.427L62.7831 150.914L61.4269 147.356L63.1761 146.689L64.5324 150.247L66.0125 149.683L66.5595 151.118L65.0794 151.683L67.108 157.005L65.3588 157.672ZM64.7041 159.548L63.8986 158.108C64.3551 157.809 64.8229 157.494 65.3017 157.163C65.7906 156.828 66.2737 156.478 66.7512 156.114C67.2248 155.739 67.6698 155.364 68.086 154.988L68.7142 156.187C68.2794 156.604 67.8378 157.018 67.3893 157.429C66.947 157.825 66.4971 158.202 66.0396 158.559C65.592 158.913 65.1469 159.242 64.7041 159.548ZM69.1048 158.83L67.7939 158.131C68.1626 157.75 68.5162 157.33 68.8545 156.87C69.1891 156.4 69.498 155.923 69.7813 155.438C70.0608 154.944 70.2985 154.459 70.4945 153.985C70.6866 153.501 70.8316 153.057 70.9293 152.655L72.4594 152.671C72.3142 153.308 72.0751 153.999 71.742 154.742C71.4089 155.486 71.0146 156.218 70.559 156.94C70.0997 157.651 69.6149 158.281 69.1048 158.83ZM68.2406 155.888L66.9966 155.095C67.3369 154.76 67.6563 154.37 67.9548 153.926C68.2632 153.477 68.5373 153.013 68.7769 152.533C69.0265 152.05 69.2232 151.593 69.3669 151.161L70.8151 151.277C70.6681 151.79 70.4581 152.332 70.1853 152.904C69.9186 153.462 69.6156 154 69.2763 154.518C68.947 155.031 68.6018 155.488 68.2406 155.888ZM72.5429 158.461L71.1388 157.832C71.4486 157.417 71.7414 156.957 72.0171 156.452C72.299 155.934 72.5464 155.4 72.7595 154.851C72.9725 154.302 73.1457 153.768 73.2789 153.249C73.4122 152.73 73.4914 152.249 73.5165 151.806L74.9953 151.687C74.983 152.194 74.9086 152.748 74.772 153.348C74.6416 153.934 74.4644 154.532 74.2405 155.143C74.0265 155.749 73.7712 156.337 73.4746 156.907C73.1918 157.483 72.8813 158.001 72.5429 158.461ZM76.6679 156.615C76.4287 156.706 76.1458 156.802 75.8192 156.904C75.4965 157.015 75.1419 157.134 74.7556 157.258L74.1188 155.857C74.3955 155.774 74.6673 155.693 74.934 155.615C75.2069 155.522 75.4181 155.447 75.5676 155.39C75.7371 155.326 75.8488 155.215 75.9029 155.057C75.9632 154.886 75.9392 154.598 75.8309 154.194C75.7288 153.776 75.5238 153.164 75.2161 152.357L75.1648 152.222L69.2294 154.484L68.7507 153.228L76.3906 150.316L76.8123 151.423C77.1732 152.37 77.4327 153.155 77.5909 153.78C77.7452 154.395 77.8065 154.885 77.7748 155.251C77.7468 155.627 77.6342 155.915 77.4367 156.116C77.2531 156.323 76.9968 156.489 76.6679 156.615ZM67.0035 153.226L66.502 151.911L76.0406 148.275L76.5421 149.591L67.0035 153.226ZM67.0707 151.112L65.1219 145.999L73.1655 142.933L75.1143 148.046L68.7751 150.462L68.3535 149.356L72.8836 147.629L72.5816 146.837L68.0514 148.563L67.6298 147.457L72.1599 145.731L71.875 144.983L67.3448 146.71L68.7751 150.462L67.0707 151.112ZM81.6472 154.854L79.7711 154.559C79.8 154.125 79.8001 153.691 79.7716 153.257C79.743 152.823 79.6744 152.358 79.5656 151.863C79.463 151.354 79.3089 150.785 79.1032 150.156C78.9038 149.513 78.6445 148.772 78.3254 147.935L77.1173 144.766L82.8435 142.583L84.9348 148.07L79.8964 149.991L79.3379 148.525L82.8514 147.186L81.8712 144.615L79.3894 145.561L80.341 148.057C80.7323 149.084 81.0363 150.001 81.2528 150.809C81.4656 151.607 81.5994 152.332 81.6541 152.985C81.7187 153.634 81.7164 154.257 81.6472 154.854ZM86.4706 152.639L84.7988 152.026C85.0004 151.447 85.1465 150.872 85.2371 150.301C85.3276 149.73 85.3574 149.119 85.3265 148.469C85.2955 147.819 85.1955 147.092 85.0264 146.289C84.8572 145.486 84.6058 144.571 84.2719 143.546C83.948 142.516 83.5334 141.338 83.0282 140.013L84.6728 139.386C85.2198 140.821 85.6724 142.099 86.0305 143.218C86.3885 144.337 86.6574 145.342 86.8369 146.232C87.0227 147.109 87.1294 147.913 87.157 148.644C87.1809 149.366 87.134 150.051 87.0164 150.701C86.895 151.341 86.7131 151.987 86.4706 152.639ZM90.7736 151.17L87.9985 143.889L85.4718 144.852L84.8678 143.267L90.4744 141.13L91.0784 142.715L89.688 143.245L92.4631 150.526L90.7736 151.17ZM76.0299 143.845L75.4487 142.32L82.0869 139.789L82.6681 141.314L76.0299 143.845ZM83.6415 141.577L83.0282 140.013C84.0643 139.527 85.0066 139.019 85.8552 138.49C86.7038 137.961 87.4326 137.432 88.0415 136.903L89.0734 138.308C87.7099 139.433 85.8992 140.522 83.6415 141.577ZM101.752 146.506C99.8886 147.216 98.3631 147.467 97.1759 147.257C95.985 147.038 95.1748 146.365 94.7456 145.238C94.3847 144.291 94.4099 143.294 94.8213 142.247C95.2288 141.19 96.0529 140.043 97.2934 138.805C98.544 137.564 100.236 136.194 102.371 134.695L103.399 136.136C101.589 137.407 100.137 138.554 99.0429 139.577C97.9585 140.595 97.2137 141.501 96.8084 142.295C96.4094 143.075 96.3295 143.779 96.5688 144.406C97.0627 145.702 98.6203 145.85 101.242 144.851C101.67 144.688 102.111 144.497 102.564 144.279C103.018 144.06 103.52 143.806 104.072 143.516C104.629 143.212 105.259 142.858 105.961 142.453L106.786 143.988C105.9 144.509 105.03 144.983 104.177 145.411C103.338 145.844 102.53 146.21 101.752 146.506ZM96.3646 140.906C95.7033 140.039 95.0944 139.175 94.5379 138.314C93.9777 137.443 93.4611 136.567 92.9882 135.686L94.6947 134.727C95.1776 135.605 95.6953 136.469 96.248 137.32C96.7968 138.161 97.3836 138.982 98.0084 139.783L96.3646 140.906ZM113.87 141.459C113.361 141.653 112.834 141.677 112.288 141.532C111.738 141.376 111.195 141.075 110.659 140.628C110.124 140.182 109.62 139.609 109.148 138.91C108.682 138.197 108.278 137.392 107.937 136.495C107.659 135.767 107.427 134.977 107.238 134.124C107.057 133.258 106.924 132.326 106.841 131.33L108.67 130.873C108.757 131.788 108.882 132.642 109.048 133.435C109.213 134.228 109.421 134.953 109.672 135.611C109.911 136.239 110.187 136.813 110.499 137.333C110.812 137.854 111.132 138.291 111.461 138.645C111.8 138.995 112.125 139.248 112.435 139.404C112.756 139.555 113.041 139.584 113.29 139.489C113.529 139.398 113.75 139.199 113.953 138.893C114.163 138.574 114.35 138.183 114.516 137.72C114.682 137.257 114.809 136.752 114.898 136.205C114.996 135.654 115.042 135.1 115.035 134.543L116.942 134.741C116.951 135.513 116.884 136.264 116.739 136.993C116.594 137.721 116.383 138.395 116.106 139.015C115.834 139.621 115.505 140.134 115.118 140.556C114.734 140.987 114.318 141.289 113.87 141.459ZM120.822 137.149C120.389 136.012 119.878 134.912 119.29 133.846C118.711 132.777 118.074 131.781 117.38 130.858C116.696 129.932 115.984 129.113 115.245 128.401L116.717 127.275C117.521 128.008 118.278 128.855 118.987 129.818C119.702 130.766 120.366 131.803 120.978 132.929C121.595 134.04 122.142 135.219 122.616 136.465L120.822 137.149ZM126.607 137.05L125.029 136.145L131.013 126.193L131.225 126.66L123.256 129.697L122.663 128.142L132.516 124.387L133.109 125.942L130.385 130.61L129.519 130.855C129.433 130.511 129.465 130.219 129.613 129.98C129.758 129.73 130.005 129.539 130.354 129.406C130.832 129.224 131.222 129.184 131.524 129.286C131.821 129.378 132.07 129.551 132.27 129.806C132.48 130.057 132.672 130.321 132.845 130.597C133.005 130.867 133.176 131.122 133.359 131.36C133.547 131.585 133.773 131.744 134.037 131.838C134.298 131.921 134.627 131.887 135.026 131.735C135.195 131.671 135.416 131.575 135.687 131.449C135.965 131.309 136.245 131.162 136.529 131.008C136.819 130.84 137.069 130.688 137.28 130.551L138.037 132.043C137.778 132.233 137.494 132.415 137.184 132.591C136.874 132.766 136.568 132.922 136.267 133.06C135.979 133.204 135.721 133.319 135.492 133.407C134.894 133.635 134.38 133.739 133.95 133.72C133.534 133.708 133.179 133.615 132.885 133.441C132.591 133.268 132.344 133.054 132.144 132.799C131.944 132.545 131.766 132.304 131.612 132.078C131.467 131.847 131.33 131.654 131.202 131.497C131.074 131.341 130.936 131.233 130.788 131.176C130.647 131.104 130.472 131.108 130.262 131.188C130.183 131.218 130.105 131.27 130.031 131.344C129.953 131.409 129.863 131.517 129.761 131.67C129.666 131.809 129.536 132.024 129.373 132.314L126.607 137.05ZM131.648 123.143C130.91 123.424 130.075 123.719 129.143 124.029C128.211 124.338 127.238 124.646 126.225 124.953C125.222 125.255 124.224 125.544 123.233 125.819L122.818 124.145C123.833 123.873 124.829 123.596 125.806 123.315C126.783 123.033 127.718 122.746 128.61 122.451C129.503 122.157 130.318 121.869 131.055 121.588L131.648 123.143ZM146.685 129.261C145.608 129.671 144.675 129.753 143.885 129.506C143.1 129.245 142.543 128.682 142.213 127.814C141.874 126.927 141.913 126.131 142.329 125.424C142.745 124.718 143.496 124.158 144.582 123.744C145.06 123.561 145.537 123.448 146.011 123.404C146.491 123.347 147.021 123.373 147.599 123.484C148.178 123.594 148.858 123.792 149.64 124.076C150.418 124.35 151.344 124.728 152.418 125.209L151.777 126.806C150.795 126.358 149.958 126.004 149.265 125.743C148.568 125.472 147.976 125.281 147.489 125.17C147.001 125.059 146.569 125.018 146.192 125.048C145.811 125.067 145.437 125.147 145.068 125.288C143.912 125.729 143.493 126.368 143.812 127.205C144.128 128.032 144.863 128.225 146.02 127.785C146.638 127.549 147.027 127.252 147.187 126.894C147.354 126.523 147.321 126.033 147.089 125.425L144.776 119.355L144.357 119.514L143.178 116.42L144.912 115.759L146.091 118.853L146.51 118.694L148.852 124.839C149.251 125.885 149.267 126.781 148.9 127.526C148.53 128.261 147.791 128.839 146.685 129.261ZM140.643 131.872C139.992 130.944 139.417 130.004 138.918 129.053C138.418 128.102 137.956 127.068 137.53 125.952C137.108 124.846 136.769 123.776 136.513 122.744C136.253 121.702 136.056 120.618 135.924 119.492L137.774 119.044C137.903 120.102 138.094 121.142 138.347 122.165C138.606 123.173 138.937 124.206 139.339 125.262C139.742 126.319 140.184 127.315 140.666 128.25C141.158 129.181 141.704 130.074 142.304 130.93L140.643 131.872ZM140.058 122.026L139.482 120.516L148.991 116.892L149.567 118.402L140.058 122.026ZM146.539 117.467C146.267 117.023 145.994 116.607 145.721 116.221C145.448 115.834 145.156 115.455 144.843 115.083L146.102 114.209C146.435 114.573 146.74 114.954 147.016 115.35C147.293 115.747 147.568 116.184 147.842 116.662L146.539 117.467ZM148.554 116.511C148.289 116.053 148.019 115.63 147.746 115.243C147.483 114.853 147.195 114.472 146.882 114.1L148.168 113.25C148.481 113.622 148.773 114.013 149.043 114.424C149.32 114.82 149.588 115.255 149.848 115.726L148.554 116.511Z" fill="white"/>
<g filter="url(#filter1_d_122_1105)">
<rect x="167" y="5" width="64" height="17" stroke="white" stroke-width="2"/>
<rect x="97" y="5" width="64" height="17" stroke="white" stroke-width="2"/>
</g>
<g filter="url(#filter2_d_122_1105)">
<rect x="6" y="65.038" width="91" height="29" transform="rotate(-19.2741 6 65.038)" fill="#128FCD" fill-opacity="0.2" shape-rendering="crispEdges"/>
<rect x="7.27404" y="65.6518" width="89" height="27" transform="rotate(-19.2741 7.27404 65.6518)" stroke="#48BCCB" stroke-opacity="0.5" stroke-width="2" shape-rendering="crispEdges"/>
</g>
<path d="M24.5051 81.9665C24.2231 82.0651 23.8773 82.1747 23.4675 82.2954C23.0713 82.4227 22.5928 82.5731 22.0319 82.7466L21.4177 81.2325C21.9383 81.073 22.3815 80.935 22.7475 80.8183C23.1236 80.6981 23.4174 80.601 23.6288 80.5271C23.8503 80.4496 24.0079 80.3832 24.1015 80.3279C24.2053 80.269 24.2496 80.1857 24.2345 80.078C24.2159 79.9602 24.1644 79.7804 24.0799 79.5388L22.9338 76.2614L16.7113 78.4373L16.1567 76.8515L22.3792 74.6756L21.7666 72.9236L23.6243 72.274L24.2369 74.0259L29.9611 72.0243L30.5156 73.6101L24.7915 75.6118L25.927 78.859C26.1136 79.3926 26.2363 79.8243 26.2951 80.154C26.364 80.4803 26.3493 80.7453 26.2511 80.9491C26.1629 81.1495 25.9749 81.3226 25.6869 81.4685C25.4125 81.6209 25.0186 81.7869 24.5051 81.9665ZM16.6994 72.1022L16.1555 70.5465L26.2746 67.008L26.8186 68.5636L16.6994 72.1022ZM23.3097 73.9434L21.9667 73.1079C22.6591 72.2443 23.2858 71.3867 23.8468 70.5351C24.4043 69.6734 24.914 68.772 25.3758 67.8308L26.8186 68.5636C26.33 69.5255 25.7987 70.4458 25.2246 71.3245C24.657 72.1897 24.0187 73.0626 23.3097 73.9434ZM35.5968 72.969L35.0581 71.4284L37.1423 70.6996L34.66 63.6011L36.4271 62.9832L38.9094 70.0817L41.8092 69.0676L40.6209 65.6694L34.3833 67.8506L33.8551 66.3403L40.0927 64.1591L39.3269 61.9691L41.1393 61.3354L41.9051 63.5253L43.4759 62.9761L44.004 64.4864L42.4333 65.0357L43.6216 68.4339L45.6605 67.7209L46.1992 69.2614L35.5968 72.969ZM35.0077 78.7007L31.5959 68.944L33.3479 68.3314L36.7597 78.088L35.0077 78.7007ZM38.1401 77.6731L36.6234 76.7288C37.1929 75.9986 37.6945 75.2356 38.1282 74.4398C38.5719 73.6406 38.9217 72.8798 39.1776 72.1575L40.822 72.8368C40.6411 73.3859 40.4082 73.9476 40.1231 74.5219C39.8445 75.0826 39.5338 75.632 39.1908 76.17C38.8579 76.7045 38.5077 77.2056 38.1401 77.6731ZM32.2054 73.9345L30.8739 72.1627C31.1258 71.3966 31.31 70.6147 31.4265 69.8168C31.543 69.019 31.5984 68.1917 31.5926 67.3349C31.5833 66.4681 31.5058 65.5516 31.36 64.5856L33.1421 64.3014C33.3261 65.3445 33.4302 66.3533 33.4546 67.3279C33.4755 68.2924 33.4229 69.1922 33.2968 70.0273L33.0077 69.6368C33.0127 69.9741 32.9909 70.332 32.9425 70.7105C32.8941 71.0891 32.8323 71.4779 32.7572 71.8771C32.6886 72.2627 32.6047 72.6366 32.5054 72.9991C32.4127 73.3479 32.3127 73.6597 32.2054 73.9345ZM46.69 74.785C46.0261 74.3731 45.2764 73.9742 44.4409 73.5883C43.6155 73.199 42.7721 72.8554 41.9109 72.5577L42.6868 70.9473C43.4766 71.2022 44.2842 71.5244 45.1096 71.9137C45.9416 72.2895 46.7286 72.698 47.4705 73.1391L46.69 74.785ZM56.3078 68.4555C56.8203 68.2085 57.2558 67.8867 57.6144 67.4901C57.9794 67.08 58.2562 66.6273 58.4446 66.132C58.6395 65.6231 58.7396 65.0853 58.7448 64.5184C58.75 63.9516 58.6505 63.3762 58.4463 62.7922C58.1575 61.9666 57.7145 61.3136 57.1171 60.8332C56.5162 60.3427 55.8153 60.051 55.0144 59.9582C54.2236 59.8618 53.3802 59.9703 52.484 60.2837C51.7188 60.5513 51.053 60.9254 50.4865 61.4059C49.9201 61.8865 49.4643 62.4414 49.1193 63.0705C48.7809 63.6861 48.5763 64.3452 48.5057 65.0479C48.4315 65.7406 48.5141 66.4292 48.7535 67.1139C48.926 67.6073 49.1721 68.0523 49.4916 68.4491C49.8112 68.8459 50.1428 69.148 50.4866 69.3555C50.8369 69.5494 51.148 69.5988 51.4198 69.5037C51.8125 69.3664 52.0651 68.877 52.1776 68.0353C52.2901 67.1937 52.2582 66.0522 52.0819 64.611C51.9121 63.1561 51.5987 61.4521 51.1417 59.4988L52.9571 59.0674C53.3904 61.0176 53.7003 62.7116 53.8867 64.1494C54.073 65.5871 54.1346 66.7973 54.0714 67.7799C54.0082 68.7625 53.8172 69.5412 53.4984 70.1159C53.1761 70.6807 52.7229 71.0651 52.1389 71.2693C51.6556 71.4383 51.1653 71.4742 50.668 71.3769C50.1707 71.2796 49.6953 71.0673 49.2418 70.74C48.7883 70.4126 48.3757 69.9919 48.0038 69.4779C47.6284 68.9537 47.3245 68.3594 47.0922 67.6949C46.7612 66.7484 46.6328 65.8158 46.7071 64.8972C46.7778 63.9684 47.0282 63.1011 47.4584 62.2953C47.8885 61.4895 48.4802 60.7741 49.2334 60.1491C49.9932 59.5105 50.8917 59.0099 51.9287 58.6472C53.1471 58.2212 54.3054 58.0761 55.4038 58.2118C56.5122 58.344 57.4829 58.7447 58.3158 59.4139C59.1487 60.0832 59.7712 61.0068 60.1831 62.1849C60.4613 62.9803 60.5992 63.7626 60.597 64.5318C60.6049 65.2974 60.4856 66.0228 60.2392 66.7078C59.9894 67.3828 59.6205 67.9921 59.1325 68.5356C58.6446 69.0791 58.049 69.5247 57.3456 69.8724L56.3078 68.4555ZM74.2089 64.8739C74.0478 64.9302 73.7976 65.0064 73.4582 65.1024C73.1325 65.205 72.7497 65.322 72.3097 65.4532L71.7015 64.0048C72.0876 63.8811 72.4302 63.7782 72.7292 63.6963C73.0247 63.6042 73.2379 63.5353 73.3688 63.4895C73.6306 63.398 73.8134 63.3228 73.9171 63.2639C74.0274 63.1915 74.0732 63.0963 74.0546 62.9785C74.0461 62.8572 73.996 62.6657 73.9045 62.4039L72.9222 59.5947L67.6058 61.4537L67.083 59.9585L72.3993 58.0995L71.9504 56.8157L66.634 58.6748L66.1112 57.1795L69.4339 56.0176L68.9005 54.4922L66.197 55.4376L65.69 53.9877L68.3935 53.0423L67.8706 51.5471L69.683 50.9133L70.2058 52.4085L73.0604 51.4103L73.5674 52.8602L70.7129 53.8584L71.2463 55.3839L74.6294 54.2008L75.1523 55.696L73.7477 56.1872L74.1966 57.471L75.6012 56.9798L76.124 58.475L74.7194 58.9662L75.6701 61.6848C75.8637 62.2386 75.99 62.6803 76.0488 63.0101C76.1111 63.3499 76.0932 63.6217 75.9949 63.8255C75.9002 64.0395 75.7039 64.2211 75.4058 64.3705C75.1214 64.5265 74.7224 64.6943 74.2089 64.8739ZM64.2703 67.9594L59.8603 55.3482L64.4819 53.7321L68.5803 65.4522L65.6201 66.4874L65.0972 64.9921L66.4716 64.5115L65.1565 60.7508L63.7821 61.2314L63.254 59.7211L64.6284 59.2405L63.4348 55.8272L62.0604 56.3078L65.9317 67.3784L64.2703 67.9594ZM71.4545 64.0742C70.9849 63.7977 70.4834 63.5268 69.9499 63.2613C69.4163 62.9959 68.8984 62.7589 68.3961 62.5503L69.1939 61.051C69.7063 61.256 70.2292 61.4912 70.7628 61.7567C71.2963 62.0221 71.7978 62.2931 72.2674 62.5695L71.4545 64.0742ZM86.4457 59.7812C85.3583 60.1614 84.423 60.2173 83.6398 59.9488C82.8631 59.6667 82.3216 59.0876 82.0153 58.2116C81.7019 57.3155 81.7628 56.5202 82.1979 55.8256C82.6331 55.1311 83.3994 54.5919 84.4969 54.2081C84.9701 54.0426 85.4494 53.9428 85.9346 53.9087C86.4164 53.8646 86.9449 53.9057 87.5203 54.0323C88.0956 54.1588 88.7651 54.3767 89.5286 54.686C90.2987 54.9817 91.2188 55.3831 92.2889 55.8903L91.5885 57.4743C90.6201 56.9993 89.7931 56.6218 89.1076 56.3417C88.4286 56.0481 87.847 55.839 87.3628 55.7145C86.8785 55.5901 86.4426 55.5391 86.055 55.5616C85.6739 55.5706 85.3021 55.6385 84.9397 55.7652C83.7717 56.1736 83.3356 56.8007 83.6313 57.6465C83.9236 58.4822 84.6537 58.6959 85.8217 58.2874C86.456 58.0656 86.8583 57.7781 87.0285 57.4247C87.2053 57.0578 87.1863 56.5672 86.9716 55.953L83.7077 46.6193L85.4596 46.0066L88.7499 55.4159C89.1196 56.4731 89.1058 57.3707 88.7084 58.1085C88.3176 58.8328 87.5633 59.3904 86.4457 59.7812ZM79.9956 52.2904L79.4622 50.765L89.0678 47.406L89.6012 48.9315L79.9956 52.2904ZM80.3334 62.2237C79.7089 61.2782 79.1602 60.3231 78.6873 59.3584C78.2144 58.3938 77.7808 57.3476 77.3864 56.2199C76.9956 55.1023 76.6863 54.0239 76.4586 52.9849C76.2273 51.9358 76.0562 50.8486 75.9453 49.7235L77.8066 49.3269C77.9065 50.388 78.0686 51.4331 78.2928 52.4621C78.5236 53.4775 78.8256 54.5189 79.1988 55.5862C79.572 56.6535 79.9865 57.6611 80.4423 58.6091C80.9082 59.5536 81.4292 60.4619 82.0054 61.3339L80.3334 62.2237Z" fill="white"/>
<g filter="url(#filter3_d_122_1105)">
<rect x="11" y="112.049" width="91" height="29" transform="rotate(-20.6212 11 112.049)" fill="#128FCD" fill-opacity="0.2" shape-rendering="crispEdges"/>
<rect x="12.2881" y="112.633" width="89" height="27" transform="rotate(-20.6212 12.2881 112.633)" stroke="#48BCCB" stroke-opacity="0.5" stroke-width="2" shape-rendering="crispEdges"/>
</g>
<path d="M28.2578 123.77C28.239 123.72 28.2221 123.675 28.2071 123.635C28.1921 123.595 28.1771 123.555 28.162 123.516L27.7169 122.333L23.4341 123.944L22.9382 122.626L27.221 121.015L26.8603 120.056L22.4278 121.724L21.9094 120.347L26.3419 118.679L25.8686 117.421L27.6955 116.733L28.1689 117.991L32.6014 116.323L33.1198 117.701L28.6873 119.369L29.0479 120.327L33.3307 118.716L33.8266 120.033L29.5438 121.645L29.989 122.828C30.004 122.868 30.019 122.908 30.034 122.948C30.0491 122.988 30.066 123.033 30.0848 123.083L28.2578 123.77ZM24.996 130.639L23.8109 129.307C24.7492 128.772 25.5326 128.249 26.1612 127.739C26.7961 127.215 27.288 126.705 27.637 126.209C27.986 125.713 28.2027 125.244 28.2871 124.802L30.728 123.883C31.0829 124.16 31.555 124.37 32.1444 124.513C32.7438 124.652 33.4499 124.711 34.2626 124.69C35.0816 124.656 36.0202 124.53 37.0787 124.314L37.0657 126.097C36.0971 126.279 35.1703 126.36 34.2851 126.34C33.4099 126.316 32.6077 126.213 31.8784 126.032C31.1453 125.84 30.5115 125.595 29.9768 125.294C29.7727 125.873 29.4482 126.479 29.0032 127.114C28.5545 127.739 27.994 128.354 27.3218 128.96C26.6496 129.567 25.8743 130.126 24.996 130.639ZM22.9113 126.962L22.3759 125.539L35.6736 120.535L36.209 121.958L22.9113 126.962ZM20.989 121.172L19.907 118.296L25.4178 116.223L24.9952 115.1L26.8221 114.412L27.2447 115.535L32.7555 113.462L33.8374 116.337L32.1752 116.962L31.6342 115.525L22.1102 119.109L22.6512 120.546L20.989 121.172ZM45.4143 123.024L44.2162 121.748C44.8972 121.196 45.4197 120.646 45.7836 120.098C46.1475 119.551 46.3648 119.008 46.4353 118.469C46.5021 117.919 46.4284 117.36 46.2143 116.791L45.4311 114.709L44.3678 115.109L45.5794 118.329L44.0968 118.887L42.3838 114.335L44.9295 113.377L44.6196 112.553L43.212 113.083L42.7048 111.735L47.2272 110.033L47.7344 111.381L46.2968 111.922L46.6067 112.745L49.2273 111.759L50.9404 116.312L45.5794 118.329L45.1004 117.056L48.919 115.619L48.1864 113.673L47.1082 114.078L47.8915 116.16C48.0793 116.659 48.1611 117.209 48.1368 117.811C48.1088 118.403 47.9884 119.007 47.7756 119.622C47.5628 120.238 47.2582 120.837 46.8619 121.419C46.4693 122.012 45.9868 122.546 45.4143 123.024ZM39.7512 124.557L38.5753 124.657C38.4671 123.946 38.3415 123.264 38.1985 122.611C38.0616 121.944 37.8904 121.262 37.6849 120.565L38.7595 120.331C38.985 121.021 39.1806 121.723 39.3462 122.435C39.5118 123.148 39.6468 123.855 39.7512 124.557ZM40.5351 123.868C40.2972 123.297 40.0475 122.724 39.786 122.15C39.5306 121.563 39.2559 120.954 38.9618 120.323L39.8096 119.851C40.1199 120.463 40.4077 121.062 40.673 121.645C40.9384 122.229 41.1918 122.812 41.4334 123.394L40.5351 123.868ZM41.5262 122.641C41.3097 122.187 41.0764 121.733 40.8262 121.28C40.5859 120.823 40.3332 120.349 40.068 119.856L40.8802 119.379C41.1616 119.855 41.4293 120.324 41.6833 120.787C41.9335 121.24 42.1668 121.693 42.3833 122.147L41.5262 122.641ZM42.4012 121.423C42.2123 121.072 42.0103 120.732 41.7952 120.403C41.5863 120.06 41.3637 119.71 41.1273 119.355L41.8946 118.895C42.1272 119.241 42.348 119.585 42.5568 119.928C42.7757 120.267 42.9796 120.612 43.1685 120.963L42.4012 121.423ZM43.8007 123.597C43.641 123.657 43.4226 123.728 43.1455 123.809C42.8822 123.897 42.5883 123.979 42.2638 124.056L41.646 122.596C41.7696 122.561 41.915 122.523 42.0822 122.483C42.2557 122.429 42.4142 122.381 42.5577 122.338C42.7012 122.295 42.8079 122.261 42.8778 122.235C42.9577 122.205 43.0151 122.16 43.0499 122.102C43.0848 122.043 43.0728 121.905 43.0139 121.688C42.9612 121.457 42.8497 121.1 42.6793 120.617C42.509 120.134 42.2585 119.453 41.928 118.575L37.6002 120.203L34.5686 112.147L40.4238 109.944L40.9535 111.351L39.4859 111.903L41.4751 117.19L39.9027 117.781L37.9136 112.495L36.7904 112.918L37.1454 113.861L41.0988 112.373L41.5496 113.571L37.5962 115.059L37.9512 116.003L41.8896 114.521L42.3404 115.719L38.402 117.201L38.7796 118.204L42.7929 116.694L43.2887 118.011C43.7095 119.13 44.0226 120.037 44.2282 120.735C44.4399 121.419 44.5548 121.951 44.5727 122.332C44.6006 122.709 44.5453 122.986 44.407 123.164C44.2723 123.351 44.0703 123.496 43.8007 123.597ZM52.6322 120.308C51.6871 120.31 50.7918 120.157 49.9463 119.848C49.1107 119.536 48.3874 119.113 47.7763 118.579C47.1714 118.032 46.7412 117.419 46.4858 116.74L47.9084 116.205C48.115 116.754 48.4127 117.212 48.8014 117.578C49.2 117.941 49.7116 118.21 50.336 118.385C50.9666 118.547 51.732 118.612 52.6321 118.581L52.6322 120.308ZM42.1139 114.163L40.8879 112.949C41.2393 112.429 41.5477 111.931 41.8131 111.455C42.0847 110.965 42.3307 110.468 42.5511 109.964C42.7715 109.459 42.9769 108.914 43.1672 108.33L44.6348 107.778C45.1695 108.078 45.681 108.347 46.1694 108.585C46.6541 108.813 47.1481 109.02 47.6514 109.207C48.1647 109.39 48.7217 109.568 49.3224 109.741L49.212 111.492C48.3354 111.252 47.5073 110.959 46.7279 110.614C45.9447 110.259 45.1602 109.825 44.3744 109.312C44.112 110.22 43.7983 111.067 43.4334 111.854C43.0648 112.631 42.6249 113.4 42.1139 114.163ZM56.839 117.768L56.2417 116.18L53.4414 117.234L52.9624 115.961L55.7627 114.907L55.3852 113.904L55.3588 113.743L54.0177 110.179L53.9539 110.1L53.5538 109.037L50.6337 110.136L50.1547 108.863L53.0748 107.764L52.5621 106.402L54.3441 105.731L54.8569 107.094L57.5074 106.096L57.9864 107.369L55.3358 108.367L55.7246 109.4L55.7547 109.525L57.0959 113.089L57.1954 113.308L57.5447 114.237L60.0006 113.313L60.4796 114.586L58.0237 115.51L58.621 117.097L56.839 117.768ZM54.1351 119.623L53.5156 118.249C54.0671 118.019 54.6418 117.774 55.2395 117.515C55.8434 117.242 56.4505 116.962 57.0606 116.676C57.667 116.379 58.2653 116.091 58.8555 115.812C59.4457 115.533 59.9972 115.257 60.51 114.984L61.1107 116.263C60.4033 116.654 59.6503 117.046 58.8518 117.438C58.0632 117.825 57.2659 118.205 56.4598 118.577C55.6537 118.949 54.8788 119.297 54.1351 119.623ZM52.9354 115.253L51.2055 110.656L58.064 108.075L59.7939 112.672L54.5078 114.662L54.0626 113.479L57.8662 112.047L57.6127 111.373L53.809 112.805L53.4709 111.906L57.2746 110.475L57.021 109.801L53.2174 111.232L54.5078 114.662L52.9354 115.253ZM62.1618 116.739L60.446 116.359C60.5802 115.807 60.6664 115.233 60.7044 114.638C60.7486 114.028 60.7316 113.362 60.6534 112.64C60.5752 111.917 60.4257 111.096 60.2049 110.176C59.9842 109.256 59.6808 108.208 59.295 107.031C58.9054 105.844 58.4213 104.482 57.8428 102.944L59.475 102.33C60.0686 103.907 60.5665 105.321 60.9686 106.572C61.3708 107.822 61.6885 108.939 61.9219 109.923C62.1552 110.906 62.3123 111.793 62.3931 112.583C62.4739 113.374 62.4934 114.107 62.4517 114.784C62.4163 115.447 62.3196 116.098 62.1618 116.739ZM65.7498 115.098C65.5602 115.17 65.2631 115.259 64.8588 115.365C64.4681 115.478 64.0656 115.59 63.6513 115.7L63.0184 114.109C63.4165 114.016 63.746 113.938 64.0069 113.874C64.264 113.8 64.4724 113.733 64.6321 113.673C64.712 113.643 64.7737 113.579 64.8173 113.483C64.8671 113.373 64.8738 113.194 64.8373 112.946C64.807 112.684 64.7205 112.317 64.5776 111.847C64.441 111.363 64.2361 110.727 63.9631 109.941C63.69 109.155 63.3337 108.178 62.8942 107.01L62.6181 106.276L57.9759 108.023L57.4124 106.525L63.8067 104.119L64.2067 105.182C64.7552 106.64 65.2111 107.882 65.5743 108.907C65.9375 109.933 66.2219 110.795 66.4274 111.493C66.6329 112.19 66.7609 112.758 66.8114 113.194C66.868 113.618 66.8603 113.945 66.7881 114.178C66.7197 114.42 66.597 114.609 66.4199 114.744C66.2527 114.875 66.0294 114.993 65.7498 115.098ZM50.2457 108.196L49.6525 106.847C50.184 106.624 50.7418 106.38 51.3258 106.115C51.9097 105.849 52.4949 105.572 53.0814 105.283C53.6778 104.99 54.2474 104.702 54.7901 104.418C55.3429 104.13 55.8488 103.854 56.3079 103.59L57.0323 104.925C56.401 105.276 55.6979 105.649 54.9231 106.043C54.1582 106.434 53.3728 106.815 52.5667 107.186C51.7706 107.554 50.997 107.891 50.2457 108.196ZM80.8297 109.561C80.65 109.628 80.3935 109.719 80.0603 109.833C79.7371 109.943 79.3921 110.056 79.0251 110.171C78.6682 110.283 78.3381 110.39 78.0349 110.493L77.374 108.963C77.7646 108.851 78.1534 108.733 78.5402 108.61C78.9233 108.477 79.2197 108.371 79.4294 108.292C79.5392 108.251 79.6153 108.166 79.6576 108.036C79.7061 107.892 79.7021 107.654 79.6455 107.322C79.5952 106.976 79.4766 106.48 79.2899 105.832C79.1094 105.17 78.8418 104.308 78.4873 103.245C78.139 102.168 77.6843 100.823 77.1232 99.2108L72.1216 101.093L71.5412 99.5505L78.205 97.0429C78.8813 98.931 79.4474 100.541 79.9034 101.874C80.3593 103.207 80.7207 104.319 80.9877 105.21C81.2508 106.091 81.4352 106.808 81.5407 107.361C81.6424 107.904 81.6735 108.32 81.6339 108.608C81.6042 108.893 81.5177 109.102 81.3743 109.236C81.2309 109.37 81.0493 109.478 80.8297 109.561ZM67.6637 110.19L66.9355 108.754C67.85 108.216 68.7302 107.663 69.576 107.094C70.428 106.511 71.2506 105.911 72.0439 105.293L72.7422 106.74C71.9427 107.371 71.12 107.972 70.2742 108.541C69.4384 109.106 68.5683 109.656 67.6637 110.19ZM71.4239 113.322L67.7498 103.559L66.5519 104.009L65.9884 102.512L67.1863 102.061L66.3298 99.7849L68.0519 99.1368L68.9085 101.413L70.3011 100.889L70.8646 102.386L69.472 102.911L73.146 112.674L71.4239 113.322ZM67.6336 106.748L66.102 106.948C65.9774 106.072 65.8116 105.131 65.6044 104.127C65.3973 103.122 65.1352 102.092 64.8181 101.038L66.2746 100.592C66.6217 101.726 66.9075 102.804 67.1322 103.825C67.3668 104.842 67.5339 105.817 67.6336 106.748ZM75.6804 111.686L74.1645 110.838C74.8699 109.775 75.426 108.602 75.8328 107.321C76.2396 106.04 76.4902 104.692 76.5847 103.277C76.6855 101.849 76.6233 100.396 76.3981 98.9195L77.8476 98.9553C78.0674 100.115 78.1811 101.28 78.1887 102.451C78.2025 103.608 78.1157 104.741 77.9285 105.848C77.7375 106.946 77.4534 107.993 77.0762 108.99C76.6953 109.977 76.2301 110.875 75.6804 111.686ZM73.6958 108.775L72.1799 107.926C72.6173 107.18 72.9721 106.352 73.2445 105.44C73.5131 104.518 73.6887 103.546 73.7711 102.524C73.8636 101.497 73.8574 100.451 73.7526 99.385L75.3705 99.3233C75.4892 100.487 75.498 101.646 75.3969 102.801C75.2959 103.956 75.1011 105.043 74.8126 106.064C74.5241 107.084 74.1519 107.988 73.6958 108.775ZM71.937 105.146L70.4193 104.383C70.6359 103.777 70.803 103.116 70.9208 102.399C71.0348 101.673 71.097 100.914 71.1074 100.124C71.1277 99.33 71.0875 98.5416 70.9867 97.759L72.6922 97.3394C72.7919 98.2707 72.826 99.2094 72.7947 100.156C72.7733 101.098 72.6844 101.998 72.5281 102.855C72.3817 103.707 72.1847 104.471 71.937 105.146ZM91.3241 103.013C91.8307 102.754 92.2585 102.422 92.6076 102.017C92.963 101.599 93.229 101.139 93.4057 100.64C93.5886 100.127 93.676 99.5865 93.6679 99.0197C93.6598 98.4529 93.5468 97.88 93.3289 97.301C93.0208 96.4824 92.5625 95.8399 91.954 95.3737C91.3417 94.8975 90.6342 94.6224 89.8314 94.5484C89.0385 94.4707 88.1978 94.599 87.3093 94.9333C86.5506 95.2188 85.8937 95.6084 85.3387 96.1022C84.7838 96.596 84.3412 97.1614 84.0111 97.7985C83.6872 98.4218 83.4982 99.0856 83.4441 99.7898C83.3862 100.484 83.485 101.17 83.7404 101.849C83.9245 102.339 84.1809 102.778 84.5097 103.167C84.8385 103.556 85.1771 103.85 85.5257 104.05C85.8805 104.235 86.1926 104.277 86.4622 104.176C86.8515 104.029 87.0925 103.534 87.1852 102.69C87.2779 101.846 87.2191 100.706 87.009 99.2689C86.8051 97.8184 86.4518 96.1222 85.9489 94.1802L87.7536 93.7062C88.2327 95.6457 88.5823 97.332 88.8024 98.7649C89.0226 100.198 89.1126 101.406 89.0725 102.39C89.0324 103.374 88.8598 104.157 88.5546 104.739C88.2456 105.311 87.8016 105.706 87.2226 105.924C86.7434 106.104 86.254 106.152 85.7546 106.066C85.2551 105.981 84.7748 105.78 84.3138 105.463C83.8528 105.146 83.4303 104.735 83.0465 104.23C82.6589 103.715 82.3411 103.128 82.0932 102.469C81.74 101.531 81.5898 100.601 81.6424 99.6813C81.6913 98.7512 81.9213 97.8783 82.3323 97.0626C82.7434 96.2469 83.3181 95.5177 84.0565 94.8752C84.801 94.2189 85.6874 93.6973 86.7157 93.3104C87.9237 92.8558 89.0783 92.6835 90.1796 92.7933C91.2908 92.8994 92.2706 93.2772 93.119 93.9267C93.9675 94.5762 94.6115 95.4849 95.051 96.653C95.3478 97.4416 95.5041 98.2205 95.5199 98.9895C95.5458 99.7548 95.4436 100.483 95.2134 101.173C94.9795 101.854 94.625 102.472 94.15 103.027C93.675 103.581 93.09 104.041 92.395 104.405L91.3241 103.013Z" fill="white"/>
<g filter="url(#filter4_d_122_1105)">
<rect x="179.621" y="33" width="139" height="29" transform="rotate(13.1982 179.621 33)" fill="#128FCD" fill-opacity="0.2" shape-rendering="crispEdges"/>
<rect x="180.366" y="34.2019" width="137" height="27" transform="rotate(13.1982 180.366 34.2019)" stroke="#48BCCB" stroke-opacity="0.5" stroke-width="2" shape-rendering="crispEdges"/>
</g>
<path d="M182.186 51.4573L183.889 44.1982L196.133 47.0696L194.642 53.4252L184.174 50.9703L184.528 49.4593L193.221 51.4977L193.995 48.1953L185.303 46.1569L183.962 51.8738L182.186 51.4573ZM180.602 55.9009L180.881 54.2901C182.85 54.6753 184.887 55.0323 186.99 55.3612C189.095 55.6797 191.221 55.959 193.367 56.1993L193.297 57.7605C191.828 57.6242 190.366 57.4567 188.912 57.258C187.465 57.0722 186.051 56.8665 184.668 56.6409C183.286 56.4153 181.931 56.1687 180.602 55.9009ZM186.415 56.1302L189.411 43.3568L191.327 43.8061L188.331 56.5796L186.415 56.1302ZM192.749 59.3248C192.633 58.7935 192.499 58.2198 192.347 57.6036C192.194 56.9979 192.035 56.3909 191.871 55.7827C191.706 55.1745 191.549 54.6062 191.399 54.078L193.145 53.7808C193.314 54.3243 193.479 54.9053 193.64 55.5239C193.802 56.1425 193.96 56.7547 194.114 57.3605C194.27 57.9558 194.412 58.5152 194.542 59.0385L192.749 59.3248ZM196.09 60.0754L198.326 50.542L200.133 50.9658L198.383 58.4274L207.978 60.6777L209.728 53.2161L211.535 53.6399L209.3 63.1732L207.493 62.7495L207.635 62.142L198.039 59.8916L197.897 60.4992L196.09 60.0754ZM199.654 58.3312L199.005 56.8969C199.831 56.6416 200.592 56.3433 201.285 56.002C201.981 55.6503 202.597 55.2687 203.131 54.8573L203.856 55.8324C203.269 56.374 202.625 56.853 201.925 57.2695C201.224 57.6859 200.468 58.0398 199.654 58.3312ZM201.77 54.1437C201.612 53.7449 201.437 53.3478 201.244 52.9521C201.065 52.5485 200.876 52.1645 200.676 51.8L202.104 51.2474C202.304 51.6119 202.493 51.996 202.672 52.3996C202.852 52.8031 203.019 53.2095 203.175 53.6186L201.77 54.1437ZM202.411 58.9778L203.168 55.7532L199.772 54.9569L200.086 53.6172L203.482 54.4136L204.11 51.7343L205.824 52.1361L205.195 54.8154L208.591 55.6118L208.277 56.9515L204.881 56.1551L204.125 59.3796L202.411 58.9778ZM206.774 60.0666C206.309 59.2454 205.864 58.5055 205.438 57.8468C205.011 57.1881 204.585 56.5786 204.157 56.0182L205.26 55.5208C205.762 56.0439 206.245 56.6009 206.709 57.1917C207.173 57.7826 207.631 58.4434 208.084 59.1742L206.774 60.0666ZM206.833 55.3309L205.812 54.2204C206.175 53.977 206.527 53.7144 206.867 53.4326C207.22 53.1429 207.538 52.8614 207.821 52.5881L208.858 53.7023C208.573 53.9859 208.255 54.2674 207.904 54.5468C207.554 54.8262 207.197 55.0876 206.833 55.3309ZM198.088 49.944L198.446 48.4174L200.658 48.9361L201.264 46.3503L203.102 46.7814L202.496 49.3672L204.568 49.8531L205.258 46.9089L207.174 47.3583L206.995 48.1216L211.98 49.2906L211.659 50.6614L206.674 49.4924L206.484 50.3024L212.372 51.6833L212.014 53.2099L198.088 49.944ZM221.121 64.4829C220.186 64.2637 219.381 63.9378 218.704 63.5053C218.038 63.0752 217.551 62.5829 217.243 62.0286C216.947 61.4663 216.869 60.8892 217.008 60.2972C217.256 59.238 218.203 58.3095 219.847 57.5118L220.949 58.8385C220.294 59.156 219.797 59.4505 219.46 59.7219C219.133 59.9958 218.934 60.2833 218.863 60.5844C218.79 60.896 218.851 61.1952 219.047 61.4821C219.243 61.7691 219.549 62.0272 219.967 62.2565C220.384 62.4859 220.899 62.6724 221.512 62.8161C222.031 62.9379 222.621 63.0379 223.282 63.1162C223.956 63.1865 224.641 63.2321 225.337 63.253L225.203 64.9471C224.493 64.9342 223.786 64.8889 223.082 64.8112C222.387 64.736 221.733 64.6266 221.121 64.4829ZM219.218 54.0941L219.613 52.4118L227.604 54.2858L227.21 55.9682L219.218 54.0941ZM213.093 63.3234C213.074 62.1905 213.124 61.0901 213.243 60.0224C213.362 58.9547 213.558 57.8393 213.831 56.6762C214.101 55.5234 214.419 54.4476 214.785 53.4488C215.153 52.4395 215.597 51.4317 216.118 50.4254L217.917 51.0938C217.432 52.0426 217.007 53.0113 216.644 53.9998C216.294 54.9804 215.989 56.0211 215.731 57.1219C215.473 58.2227 215.282 59.2953 215.157 60.3398C215.043 61.3868 214.995 62.4328 215.013 63.4778L213.093 63.3234ZM234.026 68.2488C232.863 67.976 232.023 67.4942 231.505 66.8031C230.986 66.1225 230.835 65.3149 231.055 64.3802C231.281 63.4144 231.788 62.7499 232.574 62.3865C233.363 62.0127 234.36 61.9671 235.564 62.2496C236.073 62.3689 236.558 62.5649 237.02 62.8376C237.482 63.1103 237.946 63.4709 238.41 63.9195C238.875 64.368 239.354 64.9186 239.847 65.5712C240.351 66.2261 240.876 67.0011 241.422 67.8961L240.008 68.8793C239.367 67.8744 238.819 67.0558 238.365 66.4234C237.924 65.783 237.531 65.2855 237.187 64.9309C236.856 64.5683 236.535 64.3014 236.224 64.13C235.924 63.961 235.587 63.8327 235.213 63.745C234.507 63.5794 233.96 63.5771 233.572 63.738C233.194 63.9013 232.946 64.2323 232.829 64.7307C232.71 65.2396 232.781 65.6616 233.042 65.9967C233.305 66.3214 233.754 66.5581 234.387 66.7067C235.083 66.8698 235.638 66.841 236.051 66.6202C236.475 66.4019 236.752 66.0123 236.884 65.4515L238.773 57.398C239.686 57.6123 240.529 57.8264 241.301 58.0402C242.085 58.246 242.85 58.4638 243.596 58.6935L243.104 60.3036C242.441 60.0934 241.743 59.8914 241.011 59.6977C240.291 59.4961 239.516 59.2979 238.685 59.103L240.47 58.2891L238.735 65.6883C238.467 66.8307 237.936 67.6211 237.143 68.0596C236.353 68.4877 235.314 68.5508 234.026 68.2488ZM227.519 64.1098C228.266 62.9812 228.971 61.8648 229.636 60.7606C230.302 59.6461 230.945 58.5151 231.565 57.3676C232.187 56.2097 232.791 55.0146 233.376 53.7822L235.096 54.3664C234.504 55.6299 233.886 56.8602 233.244 58.0571C232.615 59.2462 231.956 60.4175 231.27 61.5711C230.593 62.7272 229.874 63.8788 229.112 65.0257L227.519 64.1098ZM229.089 56.8527L229.473 55.2171L237.324 57.0583L236.94 58.6939L229.089 56.8527ZM247.013 68.8622C248.581 69.2299 249.877 69.4244 250.902 69.4457C251.94 69.4589 252.741 69.2907 253.305 68.9409C253.869 68.5911 254.235 68.058 254.403 67.3414C254.591 66.5418 254.466 65.8825 254.029 65.3637C253.602 64.8473 252.854 64.4637 251.784 64.2128C251.359 64.113 250.883 64.0397 250.357 63.9931C249.833 63.9361 249.223 63.8971 248.527 63.8763C247.841 63.8578 247.035 63.8606 246.109 63.8845L246.164 62.0402C247.556 62.038 248.752 62.0774 249.752 62.1585C250.754 62.2292 251.603 62.3462 252.299 62.5093C253.888 62.8819 255.028 63.5108 255.718 64.3959C256.409 65.281 256.605 66.3622 256.305 67.6396C255.925 69.2596 254.927 70.3182 253.309 70.8154C251.702 71.315 249.507 71.2384 246.724 70.5857L247.013 68.8622ZM258.783 73.8246C259.548 72.5249 260.276 71.1947 260.967 69.834C261.672 68.4654 262.334 67.065 262.955 65.6329C263.589 64.1928 264.183 62.7326 264.738 61.2523L266.574 61.7649C266.047 63.219 265.464 64.6764 264.825 66.1372C264.197 67.6005 263.525 69.0424 262.809 70.463C262.094 71.8732 261.345 73.2476 260.56 74.5864L258.783 73.8246ZM268.437 76.1051C267.492 75.8835 266.698 75.5768 266.056 75.1852C265.411 74.8039 264.943 74.3709 264.652 73.8862C264.362 73.3911 264.283 72.8631 264.415 72.3023C264.512 71.8869 264.749 71.5096 265.124 71.1704C265.5 70.8311 266.029 70.5116 266.713 70.2118L267.881 71.5375C267.428 71.6942 267.077 71.8585 266.829 72.0303C266.593 72.1942 266.451 72.3799 266.402 72.5876C266.346 72.8265 266.405 73.0649 266.58 73.303C266.767 73.5331 267.051 73.7476 267.431 73.9464C267.822 74.1477 268.288 74.3117 268.828 74.4383C269.316 74.5528 269.821 74.6437 270.342 74.7111C270.863 74.7785 271.41 74.8248 271.985 74.8501L271.797 76.5643C271.201 76.5342 270.633 76.4831 270.091 76.4108C269.549 76.3385 268.998 76.2366 268.437 76.1051ZM260.833 64.0999L261.213 62.4798L272.18 65.0516L271.8 66.6717L260.833 64.0999ZM266.246 67.2264C267.498 67.3995 268.719 67.5926 269.907 67.8054C271.105 68.0208 272.296 68.2673 273.48 68.5449L273.097 70.1805C271.934 69.9078 270.758 69.6649 269.57 69.452C268.395 69.2312 267.194 69.0482 265.968 68.9032L266.246 67.2264ZM283.986 80.4417C283.819 80.4027 283.567 80.3327 283.23 80.2315C282.9 80.1432 282.514 80.0363 282.072 79.9108L282.337 78.3623C282.729 78.4652 283.073 78.5624 283.369 78.6538C283.668 78.7348 283.885 78.7911 284.02 78.8228C284.29 78.8861 284.485 78.9208 284.604 78.9268C284.736 78.9249 284.825 78.8692 284.873 78.7599C284.931 78.6529 284.992 78.4645 285.055 78.1945L285.734 75.2971L280.251 74.0112L280.613 72.469L286.096 73.7549L286.407 72.4308L280.923 71.1449L281.285 69.6028L284.712 70.4065L285.081 68.8332L282.293 68.1792L282.643 66.6838L285.432 67.3377L285.793 65.7956L287.663 66.2339L287.301 67.7761L290.245 68.4665L289.894 69.962L286.95 69.2715L286.581 70.8448L290.071 71.6631L289.709 73.2053L288.26 72.8656L287.95 74.1896L289.398 74.5294L289.037 76.0715L287.588 75.7318L286.93 78.5357C286.797 79.1069 286.666 79.5474 286.538 79.8571C286.409 80.1773 286.247 80.3969 286.055 80.5162C285.86 80.6458 285.597 80.6937 285.266 80.6597C284.942 80.6386 284.515 80.5659 283.986 80.4417ZM273.944 77.7089L276.995 64.7018L281.761 65.8196L278.926 77.9077L275.873 77.1917L276.235 75.6495L277.653 75.9819L278.562 72.1032L277.145 71.7707L277.51 70.213L278.927 70.5454L279.753 67.0249L278.336 66.6925L275.658 78.1107L273.944 77.7089ZM282.091 78.2883C281.843 77.8029 281.566 77.305 281.258 76.7946C280.951 76.2843 280.641 75.8063 280.329 75.3606L281.807 74.524C282.129 74.9721 282.444 75.4513 282.752 75.9617C283.059 76.472 283.337 76.9699 283.585 77.4553L282.091 78.2883ZM299.008 82.7485C298.073 82.5293 297.267 82.2034 296.591 81.7709C295.925 81.3408 295.438 80.8485 295.13 80.2942C294.834 79.7319 294.756 79.1548 294.895 78.5628C295.143 77.5036 296.089 76.5751 297.734 75.7774L298.836 77.1041C298.181 77.4216 297.684 77.7161 297.347 77.9875C297.02 78.2614 296.821 78.5489 296.75 78.85C296.677 79.1616 296.738 79.4608 296.934 79.7477C297.13 80.0347 297.436 80.2928 297.853 80.5221C298.271 80.7515 298.786 80.938 299.399 81.0817C299.918 81.2034 300.508 81.3035 301.169 81.3818C301.842 81.4521 302.528 81.4977 303.224 81.5186L303.089 83.2127C302.38 83.1998 301.673 83.1545 300.968 83.0768C300.274 83.0016 299.62 82.8921 299.008 82.7485ZM297.105 72.3597L297.5 70.6774L305.491 72.5514L305.097 74.2338L297.105 72.3597ZM290.98 81.589C290.961 80.4561 291.011 79.3557 291.13 78.288C291.249 77.2203 291.445 76.1049 291.718 74.9418C291.988 73.789 292.306 72.7132 292.672 71.7144C293.04 70.7051 293.484 69.6973 294.005 68.691L295.804 69.3594C295.319 70.3082 294.894 71.2769 294.531 72.2654C294.18 73.246 293.876 74.2866 293.618 75.3875C293.36 76.4883 293.168 77.5609 293.044 78.6054C292.93 79.6524 292.882 80.6983 292.9 81.7434L290.98 81.589Z" fill="white"/>
<g filter="url(#filter5_d_122_1105)">
<rect x="113.378" y="51" width="139" height="29" transform="rotate(16.792 113.378 51)" fill="#128FCD" fill-opacity="0.2" shape-rendering="crispEdges"/>
<rect x="114.046" y="52.2463" width="137" height="27" transform="rotate(16.792 114.046 52.2463)" stroke="#48BCCB" stroke-opacity="0.5" stroke-width="2" shape-rendering="crispEdges"/>
</g>
<path d="M129.36 76.8221L132.655 68.0062L133.005 68.5631L124.871 66.1086L125.366 64.4696L135.077 67.4002L131.351 77.423L129.36 76.8221ZM120.631 75.1743L121.126 73.5353L134.667 77.6215L134.172 79.2605L120.631 75.1743ZM137.814 75.2787L138.364 73.4559L150.986 77.2648L150.436 79.0876L137.814 75.2787ZM161.362 87.8499C161.066 87.7605 160.713 87.6373 160.304 87.4803C159.891 87.3336 159.456 87.1689 158.999 86.9863C158.552 86.8068 158.121 86.6268 157.708 86.4463L158.37 84.8075C158.656 84.9275 158.988 85.0665 159.363 85.2245C159.742 85.3722 160.112 85.5118 160.474 85.6431C160.846 85.7776 161.139 85.8771 161.353 85.9418C161.608 86.0189 161.823 86.0448 161.998 86.0195C162.186 85.9871 162.368 85.8469 162.543 85.599C162.731 85.3438 162.937 84.9381 163.161 84.3816C163.395 83.8282 163.675 83.066 164.001 82.0949C164.331 81.1136 164.729 79.8688 165.195 78.3605L165.843 79.5922L154.079 76.0422L154.573 74.4032L167.226 78.2213L166.962 79.0944C166.46 80.7589 166.018 82.1518 165.635 83.273C165.252 84.3942 164.901 85.2968 164.584 85.9808C164.269 86.6546 163.952 87.1496 163.634 87.4658C163.316 87.782 162.978 87.9587 162.622 87.996C162.262 88.0434 161.842 87.9947 161.362 87.8499ZM151.676 83.8404C152.467 83.5444 153.171 83.2222 153.789 82.8737C154.41 82.5151 154.964 82.0808 155.452 81.5707C155.944 81.0505 156.398 80.4132 156.815 79.6588C157.232 78.9045 157.636 77.9902 158.027 76.916C158.428 75.8449 158.849 74.5792 159.29 73.1189L161.066 73.6551C160.601 75.1971 160.142 76.5516 159.69 77.7187C159.237 78.8857 158.765 79.8964 158.273 80.7508C157.795 81.598 157.276 82.3216 156.716 82.9214C156.156 83.5212 155.524 84.027 154.821 84.4386C154.131 84.8431 153.351 85.1928 152.482 85.4876L151.676 83.8404ZM169.249 88.7423C170.711 89.139 171.977 89.3761 173.045 89.4534C174.117 89.5205 175.025 89.4101 175.769 89.1222C176.516 88.8241 177.133 88.3306 177.62 87.6417C178.116 86.9559 178.531 86.0616 178.864 84.9587L180.292 80.2256L182.253 80.8172L180.838 85.5045C180.422 86.883 179.891 88.0152 179.245 88.901C178.602 89.7766 177.804 90.4103 176.85 90.8021C175.906 91.1969 174.786 91.3657 173.488 91.3085C172.188 91.2614 170.682 90.9908 168.97 90.4966L169.249 88.7423ZM169.563 84.7092L171.699 77.6324L173.644 78.2194L171.509 85.2962L169.563 84.7092ZM190.326 94.9356C190.886 95.0377 191.427 95.034 191.951 94.9245C192.487 94.8079 192.977 94.6048 193.421 94.3154C193.879 94.0188 194.276 93.643 194.614 93.1878C194.952 92.7327 195.21 92.209 195.389 91.6167C195.642 90.7794 195.668 89.9907 195.468 89.2506C195.271 88.5004 194.876 87.852 194.283 87.3055C193.701 86.762 192.955 86.3532 192.046 86.0789C191.27 85.8447 190.512 85.7551 189.771 85.8101C189.03 85.8651 188.335 86.0453 187.686 86.3508C187.05 86.6491 186.496 87.0615 186.026 87.5879C185.558 88.1041 185.219 88.7094 185.01 89.4038C184.859 89.9042 184.795 90.4088 184.82 90.9176C184.845 91.4265 184.935 91.866 185.091 92.2361C185.26 92.599 185.482 92.8221 185.758 92.9053C186.156 93.0255 186.649 92.7785 187.235 92.1644C187.821 91.5503 188.468 90.6089 189.174 89.3401C189.893 88.0641 190.643 86.5022 191.423 84.6542L193.145 85.3742C192.347 87.2058 191.6 88.7575 190.904 90.0294C190.208 91.3013 189.546 92.3158 188.916 93.0729C188.287 93.8299 187.674 94.3469 187.078 94.6239C186.485 94.8906 185.892 94.9346 185.3 94.7559C184.81 94.6079 184.392 94.3483 184.047 93.9768C183.703 93.6054 183.443 93.1539 183.27 92.6224C183.096 92.0908 183.01 91.5078 183.012 90.8733C183.017 90.2287 183.121 89.5693 183.325 88.8954C183.614 87.9354 184.06 87.106 184.66 86.4072C185.264 85.6981 185.977 85.1445 186.8 84.7463C187.622 84.3482 188.521 84.1182 189.498 84.0564C190.488 83.9876 191.509 84.1118 192.561 84.4292C193.796 84.8021 194.818 85.3667 195.626 86.123C196.444 86.8824 196.993 87.7778 197.272 88.8091C197.552 89.8405 197.511 90.9535 197.15 92.1483C196.907 92.955 196.558 93.6686 196.103 94.2891C195.659 94.9126 195.135 95.4287 194.533 95.8375C193.934 96.236 193.277 96.5113 192.562 96.6634C191.848 96.8155 191.104 96.825 190.331 96.6919L190.326 94.9356ZM202.668 101.334L203.662 98.0407L197.902 96.3027L198.318 94.9241L204.078 96.6621L204.29 95.9575L206.159 96.5214L205.947 97.226L211.706 98.964L211.29 100.343L205.531 98.6046L204.537 101.898L202.668 101.334ZM197.054 99.5564L196.831 97.9683C198.359 98.0392 199.701 98.021 200.859 97.9135C202.02 97.7959 202.993 97.6161 203.779 97.3742L204.604 98.4085C203.713 98.7748 202.63 99.0607 201.353 99.266C200.08 99.4611 198.647 99.5579 197.054 99.5564ZM210.197 103.522C208.869 102.643 207.729 101.769 206.776 100.902C205.836 100.028 205.092 99.1909 204.542 98.39L205.801 97.9844C206.322 98.6207 207.034 99.3089 207.936 100.049C208.851 100.782 209.959 101.54 211.261 102.323L210.197 103.522ZM200.108 94.8626L201.19 91.2782L199.413 90.742L199.829 89.3635L201.606 89.8996L201.837 89.1338L203.675 89.6884L203.444 90.4543L209.786 92.368L210.017 91.6021L211.794 92.1383L211.563 92.9042L213.523 93.4959L213.107 94.8745L211.147 94.2828L210.606 96.075L204.188 94.1382L205.376 90.2015L207.137 90.7331L206.287 93.5516L209.166 94.4206L209.37 93.7466L203.028 91.8329L202.349 94.0846L211.539 96.8581L211.137 98.1907L200.108 94.8626ZM203.242 89.7414L203.473 88.9755L200.241 88.0002L200.68 86.545L203.912 87.5203L204.194 86.5859L205.986 87.1267L205.704 88.0611L209.35 89.1612L209.632 88.2269L211.424 88.7677L211.142 89.7021L214.374 90.6774L213.935 92.1326L210.703 91.1573L210.472 91.9231L208.679 91.3823L208.91 90.6164L205.265 89.5163L205.034 90.2822L203.242 89.7414ZM221.183 103.06C221.54 101.876 221.751 100.92 221.814 100.193C221.891 99.4582 221.811 98.8935 221.573 98.4988C221.346 98.1071 220.952 97.8265 220.39 97.6571C219.9 97.5091 219.389 97.4833 218.859 97.5795C218.339 97.6788 217.77 97.9195 217.154 98.3016C216.55 98.6766 215.849 99.2113 215.048 99.9058L213.806 98.595C214.554 97.9628 215.222 97.3733 215.811 96.8267C216.409 96.2831 216.962 95.7425 217.47 95.2049C217.991 94.6601 218.484 94.096 218.95 93.5123C219.429 92.9215 219.915 92.2715 220.407 91.5622L222.127 92.3987C221.524 93.2529 220.922 94.0294 220.321 94.7283C219.723 95.417 219.091 96.0897 218.425 96.7466L218.086 96.3767C218.621 96.2264 219.166 96.1568 219.72 96.1679C220.287 96.1719 220.83 96.2524 221.351 96.4096C222.199 96.6654 222.816 97.0745 223.204 97.6371C223.601 98.2027 223.78 98.9754 223.741 99.9551C223.705 100.925 223.465 102.145 223.021 103.615L221.183 103.06ZM220.091 106.124C218.519 105.649 217.36 105.038 216.617 104.29C215.87 103.552 215.625 102.759 215.88 101.912C216.059 101.319 216.46 100.805 217.081 100.369C217.706 99.9224 218.52 99.5717 219.521 99.3169C220.533 99.0652 221.701 98.9051 223.025 98.8368C224.36 98.7715 225.831 98.8086 227.437 98.9481L227.26 100.532C225.924 100.419 224.7 100.378 223.587 100.41C222.484 100.445 221.514 100.542 220.675 100.701C219.849 100.853 219.183 101.064 218.678 101.335C218.173 101.606 217.865 101.926 217.754 102.293C217.625 102.722 217.799 103.142 218.276 103.554C218.767 103.958 219.528 104.316 220.559 104.627C221.193 104.818 221.91 104.99 222.71 105.143C223.514 105.285 224.39 105.41 225.338 105.518L225.121 107.123C224.572 107.058 223.996 106.973 223.393 106.869C222.789 106.765 222.2 106.649 221.626 106.52C221.062 106.395 220.551 106.262 220.091 106.124ZM215.428 93.3855L215.868 91.9303L228.076 95.6144L227.637 97.0696L215.428 93.3855Z" fill="white"/>
<g filter="url(#filter6_d_122_1105)">
<rect x="131" y="149.272" width="139" height="29" transform="rotate(-13.0016 131 149.272)" fill="#128FCD" fill-opacity="0.2" shape-rendering="crispEdges"/>
<rect x="132.199" y="150.021" width="137" height="27" transform="rotate(-13.0016 132.199 150.021)" stroke="#48BCCB" stroke-opacity="0.5" stroke-width="2" shape-rendering="crispEdges"/>
</g>
<path d="M152.426 167.142C152.187 167.197 151.941 167.248 151.689 167.295C151.448 167.34 151.217 167.383 150.996 167.423C150.584 167.485 150.251 167.513 149.997 167.505C149.757 167.506 149.557 167.448 149.399 167.332C149.251 167.212 149.127 167.006 149.026 166.712C148.938 166.425 148.833 166.017 148.71 165.487L146.061 154.013L147.978 153.57L150.57 164.795C150.637 165.086 150.692 165.298 150.733 165.431C150.773 165.553 150.827 165.622 150.896 165.639C150.966 165.656 151.076 165.658 151.226 165.645C151.364 165.624 151.506 165.602 151.654 165.579C151.802 165.556 151.944 165.529 152.079 165.498C152.235 165.462 152.379 165.423 152.512 165.381C152.655 165.337 152.793 165.294 152.926 165.253C153.045 165.203 153.138 165.154 153.204 165.107C153.28 165.056 153.329 164.963 153.352 164.826C153.376 164.689 153.37 164.477 153.337 164.189C153.303 163.901 153.235 163.512 153.133 163.021C153.038 162.517 152.913 161.879 152.756 161.105L154.479 160.887C154.678 161.892 154.832 162.722 154.939 163.376C155.046 164.03 155.103 164.559 155.108 164.962C155.122 165.353 155.083 165.658 154.991 165.876C154.901 166.105 154.755 166.276 154.551 166.388C154.36 166.509 154.113 166.626 153.811 166.74C153.589 166.824 153.371 166.896 153.155 166.957C152.939 167.018 152.696 167.079 152.426 167.142ZM141.544 167.733L140.726 166.181C141.233 165.911 141.755 165.615 142.294 165.294C142.833 164.972 143.363 164.636 143.884 164.286C144.416 163.934 144.915 163.583 145.382 163.234L146.292 164.617C145.818 164.978 145.306 165.348 144.759 165.726C144.209 166.094 143.658 166.457 143.105 166.814C142.561 167.159 142.04 167.465 141.544 167.733ZM145.464 168.995L143.337 159.782L139.673 160.628L139.303 159.022L142.966 158.176L142.21 154.902L144.097 154.467L147.351 168.56L145.464 168.995ZM148.604 161.045L147.577 159.657C148.386 158.988 149.131 158.252 149.81 157.45C150.5 156.645 151.197 155.679 151.9 154.553L153.354 155.515C152.605 156.728 151.846 157.779 151.077 158.668C150.316 159.544 149.492 160.337 148.604 161.045ZM168.315 163.916C168.076 163.971 167.831 164.023 167.579 164.07C167.338 164.115 167.056 164.174 166.734 164.249L166.305 162.82C166.557 162.773 166.782 162.727 166.979 162.681C167.179 162.646 167.357 162.61 167.513 162.574C167.69 162.534 167.812 162.494 167.88 162.457C167.958 162.417 167.997 162.348 167.996 162.249C168.003 162.138 167.994 161.954 167.967 161.698C167.901 160.936 167.817 160.145 167.715 159.326C167.614 158.506 167.504 157.677 167.388 156.84C167.279 155.989 167.164 155.161 167.044 154.357L161.775 155.574C161.903 156.508 162.013 157.484 162.106 158.502C162.197 159.511 162.274 160.511 162.339 161.503C162.404 162.495 162.45 163.453 162.477 164.377L160.703 164.656C160.678 163.6 160.623 162.485 160.538 161.311C160.463 160.135 160.363 158.965 160.236 157.801C160.12 156.635 159.986 155.532 159.834 154.495L168.58 152.475C168.746 153.477 168.903 154.536 169.051 155.651C169.199 156.766 169.339 157.872 169.472 158.969C169.605 160.066 169.717 161.097 169.808 162.061C169.865 162.639 169.786 163.057 169.572 163.314C169.358 163.572 168.939 163.772 168.315 163.916ZM158.578 165.836L156.873 165.212C157.162 164.422 157.404 163.573 157.599 162.663C157.804 161.751 157.946 160.848 158.024 159.954L159.724 160.202C159.692 160.822 159.622 161.468 159.514 162.139C159.414 162.797 159.285 163.445 159.126 164.084C158.964 164.712 158.782 165.297 158.578 165.836ZM158.025 158.821C157.518 158.522 156.98 158.23 156.411 157.945C155.839 157.65 155.243 157.367 154.622 157.094L155.378 155.606C156.007 155.866 156.607 156.138 157.176 156.422C157.743 156.696 158.28 156.983 158.787 157.282L158.025 158.821ZM161.582 163.484L161.247 162.034L170.476 159.903L170.811 161.353L161.582 163.484ZM157.581 155.048C157.125 154.781 156.638 154.521 156.12 154.269C155.6 154.006 155.06 153.753 154.5 153.51L155.272 152.018C155.84 152.248 156.377 152.49 156.885 152.745C157.401 152.988 157.887 153.242 158.342 153.509L157.581 155.048ZM165.991 162.17L164.366 162.529C164.304 161.646 164.229 160.727 164.14 159.773C164.049 158.809 163.947 157.847 163.835 156.888C163.723 155.929 163.6 155.016 163.466 154.149L165.091 153.79C165.225 154.657 165.348 155.57 165.46 156.529C165.572 157.489 165.674 158.45 165.765 159.415C165.854 160.368 165.929 161.287 165.991 162.17ZM159.512 160.07L159.16 158.542L170.073 156.023L170.425 157.55L159.512 160.07ZM159.726 157.082L158.138 156.249C158.567 155.406 158.909 154.495 159.165 153.516C159.421 152.538 159.581 151.548 159.646 150.548L161.448 150.46C161.388 151.624 161.211 152.776 160.916 153.917C160.619 155.047 160.222 156.102 159.726 157.082ZM160.24 153.334L159.887 151.806L168.321 149.859L168.674 151.386L160.24 153.334ZM176.825 158.881L175.061 151.242L183.776 149.23L185.539 156.869L178.602 158.47L178.303 157.176L183.401 155.999L183.185 155.064L178.087 156.241L177.817 155.072L182.915 153.895L182.71 153.006L177.612 154.183L177.346 153.03L182.443 151.852L182.242 150.979L177.144 152.157L178.602 158.47L176.825 158.881ZM173.464 162.53L172.276 161.228C172.78 160.707 173.225 160.194 173.612 159.688C174.007 159.17 174.359 158.634 174.67 158.081L175.971 159.094C175.678 159.676 175.328 160.244 174.919 160.799C174.511 161.353 174.026 161.93 173.464 162.53ZM173.967 159.376L173.074 155.51L171.297 155.92L170.937 154.361L174.507 153.537L175.76 158.962L173.967 159.376ZM182.51 160.179C181.43 160.428 180.487 160.613 179.683 160.733C178.878 160.853 178.184 160.904 177.6 160.886C177.028 160.875 176.533 160.793 176.114 160.638C175.695 160.483 175.326 160.261 175.008 159.973C174.7 159.683 174.409 159.324 174.135 158.894L175.622 158.436C175.817 158.665 176.03 158.851 176.26 158.995C176.488 159.128 176.756 159.225 177.066 159.285C177.375 159.345 177.751 159.362 178.194 159.336C178.648 159.308 179.2 159.235 179.852 159.118C180.503 159 181.281 158.837 182.185 158.628L186.535 157.624L186.782 159.193L182.51 160.179ZM173.191 152.248C172.642 151.86 172.09 151.484 171.535 151.12C170.978 150.745 170.419 150.387 169.858 150.046L170.854 148.666C171.404 149.01 171.952 149.37 172.499 149.748C173.054 150.112 173.602 150.495 174.143 150.895L173.191 152.248ZM179.975 151.404L178.033 151.524C178.078 151.01 178.104 150.484 178.112 149.946C178.127 149.395 178.119 148.817 178.089 148.211L180.028 148.075C180.058 148.681 180.066 149.26 180.051 149.81C180.044 150.348 180.018 150.88 179.975 151.404ZM176.755 149.619C176.459 149.238 176.154 148.865 175.84 148.5C175.526 148.135 175.216 147.79 174.912 147.467L176.49 146.692C176.805 147.013 177.115 147.363 177.422 147.741C177.736 148.106 178.041 148.479 178.337 148.86L176.755 149.619ZM173.971 150.574L173.625 149.077L183.992 146.683L184.338 148.18L173.971 150.574ZM181.378 148.519L179.596 148.552C179.744 148.102 179.879 147.644 180.001 147.178C180.134 146.71 180.238 146.259 180.313 145.825L182.119 145.753C182.041 146.176 181.938 146.627 181.807 147.106C181.687 147.582 181.544 148.053 181.378 148.519ZM197.726 155.598C196.791 155.814 195.924 155.877 195.126 155.788C194.339 155.696 193.684 155.47 193.163 155.108C192.649 154.734 192.324 154.251 192.188 153.659C191.943 152.598 192.382 151.348 193.505 149.906L195.08 150.61C194.632 151.184 194.317 151.667 194.134 152.06C193.961 152.45 193.91 152.796 193.979 153.097C194.051 153.409 194.238 153.65 194.541 153.821C194.843 153.992 195.232 154.089 195.707 154.11C196.183 154.132 196.728 154.072 197.341 153.93C197.86 153.81 198.434 153.639 199.062 153.418C199.697 153.184 200.332 152.922 200.966 152.633L201.593 154.213C200.951 154.514 200.297 154.786 199.63 155.027C198.974 155.266 198.339 155.457 197.726 155.598ZM191.433 147.117L191.044 145.433L199.041 143.586L199.43 145.27L191.433 147.117ZM190.012 158.102C189.494 157.094 189.053 156.085 188.688 155.074C188.324 154.064 188.007 152.976 187.738 151.812C187.472 150.659 187.282 149.553 187.169 148.495C187.054 147.427 187.008 146.327 187.031 145.194L188.94 144.999C188.924 146.065 188.97 147.121 189.081 148.169C189.199 149.203 189.386 150.271 189.64 151.373C189.895 152.475 190.196 153.522 190.546 154.514C190.906 155.504 191.325 156.463 191.802 157.393L190.012 158.102ZM204.161 154.95L203.79 153.344L209.902 151.933L209.063 148.301L205.025 149.233L204.665 147.674L208.703 146.742L208.037 143.858L203.719 144.855L203.348 143.249L207.666 142.252L207.123 139.898L209.04 139.455L209.584 141.809L214.65 140.639L215.021 142.245L209.954 143.415L210.62 146.299L214.908 145.309L215.268 146.868L210.98 147.858L211.819 151.49L217.416 150.198L217.787 151.804L204.161 154.95ZM204.033 148.493L202.225 148.057C202.482 146.99 202.677 145.867 202.809 144.687C202.94 143.496 203.005 142.31 203.006 141.127L204.839 141.032C204.872 142.262 204.818 143.523 204.678 144.814C204.549 146.103 204.334 147.329 204.033 148.493ZM219.762 146.635L217.919 138.653L229.456 135.989L231.299 143.971L221.633 146.203L221.302 144.769L229.097 142.969L228.888 142.065L221.093 143.864L220.82 142.68L228.615 140.88L228.409 139.991L220.614 141.791L220.337 140.59L228.132 138.791L227.923 137.886L220.128 139.686L221.633 146.203L219.762 146.635ZM220.533 151.465L218.951 150.73C219.253 150.19 219.505 149.623 219.707 149.028C219.907 148.424 220.046 147.817 220.125 147.208L221.792 147.529C221.72 148.214 221.577 148.898 221.363 149.582C221.156 150.254 220.88 150.882 220.533 151.465ZM226.781 150.22C226.427 150.301 226.073 150.378 225.717 150.449C225.361 150.52 225.047 150.582 224.774 150.634C224.354 150.709 224.007 150.745 223.732 150.743C223.471 150.749 223.26 150.688 223.099 150.561C222.941 150.444 222.808 150.25 222.702 149.979C222.596 149.708 222.49 149.344 222.384 148.887L221.88 146.704L223.767 146.269L224.213 148.202C224.28 148.493 224.34 148.703 224.392 148.834C224.441 148.954 224.506 149.021 224.586 149.035C224.676 149.047 224.817 149.042 225.009 149.019C225.178 148.991 225.388 148.954 225.64 148.907C225.892 148.859 226.153 148.805 226.423 148.742C226.641 148.692 226.879 148.631 227.137 148.561C227.405 148.488 227.631 148.425 227.816 148.372C228.05 148.296 228.235 148.22 228.371 148.145C228.504 148.059 228.595 147.956 228.644 147.835C228.703 147.712 228.723 147.538 228.704 147.312C228.685 147.087 228.646 146.778 228.589 146.387L230.384 146.268C230.494 146.888 230.556 147.394 230.57 147.785C230.592 148.163 230.546 148.464 230.434 148.687C230.321 148.91 230.129 149.096 229.857 149.247C229.595 149.395 229.236 149.543 228.777 149.693C228.512 149.776 228.214 149.861 227.884 149.949C227.564 150.033 227.197 150.124 226.781 150.22ZM227.516 147.784C227.06 147.517 226.577 147.273 226.066 147.051C225.552 146.82 225.033 146.611 224.509 146.426L225.313 145.074C225.836 145.249 226.347 145.448 226.847 145.672C227.358 145.894 227.835 146.134 228.278 146.393L227.516 147.784ZM232.494 148.506C232.074 147.968 231.606 147.436 231.09 146.909C230.585 146.38 230.059 145.878 229.511 145.402L230.816 144.296C231.376 144.78 231.915 145.29 232.434 145.827C232.952 146.365 233.427 146.906 233.86 147.452L232.494 148.506ZM224.026 138.573L222.066 138.763C222.149 138.316 222.208 137.86 222.242 137.392C222.274 136.914 222.296 136.416 222.308 135.899L224.28 135.69C224.268 136.207 224.241 136.706 224.198 137.187C224.167 137.665 224.109 138.127 224.026 138.573ZM237.944 145.442C238.87 145.184 239.67 144.835 240.346 144.394C241.019 143.943 241.518 143.451 241.844 142.916C242.179 142.378 242.287 141.85 242.167 141.33L242.085 140.972L242.911 140.994C242.844 141.229 242.733 141.457 242.576 141.679C242.42 141.901 242.222 142.111 241.983 142.309C241.752 142.493 241.483 142.659 241.178 142.807C240.883 142.951 240.569 143.062 240.237 143.139C239.551 143.297 238.928 143.304 238.369 143.159C237.808 143.004 237.332 142.72 236.941 142.307C236.56 141.891 236.296 141.361 236.147 140.717C235.996 140.062 236.011 139.462 236.191 138.917C236.372 138.372 236.692 137.909 237.152 137.529C237.619 137.137 238.206 136.859 238.913 136.695C239.495 136.561 240.022 136.543 240.494 136.642C240.965 136.742 241.455 136.941 241.962 137.24L240.927 137.807L239.656 132.304L241.527 131.872L243.161 138.95L242.834 138.171C243.103 138.437 243.313 138.728 243.462 139.044C243.62 139.347 243.745 139.701 243.839 140.107C244.081 141.156 244.034 142.136 243.697 143.046C243.359 143.956 242.759 144.746 241.896 145.416C241.035 146.097 239.937 146.629 238.603 147.014L237.944 145.442ZM240.196 141.539C240.466 141.477 240.697 141.385 240.888 141.264C241.087 141.131 241.247 140.973 241.37 140.792C241.492 140.61 241.571 140.406 241.606 140.179C241.641 139.952 241.63 139.714 241.572 139.464C241.45 138.934 241.193 138.556 240.801 138.329C240.42 138.099 239.959 138.047 239.418 138.172C238.888 138.294 238.492 138.544 238.229 138.923C237.976 139.298 237.911 139.751 238.033 140.281C238.149 140.78 238.403 141.148 238.797 141.386C239.189 141.613 239.655 141.664 240.196 141.539ZM232.874 137.351L232.528 135.854L246.278 132.679L246.624 134.176L232.874 137.351ZM257.388 142.676C255.85 143.031 254.597 143.058 253.63 142.756C252.673 142.451 252.09 141.847 251.881 140.943C251.704 140.174 251.883 139.503 252.418 138.93C252.962 138.345 253.795 137.923 254.917 137.664C255.977 137.419 256.818 137.433 257.439 137.705C258.058 137.968 258.458 138.488 258.638 139.268C258.702 139.548 258.73 139.859 258.722 140.201C258.723 140.54 258.691 140.898 258.625 141.274L256.867 141.483C256.93 141.096 256.965 140.771 256.97 140.507C256.985 140.241 256.971 140.014 256.927 139.827C256.764 139.12 256.163 138.887 255.124 139.127C254.594 139.249 254.198 139.433 253.938 139.68C253.685 139.913 253.596 140.191 253.67 140.513C253.771 140.95 254.106 141.239 254.675 141.381C255.242 141.513 255.962 141.478 256.835 141.277C258.509 140.89 259.694 140.359 260.392 139.684C261.098 138.995 261.333 138.142 261.098 137.123C260.899 136.261 260.43 135.701 259.692 135.445C258.965 135.186 257.905 135.217 256.512 135.538C255.712 135.723 255.022 135.959 254.442 136.246C253.86 136.523 253.343 136.867 252.891 137.278L251.106 138.938L250.027 137.676L257.744 130.705L257.813 131.002L249.877 132.834L249.514 131.259L260.177 128.797L260.541 130.372L253.901 136.322L252.751 135.75C253.047 135.561 253.382 135.375 253.755 135.19C254.136 134.992 254.528 134.814 254.929 134.656C255.338 134.485 255.736 134.333 256.121 134.2C256.504 134.057 256.856 133.948 257.179 133.874C258.758 133.509 260.046 133.562 261.041 134.033C262.037 134.504 262.676 135.352 262.959 136.579C263.298 138.044 262.981 139.305 262.01 140.361C261.049 141.415 259.509 142.187 257.388 142.676Z" fill="white"/>
<defs>
<filter id="filter0_d_122_1105" x="16" y="98" width="152.214" height="88.6033" filterUnits="userSpaceOnUse" color-interpolation-filters="sRGB">
<feFlood flood-opacity="0" result="BackgroundImageFix"/>
<feColorMatrix in="SourceAlpha" type="matrix" values="0 0 0 0 0 0 0 0 0 0 0 0 0 0 0 0 0 0 127 0" result="hardAlpha"/>
<feOffset/>
<feGaussianBlur stdDeviation="3"/>
<feComposite in2="hardAlpha" operator="out"/>
<feColorMatrix type="matrix" values="0 0 0 0 0.282353 0 0 0 0 0.737255 0 0 0 0 0.796078 0 0 0 0.25 0"/>
<feBlend mode="normal" in2="BackgroundImageFix" result="effect1_dropShadow_122_1105"/>
<feBlend mode="normal" in="SourceGraphic" in2="effect1_dropShadow_122_1105" result="shape"/>
</filter>
<filter id="filter1_d_122_1105" x="92" y="0" width="144" height="27" filterUnits="userSpaceOnUse" color-interpolation-filters="sRGB">
<feFlood flood-opacity="0" result="BackgroundImageFix"/>
<feColorMatrix in="SourceAlpha" type="matrix" values="0 0 0 0 0 0 0 0 0 0 0 0 0 0 0 0 0 0 127 0" result="hardAlpha"/>
<feOffset/>
<feGaussianBlur stdDeviation="2"/>
<feComposite in2="hardAlpha" operator="out"/>
<feColorMatrix type="matrix" values="0 0 0 0 1 0 0 0 0 1 0 0 0 0 1 0 0 0 0.6 0"/>
<feBlend mode="normal" in2="BackgroundImageFix" result="effect1_dropShadow_122_1105"/>
<feBlend mode="normal" in="SourceGraphic" in2="effect1_dropShadow_122_1105" result="shape"/>
</filter>
<filter id="filter2_d_122_1105" x="0" y="29" width="107.472" height="69.4125" filterUnits="userSpaceOnUse" color-interpolation-filters="sRGB">
<feFlood flood-opacity="0" result="BackgroundImageFix"/>
<feColorMatrix in="SourceAlpha" type="matrix" values="0 0 0 0 0 0 0 0 0 0 0 0 0 0 0 0 0 0 127 0" result="hardAlpha"/>
<feOffset/>
<feGaussianBlur stdDeviation="3"/>
<feComposite in2="hardAlpha" operator="out"/>
<feColorMatrix type="matrix" values="0 0 0 0 0.282353 0 0 0 0 0.737255 0 0 0 0 0.796078 0 0 0 0.25 0"/>
<feBlend mode="normal" in2="BackgroundImageFix" result="effect1_dropShadow_122_1105"/>
<feBlend mode="normal" in="SourceGraphic" in2="effect1_dropShadow_122_1105" result="shape"/>
</filter>
<filter id="filter3_d_122_1105" x="5" y="74" width="107.383" height="71.191" filterUnits="userSpaceOnUse" color-interpolation-filters="sRGB">
<feFlood flood-opacity="0" result="BackgroundImageFix"/>
<feColorMatrix in="SourceAlpha" type="matrix" values="0 0 0 0 0 0 0 0 0 0 0 0 0 0 0 0 0 0 127 0" result="hardAlpha"/>
<feOffset/>
<feGaussianBlur stdDeviation="3"/>
<feComposite in2="hardAlpha" operator="out"/>
<feColorMatrix type="matrix" values="0 0 0 0 0.282353 0 0 0 0 0.737255 0 0 0 0 0.796078 0 0 0 0.25 0"/>
<feBlend mode="normal" in2="BackgroundImageFix" result="effect1_dropShadow_122_1105"/>
<feBlend mode="normal" in="SourceGraphic" in2="effect1_dropShadow_122_1105" result="shape"/>
</filter>
<filter id="filter4_d_122_1105" x="167" y="27" width="153.949" height="71.9705" filterUnits="userSpaceOnUse" color-interpolation-filters="sRGB">
<feFlood flood-opacity="0" result="BackgroundImageFix"/>
<feColorMatrix in="SourceAlpha" type="matrix" values="0 0 0 0 0 0 0 0 0 0 0 0 0 0 0 0 0 0 127 0" result="hardAlpha"/>
<feOffset/>
<feGaussianBlur stdDeviation="3"/>
<feComposite in2="hardAlpha" operator="out"/>
<feColorMatrix type="matrix" values="0 0 0 0 0.282353 0 0 0 0 0.737255 0 0 0 0 0.796078 0 0 0 0.25 0"/>
<feBlend mode="normal" in2="BackgroundImageFix" result="effect1_dropShadow_122_1105"/>
<feBlend mode="normal" in="SourceGraphic" in2="effect1_dropShadow_122_1105" result="shape"/>
</filter>
<filter id="filter5_d_122_1105" x="99" y="45" width="153.451" height="79.9203" filterUnits="userSpaceOnUse" color-interpolation-filters="sRGB">
<feFlood flood-opacity="0" result="BackgroundImageFix"/>
<feColorMatrix in="SourceAlpha" type="matrix" values="0 0 0 0 0 0 0 0 0 0 0 0 0 0 0 0 0 0 127 0" result="hardAlpha"/>
<feOffset/>
<feGaussianBlur stdDeviation="3"/>
<feComposite in2="hardAlpha" operator="out"/>
<feColorMatrix type="matrix" values="0 0 0 0 0.282353 0 0 0 0 0.737255 0 0 0 0 0.796078 0 0 0 0.25 0"/>
<feBlend mode="normal" in2="BackgroundImageFix" result="effect1_dropShadow_122_1105"/>
<feBlend mode="normal" in="SourceGraphic" in2="effect1_dropShadow_122_1105" result="shape"/>
</filter>
<filter id="filter6_d_122_1105" x="125" y="112" width="153.961" height="71.5285" filterUnits="userSpaceOnUse" color-interpolation-filters="sRGB">
<feFlood flood-opacity="0" result="BackgroundImageFix"/>
<feColorMatrix in="SourceAlpha" type="matrix" values="0 0 0 0 0 0 0 0 0 0 0 0 0 0 0 0 0 0 127 0" result="hardAlpha"/>
<feOffset/>
<feGaussianBlur stdDeviation="3"/>
<feComposite in2="hardAlpha" operator="out"/>
<feColorMatrix type="matrix" values="0 0 0 0 0.282353 0 0 0 0 0.737255 0 0 0 0 0.796078 0 0 0 0.25 0"/>
<feBlend mode="normal" in2="BackgroundImageFix" result="effect1_dropShadow_122_1105"/>
<feBlend mode="normal" in="SourceGraphic" in2="effect1_dropShadow_122_1105" result="shape"/>
</filter>
</defs>
</svg>
