<svg width="313" height="188" viewBox="0 0 313 188" fill="none" xmlns="http://www.w3.org/2000/svg">
<g filter="url(#filter0_d_122_1058)">
<rect x="89" y="5" width="64" height="17" stroke="white" stroke-width="2"/>
<rect x="159" y="5" width="64" height="17" stroke="white" stroke-width="2"/>
<rect x="19" y="5" width="64" height="17" stroke="white" stroke-width="2"/>
<path d="M227.756 18.744V17.508H232.46V14.712H229.352V13.512H232.46V11.292H229.136V10.056H232.46V8.244H233.936V10.056H237.836V11.292H233.936V13.512H237.236V14.712H233.936V17.508H238.244V18.744H227.756ZM228.752 14.004L227.504 13.38C227.872 12.644 228.204 11.856 228.5 11.016C228.796 10.168 229.044 9.312 229.244 8.448L230.6 8.688C230.416 9.592 230.164 10.504 229.844 11.424C229.532 12.344 229.168 13.204 228.752 14.004ZM245.552 18.636C244.576 18.636 243.728 18.54 243.008 18.348C242.296 18.156 241.748 17.888 241.364 17.544C240.98 17.192 240.788 16.776 240.788 16.296C240.788 15.88 240.928 15.492 241.208 15.132C241.488 14.772 241.88 14.476 242.384 14.244L243.332 15.084C242.972 15.26 242.712 15.436 242.552 15.612C242.392 15.78 242.316 15.968 242.324 16.176C242.332 16.44 242.456 16.664 242.696 16.848C242.936 17.024 243.288 17.16 243.752 17.256C244.224 17.352 244.792 17.4 245.456 17.4C246.04 17.4 246.652 17.36 247.292 17.28C247.94 17.2 248.544 17.096 249.104 16.968L249.308 18.216C248.732 18.352 248.12 18.456 247.472 18.528C246.824 18.6 246.184 18.636 245.552 18.636ZM240.236 13.608V12.432L249.764 12.192V13.368L240.236 13.608ZM246.716 16.092C246.452 15.476 246.216 14.852 246.008 14.22C245.8 13.588 245.62 12.952 245.468 12.312C245.324 11.664 245.204 11.004 245.108 10.332C245.012 9.652 244.944 8.96 244.904 8.256L246.332 8.172C246.372 8.852 246.436 9.512 246.524 10.152C246.62 10.792 246.74 11.42 246.884 12.036C247.028 12.652 247.204 13.272 247.412 13.896C247.628 14.512 247.876 15.136 248.156 15.768L246.716 16.092ZM240.356 10.956V9.78L249.644 9.54V10.716L240.356 10.956ZM260.924 18.948C260.78 18.948 260.576 18.944 260.312 18.936C260.056 18.928 259.784 18.916 259.496 18.9C259.216 18.884 258.956 18.872 258.716 18.864L258.656 17.616C258.96 17.64 259.264 17.66 259.568 17.676C259.872 17.684 260.108 17.688 260.276 17.688C260.364 17.688 260.44 17.648 260.504 17.568C260.576 17.48 260.636 17.312 260.684 17.064C260.74 16.808 260.788 16.428 260.828 15.924C260.876 15.412 260.916 14.736 260.948 13.896C260.988 13.048 261.024 11.984 261.056 10.704H257.048V9.468H262.388C262.364 10.972 262.336 12.252 262.304 13.308C262.272 14.364 262.232 15.24 262.184 15.936C262.136 16.624 262.076 17.176 262.004 17.592C261.932 18 261.844 18.3 261.74 18.492C261.644 18.684 261.528 18.808 261.392 18.864C261.256 18.92 261.1 18.948 260.924 18.948ZM251.516 15.912L251.384 14.712C252.168 14.576 252.932 14.42 253.676 14.244C254.428 14.06 255.164 13.856 255.884 13.632L255.992 14.832C255.264 15.064 254.528 15.268 253.784 15.444C253.048 15.62 252.292 15.776 251.516 15.912ZM253.328 19.104V11.28H252.368V10.08H253.328V8.256H254.708V10.08H255.824V11.28H254.708V19.104H253.328ZM252.404 13.488L251.276 13.224C251.42 12.576 251.552 11.872 251.672 11.112C251.792 10.352 251.88 9.56 251.936 8.736L253.076 8.808C253.02 9.696 252.936 10.528 252.824 11.304C252.72 12.08 252.58 12.808 252.404 13.488ZM256.748 19.08L255.908 18.084C256.684 17.524 257.384 16.848 258.008 16.056C258.632 15.264 259.164 14.384 259.604 13.416C260.052 12.44 260.392 11.404 260.624 10.308L261.632 10.716C261.48 11.588 261.252 12.436 260.948 13.26C260.652 14.076 260.292 14.848 259.868 15.576C259.444 16.296 258.968 16.956 258.44 17.556C257.912 18.148 257.348 18.656 256.748 19.08ZM256.124 16.512L255.284 15.516C255.788 15.108 256.256 14.62 256.688 14.052C257.12 13.476 257.5 12.84 257.828 12.144C258.164 11.448 258.436 10.712 258.644 9.936L259.796 10.32C259.572 11.168 259.272 11.984 258.896 12.768C258.52 13.552 258.096 14.264 257.624 14.904C257.152 15.544 256.652 16.08 256.124 16.512ZM255.848 13.5L254.984 12.564C255.296 12.196 255.588 11.776 255.86 11.304C256.132 10.824 256.376 10.308 256.592 9.756C256.816 9.204 256.996 8.64 257.132 8.064L258.44 8.22C258.264 8.9 258.04 9.568 257.768 10.224C257.504 10.88 257.204 11.488 256.868 12.048C256.54 12.608 256.2 13.092 255.848 13.5ZM269.504 18.444C268.64 18.444 267.964 18.252 267.476 17.868C266.996 17.476 266.756 16.932 266.756 16.236C266.756 15.524 266.996 14.976 267.476 14.592C267.956 14.208 268.632 14.016 269.504 14.016C269.88 14.016 270.244 14.064 270.596 14.16C270.948 14.248 271.312 14.408 271.688 14.64C272.064 14.872 272.484 15.192 272.948 15.6C273.42 16 273.972 16.512 274.604 17.136L273.716 18.084C273.148 17.508 272.656 17.036 272.24 16.668C271.832 16.292 271.472 16 271.16 15.792C270.848 15.584 270.552 15.44 270.272 15.36C270 15.272 269.72 15.228 269.432 15.228C268.504 15.228 268.04 15.564 268.04 16.236C268.04 16.9 268.504 17.232 269.432 17.232C269.936 17.232 270.292 17.128 270.5 16.92C270.716 16.704 270.824 16.352 270.824 15.864V8.448H272.216V15.924C272.216 16.764 271.984 17.396 271.52 17.82C271.064 18.236 270.392 18.444 269.504 18.444ZM266.792 11.544V10.332H274.424V11.544H266.792ZM264.572 18.66C264.364 17.836 264.212 17.024 264.116 16.224C264.02 15.424 263.972 14.576 263.972 13.68C263.972 12.792 264.02 11.952 264.116 11.16C264.212 10.36 264.36 9.548 264.56 8.724L265.976 8.904C265.784 9.68 265.64 10.46 265.544 11.244C265.456 12.02 265.412 12.832 265.412 13.68C265.412 14.528 265.456 15.344 265.544 16.128C265.64 16.912 265.784 17.684 265.976 18.444L264.572 18.66ZM280.184 15.372C280.184 15.036 280.22 14.72 280.292 14.424C280.364 14.128 280.496 13.844 280.688 13.572C280.88 13.292 281.148 13.032 281.492 12.792C281.764 12.6 281.984 12.424 282.152 12.264C282.32 12.104 282.436 11.948 282.5 11.796C282.572 11.644 282.608 11.492 282.608 11.34C282.608 11.028 282.468 10.804 282.188 10.668C281.916 10.524 281.48 10.452 280.88 10.452C280.456 10.452 280.036 10.488 279.62 10.56C279.204 10.624 278.768 10.732 278.312 10.884L278 9.576C278.456 9.432 278.952 9.32 279.488 9.24C280.024 9.16 280.556 9.12 281.084 9.12C283.148 9.12 284.18 9.788 284.18 11.124C284.18 11.428 284.128 11.708 284.024 11.964C283.928 12.212 283.768 12.456 283.544 12.696C283.32 12.936 283.024 13.184 282.656 13.44C282.416 13.608 282.224 13.796 282.08 14.004C281.936 14.212 281.836 14.432 281.78 14.664C281.724 14.896 281.688 15.132 281.672 15.372H280.184ZM280.076 18V16.368H281.78V18H280.076Z" fill="white"/>
</g>
<g filter="url(#filter1_d_122_1058)">
<rect x="306.359" y="94.5061" width="120" height="29" transform="rotate(135 306.359 94.5061)" fill="#128FCD" fill-opacity="0.2" shape-rendering="crispEdges"/>
<rect x="304.945" y="94.5061" width="118" height="27" transform="rotate(135 304.945 94.5061)" stroke="#48BCCB" stroke-opacity="0.5" stroke-width="2" shape-rendering="crispEdges"/>
</g>
<path d="M277.074 92.1246L280.027 95.0774L284.281 90.8235L285.367 91.9096L281.113 96.1636L281.656 96.7066L280.276 98.0869L279.733 97.5438L275.479 101.798L274.393 100.712L278.647 96.4577L275.694 93.5048L277.074 92.1246ZM281.283 88.21L282.901 88.6739C282.214 89.9486 281.716 91.178 281.407 92.3621C281.09 93.5539 280.94 94.6475 280.955 95.6431L279.506 95.6658C279.491 94.5193 279.62 93.2974 279.891 92.0001C280.163 90.7179 280.627 89.4545 281.283 88.21ZM283.704 93.7537C284.149 93.9272 284.594 94.0781 285.039 94.2063C285.476 94.342 285.902 94.459 286.317 94.557L285.605 96.1975C285.197 96.0919 284.767 95.9712 284.315 95.8355C283.87 95.7072 283.429 95.5602 282.991 95.3942L283.704 93.7537ZM271.779 97.7135C273.024 97.0573 274.291 96.5897 275.581 96.3106C276.87 96.0466 278.088 95.9222 279.235 95.9373L279.212 97.3854C278.217 97.3703 277.127 97.5174 275.943 97.8267C274.751 98.1435 273.518 98.645 272.243 99.3314L271.779 97.7135ZM281.396 97.1026C281.78 97.2459 282.161 97.3779 282.539 97.4986C282.923 97.6268 283.281 97.7362 283.613 97.8267L282.855 99.4219C282.501 99.3389 282.131 99.2333 281.747 99.1051C281.362 98.9769 280.985 98.8411 280.615 98.6978L281.396 97.1026ZM287.064 94.8285L288.241 95.8015C287.313 96.7292 286.43 97.6343 285.593 98.5168C284.756 99.4144 283.987 100.267 283.285 101.074C282.576 101.888 281.95 102.635 281.407 103.314C280.857 104 280.412 104.596 280.072 105.101L278.748 104.343C279.261 103.589 279.925 102.714 280.74 101.719C281.554 100.723 282.493 99.6406 283.557 98.4716C284.628 97.31 285.797 96.0957 287.064 94.8285ZM277.266 100.078L278.929 99.388C279.065 99.9612 279.227 100.523 279.416 101.074C279.597 101.632 279.793 102.152 280.004 102.635L278.33 103.382C278.119 102.884 277.923 102.356 277.742 101.798C277.568 101.247 277.41 100.674 277.266 100.078ZM286.781 97.8719L287.483 98.5734L289.87 96.1862L290.956 97.2723L288.569 99.6595L289.383 100.474L288.06 101.798L287.245 100.983L284.552 103.676L285.367 104.49L284.043 105.814L283.229 105L280.841 107.387L279.755 106.301L282.143 103.913L281.599 103.37L282.923 102.047L283.466 102.59L286.159 99.8971L285.457 99.1956L286.781 97.8719ZM265.919 106.9C265.564 107.345 265.312 107.824 265.161 108.337C265.01 108.865 264.957 109.393 265.002 109.921C265.048 110.464 265.191 110.992 265.432 111.505C265.674 112.018 266.013 112.493 266.45 112.93C267.069 113.549 267.752 113.945 268.498 114.118C269.252 114.299 270.01 114.258 270.772 113.994C271.527 113.738 272.239 113.274 272.911 112.602C273.484 112.029 273.921 111.403 274.223 110.724C274.525 110.045 274.694 109.348 274.732 108.631C274.77 107.93 274.668 107.247 274.427 106.583C274.193 105.927 273.819 105.343 273.307 104.83C272.937 104.46 272.522 104.166 272.062 103.947C271.602 103.729 271.172 103.6 270.772 103.563C270.373 103.54 270.071 103.631 269.867 103.834C269.573 104.128 269.558 104.679 269.822 105.486C270.086 106.293 270.61 107.308 271.395 108.529C272.179 109.766 273.201 111.166 274.461 112.727L273.012 113.903C271.775 112.335 270.761 110.943 269.969 109.729C269.177 108.514 268.596 107.451 268.227 106.538C267.857 105.626 267.691 104.841 267.729 104.185C267.774 103.536 268.015 102.993 268.453 102.556C268.815 102.194 269.241 101.949 269.731 101.82C270.222 101.692 270.742 101.677 271.293 101.775C271.843 101.873 272.398 102.073 272.956 102.375C273.521 102.684 274.053 103.088 274.551 103.585C275.26 104.294 275.78 105.079 276.112 105.939C276.452 106.806 276.603 107.696 276.565 108.609C276.527 109.521 276.305 110.423 275.897 111.313C275.49 112.218 274.898 113.059 274.121 113.836C273.208 114.748 272.228 115.382 271.18 115.736C270.124 116.098 269.075 116.159 268.034 115.917C266.993 115.676 266.032 115.114 265.149 114.232C264.553 113.636 264.09 112.991 263.758 112.297C263.418 111.611 263.211 110.905 263.136 110.181C263.068 109.465 263.136 108.756 263.339 108.054C263.543 107.353 263.886 106.693 264.369 106.074L265.919 106.9ZM254.447 114.752L256.879 117.184L261.133 112.93L262.151 113.949L257.897 118.203L258.418 118.723L257.037 120.103L256.517 119.583L252.263 123.837L251.245 122.819L255.499 118.565L253.066 116.132L254.447 114.752ZM258.667 110.645L260.171 111.199C259.387 112.512 258.768 113.704 258.316 114.775C257.871 115.853 257.569 116.796 257.411 117.603L256.11 117.841C256.208 116.883 256.468 115.793 256.89 114.571C257.32 113.357 257.912 112.048 258.667 110.645ZM248.959 120.352C250.362 119.598 251.671 119.006 252.885 118.576C254.1 118.161 255.19 117.901 256.155 117.795L255.917 119.096C255.11 119.255 254.168 119.557 253.089 120.002C252.01 120.462 250.819 121.08 249.514 121.857L248.959 120.352ZM261.359 115.555L264.007 118.203L265.319 116.89L266.337 117.909L265.025 119.221L265.591 119.787L264.233 121.144L263.667 120.579L258.983 125.262L259.549 125.828L258.237 127.14L257.671 126.575L256.223 128.023L255.205 127.005L256.653 125.557L255.329 124.233L260.069 119.492L262.977 122.4L261.676 123.701L259.594 121.619L257.467 123.746L257.965 124.244L262.649 119.56L260.986 117.897L254.198 124.685L253.213 123.701L261.359 115.555ZM264.391 120.737L264.957 121.303L267.344 118.915L268.419 119.99L266.032 122.377L266.722 123.068L265.398 124.391L264.708 123.701L262.015 126.394L262.706 127.084L261.382 128.408L260.692 127.717L258.305 130.105L257.23 129.03L259.617 126.643L259.051 126.077L260.375 124.753L260.941 125.319L263.633 122.626L263.068 122.061L264.391 120.737ZM243.438 131.666C243.604 131.5 243.789 131.323 243.993 131.134C244.196 130.961 244.404 130.784 244.615 130.602L245.803 131.79C245.629 131.949 245.456 132.1 245.282 132.243C245.109 132.401 244.954 132.548 244.819 132.684C244.087 133.416 243.691 134.076 243.631 134.664C243.57 135.268 243.831 135.86 244.411 136.44C245.377 137.406 246.301 137.447 247.183 136.565C247.326 136.421 247.481 136.229 247.647 135.988C247.813 135.762 248.005 135.464 248.224 135.094C248.435 134.732 248.688 134.253 248.982 133.657L252.512 126.711L254.107 127.514L250.566 134.472C250.272 135.068 250.004 135.569 249.763 135.976C249.521 136.399 249.288 136.761 249.061 137.063C248.843 137.372 248.612 137.647 248.371 137.889C247.526 138.733 246.651 139.156 245.746 139.156C244.841 139.156 243.959 138.726 243.099 137.866C242.149 136.916 241.7 135.909 241.753 134.845C241.805 133.797 242.367 132.737 243.438 131.666ZM244.015 125.477C245.32 126.269 246.644 127.042 247.986 127.797C249.329 128.566 250.656 129.305 251.969 130.014C253.281 130.738 254.56 131.421 255.804 132.062L254.888 133.68C253.628 133.039 252.335 132.356 251.007 131.632C249.687 130.915 248.352 130.169 247.002 129.392C245.652 128.63 244.313 127.857 242.986 127.073L244.015 125.477ZM246.787 132.413C247.549 132.858 248.45 133.359 249.491 133.917C250.532 134.491 251.675 135.098 252.919 135.739L251.98 137.357C251.324 137.032 250.645 136.678 249.944 136.293C249.242 135.924 248.545 135.543 247.851 135.151C247.149 134.766 246.493 134.389 245.882 134.019L246.787 132.413ZM235.032 134.053L242.284 141.305L243.518 140.072L244.649 141.203L243.416 142.437L245.26 144.281L243.981 145.559L242.137 143.715L241.13 144.722L239.999 143.591L241.006 142.584L233.754 135.332L235.032 134.053ZM238.042 135.479L240.022 136.056C240.271 137.104 240.602 138.077 241.017 138.975C241.432 139.872 241.934 140.751 242.522 141.611L241.572 141.905C240.991 141.219 240.463 140.502 239.988 139.755C239.52 139.016 239.12 138.284 238.788 137.56C238.464 136.844 238.215 136.15 238.042 135.479ZM236.627 139.337C237.495 139.736 238.313 140.102 239.083 140.434C239.859 140.774 240.651 141.113 241.458 141.452L241.13 142.731C240.369 142.452 239.603 142.161 238.834 141.86C238.072 141.565 237.269 141.245 236.424 140.898L236.627 139.337ZM233.109 136.135L234.557 136.972C233.901 137.794 233.377 138.59 232.984 139.359C232.592 140.129 232.328 140.875 232.193 141.599C232.049 142.331 232.03 143.051 232.136 143.76C232.234 144.477 232.453 145.201 232.792 145.933L231.367 147.041C230.937 146.174 230.643 145.307 230.484 144.439C230.326 143.572 230.314 142.686 230.45 141.78C230.586 140.89 230.876 139.982 231.321 139.054C231.759 138.119 232.355 137.146 233.109 136.135ZM226.581 142.505C227.788 142.278 228.859 142.037 229.794 141.78C230.729 141.524 231.6 141.234 232.407 140.909C233.207 140.592 234.014 140.215 234.829 139.778L235.304 141.136C234.406 141.656 233.52 142.105 232.645 142.482C231.77 142.874 230.861 143.217 229.918 143.511C228.976 143.806 227.961 144.058 226.875 144.269L226.581 142.505ZM234.184 139.246L235.892 138.986C236.013 140.072 236.198 141.117 236.446 142.12C236.695 143.123 237.02 144.119 237.419 145.107L235.903 146.125C235.413 145.061 235.021 143.96 234.727 142.821C234.44 141.69 234.259 140.498 234.184 139.246ZM237.284 140.355L238.415 141.486L231.208 148.693L230.077 147.562L237.284 140.355ZM238.641 143.613C239.403 144.043 240.116 144.432 240.78 144.779C241.443 145.126 242.039 145.405 242.567 145.616L241.741 147.234C241.078 146.947 240.414 146.638 239.75 146.306C239.094 145.982 238.434 145.623 237.77 145.231L238.641 143.613ZM236.695 146.193C237.435 146.645 238.144 147.053 238.822 147.415C239.501 147.792 240.112 148.101 240.655 148.342L239.761 149.892C239.203 149.651 238.596 149.353 237.94 148.999C237.284 148.659 236.563 148.248 235.779 147.765L236.695 146.193ZM233.313 147.743L234.976 146.917C235.202 147.641 235.507 148.444 235.892 149.327C236.269 150.217 236.722 151.152 237.25 152.132L235.688 153.083C235.115 152.027 234.629 151.043 234.229 150.13C233.829 149.232 233.524 148.437 233.313 147.743ZM218.842 152.076C219.521 151.397 220.223 150.884 220.947 150.537C221.663 150.198 222.338 150.043 222.972 150.073C223.605 150.119 224.137 150.356 224.567 150.786C225.336 151.555 225.627 152.849 225.438 154.667L223.73 154.904C223.805 154.18 223.817 153.603 223.764 153.173C223.703 152.751 223.564 152.43 223.345 152.212C223.119 151.985 222.832 151.88 222.485 151.895C222.138 151.91 221.758 152.034 221.343 152.268C220.928 152.502 220.498 152.841 220.053 153.286C219.676 153.664 219.28 154.112 218.865 154.633C218.45 155.168 218.05 155.726 217.666 156.307L216.297 155.3C216.681 154.704 217.092 154.127 217.53 153.569C217.96 153.019 218.397 152.521 218.842 152.076ZM228.674 155.934L229.896 157.156L224.092 162.96L222.87 161.738L228.674 155.934ZM224.058 145.865C225.031 146.445 225.94 147.068 226.785 147.731C227.629 148.395 228.474 149.149 229.319 149.994C230.156 150.831 230.903 151.669 231.559 152.506C232.223 153.351 232.845 154.259 233.426 155.232L231.91 156.409C231.359 155.496 230.759 154.625 230.111 153.796C229.462 152.981 228.738 152.174 227.939 151.374C227.139 150.575 226.328 149.847 225.506 149.191C224.676 148.542 223.813 147.95 222.915 147.415L224.058 145.865Z" fill="white"/>
<g filter="url(#filter2_d_122_1058)">
<rect x="16" y="54.3634" width="139" height="29" transform="rotate(-8.84102 16 54.3634)" fill="#128FCD" fill-opacity="0.2" shape-rendering="crispEdges"/>
<rect x="17.1418" y="55.1978" width="137" height="27" transform="rotate(-8.84102 17.1418 55.1978)" stroke="#48BCCB" stroke-opacity="0.5" stroke-width="2" shape-rendering="crispEdges"/>
</g>
<path d="M34.5209 73.4475C32.7607 73.7213 31.3531 73.6596 30.2982 73.2623C29.2417 72.8545 28.6347 72.1447 28.4773 71.1329C28.3658 70.4162 28.5143 69.74 28.9228 69.1043C29.3402 68.4565 30.0042 67.8674 30.9149 67.3372L31.0459 67.8673L24.6085 69.3706L24.2969 67.7836C25.2298 67.4658 26.1326 67.0933 27.0053 66.6661C27.878 66.2389 28.6915 65.7777 29.4457 65.2826C30.2088 64.7752 30.8834 64.2547 31.4697 63.7209C32.0665 63.1855 32.5554 62.6507 32.9365 62.1164L33.5647 62.4073L25.47 63.6664L25.2217 62.0696L35.2768 60.5056L35.5251 62.1024C35.1625 62.5474 34.712 63.0169 34.1735 63.5109C33.644 63.9926 33.0548 64.4729 32.406 64.9516C31.7677 65.4287 31.1035 65.8775 30.4132 66.2979C29.7335 66.7167 29.0719 67.0787 28.4285 67.3838L27.9806 67.2106L37.5066 64.9517L37.8207 66.5545L35.0019 67.171C33.8856 67.4202 32.9705 67.7137 32.2566 68.0514C31.5516 68.377 31.047 68.7415 30.7427 69.1451C30.4385 69.5487 30.3249 69.9981 30.4019 70.4935C30.4986 71.1154 30.8781 71.5421 31.5402 71.7738C32.2023 72.0054 33.1447 72.0262 34.3674 71.836C34.81 71.7671 35.2231 71.6813 35.6065 71.5785C36.0005 71.474 36.4641 71.3317 36.9974 71.1516L37.4513 72.7165C36.9602 72.89 36.4807 73.0348 36.013 73.1507C35.5452 73.2666 35.0479 73.3656 34.5209 73.4475ZM48.1342 71.2329C46.9011 71.4248 45.7986 71.4505 44.8268 71.3102C43.8672 71.1788 43.0959 70.9047 42.513 70.488C41.9389 70.0592 41.5986 69.5022 41.492 68.8171C41.4035 68.2479 41.4884 67.614 41.7468 66.9154C42.014 66.2045 42.4603 65.3956 43.0857 64.4887L44.8469 65.0892C44.3307 65.7956 43.953 66.4211 43.7139 66.9656C43.4747 67.5102 43.383 67.9616 43.4387 68.32C43.4961 68.6889 43.7156 68.9894 44.0971 69.2215C44.4892 69.452 45.0085 69.5979 45.6549 69.6593C46.2997 69.7101 47.0385 69.6708 47.8711 69.5413C48.3981 69.4593 48.9729 69.3375 49.5954 69.1759C50.218 69.0143 50.8267 68.8333 51.4217 68.6328C52.0255 68.4201 52.5486 68.2092 52.9911 68.0001L53.6336 69.6327C53.1912 69.8419 52.6514 70.05 52.0143 70.257C51.3894 70.4729 50.7341 70.6666 50.0483 70.8381C49.373 71.0079 48.735 71.1395 48.1342 71.2329ZM41.1858 61.6429L40.9226 59.9513L51.4204 58.3184L51.6835 60.0101L41.1858 61.6429ZM64.8569 66.8345C65.4057 66.6844 65.8923 66.4468 66.3167 66.1217C66.75 65.7844 67.1042 65.3893 67.3791 64.9363C67.663 64.4712 67.8588 63.9603 67.9666 63.4038C68.0743 62.8473 68.0807 62.2634 67.9856 61.6521C67.8512 60.7878 67.5337 60.0654 67.0332 59.4847C66.531 58.8935 65.8945 58.4798 65.1237 58.2434C64.3634 58.0055 63.5143 57.9594 62.5762 58.1053C61.7752 58.2299 61.0526 58.4773 60.4085 58.8473C59.7644 59.2174 59.2157 59.6805 58.7625 60.2368C58.3182 60.7809 57.9976 61.3921 57.8009 62.0704C57.6025 62.7381 57.559 63.4304 57.6705 64.1471C57.7508 64.6636 57.9122 65.1458 58.1546 65.5939C58.397 66.0419 58.6685 66.3991 58.969 66.6654C59.2784 66.9196 59.5754 67.0245 59.8599 66.9803C60.271 66.9163 60.6081 66.4807 60.8711 65.6733C61.1341 64.866 61.3095 63.7376 61.3971 62.2883C61.4936 60.8267 61.494 59.0941 61.3982 57.0903L63.2617 56.9948C63.3347 58.9913 63.3327 60.7134 63.2556 62.1611C63.1785 63.6088 63.02 64.8101 62.7799 65.765C62.5398 66.72 62.2109 67.4512 61.7933 67.9587C61.374 68.4557 60.8588 68.7518 60.2474 68.8469C59.7415 68.9256 59.2528 68.872 58.7813 68.6863C58.3099 68.5006 57.8808 68.2057 57.4941 67.8016C57.1074 67.3976 56.7777 66.9091 56.5051 66.3362C56.2308 65.7528 56.0396 65.1132 55.9314 64.4176C55.7773 63.4268 55.8199 62.4864 56.0593 61.5964C56.2971 60.6958 56.7004 59.8883 57.2693 59.1737C57.8383 58.4591 58.5497 57.8626 59.4037 57.3844C60.2666 56.8939 61.2408 56.5643 62.3264 56.3954C63.6018 56.197 64.7672 56.264 65.8229 56.5964C66.889 56.9272 67.7711 57.497 68.4691 58.306C69.167 59.115 69.6119 60.1361 69.8037 61.3693C69.9332 62.2019 69.9273 62.9963 69.7858 63.7524C69.6548 64.5068 69.4062 65.1986 69.0399 65.8277C68.6719 66.4462 68.1988 66.9786 67.6205 67.4248C67.0422 67.871 66.3757 68.2013 65.621 68.4159L64.8569 66.8345ZM77.6668 64.9716C78.5034 64.7983 79.2006 64.6305 79.7583 64.4682C80.316 64.3059 80.752 64.1247 81.0663 63.9247C81.3895 63.7125 81.6194 63.4554 81.756 63.1535C81.9031 62.85 81.9746 62.4772 81.9706 62.0352C81.965 61.5827 81.9122 61.035 81.8122 60.3921L80.622 52.7401L82.4876 52.4499L83.6778 60.1019C83.8089 60.9451 83.8641 61.6814 83.8432 62.3107C83.8207 62.9295 83.7044 63.4658 83.4943 63.9194C83.2948 64.3715 82.9775 64.7609 82.5426 65.0876C82.1181 65.4127 81.5627 65.6934 80.8762 65.9297C80.1897 66.166 79.3604 66.3868 78.3884 66.5919L77.6668 64.9716ZM75.7033 58.2819L75.4451 56.6218L85.3263 55.0849L85.5845 56.745L75.7033 58.2819ZM74.1517 67.4614C73.7088 66.4184 73.3422 65.3798 73.0517 64.3455C72.7613 63.3111 72.5243 62.2037 72.3407 61.0233C72.1587 59.8533 72.0498 58.7368 72.014 57.6737C71.9765 56.6 72.0104 55.4991 72.1156 54.3708L74.0655 54.3104C73.9715 55.3721 73.9416 56.4293 73.9758 57.4819C74.0084 58.5239 74.1115 59.6036 74.2853 60.7208C74.4591 61.838 74.6895 62.9033 74.9767 63.9165C75.2638 64.9298 75.6117 65.9173 76.0204 66.8793L74.1517 67.4614ZM97.7605 63.6112C96.0003 63.8849 94.5927 63.8232 93.5378 63.426C92.4813 63.0182 91.8743 62.3084 91.7169 61.2965C91.6054 60.5798 91.7539 59.9036 92.1624 59.2679C92.5798 58.6201 93.2438 58.031 94.1545 57.5008L94.2855 58.0309L87.8481 59.5342L87.5365 57.9472C88.4694 57.6294 89.3722 57.2569 90.2449 56.8297C91.1176 56.4025 91.9311 55.9413 92.6852 55.4462C93.4483 54.9389 94.123 54.4183 94.7093 53.8845C95.3061 53.3491 95.795 52.8143 96.1761 52.28L96.8043 52.571L88.7096 53.83L88.4612 52.2332L98.5163 50.6692L98.7647 52.266C98.4021 52.711 97.9516 53.1805 97.4131 53.6745C96.8835 54.1563 96.2944 54.6365 95.6456 55.1153C95.0073 55.5924 94.343 56.0411 93.6528 56.4615C92.9731 56.8803 92.3115 57.2423 91.6681 57.5475L91.2202 57.3743L100.746 55.1153L101.06 56.7181L98.2415 57.3347C97.1252 57.5839 96.2101 57.8773 95.4962 58.2151C94.7912 58.5406 94.2866 58.9052 93.9823 59.3087C93.678 59.7123 93.5644 60.1618 93.6415 60.6571C93.7382 61.279 94.1177 61.7057 94.7798 61.9374C95.4419 62.169 96.3843 62.1898 97.6069 61.9996C98.0496 61.9308 98.4627 61.8449 98.8461 61.7421C99.24 61.6377 99.7037 61.4954 100.237 61.3153L100.691 62.8801C100.2 63.0536 99.7203 63.1984 99.2526 63.3143C98.7848 63.4302 98.2874 63.5292 97.7605 63.6112ZM111.374 61.3966C110.141 61.5884 109.038 61.6141 108.066 61.4738C107.107 61.3424 106.336 61.0684 105.753 60.6517C105.178 60.2228 104.838 59.6658 104.732 58.9807C104.643 58.4116 104.728 57.7777 104.986 57.079C105.254 56.3681 105.7 55.5593 106.325 54.6524L108.087 55.2528C107.57 55.9592 107.193 56.5847 106.953 57.1293C106.714 57.6738 106.623 58.1253 106.678 58.4836C106.736 58.8525 106.955 59.153 107.337 59.3851C107.729 59.6156 108.248 59.7616 108.895 59.8229C109.539 59.8738 110.278 59.8344 111.111 59.7049C111.638 59.6229 112.212 59.5012 112.835 59.3396C113.458 59.1779 114.066 58.9969 114.661 58.7964C115.265 58.5838 115.788 58.3728 116.231 58.1637L116.873 59.7963C116.431 60.0055 115.891 60.2136 115.254 60.4206C114.629 60.6366 113.974 60.8303 113.288 61.0017C112.613 61.1715 111.975 61.3031 111.374 61.3966ZM104.425 51.8066L104.162 50.1149L114.66 48.4821L114.923 50.1737L104.425 51.8066ZM128.097 56.9981C128.645 56.848 129.132 56.6104 129.556 56.2853C129.99 55.948 130.344 55.5529 130.619 55.0999C130.903 54.6348 131.098 54.124 131.206 53.5674C131.314 53.0109 131.32 52.427 131.225 51.8157C131.091 50.9514 130.773 50.229 130.273 49.6483C129.771 49.0572 129.134 48.6434 128.363 48.4071C127.603 48.1691 126.754 48.1231 125.816 48.269C125.015 48.3936 124.292 48.6409 123.648 49.0109C123.004 49.381 122.455 49.8442 122.002 50.4004C121.558 50.9445 121.237 51.5557 121.04 52.234C120.842 52.9018 120.799 53.594 120.91 54.3107C120.99 54.8272 121.152 55.3094 121.394 55.7575C121.637 56.2056 121.908 56.5628 122.209 56.8291C122.518 57.0832 122.815 57.1881 123.1 57.1439C123.511 57.0799 123.848 56.6443 124.111 55.8369C124.374 55.0296 124.549 53.9012 124.637 52.4519C124.733 50.9904 124.734 49.2577 124.638 47.254L126.501 47.1584C126.574 49.1549 126.572 50.877 126.495 52.3247C126.418 53.7724 126.26 54.9738 126.019 55.9287C125.779 56.8836 125.451 57.6148 125.033 58.1224C124.614 58.6194 124.098 58.9154 123.487 59.0105C122.981 59.0892 122.492 59.0357 122.021 58.8499C121.549 58.6642 121.12 58.3693 120.734 57.9653C120.347 57.5612 120.017 57.0728 119.745 56.4998C119.47 55.9164 119.279 55.2769 119.171 54.5812C119.017 53.5905 119.06 52.6501 119.299 51.76C119.537 50.8595 119.94 50.0519 120.509 49.3373C121.078 48.6227 121.789 48.0263 122.643 47.548C123.506 47.0575 124.48 46.7279 125.566 46.559C126.841 46.3607 128.007 46.4277 129.062 46.76C130.129 47.0908 131.011 47.6606 131.709 48.4697C132.407 49.2787 132.852 50.2997 133.043 51.5329C133.173 52.3656 133.167 53.1599 133.025 53.916C132.894 54.6704 132.646 55.3622 132.279 55.9913C131.911 56.6099 131.438 57.1422 130.86 57.5884C130.282 58.0346 129.615 58.365 128.861 58.5795L128.097 56.9981ZM140.906 55.1352C141.743 54.9619 142.44 54.7941 142.998 54.6318C143.556 54.4695 143.992 54.2883 144.306 54.0883C144.629 53.8761 144.859 53.6191 144.996 53.3171C145.143 53.0136 145.214 52.6408 145.21 52.1989C145.205 51.7463 145.152 51.1986 145.052 50.5557L143.862 42.9037L145.727 42.6135L146.917 50.2655C147.049 51.1087 147.104 51.845 147.083 52.4743C147.06 53.0931 146.944 53.6294 146.734 54.0831C146.534 54.5351 146.217 54.9245 145.782 55.2512C145.358 55.5763 144.802 55.857 144.116 56.0933C143.429 56.3297 142.6 56.5504 141.628 56.7556L140.906 55.1352ZM138.943 48.4455L138.685 46.7855L148.566 45.2485L148.824 46.9086L138.943 48.4455ZM137.391 57.625C136.948 56.5821 136.582 55.5434 136.291 54.5091C136.001 53.4748 135.764 52.3674 135.58 51.1869C135.398 50.017 135.289 48.9004 135.254 47.8373C135.216 46.7636 135.25 45.6627 135.355 44.5345L137.305 44.4741C137.211 45.5358 137.181 46.5929 137.215 47.6455C137.248 48.6876 137.351 49.7672 137.525 50.8844C137.699 52.0017 137.929 53.0669 138.216 54.0801C138.503 55.0934 138.851 56.081 139.26 57.0429L137.391 57.625Z" fill="white"/>
<g filter="url(#filter3_d_122_1058)">
<rect x="16.0088" y="106" width="139" height="29" transform="rotate(20.1891 16.0088 106)" fill="#128FCD" fill-opacity="0.2" shape-rendering="crispEdges"/>
<rect x="16.6022" y="107.284" width="137" height="27" transform="rotate(20.1891 16.6022 107.284)" stroke="#48BCCB" stroke-opacity="0.5" stroke-width="2" shape-rendering="crispEdges"/>
</g>
<path d="M23.412 129.904C25.4801 130.585 27.315 130.833 28.9169 130.649C30.5288 130.469 31.9107 129.864 33.0626 128.832C34.2183 127.791 35.1458 126.32 35.8453 124.418L36.3889 125.674L25.6668 121.732L26.2908 120.035L37.4484 124.138L37.6277 125.226C36.8114 127.415 35.7131 129.119 34.3326 130.339C32.9521 131.559 31.3201 132.289 29.4364 132.528C27.5565 132.757 25.4441 132.475 23.0994 131.681L23.412 129.904ZM36.1058 125.332C36.0717 124.683 36.0187 124.101 35.9467 123.585C35.8784 123.06 35.7696 122.537 35.6202 122.016L37.1151 121.799C37.2634 122.353 37.3781 122.907 37.459 123.46C37.54 124.012 37.5962 124.601 37.6277 125.226L36.1058 125.332ZM38.4562 125.94C38.4558 125.292 38.4215 124.706 38.3532 124.181C38.2949 123.659 38.2129 123.14 38.1073 122.624L39.5801 122.467C39.7147 123.028 39.8057 123.584 39.8529 124.135C39.9102 124.691 39.9377 125.28 39.9354 125.904L38.4562 125.94ZM38.9402 135.426C40.4871 135.824 41.9098 136.035 43.2084 136.058C44.5169 136.084 45.7068 135.908 46.7781 135.529C47.863 135.144 48.8562 134.56 49.7576 133.778C50.6589 132.996 51.4809 131.997 52.2234 130.781L53.7823 131.78C52.703 133.634 51.4188 135.071 49.9297 136.092C48.4506 137.116 46.7666 137.724 44.8776 137.916C42.9987 138.112 40.8961 137.895 38.57 137.267L38.9402 135.426ZM45.6406 131.02C45.0201 130.235 44.3648 129.482 43.6748 128.763C42.9948 128.047 42.2969 127.364 41.5811 126.714L42.9923 125.426C44.4613 126.716 45.8445 128.163 47.1419 129.765L45.6406 131.02ZM53.4459 140.947C55.514 141.628 57.3489 141.877 58.9508 141.693C60.5626 141.513 61.9445 140.907 63.0965 139.876C64.2522 138.835 65.1797 137.364 65.8792 135.461L66.4228 136.718L55.7007 132.776L56.3247 131.079L67.4823 135.181L67.6615 136.27C66.8453 138.459 65.747 140.163 64.3665 141.383C62.986 142.603 61.3539 143.333 59.4703 143.572C57.5903 143.801 55.478 143.519 53.1333 142.725L53.4459 140.947ZM66.1397 136.375C66.1056 135.726 66.0525 135.144 65.9806 134.629C65.9123 134.104 65.8034 133.581 65.654 133.06L67.1489 132.843C67.2973 133.397 67.412 133.951 67.4929 134.503C67.5739 135.056 67.6301 135.645 67.6615 136.27L66.1397 136.375ZM68.4901 136.984C68.4897 136.336 68.4553 135.75 68.3871 135.224C68.3288 134.703 68.2468 134.184 68.1411 133.668L69.6139 133.51C69.7486 134.071 69.8396 134.628 69.8868 135.179C69.944 135.734 69.9715 136.324 69.9693 136.948L68.4901 136.984ZM68.9741 146.47C70.521 146.868 71.9437 147.079 73.2422 147.102C74.5508 147.128 75.7407 146.952 76.812 146.573C77.8969 146.188 78.8901 145.604 79.7914 144.822C80.6928 144.04 81.5148 143.041 82.2573 141.825L83.8162 142.824C82.7369 144.678 81.4527 146.115 79.9636 147.135C78.4845 148.16 76.8004 148.768 74.9115 148.96C73.0325 149.156 70.93 148.939 68.6038 148.311L68.9741 146.47ZM75.6744 142.064C75.0539 141.279 74.3987 140.526 73.7086 139.806C73.0286 139.09 72.3307 138.408 71.615 137.758L73.0262 136.47C74.4952 137.76 75.8784 139.206 77.1758 140.809L75.6744 142.064ZM83.4797 151.991C85.5478 152.672 87.3828 152.921 88.9846 152.737C90.5965 152.557 91.9784 151.951 93.1304 150.92C94.286 149.879 95.2136 148.407 95.913 146.505L96.4567 147.762L85.7346 143.819L86.3586 142.123L97.5161 146.225L97.6954 147.314C96.8792 149.503 95.7808 151.207 94.4004 152.427C93.0199 153.647 91.3878 154.376 89.5042 154.616C87.6242 154.845 85.5119 154.563 83.1672 153.769L83.4797 151.991ZM96.1736 147.419C96.1395 146.77 96.0864 146.188 96.0144 145.673C95.9462 145.148 95.8373 144.625 95.6879 144.104L97.1828 143.887C97.3312 144.441 97.4458 144.995 97.5268 145.547C97.6077 146.1 97.6639 146.689 97.6954 147.314L96.1736 147.419ZM98.524 148.028C98.5236 147.38 98.4892 146.793 98.4209 146.268C98.3627 145.747 98.2807 145.228 98.175 144.712L99.6478 144.554C99.7825 145.115 99.8734 145.672 99.9207 146.223C99.9779 146.778 100.005 147.368 100.003 147.992L98.524 148.028ZM99.0079 157.514C100.555 157.912 101.978 158.123 103.276 158.146C104.585 158.172 105.775 157.996 106.846 157.617C107.931 157.232 108.924 156.648 109.825 155.866C110.727 155.083 111.549 154.084 112.291 152.869L113.85 153.868C112.771 155.721 111.487 157.159 109.997 158.179C108.518 159.204 106.834 159.812 104.945 160.004C103.066 160.199 100.964 159.983 98.6377 159.355L99.0079 157.514ZM105.708 153.107C105.088 152.322 104.433 151.57 103.743 150.85C103.063 150.134 102.365 149.452 101.649 148.802L103.06 147.514C104.529 148.804 105.912 150.25 107.21 151.852L105.708 153.107ZM112.797 163.965L113.575 161.848L115.708 162.632L114.929 164.749L112.797 163.965ZM117.504 165.696L118.283 163.579L120.415 164.363L119.637 166.48L117.504 165.696ZM122.212 167.427L122.99 165.309L125.123 166.094L124.344 168.211L122.212 167.427Z" fill="white"/>
<g filter="url(#filter4_d_122_1058)">
<rect x="69" y="92.7396" width="91" height="29" transform="rotate(-13.8214 69 92.7396)" fill="#128FCD" fill-opacity="0.2" shape-rendering="crispEdges"/>
<rect x="70.2099" y="93.4718" width="89" height="27" transform="rotate(-13.8214 70.2099 93.4718)" stroke="#48BCCB" stroke-opacity="0.5" stroke-width="2" shape-rendering="crispEdges"/>
</g>
<path d="M95.446 108.782L95.0447 107.151L96.9402 106.685L94.6468 97.3625L96.4801 96.9115L98.7735 106.233L101.601 105.538L98.7535 93.963L100.602 93.5081L101.527 97.268L106.484 96.0487L106.874 97.6334L101.917 98.8527L103.45 105.083L108.935 103.734L109.336 105.365L95.446 108.782ZM115.85 103.713C114.628 104.014 113.62 104.003 112.827 103.682C112.047 103.369 111.547 102.767 111.328 101.876C111.109 100.985 111.273 100.225 111.822 99.5961C112.37 98.967 113.26 98.5007 114.493 98.1975C115.166 98.0319 115.837 97.9438 116.504 97.9334C117.172 97.923 117.866 97.9993 118.587 98.1624C119.319 98.323 120.105 98.5743 120.948 98.9163C121.787 99.248 122.712 99.6797 123.721 100.211L122.831 101.682C121.878 101.203 121.018 100.81 120.251 100.505C119.491 100.186 118.802 99.9496 118.181 99.7946C117.558 99.6293 116.978 99.5469 116.44 99.5475C115.909 99.5351 115.385 99.5927 114.867 99.7201C113.542 100.046 112.976 100.603 113.169 101.39C113.269 101.794 113.511 102.064 113.896 102.2C114.278 102.326 114.791 102.309 115.433 102.151C116.199 101.963 116.724 101.663 117.008 101.253C117.291 100.843 117.351 100.306 117.188 99.6434L114.78 89.8553L116.536 89.4234L118.944 99.2115C119.232 100.382 119.117 101.344 118.599 102.097C118.092 102.848 117.176 103.387 115.85 103.713ZM110.18 97.6768L109.801 96.1387L121.827 93.1802L122.205 94.7184L110.18 97.6768ZM109.244 94.5456L108.858 92.9764L121.195 89.9414L121.581 91.5106L109.244 94.5456ZM138.283 97.7162C137.63 97.8768 137.107 97.8244 136.712 97.559C136.325 97.2807 136.037 96.7584 135.848 95.9919L134.453 90.321C134.3 89.6995 134.11 89.2629 133.884 89.0111C133.667 88.7567 133.399 88.6691 133.078 88.7481C132.881 88.7965 132.664 88.9211 132.428 89.1221C132.189 89.3126 131.905 89.6078 131.575 90.0075C131.255 90.4047 130.874 90.9323 130.432 91.5904C129.987 92.2381 129.46 93.0433 128.851 94.006L128.68 94.048C128.355 94.6004 127.985 95.2186 127.571 95.9026C127.168 96.5841 126.728 97.3405 126.251 98.1717L124.871 96.9131C125.873 95.3155 126.737 93.9605 127.462 92.8482C128.188 91.7359 128.819 90.8173 129.355 90.0923C129.891 89.3674 130.353 88.7922 130.743 88.3668C131.143 87.9388 131.51 87.6233 131.845 87.4202C132.189 87.2145 132.538 87.0683 132.89 86.9817C133.729 86.7753 134.425 86.8788 134.977 87.2922C135.537 87.6927 135.939 88.3901 136.184 89.3845L137.479 94.6514C137.571 95.0243 137.651 95.3066 137.721 95.4983C137.8 95.6875 137.875 95.8119 137.944 95.8717C138.022 95.9185 138.117 95.928 138.231 95.8999C138.418 95.8541 138.656 95.7295 138.947 95.5262C139.248 95.3204 139.567 95.0551 139.904 94.7304L140.823 96.1852C140.425 96.5795 140.011 96.9065 139.581 97.1662C139.151 97.4259 138.718 97.6092 138.283 97.7162ZM129.591 100.563L127.275 91.1478L123.795 92.004L123.405 90.4193L126.885 89.5631L126.327 87.2947L128.129 86.8513L131.393 100.12L129.591 100.563Z" fill="white"/>
<g filter="url(#filter5_d_122_1058)">
<rect x="177.935" y="45" width="91" height="29" transform="rotate(3.82478 177.935 45)" fill="#128FCD" fill-opacity="0.2" shape-rendering="crispEdges"/>
<rect x="178.866" y="46.0645" width="89" height="27" transform="rotate(3.82478 178.866 46.0645)" stroke="#48BCCB" stroke-opacity="0.5" stroke-width="2" shape-rendering="crispEdges"/>
</g>
<path d="M211.308 66.6585L211.872 58.2293L213.756 58.3552L213.652 59.9038L220.437 60.3574L220.345 61.7303L213.56 61.2767L213.473 62.5858L220.258 63.0394L220.166 64.4123L213.381 63.9587L213.292 65.2837L215.623 65.4396L216.068 58.7824L213.45 58.6074L213.549 57.1227L220.941 57.6169L220.842 59.1016L217.856 58.902L217.411 65.5591L220.636 65.7747L220.536 67.2753L211.308 66.6585ZM206.776 69.4503L206.016 67.8601C206.649 67.5069 207.224 67.1444 207.741 66.7727C208.269 66.3911 208.756 65.98 209.202 65.5395L210.17 66.8871C209.711 67.3588 209.206 67.8008 208.655 68.2129C208.114 68.6258 207.488 69.0382 206.776 69.4503ZM208.187 66.5781L208.443 62.7466L206.591 62.6228L206.697 61.0423L210.368 61.2878L210.007 66.6997L208.187 66.5781ZM216.1 69.8171C215.004 69.7439 214.054 69.6482 213.249 69.5303C212.444 69.4124 211.765 69.2601 211.211 69.0733C210.667 68.898 210.217 68.6755 209.86 68.4058C209.504 68.1361 209.216 67.8174 208.994 67.4499C208.784 67.083 208.609 66.6544 208.471 66.1641L210.027 66.1559C210.159 66.4213 210.314 66.6561 210.493 66.8605C210.672 67.0649 210.895 67.2402 211.163 67.3864C211.443 67.5227 211.804 67.643 212.246 67.7474C212.688 67.8518 213.232 67.9417 213.879 68.017C214.537 68.093 215.334 68.1624 216.271 68.225L220.677 68.5195L220.458 70.1085L216.1 69.8171ZM209.699 59.5433C209.286 59.0132 208.866 58.4934 208.44 57.9838C208.026 57.4644 207.6 56.9602 207.163 56.4712L208.514 55.4391C208.941 55.9273 209.362 56.4312 209.776 56.9507C210.202 57.4602 210.616 57.985 211.018 58.525L209.699 59.5433ZM211.208 61.9212L209.887 60.5661C210.554 59.7127 211.125 58.8475 211.6 57.9706C212.087 57.0944 212.506 56.171 212.86 55.2004L214.57 55.5233C214.393 56.0994 214.206 56.6482 214.011 57.1696C213.816 57.6911 213.611 58.2012 213.396 58.7L212.962 58.7191C212.658 59.4151 212.361 60.0259 212.069 60.5516C211.789 61.0674 211.502 61.5239 211.208 61.9212ZM217.823 58.4347L216.128 58.129C216.337 57.726 216.525 57.3003 216.694 56.8519C216.863 56.4035 217.022 55.9438 217.171 55.4727L218.884 55.7635C218.733 56.2559 218.569 56.7206 218.39 57.1577C218.222 57.5954 218.033 58.0211 217.823 58.4347ZM230.848 68.6864C231.664 68.6341 232.377 68.4518 232.986 68.1398C233.595 67.817 234.073 67.384 234.42 66.8405C234.777 66.2871 234.981 65.6433 235.03 64.9089C235.085 64.0788 234.931 63.3522 234.566 62.7291C234.212 62.1068 233.673 61.6111 232.95 61.242C232.227 60.8623 231.354 60.6382 230.333 60.5699C229.194 60.4938 228.185 60.6295 227.307 60.977C226.439 61.3252 225.746 61.8562 225.228 62.5699C224.721 63.2736 224.434 64.1364 224.365 65.1581C224.333 65.6477 224.363 66.0773 224.456 66.447C224.549 66.806 224.696 67.0885 224.896 67.2943C225.096 67.5001 225.345 67.6129 225.643 67.6328C226.058 67.6606 226.507 67.5035 226.99 67.1616C227.483 66.8204 227.992 66.3253 228.516 65.6761C229.052 65.0171 229.586 64.2296 230.117 63.3137C230.659 62.3985 231.177 61.38 231.668 60.2583C232.172 59.1267 232.637 57.9231 233.064 56.6474L234.812 57.1331C234.17 59.0572 233.466 60.7901 232.7 62.3318C231.935 63.8628 231.138 65.1618 230.307 66.2288C229.478 67.2852 228.638 68.0896 227.789 68.6422C226.94 69.1841 226.111 69.4281 225.302 69.374C224.706 69.3341 224.196 69.1343 223.771 68.7745C223.346 68.4147 223.031 67.9233 222.827 67.3003C222.623 66.6772 222.548 65.956 222.603 65.1365C222.671 64.1148 222.909 63.1953 223.317 62.3779C223.724 61.5606 224.273 60.8704 224.962 60.3071C225.663 59.7446 226.476 59.3339 227.402 59.0751C228.329 58.8057 229.345 58.7079 230.452 58.7819C231.815 58.873 232.985 59.1918 233.964 59.7383C234.955 60.2749 235.697 60.9981 236.193 61.9078C236.688 62.8175 236.896 63.8577 236.818 65.0285C236.749 66.0608 236.469 66.9722 235.978 67.7625C235.498 68.5429 234.841 69.1672 234.008 69.6353C233.186 70.0935 232.239 70.3562 231.165 70.4234L230.848 68.6864ZM227.562 67.232C227.237 66.1733 226.934 65.1107 226.653 64.0442C226.372 62.9671 226.115 61.8594 225.881 60.7213C225.658 59.5732 225.439 58.3773 225.223 57.1334L227.053 56.8549C227.25 58.076 227.46 59.25 227.684 60.3768C227.908 61.4929 228.151 62.5782 228.412 63.6326C228.684 64.6878 228.977 65.739 229.292 66.7863L227.562 67.232Z" fill="white"/>
<g filter="url(#filter6_d_122_1058)">
<rect x="151" y="174.368" width="91" height="29" transform="rotate(-76.1871 151 174.368)" fill="#128FCD" fill-opacity="0.2" shape-rendering="crispEdges"/>
<rect x="152.21" y="173.636" width="89" height="27" transform="rotate(-76.1871 152.21 173.636)" stroke="#48BCCB" stroke-opacity="0.5" stroke-width="2" shape-rendering="crispEdges"/>
</g>
<path d="M175.34 166.949C174.863 168.886 174.201 170.283 173.354 171.14C172.496 171.994 171.481 172.278 170.311 171.99C169.327 171.748 168.521 171.16 167.894 170.226C167.257 169.289 166.782 167.959 166.47 166.234C166.16 164.5 165.997 162.329 165.979 159.721L167.748 159.695C167.765 161.906 167.882 163.753 168.1 165.235C168.32 166.706 168.641 167.834 169.064 168.619C169.478 169.391 170.011 169.857 170.664 170.017C172.01 170.348 173.019 169.152 173.688 166.427C173.798 165.982 173.892 165.511 173.97 165.014C174.048 164.517 174.125 163.959 174.2 163.34C174.268 162.709 174.335 161.989 174.401 161.182L176.133 161.377C176.057 162.402 175.952 163.387 175.818 164.331C175.698 165.268 175.538 166.141 175.34 166.949ZM167.669 168.193C166.58 168.244 165.523 168.253 164.498 168.221C163.463 168.186 162.449 168.113 161.455 168L161.638 166.051C162.634 166.154 163.639 166.22 164.654 166.249C165.658 166.276 166.666 166.261 167.68 166.203L167.669 168.193ZM179.04 153.573C178.999 153.739 178.942 153.95 178.868 154.207C178.796 154.453 178.715 154.762 178.623 155.135L177.078 154.854C177.169 154.525 177.24 154.284 177.288 154.131C177.329 153.966 177.365 153.821 177.395 153.696C177.446 153.489 177.47 153.347 177.467 153.269C177.457 153.179 177.402 153.11 177.304 153.064C177.195 153.015 177.016 152.96 176.767 152.899L173.473 152.09L172.198 157.279L170.768 156.928L172.705 149.05L174.134 149.402L173.897 150.365L177.191 151.175C177.72 151.305 178.128 151.432 178.415 151.558C178.716 151.676 178.923 151.815 179.038 151.975C179.163 152.137 179.216 152.343 179.199 152.591C179.192 152.842 179.139 153.17 179.04 153.573ZM177.128 157.865L172.84 156.811L173.845 152.724L177.216 153.553L176.571 156.179L175.436 155.9L175.727 154.72L174.655 154.456L174.364 155.637L177.487 156.405L177.128 157.865ZM169.826 156.07L166.47 155.245L167.474 151.158L170.83 151.983L170.185 154.609L169.035 154.327L169.325 153.146L168.284 152.89L167.994 154.071L170.185 154.609L169.826 156.07ZM171.796 151.743C171.765 151.867 171.72 152.027 171.662 152.221C171.603 152.415 171.534 152.651 171.455 152.928L170.034 152.677C170.105 152.431 170.156 152.268 170.187 152.188C170.21 152.094 170.233 152.001 170.256 151.908C170.302 151.722 170.323 151.59 170.32 151.512C170.309 151.421 170.255 151.353 170.156 151.307C170.048 151.258 169.869 151.203 169.62 151.142L167.103 150.523L165.827 155.713L164.398 155.361L166.335 147.484L167.764 147.835L167.527 148.799L169.935 149.391C170.443 149.516 170.846 149.642 171.144 149.77C171.444 149.888 171.657 150.028 171.782 150.191C171.899 150.34 171.954 150.541 171.947 150.792C171.943 151.032 171.892 151.349 171.796 151.743ZM179.556 151.41L177.635 151.58C177.491 151.051 177.277 150.559 176.993 150.104C176.709 149.65 176.349 149.238 175.913 148.867C175.477 148.496 174.948 148.168 174.326 147.884C173.704 147.599 172.984 147.356 172.166 147.155L170.395 146.719L170.826 144.963L172.597 145.399C173.468 145.613 174.294 145.937 175.077 146.371C175.863 146.795 176.571 147.287 177.202 147.849C177.822 148.408 178.337 148.996 178.745 149.613C179.156 150.219 179.426 150.818 179.556 151.41ZM181.221 144.636C180.806 145.116 180.26 145.553 179.581 145.946C178.894 146.326 178.137 146.635 177.31 146.871C176.473 147.104 175.615 147.245 174.735 147.292C173.848 147.327 173.001 147.244 172.193 147.046L172.597 145.399C173.333 145.58 174.034 145.675 174.702 145.686C175.369 145.696 175.996 145.625 176.583 145.473C177.162 145.307 177.703 145.072 178.206 144.768C178.71 144.463 179.17 144.088 179.587 143.641L181.221 144.636ZM172.654 148.856L171.304 149.991C170.852 149.55 170.342 149.123 169.774 148.708C169.206 148.294 168.599 147.903 167.953 147.536C167.3 147.155 166.626 146.814 165.931 146.511L166.499 144.872C167.276 145.195 168.04 145.574 168.789 146.011C169.541 146.438 170.247 146.897 170.906 147.388C171.567 147.87 172.15 148.359 172.654 148.856ZM174.749 143.819L173.718 145.263C173.197 144.882 172.608 144.506 171.952 144.136C171.286 143.764 170.619 143.44 169.95 143.166L170.705 141.704C171.436 141.994 172.151 142.323 172.851 142.693C173.551 143.063 174.183 143.438 174.749 143.819ZM169.418 146.94L167.817 146.547L169.105 141.311L170.705 141.704L169.418 146.94ZM182.961 133.135C182.824 133.694 182.627 134.272 182.37 134.868C182.117 135.453 181.828 136.003 181.504 136.516L179.987 135.781C180.26 135.299 180.515 134.774 180.754 134.207C180.982 133.636 181.148 133.139 181.252 132.714C181.413 132.062 181.429 131.528 181.3 131.112C181.174 130.685 180.868 130.324 180.38 130.029C179.893 129.733 179.188 129.472 178.266 129.245C176.951 128.922 175.927 128.906 175.196 129.199C174.458 129.479 173.974 130.085 173.744 131.017C173.648 131.41 173.618 131.821 173.656 132.247C173.686 132.661 173.786 133.125 173.956 133.639C174.129 134.143 174.399 134.72 174.766 135.371C175.123 136.019 175.58 136.774 176.137 137.636L176.103 137.775C176.48 138.296 176.907 138.863 177.382 139.474C177.861 140.075 178.398 140.729 178.993 141.435L177.207 142.133C176.265 140.869 175.464 139.749 174.803 138.774C174.134 137.786 173.588 136.904 173.163 136.13C172.738 135.355 172.428 134.653 172.231 134.022C172.024 133.389 171.911 132.801 171.89 132.258C171.862 131.702 171.916 131.149 172.051 130.6C172.425 129.078 173.171 128.053 174.29 127.526C175.4 126.986 176.877 126.943 178.721 127.396C180.585 127.855 181.856 128.54 182.532 129.454C183.198 130.364 183.341 131.591 182.961 133.135ZM182.108 140.29L172.693 137.975L171.959 140.958L170.374 140.568L171.108 137.585L168.839 137.028L169.283 135.225L182.551 138.488L182.108 140.29ZM187.545 115.297C187.384 115.95 187.095 116.389 186.677 116.616C186.251 116.83 185.654 116.842 184.888 116.654L179.217 115.26C178.595 115.107 178.12 115.072 177.792 115.157C177.466 115.23 177.264 115.428 177.185 115.749C177.137 115.946 177.147 116.195 177.215 116.498C177.273 116.797 177.403 117.186 177.604 117.664C177.808 118.132 178.098 118.714 178.476 119.411C178.844 120.105 179.313 120.946 179.883 121.932L179.841 122.103C180.179 122.647 180.556 123.261 180.97 123.945C181.386 124.619 181.852 125.36 182.368 126.167L180.612 126.807C179.662 125.178 178.862 123.784 178.213 122.625C177.565 121.466 177.043 120.481 176.649 119.67C176.256 118.859 175.961 118.183 175.765 117.64C175.571 117.087 175.462 116.616 175.437 116.225C175.415 115.824 175.447 115.448 175.533 115.095C175.74 114.256 176.154 113.688 176.776 113.391C177.391 113.081 178.195 113.048 179.19 113.292L184.457 114.587C184.83 114.679 185.117 114.739 185.319 114.766C185.523 114.784 185.668 114.775 185.754 114.741C185.831 114.694 185.884 114.614 185.912 114.5C185.958 114.314 185.958 114.045 185.912 113.693C185.87 113.331 185.783 112.925 185.652 112.475L187.366 112.337C187.531 112.872 187.629 113.39 187.659 113.892C187.69 114.394 187.652 114.862 187.545 115.297ZM186.035 124.318L176.62 122.003L175.764 125.483L174.179 125.093L175.035 121.613L172.766 121.055L173.21 119.253L186.478 122.515L186.035 124.318ZM190.668 105.207C190.291 106.74 189.75 107.87 189.044 108.597C188.34 109.314 187.538 109.562 186.637 109.34C185.87 109.152 185.352 108.689 185.083 107.953C184.806 107.204 184.805 106.27 185.08 105.151C185.339 104.095 185.731 103.351 186.255 102.919C186.768 102.485 187.413 102.364 188.19 102.555C188.469 102.623 188.759 102.739 189.06 102.9C189.363 103.052 189.668 103.242 189.974 103.471L189.368 105.134C189.051 104.903 188.776 104.725 188.543 104.602C188.312 104.468 188.104 104.379 187.917 104.333C187.213 104.16 186.733 104.591 186.479 105.627C186.349 106.155 186.335 106.591 186.437 106.935C186.532 107.266 186.739 107.47 187.06 107.549C187.495 107.656 187.905 107.488 188.289 107.044C188.662 106.598 188.956 105.939 189.17 105.069C189.58 103.402 189.64 102.104 189.352 101.176C189.056 100.236 188.401 99.6407 187.386 99.3911C186.526 99.1797 185.815 99.3455 185.253 99.8883C184.694 100.421 184.244 101.381 183.902 102.769C183.706 103.567 183.606 104.289 183.6 104.936C183.585 105.58 183.658 106.197 183.821 106.786L184.498 109.127L182.885 109.521L180.145 99.4892L180.44 99.5617L178.496 107.47L176.926 107.084L179.539 96.4569L181.109 96.8427L183.424 105.452L182.395 106.221C182.36 105.872 182.344 105.489 182.347 105.073C182.343 104.643 182.361 104.214 182.401 103.784C182.433 103.341 182.476 102.918 182.532 102.514C182.577 102.108 182.638 101.744 182.717 101.423C183.105 99.8489 183.733 98.7236 184.602 98.0476C185.471 97.3716 186.517 97.1838 187.739 97.4843C189.2 97.8434 190.182 98.6946 190.687 100.038C191.194 101.371 191.188 103.094 190.668 105.207Z" fill="white"/>
<defs>
<filter id="filter0_d_122_1058" x="14" y="0" width="274.18" height="27" filterUnits="userSpaceOnUse" color-interpolation-filters="sRGB">
<feFlood flood-opacity="0" result="BackgroundImageFix"/>
<feColorMatrix in="SourceAlpha" type="matrix" values="0 0 0 0 0 0 0 0 0 0 0 0 0 0 0 0 0 0 127 0" result="hardAlpha"/>
<feOffset/>
<feGaussianBlur stdDeviation="2"/>
<feComposite in2="hardAlpha" operator="out"/>
<feColorMatrix type="matrix" values="0 0 0 0 1 0 0 0 0 1 0 0 0 0 1 0 0 0 0.6 0"/>
<feBlend mode="normal" in2="BackgroundImageFix" result="effect1_dropShadow_122_1058"/>
<feBlend mode="normal" in="SourceGraphic" in2="effect1_dropShadow_122_1058" result="shape"/>
</filter>
<filter id="filter1_d_122_1058" x="195" y="68" width="117.359" height="117.359" filterUnits="userSpaceOnUse" color-interpolation-filters="sRGB">
<feFlood flood-opacity="0" result="BackgroundImageFix"/>
<feColorMatrix in="SourceAlpha" type="matrix" values="0 0 0 0 0 0 0 0 0 0 0 0 0 0 0 0 0 0 127 0" result="hardAlpha"/>
<feOffset/>
<feGaussianBlur stdDeviation="3"/>
<feComposite in2="hardAlpha" operator="out"/>
<feColorMatrix type="matrix" values="0 0 0 0 0.282353 0 0 0 0 0.737255 0 0 0 0 0.796078 0 0 0 0.25 0"/>
<feBlend mode="normal" in2="BackgroundImageFix" result="effect1_dropShadow_122_1058"/>
<feBlend mode="normal" in="SourceGraphic" in2="effect1_dropShadow_122_1058" result="shape"/>
</filter>
<filter id="filter2_d_122_1058" x="10" y="27" width="153.806" height="62.0189" filterUnits="userSpaceOnUse" color-interpolation-filters="sRGB">
<feFlood flood-opacity="0" result="BackgroundImageFix"/>
<feColorMatrix in="SourceAlpha" type="matrix" values="0 0 0 0 0 0 0 0 0 0 0 0 0 0 0 0 0 0 127 0" result="hardAlpha"/>
<feOffset/>
<feGaussianBlur stdDeviation="3"/>
<feComposite in2="hardAlpha" operator="out"/>
<feColorMatrix type="matrix" values="0 0 0 0 0.282353 0 0 0 0 0.737255 0 0 0 0 0.796078 0 0 0 0.25 0"/>
<feBlend mode="normal" in2="BackgroundImageFix" result="effect1_dropShadow_122_1058"/>
<feBlend mode="normal" in="SourceGraphic" in2="effect1_dropShadow_122_1058" result="shape"/>
</filter>
<filter id="filter3_d_122_1058" x="0" y="100" width="152.469" height="87.1899" filterUnits="userSpaceOnUse" color-interpolation-filters="sRGB">
<feFlood flood-opacity="0" result="BackgroundImageFix"/>
<feColorMatrix in="SourceAlpha" type="matrix" values="0 0 0 0 0 0 0 0 0 0 0 0 0 0 0 0 0 0 127 0" result="hardAlpha"/>
<feOffset/>
<feGaussianBlur stdDeviation="3"/>
<feComposite in2="hardAlpha" operator="out"/>
<feColorMatrix type="matrix" values="0 0 0 0 0.282353 0 0 0 0 0.737255 0 0 0 0 0.796078 0 0 0 0.25 0"/>
<feBlend mode="normal" in2="BackgroundImageFix" result="effect1_dropShadow_122_1058"/>
<feBlend mode="normal" in="SourceGraphic" in2="effect1_dropShadow_122_1058" result="shape"/>
</filter>
<filter id="filter4_d_122_1058" x="63" y="65" width="107.293" height="61.8999" filterUnits="userSpaceOnUse" color-interpolation-filters="sRGB">
<feFlood flood-opacity="0" result="BackgroundImageFix"/>
<feColorMatrix in="SourceAlpha" type="matrix" values="0 0 0 0 0 0 0 0 0 0 0 0 0 0 0 0 0 0 127 0" result="hardAlpha"/>
<feOffset/>
<feGaussianBlur stdDeviation="3"/>
<feComposite in2="hardAlpha" operator="out"/>
<feColorMatrix type="matrix" values="0 0 0 0 0.282353 0 0 0 0 0.737255 0 0 0 0 0.796078 0 0 0 0.25 0"/>
<feBlend mode="normal" in2="BackgroundImageFix" result="effect1_dropShadow_122_1058"/>
<feBlend mode="normal" in="SourceGraphic" in2="effect1_dropShadow_122_1058" result="shape"/>
</filter>
<filter id="filter5_d_122_1058" x="170" y="39" width="104.731" height="47.0056" filterUnits="userSpaceOnUse" color-interpolation-filters="sRGB">
<feFlood flood-opacity="0" result="BackgroundImageFix"/>
<feColorMatrix in="SourceAlpha" type="matrix" values="0 0 0 0 0 0 0 0 0 0 0 0 0 0 0 0 0 0 127 0" result="hardAlpha"/>
<feOffset/>
<feGaussianBlur stdDeviation="3"/>
<feComposite in2="hardAlpha" operator="out"/>
<feColorMatrix type="matrix" values="0 0 0 0 0.282353 0 0 0 0 0.737255 0 0 0 0 0.796078 0 0 0 0.25 0"/>
<feBlend mode="normal" in2="BackgroundImageFix" result="effect1_dropShadow_122_1058"/>
<feBlend mode="normal" in="SourceGraphic" in2="effect1_dropShadow_122_1058" result="shape"/>
</filter>
<filter id="filter6_d_122_1058" x="145" y="80" width="61.8877" height="107.292" filterUnits="userSpaceOnUse" color-interpolation-filters="sRGB">
<feFlood flood-opacity="0" result="BackgroundImageFix"/>
<feColorMatrix in="SourceAlpha" type="matrix" values="0 0 0 0 0 0 0 0 0 0 0 0 0 0 0 0 0 0 127 0" result="hardAlpha"/>
<feOffset/>
<feGaussianBlur stdDeviation="3"/>
<feComposite in2="hardAlpha" operator="out"/>
<feColorMatrix type="matrix" values="0 0 0 0 0.282353 0 0 0 0 0.737255 0 0 0 0 0.796078 0 0 0 0.25 0"/>
<feBlend mode="normal" in2="BackgroundImageFix" result="effect1_dropShadow_122_1058"/>
<feBlend mode="normal" in="SourceGraphic" in2="effect1_dropShadow_122_1058" result="shape"/>
</filter>
</defs>
</svg>
