<svg width="300" height="184" viewBox="0 0 300 184" fill="none" xmlns="http://www.w3.org/2000/svg">
<g filter="url(#filter0_d_122_1158)">
<rect x="57" y="5" width="64" height="17" stroke="white" stroke-width="2"/>
<rect x="127" y="5" width="64" height="17" stroke="white" stroke-width="2"/>
<path d="M198.916 18.372V17.1H196.672V16.08H198.916V15.276L198.94 15.156V12.3L198.916 12.228V11.376H196.576V10.356H198.916V9.264H200.344V10.356H202.468V11.376H200.344V12.204L200.332 12.3V15.156L200.344 15.336V16.08H202.312V17.1H200.344V18.372H198.916ZM196.528 18.96L196.456 17.832C196.904 17.816 197.372 17.796 197.86 17.772C198.356 17.74 198.856 17.704 199.36 17.664C199.864 17.616 200.36 17.572 200.848 17.532C201.336 17.492 201.796 17.444 202.228 17.388L202.312 18.444C201.712 18.532 201.08 18.608 200.416 18.672C199.76 18.736 199.1 18.792 198.436 18.84C197.772 18.888 197.136 18.928 196.528 18.96ZM196.84 15.576V11.892H202.336V15.576H198.1V14.628H201.148V14.088H198.1V13.368H201.148V12.828H198.1V15.576H196.84ZM202.924 19.056L201.82 18.336C202.06 17.984 202.272 17.604 202.456 17.196C202.648 16.78 202.812 16.308 202.948 15.78C203.084 15.252 203.196 14.636 203.284 13.932C203.372 13.228 203.436 12.412 203.476 11.484C203.516 10.548 203.536 9.464 203.536 8.232H204.844C204.844 9.496 204.82 10.62 204.772 11.604C204.724 12.588 204.652 13.456 204.556 14.208C204.46 14.96 204.336 15.624 204.184 16.2C204.032 16.776 203.852 17.296 203.644 17.76C203.444 18.216 203.204 18.648 202.924 19.056ZM205.876 18.852C205.724 18.852 205.492 18.836 205.18 18.804C204.876 18.78 204.564 18.752 204.244 18.72L204.22 17.436C204.524 17.476 204.776 17.508 204.976 17.532C205.176 17.548 205.34 17.556 205.468 17.556C205.532 17.556 205.592 17.528 205.648 17.472C205.712 17.408 205.764 17.284 205.804 17.1C205.852 16.908 205.888 16.628 205.912 16.26C205.944 15.884 205.968 15.384 205.984 14.76C206 14.136 206.008 13.356 206.008 12.42V11.832H202.288V10.632H207.412V11.484C207.412 12.652 207.404 13.644 207.388 14.46C207.372 15.276 207.344 15.956 207.304 16.5C207.264 17.044 207.204 17.476 207.124 17.796C207.052 18.108 206.96 18.336 206.848 18.48C206.736 18.632 206.6 18.732 206.44 18.78C206.288 18.828 206.1 18.852 205.876 18.852ZM196.816 9.912L196.756 8.808C197.188 8.792 197.644 8.768 198.124 8.736C198.604 8.704 199.088 8.664 199.576 8.616C200.072 8.568 200.548 8.516 201.004 8.46C201.468 8.404 201.896 8.344 202.288 8.28L202.444 9.408C201.908 9.488 201.316 9.564 200.668 9.636C200.028 9.708 199.376 9.768 198.712 9.816C198.056 9.864 197.424 9.896 196.816 9.912ZM217.924 18.948C217.78 18.948 217.576 18.944 217.312 18.936C217.056 18.928 216.784 18.916 216.496 18.9C216.216 18.884 215.956 18.872 215.716 18.864L215.656 17.616C215.96 17.64 216.264 17.66 216.568 17.676C216.872 17.684 217.108 17.688 217.276 17.688C217.364 17.688 217.44 17.648 217.504 17.568C217.576 17.48 217.636 17.312 217.684 17.064C217.74 16.808 217.788 16.428 217.828 15.924C217.876 15.412 217.916 14.736 217.948 13.896C217.988 13.048 218.024 11.984 218.056 10.704H214.048V9.468H219.388C219.364 10.972 219.336 12.252 219.304 13.308C219.272 14.364 219.232 15.24 219.184 15.936C219.136 16.624 219.076 17.176 219.004 17.592C218.932 18 218.844 18.3 218.74 18.492C218.644 18.684 218.528 18.808 218.392 18.864C218.256 18.92 218.1 18.948 217.924 18.948ZM208.516 15.912L208.384 14.712C209.168 14.576 209.932 14.42 210.676 14.244C211.428 14.06 212.164 13.856 212.884 13.632L212.992 14.832C212.264 15.064 211.528 15.268 210.784 15.444C210.048 15.62 209.292 15.776 208.516 15.912ZM210.328 19.104V11.28H209.368V10.08H210.328V8.256H211.708V10.08H212.824V11.28H211.708V19.104H210.328ZM209.404 13.488L208.276 13.224C208.42 12.576 208.552 11.872 208.672 11.112C208.792 10.352 208.88 9.56 208.936 8.736L210.076 8.808C210.02 9.696 209.936 10.528 209.824 11.304C209.72 12.08 209.58 12.808 209.404 13.488ZM213.748 19.08L212.908 18.084C213.684 17.524 214.384 16.848 215.008 16.056C215.632 15.264 216.164 14.384 216.604 13.416C217.052 12.44 217.392 11.404 217.624 10.308L218.632 10.716C218.48 11.588 218.252 12.436 217.948 13.26C217.652 14.076 217.292 14.848 216.868 15.576C216.444 16.296 215.968 16.956 215.44 17.556C214.912 18.148 214.348 18.656 213.748 19.08ZM213.124 16.512L212.284 15.516C212.788 15.108 213.256 14.62 213.688 14.052C214.12 13.476 214.5 12.84 214.828 12.144C215.164 11.448 215.436 10.712 215.644 9.936L216.796 10.32C216.572 11.168 216.272 11.984 215.896 12.768C215.52 13.552 215.096 14.264 214.624 14.904C214.152 15.544 213.652 16.08 213.124 16.512ZM212.848 13.5L211.984 12.564C212.296 12.196 212.588 11.776 212.86 11.304C213.132 10.824 213.376 10.308 213.592 9.756C213.816 9.204 213.996 8.64 214.132 8.064L215.44 8.22C215.264 8.9 215.04 9.568 214.768 10.224C214.504 10.88 214.204 11.488 213.868 12.048C213.54 12.608 213.2 13.092 212.848 13.5ZM226.504 18.444C225.64 18.444 224.964 18.252 224.476 17.868C223.996 17.476 223.756 16.932 223.756 16.236C223.756 15.524 223.996 14.976 224.476 14.592C224.956 14.208 225.632 14.016 226.504 14.016C226.88 14.016 227.244 14.064 227.596 14.16C227.948 14.248 228.312 14.408 228.688 14.64C229.064 14.872 229.484 15.192 229.948 15.6C230.42 16 230.972 16.512 231.604 17.136L230.716 18.084C230.148 17.508 229.656 17.036 229.24 16.668C228.832 16.292 228.472 16 228.16 15.792C227.848 15.584 227.552 15.44 227.272 15.36C227 15.272 226.72 15.228 226.432 15.228C225.504 15.228 225.04 15.564 225.04 16.236C225.04 16.9 225.504 17.232 226.432 17.232C226.936 17.232 227.292 17.128 227.5 16.92C227.716 16.704 227.824 16.352 227.824 15.864V8.448H229.216V15.924C229.216 16.764 228.984 17.396 228.52 17.82C228.064 18.236 227.392 18.444 226.504 18.444ZM223.792 11.544V10.332H231.424V11.544H223.792ZM221.572 18.66C221.364 17.836 221.212 17.024 221.116 16.224C221.02 15.424 220.972 14.576 220.972 13.68C220.972 12.792 221.02 11.952 221.116 11.16C221.212 10.36 221.36 9.548 221.56 8.724L222.976 8.904C222.784 9.68 222.64 10.46 222.544 11.244C222.456 12.02 222.412 12.832 222.412 13.68C222.412 14.528 222.456 15.344 222.544 16.128C222.64 16.912 222.784 17.684 222.976 18.444L221.572 18.66ZM237.184 15.372C237.184 15.036 237.22 14.72 237.292 14.424C237.364 14.128 237.496 13.844 237.688 13.572C237.88 13.292 238.148 13.032 238.492 12.792C238.764 12.6 238.984 12.424 239.152 12.264C239.32 12.104 239.436 11.948 239.5 11.796C239.572 11.644 239.608 11.492 239.608 11.34C239.608 11.028 239.468 10.804 239.188 10.668C238.916 10.524 238.48 10.452 237.88 10.452C237.456 10.452 237.036 10.488 236.62 10.56C236.204 10.624 235.768 10.732 235.312 10.884L235 9.576C235.456 9.432 235.952 9.32 236.488 9.24C237.024 9.16 237.556 9.12 238.084 9.12C240.148 9.12 241.18 9.788 241.18 11.124C241.18 11.428 241.128 11.708 241.024 11.964C240.928 12.212 240.768 12.456 240.544 12.696C240.32 12.936 240.024 13.184 239.656 13.44C239.416 13.608 239.224 13.796 239.08 14.004C238.936 14.212 238.836 14.432 238.78 14.664C238.724 14.896 238.688 15.132 238.672 15.372H237.184ZM237.076 18V16.368H238.78V18H237.076Z" fill="white"/>
</g>
<g filter="url(#filter1_d_122_1158)">
<rect x="10" y="59.5526" width="91" height="29" transform="rotate(-15 10 59.5526)" fill="#128FCD" fill-opacity="0.2" shape-rendering="crispEdges"/>
<rect x="11.2247" y="60.2597" width="89" height="27" transform="rotate(-15 11.2247 60.2597)" stroke="#48BCCB" stroke-opacity="0.5" stroke-width="2" shape-rendering="crispEdges"/>
</g>
<path d="M23.7413 73.1557L22.2211 72.3041C23.4837 70.9167 24.6402 69.5246 25.6904 68.1279C26.7407 66.7311 27.7116 65.3059 28.6031 63.8523L30.2089 64.7141C29.3071 66.1705 28.3193 67.5946 27.2457 68.9866C26.1796 70.3655 25.0115 71.7552 23.7413 73.1557ZM22.3106 79.0053L20.989 77.968C21.5833 77.3008 22.1332 76.6123 22.6387 75.9026C23.1518 75.1799 23.6092 74.4555 24.011 73.7294L25.4611 74.5666C25.0827 75.2975 24.6243 76.0387 24.0858 76.7904C23.5473 77.542 22.9556 78.2803 22.3106 79.0053ZM27.3853 77.9768L25.7537 71.8876L27.6392 71.3824L29.2708 77.4716L27.3853 77.9768ZM20.0788 74.3855L19.6059 72.8061L32.1083 68.9591L32.5812 70.5386L20.0788 74.3855ZM24.1879 70.8661C23.7252 70.5815 23.2091 70.2835 22.6399 69.9723C22.0809 69.6582 21.5181 69.3508 20.9516 69.0498C20.3823 68.7385 19.8536 68.455 19.3654 68.1993L20.2788 66.6626C20.7903 66.9231 21.3242 67.2052 21.8804 67.5089C22.4366 67.8126 22.9891 68.1229 23.5378 68.4396C24.094 68.7434 24.6152 69.0399 25.1013 69.3293L24.1879 70.8661ZM34.0954 75.8807C33.2862 75.457 32.4684 75.0633 31.6421 74.6994C30.8233 74.3225 29.9866 73.9614 29.1322 73.6161L29.8322 72.0868C30.7334 72.4416 31.6051 72.8099 32.4473 73.1916C33.2867 73.563 34.0914 73.9492 34.8614 74.3503L34.0954 75.8807ZM22.5708 69.0963L21.1463 68.1694C21.7542 67.3881 22.317 66.6244 22.8349 65.8783C23.3603 65.1191 23.8544 64.3462 24.3173 63.5596L25.7715 64.4123C25.3011 65.2119 24.7995 65.9979 24.2665 66.7701C23.7439 67.5396 23.1786 68.315 22.5708 69.0963ZM33.001 71.7346C32.6557 71.3523 32.2749 70.9409 31.8586 70.5003C31.4424 70.0596 31.021 69.6204 30.5945 69.1825C30.168 68.7447 29.76 68.335 29.3707 67.9534L30.6978 66.7862C31.0844 67.1574 31.4872 67.5685 31.9062 68.0194C32.3327 68.4573 32.7554 68.9017 33.1744 69.3526C33.5907 69.7932 33.9715 70.2047 34.3168 70.587L33.001 71.7346ZM44.0566 69.7828C43.7363 68.5876 43.4116 67.6642 43.0824 67.0125C42.7607 66.3478 42.395 65.9102 41.9852 65.6997C41.5858 65.4865 41.1027 65.4558 40.536 65.6077C40.0415 65.7402 39.5941 65.9871 39.194 66.3483C38.8041 66.7067 38.4478 67.2108 38.1249 67.8605C37.8096 68.4971 37.4949 69.3213 37.1807 70.3331L35.4342 69.8735C35.7368 68.9421 35.9942 68.0891 36.2062 67.3145C36.4286 66.5371 36.6139 65.7862 36.7621 65.0618C36.9179 64.3244 37.04 63.5849 37.1285 62.8434C37.2244 62.0889 37.2949 61.2804 37.3399 60.4181L39.2423 60.223C39.1796 61.2668 39.0771 62.244 38.9345 63.1546C38.7893 64.0549 38.6065 64.9596 38.3864 65.8689L37.9029 65.7335C38.2789 65.3235 38.7052 64.9774 39.1817 64.6951C39.6657 64.3998 40.1705 64.1817 40.696 64.0409C41.5511 63.8118 42.2915 63.8342 42.9171 64.1083C43.553 64.3797 44.1123 64.9421 44.5949 65.7956C45.0749 66.6387 45.5136 67.8022 45.9111 69.2858L44.0566 69.7828ZM44.7427 72.9615C43.156 73.3866 41.8496 73.4772 40.8234 73.2331C39.8 72.9994 39.1738 72.4549 38.9446 71.5997C38.7845 71.0021 38.8538 70.3541 39.1526 69.6557C39.4486 68.9469 39.9551 68.2204 40.6722 67.4761C41.3997 66.729 42.3081 65.9776 43.3977 65.2219C44.4975 64.4634 45.7671 63.7201 47.2064 62.9921L47.8904 64.4322C46.6949 65.0396 45.6326 65.65 44.7037 66.2633C43.7851 66.8739 43.0111 67.4678 42.3817 68.045C41.7599 68.6092 41.3057 69.1395 41.0191 69.6359C40.7324 70.1323 40.6388 70.566 40.7382 70.9369C40.8542 71.3697 41.2235 71.6351 41.8461 71.7333C42.4763 71.8185 43.3117 71.7216 44.3523 71.4428C44.9911 71.2716 45.691 71.0399 46.4519 70.7477C47.2101 70.4451 48.0205 70.09 48.883 69.6822L49.5444 71.1614C49.0438 71.3949 48.5095 71.6264 47.9415 71.8559C47.3736 72.0854 46.8118 72.2967 46.2561 72.4897C45.7108 72.68 45.2063 72.8373 44.7427 72.9615ZM34.0685 64.591L33.6751 63.1227L45.9926 59.8223L46.386 61.2905L34.0685 64.591ZM56.2703 70.2371L55.2885 68.8603C55.8859 68.5346 56.3943 68.2272 56.8138 67.9381C57.2436 67.6462 57.593 67.3428 57.8619 67.0278C58.1309 66.7128 58.3294 66.3614 58.4574 65.9738C58.5854 65.5861 58.6426 65.1401 58.629 64.6358C58.6229 64.1184 58.5558 63.5179 58.4279 62.8344C58.2972 62.1406 58.1104 61.3404 57.8674 60.4337L57.1966 57.93L53.1165 59.0233L52.7065 57.4932L56.7866 56.4L56.4719 55.2254L58.311 54.7326L58.6257 55.9072L62.9531 54.7477L63.3631 56.2777L59.0357 57.4372L59.7066 59.9409C60.0378 61.1773 60.2669 62.2588 60.3938 63.1856C60.5309 64.1096 60.5498 64.9217 60.4503 65.622C60.348 66.3119 60.1306 66.9224 59.798 67.4532C59.4654 67.984 59.0053 68.4717 58.4177 68.9163C57.8431 69.3684 57.1273 69.8087 56.2703 70.2371ZM53.5031 71.1608L50.7534 60.8988L52.4998 60.4308L55.2495 70.6928L53.5031 71.1608ZM50.9959 66.3166L49.7908 64.3536C50.0785 63.614 50.3012 62.8586 50.459 62.0875C50.6244 61.3033 50.7309 60.4852 50.7787 59.6331C50.834 58.768 50.8288 57.8418 50.763 56.8545L52.5458 56.7081C52.6515 57.7619 52.6802 58.7757 52.6319 59.7494C52.5809 60.7128 52.4614 61.6062 52.2734 62.4295L52.1163 62.0906C52.0934 62.417 52.045 62.7723 51.9712 63.1565C51.905 63.5276 51.8196 63.9094 51.715 64.3019C51.6075 64.684 51.4908 65.0521 51.3648 65.4061C51.2464 65.7471 51.1234 66.0506 50.9959 66.3166ZM66.2387 67.5661C64.066 68.0709 62.0649 68.1654 60.2355 67.8495C58.4163 67.5308 56.8867 66.8087 55.6465 65.6834L56.8519 64.4328C57.5693 65.0909 58.3693 65.5832 59.252 65.9099C60.1346 66.2366 61.1349 66.4048 62.2528 66.4145C63.3783 66.411 64.6434 66.2487 66.0481 65.9276L66.2387 67.5661ZM63.0256 63.673L62.7854 62.7766L56.5262 64.4538L56.1535 63.0629L62.4127 61.3857L61.7957 59.0829L55.5365 60.7601L56.5262 64.4538L54.8416 64.9052L53.4792 59.8205L63.1539 57.2282L64.7565 63.2092L63.0256 63.673ZM70.8851 63.4554C72.4409 63.0386 73.6754 62.5973 74.5887 62.1318C75.5095 61.6531 76.1359 61.1264 76.4677 60.5516C76.7996 59.9768 76.8703 59.3339 76.6798 58.623C76.4672 57.8296 76.0458 57.3076 75.4154 57.0569C74.7953 56.8034 73.9547 56.8188 72.8934 57.1032C72.471 57.2164 72.017 57.3767 71.5315 57.5841C71.0432 57.7812 70.4873 58.035 69.8638 58.3456C69.2506 58.6535 68.5416 59.0367 67.7369 59.4953L66.9135 57.8442C68.1391 57.1845 69.2118 56.6541 70.1313 56.2531C71.0481 55.8418 71.8516 55.5437 72.542 55.3587C74.1184 54.9363 75.4201 54.9519 76.4472 55.4056C77.4742 55.8592 78.1575 56.7197 78.4971 57.987C78.9278 59.5943 78.5478 60.9991 77.3571 62.2016C76.1767 63.4013 74.2059 64.3711 71.4447 65.111L70.8851 63.4554ZM92.9324 59.6847C91.6857 60.0187 90.5421 60.0988 89.5016 59.9248C88.4715 59.7481 87.6004 59.341 86.8885 58.7035C86.1738 58.0558 85.6757 57.2064 85.3941 56.1555C85.1732 55.3312 85.1197 54.5339 85.2336 53.7635C85.3549 52.9801 85.6234 52.2511 86.039 51.5766C86.4621 50.8889 87.0227 50.3025 87.7209 49.8173L88.0039 50.255L80.6929 52.3961L80.2498 50.7425L93.1954 46.9424L93.6385 48.5961L91.6882 49.1684C90.89 49.4043 90.1762 49.7281 89.5466 50.1397C88.9273 50.5486 88.4167 51.0333 88.0147 51.5938C87.6128 52.1542 87.3448 52.7616 87.211 53.4159C87.0846 54.0571 87.1167 54.7332 87.3072 55.4441C87.5115 56.2065 87.8582 56.8204 88.3472 57.2857C88.8336 57.7406 89.4245 58.0295 90.12 58.1524C90.8258 58.2725 91.6166 58.2152 92.4923 57.9805C92.7808 57.9032 93.1064 57.7994 93.469 57.6691C93.8419 57.5361 94.1606 57.4065 94.425 57.2804L95.0814 58.9266C94.7655 59.0665 94.4108 59.2057 94.0173 59.3443C93.634 59.4801 93.2724 59.5936 92.9324 59.6847Z" fill="white"/>
<g filter="url(#filter2_d_122_1158)">
<rect x="205.506" y="36" width="91" height="29" transform="rotate(15 205.506 36)" fill="#128FCD" fill-opacity="0.2" shape-rendering="crispEdges"/>
<rect x="206.213" y="37.2247" width="89" height="27" transform="rotate(15 206.213 37.2247)" stroke="#48BCCB" stroke-opacity="0.5" stroke-width="2" shape-rendering="crispEdges"/>
</g>
<path d="M214.572 60.7996L216.883 52.1758L228.134 55.1905L227.194 58.6988L217.797 56.181L218.124 54.96L225.666 56.9809L225.931 55.9918L218.389 53.9709L217.532 57.1701L227.701 59.8949L227.345 61.224L217.176 58.4992L216.426 61.2965L214.572 60.7996ZM213.017 61.1615L213.228 59.6942C214.492 59.9224 215.792 60.1215 217.126 60.2914C218.464 60.4511 219.822 60.5774 221.199 60.6704L220.984 62.1533C220.061 62.0938 219.149 62.0151 218.248 61.9171C217.344 61.8294 216.457 61.7188 215.587 61.5851C214.728 61.4542 213.871 61.313 213.017 61.1615ZM224.95 64.4749C224.363 64.3176 223.829 64.0033 223.348 63.532C222.867 63.0608 222.465 62.4564 222.144 61.7187C221.833 60.9838 221.632 60.146 221.542 59.2053C221.462 58.2673 221.524 57.2515 221.729 56.1579L223.537 56.6424C223.395 57.4214 223.35 58.1658 223.403 58.8756C223.455 59.5855 223.573 60.2188 223.755 60.7755C223.937 61.3323 224.159 61.7837 224.419 62.1296C224.68 62.4755 224.944 62.6844 225.212 62.7561C225.294 62.7782 225.441 62.6849 225.651 62.4763C225.875 62.2602 226.12 61.9007 226.388 61.3981L227.826 62.3965C227.403 63.2768 226.938 63.8758 226.434 64.1933C225.939 64.5136 225.445 64.6075 224.95 64.4749ZM216.315 51.3279L217.263 47.7888L229.998 51.201L229.049 54.7402L217.984 51.7752L218.311 50.5542L227.708 53.072L227.973 52.0829L225.963 51.5446L225.698 52.5337L224.06 52.0947L224.325 51.1056L222.223 50.5424L221.958 51.5315L220.32 51.0926L220.585 50.1035L218.576 49.5651L217.984 51.7752L216.315 51.3279ZM237.611 63.9583C237.932 62.7631 238.112 61.801 238.153 61.0721C238.207 60.3356 238.109 59.7737 237.859 59.3866C237.62 59.0022 237.217 58.7341 236.65 58.5823C236.156 58.4498 235.645 58.4399 235.118 58.5526C234.601 58.6681 234.04 58.9265 233.436 59.3277C232.844 59.7214 232.16 60.2778 231.382 60.997L230.099 59.7257C230.827 59.0704 231.476 58.4603 232.047 57.8955C232.628 57.3335 233.164 56.7758 233.655 56.2226C234.158 55.6619 234.634 55.0825 235.081 54.4846C235.542 53.8791 236.007 53.2142 236.477 52.4899L238.222 53.2722C237.646 54.1448 237.068 54.9398 236.49 55.6571C235.914 56.3641 235.303 57.0563 234.658 57.7337L234.307 57.3747C234.837 57.2076 235.38 57.121 235.933 57.1148C236.5 57.1011 237.046 57.1646 237.572 57.3054C238.427 57.5345 239.057 57.9242 239.462 58.4743C239.877 59.0273 240.08 59.794 240.071 60.7745C240.065 61.7446 239.864 62.9716 239.466 64.4552L237.611 63.9583ZM236.616 67.0542C235.03 66.629 233.853 66.0543 233.086 65.3298C232.317 64.6157 232.047 63.831 232.276 62.9759C232.436 62.3783 232.82 61.8517 233.428 61.3962C234.039 60.9304 234.841 60.5545 235.834 60.2685C236.837 59.9852 238 59.7887 239.321 59.679C240.653 59.572 242.124 59.5631 243.735 59.6523L243.607 61.2415C242.268 61.1698 241.043 61.1673 239.932 61.234C238.831 61.3034 237.864 61.4307 237.03 61.6159C236.209 61.7936 235.551 62.0258 235.054 62.3124C234.558 62.599 234.26 62.9277 234.161 63.2987C234.045 63.7314 234.232 64.1459 234.722 64.5423C235.225 64.9311 235.997 65.2649 237.037 65.5438C237.676 65.7149 238.398 65.8642 239.203 65.9916C240.011 66.1087 240.891 66.2063 241.842 66.2844L241.675 67.8961C241.124 67.848 240.546 67.7814 239.939 67.6962C239.333 67.6109 238.741 67.513 238.163 67.4024C237.595 67.2945 237.08 67.1784 236.616 67.0542ZM231.557 54.468L231.951 52.9998L244.268 56.3003L243.875 57.7685L231.557 54.468ZM251.641 71.6266L254.622 60.4992L253.587 60.2217L253.997 58.6917L261.492 60.7001L261.082 62.2302L256.554 61.0168L255.921 63.3814L259.985 64.4705L259.571 66.016L255.506 64.9269L254.856 67.3533L258.921 68.4424L258.499 70.0188L254.434 68.9297L253.573 72.1443L251.641 71.6266ZM245.536 69.9909L248.232 59.9298L250.117 60.435L247.422 70.4961L245.536 69.9909ZM245.786 64.3597L245.478 62.3558C246.198 61.853 246.858 61.3065 247.458 60.7163C248.061 60.1158 248.619 59.4538 249.133 58.7302C249.65 57.9963 250.137 57.1882 250.594 56.3058L252.226 57.1405C251.775 58.0799 251.276 58.9344 250.727 59.704C250.179 60.4736 249.588 61.1545 248.954 61.7467L249.017 61.2665C248.823 61.5349 248.593 61.8157 248.327 62.1087C248.074 62.3943 247.799 62.6794 247.502 62.9642C247.218 63.2415 246.927 63.5005 246.631 63.7413C246.334 63.9821 246.053 64.1883 245.786 64.3597ZM250.942 64.0351L249.772 62.5289C250.644 61.7466 251.46 60.9052 252.22 60.0047C252.994 59.0966 253.697 58.142 254.33 57.141L255.996 57.9685C255.312 59.0774 254.539 60.1511 253.675 61.1896C252.815 62.2178 251.903 63.1663 250.942 64.0351ZM266.103 75.0214C264.578 74.6128 263.459 74.048 262.747 73.3271C262.045 72.6089 261.814 71.8017 262.054 70.9053C262.259 70.1428 262.732 69.6346 263.473 69.3806C264.228 69.119 265.162 69.1373 266.274 69.4355C267.325 69.7171 268.061 70.124 268.482 70.6563C268.905 71.1784 269.013 71.8257 268.806 72.5985C268.732 72.8767 268.61 73.1644 268.442 73.4617C268.285 73.7618 268.088 74.0625 267.853 74.3639L266.202 73.7229C266.44 73.4112 266.624 73.14 266.752 72.9093C266.89 72.6814 266.984 72.4747 267.034 72.2892C267.221 71.5886 266.8 71.1003 265.77 70.8242C265.244 70.6834 264.809 70.6605 264.463 70.7556C264.13 70.8432 263.921 71.0466 263.836 71.366C263.72 71.7988 263.88 72.2116 264.316 72.6044C264.754 72.987 265.406 73.2942 266.272 73.5261C267.93 73.9706 269.227 74.0584 270.16 73.7895C271.106 73.513 271.715 72.8699 271.986 71.8602C272.215 71.005 272.064 70.291 271.533 69.718C271.012 69.1477 270.061 68.6777 268.68 68.3077C267.887 68.0951 267.167 67.9795 266.521 67.9609C265.877 67.932 265.259 67.9927 264.666 68.1432L262.311 68.7711L261.951 67.1505L272.037 64.6189L271.959 64.9126L264.092 62.8047L264.511 61.2438L275.082 64.0763L274.663 65.6373L266.007 67.7737L265.26 66.7288C265.61 66.701 265.993 66.6933 266.41 66.7054C266.839 66.7101 267.268 66.7367 267.697 66.7853C268.139 66.8264 268.561 66.8788 268.963 66.9424C269.369 66.9958 269.731 67.0653 270.05 67.1509C271.617 67.5705 272.728 68.2219 273.386 69.1049C274.044 69.9879 274.21 71.0373 273.885 72.2531C273.495 73.7059 272.624 74.6705 271.27 75.1471C269.927 75.6265 268.205 75.5846 266.103 75.0214Z" fill="white"/>
<g filter="url(#filter3_d_122_1158)">
<rect x="6" y="157.347" width="91" height="29" transform="rotate(-45 6 157.347)" fill="#128FCD" fill-opacity="0.2" shape-rendering="crispEdges"/>
<rect x="7.41421" y="157.347" width="89" height="27" transform="rotate(-45 7.41421 157.347)" stroke="#48BCCB" stroke-opacity="0.5" stroke-width="2" shape-rendering="crispEdges"/>
</g>
<path d="M31.558 163.569L21.7491 153.76L26.3085 149.201L32.8704 155.763C33.2702 156.163 33.5757 156.498 33.7868 156.77C33.9905 157.034 34.0999 157.271 34.1149 157.482C34.13 157.694 34.0546 157.92 33.8887 158.161C33.7227 158.388 33.4663 158.674 33.1193 159.021C33.0665 159.074 32.9798 159.161 32.8591 159.281C32.7309 159.394 32.5838 159.526 32.4179 159.677C32.2519 159.828 32.086 159.979 31.9201 160.13L30.6416 159.032C30.7849 158.904 30.932 158.772 31.0829 158.636C31.2337 158.486 31.3695 158.357 31.4902 158.252C31.6108 158.131 31.6863 158.056 31.7164 158.026C31.8673 157.875 31.9653 157.762 32.0106 157.686C32.0634 157.603 32.0558 157.52 31.988 157.437C31.9201 157.339 31.7919 157.196 31.6033 157.007L26.184 151.588L24.1362 153.636L32.8139 162.313L31.558 163.569ZM23.8195 167.054L22.3826 166.137C22.7069 165.587 23.0275 165.01 23.3443 164.406C23.6686 163.796 23.9816 163.173 24.2833 162.54C24.5926 161.899 24.8867 161.25 25.1658 160.594L26.3764 161.578C26.1501 162.181 25.9012 162.792 25.6297 163.411C25.3581 164.029 25.0715 164.648 24.7698 165.266C24.4681 165.87 24.1513 166.466 23.8195 167.054ZM27.0326 168.434L25.245 168.072C25.6825 167.227 25.9955 166.469 26.184 165.798C26.365 165.119 26.4028 164.478 26.2972 163.875C26.184 163.264 25.9238 162.649 25.5165 162.031C25.1168 161.405 24.5549 160.73 23.8308 160.005L21.1947 157.369L22.4392 156.125L25.2676 158.953C26.0822 159.768 26.7233 160.552 27.1909 161.307C27.6586 162.046 27.9565 162.789 28.0847 163.535C28.2205 164.274 28.1941 165.048 28.0055 165.855C27.8245 166.654 27.5002 167.514 27.0326 168.434ZM23.2538 165.832L16.8728 159.451L18.1287 158.195L24.5096 164.576L23.2538 165.832ZM23.8987 161.68C23.2802 161.423 22.6315 161.197 21.9527 161.001C21.2663 160.797 20.5988 160.628 19.9502 160.492L20.414 158.987C21.0702 159.131 21.7415 159.304 22.4279 159.508C23.1218 159.704 23.778 159.93 24.3965 160.186L23.8987 161.68ZM18.3323 160.254L16.8728 159.451C17.2726 158.931 17.6723 158.395 18.0721 157.845C18.4719 157.279 18.8603 156.702 19.2374 156.114C19.6221 155.518 19.9917 154.922 20.3462 154.326L21.8056 155.107C21.2776 156.027 20.7195 156.924 20.1312 157.799C19.5429 158.659 18.9433 159.477 18.3323 160.254ZM30.2683 157.12C29.4989 156.789 28.6881 156.483 27.8358 156.204C26.9835 155.91 26.1576 155.665 25.3581 155.469L25.7767 153.941C26.5762 154.137 27.4059 154.379 28.2658 154.665C29.1331 154.944 29.9515 155.257 30.7208 155.604L30.2683 157.12ZM40.609 149.178C39.7341 148.303 38.9911 147.666 38.3802 147.266C37.7693 146.851 37.2337 146.655 36.7737 146.678C36.3211 146.693 35.8874 146.908 35.4726 147.323C35.1105 147.685 34.8466 148.122 34.6806 148.635C34.5222 149.14 34.4657 149.755 34.5109 150.479C34.5562 151.188 34.6957 152.059 34.9295 153.093L33.1872 153.568C32.9836 152.61 32.7799 151.743 32.5763 150.966C32.3802 150.181 32.1652 149.438 31.9314 148.737C31.6976 148.02 31.4336 147.319 31.1394 146.633C30.8453 145.931 30.5021 145.196 30.1099 144.426L31.6599 143.306C32.1275 144.242 32.5272 145.139 32.8591 145.999C33.1834 146.851 33.4776 147.726 33.7416 148.624L33.2551 148.748C33.3758 148.205 33.5719 147.692 33.8434 147.21C34.1149 146.712 34.443 146.271 34.8277 145.886C35.4537 145.26 36.1062 144.909 36.785 144.834C37.4713 144.751 38.2369 144.958 39.0817 145.456C39.9189 145.946 40.8805 146.734 41.9667 147.821L40.609 149.178ZM42.7926 151.588C41.631 152.75 40.5449 153.481 39.5342 153.783C38.5311 154.092 37.7165 153.934 37.0904 153.308C36.653 152.87 36.389 152.274 36.2985 151.52C36.2004 150.758 36.2759 149.876 36.5248 148.873C36.7812 147.862 37.1923 146.757 37.758 145.558C38.3312 144.351 39.059 143.073 39.9415 141.722L41.2539 142.628C40.5223 143.751 39.9076 144.811 39.4098 145.807C38.9195 146.795 38.5461 147.696 38.2897 148.511C38.0333 149.31 37.905 149.997 37.905 150.57C37.905 151.143 38.0408 151.565 38.3123 151.837C38.6291 152.154 39.0817 152.199 39.67 151.973C40.2583 151.731 40.9333 151.23 41.6951 150.468C42.1628 150 42.653 149.45 43.1659 148.816C43.6713 148.175 44.1955 147.462 44.7385 146.678L46.0509 147.628C45.7341 148.081 45.3872 148.548 45.01 149.031C44.6329 149.514 44.252 149.978 43.8674 150.423C43.4902 150.86 43.132 151.249 42.7926 151.588ZM29.3632 149.676L28.2884 148.601L37.3054 139.584L38.3802 140.659L29.3632 149.676ZM49.3319 145.818L47.2728 145.728C47.1068 145.245 46.9032 144.777 46.6618 144.325C46.4205 143.857 46.1226 143.378 45.7681 142.888C45.4136 142.398 44.9912 141.877 44.5009 141.326C44.0182 140.768 43.445 140.157 42.7812 139.494L41.8988 138.611L51.3231 129.187L52.3979 130.262L44.286 138.374L45.0214 139.109C45.6021 139.69 46.1301 140.271 46.6053 140.851C47.0804 141.417 47.4953 141.983 47.8498 142.548C48.2043 143.099 48.506 143.65 48.7549 144.2C48.9962 144.743 49.1886 145.283 49.3319 145.818ZM48.4947 141.496L46.775 141.79C46.7599 141.051 46.6543 140.289 46.4582 139.505C46.2621 138.705 45.9906 137.951 45.6436 137.242L47.0691 136.315C47.484 137.122 47.8121 137.978 48.0534 138.883C48.3023 139.78 48.4494 140.651 48.4947 141.496ZM50.0673 144.607L48.9472 143.487L52.8052 139.629L51.7643 138.589L49.3771 140.976L48.3702 139.969L50.7574 137.582L49.8636 136.688L47.3746 139.177L46.3451 138.147L48.8341 135.658L48.1213 134.946L49.4903 133.577L50.203 134.289L53.122 131.37L54.1515 132.4L51.2326 135.319L52.1264 136.213L54.6946 133.644L55.7015 134.651L53.1333 137.22L54.1741 138.26L57.4551 134.98L58.5752 136.1L50.0673 144.607ZM44.8516 137.039C44.4066 136.79 43.9465 136.541 43.4714 136.292C43.0037 136.035 42.5437 135.802 42.0911 135.59L43.1093 133.961C43.5694 134.18 44.0333 134.418 44.5009 134.674C44.961 134.923 45.4211 135.179 45.8812 135.443L44.8516 137.039ZM40.7108 137.582L39.636 136.507L43.5845 132.558L42.5776 131.551L43.9692 130.16L44.9761 131.167L48.9133 127.23L49.9881 128.304L40.7108 137.582ZM49.4563 132.728L47.8385 133.531C47.7027 133.049 47.533 132.547 47.3293 132.027C47.1257 131.491 46.8919 130.963 46.6279 130.443L48.2458 129.481C48.5022 130.024 48.736 130.575 48.9472 131.133C49.1584 131.676 49.3281 132.208 49.4563 132.728ZM65.3181 129.017C64.5941 129.741 63.9756 130.322 63.4627 130.759C62.9649 131.197 62.5425 131.514 62.1956 131.71C61.8486 131.906 61.5469 131.989 61.2905 131.959C61.0416 131.936 60.8115 131.819 60.6003 131.608C60.4947 131.502 60.4005 131.386 60.3175 131.257C60.227 131.122 60.1289 130.941 60.0233 130.714C59.88 130.435 59.7405 130.19 59.6047 129.979C59.469 129.768 59.337 129.59 59.2087 129.447L59.6726 129.051C59.7556 129.36 59.748 129.67 59.65 129.979C59.5444 130.281 59.3483 130.575 59.0617 130.861C58.5035 131.419 57.87 131.653 57.161 131.563C56.452 131.472 55.7317 131.061 55 130.33C54.2533 129.583 53.8385 128.859 53.7555 128.157C53.6801 127.448 53.9328 126.803 54.5136 126.223C54.8153 125.921 55.166 125.691 55.5657 125.533C55.9655 125.374 56.4105 125.284 56.9007 125.261L56.4595 126.223L52.5223 122.286L53.846 120.962L59.2201 126.336C59.6575 126.773 60.0045 127.181 60.2609 127.558C60.5174 127.92 60.7474 128.286 60.9511 128.655C61.0491 128.829 61.1396 128.987 61.2226 129.13C61.298 129.266 61.3734 129.372 61.4489 129.447C61.5846 129.583 61.7506 129.628 61.9467 129.583C62.1428 129.538 62.4105 129.375 62.7499 129.096C63.0818 128.81 63.5344 128.38 64.1076 127.807C64.6129 127.301 65.0127 126.871 65.3068 126.517C65.6085 126.155 65.8159 125.849 65.9291 125.6C66.0498 125.344 66.0837 125.114 66.0309 124.91C65.9857 124.699 65.8725 124.503 65.6915 124.322C65.5784 124.209 65.4313 124.084 65.2503 123.949C65.0768 123.805 64.8581 123.647 64.5941 123.473C64.3301 123.3 64.0208 123.104 63.6663 122.885C63.3118 122.651 62.897 122.387 62.4218 122.093L63.4061 120.588C63.9869 120.943 64.4885 121.256 64.9109 121.528C65.3408 121.791 65.7104 122.033 66.0196 122.252C66.3288 122.455 66.5928 122.644 66.8116 122.817C67.0303 122.991 67.2151 123.153 67.3659 123.304C67.728 123.666 67.9656 124.032 68.0787 124.401C68.1918 124.756 68.1692 125.148 68.0108 125.578C67.86 126 67.562 126.487 67.117 127.037C66.6796 127.595 66.0799 128.255 65.3181 129.017ZM58.2923 129.504C58.5865 129.21 58.6996 128.9 58.6317 128.576C58.5639 128.252 58.3112 127.871 57.8737 127.433C57.4438 127.003 57.0667 126.754 56.7424 126.687C56.418 126.619 56.1088 126.732 55.8146 127.026C55.5129 127.328 55.3847 127.66 55.43 128.022C55.4752 128.384 55.7053 128.772 56.1201 129.187C56.5349 129.602 56.9271 129.836 57.2967 129.888C57.6588 129.934 57.9906 129.805 58.2923 129.504ZM52.33 127.275L51.1873 126.132L57.523 119.797L58.6657 120.939L52.33 127.275ZM63.4514 119.095C62.6821 119.17 61.8939 119.295 61.0868 119.468C60.2873 119.634 59.5482 119.838 58.8693 120.079L58.5186 118.348C59.1899 118.115 59.9328 117.915 60.7474 117.749C61.5545 117.575 62.3502 117.451 63.1346 117.375L63.4514 119.095ZM75.9191 118.348C74.5086 119.759 73.2189 120.611 72.0498 120.905C70.8732 121.192 69.8587 120.909 69.0064 120.057C68.2899 119.34 67.9052 118.42 67.8524 117.296C67.7921 116.165 68.0749 114.781 68.7009 113.144C69.3345 111.5 70.3188 109.558 71.6538 107.317L73.1812 108.211C72.0498 110.112 71.1937 111.752 70.613 113.133C70.0397 114.505 69.7305 115.637 69.6852 116.527C69.64 117.402 69.8549 118.077 70.3301 118.552C71.3106 119.533 72.7927 119.031 74.7764 117.047C75.1007 116.723 75.4251 116.368 75.7494 115.984C76.0737 115.599 76.4282 115.162 76.8129 114.671C77.1975 114.166 77.6275 113.585 78.1026 112.929L79.4829 113.993C78.8871 114.83 78.2874 115.618 77.684 116.357C77.0957 117.096 76.5074 117.76 75.9191 118.348ZM68.7123 115.441C67.7544 114.92 66.8455 114.381 65.9857 113.823C65.1183 113.257 64.2886 112.669 63.4966 112.058L64.662 110.485C65.4615 111.089 66.2874 111.666 67.1397 112.216C67.9844 112.759 68.8556 113.269 69.7531 113.744L68.7123 115.441Z" fill="white"/>
<g filter="url(#filter4_d_122_1158)">
<rect x="133.5" y="46" width="91" height="29" transform="rotate(30 133.5 46)" fill="#128FCD" fill-opacity="0.2" shape-rendering="crispEdges"/>
<rect x="133.866" y="47.366" width="89" height="27" transform="rotate(30 133.866 47.366)" stroke="#48BCCB" stroke-opacity="0.5" stroke-width="2" shape-rendering="crispEdges"/>
</g>
<path d="M129.061 69.3853L132.973 62.6095L131.046 61.4975L131.814 60.1673L133.754 61.2873L136.306 56.8671L137.803 57.7311L135.251 62.1513L136.983 63.1513L136.215 64.4815L134.497 63.4895L130.585 70.2653L129.061 69.3853ZM128.44 67.0686L128.574 65.0766C129.569 64.6537 130.471 64.1583 131.279 63.5903C132.097 63.0277 132.851 62.3728 133.541 61.6257L134.043 62.4516C133.513 63.1557 132.939 63.8094 132.32 64.4126C131.706 65.0066 131.065 65.5296 130.397 65.9818C129.744 66.43 129.092 66.7923 128.44 67.0686ZM133.218 67.7209C133.314 66.8283 133.404 65.9376 133.486 65.0489C133.582 64.1563 133.673 63.2418 133.758 62.3054L135.03 62.3746C134.998 63.2186 134.959 64.0645 134.913 64.9124C134.872 65.751 134.822 66.5962 134.761 67.448L133.218 67.7209ZM132.634 60.2523C132.828 59.638 133.016 59.0137 133.198 58.3794C133.388 57.7505 133.552 57.1678 133.69 56.6312L135.143 57.0267C135.005 57.5632 134.841 58.146 134.651 58.7749C134.465 59.3946 134.259 60.0082 134.031 60.6158L132.634 60.2523ZM133.283 69.1442L133.96 67.6508L142.924 70.8124L142.247 72.3058L133.283 69.1442ZM137.941 68.2123C137.8 67.5396 137.634 66.8343 137.444 66.0965C137.26 65.3495 137.047 64.5865 136.807 63.8074L138.502 63.4002C138.747 64.17 138.97 64.9265 139.169 65.6696C139.368 66.4127 139.533 67.1179 139.665 67.7854L137.941 68.2123ZM136.686 62.6102L135.69 61.5182C136.145 61.1154 136.599 60.6696 137.054 60.1807C137.523 59.688 137.938 59.2136 138.3 58.7574L139.491 59.7034C139.089 60.1858 138.641 60.6846 138.147 61.1997C137.657 61.7056 137.171 62.1758 136.686 62.6102ZM137.264 74.1213L144.496 61.5951L146.117 62.5311L138.885 75.0573L137.264 74.1213ZM140.735 65.1328C140.605 64.5037 140.455 63.8568 140.285 63.1918C140.124 62.5322 139.933 61.8494 139.713 61.1432L141.413 60.7578C141.639 61.4547 141.837 62.1357 142.007 62.8006C142.183 63.4563 142.338 64.094 142.473 64.7138L140.735 65.1328ZM144.742 77.9035L145.518 76.5594L149.551 78.8874L150.351 77.5018L147.136 75.6458L147.864 74.3848L151.079 76.2408L153.391 72.2363L151.742 71.2843L152.398 70.1481L154.047 71.1001L154.871 69.6729L156.52 70.6249L155.696 72.0521L157.344 73.0041L158.168 71.5769L153.222 68.7209L150.166 74.0141L148.642 73.1341L152.45 66.5384L160.445 71.1544L156.637 77.7501L150.166 74.0141L150.878 72.7808L155.824 75.6368L156.688 74.1403L155.04 73.1883L152.728 77.1928L156.109 79.1448L155.381 80.4058L152 78.4538L151.2 79.8394L154.774 81.9034L153.998 83.2475L144.742 77.9035ZM141.772 75.0801L142.436 73.5788C142.91 73.7171 143.408 73.857 143.93 73.9982C144.467 74.1355 145.004 74.261 145.542 74.3745C146.095 74.4841 146.633 74.5858 147.158 74.6794L146.408 76.0752C145.896 76.0015 145.368 75.9124 144.825 75.8082C144.282 75.7039 143.751 75.5884 143.233 75.4617C142.715 75.335 142.228 75.2078 141.772 75.0801ZM143.707 74.2572L145.843 70.5575L144.804 69.9575L145.628 68.5303L146.667 69.1303L148.147 66.5669L146.969 65.8869L147.809 64.432L151.772 66.72L150.932 68.1749L149.726 67.4789L148.246 70.0423L149.369 70.6903L148.545 72.1175L147.422 71.4695L145.286 75.1692L143.707 74.2572ZM164.204 85.3152C164.823 84.2437 165.246 83.3611 165.474 82.6675C165.716 81.97 165.767 81.402 165.626 80.9634C165.495 80.5302 165.175 80.1669 164.667 79.8736C164.223 79.6176 163.732 79.4758 163.194 79.4483C162.665 79.4261 162.057 79.5305 161.369 79.7617C160.696 79.9889 159.89 80.3491 158.953 80.8424L158.043 79.2825C158.915 78.8378 159.701 78.4166 160.398 78.0188C161.105 77.6264 161.767 77.2265 162.384 76.8191C163.016 76.4078 163.625 75.9712 164.212 75.5095C164.813 75.0438 165.435 74.522 166.076 73.944L167.559 75.1513C166.777 75.845 166.014 76.4635 165.269 77.0066C164.53 77.5404 163.761 78.051 162.962 78.5383L162.716 78.1006C163.272 78.0766 163.818 78.1333 164.354 78.2706C164.905 78.4041 165.417 78.6068 165.888 78.8788C166.654 79.3215 167.162 79.8609 167.411 80.4971C167.668 81.1386 167.666 81.9317 167.404 82.8765C167.147 83.8121 166.635 84.945 165.867 86.2752L164.204 85.3152ZM162.441 88.0481C161.019 87.2267 160.031 86.367 159.478 85.4688C158.92 84.5799 158.862 83.7521 159.304 82.9853C159.614 82.4496 160.121 82.0403 160.826 81.7577C161.537 81.4658 162.408 81.3103 163.442 81.2911C164.484 81.2772 165.658 81.3883 166.963 81.6243C168.277 81.8656 169.7 82.2378 171.233 82.7408L170.698 84.2427C169.423 83.8269 168.241 83.5074 167.15 83.2842C166.069 83.0664 165.102 82.939 164.248 82.9022C163.41 82.8614 162.714 82.9152 162.16 83.0635C161.606 83.2119 161.233 83.4524 161.041 83.7849C160.817 84.1729 160.891 84.6217 161.262 85.1314C161.647 85.6372 162.306 86.1595 163.239 86.6981C163.812 87.0288 164.471 87.3599 165.215 87.6913C165.965 88.0135 166.79 88.3353 167.688 88.6569L167.11 90.1705C166.59 89.9817 166.049 89.7676 165.485 89.5282C164.921 89.2889 164.375 89.041 163.845 88.7846C163.325 88.5336 162.857 88.2881 162.441 88.0481ZM160.812 74.5814L161.572 73.2651L172.616 79.6411L171.856 80.9574L160.812 74.5814ZM175.77 96.3533L181.53 86.3767L180.602 85.8407L181.394 84.4689L188.114 88.3489L187.322 89.7207L183.263 87.3767L182.039 89.4967L185.683 91.6007L184.883 92.9864L181.239 90.8824L179.983 93.0578L183.627 95.1618L182.811 96.5752L179.167 94.4712L177.503 97.3533L175.77 96.3533ZM170.297 93.1933L175.505 84.1728L177.196 85.1488L171.988 94.1693L170.297 93.1933ZM171.996 87.8187L172.217 85.8034C173.043 85.5041 173.822 85.147 174.554 84.7322C175.292 84.3081 176.002 83.8132 176.686 83.2473C177.375 82.6722 178.055 82.0177 178.725 81.2837L180.085 82.5123C179.407 83.3031 178.703 83.9992 177.974 84.6006C177.245 85.202 176.498 85.7067 175.733 86.1147L175.917 85.667C175.661 85.8763 175.366 86.088 175.033 86.3021C174.715 86.5124 174.375 86.7166 174.014 86.9148C173.668 87.1091 173.321 87.2842 172.972 87.44C172.624 87.5959 172.298 87.7222 171.996 87.8187ZM177.06 88.8395L176.32 87.0819C177.365 86.552 178.371 85.9505 179.338 85.2774C180.321 84.6004 181.247 83.8603 182.117 83.0571L183.512 84.2878C182.565 85.182 181.54 86.0189 180.437 86.7985C179.339 87.569 178.214 88.2493 177.06 88.8395ZM186.187 99.5592C187.97 100.588 189.494 101.265 190.76 101.59C192.036 101.92 193.116 101.884 194 101.483C194.899 101.078 195.663 100.331 196.292 99.241C196.932 98.1325 197.174 97.1697 197.017 96.3527C196.875 95.5318 196.324 94.844 195.363 94.2893C194.828 93.98 194.274 93.777 193.701 93.6806C193.138 93.5894 192.587 93.6042 192.05 93.7248C191.512 93.8455 191.009 94.0662 190.54 94.3869C190.081 94.713 189.697 95.1439 189.388 95.6797L188.34 97.4949L186.732 96.5669L190.94 89.2784L192.548 90.2064L190.844 93.1578L190.22 92.7978C190.883 92.4171 191.556 92.1588 192.238 92.0229C192.929 91.8923 193.624 91.8934 194.324 92.0262C195.038 92.1551 195.741 92.4195 196.434 92.8195C197.847 93.6355 198.685 94.6798 198.948 95.9525C199.226 97.2212 198.908 98.6453 197.996 100.225C197.175 101.648 196.18 102.625 195.01 103.157C193.85 103.694 192.483 103.791 190.907 103.448C189.326 103.114 187.487 102.342 185.39 101.131L186.187 99.5592Z" fill="white"/>
<g filter="url(#filter5_d_122_1158)">
<rect x="72" y="152.5" width="91" height="29" transform="rotate(-30 72 152.5)" fill="#128FCD" fill-opacity="0.2" shape-rendering="crispEdges"/>
<rect x="73.366" y="152.866" width="89" height="27" transform="rotate(-30 73.366 152.866)" stroke="#48BCCB" stroke-opacity="0.5" stroke-width="2" shape-rendering="crispEdges"/>
</g>
<path d="M94.8345 162.531L90.665 154.093L91.3106 154.219L83.9528 158.467L83.0968 156.984L91.8818 151.912L96.6358 161.491L94.8345 162.531ZM87.6577 167.764L86.8017 166.281L99.0508 159.209L99.9068 160.692L87.6577 167.764ZM99.4978 155.312L98.5458 153.663L109.964 147.071L110.916 148.72L99.4978 155.312ZM124.783 146.755C124.515 146.909 124.184 147.082 123.789 147.273C123.4 147.473 122.982 147.678 122.535 147.886C122.098 148.089 121.673 148.28 121.258 148.457L120.517 146.853C120.8 146.726 121.129 146.58 121.501 146.414C121.868 146.239 122.223 146.065 122.566 145.891C122.919 145.713 123.192 145.567 123.386 145.455C123.617 145.322 123.783 145.183 123.884 145.038C123.989 144.879 124.011 144.651 123.951 144.353C123.894 144.041 123.739 143.613 123.486 143.069C123.243 142.52 122.879 141.794 122.395 140.891C121.906 139.979 121.271 138.837 120.491 137.464L121.832 137.835L111.19 143.979L110.334 142.497L121.78 135.889L122.236 136.679C123.105 138.184 123.817 139.461 124.372 140.507C124.927 141.554 125.345 142.427 125.626 143.127C125.902 143.818 126.046 144.388 126.058 144.836C126.071 145.284 125.969 145.651 125.752 145.937C125.54 146.231 125.217 146.504 124.783 146.755ZM115.229 151.07C115.555 150.291 115.802 149.557 115.971 148.868C116.134 148.17 116.198 147.468 116.16 146.763C116.117 146.049 115.964 145.282 115.699 144.461C115.435 143.641 115.045 142.721 114.53 141.7C114.024 140.674 113.39 139.501 112.627 138.18L114.234 137.252C115.04 138.647 115.713 139.909 116.254 141.038C116.794 142.166 117.208 143.202 117.494 144.146C117.784 145.075 117.956 145.948 118.01 146.767C118.064 147.586 118 148.393 117.818 149.187C117.64 149.967 117.361 150.775 116.981 151.61L115.229 151.07ZM130.833 141.618C132.123 140.823 133.162 140.063 133.95 139.337C134.733 138.602 135.274 137.865 135.574 137.125C135.868 136.376 135.931 135.589 135.762 134.763C135.602 133.931 135.234 133.017 134.658 132.019L132.186 127.737L133.96 126.713L136.408 130.953C137.128 132.201 137.589 133.363 137.793 134.44C137.99 135.508 137.906 136.524 137.538 137.488C137.18 138.446 136.536 139.378 135.606 140.285C134.681 141.2 133.453 142.113 131.921 143.022L130.833 141.618ZM128.109 138.627L124.413 132.225L126.172 131.209L129.868 137.611L128.109 138.627ZM149.113 129.567C148.494 128.496 147.941 127.688 147.455 127.143C146.972 126.585 146.505 126.257 146.055 126.159C145.614 126.057 145.14 126.152 144.632 126.446C144.188 126.702 143.82 127.056 143.527 127.508C143.243 127.955 143.029 128.535 142.886 129.246C142.746 129.942 142.655 130.82 142.614 131.878L140.808 131.886C140.859 130.908 140.887 130.018 140.891 129.215C140.905 128.406 140.889 127.633 140.845 126.895C140.805 126.142 140.731 125.397 140.625 124.657C140.522 123.904 140.381 123.105 140.201 122.26L141.988 121.579C142.198 122.604 142.352 123.574 142.45 124.491C142.542 125.398 142.6 126.319 142.623 127.254L142.121 127.249C142.378 126.755 142.7 126.311 143.087 125.915C143.478 125.504 143.909 125.163 144.381 124.891C145.147 124.448 145.868 124.278 146.543 124.381C147.228 124.479 147.914 124.877 148.601 125.577C149.283 126.267 150.007 127.277 150.775 128.607L149.113 129.567ZM150.598 132.46C149.176 133.281 147.937 133.707 146.883 133.737C145.834 133.776 145.088 133.412 144.645 132.645C144.336 132.11 144.235 131.466 144.343 130.714C144.445 129.953 144.747 129.12 145.247 128.215C145.756 127.305 146.439 126.344 147.296 125.332C148.162 124.315 149.196 123.268 150.398 122.193L151.431 123.407C150.433 124.303 149.565 125.167 148.827 126C148.098 126.828 147.504 127.602 147.045 128.322C146.591 129.028 146.289 129.658 146.141 130.212C145.992 130.765 146.014 131.208 146.206 131.541C146.43 131.929 146.856 132.09 147.482 132.023C148.113 131.943 148.895 131.633 149.828 131.094C150.401 130.763 151.017 130.359 151.676 129.879C152.33 129.391 153.021 128.838 153.749 128.221L154.77 129.479C154.347 129.834 153.891 130.196 153.402 130.564C152.913 130.933 152.425 131.282 151.938 131.613C151.46 131.938 151.014 132.22 150.598 132.46ZM138.121 127.137L137.361 125.821L148.405 119.445L149.165 120.761L138.121 127.137Z" fill="white"/>
<g filter="url(#filter6_d_122_1158)">
<rect x="168" y="151.5" width="91" height="29" transform="rotate(-30 168 151.5)" fill="#128FCD" fill-opacity="0.2" shape-rendering="crispEdges"/>
<rect x="169.366" y="151.866" width="89" height="27" transform="rotate(-30 169.366 151.866)" stroke="#48BCCB" stroke-opacity="0.5" stroke-width="2" shape-rendering="crispEdges"/>
</g>
<path d="M201.558 156.744C200.469 155.562 199.429 154.506 198.436 153.576C197.448 152.632 196.455 151.777 195.458 151.01C194.465 150.228 193.429 149.49 192.35 148.795L193.608 147.293C194.422 147.808 195.21 148.351 195.97 148.922C196.735 149.478 197.495 150.08 198.251 150.727C199.01 151.36 199.784 152.059 200.57 152.825C201.361 153.575 202.185 154.405 203.042 155.314L201.558 156.744ZM189.932 162.366C189.915 161.058 189.807 159.772 189.607 158.508C189.416 157.238 189.133 155.991 188.759 154.766C188.384 153.542 187.925 152.341 187.381 151.165L189.177 150.275C189.773 151.52 190.273 152.802 190.677 154.121C191.09 155.434 191.405 156.768 191.62 158.122C191.844 159.47 191.956 160.828 191.957 162.194L189.932 162.366ZM206.3 152.509C207.537 151.771 208.523 151.078 209.258 150.432C209.993 149.786 210.499 149.137 210.775 148.484C211.061 147.827 211.137 147.137 211.002 146.414C210.863 145.681 210.534 144.867 210.017 143.971L206.929 138.622L208.62 137.646L211.708 142.995C212.348 144.103 212.746 145.136 212.904 146.092C213.071 147.042 212.985 147.948 212.644 148.81C212.313 149.666 211.719 150.502 210.86 151.318C210.006 152.144 208.871 152.983 207.455 153.838L206.3 152.509ZM203.966 149.811L199.862 142.702L201.553 141.726L205.657 148.835L203.966 149.811ZM199.894 147.654L199.038 146.171L211.952 138.715L212.808 140.198L199.894 147.654ZM230.026 140.548C228.76 141.02 227.455 141.546 226.114 142.123C224.767 142.691 223.44 143.285 222.135 143.903C220.838 144.516 219.625 145.124 218.495 145.727L217.66 144.122C218.836 143.492 220.073 142.87 221.369 142.257C222.67 141.63 223.993 141.032 225.34 140.463C226.691 139.881 228.012 139.352 229.302 138.878L230.026 140.548ZM226.413 136.593C225.245 137.045 224.126 137.507 223.055 137.977C221.988 138.433 220.943 138.907 219.922 139.398C218.904 139.875 217.89 140.38 216.88 140.914L216.125 139.318C217.171 138.763 218.21 138.237 219.241 137.74C220.273 137.243 221.326 136.764 222.402 136.303C223.473 135.833 224.597 135.368 225.774 134.911L226.413 136.593ZM224.831 132.222C223.567 132.742 222.343 133.277 221.157 133.826C219.975 134.36 218.809 134.911 217.658 135.477C216.516 136.037 215.366 136.627 214.208 137.246L213.387 135.633C214.61 134.976 215.806 134.36 216.975 133.783C218.154 133.201 219.33 132.645 220.502 132.116C221.679 131.572 222.88 131.051 224.107 130.552L224.831 132.222ZM238.85 133.495C239.308 133.157 239.676 132.76 239.954 132.303C240.236 131.832 240.424 131.336 240.517 130.814C240.614 130.278 240.612 129.731 240.512 129.173C240.411 128.615 240.206 128.068 239.897 127.533C239.46 126.775 238.903 126.216 238.227 125.855C237.545 125.485 236.802 125.329 235.998 125.387C235.203 125.439 234.394 125.703 233.572 126.178C232.87 126.583 232.286 127.074 231.818 127.652C231.351 128.23 231.007 128.86 230.785 129.542C230.567 130.21 230.489 130.895 230.55 131.599C230.606 132.293 230.815 132.955 231.178 133.583C231.439 134.035 231.764 134.427 232.152 134.757C232.54 135.088 232.922 135.323 233.298 135.463C233.678 135.588 233.993 135.579 234.243 135.435C234.603 135.227 234.76 134.699 234.714 133.851C234.668 133.003 234.424 131.887 233.982 130.504C233.545 129.106 232.92 127.49 232.107 125.656L233.811 124.894C234.599 126.73 235.219 128.337 235.67 129.715C236.12 131.093 236.406 132.27 236.527 133.247C236.648 134.225 236.605 135.025 236.399 135.649C236.187 136.264 235.813 136.726 235.278 137.036C234.834 137.292 234.359 137.418 233.852 137.415C233.346 137.412 232.839 137.292 232.333 137.055C231.826 136.817 231.342 136.481 230.881 136.045C230.415 135.6 230.006 135.072 229.654 134.463C229.152 133.594 228.853 132.702 228.755 131.786C228.651 130.86 228.736 129.961 229.009 129.089C229.281 128.218 229.73 127.405 230.353 126.65C230.981 125.882 231.771 125.222 232.722 124.673C233.84 124.028 234.951 123.67 236.055 123.598C237.169 123.522 238.197 123.735 239.14 124.238C240.083 124.74 240.867 125.532 241.491 126.613C241.912 127.342 242.193 128.085 242.334 128.842C242.484 129.592 242.502 130.327 242.388 131.046C242.268 131.756 242.019 132.423 241.64 133.048C241.262 133.673 240.76 134.221 240.133 134.694L238.85 133.495Z" fill="white"/>
<defs>
<filter id="filter0_d_122_1158" x="52" y="0" width="193.18" height="27" filterUnits="userSpaceOnUse" color-interpolation-filters="sRGB">
<feFlood flood-opacity="0" result="BackgroundImageFix"/>
<feColorMatrix in="SourceAlpha" type="matrix" values="0 0 0 0 0 0 0 0 0 0 0 0 0 0 0 0 0 0 127 0" result="hardAlpha"/>
<feOffset/>
<feGaussianBlur stdDeviation="2"/>
<feComposite in2="hardAlpha" operator="out"/>
<feColorMatrix type="matrix" values="0 0 0 0 1 0 0 0 0 1 0 0 0 0 1 0 0 0 0.6 0"/>
<feBlend mode="normal" in2="BackgroundImageFix" result="effect1_dropShadow_122_1158"/>
<feBlend mode="normal" in="SourceGraphic" in2="effect1_dropShadow_122_1158" result="shape"/>
</filter>
<filter id="filter1_d_122_1158" x="4" y="30" width="107.405" height="63.5644" filterUnits="userSpaceOnUse" color-interpolation-filters="sRGB">
<feFlood flood-opacity="0" result="BackgroundImageFix"/>
<feColorMatrix in="SourceAlpha" type="matrix" values="0 0 0 0 0 0 0 0 0 0 0 0 0 0 0 0 0 0 127 0" result="hardAlpha"/>
<feOffset/>
<feGaussianBlur stdDeviation="3"/>
<feComposite in2="hardAlpha" operator="out"/>
<feColorMatrix type="matrix" values="0 0 0 0 0.282353 0 0 0 0 0.737255 0 0 0 0 0.796078 0 0 0 0.25 0"/>
<feBlend mode="normal" in2="BackgroundImageFix" result="effect1_dropShadow_122_1158"/>
<feBlend mode="normal" in="SourceGraphic" in2="effect1_dropShadow_122_1158" result="shape"/>
</filter>
<filter id="filter2_d_122_1158" x="192" y="30" width="107.405" height="63.5644" filterUnits="userSpaceOnUse" color-interpolation-filters="sRGB">
<feFlood flood-opacity="0" result="BackgroundImageFix"/>
<feColorMatrix in="SourceAlpha" type="matrix" values="0 0 0 0 0 0 0 0 0 0 0 0 0 0 0 0 0 0 127 0" result="hardAlpha"/>
<feOffset/>
<feGaussianBlur stdDeviation="3"/>
<feComposite in2="hardAlpha" operator="out"/>
<feColorMatrix type="matrix" values="0 0 0 0 0.282353 0 0 0 0 0.737255 0 0 0 0 0.796078 0 0 0 0.25 0"/>
<feBlend mode="normal" in2="BackgroundImageFix" result="effect1_dropShadow_122_1158"/>
<feBlend mode="normal" in="SourceGraphic" in2="effect1_dropShadow_122_1158" result="shape"/>
</filter>
<filter id="filter3_d_122_1158" x="0" y="86.9999" width="96.8525" height="96.8528" filterUnits="userSpaceOnUse" color-interpolation-filters="sRGB">
<feFlood flood-opacity="0" result="BackgroundImageFix"/>
<feColorMatrix in="SourceAlpha" type="matrix" values="0 0 0 0 0 0 0 0 0 0 0 0 0 0 0 0 0 0 127 0" result="hardAlpha"/>
<feOffset/>
<feGaussianBlur stdDeviation="3"/>
<feComposite in2="hardAlpha" operator="out"/>
<feColorMatrix type="matrix" values="0 0 0 0 0.282353 0 0 0 0 0.737255 0 0 0 0 0.796078 0 0 0 0.25 0"/>
<feBlend mode="normal" in2="BackgroundImageFix" result="effect1_dropShadow_122_1158"/>
<feBlend mode="normal" in="SourceGraphic" in2="effect1_dropShadow_122_1158" result="shape"/>
</filter>
<filter id="filter4_d_122_1158" x="113" y="40" width="105.309" height="82.6147" filterUnits="userSpaceOnUse" color-interpolation-filters="sRGB">
<feFlood flood-opacity="0" result="BackgroundImageFix"/>
<feColorMatrix in="SourceAlpha" type="matrix" values="0 0 0 0 0 0 0 0 0 0 0 0 0 0 0 0 0 0 127 0" result="hardAlpha"/>
<feOffset/>
<feGaussianBlur stdDeviation="3"/>
<feComposite in2="hardAlpha" operator="out"/>
<feColorMatrix type="matrix" values="0 0 0 0 0.282353 0 0 0 0 0.737255 0 0 0 0 0.796078 0 0 0 0.25 0"/>
<feBlend mode="normal" in2="BackgroundImageFix" result="effect1_dropShadow_122_1158"/>
<feBlend mode="normal" in="SourceGraphic" in2="effect1_dropShadow_122_1158" result="shape"/>
</filter>
<filter id="filter5_d_122_1158" x="66" y="101" width="105.309" height="82.6147" filterUnits="userSpaceOnUse" color-interpolation-filters="sRGB">
<feFlood flood-opacity="0" result="BackgroundImageFix"/>
<feColorMatrix in="SourceAlpha" type="matrix" values="0 0 0 0 0 0 0 0 0 0 0 0 0 0 0 0 0 0 127 0" result="hardAlpha"/>
<feOffset/>
<feGaussianBlur stdDeviation="3"/>
<feComposite in2="hardAlpha" operator="out"/>
<feColorMatrix type="matrix" values="0 0 0 0 0.282353 0 0 0 0 0.737255 0 0 0 0 0.796078 0 0 0 0.25 0"/>
<feBlend mode="normal" in2="BackgroundImageFix" result="effect1_dropShadow_122_1158"/>
<feBlend mode="normal" in="SourceGraphic" in2="effect1_dropShadow_122_1158" result="shape"/>
</filter>
<filter id="filter6_d_122_1158" x="162" y="100" width="105.309" height="82.6147" filterUnits="userSpaceOnUse" color-interpolation-filters="sRGB">
<feFlood flood-opacity="0" result="BackgroundImageFix"/>
<feColorMatrix in="SourceAlpha" type="matrix" values="0 0 0 0 0 0 0 0 0 0 0 0 0 0 0 0 0 0 127 0" result="hardAlpha"/>
<feOffset/>
<feGaussianBlur stdDeviation="3"/>
<feComposite in2="hardAlpha" operator="out"/>
<feColorMatrix type="matrix" values="0 0 0 0 0.282353 0 0 0 0 0.737255 0 0 0 0 0.796078 0 0 0 0.25 0"/>
<feBlend mode="normal" in2="BackgroundImageFix" result="effect1_dropShadow_122_1158"/>
<feBlend mode="normal" in="SourceGraphic" in2="effect1_dropShadow_122_1158" result="shape"/>
</filter>
</defs>
</svg>
