<svg width="305" height="188" viewBox="0 0 305 188" fill="none" xmlns="http://www.w3.org/2000/svg">
<g filter="url(#filter0_d_122_1132)">
<rect x="90" y="5" width="64" height="17" stroke="white" stroke-width="2"/>
<rect x="160" y="5" width="64" height="17" stroke="white" stroke-width="2"/>
<rect x="20" y="5" width="64" height="17" stroke="white" stroke-width="2"/>
<path d="M231.916 18.372V17.1H229.672V16.08H231.916V15.276L231.94 15.156V12.3L231.916 12.228V11.376H229.576V10.356H231.916V9.264H233.344V10.356H235.468V11.376H233.344V12.204L233.332 12.3V15.156L233.344 15.336V16.08H235.312V17.1H233.344V18.372H231.916ZM229.528 18.96L229.456 17.832C229.904 17.816 230.372 17.796 230.86 17.772C231.356 17.74 231.856 17.704 232.36 17.664C232.864 17.616 233.36 17.572 233.848 17.532C234.336 17.492 234.796 17.444 235.228 17.388L235.312 18.444C234.712 18.532 234.08 18.608 233.416 18.672C232.76 18.736 232.1 18.792 231.436 18.84C230.772 18.888 230.136 18.928 229.528 18.96ZM229.84 15.576V11.892H235.336V15.576H231.1V14.628H234.148V14.088H231.1V13.368H234.148V12.828H231.1V15.576H229.84ZM235.924 19.056L234.82 18.336C235.06 17.984 235.272 17.604 235.456 17.196C235.648 16.78 235.812 16.308 235.948 15.78C236.084 15.252 236.196 14.636 236.284 13.932C236.372 13.228 236.436 12.412 236.476 11.484C236.516 10.548 236.536 9.464 236.536 8.232H237.844C237.844 9.496 237.82 10.62 237.772 11.604C237.724 12.588 237.652 13.456 237.556 14.208C237.46 14.96 237.336 15.624 237.184 16.2C237.032 16.776 236.852 17.296 236.644 17.76C236.444 18.216 236.204 18.648 235.924 19.056ZM238.876 18.852C238.724 18.852 238.492 18.836 238.18 18.804C237.876 18.78 237.564 18.752 237.244 18.72L237.22 17.436C237.524 17.476 237.776 17.508 237.976 17.532C238.176 17.548 238.34 17.556 238.468 17.556C238.532 17.556 238.592 17.528 238.648 17.472C238.712 17.408 238.764 17.284 238.804 17.1C238.852 16.908 238.888 16.628 238.912 16.26C238.944 15.884 238.968 15.384 238.984 14.76C239 14.136 239.008 13.356 239.008 12.42V11.832H235.288V10.632H240.412V11.484C240.412 12.652 240.404 13.644 240.388 14.46C240.372 15.276 240.344 15.956 240.304 16.5C240.264 17.044 240.204 17.476 240.124 17.796C240.052 18.108 239.96 18.336 239.848 18.48C239.736 18.632 239.6 18.732 239.44 18.78C239.288 18.828 239.1 18.852 238.876 18.852ZM229.816 9.912L229.756 8.808C230.188 8.792 230.644 8.768 231.124 8.736C231.604 8.704 232.088 8.664 232.576 8.616C233.072 8.568 233.548 8.516 234.004 8.46C234.468 8.404 234.896 8.344 235.288 8.28L235.444 9.408C234.908 9.488 234.316 9.564 233.668 9.636C233.028 9.708 232.376 9.768 231.712 9.816C231.056 9.864 230.424 9.896 229.816 9.912ZM250.924 18.948C250.78 18.948 250.576 18.944 250.312 18.936C250.056 18.928 249.784 18.916 249.496 18.9C249.216 18.884 248.956 18.872 248.716 18.864L248.656 17.616C248.96 17.64 249.264 17.66 249.568 17.676C249.872 17.684 250.108 17.688 250.276 17.688C250.364 17.688 250.44 17.648 250.504 17.568C250.576 17.48 250.636 17.312 250.684 17.064C250.74 16.808 250.788 16.428 250.828 15.924C250.876 15.412 250.916 14.736 250.948 13.896C250.988 13.048 251.024 11.984 251.056 10.704H247.048V9.468H252.388C252.364 10.972 252.336 12.252 252.304 13.308C252.272 14.364 252.232 15.24 252.184 15.936C252.136 16.624 252.076 17.176 252.004 17.592C251.932 18 251.844 18.3 251.74 18.492C251.644 18.684 251.528 18.808 251.392 18.864C251.256 18.92 251.1 18.948 250.924 18.948ZM241.516 15.912L241.384 14.712C242.168 14.576 242.932 14.42 243.676 14.244C244.428 14.06 245.164 13.856 245.884 13.632L245.992 14.832C245.264 15.064 244.528 15.268 243.784 15.444C243.048 15.62 242.292 15.776 241.516 15.912ZM243.328 19.104V11.28H242.368V10.08H243.328V8.256H244.708V10.08H245.824V11.28H244.708V19.104H243.328ZM242.404 13.488L241.276 13.224C241.42 12.576 241.552 11.872 241.672 11.112C241.792 10.352 241.88 9.56 241.936 8.736L243.076 8.808C243.02 9.696 242.936 10.528 242.824 11.304C242.72 12.08 242.58 12.808 242.404 13.488ZM246.748 19.08L245.908 18.084C246.684 17.524 247.384 16.848 248.008 16.056C248.632 15.264 249.164 14.384 249.604 13.416C250.052 12.44 250.392 11.404 250.624 10.308L251.632 10.716C251.48 11.588 251.252 12.436 250.948 13.26C250.652 14.076 250.292 14.848 249.868 15.576C249.444 16.296 248.968 16.956 248.44 17.556C247.912 18.148 247.348 18.656 246.748 19.08ZM246.124 16.512L245.284 15.516C245.788 15.108 246.256 14.62 246.688 14.052C247.12 13.476 247.5 12.84 247.828 12.144C248.164 11.448 248.436 10.712 248.644 9.936L249.796 10.32C249.572 11.168 249.272 11.984 248.896 12.768C248.52 13.552 248.096 14.264 247.624 14.904C247.152 15.544 246.652 16.08 246.124 16.512ZM245.848 13.5L244.984 12.564C245.296 12.196 245.588 11.776 245.86 11.304C246.132 10.824 246.376 10.308 246.592 9.756C246.816 9.204 246.996 8.64 247.132 8.064L248.44 8.22C248.264 8.9 248.04 9.568 247.768 10.224C247.504 10.88 247.204 11.488 246.868 12.048C246.54 12.608 246.2 13.092 245.848 13.5ZM259.504 18.444C258.64 18.444 257.964 18.252 257.476 17.868C256.996 17.476 256.756 16.932 256.756 16.236C256.756 15.524 256.996 14.976 257.476 14.592C257.956 14.208 258.632 14.016 259.504 14.016C259.88 14.016 260.244 14.064 260.596 14.16C260.948 14.248 261.312 14.408 261.688 14.64C262.064 14.872 262.484 15.192 262.948 15.6C263.42 16 263.972 16.512 264.604 17.136L263.716 18.084C263.148 17.508 262.656 17.036 262.24 16.668C261.832 16.292 261.472 16 261.16 15.792C260.848 15.584 260.552 15.44 260.272 15.36C260 15.272 259.72 15.228 259.432 15.228C258.504 15.228 258.04 15.564 258.04 16.236C258.04 16.9 258.504 17.232 259.432 17.232C259.936 17.232 260.292 17.128 260.5 16.92C260.716 16.704 260.824 16.352 260.824 15.864V8.448H262.216V15.924C262.216 16.764 261.984 17.396 261.52 17.82C261.064 18.236 260.392 18.444 259.504 18.444ZM256.792 11.544V10.332H264.424V11.544H256.792ZM254.572 18.66C254.364 17.836 254.212 17.024 254.116 16.224C254.02 15.424 253.972 14.576 253.972 13.68C253.972 12.792 254.02 11.952 254.116 11.16C254.212 10.36 254.36 9.548 254.56 8.724L255.976 8.904C255.784 9.68 255.64 10.46 255.544 11.244C255.456 12.02 255.412 12.832 255.412 13.68C255.412 14.528 255.456 15.344 255.544 16.128C255.64 16.912 255.784 17.684 255.976 18.444L254.572 18.66ZM270.184 15.372C270.184 15.036 270.22 14.72 270.292 14.424C270.364 14.128 270.496 13.844 270.688 13.572C270.88 13.292 271.148 13.032 271.492 12.792C271.764 12.6 271.984 12.424 272.152 12.264C272.32 12.104 272.436 11.948 272.5 11.796C272.572 11.644 272.608 11.492 272.608 11.34C272.608 11.028 272.468 10.804 272.188 10.668C271.916 10.524 271.48 10.452 270.88 10.452C270.456 10.452 270.036 10.488 269.62 10.56C269.204 10.624 268.768 10.732 268.312 10.884L268 9.576C268.456 9.432 268.952 9.32 269.488 9.24C270.024 9.16 270.556 9.12 271.084 9.12C273.148 9.12 274.18 9.788 274.18 11.124C274.18 11.428 274.128 11.708 274.024 11.964C273.928 12.212 273.768 12.456 273.544 12.696C273.32 12.936 273.024 13.184 272.656 13.44C272.416 13.608 272.224 13.796 272.08 14.004C271.936 14.212 271.836 14.432 271.78 14.664C271.724 14.896 271.688 15.132 271.672 15.372H270.184ZM270.076 18V16.368H271.78V18H270.076Z" fill="white"/>
</g>
<g filter="url(#filter1_d_122_1132)">
<rect x="62" y="94.4723" width="120" height="29" transform="rotate(-6.92689 62 94.4723)" fill="#128FCD" fill-opacity="0.2" shape-rendering="crispEdges"/>
<rect x="63.1133" y="95.3444" width="118" height="27" transform="rotate(-6.92689 63.1133 95.3444)" stroke="#48BCCB" stroke-opacity="0.5" stroke-width="2" shape-rendering="crispEdges"/>
</g>
<path d="M76.2875 113.633L74.7672 112.528C75.295 112.185 75.7175 111.86 76.0347 111.552C76.3626 111.244 76.6025 110.919 76.7545 110.578C76.9053 110.227 76.9907 109.824 77.0108 109.371C77.0296 108.906 77.0004 108.357 76.9232 107.721L76.5546 104.688L72.4726 105.183L72.2874 103.659L82.1667 102.458L82.352 103.983L78.3812 104.466L78.7498 107.499C78.8694 108.484 78.8711 109.338 78.7548 110.061C78.6385 110.785 78.3789 111.434 77.9761 112.01C77.5825 112.573 77.0196 113.114 76.2875 113.633ZM70.0791 116.128L69.0362 114.707C69.5921 114.242 70.0892 113.779 70.5274 113.317C70.9749 112.844 71.3769 112.349 71.7332 111.833L72.9359 112.976C72.5728 113.526 72.1588 114.054 71.694 114.562C71.2398 115.068 70.7015 115.59 70.0791 116.128ZM70.9292 113.043L70.4507 109.104L68.6082 109.328L68.4153 107.739L72.0843 107.294L72.7558 112.821L70.9292 113.043ZM79.3081 114.749C78.2175 114.881 77.2659 114.965 76.4535 114.999C75.641 115.033 74.9452 115.01 74.3659 114.93C73.7986 114.86 73.3148 114.725 72.9146 114.526C72.5144 114.328 72.1713 114.069 71.8854 113.749C71.6099 113.428 71.3586 113.039 71.1313 112.583L72.6743 112.283C72.8534 112.519 73.0499 112.721 73.2636 112.888C73.4774 113.056 73.7296 113.186 74.0204 113.28C74.3204 113.362 74.692 113.413 75.1352 113.435C75.5889 113.455 76.146 113.441 76.8063 113.393C77.4667 113.345 78.2628 113.264 79.1946 113.151L83.5625 112.62L83.6443 114.222L79.3081 114.749ZM71.103 105.85C70.5978 105.406 70.0886 104.973 69.5754 104.552C69.0715 104.119 68.5589 103.703 68.0377 103.305L69.1733 102.038C69.6839 102.438 70.1912 102.855 70.6951 103.288C71.2083 103.709 71.7128 104.148 72.2087 104.603L71.103 105.85ZM73.7482 110.509L73.1751 105.791L74.8746 105.585L75.2624 108.777L80.488 108.142L80.1001 104.95L81.8155 104.741L82.3886 109.459L73.7482 110.509ZM75.3053 103.824C75.0514 103.414 74.7822 103.012 74.4978 102.616C74.2227 102.209 73.9515 101.834 73.6841 101.49L75.2343 100.851C75.5122 101.193 75.7881 101.563 76.062 101.959C76.3358 102.356 76.6003 102.764 76.8555 103.184L75.3053 103.824ZM79.6386 103.539L77.9366 103.327C78.1553 102.828 78.3575 102.325 78.5432 101.819C78.7288 101.313 78.8952 100.825 79.0424 100.356L80.7583 100.55C80.6125 101.03 80.4414 101.524 80.2452 102.031C80.0595 102.537 79.8573 103.04 79.6386 103.539ZM93.1659 112.598C91.8105 112.763 90.6099 112.742 89.5641 112.536C88.5302 112.339 87.7019 111.978 87.0792 111.452C86.4671 110.924 86.1116 110.253 86.0125 109.438C85.9263 108.728 86.0651 108.013 86.4288 107.292C86.7912 106.56 87.3353 105.865 88.0613 105.208L89.7279 105.924C89.1107 106.504 88.6529 107.07 88.3546 107.622C88.0657 108.162 87.9501 108.67 88.008 109.147C88.0659 109.623 88.2961 110.014 88.6986 110.32C89.0997 110.615 89.6554 110.811 90.3655 110.907C91.0744 110.993 91.9212 110.976 92.906 110.857C93.6895 110.761 94.4991 110.615 95.3346 110.416C96.1701 110.218 96.9728 109.97 97.7425 109.673L98.205 111.357C97.3718 111.663 96.5168 111.922 95.6402 112.136C94.7742 112.349 93.9495 112.503 93.1659 112.598ZM84.7615 103.916L84.5647 102.296L97.5185 100.4L97.7154 102.02L84.7615 103.916ZM94.7204 108.412C94.2915 107.712 93.899 107.002 93.543 106.282C93.1869 105.563 92.8613 104.829 92.5662 104.08C92.2804 103.32 92.0245 102.539 91.7984 101.74C91.5828 100.938 91.3971 100.117 91.2413 99.2768L93.1039 98.9538C93.2559 99.7627 93.4365 100.541 93.6456 101.29C93.8652 102.036 94.1148 102.764 94.3941 103.471C94.6841 104.177 95.0058 104.88 95.3593 105.578C95.7221 106.265 96.1239 106.963 96.5646 107.672L94.7204 108.412ZM106.202 111.111C104.952 111.263 103.953 111.132 103.204 110.718C102.468 110.313 102.044 109.655 101.933 108.744C101.823 107.834 102.077 107.099 102.697 106.54C103.317 105.981 104.257 105.625 105.517 105.472C106.205 105.389 106.881 105.382 107.545 105.452C108.209 105.521 108.889 105.681 109.585 105.929C110.292 106.176 111.043 106.52 111.838 106.961C112.632 107.391 113.498 107.93 114.436 108.579L113.376 109.933C112.488 109.343 111.681 108.85 110.956 108.454C110.24 108.047 109.584 107.729 108.987 107.501C108.388 107.262 107.822 107.11 107.287 107.046C106.762 106.97 106.235 106.965 105.706 107.029C104.35 107.194 103.722 107.678 103.819 108.483C103.87 108.896 104.078 109.193 104.443 109.374C104.808 109.545 105.319 109.59 105.975 109.511C106.759 109.415 107.316 109.181 107.646 108.808C107.977 108.435 108.101 107.909 108.019 107.231L106.803 97.225L108.598 97.0069L109.814 107.013C109.959 108.21 109.73 109.151 109.125 109.837C108.532 110.522 107.557 110.946 106.202 111.111ZM101.297 104.438L101.106 102.865L113.4 101.372L113.591 102.944L101.297 104.438ZM100.745 101.217L100.55 99.6126L113.161 98.0805L113.356 99.6847L100.745 101.217ZM126.689 107.945C125.736 108.061 124.868 108.032 124.084 107.859C123.311 107.684 122.684 107.389 122.204 106.975C121.733 106.549 121.461 106.034 121.387 105.43C121.256 104.35 121.825 103.153 123.095 101.838L124.586 102.704C124.08 103.228 123.715 103.675 123.492 104.046C123.279 104.416 123.191 104.754 123.228 105.061C123.267 105.379 123.427 105.639 123.71 105.841C123.992 106.043 124.369 106.18 124.84 106.252C125.31 106.323 125.858 106.321 126.483 106.245C127.012 106.181 127.601 106.072 128.248 105.918C128.905 105.752 129.564 105.559 130.225 105.34L130.682 106.976C130.011 107.208 129.332 107.409 128.643 107.579C127.966 107.747 127.314 107.869 126.689 107.945ZM121.329 98.845L121.12 97.1296L129.268 96.1397L129.477 97.8551L121.329 98.845ZM118.753 109.618C118.345 108.561 118.014 107.511 117.758 106.467C117.502 105.424 117.302 104.309 117.158 103.123C117.016 101.948 116.944 100.828 116.944 99.7646C116.942 98.6903 117.013 97.5911 117.156 96.467L119.075 96.4756C118.945 97.5336 118.88 98.5891 118.879 99.6423C118.887 100.684 118.96 101.765 119.096 102.888C119.232 104.01 119.422 105.083 119.664 106.107C119.918 107.129 120.232 108.128 120.609 109.103L118.753 109.618ZM135.99 105.961C136.938 105.803 137.771 105.54 138.489 105.174C139.206 104.796 139.755 104.359 140.135 103.862C140.526 103.363 140.689 102.849 140.625 102.319L140.58 101.954L141.4 102.064C141.309 102.29 141.174 102.505 140.994 102.709C140.815 102.914 140.596 103.102 140.338 103.273C140.088 103.432 139.804 103.569 139.485 103.683C139.176 103.795 138.852 103.872 138.514 103.913C137.815 103.998 137.195 103.939 136.655 103.736C136.113 103.523 135.669 103.19 135.324 102.738C134.99 102.284 134.783 101.729 134.703 101.072C134.622 100.405 134.7 99.8101 134.937 99.287C135.175 98.7639 135.542 98.3378 136.039 98.0088C136.546 97.6679 137.159 97.4537 137.879 97.3662C138.472 97.2941 138.998 97.3324 139.457 97.4808C139.915 97.6292 140.381 97.8789 140.853 98.2298L139.764 98.6845L139.083 93.0777L140.989 92.8462L141.865 100.057L141.622 99.2486C141.861 99.5418 142.039 99.8533 142.154 100.183C142.279 100.501 142.366 100.867 142.416 101.28C142.546 102.349 142.395 103.318 141.964 104.187C141.532 105.056 140.851 105.778 139.922 106.353C138.994 106.939 137.846 107.352 136.479 107.594L135.99 105.961ZM138.642 102.318C138.917 102.285 139.156 102.218 139.359 102.118C139.571 102.007 139.748 101.867 139.889 101.699C140.029 101.532 140.129 101.337 140.188 101.115C140.247 100.893 140.261 100.655 140.23 100.401C140.165 99.8608 139.949 99.4571 139.584 99.1899C139.229 98.9215 138.776 98.8207 138.225 98.8876C137.685 98.9532 137.264 99.1601 136.963 99.5083C136.672 99.8553 136.559 100.299 136.625 100.839C136.687 101.347 136.901 101.74 137.268 102.018C137.633 102.285 138.091 102.385 138.642 102.318ZM131.804 97.3789L131.619 95.8541L145.628 94.1522L145.813 95.677L131.804 97.3789ZM155.618 105.269C154.051 105.459 152.802 105.353 151.872 104.95C150.953 104.546 150.437 103.883 150.325 102.962C150.23 102.178 150.479 101.53 151.072 101.018C151.674 100.493 152.547 100.162 153.691 100.023C154.771 99.8914 155.606 99.9942 156.195 100.331C156.782 100.657 157.124 101.217 157.221 102.011C157.255 102.297 157.25 102.61 157.206 102.948C157.171 103.285 157.101 103.638 156.995 104.005L155.225 104.027C155.33 103.649 155.398 103.329 155.431 103.067C155.474 102.804 155.484 102.577 155.461 102.386C155.374 101.666 154.8 101.371 153.742 101.499C153.201 101.565 152.789 101.706 152.504 101.924C152.228 102.129 152.11 102.396 152.15 102.724C152.204 103.169 152.506 103.492 153.057 103.694C153.607 103.885 154.327 103.926 155.216 103.818C156.921 103.611 158.156 103.209 158.921 102.611C159.696 102.001 160.02 101.177 159.894 100.139C159.788 99.2605 159.381 98.6544 158.674 98.3212C157.978 97.9867 156.921 97.9057 155.502 98.0781C154.686 98.1771 153.975 98.3387 153.369 98.5629C152.761 98.7764 152.21 99.0636 151.716 99.4244L149.767 100.886L148.827 99.5176L157.239 93.4025L157.275 93.7043L149.191 94.6864L148.996 93.0822L159.86 91.7624L160.055 93.3666L152.823 98.5808L151.74 97.8904C152.054 97.7341 152.406 97.5838 152.797 97.4396C153.197 97.2835 153.605 97.148 154.021 97.033C154.446 96.9062 154.857 96.7971 155.254 96.7059C155.65 96.604 156.012 96.5332 156.341 96.4933C157.95 96.2978 159.225 96.4867 160.165 97.0602C161.105 97.6337 161.651 98.5452 161.803 99.7947C161.984 101.288 161.536 102.508 160.458 103.456C159.391 104.402 157.778 105.006 155.618 105.269ZM171.865 103.15C169.885 103.39 168.344 103.266 167.242 102.776C166.139 102.276 165.515 101.428 165.37 100.232C165.247 99.2258 165.512 98.2642 166.163 97.3469C166.814 96.4191 167.89 95.5039 169.392 94.6015C170.905 93.6978 172.877 92.7758 175.309 91.8356L175.961 93.4811C173.898 94.2797 172.212 95.0432 170.904 95.7717C169.606 96.4988 168.665 97.1988 168.081 97.8715C167.505 98.5324 167.258 99.1963 167.339 99.8634C167.507 101.24 168.983 101.759 171.768 101.421C172.223 101.365 172.697 101.286 173.189 101.184C173.682 101.081 174.231 100.955 174.836 100.806C175.45 100.646 176.147 100.454 176.926 100.23L177.356 101.918C176.371 102.21 175.413 102.461 174.482 102.67C173.563 102.89 172.691 103.049 171.865 103.15ZM167.984 96.4165C167.551 95.4161 167.168 94.4311 166.836 93.4615C166.502 92.4813 166.211 91.5065 165.965 90.5372L167.852 90.0178C168.109 90.9858 168.403 91.9494 168.735 92.9084C169.065 93.8568 169.437 94.7948 169.85 95.7224L167.984 96.4165Z" fill="white"/>
<g filter="url(#filter2_d_122_1132)">
<rect x="18.5137" y="114" width="91" height="29" transform="rotate(25.5631 18.5137 114)" fill="#128FCD" fill-opacity="0.2" shape-rendering="crispEdges"/>
<rect x="18.9843" y="115.334" width="89" height="27" transform="rotate(25.5631 18.9843 115.334)" stroke="#48BCCB" stroke-opacity="0.5" stroke-width="2" shape-rendering="crispEdges"/>
</g>
<path d="M25.9291 130.663L27.2892 127.82L32.8318 130.471L33.3358 129.417L35.0967 130.259L34.5927 131.313L40.1353 133.964L38.7752 136.808L37.1297 136.021L37.8684 134.476L28.2988 129.899L27.5601 131.443L25.9291 130.663ZM22.1664 138.122L22.3943 136.421C23.0771 136.452 23.7237 136.46 24.3341 136.445C24.9588 136.424 25.5474 136.393 26.1001 136.35L25.8208 137.972C25.2685 138.039 24.6848 138.085 24.0698 138.11C23.4594 138.125 22.8249 138.129 22.1664 138.122ZM22.7813 140.952L27.8903 130.271L29.5213 131.051L24.4123 141.732L22.7813 140.952ZM24.8187 135.098C24.8647 134.458 24.892 133.832 24.9004 133.222C24.9184 132.615 24.9195 131.995 24.9036 131.361L26.4556 131.305C26.4719 131.963 26.471 132.595 26.453 133.202C26.4396 133.798 26.4098 134.417 26.3638 135.057L24.8187 135.098ZM25.139 141.956L25.3123 140.407C26.5222 140.844 27.5801 141.178 28.4859 141.41C29.4059 141.638 30.21 141.786 30.8982 141.855C31.5911 141.914 32.1992 141.904 32.7226 141.823C33.246 141.742 33.7135 141.605 34.1252 141.412L34.9561 142.678C34.2406 142.963 33.4135 143.135 32.4746 143.194C31.5358 143.254 30.4586 143.182 29.2433 142.979C28.0375 142.78 26.6694 142.439 25.139 141.956ZM34.0302 146.208C32.8098 145.447 31.7396 144.681 30.8197 143.91C29.8997 143.139 29.1303 142.387 28.5116 141.653C27.9025 140.924 27.4611 140.24 27.1875 139.601L28.8311 139.465C28.9616 139.835 29.1616 140.22 29.431 140.621C29.7147 141.017 30.0941 141.435 30.5694 141.875C31.0543 142.32 31.6663 142.808 32.4056 143.339C33.1448 143.869 34.0472 144.455 35.1128 145.095L34.0302 146.208ZM27.1618 138.95L27.6796 137.868L35.4739 141.596L34.9561 142.678L27.1618 138.95ZM26.3937 137.998L27.4777 135.731L37.0906 140.33L36.0066 142.596L34.3323 141.795L34.8639 140.683L28.5419 137.659L28.0103 138.771L26.3937 137.998ZM28.564 135.648L29.0818 134.565L35.4038 137.589L35.6316 137.113L29.5406 134.2L30.0032 133.233L36.0942 136.146L36.3358 135.641L30.0139 132.617L30.5248 131.549L38.5932 135.408L36.6325 139.507L28.564 135.648ZM39.9401 145.719C41.8261 146.621 43.4253 147.22 44.7378 147.517C46.0548 147.804 47.1233 147.795 47.9434 147.489C48.7777 147.179 49.4134 146.567 49.8507 145.653C50.3386 144.633 50.37 143.702 49.945 142.86C49.5199 142.018 48.6387 141.277 47.3011 140.638C46.8008 140.398 46.2339 140.174 45.6004 139.966C44.967 139.758 44.2263 139.551 43.3782 139.346C42.5398 139.146 41.5462 138.937 40.3973 138.719L40.8581 136.829C42.5772 137.19 44.0291 137.553 45.214 137.919C46.413 138.28 47.4167 138.653 48.225 139.04C49.4567 139.629 50.4156 140.306 51.1017 141.072C51.7924 141.828 52.1957 142.654 52.3115 143.549C52.4273 144.443 52.2482 145.387 51.7741 146.378C50.8766 148.254 49.375 149.28 47.2693 149.455C45.1635 149.63 42.4989 148.947 39.2754 147.405L39.9401 145.719ZM57.5617 156.897C56.3877 156.335 55.423 155.732 54.6674 155.087C53.9215 154.446 53.4165 153.808 53.1525 153.174C52.8932 152.529 52.9016 151.919 53.1778 151.341C53.4171 150.841 53.8087 150.455 54.3526 150.183C54.8965 149.911 55.5383 149.78 56.278 149.791L56.935 151.347C56.4007 151.352 55.9868 151.414 55.693 151.533C55.4039 151.643 55.2044 151.826 55.0943 152.081C54.952 152.403 54.9723 152.743 55.1551 153.103C55.3425 153.453 55.6877 153.819 56.1906 154.201C56.7031 154.588 57.3586 154.973 58.1573 155.355C58.8598 155.691 59.6189 155.995 60.4347 156.267C61.2602 156.543 62.0465 156.766 62.7937 156.934L62.3211 158.552C61.55 158.385 60.7541 158.158 59.9332 157.871C59.1124 157.585 58.3218 157.26 57.5617 156.897ZM54.0603 147.79L54.7369 146.376L66.3354 151.569L65.6588 152.984L54.0603 147.79ZM60.4254 154.506C60.4623 153.614 60.5374 152.727 60.6508 151.847C60.7643 150.968 60.9137 150.099 61.0991 149.242C61.2987 148.379 61.5341 147.517 61.8052 146.653C62.081 145.78 62.3973 144.908 62.7543 144.039L64.5202 144.759C64.1771 145.6 63.8744 146.431 63.612 147.251C63.3592 148.076 63.1423 148.901 62.9611 149.724C62.7798 150.548 62.6348 151.395 62.526 152.265C62.4314 153.131 62.3707 154.024 62.3439 154.945L60.4254 154.506ZM55.7305 144.67L56.4071 143.255L67.7169 148.31L67.0403 149.725L55.7305 144.67ZM73.8174 161.178C74.3513 160.062 74.7051 159.149 74.8788 158.44C75.0667 157.726 75.0734 157.156 74.899 156.729C74.7341 156.308 74.3871 155.97 73.8579 155.717C73.396 155.496 72.8956 155.393 72.3567 155.407C71.8275 155.426 71.229 155.577 70.5612 155.861C69.9077 156.139 69.1326 156.561 68.236 157.125L67.2081 155.64C68.0437 155.129 68.7939 154.649 69.4587 154.198C70.1331 153.752 70.7622 153.302 71.3459 152.848C71.9438 152.389 72.5174 151.907 73.0667 151.401C73.6303 150.89 74.2096 150.322 74.8046 149.696L76.3766 150.785C75.6502 151.537 74.9369 152.213 74.2365 152.812C73.5407 153.402 72.8135 153.97 72.0549 154.518L71.7757 154.1C72.328 154.033 72.8769 154.048 73.4224 154.143C73.9822 154.234 74.5075 154.396 74.9982 154.631C75.7969 155.013 76.3447 155.511 76.6418 156.126C76.9484 156.746 77.0076 157.537 76.8192 158.499C76.6355 159.452 76.2123 160.621 75.5495 162.007L73.8174 161.178ZM72.2716 164.039C70.7897 163.33 69.7383 162.55 69.1175 161.697C68.4921 160.854 68.3704 160.033 68.7524 159.234C69.0193 158.676 69.4934 158.229 70.1745 157.893C70.8603 157.547 71.7176 157.324 72.7464 157.225C73.7848 157.131 74.9636 157.151 76.2827 157.285C77.6115 157.424 79.0593 157.685 80.6261 158.068L80.2093 159.607C78.9061 159.291 77.7022 159.064 76.5977 158.925C75.5028 158.792 74.5286 158.74 73.6751 158.769C72.8358 158.793 72.1459 158.901 71.6053 159.091C71.0648 159.282 70.7117 159.551 70.546 159.897C70.3526 160.301 70.4606 160.743 70.8697 161.223C71.2931 161.697 71.9907 162.167 72.9626 162.632C73.5592 162.917 74.2415 163.196 75.0097 163.469C75.7824 163.732 76.629 163.989 77.5494 164.24L77.0899 165.794C76.5578 165.646 76.0013 165.474 75.4206 165.28C74.8399 165.085 74.2758 164.88 73.7281 164.665C73.1901 164.455 72.7046 164.246 72.2716 164.039ZM69.6057 150.739L70.2616 149.368L81.7653 154.87L81.1094 156.242L69.6057 150.739Z" fill="white"/>
<g filter="url(#filter3_d_122_1132)">
<rect x="14.0137" y="54.4498" width="91" height="29" transform="rotate(-11.6055 14.0137 54.4498)" fill="#128FCD" fill-opacity="0.2" shape-rendering="crispEdges"/>
<rect x="15.1944" y="55.2282" width="89" height="27" transform="rotate(-11.6055 15.1944 55.2282)" stroke="#48BCCB" stroke-opacity="0.5" stroke-width="2" shape-rendering="crispEdges"/>
</g>
<path d="M33.3723 72.2391L30.8971 60.1866L35.4422 59.2532L35.1622 57.8896L37.0743 57.4969L37.3543 58.8605L41.8054 57.9464L43.2828 65.1402L34.2552 66.9942L33.9527 65.521L41.0838 64.0564L40.7813 62.5832L33.6501 64.0477L33.3733 62.6998L40.5045 61.2353L40.218 59.8404L33.0868 61.305L35.253 71.8528L33.3723 72.2391ZM31.8792 73.5584L31.4038 72.039C32.6906 71.6767 33.9907 71.2736 35.3042 70.8296C36.6282 70.3835 37.9541 69.8934 39.2818 69.3594L39.8291 70.8314C38.944 71.1874 38.0556 71.5277 37.164 71.8524C36.2746 72.1875 35.3902 72.4943 34.511 72.7729C33.6317 73.0515 32.7544 73.3133 31.8792 73.5584ZM45.7437 70.7601C44.6913 70.7257 43.677 70.5856 42.7009 70.3396C41.7248 70.0936 40.8099 69.7479 39.9561 69.3025C39.1107 68.8446 38.3476 68.3099 37.6666 67.6983C36.9961 67.0847 36.4414 66.3982 36.0023 65.639L37.5458 64.9627C38.1108 65.8049 38.7975 66.5242 39.606 67.1204C40.4123 67.7061 41.3624 68.1698 42.4561 68.5114C43.5582 68.8405 44.8311 69.0473 46.275 69.1319L45.7437 70.7601ZM41.2896 69.2737L39.976 68.2858C40.6944 67.6482 41.3605 66.9942 41.9741 66.3237C42.5878 65.6532 43.1657 64.941 43.7078 64.1872L45.0744 65.1153C44.5219 65.8712 43.9305 66.597 43.3002 67.2927C42.6782 67.9758 42.008 68.6361 41.2896 69.2737ZM58.4773 68.3409C57.6218 67.9395 56.8418 67.5879 56.1373 67.2861C55.435 66.9948 54.7757 66.7273 54.1594 66.4836C53.5431 66.2399 52.9416 66.015 52.3548 65.8089C51.7658 65.5922 51.1539 65.3695 50.5188 65.1405C49.8607 64.9055 49.3305 64.7095 48.928 64.5525C48.5338 64.383 48.2193 64.2299 47.9843 64.093C47.7597 63.954 47.5926 63.8032 47.483 63.6406C47.3817 63.4654 47.3064 63.2576 47.257 63.0173C47.2055 62.7666 47.197 62.5396 47.2315 62.3365C47.2743 62.1208 47.3768 61.9038 47.5388 61.6854C47.6987 61.4566 47.9379 61.1896 48.2564 60.8847C48.5749 60.5797 48.9882 60.2062 49.4964 59.7643C50.0233 59.3077 50.5991 58.7974 51.2237 58.2335C51.8484 57.6697 52.498 57.068 53.1725 56.4286C53.847 55.7892 54.5098 55.1195 55.1609 54.4195L56.5703 55.7145C56.1749 56.1223 55.7545 56.5408 55.309 56.9698C54.8614 57.3884 54.418 57.8008 53.9787 58.2068C53.5372 58.6023 53.1134 58.9779 52.7074 59.3336C52.3096 59.6766 51.9493 59.9901 51.6265 60.2742C51.3016 60.5478 51.037 60.771 50.8329 60.9435C50.4351 61.2866 50.1259 61.557 49.9051 61.7548C49.6949 61.9504 49.5482 62.1112 49.4652 62.2371C49.3905 62.3505 49.3649 62.4646 49.3885 62.5796C49.4121 62.6945 49.4638 62.7873 49.5437 62.858C49.634 62.9266 49.8028 63.0063 50.0501 63.097C50.2975 63.1878 50.6726 63.3177 51.1755 63.4866C51.4542 63.571 51.8104 63.6884 52.2442 63.8388C52.6885 63.9872 53.1925 64.1613 53.7562 64.3613C54.3179 64.5509 54.9068 64.7675 55.5231 65.0112C56.1477 65.2423 56.7818 65.4931 57.4254 65.7639C58.0773 66.022 58.7094 66.2896 59.3217 66.5668L58.4773 68.3409ZM66.1642 64.4919C67.096 64.257 67.9049 63.9275 68.5909 63.5035C69.2749 63.069 69.786 62.5884 70.1242 62.0615C70.4729 61.5326 70.5936 61.0069 70.4864 60.4844L70.4123 60.124L71.2378 60.1668C71.1658 60.3994 71.0488 60.6248 70.8867 60.8432C70.7247 61.0616 70.5218 61.2666 70.278 61.4583C70.0425 61.6373 69.7704 61.7966 69.4615 61.9363C69.163 62.0738 68.8466 62.1769 68.5123 62.2456C67.8227 62.3872 67.2003 62.3789 66.6451 62.2207C66.0878 62.052 65.6187 61.7563 65.2379 61.3336C64.8675 60.9088 64.6158 60.3725 64.4828 59.7247C64.3476 59.0664 64.3769 58.4669 64.5708 57.9262C64.7646 57.3855 65.0959 56.9309 65.5647 56.5624C66.0418 56.1813 66.6356 55.9177 67.3461 55.7718C67.9312 55.6517 68.4584 55.6468 68.9275 55.7574C69.3967 55.8679 69.881 56.0788 70.3805 56.39L69.3321 56.932L68.1959 51.3995L70.0766 51.0132L71.538 58.1287L71.2295 57.3427C71.4924 57.6154 71.6948 57.9114 71.8366 58.2307C71.9867 58.5375 72.1036 58.8946 72.1873 59.3021C72.404 60.3574 72.3327 61.3357 71.9733 62.2371C71.614 63.1385 70.9946 63.9136 70.1152 64.5625C69.2379 65.2218 68.1276 65.7275 66.7843 66.0796L66.1642 64.4919ZM68.5103 60.6453C68.782 60.5895 69.0148 60.5035 69.2087 60.3875C69.411 60.2588 69.5755 60.1053 69.7021 59.9268C69.8288 59.7483 69.9125 59.546 69.9532 59.3199C69.9939 59.0938 69.9884 58.8553 69.9369 58.6045C69.8275 58.0717 69.5797 57.687 69.1936 57.4505C68.8179 57.2119 68.3584 57.1483 67.8151 57.2599C67.2822 57.3693 66.8797 57.6099 66.6076 57.9816C66.3459 58.3511 66.2698 58.8023 66.3792 59.3352C66.4822 59.8367 66.7278 60.211 67.1161 60.4579C67.5022 60.6944 67.967 60.7568 68.5103 60.6453ZM61.2926 56.28L60.9836 54.7754L74.8071 51.9365L75.1161 53.4411L61.2926 56.28ZM85.6701 62.201C84.1237 62.5186 82.8706 62.5146 81.9108 62.189C80.9615 61.8613 80.3935 61.2429 80.2068 60.3339C80.048 59.5607 80.2433 58.8944 80.7927 58.3352C81.3504 57.7633 82.1934 57.3615 83.3219 57.1297C84.3876 56.9108 85.2277 56.9452 85.8422 57.2328C86.4544 57.51 86.841 58.0404 87.002 58.824C87.0599 59.1061 87.0803 59.4177 87.0633 59.7588C87.0567 60.0977 87.0156 60.4546 86.9401 60.8295L85.1775 60.9954C85.2508 60.6101 85.2931 60.2857 85.3043 60.022C85.3259 59.7563 85.3174 59.5293 85.2788 59.3412C85.1329 58.6307 84.5375 58.3828 83.4926 58.5974C82.9598 58.7068 82.56 58.8815 82.2935 59.1213C82.0353 59.3486 81.9394 59.6242 82.006 59.9481C82.0961 60.3869 82.424 60.6844 82.9896 60.8404C83.5531 60.986 84.2736 60.9687 85.1513 60.7885C86.8336 60.443 88.0317 59.941 88.7459 59.2826C89.4683 58.6115 89.7244 57.764 89.5141 56.74C89.336 55.8728 88.8812 55.302 88.1497 55.0275C87.4286 54.7509 86.368 54.7564 84.9679 55.0439C84.1634 55.2092 83.4679 55.4282 82.8815 55.7011C82.2929 55.9635 81.7675 56.2947 81.3051 56.6945L79.4809 58.3105L78.4325 57.0231L86.3176 50.2423L86.3787 50.54L78.4012 52.1784L78.0761 50.5954L88.7964 48.3938L89.1215 49.9768L82.339 55.7635L81.2031 55.1638C81.5034 54.9823 81.8424 54.8038 82.2201 54.6282C82.6062 54.44 83.0017 54.2717 83.4068 54.1232C83.8202 53.962 84.2211 53.8198 84.6095 53.6965C84.9959 53.5627 85.351 53.4625 85.6749 53.396C87.2631 53.0699 88.549 53.1542 89.5327 53.6491C90.5163 54.144 91.1348 55.0079 91.388 56.2409C91.6905 57.7141 91.3435 58.9669 90.3468 59.9992C89.3605 61.0293 87.8016 61.7632 85.6701 62.201Z" fill="white"/>
<g filter="url(#filter4_d_122_1132)">
<rect x="143" y="152.969" width="91" height="29" transform="rotate(-10.7471 143 152.969)" fill="#128FCD" fill-opacity="0.2" shape-rendering="crispEdges"/>
<rect x="144.169" y="153.765" width="89" height="27" transform="rotate(-10.7471 144.169 153.765)" stroke="#48BCCB" stroke-opacity="0.5" stroke-width="2" shape-rendering="crispEdges"/>
</g>
<path d="M180.3 168.486C180.195 168.506 180.09 168.526 179.986 168.546C179.881 168.565 179.775 168.58 179.668 168.59C179.216 168.665 178.868 168.693 178.626 168.673C178.385 168.665 178.212 168.584 178.107 168.43C178.012 168.274 177.933 168.029 177.87 167.693L177.279 164.581L174.795 165.052L174.506 163.527L179.269 162.623L179.048 161.46L174.285 162.364L174.031 161.028L178.794 160.124L178.574 158.961L173.811 159.865L173.557 158.529L178.32 157.625L178.099 156.461L173.336 157.365L174.795 165.052L173.019 165.389L171.265 156.146L179.643 154.556L181.397 163.799L179.055 164.244L179.482 166.492C179.526 166.722 179.568 166.861 179.61 166.907C179.651 166.953 179.73 166.971 179.847 166.96C179.912 166.958 179.971 166.952 180.023 166.942C180.084 166.92 180.136 166.905 180.178 166.897C180.251 166.883 180.32 166.875 180.385 166.874C180.448 166.862 180.504 166.846 180.555 166.825C180.668 166.793 180.754 166.76 180.813 166.727C180.87 166.684 180.902 166.596 180.91 166.465C180.915 166.323 180.896 166.104 180.85 165.808C180.805 165.513 180.736 165.092 180.643 164.545L182.377 164.411C182.502 165.245 182.585 165.908 182.624 166.4C182.661 166.882 182.632 167.245 182.538 167.491C182.443 167.737 182.265 167.912 182.002 168.016C181.752 168.129 181.399 168.239 180.942 168.348C180.837 168.368 180.727 168.389 180.611 168.411C180.509 168.441 180.405 168.466 180.3 168.486ZM168.276 169.661L167.783 168.093C168.317 167.872 168.858 167.634 169.406 167.378C169.965 167.12 170.521 166.846 171.074 166.556C171.638 166.265 172.18 165.972 172.699 165.678L173.152 167.204C172.643 167.496 172.107 167.794 171.546 168.096C170.982 168.387 170.422 168.667 169.865 168.936C169.308 169.204 168.778 169.446 168.276 169.661ZM172.501 170.211L171.58 168.789C172.832 168.237 173.709 167.593 174.209 166.857C174.708 166.111 174.868 165.266 174.689 164.323L176.454 164.184C176.651 165.503 176.416 166.672 175.751 167.688C175.085 168.694 174.001 169.535 172.501 170.211ZM169.476 167.658L168.691 163.524L167.213 163.804L166.909 162.201L168.387 161.92L167.802 158.839L166.167 159.15L165.854 157.499L170.884 156.544L171.197 158.195L169.61 158.496L170.194 161.577L171.688 161.294L171.992 162.897L170.499 163.181L171.283 167.315L169.476 167.658ZM196.197 164.638C195.537 164.763 195.017 164.683 194.637 164.397C194.265 164.098 194.006 163.561 193.859 162.786L192.77 157.048C192.651 156.419 192.484 155.973 192.272 155.709C192.069 155.444 191.805 155.342 191.481 155.404C191.282 155.441 191.059 155.554 190.812 155.742C190.563 155.92 190.264 156.199 189.913 156.581C189.572 156.96 189.163 157.467 188.686 158.1C188.208 158.723 187.638 159.499 186.978 160.427L186.806 160.46C186.451 160.994 186.049 161.592 185.599 162.253C185.159 162.911 184.679 163.643 184.159 164.448L182.848 163.117C183.934 161.575 184.869 160.268 185.654 159.197C186.438 158.125 187.117 157.241 187.691 156.546C188.265 155.851 188.758 155.301 189.17 154.898C189.592 154.492 189.976 154.196 190.321 154.011C190.676 153.825 191.032 153.697 191.388 153.63C192.237 153.469 192.926 153.609 193.455 154.052C193.993 154.482 194.357 155.2 194.548 156.206L195.559 161.534C195.631 161.912 195.696 162.198 195.755 162.393C195.824 162.586 195.892 162.715 195.958 162.778C196.033 162.829 196.128 162.843 196.243 162.822C196.432 162.786 196.677 162.674 196.978 162.487C197.289 162.297 197.622 162.05 197.977 161.743L198.816 163.245C198.398 163.618 197.967 163.922 197.523 164.158C197.079 164.395 196.637 164.554 196.197 164.638ZM187.366 167.015L185.558 157.489L182.036 158.157L181.732 156.554L185.253 155.885L184.818 153.59L186.641 153.244L189.189 166.668L187.366 167.015ZM206.673 163.285C205.122 163.579 203.869 163.556 202.914 163.217C201.97 162.875 201.411 162.248 201.238 161.336C201.091 160.561 201.296 159.897 201.854 159.346C202.42 158.783 203.269 158.394 204.401 158.179C205.47 157.976 206.309 158.023 206.919 158.32C207.527 158.606 207.906 159.142 208.055 159.928C208.109 160.211 208.125 160.523 208.102 160.864C208.091 161.203 208.044 161.559 207.963 161.932L206.198 162.072C206.277 161.688 206.324 161.364 206.34 161.101C206.365 160.835 206.36 160.608 206.324 160.42C206.189 159.707 205.597 159.45 204.55 159.649C204.015 159.75 203.613 159.919 203.343 160.155C203.081 160.378 202.981 160.652 203.043 160.977C203.126 161.417 203.45 161.72 204.013 161.884C204.574 162.038 205.295 162.032 206.175 161.865C207.862 161.544 209.068 161.061 209.792 160.413C210.524 159.753 210.793 158.909 210.598 157.882C210.433 157.012 209.987 156.435 209.26 156.149C208.543 155.862 207.482 155.852 206.078 156.118C205.271 156.271 204.572 156.48 203.982 156.744C203.389 156.997 202.859 157.321 202.391 157.714L200.543 159.302L199.514 157.999L207.499 151.337L207.556 151.636L199.555 153.154L199.254 151.567L210.006 149.526L210.307 151.114L203.438 156.798L202.312 156.181C202.615 156.005 202.956 155.831 203.337 155.661C203.725 155.479 204.123 155.316 204.531 155.174C204.946 155.019 205.349 154.883 205.74 154.765C206.128 154.637 206.485 154.543 206.809 154.481C208.402 154.179 209.687 154.282 210.663 154.792C211.639 155.301 212.245 156.174 212.479 157.411C212.76 158.889 212.394 160.136 211.382 161.153C210.38 162.169 208.811 162.879 206.673 163.285Z" fill="white"/>
<g filter="url(#filter5_d_122_1132)">
<rect x="165.996" y="36" width="91" height="29" transform="rotate(5.92992 165.996 36)" fill="#128FCD" fill-opacity="0.2" shape-rendering="crispEdges"/>
<rect x="166.887" y="37.098" width="89" height="27" transform="rotate(5.92992 166.887 37.098)" stroke="#48BCCB" stroke-opacity="0.5" stroke-width="2" shape-rendering="crispEdges"/>
</g>
<path d="M170.823 59.1425L170.518 57.5827C171.899 57.6081 173.109 57.5783 174.147 57.4931C175.197 57.3984 176.113 57.2523 176.895 57.0547C177.678 56.8464 178.359 56.5848 178.939 56.2696C179.519 55.9545 180.035 55.5791 180.488 55.1436L182.066 55.9027C181.58 56.4527 180.998 56.9393 180.322 57.3623C179.657 57.7758 178.87 58.1178 177.963 58.3881C177.054 58.6691 176.009 58.8715 174.827 58.9954C173.656 59.1204 172.321 59.1695 170.823 59.1425ZM170.862 56.4441L169.974 55.0811C171.193 54.8002 172.302 54.4489 173.301 54.0271C174.3 53.5947 175.104 53.1313 175.713 52.6369L177.451 53.2517C176.952 53.7147 176.355 54.1513 175.658 54.5615C174.973 54.9622 174.222 55.3239 173.406 55.6466C172.601 55.9599 171.753 56.2257 170.862 56.4441ZM176.728 58.3563C176.221 57.9712 175.692 57.5892 175.142 57.2103C174.602 56.8325 174.075 56.4829 173.561 56.1615L174.972 55.2785C175.515 55.6245 176.057 55.9863 176.597 56.3641C177.147 56.743 177.671 57.1192 178.169 57.4926L176.728 58.3563ZM169.892 54.3166L170.206 51.2928L184.593 52.7871L184.262 55.97L182.385 55.7749L182.566 54.0244L171.936 52.9202L171.77 54.5116L169.892 54.3166ZM174.029 55.0679L174.171 53.6993L182.208 54.534L182.066 55.9027L174.029 55.0679ZM171.257 50.9354L171.612 47.5138L183.994 48.7999L183.638 52.2215L173.071 51.1239L173.194 49.9462L181.946 50.8554L182.061 49.7573L180.23 49.5672L180.116 50.6653L178.525 50.5L178.639 49.4019L176.729 49.2035L176.615 50.3016L175.024 50.1363L175.138 49.0382L173.308 48.8481L173.071 51.1239L171.257 50.9354ZM174.039 47.8463L174.12 47.0665L170.667 46.7078L170.82 45.2278L174.274 45.5865L174.358 44.7748L176.22 44.9682L176.136 45.7799L179.923 46.1733L180.008 45.3617L181.87 45.5551L181.785 46.3667L185.239 46.7254L185.085 48.2054L181.632 47.8467L181.551 48.6265L179.689 48.4331L179.77 47.6533L175.982 47.2599L175.901 48.0397L174.039 47.8463ZM194.15 57.7209C194.278 56.4902 194.305 55.5117 194.23 54.7854C194.167 54.0497 193.982 53.5103 193.674 53.1674C193.377 52.8255 192.937 52.6243 192.354 52.5637C191.844 52.5108 191.338 52.5816 190.836 52.776C190.343 52.9715 189.831 53.315 189.297 53.8065C188.775 54.2885 188.187 54.9459 187.532 55.7787L186.065 54.7255C186.68 53.9637 187.225 53.2589 187.7 52.6111C188.185 51.9645 188.627 51.3294 189.024 50.7057C189.433 50.0726 189.811 49.4255 190.158 48.7646C190.518 48.0941 190.872 47.3642 191.222 46.5748L193.069 47.0722C192.637 48.0247 192.193 48.9008 191.734 49.7004C191.277 50.4893 190.783 51.2692 190.253 52.0398L189.849 51.7406C190.347 51.492 190.869 51.321 191.415 51.2275C191.972 51.1246 192.522 51.1012 193.063 51.1574C193.943 51.2489 194.627 51.5344 195.113 52.0138C195.61 52.4944 195.932 53.2195 196.078 54.1891C196.225 55.1481 196.219 56.3915 196.06 57.9193L194.15 57.7209ZM193.656 60.935C192.022 60.7653 190.769 60.3832 189.898 59.7887C189.026 59.2047 188.635 58.4725 188.727 57.5919C188.791 56.9765 189.087 56.396 189.615 55.8504C190.145 55.2941 190.878 54.7965 191.813 54.3575C192.76 53.9196 193.877 53.5423 195.164 53.2256C196.463 52.91 197.914 52.6694 199.518 52.5036L199.643 54.0929C198.309 54.2332 197.099 54.4239 196.012 54.6649C194.936 54.907 194.001 55.1852 193.207 55.4996C192.425 55.8044 191.811 56.1374 191.366 56.4987C190.921 56.86 190.678 57.2316 190.639 57.6135C190.593 58.0591 190.843 58.439 191.389 58.7532C191.947 59.0578 192.762 59.2657 193.834 59.3771C194.491 59.4454 195.228 59.479 196.043 59.4778C196.859 59.4661 197.743 59.4239 198.694 59.3511L198.784 60.969C198.233 61.0083 197.651 61.0336 197.039 61.0451C196.426 61.0565 195.826 61.0532 195.238 61.035C194.661 61.0179 194.133 60.9846 193.656 60.935ZM186.676 49.3037L186.833 47.7918L199.517 49.1093L199.36 50.6211L186.676 49.3037ZM203.248 61.3522L204.319 51.0397L208.712 51.4959L208.859 50.0796L210.673 50.268L210.526 51.6844L214.823 52.1307L214.175 58.3691L205.581 57.4765L205.721 56.1238L212.405 56.818L212.528 55.6404L205.844 54.9461L205.976 53.673L212.66 54.3672L212.772 53.285L206.088 52.5908L205.158 61.5506L203.248 61.3522ZM201.511 62.1209L201.527 60.5783C202.829 60.6384 204.156 60.6637 205.508 60.654C206.86 60.6443 208.232 60.6045 209.623 60.5344L209.626 62.0469C208.235 62.1276 206.863 62.1727 205.51 62.1824C204.157 62.2027 202.824 62.1822 201.511 62.1209ZM214.859 63.5555C213.708 63.168 212.646 62.6608 211.671 62.034C210.705 61.419 209.862 60.7094 209.141 59.9053C208.421 59.0906 207.862 58.2282 207.463 57.3181L209.041 56.8386C209.373 57.5701 209.837 58.2618 210.434 58.9136C211.042 59.5666 211.79 60.1643 212.677 60.7069C213.575 61.2506 214.623 61.7455 215.821 62.1916L214.859 63.5555ZM211.68 61.1664L210.823 59.8226C211.541 59.5112 212.231 59.1699 212.891 58.7988C213.563 58.4289 214.21 58.0296 214.834 57.6011L215.846 58.8484C214.552 59.7435 213.163 60.5161 211.68 61.1664ZM202.319 52.328L202.057 50.676C203.345 50.3487 204.53 49.9945 205.609 49.6134C206.689 49.2322 207.747 48.8006 208.784 48.3184L211.108 48.5598C212.023 49.2447 212.97 49.8846 213.949 50.4795C214.927 51.0745 216.013 51.6645 217.207 52.2497L216.61 53.8124C215.314 53.1844 214.106 52.5228 212.988 51.8275C211.871 51.1217 210.818 50.3689 209.829 49.569C208.696 50.1485 207.511 50.6688 206.272 51.13C205.035 51.5806 203.717 51.9799 202.319 52.328ZM230.681 63.7673C229.969 62.8784 229.32 62.0602 228.732 61.3129C228.156 60.5666 227.614 59.8455 227.107 59.1494C226.612 58.4438 226.117 57.7435 225.62 57.0485C225.285 56.5633 225.007 56.1912 224.787 55.9325C224.578 55.6748 224.404 55.4905 224.266 55.3796C224.127 55.2687 223.989 55.2061 223.851 55.1918C223.713 55.1774 223.564 55.2156 223.404 55.3063C223.257 55.3874 223.062 55.5549 222.821 55.8087C222.591 56.0637 222.274 56.4382 221.868 56.9323C221.462 57.437 221.002 57.9898 220.49 58.5907C219.978 59.181 219.36 59.8622 218.637 60.6342L217.317 59.2425C218.04 58.481 218.674 57.7909 219.221 57.1721C219.779 56.5544 220.277 55.9895 220.716 55.4775C221.244 54.8353 221.686 54.3503 222.042 54.0226C222.399 53.6844 222.727 53.4664 223.027 53.3689C223.338 53.2618 223.679 53.2276 224.051 53.2661C224.327 53.2948 224.573 53.3525 224.789 53.4393C225.006 53.5155 225.218 53.6394 225.426 53.8111C225.644 53.9839 225.876 54.2278 226.122 54.5429C226.38 54.8485 226.687 55.2451 227.044 55.7326C227.895 56.9362 228.736 58.0799 229.567 59.1636C230.398 60.2472 231.266 61.3348 232.172 62.4262L230.681 63.7673ZM228.692 55.3568C228.505 54.7797 228.294 54.2323 228.058 53.7145C227.833 53.1978 227.567 52.6608 227.26 52.1035L228.724 51.4834C229.031 52.0407 229.301 52.5889 229.534 53.1279C229.769 53.6563 229.984 54.2149 230.181 54.8037L228.692 55.3568ZM231.205 54.7009C231.029 54.125 230.829 53.5733 230.605 53.046C230.391 52.5198 230.136 51.9786 229.84 51.4224L231.299 50.85C231.595 51.4063 231.855 51.9534 232.078 52.4913C232.311 53.0303 232.514 53.6037 232.687 54.2114L231.205 54.7009ZM239.944 65.8072C238.374 65.6441 237.18 65.2628 236.363 64.6631C235.557 64.0646 235.201 63.3038 235.297 62.3808C235.379 61.5957 235.766 61.0193 236.458 60.6515C237.162 60.2742 238.087 60.1451 239.233 60.2641C240.315 60.3765 241.106 60.6624 241.605 61.1217C242.105 61.5705 242.314 62.1927 242.232 62.9885C242.202 63.2749 242.127 63.5782 242.008 63.8983C241.9 64.2194 241.753 64.5474 241.568 64.8821L239.838 64.5093C240.024 64.164 240.162 63.8673 240.252 63.6193C240.353 63.3724 240.413 63.1534 240.433 62.9625C240.508 62.241 240.015 61.8252 238.954 61.715C238.413 61.6588 237.979 61.7049 237.652 61.8533C237.338 61.9922 237.163 62.2261 237.129 62.555C237.083 63.0006 237.306 63.383 237.798 63.7022C238.292 64.0109 238.984 64.2115 239.875 64.304C241.583 64.4815 242.877 64.3638 243.756 63.9511C244.647 63.5289 245.147 62.798 245.255 61.7582C245.346 60.8776 245.085 60.1963 244.47 59.7142C243.866 59.2332 242.853 58.9188 241.431 58.7712C240.614 58.6863 239.885 58.6857 239.243 58.7692C238.603 58.8421 238.002 58.9995 237.441 59.2415L235.215 60.2328L234.603 58.6893L244.165 54.5993L244.133 54.9016L236.033 54.0603L236.2 52.4529L247.085 53.5836L246.918 55.1909L238.707 58.6652L237.805 57.7511C238.146 57.6686 238.523 57.6005 238.936 57.5469C239.361 57.4838 239.789 57.4424 240.22 57.4228C240.663 57.3937 241.088 57.3789 241.495 57.3784C241.904 57.3672 242.273 57.3787 242.602 57.4128C244.214 57.5803 245.415 58.0482 246.204 58.8165C246.993 59.5848 247.322 60.5949 247.192 61.8468C247.037 63.3428 246.328 64.4328 245.067 65.1168C243.816 65.8019 242.108 66.032 239.944 65.8072Z" fill="white"/>
<g filter="url(#filter6_d_122_1132)">
<rect x="204" y="97.7579" width="91" height="29" transform="rotate(-11.253 204 97.7579)" fill="#128FCD" fill-opacity="0.2" shape-rendering="crispEdges"/>
<rect x="205.176" y="98.5436" width="89" height="27" transform="rotate(-11.253 205.176 98.5436)" stroke="#48BCCB" stroke-opacity="0.5" stroke-width="2" shape-rendering="crispEdges"/>
</g>
<path d="M221.722 114.632L220.622 109.108L216.637 109.901L216.331 108.364L220.316 107.571L219.411 103.02L221.263 102.651L222.168 107.202L226.06 106.428L226.366 107.966L222.474 108.74L223.573 114.264L221.722 114.632ZM214.67 118.547L213.523 117.21C214.042 116.704 214.503 116.204 214.905 115.711C215.316 115.205 215.679 114.682 215.995 114.14L217.281 115.189C216.96 115.764 216.587 116.323 216.162 116.864C215.747 117.403 215.25 117.964 214.67 118.547ZM215.285 115.407L214.511 111.515L212.69 111.878L212.378 110.308L215.987 109.59L217.074 115.051L215.285 115.407ZM223.769 116.476C222.691 116.69 221.749 116.845 220.941 116.941C220.133 117.036 219.438 117.066 218.854 117.03C218.283 117.002 217.791 116.904 217.377 116.736C216.963 116.569 216.601 116.336 216.292 116.039C215.993 115.739 215.713 115.371 215.452 114.933L216.952 114.521C217.149 114.743 217.36 114.929 217.585 115.08C217.811 115.231 218.073 115.342 218.37 115.413C218.675 115.472 219.055 115.494 219.508 115.48C219.962 115.466 220.512 115.411 221.156 115.316C221.811 115.218 222.599 115.078 223.519 114.894L227.85 114.033L228.053 115.624L223.769 116.476ZM218.317 114.657L216.909 113.648C217.799 112.656 218.535 111.682 219.118 110.729C219.709 109.763 220.154 108.805 220.454 107.853L221.854 107.917C221.555 109.097 221.101 110.258 220.492 111.402C219.892 112.544 219.167 113.629 218.317 114.657ZM215.01 108.202C214.473 107.798 213.932 107.405 213.389 107.024C212.843 106.632 212.295 106.257 211.746 105.899L212.798 104.548C213.337 104.908 213.875 105.285 214.41 105.679C214.943 106.062 215.474 106.462 216.003 106.879L215.01 108.202ZM226.737 113.031C225.579 112.402 224.51 111.674 223.53 110.847C222.549 110.019 221.689 109.114 220.95 108.13L221.917 107.334C222.558 108.098 223.332 108.814 224.237 109.482C225.14 110.14 226.182 110.759 227.364 111.34L226.737 113.031ZM218.063 107.725C217.698 107.2 217.312 106.684 216.907 106.177C216.512 105.668 216.129 105.19 215.757 104.742L217.17 103.808C217.554 104.265 217.94 104.754 218.326 105.275C218.723 105.794 219.1 106.323 219.457 106.861L218.063 107.725ZM224.359 106.489L222.671 106.205C222.856 105.602 223.018 104.994 223.156 104.379C223.303 103.752 223.417 103.147 223.497 102.566L225.169 102.771C225.1 103.351 224.993 103.965 224.851 104.613C224.708 105.261 224.544 105.887 224.359 106.489ZM234.223 114.657L233.277 109.902L242.472 108.073L243.418 112.827L241.52 113.205L241.398 112.593L235.937 113.68L235.656 112.267L241.117 111.181L240.855 109.863L235.394 110.949L236.059 114.292L234.223 114.657ZM230.77 115.344L228.769 105.285L230.605 104.92L232.606 114.979L230.77 115.344ZM228.695 110.324L227.699 108.271C228.035 107.552 228.306 106.813 228.514 106.054C228.73 105.282 228.89 104.473 228.993 103.625C229.105 102.766 229.16 101.841 229.159 100.852L230.948 100.822C230.985 101.881 230.947 102.894 230.835 103.863C230.721 104.821 230.544 105.704 230.302 106.514L230.089 106.181C230.045 106.505 229.973 106.856 229.875 107.235C229.784 107.601 229.674 107.976 229.544 108.361C229.412 108.735 229.271 109.095 229.123 109.44C228.982 109.773 228.84 110.067 228.695 110.324ZM233.271 109.055L232.993 107.658L241.875 105.891L242.153 107.288L233.271 109.055ZM232.828 106.827L232.547 105.414L241.429 103.647L241.71 105.06L232.828 106.827ZM231.6 104.755L231.297 103.232L241.858 101.131L242.161 102.653L231.6 104.755ZM232.158 102.229L231.871 100.785L240.596 99.0494L240.883 100.493L232.158 102.229ZM245.287 111.314C245.476 110.243 245.639 109.259 245.776 108.361C245.911 107.454 246.022 106.589 246.108 105.767C246.205 104.943 246.274 104.113 246.315 103.279C246.366 102.442 246.391 101.556 246.39 100.621C246.388 99.6859 246.369 98.6566 246.33 97.5332L248.191 97.3751C248.232 98.4545 248.254 99.467 248.257 100.413C248.258 101.348 248.232 102.256 248.179 103.136C248.134 104.004 248.063 104.878 247.966 105.756C247.879 106.632 247.761 107.542 247.612 108.486C247.473 109.427 247.304 110.439 247.107 111.523L245.287 111.314ZM257.589 106.729C257.37 106.12 257.111 105.475 256.813 104.795C256.522 104.103 256.206 103.415 255.864 102.733C255.521 102.05 255.174 101.396 254.821 100.771L256.46 99.9061C256.817 100.553 257.169 101.228 257.515 101.931C257.87 102.622 258.2 103.323 258.505 104.034C258.807 104.736 259.077 105.41 259.315 106.059L257.589 106.729ZM254.524 99.9324C254.137 99.4112 253.768 98.9516 253.417 98.5538C253.066 98.156 252.685 97.7697 252.273 97.3948L253.426 96.3824C253.85 96.7657 254.241 97.1719 254.598 97.6011C254.966 98.0282 255.337 98.4982 255.711 99.0111L254.524 99.9324ZM256.555 98.6636C256.187 98.1277 255.833 97.6598 255.493 97.2599C255.15 96.8496 254.784 96.4601 254.396 96.0916L255.526 95.1325C255.953 95.5262 256.339 95.9387 256.686 96.37C257.043 96.7992 257.399 97.2775 257.755 97.805L256.555 98.6636ZM252.775 110.003C252.503 110.057 252.156 110.088 251.733 110.096C251.313 110.115 250.865 110.106 250.39 110.07C249.928 110.042 249.478 109.996 249.041 109.93L249.15 108.261C249.516 108.297 249.876 108.334 250.232 108.372C250.596 108.398 250.925 108.414 251.22 108.42C251.524 108.414 251.754 108.396 251.911 108.364C252.246 108.298 252.493 108.091 252.652 107.744C252.809 107.386 252.875 106.868 252.848 106.188C252.83 105.495 252.717 104.626 252.509 103.58C252.388 102.973 252.27 102.491 252.155 102.133C252.039 101.765 251.894 101.5 251.72 101.339C251.557 101.175 251.339 101.088 251.065 101.077C250.791 101.067 250.434 101.105 249.994 101.192L243.341 102.516L243.016 100.884L249.497 99.5948C250.219 99.4512 250.827 99.3629 251.32 99.3299C251.823 99.2844 252.231 99.3172 252.547 99.4284C252.873 99.5375 253.144 99.7501 253.359 100.066C253.583 100.37 253.772 100.8 253.926 101.356C254.089 101.9 254.253 102.591 254.42 103.428C254.69 104.788 254.815 105.932 254.793 106.861C254.771 107.79 254.589 108.517 254.248 109.041C253.915 109.554 253.424 109.874 252.775 110.003ZM265.215 105.783L264.072 100.039L262.914 94.2173L264.687 93.8645L265.845 99.6864L266.988 105.43L265.215 105.783ZM259.75 98.3216L259.45 96.8152L272.067 94.3048L272.366 95.8113L259.75 98.3216ZM269.31 105.539C269.934 105.284 270.453 104.969 270.867 104.593C271.29 104.204 271.583 103.765 271.747 103.276C271.921 102.784 271.956 102.277 271.852 101.754C271.734 101.158 271.464 100.678 271.044 100.316C270.634 99.9516 270.102 99.7094 269.448 99.5895C268.793 99.4696 268.047 99.493 267.21 99.6595C266.447 99.8114 265.761 100.057 265.154 100.395C264.545 100.723 264.036 101.118 263.628 101.579C263.22 102.041 262.934 102.544 262.77 103.088C262.604 103.621 262.58 104.181 262.696 104.767C262.783 105.206 262.932 105.541 263.141 105.771C263.358 105.989 263.608 106.07 263.89 106.013C264.162 105.959 264.476 105.788 264.832 105.5C265.188 105.211 265.569 104.831 265.976 104.359C266.392 103.884 266.808 103.35 267.223 102.757C267.648 102.161 268.05 101.532 268.43 100.869C268.809 100.206 269.147 99.5296 269.445 98.8396L271.02 99.4562C270.638 100.326 270.221 101.154 269.768 101.94C269.316 102.726 268.841 103.457 268.345 104.132C267.857 104.795 267.359 105.383 266.853 105.897C266.354 106.399 265.859 106.807 265.367 107.123C264.875 107.438 264.404 107.64 263.955 107.73C263.212 107.878 262.566 107.718 262.016 107.251C261.477 106.782 261.116 106.092 260.935 105.182C260.773 104.366 260.792 103.585 260.991 102.838C261.201 102.09 261.559 101.404 262.066 100.781C262.581 100.145 263.225 99.6095 263.998 99.1731C264.768 98.7262 265.639 98.4059 266.612 98.2123C267.91 97.9542 269.049 97.9125 270.03 98.0871C271.019 98.2491 271.825 98.6108 272.448 99.172C273.071 99.7333 273.474 100.474 273.657 101.395C273.811 102.169 273.765 102.923 273.52 103.657C273.285 104.389 272.877 105.047 272.297 105.63C271.727 106.211 271.023 106.661 270.184 106.98L269.31 105.539ZM283.453 104.389C281.905 104.697 280.652 104.685 279.694 104.354C278.747 104.02 278.183 103.398 278.002 102.488C277.848 101.714 278.047 101.049 278.6 100.493C279.161 99.9245 280.007 99.5278 281.136 99.303C282.204 99.0907 283.043 99.1303 283.656 99.4216C284.267 99.7026 284.65 100.235 284.806 101.02C284.862 101.302 284.881 101.614 284.862 101.955C284.853 102.294 284.81 102.651 284.732 103.025L282.968 103.18C283.044 102.795 283.088 102.471 283.101 102.208C283.124 101.942 283.117 101.715 283.08 101.527C282.938 100.815 282.344 100.564 281.298 100.772C280.765 100.878 280.364 101.05 280.096 101.288C279.836 101.514 279.739 101.789 279.803 102.113C279.891 102.553 280.217 102.852 280.781 103.012C281.344 103.161 282.065 103.148 282.943 102.973C284.628 102.638 285.829 102.143 286.547 101.489C287.274 100.823 287.535 99.9767 287.331 98.9515C287.158 98.0832 286.707 97.5095 285.977 97.2306C285.258 96.9496 284.197 96.9485 282.795 97.2274C281.99 97.3877 281.293 97.6025 280.705 97.8717C280.115 98.1306 279.587 98.4585 279.122 98.8555L277.288 100.46L276.248 99.1664L284.174 92.4341L284.234 92.7323L276.246 94.3215L275.931 92.7366L286.665 90.601L286.98 92.1859L280.162 97.9308L279.03 97.3241C279.331 97.1445 279.671 96.9681 280.05 96.7948C280.437 96.609 280.834 96.4431 281.24 96.2971C281.654 96.1385 282.056 95.9987 282.445 95.8778C282.832 95.7464 283.188 95.6484 283.512 95.5839C285.102 95.2675 286.388 95.3598 287.368 95.8607C288.349 96.3617 288.962 97.2294 289.208 98.4638C289.501 99.9389 289.147 101.19 288.144 102.216C287.151 103.24 285.588 103.964 283.453 104.389Z" fill="white"/>
<defs>
<filter id="filter0_d_122_1132" x="15" y="0" width="263.18" height="27" filterUnits="userSpaceOnUse" color-interpolation-filters="sRGB">
<feFlood flood-opacity="0" result="BackgroundImageFix"/>
<feColorMatrix in="SourceAlpha" type="matrix" values="0 0 0 0 0 0 0 0 0 0 0 0 0 0 0 0 0 0 127 0" result="hardAlpha"/>
<feOffset/>
<feGaussianBlur stdDeviation="2"/>
<feComposite in2="hardAlpha" operator="out"/>
<feColorMatrix type="matrix" values="0 0 0 0 1 0 0 0 0 1 0 0 0 0 1 0 0 0 0.6 0"/>
<feBlend mode="normal" in2="BackgroundImageFix" result="effect1_dropShadow_122_1132"/>
<feBlend mode="normal" in="SourceGraphic" in2="effect1_dropShadow_122_1132" result="shape"/>
</filter>
<filter id="filter1_d_122_1132" x="56" y="73.9999" width="134.621" height="55.2607" filterUnits="userSpaceOnUse" color-interpolation-filters="sRGB">
<feFlood flood-opacity="0" result="BackgroundImageFix"/>
<feColorMatrix in="SourceAlpha" type="matrix" values="0 0 0 0 0 0 0 0 0 0 0 0 0 0 0 0 0 0 127 0" result="hardAlpha"/>
<feOffset/>
<feGaussianBlur stdDeviation="3"/>
<feComposite in2="hardAlpha" operator="out"/>
<feColorMatrix type="matrix" values="0 0 0 0 0.282353 0 0 0 0 0.737255 0 0 0 0 0.796078 0 0 0 0.25 0"/>
<feBlend mode="normal" in2="BackgroundImageFix" result="effect1_dropShadow_122_1132"/>
<feBlend mode="normal" in="SourceGraphic" in2="effect1_dropShadow_122_1132" result="shape"/>
</filter>
<filter id="filter2_d_122_1132" x="0" y="108" width="106.605" height="77.4282" filterUnits="userSpaceOnUse" color-interpolation-filters="sRGB">
<feFlood flood-opacity="0" result="BackgroundImageFix"/>
<feColorMatrix in="SourceAlpha" type="matrix" values="0 0 0 0 0 0 0 0 0 0 0 0 0 0 0 0 0 0 127 0" result="hardAlpha"/>
<feOffset/>
<feGaussianBlur stdDeviation="3"/>
<feComposite in2="hardAlpha" operator="out"/>
<feColorMatrix type="matrix" values="0 0 0 0 0.282353 0 0 0 0 0.737255 0 0 0 0 0.796078 0 0 0 0.25 0"/>
<feBlend mode="normal" in2="BackgroundImageFix" result="effect1_dropShadow_122_1132"/>
<feBlend mode="normal" in="SourceGraphic" in2="effect1_dropShadow_122_1132" result="shape"/>
</filter>
<filter id="filter3_d_122_1132" x="8.01367" y="30.1431" width="106.974" height="58.7137" filterUnits="userSpaceOnUse" color-interpolation-filters="sRGB">
<feFlood flood-opacity="0" result="BackgroundImageFix"/>
<feColorMatrix in="SourceAlpha" type="matrix" values="0 0 0 0 0 0 0 0 0 0 0 0 0 0 0 0 0 0 127 0" result="hardAlpha"/>
<feOffset/>
<feGaussianBlur stdDeviation="3"/>
<feComposite in2="hardAlpha" operator="out"/>
<feColorMatrix type="matrix" values="0 0 0 0 0.282353 0 0 0 0 0.737255 0 0 0 0 0.796078 0 0 0 0.25 0"/>
<feBlend mode="normal" in2="BackgroundImageFix" result="effect1_dropShadow_122_1132"/>
<feBlend mode="normal" in="SourceGraphic" in2="effect1_dropShadow_122_1132" result="shape"/>
</filter>
<filter id="filter4_d_122_1132" x="137" y="130" width="106.812" height="57.4605" filterUnits="userSpaceOnUse" color-interpolation-filters="sRGB">
<feFlood flood-opacity="0" result="BackgroundImageFix"/>
<feColorMatrix in="SourceAlpha" type="matrix" values="0 0 0 0 0 0 0 0 0 0 0 0 0 0 0 0 0 0 127 0" result="hardAlpha"/>
<feOffset/>
<feGaussianBlur stdDeviation="3"/>
<feComposite in2="hardAlpha" operator="out"/>
<feColorMatrix type="matrix" values="0 0 0 0 0.282353 0 0 0 0 0.737255 0 0 0 0 0.796078 0 0 0 0.25 0"/>
<feBlend mode="normal" in2="BackgroundImageFix" result="effect1_dropShadow_122_1132"/>
<feBlend mode="normal" in="SourceGraphic" in2="effect1_dropShadow_122_1132" result="shape"/>
</filter>
<filter id="filter5_d_122_1132" x="157" y="30" width="105.509" height="50.2462" filterUnits="userSpaceOnUse" color-interpolation-filters="sRGB">
<feFlood flood-opacity="0" result="BackgroundImageFix"/>
<feColorMatrix in="SourceAlpha" type="matrix" values="0 0 0 0 0 0 0 0 0 0 0 0 0 0 0 0 0 0 127 0" result="hardAlpha"/>
<feOffset/>
<feGaussianBlur stdDeviation="3"/>
<feComposite in2="hardAlpha" operator="out"/>
<feColorMatrix type="matrix" values="0 0 0 0 0.282353 0 0 0 0 0.737255 0 0 0 0 0.796078 0 0 0 0.25 0"/>
<feBlend mode="normal" in2="BackgroundImageFix" result="effect1_dropShadow_122_1132"/>
<feBlend mode="normal" in="SourceGraphic" in2="effect1_dropShadow_122_1132" result="shape"/>
</filter>
<filter id="filter6_d_122_1132" x="198" y="74" width="106.909" height="58.2004" filterUnits="userSpaceOnUse" color-interpolation-filters="sRGB">
<feFlood flood-opacity="0" result="BackgroundImageFix"/>
<feColorMatrix in="SourceAlpha" type="matrix" values="0 0 0 0 0 0 0 0 0 0 0 0 0 0 0 0 0 0 127 0" result="hardAlpha"/>
<feOffset/>
<feGaussianBlur stdDeviation="3"/>
<feComposite in2="hardAlpha" operator="out"/>
<feColorMatrix type="matrix" values="0 0 0 0 0.282353 0 0 0 0 0.737255 0 0 0 0 0.796078 0 0 0 0.25 0"/>
<feBlend mode="normal" in2="BackgroundImageFix" result="effect1_dropShadow_122_1132"/>
<feBlend mode="normal" in="SourceGraphic" in2="effect1_dropShadow_122_1132" result="shape"/>
</filter>
</defs>
</svg>
