<svg width="269" height="175" viewBox="0 0 269 175" fill="none" xmlns="http://www.w3.org/2000/svg">
<g filter="url(#filter0_d_122_773)">
<rect x="81" y="5" width="64" height="17" stroke="white" stroke-width="2"/>
<rect x="12" y="5" width="64" height="17" stroke="white" stroke-width="2"/>
<path d="M154.916 18.372V17.1H152.672V16.08H154.916V15.276L154.94 15.156V12.3L154.916 12.228V11.376H152.576V10.356H154.916V9.264H156.344V10.356H158.468V11.376H156.344V12.204L156.332 12.3V15.156L156.344 15.336V16.08H158.312V17.1H156.344V18.372H154.916ZM152.528 18.96L152.456 17.832C152.904 17.816 153.372 17.796 153.86 17.772C154.356 17.74 154.856 17.704 155.36 17.664C155.864 17.616 156.36 17.572 156.848 17.532C157.336 17.492 157.796 17.444 158.228 17.388L158.312 18.444C157.712 18.532 157.08 18.608 156.416 18.672C155.76 18.736 155.1 18.792 154.436 18.84C153.772 18.888 153.136 18.928 152.528 18.96ZM152.84 15.576V11.892H158.336V15.576H154.1V14.628H157.148V14.088H154.1V13.368H157.148V12.828H154.1V15.576H152.84ZM158.924 19.056L157.82 18.336C158.06 17.984 158.272 17.604 158.456 17.196C158.648 16.78 158.812 16.308 158.948 15.78C159.084 15.252 159.196 14.636 159.284 13.932C159.372 13.228 159.436 12.412 159.476 11.484C159.516 10.548 159.536 9.464 159.536 8.232H160.844C160.844 9.496 160.82 10.62 160.772 11.604C160.724 12.588 160.652 13.456 160.556 14.208C160.46 14.96 160.336 15.624 160.184 16.2C160.032 16.776 159.852 17.296 159.644 17.76C159.444 18.216 159.204 18.648 158.924 19.056ZM161.876 18.852C161.724 18.852 161.492 18.836 161.18 18.804C160.876 18.78 160.564 18.752 160.244 18.72L160.22 17.436C160.524 17.476 160.776 17.508 160.976 17.532C161.176 17.548 161.34 17.556 161.468 17.556C161.532 17.556 161.592 17.528 161.648 17.472C161.712 17.408 161.764 17.284 161.804 17.1C161.852 16.908 161.888 16.628 161.912 16.26C161.944 15.884 161.968 15.384 161.984 14.76C162 14.136 162.008 13.356 162.008 12.42V11.832H158.288V10.632H163.412V11.484C163.412 12.652 163.404 13.644 163.388 14.46C163.372 15.276 163.344 15.956 163.304 16.5C163.264 17.044 163.204 17.476 163.124 17.796C163.052 18.108 162.96 18.336 162.848 18.48C162.736 18.632 162.6 18.732 162.44 18.78C162.288 18.828 162.1 18.852 161.876 18.852ZM152.816 9.912L152.756 8.808C153.188 8.792 153.644 8.768 154.124 8.736C154.604 8.704 155.088 8.664 155.576 8.616C156.072 8.568 156.548 8.516 157.004 8.46C157.468 8.404 157.896 8.344 158.288 8.28L158.444 9.408C157.908 9.488 157.316 9.564 156.668 9.636C156.028 9.708 155.376 9.768 154.712 9.816C154.056 9.864 153.424 9.896 152.816 9.912ZM173.924 18.948C173.78 18.948 173.576 18.944 173.312 18.936C173.056 18.928 172.784 18.916 172.496 18.9C172.216 18.884 171.956 18.872 171.716 18.864L171.656 17.616C171.96 17.64 172.264 17.66 172.568 17.676C172.872 17.684 173.108 17.688 173.276 17.688C173.364 17.688 173.44 17.648 173.504 17.568C173.576 17.48 173.636 17.312 173.684 17.064C173.74 16.808 173.788 16.428 173.828 15.924C173.876 15.412 173.916 14.736 173.948 13.896C173.988 13.048 174.024 11.984 174.056 10.704H170.048V9.468H175.388C175.364 10.972 175.336 12.252 175.304 13.308C175.272 14.364 175.232 15.24 175.184 15.936C175.136 16.624 175.076 17.176 175.004 17.592C174.932 18 174.844 18.3 174.74 18.492C174.644 18.684 174.528 18.808 174.392 18.864C174.256 18.92 174.1 18.948 173.924 18.948ZM164.516 15.912L164.384 14.712C165.168 14.576 165.932 14.42 166.676 14.244C167.428 14.06 168.164 13.856 168.884 13.632L168.992 14.832C168.264 15.064 167.528 15.268 166.784 15.444C166.048 15.62 165.292 15.776 164.516 15.912ZM166.328 19.104V11.28H165.368V10.08H166.328V8.256H167.708V10.08H168.824V11.28H167.708V19.104H166.328ZM165.404 13.488L164.276 13.224C164.42 12.576 164.552 11.872 164.672 11.112C164.792 10.352 164.88 9.56 164.936 8.736L166.076 8.808C166.02 9.696 165.936 10.528 165.824 11.304C165.72 12.08 165.58 12.808 165.404 13.488ZM169.748 19.08L168.908 18.084C169.684 17.524 170.384 16.848 171.008 16.056C171.632 15.264 172.164 14.384 172.604 13.416C173.052 12.44 173.392 11.404 173.624 10.308L174.632 10.716C174.48 11.588 174.252 12.436 173.948 13.26C173.652 14.076 173.292 14.848 172.868 15.576C172.444 16.296 171.968 16.956 171.44 17.556C170.912 18.148 170.348 18.656 169.748 19.08ZM169.124 16.512L168.284 15.516C168.788 15.108 169.256 14.62 169.688 14.052C170.12 13.476 170.5 12.84 170.828 12.144C171.164 11.448 171.436 10.712 171.644 9.936L172.796 10.32C172.572 11.168 172.272 11.984 171.896 12.768C171.52 13.552 171.096 14.264 170.624 14.904C170.152 15.544 169.652 16.08 169.124 16.512ZM168.848 13.5L167.984 12.564C168.296 12.196 168.588 11.776 168.86 11.304C169.132 10.824 169.376 10.308 169.592 9.756C169.816 9.204 169.996 8.64 170.132 8.064L171.44 8.22C171.264 8.9 171.04 9.568 170.768 10.224C170.504 10.88 170.204 11.488 169.868 12.048C169.54 12.608 169.2 13.092 168.848 13.5ZM179.6 16.896C180.808 16.896 181.788 16.816 182.54 16.656C183.3 16.488 183.856 16.228 184.208 15.876C184.56 15.524 184.736 15.072 184.736 14.52C184.736 13.904 184.532 13.444 184.124 13.14C183.724 12.836 183.112 12.684 182.288 12.684C181.96 12.684 181.6 12.712 181.208 12.768C180.816 12.816 180.364 12.892 179.852 12.996C179.348 13.1 178.76 13.24 178.088 13.416L177.812 12.06C178.828 11.82 179.708 11.644 180.452 11.532C181.196 11.412 181.836 11.352 182.372 11.352C183.596 11.352 184.536 11.616 185.192 12.144C185.848 12.672 186.176 13.428 186.176 14.412C186.176 15.66 185.628 16.604 184.532 17.244C183.444 17.884 181.828 18.204 179.684 18.204L179.6 16.896ZM196.304 18.444C195.336 18.444 194.492 18.28 193.772 17.952C193.06 17.624 192.508 17.16 192.116 16.56C191.724 15.952 191.528 15.24 191.528 14.424C191.528 13.784 191.644 13.196 191.876 12.66C192.116 12.116 192.452 11.64 192.884 11.232C193.324 10.816 193.844 10.5 194.444 10.284L194.564 10.656L188.852 10.788V9.504L198.968 9.264V10.548L197.444 10.584C196.82 10.6 196.24 10.696 195.704 10.872C195.176 11.048 194.712 11.3 194.312 11.628C193.912 11.956 193.6 12.344 193.376 12.792C193.16 13.232 193.052 13.728 193.052 14.28C193.052 14.872 193.184 15.384 193.448 15.816C193.712 16.24 194.084 16.564 194.564 16.788C195.052 17.012 195.636 17.124 196.316 17.124C196.54 17.124 196.796 17.112 197.084 17.088C197.38 17.064 197.636 17.032 197.852 16.992L198.008 18.312C197.752 18.352 197.468 18.384 197.156 18.408C196.852 18.432 196.568 18.444 196.304 18.444ZM206.012 18.672C205.116 18.672 204.42 18.464 203.924 18.048C203.428 17.64 203.18 17.076 203.18 16.356C203.18 15.612 203.436 15.04 203.948 14.64C204.46 14.232 205.18 14.028 206.108 14.028C206.5 14.028 206.888 14.088 207.272 14.208C207.656 14.328 208.056 14.512 208.472 14.76C208.888 15.008 209.332 15.328 209.804 15.72C210.284 16.112 210.8 16.588 211.352 17.148L210.488 18.108C209.848 17.484 209.308 16.98 208.868 16.596C208.436 16.204 208.064 15.908 207.752 15.708C207.448 15.5 207.168 15.36 206.912 15.288C206.664 15.216 206.396 15.18 206.108 15.18C205.564 15.18 205.164 15.272 204.908 15.456C204.66 15.64 204.536 15.924 204.536 16.308C204.536 16.7 204.66 16.996 204.908 17.196C205.156 17.388 205.524 17.484 206.012 17.484C206.548 17.484 206.948 17.368 207.212 17.136C207.484 16.904 207.62 16.572 207.62 16.14V9.936C208.324 9.936 208.976 9.948 209.576 9.972C210.184 9.988 210.78 10.016 211.364 10.056L211.28 11.316C210.76 11.276 210.216 11.248 209.648 11.232C209.088 11.208 208.488 11.196 207.848 11.196L209.012 10.296V15.996C209.012 16.876 208.76 17.544 208.256 18C207.752 18.448 207.004 18.672 206.012 18.672ZM200.552 16.764C200.904 15.812 201.228 14.876 201.524 13.956C201.82 13.028 202.096 12.092 202.352 11.148C202.608 10.196 202.844 9.22 203.06 8.22L204.416 8.352C204.2 9.376 203.96 10.38 203.696 11.364C203.44 12.34 203.16 13.308 202.856 14.268C202.56 15.228 202.232 16.192 201.872 17.16L200.552 16.764ZM200.456 11.196V9.936H206.504V11.196H200.456ZM213.056 14.388V12.96H222.944V14.388H213.056ZM225.776 18.708L224.528 18.252L228.416 8.484L229.736 8.868L227.648 14.028L227.204 13.74C227.604 13.412 228.004 13.156 228.404 12.972C228.812 12.788 229.208 12.696 229.592 12.696C229.888 12.696 230.144 12.76 230.36 12.888C230.576 13.008 230.76 13.188 230.912 13.428C231.064 13.66 231.192 13.944 231.296 14.28C231.408 14.616 231.508 15 231.596 15.432C231.668 15.768 231.74 16.06 231.812 16.308C231.892 16.556 231.992 16.748 232.112 16.884C232.24 17.02 232.404 17.088 232.604 17.088C232.956 17.088 233.272 16.86 233.552 16.404C233.832 15.94 234.096 15.208 234.344 14.208L235.604 14.628C235.396 15.516 235.152 16.244 234.872 16.812C234.592 17.372 234.26 17.788 233.876 18.06C233.492 18.34 233.048 18.48 232.544 18.48C232.2 18.48 231.904 18.42 231.656 18.3C231.416 18.18 231.208 18.004 231.032 17.772C230.856 17.54 230.704 17.26 230.576 16.932C230.456 16.596 230.352 16.22 230.264 15.804C230.184 15.452 230.096 15.148 230 14.892C229.912 14.636 229.796 14.44 229.652 14.304C229.516 14.168 229.332 14.1 229.1 14.1C228.948 14.1 228.772 14.132 228.572 14.196C228.372 14.26 228.168 14.368 227.96 14.52C227.76 14.664 227.564 14.864 227.372 15.12C227.18 15.368 227.008 15.68 226.856 16.056L225.776 18.708ZM236.924 18.624C237.26 17.544 237.564 16.448 237.836 15.336C238.116 14.216 238.36 13.08 238.568 11.928C238.784 10.768 238.968 9.6 239.12 8.424L240.548 8.484C240.412 9.636 240.236 10.8 240.02 11.976C239.812 13.152 239.568 14.32 239.288 15.48C239.008 16.632 238.696 17.764 238.352 18.876L236.924 18.624ZM244.364 18.636C243.636 18.636 243.004 18.548 242.468 18.372C241.932 18.204 241.516 17.968 241.22 17.664C240.924 17.352 240.776 16.98 240.776 16.548C240.776 16.228 240.884 15.912 241.1 15.6C241.316 15.288 241.648 14.964 242.096 14.628L243.176 15.396C242.872 15.588 242.644 15.768 242.492 15.936C242.348 16.096 242.276 16.256 242.276 16.416C242.276 16.6 242.36 16.764 242.528 16.908C242.704 17.044 242.948 17.152 243.26 17.232C243.58 17.312 243.948 17.352 244.364 17.352C244.74 17.352 245.124 17.332 245.516 17.292C245.908 17.252 246.316 17.192 246.74 17.112L246.896 18.396C246.456 18.476 246.032 18.536 245.624 18.576C245.216 18.616 244.796 18.636 244.364 18.636ZM236.756 11.172V9.924H244.136V11.172H236.756ZM241.244 12.528C242.188 12.44 243.112 12.372 244.016 12.324C244.928 12.276 245.84 12.252 246.752 12.252V13.512C245.856 13.512 244.956 13.536 244.052 13.584C243.156 13.624 242.248 13.696 241.328 13.8L241.244 12.528ZM245.204 11.052C244.996 10.62 244.792 10.232 244.592 9.888C244.392 9.536 244.168 9.196 243.92 8.868L244.904 8.28C245.168 8.624 245.4 8.98 245.6 9.348C245.808 9.716 246.012 10.116 246.212 10.548L245.204 11.052ZM246.932 10.488C246.74 10.04 246.548 9.644 246.356 9.3C246.164 8.948 245.948 8.608 245.708 8.28L246.692 7.74C246.948 8.092 247.172 8.452 247.364 8.82C247.564 9.188 247.756 9.592 247.94 10.032L246.932 10.488ZM253.184 15.372C253.184 15.036 253.22 14.72 253.292 14.424C253.364 14.128 253.496 13.844 253.688 13.572C253.88 13.292 254.148 13.032 254.492 12.792C254.764 12.6 254.984 12.424 255.152 12.264C255.32 12.104 255.436 11.948 255.5 11.796C255.572 11.644 255.608 11.492 255.608 11.34C255.608 11.028 255.468 10.804 255.188 10.668C254.916 10.524 254.48 10.452 253.88 10.452C253.456 10.452 253.036 10.488 252.62 10.56C252.204 10.624 251.768 10.732 251.312 10.884L251 9.576C251.456 9.432 251.952 9.32 252.488 9.24C253.024 9.16 253.556 9.12 254.084 9.12C256.148 9.12 257.18 9.788 257.18 11.124C257.18 11.428 257.128 11.708 257.024 11.964C256.928 12.212 256.768 12.456 256.544 12.696C256.32 12.936 256.024 13.184 255.656 13.44C255.416 13.608 255.224 13.796 255.08 14.004C254.936 14.212 254.836 14.432 254.78 14.664C254.724 14.896 254.688 15.132 254.672 15.372H253.184ZM253.076 18V16.368H254.78V18H253.076Z" fill="white"/>
</g>
<g filter="url(#filter1_d_122_773)">
<rect x="22.5059" y="118" width="42" height="29" transform="rotate(15 22.5059 118)" fill="#128FCD" fill-opacity="0.2" shape-rendering="crispEdges"/>
<rect x="23.213" y="119.225" width="40" height="27" transform="rotate(15 23.213 119.225)" stroke="#48BCCB" stroke-opacity="0.5" stroke-width="2" shape-rendering="crispEdges"/>
</g>
<path d="M33.1863 130.345C34.1136 130.593 34.8524 130.968 35.4029 131.469C35.9534 131.97 36.3027 132.582 36.4509 133.307C36.6095 134.034 36.5617 134.871 36.3078 135.819C35.9268 137.241 35.3159 138.408 34.4752 139.32C33.6475 140.225 32.6422 140.845 31.4593 141.179C30.2764 141.514 28.9579 141.53 27.5036 141.229L27.5819 139.577C28.8788 139.847 29.9926 139.853 30.9232 139.594C31.8566 139.325 32.6382 138.778 33.2679 137.953L33.2411 137.93C32.8122 138.046 32.3714 138.105 31.9186 138.105C31.4761 138.108 31.0075 138.043 30.513 137.911C29.3693 137.604 28.5575 137.028 28.0776 136.182C27.6079 135.338 27.5318 134.324 27.8493 133.139C28.0702 132.315 28.4293 131.654 28.9267 131.158C29.424 130.662 30.0335 130.345 30.7551 130.207C31.4795 130.059 32.2899 130.105 33.1863 130.345ZM32.7432 131.999C31.9807 131.794 31.3396 131.838 30.8198 132.129C30.3131 132.413 29.9645 132.91 29.774 133.621C29.5835 134.332 29.625 134.94 29.8986 135.444C30.1852 135.94 30.6891 136.285 31.4103 136.478C31.9255 136.616 32.3906 136.653 32.8057 136.587C33.2236 136.511 33.5745 136.335 33.8586 136.058C34.1558 135.773 34.3651 135.404 34.4866 134.95C34.5943 134.549 34.6126 134.15 34.5416 133.756C34.4809 133.364 34.3044 133.013 34.0121 132.703C33.7328 132.385 33.3099 132.15 32.7432 131.999ZM45.2619 146.02C44.3346 145.772 43.5397 145.421 42.8772 144.967C42.225 144.516 41.7535 144.009 41.4629 143.445C41.1853 142.874 41.1252 142.295 41.2825 141.708C41.5641 140.657 42.5392 139.758 44.2077 139.013L45.2676 140.373C44.6028 140.67 44.0975 140.949 43.7515 141.21C43.4159 141.473 43.2081 141.754 43.128 142.053C43.0452 142.362 43.0971 142.663 43.2836 142.956C43.4701 143.249 43.7684 143.517 44.1783 143.759C44.5882 144.001 45.0971 144.204 45.705 144.367C46.2201 144.505 46.8068 144.623 47.4649 144.722C48.1361 144.814 48.8193 144.881 49.5146 144.924L49.3271 146.613C48.6187 146.578 47.9135 146.51 47.2114 146.41C46.5196 146.313 45.8698 146.183 45.2619 146.02ZM43.6872 135.577L44.1344 133.908L52.0627 136.032L51.6155 137.701L43.6872 135.577ZM37.275 144.609C37.2915 143.476 37.3759 142.378 37.5283 141.314C37.6808 140.251 37.9116 139.142 38.2208 137.988C38.5272 136.845 38.8789 135.779 39.2759 134.793C39.6756 133.795 40.1516 132.802 40.7038 131.813L42.4808 132.537C41.9658 133.47 41.5111 134.425 41.1169 135.402C40.7358 136.371 40.3989 137.401 40.1063 138.494C39.8137 139.586 39.5887 140.652 39.4315 141.692C39.2846 142.735 39.2036 143.779 39.1887 144.824L37.275 144.609Z" fill="white"/>
<g filter="url(#filter2_d_122_773)">
<rect x="13.5059" y="48" width="111" height="29" transform="rotate(15 13.5059 48)" fill="#128FCD" fill-opacity="0.2" shape-rendering="crispEdges"/>
<rect x="14.213" y="49.2247" width="109" height="27" transform="rotate(15 14.213 49.2247)" stroke="#48BCCB" stroke-opacity="0.5" stroke-width="2" shape-rendering="crispEdges"/>
</g>
<path d="M16.467 71.909L16.3186 70.1134C18.1151 70.3739 19.7372 70.4607 21.1851 70.3738C22.6357 70.2766 23.9521 69.9999 25.1345 69.5437C26.3168 69.0875 27.4012 68.4615 28.3874 67.6656L29.2257 69.0498C27.6954 70.3514 25.8755 71.2496 23.7662 71.7446C21.67 72.232 19.2369 72.2868 16.467 71.909ZM18.1582 65.9683L16.8126 64.7464C17.6036 64.0197 18.3425 63.2404 19.0292 62.4084C19.7159 61.5765 20.3374 60.6994 20.8937 59.7773L22.4469 60.6573C21.8899 61.6234 21.2429 62.5543 20.5059 63.4501C19.7793 64.3487 18.9967 65.188 18.1582 65.9683ZM22.3038 68.2386C22.1287 68.1917 21.8725 68.1175 21.5352 68.0161C21.198 67.9147 20.7656 67.7768 20.2381 67.6023L20.5832 66.0052C21.0517 66.1528 21.4391 66.2732 21.7454 66.3663C22.062 66.4622 22.2873 66.5281 22.4213 66.5639C22.6582 66.6274 22.8245 66.6665 22.92 66.681C23.0182 66.6852 23.0914 66.6386 23.1397 66.5411C23.1906 66.4333 23.2506 66.2506 23.3196 65.993L25.0879 59.3938L26.9888 59.9032L25.2247 66.4869C25.0784 67.033 24.9367 67.4588 24.7996 67.7644C24.6728 68.0728 24.5166 68.2849 24.3309 68.4008C24.1453 68.5167 23.8924 68.5538 23.5722 68.5122C23.2521 68.4706 22.8293 68.3794 22.3038 68.2386ZM29.5249 68.7987C29.3909 67.6916 29.2167 66.5903 29.0022 65.4948C28.7905 64.389 28.5387 63.289 28.2466 62.1948L30.0433 61.9805C30.3532 63.0905 30.614 64.1984 30.8257 65.3042C31.0373 66.41 31.2023 67.5254 31.3205 68.6503L29.5249 68.7987ZM37.5212 77.0369C36.3466 76.7222 35.4329 76.2786 34.7802 75.7062C34.135 75.1468 33.7342 74.4376 33.5779 73.5785C33.4319 72.7222 33.519 71.6965 33.8393 70.5013L35.856 62.9748L37.7415 63.48L35.7247 71.0065C35.4017 72.212 35.4195 73.1554 35.778 73.8367C36.1393 74.5078 36.8764 74.9924 37.9891 75.2905C38.8031 75.5086 39.5592 75.5511 40.2574 75.418C40.966 75.2876 41.6624 74.9552 42.3467 74.4207C43.0441 73.8788 43.7802 73.1098 44.5551 72.1137L46.0842 73.2688C45.396 74.1887 44.7183 74.9458 44.0511 75.54C43.397 76.1267 42.731 76.5722 42.0531 76.8764C41.3883 77.1732 40.6832 77.3321 39.9377 77.3532C39.1921 77.3742 38.3866 77.2688 37.5212 77.0369ZM49.6523 81.0329L51.7974 73.0273L55.9238 74.133L56.1309 73.3602L51.5253 72.1262L51.9146 70.6734L54.5574 71.3815L55.6175 67.4251L57.4103 67.9055L56.3501 71.8619L58.8229 72.5245L59.1832 71.1799L52.6458 69.4282L53.0226 68.0218L59.56 69.7735L59.883 68.5681L61.6758 69.0484L61.3528 70.2539L63.4546 70.8171L63.0778 72.2235L60.9759 71.6603L60.6157 73.0049L63.0266 73.6509L62.6374 75.1036L58.0318 73.8696L57.8248 74.6423L61.9358 75.7438L60.4242 81.3848C60.2917 81.8794 60.1662 82.2654 60.0477 82.5428C59.9367 82.8334 59.8053 83.0356 59.6533 83.1494C59.4985 83.2736 59.3023 83.3259 59.0646 83.3064C58.8344 83.3 58.5287 83.2457 58.1475 83.1435C57.9723 83.0966 57.7316 83.0265 57.4253 82.9334C57.1292 82.8431 56.7123 82.7093 56.1745 82.532L56.5299 81.0205C56.8925 81.1508 57.1858 81.2515 57.4097 81.3225C57.6439 81.3963 57.828 81.4511 57.9619 81.487C58.1371 81.534 58.2635 81.5568 58.3411 81.5555C58.4187 81.5542 58.4775 81.5203 58.5175 81.4537C58.5602 81.3768 58.6063 81.2456 58.656 81.0601L59.8155 76.7328L57.2655 76.0495L56.4166 79.2177L57.0348 79.3834L57.7388 76.7561L59.1297 77.1288L58.0447 81.1779L56.6538 80.8052L53.9183 80.0723L53.6781 80.9686L52.2099 80.5752L53.535 75.6297L54.926 76.0024L54.222 78.6297L54.8711 78.8036L55.72 75.6354L53.1391 74.9438L51.3832 81.4967L49.6523 81.0329ZM47.5116 80.2439L46.3001 78.8923C46.9412 78.3132 47.5693 77.6588 48.1844 76.9291C48.8099 76.2022 49.3762 75.4485 49.8836 74.6678L51.2675 75.6847C50.9323 76.2353 50.5568 76.7918 50.1411 77.354C49.7282 77.906 49.295 78.4304 48.8416 78.9273C48.4013 79.4167 47.9579 79.8556 47.5116 80.2439ZM50.3329 73.7944C50.0257 73.2924 49.6876 72.7822 49.3186 72.2637C48.9523 71.7349 48.5589 71.2043 48.1383 70.672L49.5051 69.713C49.9387 70.2378 50.34 70.7595 50.7091 71.278C51.0809 71.7862 51.4255 72.2927 51.743 72.7974L50.3329 73.7944ZM51.6503 70.2382C51.3732 69.7885 51.0652 69.3305 50.7264 68.8642C50.3903 68.3877 50.0322 67.9107 49.6521 67.4334L51.0343 66.4786C51.4275 66.9484 51.7883 67.415 52.1169 67.8785C52.4585 68.3345 52.7678 68.7873 53.0449 69.237L51.6503 70.2382ZM62.3675 83.5289C63.173 82.2539 63.9427 80.9473 64.6768 79.609C65.4239 78.2631 66.1302 76.8843 66.7956 75.4724C67.4741 74.053 68.1141 72.6122 68.7157 71.1501L70.5341 71.7202C69.9614 73.1569 69.3331 74.5953 68.6491 76.0353C67.9754 77.4781 67.258 78.8982 66.4971 80.2955C65.739 81.6825 64.9465 83.0328 64.1197 84.3462L62.3675 83.5289ZM71.9454 86.1118C71.0078 85.8606 70.2242 85.5291 69.5946 85.1175C68.9623 84.7162 68.508 84.2687 68.2317 83.775C67.9581 83.271 67.8959 82.7409 68.045 82.1845C68.1554 81.7724 68.4035 81.4026 68.7894 81.0754C69.1752 80.7481 69.7146 80.4454 70.4076 80.1672L71.5335 81.529C71.0757 81.6714 70.7199 81.8245 70.4662 81.9885C70.2255 82.1448 70.0776 82.3261 70.0224 82.5321C69.9589 82.7691 70.0105 83.0093 70.1771 83.2527C70.3569 83.4886 70.6338 83.7119 71.0081 83.9226C71.3926 84.1361 71.8527 84.3146 72.3885 84.4581C72.8727 84.5879 73.3742 84.6947 73.8929 84.7784C74.4115 84.8622 74.9577 84.9257 75.5314 84.969L75.2892 86.6765C74.6949 86.6277 74.1281 86.5586 73.5889 86.4693C73.0496 86.3801 72.5018 86.2609 71.9454 86.1118ZM64.7228 73.8735L65.1535 72.2662L76.0337 75.1815L75.603 76.7888L64.7228 73.8735ZM70.035 77.1686C71.2811 77.3811 72.4946 77.6123 73.6754 77.8625C74.8666 78.1154 76.0494 78.3992 77.224 78.7139L76.7892 80.3367C75.6352 80.0275 74.4678 79.7478 73.287 79.4977C72.1192 79.24 70.9249 79.0194 69.7042 78.8358L70.035 77.1686ZM84.1627 89.6008C83.0087 89.2916 82.1841 88.7835 81.6889 88.0766C81.1909 87.3799 81.0661 86.568 81.3146 85.6407C81.5713 84.6825 82.0984 84.0341 82.8959 83.6957C83.6961 83.3469 84.6938 83.3326 85.8889 83.6529C86.3938 83.7881 86.8728 83.9993 87.3259 84.2864C87.7791 84.5734 88.2307 84.9485 88.6809 85.4114C89.1311 85.8744 89.5925 86.4397 90.0651 87.1075C90.548 87.778 91.0483 88.5691 91.566 89.4808L90.122 90.419C89.513 89.3945 88.9915 88.5591 88.5573 87.9127C88.1362 87.2587 87.7593 86.7491 87.4265 86.3839C87.1067 86.0111 86.7944 85.7342 86.4896 85.5531C86.195 85.3748 85.8623 85.2359 85.4914 85.1365C84.7908 84.9488 84.2439 84.9293 83.8507 85.0779C83.4678 85.2293 83.2101 85.5522 83.0775 86.0468C82.9423 86.5517 82.9998 86.9757 83.2502 87.3188C83.5033 87.6517 83.9442 87.9023 84.5726 88.0707C85.263 88.2557 85.8182 88.2443 86.2382 88.0367C86.6686 87.8317 86.9583 87.4511 87.1074 86.8947L89.2483 78.9046C90.155 79.1475 90.9906 79.388 91.7551 79.6259C92.5326 79.8563 93.2905 80.0981 94.0288 80.3511L93.4858 81.9449C92.8299 81.7139 92.139 81.4901 91.413 81.2735C90.7 81.0494 89.9314 80.8269 89.1072 80.606L90.9169 79.8486L88.9498 87.1896C88.6462 88.323 88.0911 89.0963 87.2846 89.5097C86.4809 89.9127 85.4403 89.9431 84.1627 89.6008ZM77.7892 85.2592C78.571 84.1546 79.3113 83.061 80.01 81.9782C80.7115 80.8852 81.39 79.775 82.0454 78.6476C82.7037 77.5098 83.3444 76.3343 83.9677 75.1209L85.6685 75.7589C85.037 77.0031 84.3814 78.2134 83.7018 79.3895C83.0353 80.5582 82.3407 81.7083 81.6178 82.8397C80.9053 83.974 80.1502 85.1023 79.3525 86.2248L77.7892 85.2592ZM79.587 78.0551L80.0218 76.4323L87.8111 78.5194L87.3762 80.1422L79.587 78.0551ZM96.9474 92.5792C96.422 92.4384 95.9805 92.1489 95.6231 91.7108C95.2684 91.2624 95.0048 90.7004 94.8325 90.0248C94.6602 89.3491 94.5876 88.5898 94.6147 87.7468C94.6549 86.8962 94.7992 86.0072 95.0476 85.08C95.2492 84.3278 95.5236 83.551 95.8708 82.7496C96.2312 81.9406 96.6695 81.1084 97.1858 80.2529L98.9361 80.9538C98.47 81.7454 98.0716 82.5111 97.7409 83.2507C97.4102 83.9903 97.1537 84.7001 96.9715 85.3801C96.7976 86.0292 96.6848 86.6561 96.6333 87.2606C96.5817 87.8652 96.5855 88.4074 96.6447 88.887C96.7142 89.3695 96.8292 89.7647 96.9896 90.0727C97.1603 90.3835 97.3745 90.5734 97.632 90.6424C97.8793 90.7086 98.1748 90.6774 98.5185 90.5486C98.8753 90.4123 99.2565 90.2053 99.6623 89.9275C100.068 89.6497 100.467 89.3149 100.859 88.923C101.261 88.5339 101.623 88.1118 101.944 87.6566L103.374 88.9342C102.928 89.5658 102.434 90.1345 101.89 90.6403C101.346 91.146 100.78 91.5686 100.192 91.908C99.6169 92.2399 99.0491 92.4632 98.4883 92.5779C97.9247 92.703 97.4111 92.7034 96.9474 92.5792ZM105.107 93.1589C105.422 91.9843 105.653 90.7928 105.8 89.5844C105.958 88.3787 106.025 87.1987 106.003 86.0444C105.992 84.8928 105.895 83.8122 105.712 82.8026L107.565 82.7523C107.787 83.8168 107.904 84.9469 107.915 86.1425C107.939 87.3305 107.869 88.5597 107.706 89.8299C107.555 91.0926 107.307 92.3679 106.962 93.6558L105.107 93.1589Z" fill="white"/>
<g filter="url(#filter3_d_122_773)">
<rect x="104" y="140.576" width="122" height="29" transform="rotate(-15 104 140.576)" fill="#128FCD" fill-opacity="0.2" shape-rendering="crispEdges"/>
<rect x="105.225" y="141.283" width="120" height="27" transform="rotate(-15 105.225 141.283)" stroke="#48BCCB" stroke-opacity="0.5" stroke-width="2" shape-rendering="crispEdges"/>
</g>
<path d="M115.494 159.949L112.231 147.771L125.584 144.193L128.847 156.371L127.039 156.856L126.799 155.959L117.062 158.568L116.648 157.023L126.385 154.414L124.19 146.223L121.671 146.898L122.602 150.375C122.685 150.684 122.761 150.907 122.831 151.043C122.898 151.169 123.002 151.229 123.145 151.224C123.284 151.209 123.508 151.16 123.817 151.077C124.137 150.991 124.45 150.902 124.756 150.809C125.073 150.713 125.387 150.607 125.698 150.49L126.15 151.992C125.718 152.152 125.273 152.305 124.815 152.449C124.354 152.584 123.892 152.713 123.428 152.838C122.923 152.973 122.524 153.03 122.231 153.009C121.936 152.978 121.701 152.842 121.526 152.602C121.362 152.359 121.212 151.985 121.076 151.48L119.971 147.353L118.441 147.763C118.686 148.68 118.879 149.462 119.02 150.11C119.157 150.746 119.227 151.296 119.23 151.759C119.243 152.22 119.185 152.644 119.057 153.031C118.937 153.406 118.731 153.792 118.44 154.191C118.157 154.576 117.798 155.031 117.365 155.555L116.001 154.546C116.354 154.131 116.64 153.778 116.86 153.487C117.088 153.184 117.246 152.887 117.334 152.598C117.433 152.307 117.473 151.982 117.454 151.622C117.442 151.25 117.375 150.793 117.252 150.252C117.126 149.7 116.956 149.023 116.741 148.219L114.453 148.832L117.302 159.465L115.494 159.949ZM132.028 156.248C131.904 156.281 131.733 156.321 131.513 156.369C131.305 156.414 131.042 156.462 130.724 156.514L130.249 155.051C130.533 154.998 130.765 154.957 130.946 154.931C131.134 154.892 131.269 154.861 131.352 154.839C131.434 154.817 131.488 154.791 131.514 154.762C131.536 154.723 131.539 154.651 131.522 154.545C131.504 154.439 131.461 154.257 131.392 154L129.355 146.396L127.948 146.773L127.534 145.227L128.941 144.851L128.274 142.362L130.067 141.882L130.733 144.37L131.923 144.051L132.337 145.597L131.147 145.916L133.156 153.411C133.299 153.947 133.393 154.38 133.438 154.711C133.492 155.038 133.484 155.295 133.412 155.479C133.34 155.664 133.191 155.809 132.965 155.914C132.742 156.029 132.429 156.14 132.028 156.248ZM129.597 152.493L129.05 150.884C129.506 150.651 129.968 150.395 130.434 150.115C130.9 149.836 131.348 149.55 131.778 149.258C132.218 148.964 132.617 148.68 132.975 148.408L133.605 149.895C133.24 150.181 132.83 150.484 132.375 150.805C131.917 151.115 131.451 151.417 130.977 151.709C130.501 151.991 130.041 152.253 129.597 152.493ZM135.304 155.37L133.871 150.023L142.912 147.6L144.345 152.948L142.49 153.444L142.288 152.687L136.863 154.141L136.478 152.703L141.902 151.25L141.447 149.55L136.022 151.003L137.066 154.898L135.304 155.37ZM133.176 149.281L132.77 147.767L136.85 146.674L136.535 145.499L134.001 146.178L133.615 144.741L136.196 144.049L135.824 142.658L137.555 142.195L137.927 143.586L140.508 142.894L140.893 144.331L138.359 145.01L138.674 146.185L142.754 145.092L143.159 146.606L133.176 149.281ZM132.656 146.787L131.713 145.184C132.206 144.633 132.646 144.112 133.034 143.621C133.432 143.128 133.796 142.633 134.127 142.136C134.465 141.626 134.8 141.083 135.132 140.508L137.079 139.986C137.643 140.321 138.195 140.626 138.732 140.902C139.277 141.164 139.84 141.411 140.421 141.642C141.012 141.87 141.664 142.098 142.377 142.327L142.362 144.186C141.29 143.855 140.277 143.475 139.323 143.046C138.379 142.614 137.42 142.104 136.445 141.515C135.905 142.51 135.324 143.433 134.702 144.284C134.09 145.133 133.408 145.967 132.656 146.787ZM146.135 151.59L145.712 150.014L149.035 149.123L148.193 139.675L144.067 140.781L143.644 139.205L155.915 135.917L156.338 137.493L150.094 139.166L150.936 148.614L155.232 147.463L154.048 143.043L146.29 145.121L145.876 143.576L155.489 141L157.087 146.966L159.529 146.312L159.951 147.888L146.135 151.59ZM162.659 148.04L161.273 146.888C161.954 146.253 162.558 145.561 163.086 144.812C163.624 144.06 164.073 143.283 164.432 142.48C164.799 141.664 165.076 140.844 165.264 140.021C165.46 139.184 165.561 138.368 165.568 137.571C165.573 136.763 165.476 135.989 165.277 135.247L165.157 134.799L160.984 135.917L160.549 134.294L166.623 132.666L166.987 134.026C167.244 134.985 167.374 135.983 167.375 137.02C167.385 138.045 167.286 139.076 167.078 140.114C166.868 141.143 166.556 142.143 166.143 143.115C165.727 144.077 165.229 144.978 164.648 145.818C164.067 146.658 163.404 147.399 162.659 148.04ZM174.776 144.794C173.758 144.581 172.757 144.164 171.774 143.544C170.791 142.924 169.867 142.156 169.003 141.239C168.136 140.311 167.379 139.278 166.731 138.137C166.09 136.983 165.599 135.768 165.257 134.49L166.987 134.026C167.305 135.211 167.73 136.301 168.261 137.296C168.803 138.288 169.439 139.178 170.169 139.965C170.899 140.753 171.704 141.409 172.585 141.935C173.466 142.461 174.404 142.85 175.399 143.103L174.776 144.794ZM179.836 141.301C180.752 141.011 181.54 140.634 182.2 140.171C182.857 139.696 183.339 139.186 183.645 138.64C183.962 138.092 184.051 137.56 183.913 137.045L183.818 136.689L184.645 136.683C184.587 136.919 184.483 137.151 184.334 137.379C184.185 137.607 183.995 137.823 183.763 138.029C183.539 138.222 183.276 138.397 182.976 138.555C182.686 138.71 182.377 138.831 182.047 138.92C181.367 139.102 180.745 139.13 180.182 139.005C179.615 138.87 179.13 138.602 178.724 138.203C178.33 137.801 178.046 137.28 177.875 136.642C177.701 135.993 177.695 135.392 177.857 134.841C178.018 134.29 178.322 133.816 178.768 133.421C179.222 133.012 179.799 132.714 180.5 132.526C181.077 132.372 181.602 132.336 182.077 132.418C182.552 132.501 183.048 132.683 183.565 132.964L182.551 133.567L181.089 128.111L182.944 127.614L184.824 134.631L184.469 133.864C184.748 134.121 184.967 134.405 185.128 134.715C185.296 135.012 185.434 135.362 185.541 135.764C185.82 136.804 185.807 137.785 185.502 138.706C185.196 139.627 184.624 140.438 183.784 141.137C182.948 141.848 181.869 142.418 180.549 142.849L179.836 141.301ZM181.95 137.322C182.218 137.25 182.445 137.151 182.632 137.023C182.827 136.883 182.982 136.72 183.097 136.534C183.213 136.349 183.285 136.142 183.312 135.914C183.339 135.686 183.32 135.448 183.254 135.201C183.113 134.675 182.843 134.306 182.443 134.093C182.054 133.877 181.592 133.84 181.056 133.984C180.53 134.125 180.143 134.389 179.893 134.776C179.654 135.16 179.605 135.615 179.745 136.141C179.878 136.635 180.145 136.994 180.547 137.218C180.947 137.431 181.415 137.466 181.95 137.322ZM174.487 133.392L174.089 131.908L187.72 128.256L188.118 129.739L174.487 133.392ZM199.172 137.859C197.647 138.268 196.396 138.338 195.419 138.07C194.452 137.799 193.848 137.215 193.608 136.319C193.404 135.556 193.559 134.88 194.074 134.289C194.597 133.685 195.415 133.234 196.528 132.936C197.579 132.654 198.419 132.639 199.05 132.889C199.677 133.13 200.095 133.636 200.302 134.409C200.376 134.687 200.415 134.997 200.418 135.339C200.432 135.677 200.412 136.036 200.359 136.415L198.609 136.685C198.659 136.296 198.682 135.969 198.678 135.706C198.684 135.439 198.662 135.213 198.612 135.028C198.424 134.327 197.815 134.115 196.785 134.391C196.26 134.532 195.871 134.73 195.619 134.985C195.375 135.227 195.295 135.508 195.381 135.827C195.497 136.26 195.842 136.537 196.416 136.66C196.987 136.772 197.705 136.712 198.571 136.48C200.229 136.035 201.396 135.463 202.07 134.764C202.751 134.051 202.957 133.19 202.686 132.18C202.457 131.325 201.969 130.782 201.223 130.551C200.486 130.318 199.428 130.386 198.047 130.756C197.254 130.969 196.573 131.229 196.004 131.536C195.432 131.833 194.927 132.194 194.489 132.621L192.763 134.342L191.641 133.119L199.11 125.883L199.189 126.177L191.323 128.284L190.904 126.724L201.475 123.891L201.894 125.452L195.466 131.63L194.296 131.099C194.585 130.9 194.913 130.702 195.28 130.504C195.654 130.293 196.039 130.102 196.434 129.929C196.838 129.744 197.229 129.578 197.61 129.432C197.988 129.276 198.336 129.155 198.656 129.069C200.222 128.65 201.51 128.658 202.522 129.094C203.533 129.529 204.201 130.355 204.527 131.571C204.916 133.024 204.644 134.295 203.71 135.384C202.787 136.471 201.274 137.296 199.172 137.859ZM214.961 133.48C213.034 133.996 211.491 134.089 210.331 133.759C209.169 133.419 208.432 132.667 208.12 131.503C207.858 130.524 207.984 129.535 208.501 128.535C209.014 127.525 209.951 126.468 211.312 125.363C212.682 124.256 214.506 123.066 216.782 121.794L217.658 123.332C215.728 124.412 214.166 125.405 212.973 126.31C211.79 127.212 210.957 128.037 210.473 128.785C209.996 129.52 209.845 130.212 210.019 130.861C210.377 132.201 211.912 132.507 214.621 131.781C215.065 131.663 215.523 131.518 215.996 131.347C216.469 131.176 216.995 130.974 217.573 130.742C218.159 130.497 218.822 130.209 219.561 129.878L220.225 131.489C219.29 131.916 218.377 132.299 217.485 132.638C216.606 132.984 215.764 133.264 214.961 133.48ZM210.173 127.358C209.604 126.428 209.086 125.507 208.621 124.594C208.152 123.67 207.728 122.746 207.348 121.821L209.143 121.041C209.534 121.964 209.961 122.876 210.423 123.779C210.883 124.672 211.383 125.548 211.923 126.409L210.173 127.358Z" fill="white"/>
<g filter="url(#filter4_d_122_773)">
<rect x="174.506" y="48" width="91" height="29" transform="rotate(15 174.506 48)" fill="#128FCD" fill-opacity="0.2" shape-rendering="crispEdges"/>
<rect x="175.213" y="49.2247" width="89" height="27" transform="rotate(15 175.213 49.2247)" stroke="#48BCCB" stroke-opacity="0.5" stroke-width="2" shape-rendering="crispEdges"/>
</g>
<path d="M181.524 71.7869C180.875 71.613 180.304 71.3938 179.812 71.1294C179.333 70.8574 178.874 70.5301 178.435 70.1476L179.369 68.6419C179.804 69.0347 180.213 69.343 180.595 69.5668C180.99 69.783 181.419 69.9533 181.883 70.0775C182.789 70.3204 183.535 70.3213 184.118 70.0802C184.715 69.8315 185.109 69.3517 185.299 68.6407C185.465 68.0225 185.4 67.5027 185.104 67.0811C184.821 66.652 184.33 66.3436 183.629 66.1559C183.248 66.0537 182.912 66.03 182.621 66.0846C182.333 66.1289 182.029 66.257 181.707 66.469L179.898 65.9845L181.992 59.6546L188.761 61.4684L188.31 63.153L183.272 61.803L182.356 64.5393L182.387 64.5476C182.735 64.4862 183.061 64.4632 183.366 64.4787C183.684 64.4866 184.024 64.5389 184.384 64.6356C185.59 64.9586 186.443 65.524 186.945 66.332C187.446 67.1399 187.546 68.1054 187.245 69.2285C186.914 70.4649 186.253 71.3037 185.262 71.745C184.285 72.1788 183.039 72.1927 181.524 71.7869ZM196.606 73.2771C196.926 72.0819 197.106 71.1198 197.147 70.3908C197.201 69.6543 197.103 69.0925 196.853 68.7054C196.614 68.321 196.211 68.0529 195.644 67.9011C195.15 67.7685 194.639 67.7587 194.112 67.8714C193.595 67.9869 193.034 68.2453 192.43 68.6465C191.838 69.0402 191.154 69.5966 190.376 70.3158L189.093 69.0445C189.821 68.3891 190.47 67.7791 191.041 67.2143C191.622 66.6522 192.158 66.0946 192.649 65.5414C193.152 64.9806 193.628 64.4013 194.075 63.8034C194.536 63.1979 195.001 62.533 195.471 61.8087L197.216 62.591C196.64 63.4636 196.063 64.2586 195.484 64.9759C194.908 65.6829 194.297 66.3751 193.652 67.0525L193.301 66.6934C193.832 66.5264 194.374 66.4398 194.928 66.4336C195.494 66.4198 196.041 66.4834 196.566 66.6242C197.421 66.8533 198.051 67.2429 198.456 67.7931C198.871 68.346 199.074 69.1127 199.065 70.0932C199.059 71.0634 198.858 72.2903 198.46 73.774L196.606 73.2771ZM195.61 76.373C194.024 75.9478 192.847 75.373 192.08 74.6486C191.311 73.9345 191.041 73.1498 191.27 72.2946C191.43 71.6971 191.814 71.1705 192.422 70.715C193.033 70.2492 193.835 69.8733 194.828 69.5873C195.831 69.304 196.994 69.1075 198.315 68.9978C199.647 68.8908 201.118 68.8819 202.729 68.9711L202.601 70.5602C201.262 70.4885 200.037 70.486 198.926 70.5527C197.825 70.6222 196.858 70.7495 196.024 70.9347C195.203 71.1124 194.545 71.3445 194.048 71.6311C193.552 71.9178 193.254 72.2465 193.155 72.6174C193.039 73.0502 193.226 73.4647 193.716 73.8611C194.219 74.2499 194.991 74.5837 196.032 74.8625C196.67 75.0337 197.392 75.183 198.198 75.3104C199.005 75.4275 199.885 75.5251 200.836 75.6031L200.669 77.2149C200.119 77.1668 199.54 77.1002 198.933 77.0149C198.327 76.9297 197.735 76.8318 197.157 76.7211C196.59 76.6133 196.074 76.4972 195.61 76.373ZM190.552 63.7868L190.945 62.3186L203.262 65.619L202.869 67.0872L190.552 63.7868ZM209.54 79.0951L211.305 72.5114L208.291 71.7038L208.68 70.2511L216.16 72.2554L216.873 69.5972L209.392 67.5929L208.291 71.7038L206.483 71.2193L207.986 65.6092L219.082 68.5825L217.579 74.1926L213.206 73.0207L212.725 74.8135L217.655 76.1345L217.249 77.6491L212.319 76.328L211.441 79.6045L209.54 79.0951ZM204.314 79.2517L202.916 78.1647C203.687 77.3446 204.423 76.432 205.123 75.4269C205.823 74.4218 206.437 73.3881 206.965 72.3258L208.562 73.1017C208.024 74.2053 207.387 75.2826 206.653 76.3336C205.929 77.3875 205.149 78.3601 204.314 79.2517ZM215.77 82.0564C214.451 81.703 213.3 81.3447 212.315 80.9814C211.33 80.6181 210.484 80.2313 209.777 79.821C209.069 79.4106 208.474 78.953 207.991 78.4481C207.518 77.9459 207.133 77.3844 206.836 76.7636C206.541 76.1325 206.297 75.4156 206.103 74.6128L207.614 74.3549C207.753 74.9886 207.944 75.5533 208.187 76.0489C208.432 76.5343 208.755 76.9796 209.154 77.3848C209.566 77.7824 210.085 78.1534 210.711 78.4977C211.347 78.8448 212.117 79.1837 213.023 79.5146C213.931 79.8352 215.013 80.1639 216.27 80.5007L217.336 80.7865L216.806 82.3339L215.77 82.0564ZM225.22 84.1909C224.045 83.8761 223.132 83.4326 222.479 82.8601C221.834 82.3007 221.433 81.5915 221.277 80.7324C221.131 79.8761 221.218 78.8504 221.538 77.6552L223.555 70.1287L225.44 70.6339L223.423 78.1604C223.1 79.3659 223.118 80.3093 223.477 80.9907C223.838 81.6617 224.575 82.1463 225.688 82.4445C226.502 82.6626 227.258 82.705 227.956 82.5719C228.665 82.4415 229.361 82.1091 230.045 81.5747C230.743 81.0327 231.479 80.2637 232.254 79.2676L233.783 80.4227C233.095 81.3426 232.417 82.0997 231.75 82.6939C231.096 83.2806 230.43 83.7261 229.752 84.0304C229.087 84.3271 228.382 84.486 227.636 84.5071C226.891 84.5282 226.085 84.4228 225.22 84.1909ZM243.982 88.9698C242.736 88.6357 241.705 88.1333 240.891 87.4624C240.087 86.7942 239.537 86.0061 239.239 85.0981C238.944 84.1798 238.937 83.1952 239.219 82.1443C239.439 81.32 239.792 80.6027 240.275 79.9925C240.772 79.3747 241.369 78.8776 242.066 78.5012C242.777 78.1173 243.555 77.8898 244.403 77.8186L244.429 78.3391L237.027 76.538L237.47 74.8843L250.581 78.0662L250.138 79.7198L248.163 79.2403C247.354 79.0455 246.574 78.969 245.823 79.0107C245.082 79.0552 244.397 79.2196 243.769 79.504C243.141 79.7884 242.605 80.1805 242.162 80.6801C241.732 81.1723 241.421 81.7738 241.231 82.4847C241.027 83.2472 241.02 83.9521 241.211 84.5996C241.405 85.2368 241.772 85.7824 242.313 86.2366C242.864 86.6934 243.577 87.0392 244.453 87.2739C244.742 87.3512 245.076 87.4241 245.455 87.4926C245.844 87.5638 246.185 87.6109 246.477 87.6339L246.222 89.3878C245.879 89.351 245.502 89.2942 245.092 89.2174C244.692 89.1434 244.322 89.0609 243.982 88.9698Z" fill="white"/>
<defs>
<filter id="filter0_d_122_773" x="7" y="0" width="254.18" height="27" filterUnits="userSpaceOnUse" color-interpolation-filters="sRGB">
<feFlood flood-opacity="0" result="BackgroundImageFix"/>
<feColorMatrix in="SourceAlpha" type="matrix" values="0 0 0 0 0 0 0 0 0 0 0 0 0 0 0 0 0 0 127 0" result="hardAlpha"/>
<feOffset/>
<feGaussianBlur stdDeviation="2"/>
<feComposite in2="hardAlpha" operator="out"/>
<feColorMatrix type="matrix" values="0 0 0 0 1 0 0 0 0 1 0 0 0 0 1 0 0 0 0.6 0"/>
<feBlend mode="normal" in2="BackgroundImageFix" result="effect1_dropShadow_122_773"/>
<feBlend mode="normal" in="SourceGraphic" in2="effect1_dropShadow_122_773" result="shape"/>
</filter>
<filter id="filter1_d_122_773" x="9" y="112" width="60.0752" height="50.8822" filterUnits="userSpaceOnUse" color-interpolation-filters="sRGB">
<feFlood flood-opacity="0" result="BackgroundImageFix"/>
<feColorMatrix in="SourceAlpha" type="matrix" values="0 0 0 0 0 0 0 0 0 0 0 0 0 0 0 0 0 0 127 0" result="hardAlpha"/>
<feOffset/>
<feGaussianBlur stdDeviation="3"/>
<feComposite in2="hardAlpha" operator="out"/>
<feColorMatrix type="matrix" values="0 0 0 0 0.282353 0 0 0 0 0.737255 0 0 0 0 0.796078 0 0 0 0.25 0"/>
<feBlend mode="normal" in2="BackgroundImageFix" result="effect1_dropShadow_122_773"/>
<feBlend mode="normal" in="SourceGraphic" in2="effect1_dropShadow_122_773" result="shape"/>
</filter>
<filter id="filter2_d_122_773" x="0" y="42" width="126.724" height="68.7408" filterUnits="userSpaceOnUse" color-interpolation-filters="sRGB">
<feFlood flood-opacity="0" result="BackgroundImageFix"/>
<feColorMatrix in="SourceAlpha" type="matrix" values="0 0 0 0 0 0 0 0 0 0 0 0 0 0 0 0 0 0 127 0" result="hardAlpha"/>
<feOffset/>
<feGaussianBlur stdDeviation="3"/>
<feComposite in2="hardAlpha" operator="out"/>
<feColorMatrix type="matrix" values="0 0 0 0 0.282353 0 0 0 0 0.737255 0 0 0 0 0.796078 0 0 0 0.25 0"/>
<feBlend mode="normal" in2="BackgroundImageFix" result="effect1_dropShadow_122_773"/>
<feBlend mode="normal" in="SourceGraphic" in2="effect1_dropShadow_122_773" result="shape"/>
</filter>
<filter id="filter3_d_122_773" x="98" y="103" width="137.349" height="71.5878" filterUnits="userSpaceOnUse" color-interpolation-filters="sRGB">
<feFlood flood-opacity="0" result="BackgroundImageFix"/>
<feColorMatrix in="SourceAlpha" type="matrix" values="0 0 0 0 0 0 0 0 0 0 0 0 0 0 0 0 0 0 127 0" result="hardAlpha"/>
<feOffset/>
<feGaussianBlur stdDeviation="3"/>
<feComposite in2="hardAlpha" operator="out"/>
<feColorMatrix type="matrix" values="0 0 0 0 0.282353 0 0 0 0 0.737255 0 0 0 0 0.796078 0 0 0 0.25 0"/>
<feBlend mode="normal" in2="BackgroundImageFix" result="effect1_dropShadow_122_773"/>
<feBlend mode="normal" in="SourceGraphic" in2="effect1_dropShadow_122_773" result="shape"/>
</filter>
<filter id="filter4_d_122_773" x="161" y="42" width="107.405" height="63.5644" filterUnits="userSpaceOnUse" color-interpolation-filters="sRGB">
<feFlood flood-opacity="0" result="BackgroundImageFix"/>
<feColorMatrix in="SourceAlpha" type="matrix" values="0 0 0 0 0 0 0 0 0 0 0 0 0 0 0 0 0 0 127 0" result="hardAlpha"/>
<feOffset/>
<feGaussianBlur stdDeviation="3"/>
<feComposite in2="hardAlpha" operator="out"/>
<feColorMatrix type="matrix" values="0 0 0 0 0.282353 0 0 0 0 0.737255 0 0 0 0 0.796078 0 0 0 0.25 0"/>
<feBlend mode="normal" in2="BackgroundImageFix" result="effect1_dropShadow_122_773"/>
<feBlend mode="normal" in="SourceGraphic" in2="effect1_dropShadow_122_773" result="shape"/>
</filter>
</defs>
</svg>
