<svg width="265" height="179" viewBox="0 0 265 179" fill="none" xmlns="http://www.w3.org/2000/svg">
<g filter="url(#filter0_d_122_1056)">
<rect x="92" y="5" width="64" height="17" stroke="white" stroke-width="2"/>
<rect x="162" y="5" width="64" height="17" stroke="white" stroke-width="2"/>
<rect x="22" y="5" width="64" height="17" stroke="white" stroke-width="2"/>
<path d="M235.184 15.372C235.184 15.036 235.22 14.72 235.292 14.424C235.364 14.128 235.496 13.844 235.688 13.572C235.88 13.292 236.148 13.032 236.492 12.792C236.764 12.6 236.984 12.424 237.152 12.264C237.32 12.104 237.436 11.948 237.5 11.796C237.572 11.644 237.608 11.492 237.608 11.34C237.608 11.028 237.468 10.804 237.188 10.668C236.916 10.524 236.48 10.452 235.88 10.452C235.456 10.452 235.036 10.488 234.62 10.56C234.204 10.624 233.768 10.732 233.312 10.884L233 9.576C233.456 9.432 233.952 9.32 234.488 9.24C235.024 9.16 235.556 9.12 236.084 9.12C238.148 9.12 239.18 9.788 239.18 11.124C239.18 11.428 239.128 11.708 239.024 11.964C238.928 12.212 238.768 12.456 238.544 12.696C238.32 12.936 238.024 13.184 237.656 13.44C237.416 13.608 237.224 13.796 237.08 14.004C236.936 14.212 236.836 14.432 236.78 14.664C236.724 14.896 236.688 15.132 236.672 15.372H235.184ZM235.076 18V16.368H236.78V18H235.076Z" fill="white"/>
</g>
<g filter="url(#filter1_d_122_1056)">
<rect x="6" y="144" width="120" height="29" fill="#128FCD" fill-opacity="0.2" shape-rendering="crispEdges"/>
<rect x="7" y="145" width="118" height="27" stroke="#48BCCB" stroke-opacity="0.5" stroke-width="2" shape-rendering="crispEdges"/>
</g>
<path d="M29.952 166.36C29.6853 166.36 29.3333 166.355 28.896 166.344C28.4587 166.333 27.9147 166.317 27.264 166.296L27.168 164.648C27.7973 164.669 28.32 164.691 28.736 164.712C29.152 164.723 29.4453 164.728 29.616 164.728C29.872 164.728 30.0533 164.717 30.16 164.696C30.2667 164.664 30.336 164.595 30.368 164.488C30.4 164.371 30.416 164.184 30.416 163.928V154.264H23.328V152.632H33.424V154.264H32.288V163.912C32.288 164.467 32.2613 164.909 32.208 165.24C32.1653 165.571 32.0693 165.816 31.92 165.976C31.7707 166.136 31.536 166.237 31.216 166.28C30.9067 166.333 30.4853 166.36 29.952 166.36ZM20.064 166.472V156.008H21.936V166.472H20.064ZM18.976 160.856L18.128 159.016C18.6613 158.365 19.1307 157.683 19.536 156.968C19.9413 156.243 20.288 155.469 20.576 154.648C20.8747 153.816 21.12 152.915 21.312 151.944L23.104 152.232C22.912 153.309 22.656 154.317 22.336 155.256C22.0267 156.195 21.6587 157.053 21.232 157.832L21.12 157.032C21.024 157.341 20.8907 157.672 20.72 158.024C20.5493 158.365 20.368 158.712 20.176 159.064C19.984 159.405 19.7867 159.731 19.584 160.04C19.3813 160.349 19.1787 160.621 18.976 160.856ZM23.232 163.752V155.912H29.12V162.472H25.024V161.032H27.392V157.368H25.024V163.752H23.232ZM43.36 163.832C43.9253 163.768 44.4427 163.608 44.912 163.352C45.392 163.085 45.8027 162.749 46.144 162.344C46.496 161.928 46.768 161.453 46.96 160.92C47.152 160.387 47.248 159.811 47.248 159.192C47.248 158.317 47.0453 157.555 46.64 156.904C46.2347 156.243 45.6693 155.736 44.944 155.384C44.2293 155.032 43.3973 154.856 42.448 154.856C41.6373 154.856 40.8853 154.989 40.192 155.256C39.4987 155.523 38.8853 155.896 38.352 156.376C37.8293 156.845 37.4187 157.4 37.12 158.04C36.8213 158.669 36.672 159.347 36.672 160.072C36.672 160.595 36.7573 161.096 36.928 161.576C37.0987 162.056 37.312 162.451 37.568 162.76C37.8347 163.059 38.112 163.208 38.4 163.208C38.816 163.208 39.216 162.829 39.6 162.072C39.984 161.315 40.3307 160.227 40.64 158.808C40.96 157.379 41.2267 155.667 41.44 153.672L43.296 153.864C43.0613 155.848 42.7947 157.549 42.496 158.968C42.1973 160.387 41.856 161.549 41.472 162.456C41.088 163.363 40.6507 164.035 40.16 164.472C39.6693 164.899 39.1147 165.112 38.496 165.112C37.984 165.112 37.5093 164.984 37.072 164.728C36.6347 164.472 36.256 164.115 35.936 163.656C35.616 163.197 35.3653 162.664 35.184 162.056C35.0027 161.437 34.912 160.776 34.912 160.072C34.912 159.069 35.0987 158.147 35.472 157.304C35.8453 156.451 36.368 155.715 37.04 155.096C37.712 154.477 38.5067 153.997 39.424 153.656C40.352 153.304 41.3653 153.128 42.464 153.128C43.7547 153.128 44.896 153.373 45.888 153.864C46.8907 154.355 47.6747 155.053 48.24 155.96C48.8053 156.867 49.088 157.944 49.088 159.192C49.088 160.035 48.96 160.819 48.704 161.544C48.4587 162.269 48.1067 162.915 47.648 163.48C47.1893 164.035 46.64 164.488 46 164.84C45.36 165.192 44.6507 165.416 43.872 165.512L43.36 163.832ZM53.888 165.496V163.8H50.896V162.44H53.888V161.368L53.92 161.208V157.4L53.888 157.304V156.168H50.768V154.808H53.888V153.352H55.792V154.808H58.624V156.168H55.792V157.272L55.776 157.4V161.208L55.792 161.448V162.44H58.416V163.8H55.792V165.496H53.888ZM50.704 166.28L50.608 164.776C51.2053 164.755 51.8293 164.728 52.48 164.696C53.1413 164.653 53.808 164.605 54.48 164.552C55.152 164.488 55.8133 164.429 56.464 164.376C57.1147 164.323 57.728 164.259 58.304 164.184L58.416 165.592C57.616 165.709 56.7733 165.811 55.888 165.896C55.0133 165.981 54.1333 166.056 53.248 166.12C52.3627 166.184 51.5147 166.237 50.704 166.28ZM51.12 161.768V156.856H58.448V161.768H52.8V160.504H56.864V159.784H52.8V158.824H56.864V158.104H52.8V161.768H51.12ZM59.232 166.408L57.76 165.448C58.08 164.979 58.3627 164.472 58.608 163.928C58.864 163.373 59.0827 162.744 59.264 162.04C59.4453 161.336 59.5947 160.515 59.712 159.576C59.8293 158.637 59.9147 157.549 59.968 156.312C60.0213 155.064 60.048 153.619 60.048 151.976H61.792C61.792 153.661 61.76 155.16 61.696 156.472C61.632 157.784 61.536 158.941 61.408 159.944C61.28 160.947 61.1147 161.832 60.912 162.6C60.7093 163.368 60.4693 164.061 60.192 164.68C59.9253 165.288 59.6053 165.864 59.232 166.408ZM63.168 166.136C62.9653 166.136 62.656 166.115 62.24 166.072C61.8347 166.04 61.4187 166.003 60.992 165.96L60.96 164.248C61.3653 164.301 61.7013 164.344 61.968 164.376C62.2347 164.397 62.4533 164.408 62.624 164.408C62.7093 164.408 62.7893 164.371 62.864 164.296C62.9493 164.211 63.0187 164.045 63.072 163.8C63.136 163.544 63.184 163.171 63.216 162.68C63.2587 162.179 63.2907 161.512 63.312 160.68C63.3333 159.848 63.344 158.808 63.344 157.56V156.776H58.384V155.176H65.216V156.312C65.216 157.869 65.2053 159.192 65.184 160.28C65.1627 161.368 65.1253 162.275 65.072 163C65.0187 163.725 64.9387 164.301 64.832 164.728C64.736 165.144 64.6133 165.448 64.464 165.64C64.3147 165.843 64.1333 165.976 63.92 166.04C63.7173 166.104 63.4667 166.136 63.168 166.136ZM51.088 154.216L51.008 152.744C51.584 152.723 52.192 152.691 52.832 152.648C53.472 152.605 54.1173 152.552 54.768 152.488C55.4293 152.424 56.064 152.355 56.672 152.28C57.2907 152.205 57.8613 152.125 58.384 152.04L58.592 153.544C57.8773 153.651 57.088 153.752 56.224 153.848C55.3707 153.944 54.5013 154.024 53.616 154.088C52.7413 154.152 51.8987 154.195 51.088 154.216ZM79.232 166.264C79.04 166.264 78.768 166.259 78.416 166.248C78.0747 166.237 77.712 166.221 77.328 166.2C76.9547 166.179 76.608 166.163 76.288 166.152L76.208 164.488C76.6133 164.52 77.0187 164.547 77.424 164.568C77.8293 164.579 78.144 164.584 78.368 164.584C78.4853 164.584 78.5867 164.531 78.672 164.424C78.768 164.307 78.848 164.083 78.912 163.752C78.9867 163.411 79.0507 162.904 79.104 162.232C79.168 161.549 79.2213 160.648 79.264 159.528C79.3173 158.397 79.3653 156.979 79.408 155.272H74.064V153.624H81.184C81.152 155.629 81.1147 157.336 81.072 158.744C81.0293 160.152 80.976 161.32 80.912 162.248C80.848 163.165 80.768 163.901 80.672 164.456C80.576 165 80.4587 165.4 80.32 165.656C80.192 165.912 80.0373 166.077 79.856 166.152C79.6747 166.227 79.4667 166.264 79.232 166.264ZM66.688 162.216L66.512 160.616C67.5573 160.435 68.576 160.227 69.568 159.992C70.5707 159.747 71.552 159.475 72.512 159.176L72.656 160.776C71.6853 161.085 70.704 161.357 69.712 161.592C68.7307 161.827 67.7227 162.035 66.688 162.216ZM69.104 166.472V156.04H67.824V154.44H69.104V152.008H70.944V154.44H72.432V156.04H70.944V166.472H69.104ZM67.872 158.984L66.368 158.632C66.56 157.768 66.736 156.829 66.896 155.816C67.056 154.803 67.1733 153.747 67.248 152.648L68.768 152.744C68.6933 153.928 68.5813 155.037 68.432 156.072C68.2933 157.107 68.1067 158.077 67.872 158.984ZM73.664 166.44L72.544 165.112C73.5787 164.365 74.512 163.464 75.344 162.408C76.176 161.352 76.8853 160.179 77.472 158.888C78.0693 157.587 78.5227 156.205 78.832 154.744L80.176 155.288C79.9733 156.451 79.6693 157.581 79.264 158.68C78.8693 159.768 78.3893 160.797 77.824 161.768C77.2587 162.728 76.624 163.608 75.92 164.408C75.216 165.197 74.464 165.875 73.664 166.44ZM72.832 163.016L71.712 161.688C72.384 161.144 73.008 160.493 73.584 159.736C74.16 158.968 74.6667 158.12 75.104 157.192C75.552 156.264 75.9147 155.283 76.192 154.248L77.728 154.76C77.4293 155.891 77.0293 156.979 76.528 158.024C76.0267 159.069 75.4613 160.019 74.832 160.872C74.2027 161.725 73.536 162.44 72.832 163.016ZM72.464 159L71.312 157.752C71.728 157.261 72.1173 156.701 72.48 156.072C72.8427 155.432 73.168 154.744 73.456 154.008C73.7547 153.272 73.9947 152.52 74.176 151.752L75.92 151.96C75.6853 152.867 75.3867 153.757 75.024 154.632C74.672 155.507 74.272 156.317 73.824 157.064C73.3867 157.811 72.9333 158.456 72.464 159ZM91.36 163.832C91.9253 163.768 92.4427 163.608 92.912 163.352C93.392 163.085 93.8027 162.749 94.144 162.344C94.496 161.928 94.768 161.453 94.96 160.92C95.152 160.387 95.248 159.811 95.248 159.192C95.248 158.317 95.0453 157.555 94.64 156.904C94.2347 156.243 93.6693 155.736 92.944 155.384C92.2293 155.032 91.3973 154.856 90.448 154.856C89.6373 154.856 88.8853 154.989 88.192 155.256C87.4987 155.523 86.8853 155.896 86.352 156.376C85.8293 156.845 85.4187 157.4 85.12 158.04C84.8213 158.669 84.672 159.347 84.672 160.072C84.672 160.595 84.7573 161.096 84.928 161.576C85.0987 162.056 85.312 162.451 85.568 162.76C85.8347 163.059 86.112 163.208 86.4 163.208C86.816 163.208 87.216 162.829 87.6 162.072C87.984 161.315 88.3307 160.227 88.64 158.808C88.96 157.379 89.2267 155.667 89.44 153.672L91.296 153.864C91.0613 155.848 90.7947 157.549 90.496 158.968C90.1973 160.387 89.856 161.549 89.472 162.456C89.088 163.363 88.6507 164.035 88.16 164.472C87.6693 164.899 87.1147 165.112 86.496 165.112C85.984 165.112 85.5093 164.984 85.072 164.728C84.6347 164.472 84.256 164.115 83.936 163.656C83.616 163.197 83.3653 162.664 83.184 162.056C83.0027 161.437 82.912 160.776 82.912 160.072C82.912 159.069 83.0987 158.147 83.472 157.304C83.8453 156.451 84.368 155.715 85.04 155.096C85.712 154.477 86.5067 153.997 87.424 153.656C88.352 153.304 89.3653 153.128 90.464 153.128C91.7547 153.128 92.896 153.373 93.888 153.864C94.8907 154.355 95.6747 155.053 96.24 155.96C96.8053 156.867 97.088 157.944 97.088 159.192C97.088 160.035 96.96 160.819 96.704 161.544C96.4587 162.269 96.1067 162.915 95.648 163.48C95.1893 164.035 94.64 164.488 94 164.84C93.36 165.192 92.6507 165.416 91.872 165.512L91.36 163.832ZM100.016 166.392L98.576 164.936C98.8533 164.627 99.0987 164.301 99.312 163.96C99.5253 163.619 99.7067 163.219 99.856 162.76C100.005 162.301 100.123 161.747 100.208 161.096C100.304 160.445 100.373 159.651 100.416 158.712C100.459 157.773 100.48 156.653 100.48 155.352V154.056H98.88V152.472H107.808V154.056H106.112V157.832H107.808V159.416H106.112V166.232H104.256V159.416H98.72V157.832H104.256V154.056H102.32V155.352C102.32 156.749 102.288 157.971 102.224 159.016C102.171 160.051 102.085 160.952 101.968 161.72C101.861 162.477 101.717 163.133 101.536 163.688C101.355 164.232 101.136 164.723 100.88 165.16C100.635 165.597 100.347 166.008 100.016 166.392ZM107.52 166.264L106.544 164.744C107.355 164.435 108.096 164.099 108.768 163.736C109.44 163.363 110.069 162.947 110.656 162.488C111.243 162.019 111.813 161.485 112.368 160.888L113.632 162.072C113.056 162.723 112.459 163.304 111.84 163.816C111.232 164.317 110.571 164.765 109.856 165.16C109.152 165.565 108.373 165.933 107.52 166.264ZM107.968 161.336L107.04 159.816C108.107 159.379 109.056 158.883 109.888 158.328C110.72 157.773 111.483 157.107 112.176 156.328L113.44 157.464C112.928 158.04 112.395 158.557 111.84 159.016C111.296 159.475 110.709 159.891 110.08 160.264C109.451 160.637 108.747 160.995 107.968 161.336ZM107.936 156.728L107.04 155.208C108.053 154.813 108.96 154.365 109.76 153.864C110.571 153.363 111.307 152.781 111.968 152.12L113.216 153.272C112.736 153.773 112.229 154.232 111.696 154.648C111.163 155.053 110.587 155.427 109.968 155.768C109.349 156.109 108.672 156.429 107.936 156.728Z" fill="white"/>
<g filter="url(#filter2_d_122_1056)">
<rect x="139" y="46" width="120" height="29" fill="#128FCD" fill-opacity="0.2" shape-rendering="crispEdges"/>
<rect x="140" y="47" width="118" height="27" stroke="#48BCCB" stroke-opacity="0.5" stroke-width="2" shape-rendering="crispEdges"/>
</g>
<path d="M145.16 68.312V54.472H156.84V68.312H154.904V67.368H147.096V65.784H154.904V61.576H147.096V59.976H154.904V56.104H147.096V68.312H145.16ZM166.04 68.632V66.008H162.712V64.408H166.04V57.976H159.864V56.328H166.04V53.848H167.96V56.328H174.136V57.976H167.96V64.408H171.288V66.008H167.96V68.632H166.04ZM160.216 66.664L159.208 65.032C160.627 63.784 161.853 62.52 162.888 61.24C163.923 59.9493 164.739 58.68 165.336 57.432L166.744 58.248C166.2 59.3147 165.581 60.3547 164.888 61.368C164.195 62.3707 163.453 63.32 162.664 64.216C161.885 65.112 161.069 65.928 160.216 66.664ZM173.784 66.664C172.941 65.928 172.125 65.112 171.336 64.216C170.547 63.32 169.805 62.3707 169.112 61.368C168.429 60.3547 167.811 59.3147 167.256 58.248L168.664 57.432C169.272 58.68 170.088 59.9493 171.112 61.24C172.147 62.52 173.373 63.784 174.792 65.032L173.784 66.664ZM181.912 61.592V60.056H183.528L184.36 55.992H182.136V54.472H190.088V55.992H186.232L185.416 60.056H187.544V58.6H182.536V57.208H189.384V60.056H190.472V61.592H181.912ZM176.184 68.552V63.704H181.496V67.928H177.928V66.504H179.864V65.128H177.928V68.552H176.184ZM176.312 62.872V61.432H181.416V62.872H176.312ZM176.312 60.6V59.16H181.416V60.6H176.312ZM182.456 68.28V62.488H189.768V68.28H187.896V67.672H184.264V66.216H187.896V63.976H184.264V68.28H182.456ZM175.752 58.312V56.76H181.88V58.312H175.752ZM176.184 55.976V54.488H181.432V55.976H176.184ZM201.432 67.752C200.141 67.752 199.016 67.5227 198.056 67.064C197.107 66.616 196.371 65.9813 195.848 65.16C195.325 64.328 195.064 63.352 195.064 62.232C195.064 61.3573 195.219 60.5467 195.528 59.8C195.848 59.0533 196.296 58.4027 196.872 57.848C197.459 57.2827 198.152 56.8507 198.952 56.552L199.112 57.048L191.496 57.224V55.512L204.984 55.192V56.904L202.952 56.952C202.099 56.9733 201.309 57.112 200.584 57.368C199.869 57.6133 199.251 57.96 198.728 58.408C198.216 58.856 197.816 59.3893 197.528 60.008C197.24 60.616 197.096 61.2933 197.096 62.04C197.096 62.8507 197.272 63.5547 197.624 64.152C197.976 64.7387 198.472 65.192 199.112 65.512C199.763 65.832 200.541 65.992 201.448 65.992C201.64 65.992 201.853 65.9867 202.088 65.976C202.333 65.9547 202.579 65.9333 202.824 65.912C203.08 65.88 203.304 65.848 203.496 65.816L203.704 67.576C203.48 67.608 203.235 67.6347 202.968 67.656C202.701 67.688 202.435 67.7093 202.168 67.72C201.901 67.7413 201.656 67.752 201.432 67.752ZM203.064 62.76C202.819 62.216 202.552 61.6987 202.264 61.208C201.987 60.7067 201.667 60.1947 201.304 59.672L202.696 58.904C203.059 59.4267 203.384 59.944 203.672 60.456C203.96 60.9573 204.232 61.4907 204.488 62.056L203.064 62.76ZM205.496 61.848C205.261 61.2933 205.005 60.7707 204.728 60.28C204.461 59.7787 204.152 59.2667 203.8 58.744L205.192 58.008C205.544 58.5413 205.859 59.064 206.136 59.576C206.424 60.088 206.685 60.632 206.92 61.208L205.496 61.848ZM215.448 65.976V53.784H221.976V55.48H217.416V65.976H215.448ZM227.816 68.392L226.792 66.904C228.563 66.3387 230.051 65.6827 231.256 64.936C232.472 64.1893 233.448 63.3253 234.184 62.344C234.92 61.3627 235.469 60.2373 235.832 58.968L237.624 59.192C237.016 61.4213 235.917 63.2933 234.328 64.808C232.739 66.312 230.568 67.5067 227.816 68.392ZM224.92 68.472V60.264H226.792V68.472H224.92ZM223.96 64.232L223.208 62.344C223.987 61.5227 224.664 60.6267 225.24 59.656C225.827 58.6853 226.291 57.656 226.632 56.568L228.376 57.032C228.205 57.5973 228.019 58.1253 227.816 58.616C227.613 59.096 227.389 59.5493 227.144 59.976C226.899 60.4027 226.621 60.8293 226.312 61.256L226.28 60.744C226.163 61.0107 226.013 61.304 225.832 61.624C225.651 61.944 225.453 62.2693 225.24 62.6C225.027 62.92 224.808 63.224 224.584 63.512C224.36 63.8 224.152 64.04 223.96 64.232ZM227.72 63.944L226.616 62.488C227.16 61.9227 227.667 61.3147 228.136 60.664C228.605 60.0133 229.021 59.3467 229.384 58.664C229.757 57.9707 230.067 57.272 230.312 56.568L232.008 57.048C231.763 57.848 231.432 58.6533 231.016 59.464C230.6 60.264 230.115 61.0427 229.56 61.8C229.005 62.5573 228.392 63.272 227.72 63.944ZM237.896 68.392C236.221 67.9227 234.776 67.3627 233.56 66.712C232.344 66.0507 231.331 65.2987 230.52 64.456C229.709 63.6133 229.069 62.6747 228.6 61.64L229.928 60.616C230.344 61.5653 230.909 62.4187 231.624 63.176C232.339 63.9333 233.261 64.6107 234.392 65.208C235.523 65.7947 236.909 66.3227 238.552 66.792L237.896 68.392ZM234.728 63.8C234.173 63.3093 233.613 62.8347 233.048 62.376C232.493 61.9173 231.923 61.464 231.336 61.016L232.424 59.688C233.021 60.1467 233.608 60.6107 234.184 61.08C234.76 61.5387 235.325 62.0187 235.88 62.52L234.728 63.8ZM230.472 59.192V57.752H237.624V59.192H230.472ZM223.768 56.488V54.936H230.024V53.672H231.976V54.936H238.232V56.488H223.768ZM246.552 56.504V68.696H240.024V67H244.584V56.504H246.552Z" fill="white"/>
<g filter="url(#filter3_d_122_1056)">
<rect x="42" y="46" width="91" height="29" fill="#128FCD" fill-opacity="0.2" shape-rendering="crispEdges"/>
<rect x="43" y="47" width="89" height="27" stroke="#48BCCB" stroke-opacity="0.5" stroke-width="2" shape-rendering="crispEdges"/>
</g>
<path d="M57.048 65.8C58.0933 65.672 58.9733 65.464 59.688 65.176C60.4133 64.888 60.9947 64.5093 61.432 64.04C61.8693 63.56 62.184 62.9627 62.376 62.248C62.568 61.5227 62.664 60.6587 62.664 59.656V53.976H64.664V59.656C64.664 61.288 64.408 62.6587 63.896 63.768C63.3947 64.8773 62.616 65.7413 61.56 66.36C60.5147 66.968 59.1653 67.3733 57.512 67.576L57.048 65.8ZM55.864 58.616V56.808H70.136V58.616H55.864ZM72.072 60.648C73.1707 60.488 74.3067 60.2053 75.48 59.8C76.6533 59.3947 77.8107 58.904 78.952 58.328C80.0933 57.7413 81.1547 57.096 82.136 56.392C83.1173 55.688 83.9547 54.9573 84.648 54.2L85.96 55.48C85.3627 56.1307 84.6587 56.7653 83.848 57.384C83.048 58.0027 82.1787 58.584 81.24 59.128C80.3013 59.672 79.3307 60.168 78.328 60.616C77.3253 61.0533 76.3173 61.4267 75.304 61.736C74.2907 62.0453 73.3093 62.2693 72.36 62.408L72.072 60.648ZM78.76 68.152V58.968H80.792V68.152H78.76ZM101.224 63.656C99.5493 63.0907 97.8907 62.5733 96.248 62.104C94.616 61.6347 93.0747 61.2347 91.624 60.904L92.104 59.096C93.64 59.4373 95.2507 59.848 96.936 60.328C98.6213 60.808 100.253 61.32 101.832 61.864L101.224 63.656ZM90.424 68.152V54.328H92.424V68.152H90.424ZM111.672 67.592C110.52 67.592 109.619 67.336 108.968 66.824C108.328 66.3013 108.008 65.576 108.008 64.648C108.008 63.6987 108.328 62.968 108.968 62.456C109.608 61.944 110.509 61.688 111.672 61.688C112.173 61.688 112.659 61.752 113.128 61.88C113.597 61.9973 114.083 62.2107 114.584 62.52C115.085 62.8293 115.645 63.256 116.264 63.8C116.893 64.3333 117.629 65.016 118.472 65.848L117.288 67.112C116.531 66.344 115.875 65.7147 115.32 65.224C114.776 64.7227 114.296 64.3333 113.88 64.056C113.464 63.7787 113.069 63.5867 112.696 63.48C112.333 63.3627 111.96 63.304 111.576 63.304C110.339 63.304 109.72 63.752 109.72 64.648C109.72 65.5333 110.339 65.976 111.576 65.976C112.248 65.976 112.723 65.8373 113 65.56C113.288 65.272 113.432 64.8027 113.432 64.152V54.264H115.288V64.232C115.288 65.352 114.979 66.1947 114.36 66.76C113.752 67.3147 112.856 67.592 111.672 67.592ZM108.056 58.392V56.776H118.232V58.392H108.056ZM105.096 67.88C104.819 66.7813 104.616 65.6987 104.488 64.632C104.36 63.5653 104.296 62.4347 104.296 61.24C104.296 60.056 104.36 58.936 104.488 57.88C104.616 56.8133 104.813 55.7307 105.08 54.632L106.968 54.872C106.712 55.9067 106.52 56.9467 106.392 57.992C106.275 59.0267 106.216 60.1093 106.216 61.24C106.216 62.3707 106.275 63.4587 106.392 64.504C106.52 65.5493 106.712 66.5787 106.968 67.592L105.096 67.88Z" fill="white"/>
<g filter="url(#filter4_d_122_1056)">
<rect x="168" y="83" width="91" height="29" fill="#128FCD" fill-opacity="0.2" shape-rendering="crispEdges"/>
<rect x="169" y="84" width="89" height="27" stroke="#48BCCB" stroke-opacity="0.5" stroke-width="2" shape-rendering="crispEdges"/>
</g>
<path d="M175.72 102.976C177.171 102.827 178.488 102.496 179.672 101.984C180.867 101.461 181.896 100.789 182.76 99.968C183.624 99.1467 184.291 98.208 184.76 97.152C185.229 96.0853 185.464 94.9387 185.464 93.712L186.28 94.624H178.488V92.912H187.432V93.712C187.432 94.896 187.256 96.0107 186.904 97.056C186.563 98.1013 186.067 99.0613 185.416 99.936C184.765 100.811 183.981 101.584 183.064 102.256C182.157 102.917 181.133 103.461 179.992 103.888C178.861 104.304 177.629 104.576 176.296 104.704L175.72 102.976ZM173.56 97.584C174.349 97.0187 175.085 96.3787 175.768 95.664C176.451 94.9493 177.053 94.192 177.576 93.392C178.099 92.592 178.509 91.792 178.808 90.992L180.728 91.312C180.408 92.304 179.971 93.2533 179.416 94.16C178.861 95.056 178.195 95.904 177.416 96.704C176.648 97.4933 175.773 98.224 174.792 98.896L173.56 97.584ZM192.392 102.992C193.907 102.949 195.187 102.811 196.232 102.576C197.277 102.331 198.115 101.963 198.744 101.472C199.373 100.971 199.821 100.32 200.088 99.52C200.365 98.72 200.504 97.744 200.504 96.592V91.648H202.552V96.544C202.552 97.984 202.371 99.2213 202.008 100.256C201.645 101.28 201.064 102.117 200.264 102.768C199.475 103.419 198.451 103.904 197.192 104.224C195.933 104.555 194.413 104.731 192.632 104.752L192.392 102.992ZM191.528 99.04V91.648H193.56V99.04H191.528ZM208.12 103.008C209.261 102.933 210.232 102.768 211.032 102.512C211.843 102.245 212.493 101.867 212.984 101.376C213.485 100.885 213.848 100.267 214.072 99.52C214.307 98.7733 214.424 97.8827 214.424 96.848V94.384H216.376V96.848C216.376 98.5333 216.099 99.9307 215.544 101.04C215 102.149 214.152 103.003 213 103.6C211.848 104.197 210.365 104.576 208.552 104.736L208.12 103.008ZM205.544 98.112C206.355 97.12 206.989 96.08 207.448 94.992C207.907 93.8933 208.216 92.6613 208.376 91.296L210.232 91.408C210.072 92.9867 209.736 94.3947 209.224 95.632C208.712 96.8587 207.981 98.0053 207.032 99.072L205.544 98.112ZM208.584 95.296V93.568H220.264V95.296H208.584ZM225.144 102.784C226.563 102.635 227.747 102.389 228.696 102.048C229.656 101.696 230.419 101.211 230.984 100.592C231.56 99.9627 231.976 99.1627 232.232 98.192C232.488 97.2213 232.621 96.0427 232.632 94.656L234.44 94.72C234.429 96.3413 234.259 97.7333 233.928 98.896C233.597 100.059 233.075 101.024 232.36 101.792C231.656 102.56 230.733 103.163 229.592 103.6C228.461 104.027 227.08 104.32 225.448 104.48L225.144 102.784ZM224.728 99.76C224.557 98.9707 224.371 98.208 224.168 97.472C223.976 96.7253 223.768 96.0213 223.544 95.36L225.272 94.928C225.475 95.5253 225.672 96.1973 225.864 96.944C226.067 97.6907 226.269 98.5067 226.472 99.392L224.728 99.76ZM228.328 99.472C228.168 98.672 227.987 97.888 227.784 97.12C227.592 96.3413 227.379 95.6107 227.144 94.928L228.872 94.512C229.107 95.216 229.325 95.9627 229.528 96.752C229.741 97.5307 229.923 98.3147 230.072 99.104L228.328 99.472ZM251.224 100.656C249.549 100.091 247.891 99.5733 246.248 99.104C244.616 98.6347 243.075 98.2347 241.624 97.904L242.104 96.096C243.64 96.4373 245.251 96.848 246.936 97.328C248.621 97.808 250.253 98.32 251.832 98.864L251.224 100.656ZM240.424 105.152V91.328H242.424V105.152H240.424Z" fill="white"/>
<g filter="url(#filter5_d_122_1056)">
<rect x="6" y="137" width="91" height="29" transform="rotate(-90 6 137)" fill="#128FCD" fill-opacity="0.2" shape-rendering="crispEdges"/>
<rect x="7" y="136" width="89" height="27" transform="rotate(-90 7 136)" stroke="#48BCCB" stroke-opacity="0.5" stroke-width="2" shape-rendering="crispEdges"/>
</g>
<path d="M26.264 121.312C26.2 120.299 26.0613 119.461 25.848 118.8C25.6347 118.139 25.3253 117.621 24.92 117.248C24.504 116.875 23.944 116.613 23.24 116.464C22.536 116.304 21.656 116.224 20.6 116.224L16.088 116.224L16.088 114.288L20.6 114.288C21.8907 114.288 22.984 114.4 23.88 114.624C24.776 114.848 25.512 115.216 26.088 115.728C26.664 116.24 27.1013 116.917 27.4 117.76C27.6987 118.603 27.896 119.643 27.992 120.88L26.264 121.312ZM21.944 123.072L20.232 123.072L20.232 108.928L21.944 108.928L21.944 123.072ZM15.768 121.696C15.768 120.971 15.7467 120.203 15.704 119.392C15.6507 118.581 15.5867 117.76 15.512 116.928C15.4267 116.096 15.3307 115.291 15.224 114.512C15.1067 113.723 14.984 112.987 14.856 112.304C14.7173 111.611 14.568 110.997 14.408 110.464L16.088 109.936C16.2907 110.629 16.4773 111.429 16.648 112.336C16.8187 113.243 16.968 114.219 17.096 115.264C17.224 116.309 17.32 117.381 17.384 118.48C17.448 119.568 17.48 120.64 17.48 121.696L15.768 121.696ZM27.176 105.264L25.512 105.264L25.512 100.944L19.528 100.944L19.528 105.008L17.864 105.008L17.864 94.992L19.528 94.992L19.528 99.056L25.512 99.056L25.512 94.736L27.176 94.736L27.176 105.264ZM25.848 90.544C25.08 88.9653 24.216 87.536 23.256 86.256C22.2853 84.9653 21.24 83.84 20.12 82.88C19 81.9093 17.8213 81.1307 16.584 80.544L17.032 79.968L17.032 89.712L15.288 89.712L15.288 78.656L17.032 78.656C18.4293 79.264 19.7787 80.112 21.08 81.2C22.3707 82.2773 23.56 83.536 24.648 84.976C25.736 86.4053 26.68 87.9733 27.48 89.68L25.848 90.544ZM27.592 78.64C26.8987 79.248 26.2693 79.8507 25.704 80.448C25.1387 81.0347 24.6107 81.6427 24.12 82.272C23.6293 82.9013 23.1547 83.5787 22.696 84.304L21.336 83.056C22.008 81.9893 22.7493 80.9867 23.56 80.048C24.36 79.1093 25.2667 78.1973 26.28 77.312L27.592 78.64ZM27.752 65.568C27.752 66.8587 27.5227 67.984 27.064 68.944C26.616 69.8933 25.9813 70.6293 25.16 71.152C24.328 71.6747 23.352 71.936 22.232 71.936C21.3573 71.936 20.5467 71.7813 19.8 71.472C19.0533 71.152 18.4027 70.704 17.848 70.128C17.2827 69.5413 16.8507 68.848 16.552 68.048L17.048 67.888L17.224 75.504L15.512 75.504L15.192 62.016L16.904 62.016L16.952 64.048C16.9733 64.9013 17.112 65.6907 17.368 66.416C17.6133 67.1307 17.96 67.7493 18.408 68.272C18.856 68.784 19.3893 69.184 20.008 69.472C20.616 69.76 21.2933 69.904 22.04 69.904C22.8507 69.904 23.5547 69.728 24.152 69.376C24.7387 69.024 25.192 68.528 25.512 67.888C25.832 67.2373 25.992 66.4587 25.992 65.552C25.992 65.36 25.9867 65.1467 25.976 64.912C25.9547 64.6667 25.9333 64.4213 25.912 64.176C25.88 63.92 25.848 63.696 25.816 63.504L27.576 63.296C27.608 63.52 27.6347 63.7653 27.656 64.032C27.688 64.2987 27.7093 64.5653 27.72 64.832C27.7413 65.0987 27.752 65.344 27.752 65.568ZM22.76 63.936C22.216 64.1813 21.6987 64.448 21.208 64.736C20.7067 65.0133 20.1947 65.3333 19.672 65.696L18.904 64.304C19.4267 63.9413 19.944 63.616 20.456 63.328C20.9573 63.04 21.4907 62.768 22.056 62.512L22.76 63.936ZM21.848 61.504C21.2933 61.7387 20.7707 61.9947 20.28 62.272C19.7787 62.5387 19.2667 62.848 18.744 63.2L18.008 61.808C18.5413 61.456 19.064 61.1413 19.576 60.864C20.088 60.576 20.632 60.3147 21.208 60.08L21.848 61.504Z" fill="white"/>
<g filter="url(#filter6_d_122_1056)">
<rect x="132" y="173" width="91" height="29" transform="rotate(-90 132 173)" fill="#128FCD" fill-opacity="0.2" shape-rendering="crispEdges"/>
<rect x="133" y="172" width="89" height="27" transform="rotate(-90 133 172)" stroke="#48BCCB" stroke-opacity="0.5" stroke-width="2" shape-rendering="crispEdges"/>
</g>
<path d="M153.704 157.632C153.704 159.413 153.427 160.795 152.872 161.776C152.307 162.757 151.512 163.248 150.488 163.248C149.763 163.248 149.117 162.997 148.552 162.496C147.976 161.984 147.496 161.237 147.112 160.256L147.656 160.208L148.152 166.8L146.536 166.864C146.365 165.893 146.136 164.944 145.848 164.016C145.56 163.088 145.229 162.213 144.856 161.392C144.472 160.56 144.061 159.813 143.624 159.152C143.187 158.48 142.733 157.915 142.264 157.456L142.648 156.88L142.648 165.072L141.032 165.072L141.032 154.896L142.648 154.896C143.032 155.323 143.427 155.84 143.832 156.448C144.227 157.045 144.611 157.701 144.984 158.416C145.357 159.12 145.699 159.845 146.008 160.592C146.317 161.328 146.573 162.037 146.776 162.72L146.536 163.136L145.768 153.376L147.4 153.312L147.576 156.192C147.651 157.333 147.8 158.283 148.024 159.04C148.237 159.787 148.52 160.341 148.872 160.704C149.224 161.067 149.651 161.248 150.152 161.248C150.781 161.248 151.261 160.939 151.592 160.32C151.923 159.701 152.088 158.773 152.088 157.536C152.088 157.088 152.067 156.667 152.024 156.272C151.981 155.867 151.912 155.387 151.816 154.832L153.432 154.624C153.528 155.136 153.597 155.632 153.64 156.112C153.683 156.592 153.704 157.099 153.704 157.632ZM151.832 142.64C151.768 142.075 151.608 141.557 151.352 141.088C151.085 140.608 150.749 140.197 150.344 139.856C149.928 139.504 149.453 139.232 148.92 139.04C148.387 138.848 147.811 138.752 147.192 138.752C146.317 138.752 145.555 138.955 144.904 139.36C144.243 139.765 143.736 140.331 143.384 141.056C143.032 141.771 142.856 142.603 142.856 143.552C142.856 144.363 142.989 145.115 143.256 145.808C143.523 146.501 143.896 147.115 144.376 147.648C144.845 148.171 145.4 148.581 146.04 148.88C146.669 149.179 147.347 149.328 148.072 149.328C148.595 149.328 149.096 149.243 149.576 149.072C150.056 148.901 150.451 148.688 150.76 148.432C151.059 148.165 151.208 147.888 151.208 147.6C151.208 147.184 150.829 146.784 150.072 146.4C149.315 146.016 148.227 145.669 146.808 145.36C145.379 145.04 143.667 144.773 141.672 144.56L141.864 142.704C143.848 142.939 145.549 143.205 146.968 143.504C148.387 143.803 149.549 144.144 150.456 144.528C151.363 144.912 152.035 145.349 152.472 145.84C152.899 146.331 153.112 146.885 153.112 147.504C153.112 148.016 152.984 148.491 152.728 148.928C152.472 149.365 152.115 149.744 151.656 150.064C151.197 150.384 150.664 150.635 150.056 150.816C149.437 150.997 148.776 151.088 148.072 151.088C147.069 151.088 146.147 150.901 145.304 150.528C144.451 150.155 143.715 149.632 143.096 148.96C142.477 148.288 141.997 147.493 141.656 146.576C141.304 145.648 141.128 144.635 141.128 143.536C141.128 142.245 141.373 141.104 141.864 140.112C142.355 139.109 143.053 138.325 143.96 137.76C144.867 137.195 145.944 136.912 147.192 136.912C148.035 136.912 148.819 137.04 149.544 137.296C150.269 137.541 150.915 137.893 151.48 138.352C152.035 138.811 152.488 139.36 152.84 140C153.192 140.64 153.416 141.349 153.512 142.128L151.832 142.64ZM147.592 129.088L146.056 129.088L146.056 127.472L141.992 126.64L141.992 128.864L140.472 128.864L140.472 120.912L141.992 120.912L141.992 124.768L146.056 125.584L146.056 123.456L144.6 123.456L144.6 128.464L143.208 128.464L143.208 121.616L146.056 121.616L146.056 120.528L147.592 120.528L147.592 129.088ZM154.552 134.816L149.704 134.816L149.704 129.504L153.928 129.504L153.928 133.072L152.504 133.072L152.504 131.136L151.128 131.136L151.128 133.072L154.552 133.072L154.552 134.816ZM148.872 134.688L147.432 134.688L147.432 129.584L148.872 129.584L148.872 134.688ZM146.6 134.688L145.16 134.688L145.16 129.584L146.6 129.584L146.6 134.688ZM154.28 128.544L148.488 128.544L148.488 121.232L154.28 121.232L154.28 123.104L153.672 123.104L153.672 126.736L152.216 126.736L152.216 123.104L149.976 123.104L149.976 126.736L154.28 126.736L154.28 128.544ZM144.312 135.248L142.76 135.248L142.76 129.12L144.312 129.12L144.312 135.248ZM141.976 134.816L140.488 134.816L140.488 129.568L141.976 129.568L141.976 134.816ZM154.328 115.072L152.792 116.368C152.355 116.133 151.901 115.931 151.432 115.76C150.952 115.579 150.429 115.435 149.864 115.328C149.288 115.221 148.643 115.141 147.928 115.088C147.213 115.024 146.397 114.992 145.48 114.992L140.472 114.992L140.472 104.608L142.024 104.608L142.024 113.216L146.792 113.216C147.901 113.216 148.915 113.285 149.832 113.424C150.749 113.563 151.576 113.771 152.312 114.048C153.048 114.325 153.72 114.667 154.328 115.072ZM154.344 117.968L153.384 119.392C152.68 118.955 151.912 118.549 151.08 118.176C150.248 117.803 149.411 117.477 148.568 117.2L149.16 115.696C149.747 115.867 150.349 116.069 150.968 116.304C151.587 116.539 152.184 116.8 152.76 117.088C153.336 117.365 153.864 117.659 154.344 117.968ZM154.056 112.832L153.016 114.128C152.515 113.669 151.96 113.253 151.352 112.88C150.733 112.496 150.099 112.181 149.448 111.936L150.12 110.496C150.845 110.752 151.549 111.083 152.232 111.488C152.904 111.893 153.512 112.341 154.056 112.832ZM147.4 116.832C146.995 117.259 146.589 117.712 146.184 118.192C145.768 118.672 145.357 119.184 144.952 119.728L143.688 118.656C144.083 118.112 144.483 117.595 144.888 117.104C145.283 116.613 145.683 116.155 146.088 115.728L147.4 116.832ZM143.592 116.432C143.24 116.816 142.877 117.232 142.504 117.68C142.131 118.117 141.763 118.581 141.4 119.072L140.136 117.984C140.488 117.504 140.845 117.045 141.208 116.608C141.56 116.16 141.917 115.744 142.28 115.36L143.592 116.432ZM154.088 105.728C153.437 106.048 152.803 106.395 152.184 106.768C151.555 107.141 150.973 107.525 150.44 107.92L149.464 106.608C150.04 106.181 150.637 105.781 151.256 105.408C151.875 105.024 152.515 104.677 153.176 104.368L154.088 105.728ZM154.328 109.712C154.328 109.861 154.317 110.08 154.296 110.368C154.285 110.656 154.269 111.003 154.248 111.408L152.616 111.488C152.637 111.168 152.659 110.907 152.68 110.704C152.691 110.501 152.696 110.347 152.696 110.24C152.696 110.101 152.685 110 152.664 109.936C152.632 109.872 152.563 109.835 152.456 109.824C152.339 109.803 152.152 109.792 151.896 109.792L149.336 109.792L149.336 110.704L147.912 110.704L147.912 107.04L146.776 107.04L146.776 110.704L145.48 110.704L145.48 107.04L144.392 107.04L144.392 110.704L149.336 110.704L149.336 112.48L142.984 112.48L142.984 105.168L149.336 105.168L149.336 107.984L152.328 107.984C152.776 107.984 153.133 108 153.4 108.032C153.667 108.064 153.864 108.139 153.992 108.256C154.131 108.363 154.221 108.533 154.264 108.768C154.307 109.003 154.328 109.317 154.328 109.712ZM143.992 108.416L143.688 110.288C143.272 110.16 142.84 110.043 142.392 109.936C141.933 109.819 141.453 109.717 140.952 109.632L141.24 107.744C141.741 107.84 142.221 107.947 142.68 108.064C143.139 108.171 143.576 108.288 143.992 108.416ZM153.592 95.328C153.592 96.48 153.336 97.3813 152.824 98.032C152.301 98.672 151.576 98.992 150.648 98.992C149.699 98.992 148.968 98.672 148.456 98.032C147.944 97.392 147.688 96.4907 147.688 95.328C147.688 94.8267 147.752 94.3413 147.88 93.872C147.997 93.4027 148.211 92.9173 148.52 92.416C148.829 91.9147 149.256 91.3547 149.8 90.736C150.333 90.1067 151.016 89.3707 151.848 88.528L153.112 89.712C152.344 90.4693 151.715 91.1253 151.224 91.68C150.723 92.224 150.333 92.704 150.056 93.12C149.779 93.536 149.587 93.9307 149.48 94.304C149.363 94.6667 149.304 95.04 149.304 95.424C149.304 96.6613 149.752 97.28 150.648 97.28C151.533 97.28 151.976 96.6613 151.976 95.424C151.976 94.752 151.837 94.2773 151.56 94C151.272 93.712 150.803 93.568 150.152 93.568L140.264 93.568L140.264 91.712L150.232 91.712C151.352 91.712 152.195 92.0213 152.76 92.64C153.315 93.248 153.592 94.144 153.592 95.328ZM144.392 98.944L142.776 98.944L142.776 88.768L144.392 88.768L144.392 98.944ZM153.88 101.904C152.781 102.181 151.699 102.384 150.632 102.512C149.565 102.64 148.435 102.704 147.24 102.704C146.056 102.704 144.936 102.64 143.88 102.512C142.813 102.384 141.731 102.187 140.632 101.92L140.872 100.032C141.907 100.288 142.947 100.48 143.992 100.608C145.027 100.725 146.109 100.784 147.24 100.784C148.371 100.784 149.459 100.725 150.504 100.608C151.549 100.48 152.579 100.288 153.592 100.032L153.88 101.904Z" fill="white"/>
<defs>
<filter id="filter0_d_122_1056" x="17" y="0" width="226.18" height="27" filterUnits="userSpaceOnUse" color-interpolation-filters="sRGB">
<feFlood flood-opacity="0" result="BackgroundImageFix"/>
<feColorMatrix in="SourceAlpha" type="matrix" values="0 0 0 0 0 0 0 0 0 0 0 0 0 0 0 0 0 0 127 0" result="hardAlpha"/>
<feOffset/>
<feGaussianBlur stdDeviation="2"/>
<feComposite in2="hardAlpha" operator="out"/>
<feColorMatrix type="matrix" values="0 0 0 0 1 0 0 0 0 1 0 0 0 0 1 0 0 0 0.6 0"/>
<feBlend mode="normal" in2="BackgroundImageFix" result="effect1_dropShadow_122_1056"/>
<feBlend mode="normal" in="SourceGraphic" in2="effect1_dropShadow_122_1056" result="shape"/>
</filter>
<filter id="filter1_d_122_1056" x="0" y="138" width="132" height="41" filterUnits="userSpaceOnUse" color-interpolation-filters="sRGB">
<feFlood flood-opacity="0" result="BackgroundImageFix"/>
<feColorMatrix in="SourceAlpha" type="matrix" values="0 0 0 0 0 0 0 0 0 0 0 0 0 0 0 0 0 0 127 0" result="hardAlpha"/>
<feOffset/>
<feGaussianBlur stdDeviation="3"/>
<feComposite in2="hardAlpha" operator="out"/>
<feColorMatrix type="matrix" values="0 0 0 0 0.282353 0 0 0 0 0.737255 0 0 0 0 0.796078 0 0 0 0.25 0"/>
<feBlend mode="normal" in2="BackgroundImageFix" result="effect1_dropShadow_122_1056"/>
<feBlend mode="normal" in="SourceGraphic" in2="effect1_dropShadow_122_1056" result="shape"/>
</filter>
<filter id="filter2_d_122_1056" x="133" y="40" width="132" height="41" filterUnits="userSpaceOnUse" color-interpolation-filters="sRGB">
<feFlood flood-opacity="0" result="BackgroundImageFix"/>
<feColorMatrix in="SourceAlpha" type="matrix" values="0 0 0 0 0 0 0 0 0 0 0 0 0 0 0 0 0 0 127 0" result="hardAlpha"/>
<feOffset/>
<feGaussianBlur stdDeviation="3"/>
<feComposite in2="hardAlpha" operator="out"/>
<feColorMatrix type="matrix" values="0 0 0 0 0.282353 0 0 0 0 0.737255 0 0 0 0 0.796078 0 0 0 0.25 0"/>
<feBlend mode="normal" in2="BackgroundImageFix" result="effect1_dropShadow_122_1056"/>
<feBlend mode="normal" in="SourceGraphic" in2="effect1_dropShadow_122_1056" result="shape"/>
</filter>
<filter id="filter3_d_122_1056" x="36" y="40" width="103" height="41" filterUnits="userSpaceOnUse" color-interpolation-filters="sRGB">
<feFlood flood-opacity="0" result="BackgroundImageFix"/>
<feColorMatrix in="SourceAlpha" type="matrix" values="0 0 0 0 0 0 0 0 0 0 0 0 0 0 0 0 0 0 127 0" result="hardAlpha"/>
<feOffset/>
<feGaussianBlur stdDeviation="3"/>
<feComposite in2="hardAlpha" operator="out"/>
<feColorMatrix type="matrix" values="0 0 0 0 0.282353 0 0 0 0 0.737255 0 0 0 0 0.796078 0 0 0 0.25 0"/>
<feBlend mode="normal" in2="BackgroundImageFix" result="effect1_dropShadow_122_1056"/>
<feBlend mode="normal" in="SourceGraphic" in2="effect1_dropShadow_122_1056" result="shape"/>
</filter>
<filter id="filter4_d_122_1056" x="162" y="77" width="103" height="41" filterUnits="userSpaceOnUse" color-interpolation-filters="sRGB">
<feFlood flood-opacity="0" result="BackgroundImageFix"/>
<feColorMatrix in="SourceAlpha" type="matrix" values="0 0 0 0 0 0 0 0 0 0 0 0 0 0 0 0 0 0 127 0" result="hardAlpha"/>
<feOffset/>
<feGaussianBlur stdDeviation="3"/>
<feComposite in2="hardAlpha" operator="out"/>
<feColorMatrix type="matrix" values="0 0 0 0 0.282353 0 0 0 0 0.737255 0 0 0 0 0.796078 0 0 0 0.25 0"/>
<feBlend mode="normal" in2="BackgroundImageFix" result="effect1_dropShadow_122_1056"/>
<feBlend mode="normal" in="SourceGraphic" in2="effect1_dropShadow_122_1056" result="shape"/>
</filter>
<filter id="filter5_d_122_1056" x="0" y="40" width="41" height="103" filterUnits="userSpaceOnUse" color-interpolation-filters="sRGB">
<feFlood flood-opacity="0" result="BackgroundImageFix"/>
<feColorMatrix in="SourceAlpha" type="matrix" values="0 0 0 0 0 0 0 0 0 0 0 0 0 0 0 0 0 0 127 0" result="hardAlpha"/>
<feOffset/>
<feGaussianBlur stdDeviation="3"/>
<feComposite in2="hardAlpha" operator="out"/>
<feColorMatrix type="matrix" values="0 0 0 0 0.282353 0 0 0 0 0.737255 0 0 0 0 0.796078 0 0 0 0.25 0"/>
<feBlend mode="normal" in2="BackgroundImageFix" result="effect1_dropShadow_122_1056"/>
<feBlend mode="normal" in="SourceGraphic" in2="effect1_dropShadow_122_1056" result="shape"/>
</filter>
<filter id="filter6_d_122_1056" x="126" y="76" width="41" height="103" filterUnits="userSpaceOnUse" color-interpolation-filters="sRGB">
<feFlood flood-opacity="0" result="BackgroundImageFix"/>
<feColorMatrix in="SourceAlpha" type="matrix" values="0 0 0 0 0 0 0 0 0 0 0 0 0 0 0 0 0 0 127 0" result="hardAlpha"/>
<feOffset/>
<feGaussianBlur stdDeviation="3"/>
<feComposite in2="hardAlpha" operator="out"/>
<feColorMatrix type="matrix" values="0 0 0 0 0.282353 0 0 0 0 0.737255 0 0 0 0 0.796078 0 0 0 0.25 0"/>
<feBlend mode="normal" in2="BackgroundImageFix" result="effect1_dropShadow_122_1056"/>
<feBlend mode="normal" in="SourceGraphic" in2="effect1_dropShadow_122_1056" result="shape"/>
</filter>
</defs>
</svg>
