<svg width="296" height="167" viewBox="0 0 296 167" fill="none" xmlns="http://www.w3.org/2000/svg">
<g filter="url(#filter0_d_122_1159)">
<rect x="91" y="5" width="64" height="17" stroke="white" stroke-width="2"/>
<rect x="177" y="5" width="64" height="17" stroke="white" stroke-width="2"/>
<rect x="5" y="5" width="64" height="17" stroke="white" stroke-width="2"/>
<path d="M248.916 18.372V17.1H246.672V16.08H248.916V15.276L248.94 15.156V12.3L248.916 12.228V11.376H246.576V10.356H248.916V9.264H250.344V10.356H252.468V11.376H250.344V12.204L250.332 12.3V15.156L250.344 15.336V16.08H252.312V17.1H250.344V18.372H248.916ZM246.528 18.96L246.456 17.832C246.904 17.816 247.372 17.796 247.86 17.772C248.356 17.74 248.856 17.704 249.36 17.664C249.864 17.616 250.36 17.572 250.848 17.532C251.336 17.492 251.796 17.444 252.228 17.388L252.312 18.444C251.712 18.532 251.08 18.608 250.416 18.672C249.76 18.736 249.1 18.792 248.436 18.84C247.772 18.888 247.136 18.928 246.528 18.96ZM246.84 15.576V11.892H252.336V15.576H248.1V14.628H251.148V14.088H248.1V13.368H251.148V12.828H248.1V15.576H246.84ZM252.924 19.056L251.82 18.336C252.06 17.984 252.272 17.604 252.456 17.196C252.648 16.78 252.812 16.308 252.948 15.78C253.084 15.252 253.196 14.636 253.284 13.932C253.372 13.228 253.436 12.412 253.476 11.484C253.516 10.548 253.536 9.464 253.536 8.232H254.844C254.844 9.496 254.82 10.62 254.772 11.604C254.724 12.588 254.652 13.456 254.556 14.208C254.46 14.96 254.336 15.624 254.184 16.2C254.032 16.776 253.852 17.296 253.644 17.76C253.444 18.216 253.204 18.648 252.924 19.056ZM255.876 18.852C255.724 18.852 255.492 18.836 255.18 18.804C254.876 18.78 254.564 18.752 254.244 18.72L254.22 17.436C254.524 17.476 254.776 17.508 254.976 17.532C255.176 17.548 255.34 17.556 255.468 17.556C255.532 17.556 255.592 17.528 255.648 17.472C255.712 17.408 255.764 17.284 255.804 17.1C255.852 16.908 255.888 16.628 255.912 16.26C255.944 15.884 255.968 15.384 255.984 14.76C256 14.136 256.008 13.356 256.008 12.42V11.832H252.288V10.632H257.412V11.484C257.412 12.652 257.404 13.644 257.388 14.46C257.372 15.276 257.344 15.956 257.304 16.5C257.264 17.044 257.204 17.476 257.124 17.796C257.052 18.108 256.96 18.336 256.848 18.48C256.736 18.632 256.6 18.732 256.44 18.78C256.288 18.828 256.1 18.852 255.876 18.852ZM246.816 9.912L246.756 8.808C247.188 8.792 247.644 8.768 248.124 8.736C248.604 8.704 249.088 8.664 249.576 8.616C250.072 8.568 250.548 8.516 251.004 8.46C251.468 8.404 251.896 8.344 252.288 8.28L252.444 9.408C251.908 9.488 251.316 9.564 250.668 9.636C250.028 9.708 249.376 9.768 248.712 9.816C248.056 9.864 247.424 9.896 246.816 9.912ZM267.924 18.948C267.78 18.948 267.576 18.944 267.312 18.936C267.056 18.928 266.784 18.916 266.496 18.9C266.216 18.884 265.956 18.872 265.716 18.864L265.656 17.616C265.96 17.64 266.264 17.66 266.568 17.676C266.872 17.684 267.108 17.688 267.276 17.688C267.364 17.688 267.44 17.648 267.504 17.568C267.576 17.48 267.636 17.312 267.684 17.064C267.74 16.808 267.788 16.428 267.828 15.924C267.876 15.412 267.916 14.736 267.948 13.896C267.988 13.048 268.024 11.984 268.056 10.704H264.048V9.468H269.388C269.364 10.972 269.336 12.252 269.304 13.308C269.272 14.364 269.232 15.24 269.184 15.936C269.136 16.624 269.076 17.176 269.004 17.592C268.932 18 268.844 18.3 268.74 18.492C268.644 18.684 268.528 18.808 268.392 18.864C268.256 18.92 268.1 18.948 267.924 18.948ZM258.516 15.912L258.384 14.712C259.168 14.576 259.932 14.42 260.676 14.244C261.428 14.06 262.164 13.856 262.884 13.632L262.992 14.832C262.264 15.064 261.528 15.268 260.784 15.444C260.048 15.62 259.292 15.776 258.516 15.912ZM260.328 19.104V11.28H259.368V10.08H260.328V8.256H261.708V10.08H262.824V11.28H261.708V19.104H260.328ZM259.404 13.488L258.276 13.224C258.42 12.576 258.552 11.872 258.672 11.112C258.792 10.352 258.88 9.56 258.936 8.736L260.076 8.808C260.02 9.696 259.936 10.528 259.824 11.304C259.72 12.08 259.58 12.808 259.404 13.488ZM263.748 19.08L262.908 18.084C263.684 17.524 264.384 16.848 265.008 16.056C265.632 15.264 266.164 14.384 266.604 13.416C267.052 12.44 267.392 11.404 267.624 10.308L268.632 10.716C268.48 11.588 268.252 12.436 267.948 13.26C267.652 14.076 267.292 14.848 266.868 15.576C266.444 16.296 265.968 16.956 265.44 17.556C264.912 18.148 264.348 18.656 263.748 19.08ZM263.124 16.512L262.284 15.516C262.788 15.108 263.256 14.62 263.688 14.052C264.12 13.476 264.5 12.84 264.828 12.144C265.164 11.448 265.436 10.712 265.644 9.936L266.796 10.32C266.572 11.168 266.272 11.984 265.896 12.768C265.52 13.552 265.096 14.264 264.624 14.904C264.152 15.544 263.652 16.08 263.124 16.512ZM262.848 13.5L261.984 12.564C262.296 12.196 262.588 11.776 262.86 11.304C263.132 10.824 263.376 10.308 263.592 9.756C263.816 9.204 263.996 8.64 264.132 8.064L265.44 8.22C265.264 8.9 265.04 9.568 264.768 10.224C264.504 10.88 264.204 11.488 263.868 12.048C263.54 12.608 263.2 13.092 262.848 13.5ZM276.504 18.444C275.64 18.444 274.964 18.252 274.476 17.868C273.996 17.476 273.756 16.932 273.756 16.236C273.756 15.524 273.996 14.976 274.476 14.592C274.956 14.208 275.632 14.016 276.504 14.016C276.88 14.016 277.244 14.064 277.596 14.16C277.948 14.248 278.312 14.408 278.688 14.64C279.064 14.872 279.484 15.192 279.948 15.6C280.42 16 280.972 16.512 281.604 17.136L280.716 18.084C280.148 17.508 279.656 17.036 279.24 16.668C278.832 16.292 278.472 16 278.16 15.792C277.848 15.584 277.552 15.44 277.272 15.36C277 15.272 276.72 15.228 276.432 15.228C275.504 15.228 275.04 15.564 275.04 16.236C275.04 16.9 275.504 17.232 276.432 17.232C276.936 17.232 277.292 17.128 277.5 16.92C277.716 16.704 277.824 16.352 277.824 15.864V8.448H279.216V15.924C279.216 16.764 278.984 17.396 278.52 17.82C278.064 18.236 277.392 18.444 276.504 18.444ZM273.792 11.544V10.332H281.424V11.544H273.792ZM271.572 18.66C271.364 17.836 271.212 17.024 271.116 16.224C271.02 15.424 270.972 14.576 270.972 13.68C270.972 12.792 271.02 11.952 271.116 11.16C271.212 10.36 271.36 9.548 271.56 8.724L272.976 8.904C272.784 9.68 272.64 10.46 272.544 11.244C272.456 12.02 272.412 12.832 272.412 13.68C272.412 14.528 272.456 15.344 272.544 16.128C272.64 16.912 272.784 17.684 272.976 18.444L271.572 18.66ZM287.184 15.372C287.184 15.036 287.22 14.72 287.292 14.424C287.364 14.128 287.496 13.844 287.688 13.572C287.88 13.292 288.148 13.032 288.492 12.792C288.764 12.6 288.984 12.424 289.152 12.264C289.32 12.104 289.436 11.948 289.5 11.796C289.572 11.644 289.608 11.492 289.608 11.34C289.608 11.028 289.468 10.804 289.188 10.668C288.916 10.524 288.48 10.452 287.88 10.452C287.456 10.452 287.036 10.488 286.62 10.56C286.204 10.624 285.768 10.732 285.312 10.884L285 9.576C285.456 9.432 285.952 9.32 286.488 9.24C287.024 9.16 287.556 9.12 288.084 9.12C290.148 9.12 291.18 9.788 291.18 11.124C291.18 11.428 291.128 11.708 291.024 11.964C290.928 12.212 290.768 12.456 290.544 12.696C290.32 12.936 290.024 13.184 289.656 13.44C289.416 13.608 289.224 13.796 289.08 14.004C288.936 14.212 288.836 14.432 288.78 14.664C288.724 14.896 288.688 15.132 288.672 15.372H287.184ZM287.076 18V16.368H288.78V18H287.076Z" fill="white"/>
<path d="M81.944 18.132C81.224 18.132 80.58 18.032 80.012 17.832C79.452 17.632 79.012 17.356 78.692 17.004C78.38 16.644 78.224 16.236 78.224 15.78C78.224 14.964 78.756 14.124 79.82 13.26L80.852 14.04C80.428 14.384 80.116 14.684 79.916 14.94C79.724 15.196 79.628 15.44 79.628 15.672C79.628 15.912 79.724 16.12 79.916 16.296C80.108 16.472 80.376 16.608 80.72 16.704C81.064 16.8 81.472 16.848 81.944 16.848C82.344 16.848 82.792 16.82 83.288 16.764C83.792 16.7 84.3 16.616 84.812 16.512L85.004 17.772C84.484 17.884 83.96 17.972 83.432 18.036C82.912 18.1 82.416 18.132 81.944 18.132ZM78.776 10.872V9.576H84.932V10.872H78.776ZM75.884 18.66C75.676 17.836 75.524 17.024 75.428 16.224C75.332 15.424 75.284 14.576 75.284 13.68C75.284 12.792 75.332 11.952 75.428 11.16C75.524 10.36 75.676 9.548 75.884 8.724L77.312 8.904C77.12 9.68 76.976 10.46 76.88 11.244C76.792 12.02 76.748 12.832 76.748 13.68C76.748 14.528 76.792 15.344 76.88 16.128C76.976 16.912 77.12 17.684 77.312 18.444L75.884 18.66Z" fill="white"/>
<path d="M166.936 16.272C166.936 15.344 166.88 14.612 166.768 14.076C166.664 13.532 166.484 13.144 166.228 12.912C165.98 12.68 165.636 12.564 165.196 12.564C164.812 12.564 164.44 12.656 164.08 12.84C163.728 13.024 163.372 13.32 163.012 13.728C162.66 14.128 162.272 14.664 161.848 15.336L160.672 14.664C161.072 14.048 161.424 13.48 161.728 12.96C162.04 12.44 162.32 11.932 162.568 11.436C162.824 10.932 163.056 10.42 163.264 9.9C163.48 9.372 163.688 8.8 163.888 8.184L165.304 8.412C165.056 9.156 164.792 9.844 164.512 10.476C164.232 11.1 163.924 11.72 163.588 12.336L163.264 12.144C163.616 11.92 163.992 11.752 164.392 11.64C164.8 11.52 165.208 11.46 165.616 11.46C166.28 11.46 166.812 11.62 167.212 11.94C167.62 12.26 167.916 12.776 168.1 13.488C168.284 14.192 168.376 15.12 168.376 16.272H166.936ZM166.816 18.708C165.584 18.708 164.62 18.52 163.924 18.144C163.228 17.776 162.88 17.26 162.88 16.596C162.88 16.132 163.056 15.676 163.408 15.228C163.76 14.772 164.268 14.344 164.932 13.944C165.604 13.544 166.408 13.176 167.344 12.84C168.288 12.504 169.352 12.212 170.536 11.964L170.752 13.14C169.768 13.348 168.88 13.584 168.088 13.848C167.304 14.112 166.628 14.392 166.06 14.688C165.5 14.976 165.068 15.272 164.764 15.576C164.46 15.88 164.308 16.176 164.308 16.464C164.308 16.8 164.524 17.064 164.956 17.256C165.396 17.44 166.02 17.532 166.828 17.532C167.324 17.532 167.876 17.5 168.484 17.436C169.092 17.364 169.748 17.264 170.452 17.136L170.644 18.336C170.236 18.408 169.804 18.472 169.348 18.528C168.892 18.584 168.444 18.628 168.004 18.66C167.572 18.692 167.176 18.708 166.816 18.708ZM160.708 10.572V9.432H170.272V10.572H160.708Z" fill="white"/>
</g>
<g filter="url(#filter1_d_122_1159)">
<rect x="176" y="124" width="42" height="29" fill="#128FCD" fill-opacity="0.2" shape-rendering="crispEdges"/>
<rect x="177" y="125" width="40" height="27" stroke="#48BCCB" stroke-opacity="0.5" stroke-width="2" shape-rendering="crispEdges"/>
</g>
<path d="M184.488 143.608C185.843 143.48 187.027 143.261 188.04 142.952C189.064 142.632 189.933 142.205 190.648 141.672C191.363 141.128 191.939 140.461 192.376 139.672C192.824 138.872 193.155 137.923 193.368 136.824C193.592 135.725 193.704 134.456 193.704 133.016L195.608 133.112C195.597 135.149 195.384 136.909 194.968 138.392C194.563 139.864 193.933 141.085 193.08 142.056C192.227 143.027 191.117 143.779 189.752 144.312C188.397 144.845 186.755 145.197 184.824 145.368L184.488 143.608ZM184.808 139.432C184.435 138.515 184.035 137.592 183.608 136.664C183.181 135.725 182.739 134.813 182.28 133.928L184.024 133.16C184.483 134.035 184.931 134.947 185.368 135.896C185.816 136.835 186.227 137.779 186.6 138.728L184.808 139.432ZM200.392 143.992C201.907 143.949 203.187 143.811 204.232 143.576C205.277 143.331 206.115 142.963 206.744 142.472C207.373 141.971 207.821 141.32 208.088 140.52C208.365 139.72 208.504 138.744 208.504 137.592V132.648H210.552V137.544C210.552 138.984 210.371 140.221 210.008 141.256C209.645 142.28 209.064 143.117 208.264 143.768C207.475 144.419 206.451 144.904 205.192 145.224C203.933 145.555 202.413 145.731 200.632 145.752L200.392 143.992ZM199.528 140.04V132.648H201.56V140.04H199.528Z" fill="white"/>
<g filter="url(#filter2_d_122_1159)">
<rect x="36" y="73" width="42" height="29" fill="#128FCD" fill-opacity="0.2" shape-rendering="crispEdges"/>
<rect x="37" y="74" width="40" height="27" stroke="#48BCCB" stroke-opacity="0.5" stroke-width="2" shape-rendering="crispEdges"/>
</g>
<path d="M49.768 95.488V84.8H55.96V91.696C55.96 92.2613 55.9387 92.7093 55.896 93.04C55.864 93.3707 55.7893 93.616 55.672 93.776C55.5547 93.936 55.368 94.0373 55.112 94.08C54.8667 94.1333 54.5253 94.16 54.088 94.16C54.0133 94.16 53.8853 94.1547 53.704 94.144C53.5227 94.144 53.3147 94.1387 53.08 94.128C52.856 94.128 52.6267 94.1227 52.392 94.112L52.264 92.464C52.4667 92.4747 52.664 92.4853 52.856 92.496C53.0587 92.5067 53.2347 92.5173 53.384 92.528C53.544 92.528 53.6507 92.528 53.704 92.528C53.8533 92.528 53.9547 92.5173 54.008 92.496C54.072 92.4747 54.1093 92.416 54.12 92.32C54.1307 92.2133 54.136 92.0427 54.136 91.808V86.352H51.576V95.488H49.768ZM41.592 95.264L41.352 93.728C42.3333 93.5893 43.3253 93.408 44.328 93.184C45.3413 92.96 46.3653 92.688 47.4 92.368L47.672 93.856C46.6373 94.1973 45.6133 94.48 44.6 94.704C43.5867 94.9387 42.584 95.1253 41.592 95.264ZM48.2 95.376C47.9973 94.96 47.768 94.512 47.512 94.032C47.256 93.5627 46.9893 93.0987 46.712 92.64C46.4453 92.1813 46.1893 91.76 45.944 91.376L47.496 90.624C47.752 91.0187 48.008 91.4507 48.264 91.92C48.5307 92.3893 48.7867 92.8587 49.032 93.328C49.288 93.7973 49.512 94.24 49.704 94.656L48.2 95.376ZM42.296 94.368V84.8H48.872V90.864H44.168V89.44H47.176V88.448H44.168V87.232H47.176V86.272H44.168V94.368H42.296ZM42.584 85.152L41.352 83.968C41.8853 83.4987 42.3707 82.9707 42.808 82.384C43.2453 81.7973 43.5813 81.2267 43.816 80.672L45.576 81.008C45.416 81.488 45.1867 81.9787 44.888 82.48C44.5893 82.9707 44.2427 83.4453 43.848 83.904C43.464 84.3627 43.0427 84.7787 42.584 85.152ZM45.816 85.488C45.6773 85.0827 45.5227 84.6773 45.352 84.272C45.192 83.856 45.0267 83.4507 44.856 83.056L46.568 82.512C46.7387 82.9067 46.904 83.312 47.064 83.728C47.2347 84.144 47.3893 84.5547 47.528 84.96L45.816 85.488ZM43.848 83.328V81.792H49.096V83.328H43.848ZM49.336 84.816L48.12 83.6C48.664 83.184 49.1547 82.7147 49.592 82.192C50.0293 81.6693 50.36 81.1627 50.584 80.672L52.312 81.024C52.0667 81.6853 51.6773 82.3573 51.144 83.04C50.6213 83.712 50.0187 84.304 49.336 84.816ZM52.472 85.488C52.3333 85.0827 52.1787 84.6773 52.008 84.272C51.848 83.856 51.6827 83.4507 51.512 83.056L53.224 82.512C53.3947 82.9067 53.56 83.312 53.72 83.728C53.8907 84.144 54.0453 84.5547 54.184 84.96L52.472 85.488ZM50.664 83.328V81.792H56.264V83.328H50.664ZM67.176 95.264C66.92 95.264 66.568 95.2533 66.12 95.232C65.6827 95.2107 65.1547 95.1787 64.536 95.136L64.504 93.456C65.0053 93.488 65.4693 93.5147 65.896 93.536C66.3333 93.5573 66.6747 93.568 66.92 93.568C67.08 93.568 67.224 93.536 67.352 93.472C67.48 93.408 67.592 93.2853 67.688 93.104C67.784 92.9227 67.8587 92.656 67.912 92.304C67.976 91.952 68.024 91.488 68.056 90.912C68.088 90.336 68.104 89.616 68.104 88.752V87.68H60.312V86.048H70.008V87.92C70.008 89.264 69.9813 90.3787 69.928 91.264C69.8853 92.1493 69.8 92.864 69.672 93.408C69.5547 93.9413 69.3893 94.3413 69.176 94.608C68.9627 94.8747 68.6907 95.0507 68.36 95.136C68.04 95.2213 67.6453 95.264 67.176 95.264ZM59.592 95.552L58.408 94.048C59.0693 93.696 59.64 93.3067 60.12 92.88C60.6107 92.4427 61.016 91.9467 61.336 91.392C61.656 90.8267 61.9013 90.176 62.072 89.44C62.2533 88.704 62.3707 87.8613 62.424 86.912L64.296 86.992C64.2427 88.1013 64.1093 89.088 63.896 89.952C63.6933 90.816 63.4 91.5893 63.016 92.272C62.6427 92.944 62.1733 93.5467 61.608 94.08C61.0427 94.6133 60.3707 95.104 59.592 95.552ZM58.664 88.432L57.336 87.088C58.2853 86.2667 59.1387 85.3707 59.896 84.4C60.6533 83.4187 61.3147 82.3627 61.88 81.232L63.608 81.84C63.032 83.088 62.328 84.2613 61.496 85.36C60.6747 86.4587 59.7307 87.4827 58.664 88.432ZM71.336 88.432C70.28 87.4827 69.336 86.4587 68.504 85.36C67.672 84.2613 66.968 83.088 66.392 81.84L68.12 81.232C68.6853 82.3627 69.3467 83.4187 70.104 84.4C70.8613 85.3707 71.7147 86.2667 72.664 87.088L71.336 88.432Z" fill="white"/>
<g filter="url(#filter3_d_122_1159)">
<rect x="80" y="132" width="42" height="29" fill="#128FCD" fill-opacity="0.2" shape-rendering="crispEdges"/>
<rect x="81" y="133" width="40" height="27" stroke="#48BCCB" stroke-opacity="0.5" stroke-width="2" shape-rendering="crispEdges"/>
</g>
<path d="M87.816 150.616L85.992 150.472C86.1733 149.395 86.328 148.344 86.456 147.32C86.584 146.285 86.696 145.213 86.792 144.104H91.784V142.056H86.264V140.472H93.656V145.656H88.504C88.4187 146.499 88.3173 147.325 88.2 148.136C88.0933 148.947 87.9653 149.773 87.816 150.616ZM91.112 154.312C90.856 154.312 90.52 154.307 90.104 154.296C89.688 154.285 89.2347 154.269 88.744 154.248C88.264 154.227 87.7787 154.205 87.288 154.184L87.256 152.552C87.704 152.573 88.136 152.595 88.552 152.616C88.9787 152.637 89.368 152.653 89.72 152.664C90.072 152.664 90.3493 152.664 90.552 152.664C90.7013 152.664 90.8293 152.648 90.936 152.616C91.0427 152.584 91.1333 152.515 91.208 152.408C91.2933 152.291 91.368 152.115 91.432 151.88C91.496 151.635 91.5547 151.299 91.608 150.872C91.672 150.445 91.736 149.907 91.8 149.256H87.272V147.688H93.8L93.72 148.808C93.6347 149.8 93.544 150.632 93.448 151.304C93.3627 151.965 93.256 152.499 93.128 152.904C93 153.309 92.8453 153.613 92.664 153.816C92.4933 154.019 92.28 154.152 92.024 154.216C91.7787 154.28 91.4747 154.312 91.112 154.312ZM97.128 154.312V140.168H99.096V154.312H97.128ZM112.76 154.552C112.003 153.987 111.309 153.485 110.68 153.048C110.051 152.621 109.459 152.227 108.904 151.864C108.349 151.501 107.805 151.16 107.272 150.84C106.739 150.509 106.184 150.168 105.608 149.816C105.011 149.453 104.531 149.155 104.168 148.92C103.816 148.675 103.539 148.461 103.336 148.28C103.144 148.099 103.011 147.917 102.936 147.736C102.872 147.544 102.84 147.325 102.84 147.08C102.84 146.824 102.877 146.6 102.952 146.408C103.037 146.205 103.181 146.013 103.384 145.832C103.587 145.64 103.875 145.427 104.248 145.192C104.621 144.957 105.101 144.675 105.688 144.344C106.296 144.003 106.963 143.619 107.688 143.192C108.413 142.765 109.171 142.307 109.96 141.816C110.749 141.325 111.533 140.803 112.312 140.248L113.432 141.8C112.963 142.12 112.467 142.445 111.944 142.776C111.421 143.096 110.904 143.411 110.392 143.72C109.88 144.019 109.389 144.301 108.92 144.568C108.461 144.824 108.045 145.059 107.672 145.272C107.299 145.475 106.995 145.64 106.76 145.768C106.301 146.024 105.944 146.227 105.688 146.376C105.443 146.525 105.267 146.653 105.16 146.76C105.064 146.856 105.016 146.963 105.016 147.08C105.016 147.197 105.048 147.299 105.112 147.384C105.187 147.469 105.336 147.581 105.56 147.72C105.784 147.859 106.125 148.061 106.584 148.328C106.84 148.467 107.165 148.653 107.56 148.888C107.965 149.123 108.424 149.395 108.936 149.704C109.448 150.003 109.981 150.333 110.536 150.696C111.101 151.048 111.672 151.421 112.248 151.816C112.835 152.2 113.4 152.589 113.944 152.984L112.76 154.552Z" fill="white"/>
<g filter="url(#filter4_d_122_1159)">
<rect x="113" y="51" width="29" height="29" fill="#128FCD" fill-opacity="0.2" shape-rendering="crispEdges"/>
<rect x="114" y="52" width="27" height="27" stroke="#48BCCB" stroke-opacity="0.5" stroke-width="2" shape-rendering="crispEdges"/>
</g>
<path d="M121 73.312V63.168H133V73.312H131.064V72.528H122.936V71.04H131.064V68.496H122.936V67.008H131.064V64.688H122.936V73.312H121ZM127.208 63.888L125.304 63.568C125.453 63.088 125.592 62.5813 125.72 62.048C125.859 61.5147 125.987 60.9493 126.104 60.352L128.008 60.672C127.901 61.2587 127.779 61.8187 127.64 62.352C127.512 62.8853 127.368 63.3973 127.208 63.888ZM120.008 61.104V59.472H133.992V61.104H120.008Z" fill="white"/>
<g filter="url(#filter5_d_122_1159)">
<rect x="172" y="71" width="91" height="29" fill="#128FCD" fill-opacity="0.2" shape-rendering="crispEdges"/>
<rect x="173" y="72" width="89" height="27" stroke="#48BCCB" stroke-opacity="0.5" stroke-width="2" shape-rendering="crispEdges"/>
</g>
<path d="M179.72 90.976C181.171 90.8267 182.488 90.496 183.672 89.984C184.867 89.4613 185.896 88.7893 186.76 87.968C187.624 87.1467 188.291 86.208 188.76 85.152C189.229 84.0853 189.464 82.9387 189.464 81.712L190.28 82.624H182.488V80.912H191.432V81.712C191.432 82.896 191.256 84.0107 190.904 85.056C190.563 86.1013 190.067 87.0613 189.416 87.936C188.765 88.8107 187.981 89.584 187.064 90.256C186.157 90.9173 185.133 91.4613 183.992 91.888C182.861 92.304 181.629 92.576 180.296 92.704L179.72 90.976ZM177.56 85.584C178.349 85.0187 179.085 84.3787 179.768 83.664C180.451 82.9493 181.053 82.192 181.576 81.392C182.099 80.592 182.509 79.792 182.808 78.992L184.728 79.312C184.408 80.304 183.971 81.2533 183.416 82.16C182.861 83.056 182.195 83.904 181.416 84.704C180.648 85.4933 179.773 86.224 178.792 86.896L177.56 85.584ZM196.392 90.992C197.907 90.9493 199.187 90.8107 200.232 90.576C201.277 90.3307 202.115 89.9627 202.744 89.472C203.373 88.9707 203.821 88.32 204.088 87.52C204.365 86.72 204.504 85.744 204.504 84.592V79.648H206.552V84.544C206.552 85.984 206.371 87.2213 206.008 88.256C205.645 89.28 205.064 90.1173 204.264 90.768C203.475 91.4187 202.451 91.904 201.192 92.224C199.933 92.5547 198.413 92.7307 196.632 92.752L196.392 90.992ZM195.528 87.04V79.648H197.56V87.04H195.528ZM210.456 90.848C212.035 90.08 213.464 89.216 214.744 88.256C216.035 87.2853 217.16 86.24 218.12 85.12C219.091 84 219.869 82.8213 220.456 81.584L221.032 82.032H211.288V80.288H222.344V82.032C221.736 83.4293 220.888 84.7787 219.8 86.08C218.723 87.3707 217.464 88.56 216.024 89.648C214.595 90.736 213.027 91.68 211.32 92.48L210.456 90.848ZM222.36 92.592C221.752 91.8987 221.149 91.2693 220.552 90.704C219.965 90.1387 219.357 89.6107 218.728 89.12C218.099 88.6293 217.421 88.1547 216.696 87.696L217.944 86.336C219.011 87.008 220.013 87.7493 220.952 88.56C221.891 89.36 222.803 90.2667 223.688 91.28L222.36 92.592ZM231.368 87.808C233.235 87.0187 234.712 86.0907 235.8 85.024C236.888 83.9573 237.619 82.7147 237.992 81.296L239.8 82.128C239.544 83.12 239.085 84.064 238.424 84.96C237.773 85.8453 236.941 86.6667 235.928 87.424C234.915 88.1707 233.725 88.848 232.36 89.456L231.368 87.808ZM233.176 92.96C232.472 91.6373 231.699 90.3893 230.856 89.216C230.013 88.0427 229.085 86.928 228.072 85.872L229.64 84.752C230.707 85.872 231.672 87.0347 232.536 88.24C233.4 89.4453 234.173 90.7147 234.856 92.048L233.176 92.96ZM226.2 82.128V80.4H239.8V82.128H226.2ZM242.456 90.848C244.035 90.08 245.464 89.216 246.744 88.256C248.035 87.2853 249.16 86.24 250.12 85.12C251.091 84 251.869 82.8213 252.456 81.584L253.032 82.032H243.288V80.288H254.344V82.032C253.736 83.4293 252.888 84.7787 251.8 86.08C250.723 87.3707 249.464 88.56 248.024 89.648C246.595 90.736 245.027 91.68 243.32 92.48L242.456 90.848ZM254.36 92.592C253.752 91.8987 253.149 91.2693 252.552 90.704C251.965 90.1387 251.357 89.6107 250.728 89.12C250.099 88.6293 249.421 88.1547 248.696 87.696L249.944 86.336C251.011 87.008 252.013 87.7493 252.952 88.56C253.891 89.36 254.803 90.2667 255.688 91.28L254.36 92.592Z" fill="white"/>
<defs>
<filter id="filter0_d_122_1159" x="0" y="0" width="295.18" height="27" filterUnits="userSpaceOnUse" color-interpolation-filters="sRGB">
<feFlood flood-opacity="0" result="BackgroundImageFix"/>
<feColorMatrix in="SourceAlpha" type="matrix" values="0 0 0 0 0 0 0 0 0 0 0 0 0 0 0 0 0 0 127 0" result="hardAlpha"/>
<feOffset/>
<feGaussianBlur stdDeviation="2"/>
<feComposite in2="hardAlpha" operator="out"/>
<feColorMatrix type="matrix" values="0 0 0 0 1 0 0 0 0 1 0 0 0 0 1 0 0 0 0.6 0"/>
<feBlend mode="normal" in2="BackgroundImageFix" result="effect1_dropShadow_122_1159"/>
<feBlend mode="normal" in="SourceGraphic" in2="effect1_dropShadow_122_1159" result="shape"/>
</filter>
<filter id="filter1_d_122_1159" x="170" y="118" width="54" height="41" filterUnits="userSpaceOnUse" color-interpolation-filters="sRGB">
<feFlood flood-opacity="0" result="BackgroundImageFix"/>
<feColorMatrix in="SourceAlpha" type="matrix" values="0 0 0 0 0 0 0 0 0 0 0 0 0 0 0 0 0 0 127 0" result="hardAlpha"/>
<feOffset/>
<feGaussianBlur stdDeviation="3"/>
<feComposite in2="hardAlpha" operator="out"/>
<feColorMatrix type="matrix" values="0 0 0 0 0.282353 0 0 0 0 0.737255 0 0 0 0 0.796078 0 0 0 0.25 0"/>
<feBlend mode="normal" in2="BackgroundImageFix" result="effect1_dropShadow_122_1159"/>
<feBlend mode="normal" in="SourceGraphic" in2="effect1_dropShadow_122_1159" result="shape"/>
</filter>
<filter id="filter2_d_122_1159" x="30" y="67" width="54" height="41" filterUnits="userSpaceOnUse" color-interpolation-filters="sRGB">
<feFlood flood-opacity="0" result="BackgroundImageFix"/>
<feColorMatrix in="SourceAlpha" type="matrix" values="0 0 0 0 0 0 0 0 0 0 0 0 0 0 0 0 0 0 127 0" result="hardAlpha"/>
<feOffset/>
<feGaussianBlur stdDeviation="3"/>
<feComposite in2="hardAlpha" operator="out"/>
<feColorMatrix type="matrix" values="0 0 0 0 0.282353 0 0 0 0 0.737255 0 0 0 0 0.796078 0 0 0 0.25 0"/>
<feBlend mode="normal" in2="BackgroundImageFix" result="effect1_dropShadow_122_1159"/>
<feBlend mode="normal" in="SourceGraphic" in2="effect1_dropShadow_122_1159" result="shape"/>
</filter>
<filter id="filter3_d_122_1159" x="74" y="126" width="54" height="41" filterUnits="userSpaceOnUse" color-interpolation-filters="sRGB">
<feFlood flood-opacity="0" result="BackgroundImageFix"/>
<feColorMatrix in="SourceAlpha" type="matrix" values="0 0 0 0 0 0 0 0 0 0 0 0 0 0 0 0 0 0 127 0" result="hardAlpha"/>
<feOffset/>
<feGaussianBlur stdDeviation="3"/>
<feComposite in2="hardAlpha" operator="out"/>
<feColorMatrix type="matrix" values="0 0 0 0 0.282353 0 0 0 0 0.737255 0 0 0 0 0.796078 0 0 0 0.25 0"/>
<feBlend mode="normal" in2="BackgroundImageFix" result="effect1_dropShadow_122_1159"/>
<feBlend mode="normal" in="SourceGraphic" in2="effect1_dropShadow_122_1159" result="shape"/>
</filter>
<filter id="filter4_d_122_1159" x="107" y="45" width="41" height="41" filterUnits="userSpaceOnUse" color-interpolation-filters="sRGB">
<feFlood flood-opacity="0" result="BackgroundImageFix"/>
<feColorMatrix in="SourceAlpha" type="matrix" values="0 0 0 0 0 0 0 0 0 0 0 0 0 0 0 0 0 0 127 0" result="hardAlpha"/>
<feOffset/>
<feGaussianBlur stdDeviation="3"/>
<feComposite in2="hardAlpha" operator="out"/>
<feColorMatrix type="matrix" values="0 0 0 0 0.282353 0 0 0 0 0.737255 0 0 0 0 0.796078 0 0 0 0.25 0"/>
<feBlend mode="normal" in2="BackgroundImageFix" result="effect1_dropShadow_122_1159"/>
<feBlend mode="normal" in="SourceGraphic" in2="effect1_dropShadow_122_1159" result="shape"/>
</filter>
<filter id="filter5_d_122_1159" x="166" y="65" width="103" height="41" filterUnits="userSpaceOnUse" color-interpolation-filters="sRGB">
<feFlood flood-opacity="0" result="BackgroundImageFix"/>
<feColorMatrix in="SourceAlpha" type="matrix" values="0 0 0 0 0 0 0 0 0 0 0 0 0 0 0 0 0 0 127 0" result="hardAlpha"/>
<feOffset/>
<feGaussianBlur stdDeviation="3"/>
<feComposite in2="hardAlpha" operator="out"/>
<feColorMatrix type="matrix" values="0 0 0 0 0.282353 0 0 0 0 0.737255 0 0 0 0 0.796078 0 0 0 0.25 0"/>
<feBlend mode="normal" in2="BackgroundImageFix" result="effect1_dropShadow_122_1159"/>
<feBlend mode="normal" in="SourceGraphic" in2="effect1_dropShadow_122_1159" result="shape"/>
</filter>
</defs>
</svg>
