<svg width="316" height="190" viewBox="0 0 316 190" fill="none" xmlns="http://www.w3.org/2000/svg">
<g filter="url(#filter0_d_122_1107)">
<rect x="124" y="5" width="64" height="17" stroke="white" stroke-width="2"/>
<rect x="194" y="5" width="64" height="17" stroke="white" stroke-width="2"/>
<rect x="54" y="5" width="64" height="17" stroke="white" stroke-width="2"/>
</g>
<g filter="url(#filter1_d_122_1107)">
<rect x="144.506" y="61" width="120" height="29" transform="rotate(15 144.506 61)" fill="#128FCD" fill-opacity="0.2" shape-rendering="crispEdges"/>
<rect x="145.213" y="62.2247" width="118" height="27" transform="rotate(15 145.213 62.2247)" stroke="#48BCCB" stroke-opacity="0.5" stroke-width="2" shape-rendering="crispEdges"/>
</g>
<path d="M153.594 86.5509L155.938 77.8035L157.839 78.3129L156.659 82.7175L163.212 84.4733L163.593 83.0515L157.04 81.2956L157.396 79.9665L163.949 81.7224L164.317 80.3469L157.44 78.5041L157.829 77.0513L166.608 79.4035L164.583 86.9609C164.442 87.4863 164.304 87.8967 164.17 88.192C164.033 88.4976 163.871 88.7084 163.686 88.8243C163.5 88.9402 163.251 88.9838 162.938 88.9553C162.626 88.9267 162.212 88.8435 161.697 88.7054C161.501 88.653 161.236 88.5709 160.901 88.4592C160.564 88.3578 160.07 88.2033 159.419 87.9957L159.77 86.4996C160.29 86.661 160.707 86.7948 161.021 86.901C161.348 86.9996 161.609 87.0752 161.805 87.1276C162.021 87.1856 162.172 87.2205 162.257 87.2323C162.353 87.2468 162.418 87.2311 162.452 87.1851C162.489 87.1288 162.527 87.0285 162.566 86.8843L162.86 85.787L156.307 84.0311L155.495 87.0603L153.594 86.5509ZM152.762 80.8783L152.468 79.0104C153.644 78.6188 154.685 78.1524 155.592 77.6114C156.499 77.0704 157.307 76.4254 158.015 75.6767C158.734 74.9306 159.389 74.0516 159.981 73.0395L161.875 73.6963C161.228 74.8368 160.461 75.8627 159.577 76.7741C158.702 77.6883 157.699 78.4852 156.567 79.1647C155.438 79.834 154.17 80.4052 152.762 80.8783ZM154.171 74.6301L154.573 73.131L168.359 76.8248L167.957 78.3239L154.171 74.6301ZM180.522 86.0802C179.934 85.9228 179.373 85.6068 178.838 85.132C178.315 84.6498 177.857 84.0521 177.463 83.3391C177.071 82.6158 176.78 81.8088 176.588 80.9181C176.398 80.0171 176.347 79.0757 176.433 78.0939L178.342 78.39C178.293 79.1059 178.337 79.8078 178.473 80.4957C178.609 81.1837 178.8 81.8092 179.047 82.3722C179.294 82.9352 179.568 83.3952 179.87 83.7522C180.182 84.1119 180.483 84.3305 180.771 84.4078C180.895 84.4409 181.055 84.3789 181.252 84.2218C181.448 84.0647 181.703 83.752 182.016 83.2838L183.2 84.4292C182.72 85.1508 182.254 85.6333 181.802 85.8766C181.361 86.1228 180.934 86.1906 180.522 86.0802ZM167.472 90.3356L167.668 88.7981C168.532 88.9524 169.411 89.0939 170.304 89.2228C171.208 89.3544 172.127 89.4682 173.062 89.5642C174.007 89.6629 174.958 89.7409 175.914 89.7984L175.746 91.2937C174.776 91.2438 173.819 91.1694 172.873 91.0707C171.936 90.9851 171.015 90.8765 170.112 90.7448C169.205 90.6235 168.325 90.4871 167.472 90.3356ZM170.076 89.8904L171.078 86.1503L172.886 86.6348L171.884 90.3749L170.076 89.8904ZM167.338 87.6825L167.21 86.0581C168.396 86.122 169.432 86.1291 170.318 86.0793C171.207 86.0192 171.995 85.8993 172.684 85.7194C173.373 85.5395 174.009 85.307 174.594 85.0218L175.212 86.1151C174.53 86.4736 173.805 86.7706 173.035 87.006C172.265 87.2415 171.417 87.4174 170.492 87.5338C169.569 87.6399 168.517 87.6895 167.338 87.6825ZM170.378 83.1967L171.538 78.8693L173.346 79.3538L172.187 83.6812L170.378 83.1967ZM179.978 93.7363C178.937 93.1262 178.023 92.3954 177.236 91.5439C176.455 90.7054 175.834 89.788 175.372 88.7919C174.921 87.7985 174.659 86.7953 174.589 85.7825L176.289 85.7412C176.408 86.7005 176.653 87.5779 177.025 88.3733C177.41 89.1612 177.943 89.8946 178.622 90.5736C179.314 91.2451 180.173 91.8947 181.197 92.5226L179.978 93.7363ZM169.254 81.2721L169.036 79.4909C170.005 79.2536 170.886 78.9321 171.679 78.5263C172.483 78.1232 173.177 77.6575 173.76 77.1291L175.252 78.175C174.505 78.9024 173.619 79.5318 172.593 80.063C171.58 80.5868 170.467 80.9898 169.254 81.2721ZM168.049 84.5935L168.435 83.1562L174.524 84.7878L174.934 83.2578L176.835 83.7671L176.425 85.2972L182.251 86.8584L181.866 88.2957L168.049 84.5935ZM177.901 90.546L176.848 89.2203C177.415 89.041 177.956 88.8328 178.473 88.5956C178.989 88.3585 179.477 88.1028 179.937 87.8285L181.154 89.0987C180.671 89.3778 180.153 89.642 179.6 89.8915C179.05 90.1306 178.483 90.3488 177.901 90.546ZM173.52 81.2391L173.749 79.6439L183.478 81.2902L183.22 82.8111L173.52 81.2391ZM181.632 81.6899C181.319 81.3742 180.971 81.0436 180.589 80.6982C180.217 80.3556 179.855 80.0377 179.503 79.7446L180.859 78.9485C181.221 79.2444 181.589 79.5636 181.961 79.9063C182.343 80.2516 182.691 80.5822 183.003 80.898L181.632 81.6899ZM189.992 93.2061L192.162 85.1078L198.73 86.8678L196.56 94.9661L191.677 93.6575L192.049 92.2666L195.187 93.1072L195.46 92.0872L192.323 91.2466L192.641 90.0565L195.779 90.8972L196.044 89.9081L192.906 89.0674L193.225 87.8774L196.363 88.7181L196.619 87.7599L193.482 86.9192L191.677 93.6575L189.992 93.2061ZM182.543 94.4237L182.106 92.7164C182.897 92.6081 183.562 92.433 184.102 92.1911C184.642 91.9492 185.069 91.633 185.383 91.2424C185.711 90.8442 185.95 90.3618 186.102 89.7952L186.413 88.6361L188.067 89.0792L187.756 90.2383C187.549 91.011 187.208 91.687 186.732 92.2664C186.27 92.8382 185.686 93.3058 184.981 93.6691C184.274 94.0427 183.461 94.2942 182.543 94.4237ZM187.822 95.0597C187.543 94.4547 187.227 93.8621 186.874 93.2818C186.522 92.7014 186.122 92.1138 185.674 91.5189L186.856 90.6927C187.298 91.1866 187.723 91.7203 188.133 92.2938C188.555 92.8598 188.952 93.4797 189.324 94.1535L187.822 95.0597ZM182.992 90.3367L183.377 88.8994L190.255 90.7422L189.87 92.1795L182.992 90.3367ZM189.079 96.2413L188.613 94.6422C189.27 94.542 189.894 94.3947 190.488 94.2003C191.091 94.0086 191.6 93.7972 192.016 93.5662L192.654 95.0789C192.23 95.3409 191.699 95.5739 191.059 95.7778C190.426 95.9949 189.767 96.1494 189.079 96.2413ZM184.201 88.3582L183.656 86.8703C184.567 86.5622 185.372 86.2148 186.072 85.8282C186.775 85.4312 187.369 85.0052 187.856 84.5502L188.716 85.2943C187.467 86.6602 185.962 87.6815 184.201 88.3582ZM186.135 83.6752C186.057 83.2677 185.968 82.8573 185.869 82.4443C185.773 82.0209 185.669 81.6233 185.559 81.2514L187.007 80.977C187.118 81.3488 187.226 81.7478 187.333 82.1739C187.442 82.5898 187.531 83.0001 187.599 83.4049L186.135 83.6752ZM189.719 89.3398C189.432 88.7218 189.135 88.1398 188.829 87.5939C188.536 87.0404 188.209 86.5058 187.851 85.99L188.798 85.2996C189.166 85.6965 189.544 86.1621 189.931 86.6965C190.318 87.2308 190.709 87.8325 191.104 88.5015L189.719 89.3398ZM186.516 88.2497L187.22 85.6224L184.454 84.8811L184.827 83.4902L187.593 84.2314L188.421 81.1405L190.075 81.5836L189.247 84.6745L191.658 85.3205L191.285 86.7115L188.874 86.0655L188.17 88.6928L186.516 88.2497ZM195.477 98.0217C195.127 97.5527 194.736 97.0778 194.301 96.597C193.874 96.1292 193.436 95.6859 192.985 95.2669L194.187 94.181C194.689 94.6138 195.156 95.0757 195.588 95.5668C196.022 96.0476 196.389 96.5105 196.69 96.9554L195.477 98.0217ZM190.722 84.8546L189.593 83.9391C189.903 83.6467 190.201 83.3399 190.486 83.0187C190.781 82.7003 191.037 82.3824 191.254 82.0653L192.478 82.9397C192.24 83.2513 191.965 83.5753 191.654 83.9116C191.354 84.2507 191.043 84.565 190.722 84.8546ZM195.469 86.9216L193.759 86.1321C193.993 85.7531 194.221 85.3559 194.443 84.9405C194.678 84.5175 194.908 84.0712 195.133 83.6015L196.832 84.3713C196.617 84.8438 196.392 85.2915 196.157 85.7145C195.933 86.1402 195.703 86.5426 195.469 86.9216ZM192.272 84.0773L192.67 82.5936L199.764 84.4944L199.366 85.9781L192.272 84.0773ZM207.212 99.725C206.284 99.4765 205.489 99.1255 204.827 98.6719C204.175 98.2211 203.703 97.7138 203.413 97.15C203.135 96.5787 203.075 95.9994 203.232 95.4121C203.514 94.3612 204.489 93.4629 206.157 92.7174L207.217 94.0781C206.552 94.3748 206.047 94.6535 205.701 94.9142C205.366 95.1776 205.158 95.4587 205.078 95.7575C204.995 96.0666 205.047 96.3676 205.233 96.6606C205.42 96.9535 205.718 97.2211 206.128 97.4635C206.538 97.7058 207.047 97.9084 207.655 98.0713C208.17 98.2094 208.756 98.3279 209.415 98.4269C210.086 98.5184 210.769 98.5856 211.464 98.6283L211.277 100.317C210.568 100.282 209.863 100.215 209.161 100.115C208.469 100.018 207.819 99.8879 207.212 99.725ZM205.637 89.2816L206.084 87.6125L214.012 89.7368L213.565 91.406L205.637 89.2816ZM199.225 98.3137C199.241 97.1807 199.326 96.0825 199.478 95.0191C199.63 93.9556 199.861 92.8469 200.17 91.6929C200.477 90.5493 200.829 89.484 201.226 88.4971C201.625 87.4999 202.101 86.5066 202.653 85.5172L204.43 86.2418C203.915 87.1749 203.461 88.1298 203.067 89.1064C202.685 90.0754 202.349 91.106 202.056 92.1982C201.763 93.2903 201.538 94.3564 201.381 95.3965C201.234 96.4393 201.153 97.4833 201.138 98.5284L199.225 98.3137ZM221.983 104.809C221.736 104.743 221.398 104.642 220.971 104.505C220.554 104.371 220.053 104.204 219.466 104.002L219.87 102.371C220.346 102.532 220.787 102.678 221.194 102.809C221.611 102.943 221.938 103.041 222.175 103.105C222.329 103.146 222.477 103.153 222.617 103.124C222.757 103.095 222.897 103.006 223.037 102.855C223.176 102.705 223.317 102.467 223.46 102.141C223.613 101.817 223.779 101.381 223.959 100.833C224.139 100.285 224.341 99.594 224.565 98.7594L224.842 97.724L217.316 95.7072L217.738 94.1309L227.104 96.6404L226.619 98.4486C226.271 99.7468 225.957 100.817 225.676 101.658C225.406 102.502 225.139 103.17 224.874 103.663C224.623 104.147 224.36 104.491 224.085 104.693C223.809 104.896 223.501 104.995 223.16 104.992C222.829 104.992 222.436 104.931 221.983 104.809ZM214.583 103.125L213.828 101.365C214.558 101.197 215.21 100.968 215.784 100.68C216.372 100.385 216.891 100.011 217.344 99.5578C217.799 99.0945 218.205 98.5295 218.56 97.8628C218.926 97.1988 219.257 96.4152 219.555 95.512L221.342 96.0738C221.003 97.1315 220.619 98.0501 220.19 98.8294C219.77 99.6115 219.287 100.283 218.739 100.843C218.205 101.395 217.595 101.856 216.911 102.225C216.227 102.593 215.451 102.893 214.583 103.125ZM215.529 96.0071L214.594 94.3652C215.724 93.8175 216.78 93.1729 217.763 92.4313C218.748 91.6795 219.66 90.8306 220.499 89.8848L222.011 90.9193C221.132 91.9757 220.148 92.9268 219.06 93.7727C217.982 94.6214 216.805 95.3662 215.529 96.0071ZM227.769 99.2868C226.995 98.0965 226.348 96.8631 225.829 95.5865C225.31 94.31 224.933 92.9944 224.7 91.6399L226.527 91.4998C226.78 92.7383 227.145 93.9295 227.623 95.0734C228.103 96.207 228.696 97.2933 229.4 98.3323L227.769 99.2868ZM236.356 105.629L238.526 97.5311L245.095 99.2911L242.925 107.389L238.041 106.081L238.414 104.69L241.551 105.531L241.824 104.511L238.687 103.67L239.006 102.48L242.143 103.32L242.408 102.331L239.271 101.491L239.59 100.301L242.727 101.141L242.984 100.183L239.847 99.3425L238.041 106.081L236.356 105.629ZM228.908 106.847L228.47 105.14C229.261 105.031 229.927 104.856 230.466 104.614C231.006 104.373 231.433 104.056 231.748 103.666C232.075 103.268 232.315 102.785 232.467 102.218L232.777 101.059L234.431 101.502L234.12 102.662C233.913 103.434 233.572 104.11 233.097 104.69C232.634 105.262 232.051 105.729 231.346 106.092C230.638 106.466 229.826 106.718 228.908 106.847ZM234.187 107.483C233.907 106.878 233.591 106.285 233.239 105.705C232.886 105.125 232.486 104.537 232.038 103.942L233.22 103.116C233.662 103.61 234.088 104.144 234.497 104.717C234.92 105.283 235.317 105.903 235.688 106.577L234.187 107.483ZM229.357 102.76L229.742 101.323L236.619 103.165L236.234 104.603L229.357 102.76ZM235.444 108.665L234.978 107.066C235.634 106.965 236.259 106.818 236.852 106.624C237.456 106.432 237.965 106.221 238.38 105.989L239.018 107.502C238.595 107.764 238.063 107.997 237.423 108.201C236.791 108.418 236.131 108.573 235.444 108.665ZM230.566 100.782L230.02 99.2937C230.931 98.9856 231.737 98.6382 232.436 98.2515C233.139 97.8545 233.734 97.4285 234.22 96.9735L235.081 97.7177C233.831 99.0835 232.326 100.105 230.566 100.782ZM232.5 96.0985C232.421 95.691 232.332 95.2807 232.233 94.8676C232.137 94.4442 232.034 94.0466 231.923 93.6748L233.372 93.4003C233.482 93.7721 233.59 94.1711 233.697 94.5973C233.807 95.0131 233.895 95.4234 233.964 95.8282L232.5 96.0985ZM236.084 101.763C235.797 101.145 235.5 100.563 235.193 100.017C234.9 99.4637 234.574 98.9291 234.215 98.4133L235.162 97.7229C235.531 98.1198 235.908 98.5854 236.295 99.1198C236.682 99.6541 237.073 100.256 237.468 100.925L236.084 101.763ZM232.881 100.673L233.585 98.0457L230.818 97.3044L231.191 95.9135L233.958 96.6547L234.786 93.5638L236.439 94.0069L235.611 97.0978L238.022 97.7439L237.649 99.1348L235.238 98.4888L234.535 101.116L232.881 100.673ZM241.841 110.445C241.492 109.976 241.1 109.501 240.666 109.02C240.239 108.553 239.8 108.109 239.349 107.69L240.551 106.604C241.054 107.037 241.521 107.499 241.952 107.99C242.386 108.471 242.754 108.934 243.054 109.379L241.841 110.445ZM237.087 97.2779L235.957 96.3624C236.268 96.07 236.565 95.7633 236.85 95.442C237.145 95.1236 237.401 94.8058 237.619 94.4886L238.842 95.363C238.604 95.6747 238.33 95.9986 238.019 96.335C237.718 96.674 237.407 96.9883 237.087 97.2779ZM241.834 99.3449L240.124 98.5554C240.358 98.1764 240.586 97.7792 240.807 97.3638C241.042 96.9408 241.272 96.4945 241.497 96.0248L243.196 96.7946C242.981 97.2671 242.756 97.7148 242.521 98.1378C242.297 98.5635 242.068 98.9659 241.834 99.3449ZM238.637 96.5006L239.034 95.0169L246.128 96.9177L245.731 98.4014L238.637 96.5006Z" fill="white"/>
<g filter="url(#filter2_d_122_1107)">
<rect x="7" y="66.0583" width="120" height="29" transform="rotate(-15 7 66.0583)" fill="#128FCD" fill-opacity="0.2" shape-rendering="crispEdges"/>
<rect x="8.22474" y="66.7654" width="118" height="27" transform="rotate(-15 8.22474 66.7654)" stroke="#48BCCB" stroke-opacity="0.5" stroke-width="2" shape-rendering="crispEdges"/>
</g>
<path d="M31.921 80.0613L28.7655 68.2847L35.0711 66.5952L35.51 68.2334L31.1054 69.4136L33.822 79.5519L31.921 80.0613ZM51.1114 77.1886C50.4108 77.3763 49.8489 77.5048 49.4257 77.574C49.0156 77.6508 48.6961 77.6535 48.4672 77.5824C48.2384 77.5112 48.0612 77.3654 47.9359 77.145C47.8209 76.9218 47.711 76.6145 47.6061 76.2229L46.6288 72.5756L41.8068 73.8676L41.4176 72.4149L49.9177 70.1373L49.3297 67.9427L46.0224 68.8289L46.6104 71.0235L44.7249 71.5287L44.1369 69.3341L40.8295 70.2203L41.9973 74.5785L40.22 75.0548L38.6506 69.1974L43.7352 67.835L43.23 65.9495L45.1155 65.4443L45.6207 67.3298L50.7053 65.9673L52.0843 71.1138L50.307 71.59L48.4833 72.0787L49.3695 75.386C49.4082 75.5302 49.4475 75.6357 49.4874 75.7023C49.5273 75.7689 49.5889 75.8131 49.672 75.835C49.7655 75.8541 49.9012 75.8454 50.0791 75.8087C50.2673 75.7694 50.516 75.7082 50.8251 75.6254C51.1033 75.5509 51.3169 75.4826 51.4659 75.4206C51.6252 75.3558 51.7299 75.2725 51.78 75.1708C51.8403 75.0663 51.8597 74.912 51.8382 74.708C51.8138 74.4936 51.7664 74.2137 51.6959 73.8682L53.5105 73.531C53.6488 74.2118 53.7343 74.7576 53.7671 75.1684C53.8074 75.5662 53.7466 75.8751 53.5847 76.0952C53.4359 76.3228 53.1609 76.5124 52.7598 76.6641C52.3718 76.8233 51.8223 76.9981 51.1114 77.1886ZM41.5678 79.9611L40.3934 78.6691C41.0875 78.2512 41.6591 77.8496 42.108 77.4642C42.5644 77.0659 42.9119 76.6525 43.1505 76.2241C43.3994 75.793 43.5507 75.3273 43.6044 74.8271C43.6656 74.3137 43.6471 73.75 43.5488 73.1358L45.3107 72.6638C45.6396 74.221 45.4983 75.5895 44.8868 76.7693C44.2856 77.9464 43.1793 79.0103 41.5678 79.9611ZM51.856 74.1565C51.4812 73.8705 51.0848 73.6068 50.6668 73.3654C50.2563 73.111 49.8293 72.8775 49.3859 72.6651L50.4251 71.2271C51.3175 71.6726 52.132 72.1777 52.8685 72.7423L51.856 74.1565ZM38.4093 68.2351L37.9231 66.7917C40.4577 66.1126 42.7079 65.4434 44.6736 64.7842C46.6496 64.1222 48.3349 63.4884 49.7297 62.8827L50.4239 64.2372C49.4632 64.6492 48.3695 65.0803 47.1429 65.5305C45.9162 65.9806 44.5694 66.4354 43.1023 66.8947C41.6324 67.3438 40.0681 67.7906 38.4093 68.2351ZM67.6514 72.9555C67.3938 73.0245 67.0614 73.1025 66.654 73.1896C66.2494 73.287 65.8098 73.3772 65.3351 73.4602L64.8169 71.9591C65.0258 71.9142 65.2411 71.8731 65.463 71.8357C65.6924 71.7853 65.8961 71.7418 66.074 71.7051C66.2623 71.6657 66.4027 71.6336 66.4955 71.6088C66.6397 71.5701 66.7564 71.5112 66.8457 71.4321C66.9321 71.3427 66.9814 71.197 66.9936 70.9949C67.0132 70.7799 66.9861 70.4724 66.9121 70.0726C66.8381 69.6728 66.7151 69.1315 66.5432 68.4487L55.9567 71.2854L53.5424 62.2752L65.3808 59.1032L65.7783 60.5868L60.9564 61.8788L62.5715 67.9062L60.7169 68.4031L59.1019 62.3758L55.7945 63.262L56.0927 64.3747L65.6128 61.8238L65.9648 63.1375L56.4447 65.6884L56.747 66.8166L66.2671 64.2657L66.6191 65.5793L57.099 68.1302L57.4096 69.2893L67.9497 66.4651L68.2934 67.7479C68.5557 68.7267 68.7388 69.5334 68.8426 70.1682C68.9464 70.803 68.9652 71.3059 68.899 71.677C68.8431 72.0454 68.7081 72.3245 68.4939 72.5144C68.2929 72.7118 68.012 72.8589 67.6514 72.9555ZM57.3483 75.799L55.6443 75.5599C55.7549 74.9008 55.8297 74.2734 55.8688 73.6776C55.9155 73.0688 55.9436 72.4318 55.9531 71.7667L57.6115 71.8358C57.6329 72.4927 57.622 73.1527 57.5788 73.8158C57.5329 74.4686 57.4561 75.1296 57.3483 75.799ZM59.7515 74.6913C59.5516 74.1927 59.3387 73.6865 59.1127 73.1729C58.884 72.6489 58.6277 72.1047 58.344 71.5402L59.7346 70.9191C60.0362 71.4677 60.3079 72.0078 60.5497 72.5394C60.7888 73.0606 61.0031 73.5719 61.1926 74.0732L59.7515 74.6913ZM62.6522 73.4005C62.4195 72.9439 62.1777 72.4951 61.9271 72.0543C61.684 71.6004 61.4227 71.1404 61.1432 70.6742L62.4317 69.9811C62.7346 70.4521 63.0127 70.9131 63.2661 71.3643C63.5195 71.8154 63.7575 72.2706 63.98 72.73L62.6522 73.4005ZM65.2632 71.9555C65.0181 71.5353 64.7631 71.1398 64.4981 70.7691C64.2406 70.3853 63.9571 69.9865 63.6474 69.5725L64.8379 68.8228C65.1476 69.2368 65.4312 69.6357 65.6886 70.0194C65.9564 70.4005 66.2179 70.7997 66.4733 71.2172L65.2632 71.9555ZM74.9685 58.7206L78.124 70.4972L71.8184 72.1868L71.3795 70.5486L75.7841 69.3684L73.0675 59.23L74.9685 58.7206ZM93.8117 65.4324C91.885 65.9486 90.3418 66.0419 89.1823 65.7121C88.02 65.372 87.2829 64.6198 86.9709 63.4555C86.7087 62.4767 86.8356 61.4875 87.3518 60.4878C87.8652 59.4778 88.8022 58.4207 90.1627 57.3162C91.5335 56.209 93.357 55.0192 95.6333 53.7467L96.5091 55.2844C94.579 56.3648 93.0173 57.3575 91.8242 58.2624C90.6414 59.1646 89.8079 59.9898 89.3237 60.738C88.8471 61.473 88.6957 62.1651 88.8696 62.8142C89.2285 64.1537 90.7629 64.4603 93.4726 63.7343C93.9156 63.6155 94.3738 63.4707 94.847 63.2997C95.3202 63.1288 95.8459 62.9272 96.4242 62.6949C97.01 62.4496 97.6727 62.1616 98.4123 61.8309L99.0759 63.4421C98.1413 63.8692 97.2279 64.252 96.3358 64.5904C95.4567 64.9364 94.6153 65.217 93.8117 65.4324ZM89.0242 59.3109C88.4548 58.3812 87.9374 57.4597 87.4718 56.5465C87.0035 55.6229 86.5791 54.6985 86.1987 53.7735L87.9942 52.9942C88.3849 53.9165 88.8116 54.8292 89.2745 55.7321C89.7345 56.6248 90.2344 57.5013 90.7741 58.3616L89.0242 59.3109ZM111.03 60.7027C110.113 60.9484 109.329 61.0923 108.678 61.1343C108.029 61.1866 107.493 61.1206 107.068 60.9363C106.64 60.7416 106.284 60.4229 106 59.9801C105.723 59.5242 105.484 58.9201 105.282 58.168C105.219 57.931 105.127 57.569 105.008 57.082C104.886 56.5847 104.747 56.0036 104.591 55.3387C104.434 54.6737 104.267 53.9676 104.089 53.2202C103.919 52.4598 103.747 51.6943 103.573 50.9235C103.4 50.1528 103.235 49.413 103.078 48.7041L104.929 48.2577C105.064 48.8842 105.211 49.557 105.371 50.2762C105.53 50.9954 105.69 51.7146 105.85 52.4338C106.019 53.1503 106.18 53.8306 106.33 54.475C106.481 55.1193 106.619 55.6952 106.744 56.2029C106.866 56.7002 106.964 57.0879 107.039 57.3661C107.179 57.8916 107.329 58.3043 107.486 58.6044C107.644 58.9045 107.849 59.1145 108.102 59.2344C108.355 59.3544 108.681 59.3942 109.079 59.3539C109.487 59.3108 109.99 59.2092 110.587 59.049C111.401 58.8309 112.026 58.6083 112.462 58.381C112.906 58.1407 113.187 57.872 113.306 57.575C113.433 57.265 113.438 56.8936 113.322 56.4609C113.273 56.2754 113.193 56.0594 113.083 55.8129C112.972 55.5664 112.868 55.3624 112.77 55.2011L114.459 54.3343C114.651 54.6804 114.798 54.9832 114.901 55.2428C115.014 55.4997 115.106 55.762 115.178 56.0299C115.385 56.8027 115.38 57.4832 115.162 58.0717C114.944 58.6601 114.495 59.167 113.814 59.5925C113.133 60.0179 112.205 60.388 111.03 60.7027ZM100.936 57.2786L100.518 55.7177L112.773 52.4338L113.192 53.9947L100.936 57.2786ZM100.164 53.1621L99.7461 51.6011L111.384 48.4829L111.802 50.0438L100.164 53.1621Z" fill="white"/>
<g filter="url(#filter3_d_122_1107)">
<rect x="63.5059" y="84" width="120" height="29" transform="rotate(15 63.5059 84)" fill="#128FCD" fill-opacity="0.2" shape-rendering="crispEdges"/>
<rect x="64.213" y="85.2247" width="118" height="27" transform="rotate(15 64.213 85.2247)" stroke="#48BCCB" stroke-opacity="0.5" stroke-width="2" shape-rendering="crispEdges"/>
</g>
<path d="M71.1272 109.092L70.5036 107.401C71.9702 107.12 73.2653 106.655 74.3888 106.007C75.5226 105.361 76.4666 104.537 77.2209 103.535C77.9882 102.526 78.5541 101.342 78.9185 99.9817L79.8088 96.6589L81.6943 97.1641L80.804 100.487C80.5058 101.6 80.0445 102.641 79.4202 103.611C78.7986 104.571 78.0544 105.432 77.1878 106.193C76.3342 106.948 75.3883 107.572 74.3502 108.067C73.3224 108.564 72.2481 108.906 71.1272 109.092ZM82.9965 112.272C82.1494 111.559 81.4104 110.732 80.7794 109.79C80.1587 108.85 79.6673 107.841 79.3051 106.761C78.956 105.673 78.7574 104.56 78.7093 103.421C78.6639 102.271 78.7903 101.14 79.0885 100.027L80.804 100.487C80.4395 101.847 80.3322 103.154 80.4818 104.409C80.6445 105.656 81.0554 106.843 81.7143 107.969C82.3733 109.096 83.2625 110.146 84.382 111.119L82.9965 112.272ZM72.8162 99.8208L73.251 98.1981L86.604 101.776L86.1691 103.399L72.8162 99.8208ZM86.3656 113.175L85.7236 111.429C86.8741 111.174 87.9296 110.8 88.89 110.306C89.8533 109.802 90.7163 109.178 91.4792 108.433C92.2524 107.69 92.9137 106.829 93.4632 105.85C94.023 104.874 94.4644 103.783 94.7874 102.577L95.2636 100.8L97.1491 101.305L96.6729 103.083C96.3306 104.36 95.82 105.565 95.1411 106.697C94.4623 107.829 93.6599 108.846 92.734 109.746C91.8108 110.636 90.8061 111.377 89.7198 111.97C88.6438 112.565 87.5257 112.967 86.3656 113.175ZM98.6677 116.471C97.798 115.719 97.0512 114.818 96.4272 113.767C95.8032 112.716 95.3191 111.576 94.975 110.347C94.6439 109.109 94.4726 107.832 94.4611 106.515C94.4496 105.198 94.6151 103.9 94.9574 102.623L96.6729 103.083C96.3499 104.288 96.1815 105.452 96.1678 106.575C96.1644 107.7 96.3067 108.776 96.5948 109.803C96.8931 110.833 97.3334 111.807 97.9156 112.725C98.511 113.635 99.2379 114.487 100.097 115.28L98.6677 116.471ZM110.757 118.584C109.829 118.335 109.035 117.984 108.372 117.531C107.72 117.08 107.248 116.573 106.958 116.009C106.68 115.438 106.62 114.858 106.777 114.271C107.059 113.22 108.034 112.322 109.703 111.576L110.762 112.937C110.098 113.234 109.592 113.512 109.246 113.773C108.911 114.037 108.703 114.318 108.623 114.616C108.54 114.926 108.592 115.227 108.778 115.519C108.965 115.812 109.263 116.08 109.673 116.322C110.083 116.565 110.592 116.767 111.2 116.93C111.715 117.068 112.302 117.187 112.96 117.286C113.631 117.377 114.314 117.444 115.009 117.487L114.822 119.176C114.114 119.141 113.408 119.074 112.706 118.974C112.014 118.877 111.365 118.747 110.757 118.584ZM109.182 108.14L109.629 106.471L117.558 108.596L117.11 110.265L109.182 108.14ZM102.77 117.173C102.786 116.04 102.871 114.941 103.023 113.878C103.176 112.815 103.406 111.706 103.716 110.552C104.022 109.408 104.374 108.343 104.771 107.356C105.17 106.359 105.646 105.366 106.199 104.376L107.976 105.101C107.461 106.034 107.006 106.989 106.612 107.965C106.231 108.934 105.894 109.965 105.601 111.057C105.309 112.149 105.084 113.215 104.926 114.255C104.779 115.298 104.698 116.342 104.684 117.387L102.77 117.173ZM123.537 122.754C122.383 122.445 121.558 121.936 121.063 121.23C120.565 120.533 120.44 119.721 120.689 118.794C120.946 117.835 121.473 117.187 122.27 116.849C123.07 116.5 124.068 116.486 125.263 116.806C125.768 116.941 126.247 117.152 126.7 117.439C127.153 117.726 127.605 118.101 128.055 118.564C128.505 119.027 128.967 119.593 129.439 120.26C129.922 120.931 130.423 121.722 130.94 122.634L129.496 123.572C128.887 122.547 128.366 121.712 127.932 121.066C127.511 120.412 127.134 119.902 126.801 119.537C126.481 119.164 126.169 118.887 125.864 118.706C125.569 118.528 125.237 118.389 124.866 118.29C124.165 118.102 123.618 118.082 123.225 118.231C122.842 118.382 122.584 118.705 122.452 119.2C122.317 119.705 122.374 120.129 122.624 120.472C122.878 120.805 123.318 121.055 123.947 121.224C124.637 121.409 125.192 121.397 125.613 121.19C126.043 120.985 126.333 120.604 126.482 120.048L128.623 112.058C129.529 112.3 130.365 112.541 131.129 112.779C131.907 113.009 132.665 113.251 133.403 113.504L132.86 115.098C132.204 114.867 131.513 114.643 130.787 114.427C130.074 114.202 129.306 113.98 128.481 113.759L130.291 113.002L128.324 120.343C128.02 121.476 127.465 122.249 126.659 122.663C125.855 123.066 124.815 123.096 123.537 122.754ZM117.163 118.412C117.945 117.308 118.686 116.214 119.384 115.131C120.086 114.038 120.764 112.928 121.42 111.801C122.078 110.663 122.719 109.487 123.342 108.274L125.043 108.912C124.411 110.156 123.756 111.366 123.076 112.543C122.41 113.711 121.715 114.861 120.992 115.993C120.28 117.127 119.525 118.255 118.727 119.378L117.163 118.412ZM118.961 111.208L119.396 109.585L127.185 111.672L126.751 113.295L118.961 111.208ZM138.592 126.904C137.067 126.495 135.948 125.93 135.236 125.209C134.534 124.491 134.303 123.684 134.543 122.788C134.748 122.025 135.221 121.517 135.962 121.263C136.717 121.001 137.651 121.02 138.763 121.318C139.814 121.599 140.55 122.006 140.971 122.539C141.394 123.061 141.502 123.708 141.295 124.481C141.221 124.759 141.099 125.047 140.931 125.344C140.774 125.644 140.577 125.945 140.342 126.246L138.691 125.605C138.929 125.293 139.113 125.022 139.241 124.792C139.379 124.564 139.473 124.357 139.523 124.171C139.71 123.471 139.289 122.983 138.259 122.706C137.733 122.566 137.298 122.543 136.952 122.638C136.619 122.725 136.41 122.929 136.325 123.248C136.209 123.681 136.369 124.094 136.805 124.487C137.243 124.869 137.895 125.176 138.761 125.408C140.419 125.853 141.716 125.941 142.649 125.672C143.595 125.395 144.204 124.752 144.474 123.742C144.704 122.887 144.553 122.173 144.022 121.6C143.501 121.03 142.55 120.56 141.169 120.19C140.376 119.977 139.656 119.862 139.009 119.843C138.366 119.814 137.748 119.875 137.155 120.025L134.8 120.653L134.44 119.033L144.526 116.501L144.448 116.795L136.581 114.687L137 113.126L147.571 115.959L147.152 117.52L138.496 119.656L137.749 118.611C138.099 118.583 138.482 118.576 138.899 118.588C139.328 118.592 139.757 118.619 140.186 118.668C140.628 118.709 141.05 118.761 141.452 118.825C141.858 118.878 142.22 118.948 142.539 119.033C144.106 119.453 145.217 120.104 145.875 120.987C146.533 121.87 146.699 122.92 146.374 124.135C145.984 125.588 145.113 126.553 143.759 127.029C142.416 127.509 140.694 127.467 138.592 126.904ZM154.455 131.005C152.528 130.489 151.145 129.798 150.306 128.933C149.469 128.057 149.207 127.037 149.519 125.873C149.781 124.894 150.386 124.101 151.333 123.493C152.282 122.875 153.622 122.428 155.353 122.152C157.094 121.878 159.268 121.76 161.875 121.796L161.865 123.565C159.653 123.536 157.804 123.615 156.319 123.802C154.843 123.992 153.709 124.29 152.915 124.696C152.135 125.094 151.658 125.618 151.484 126.267C151.125 127.606 152.301 128.639 155.01 129.365C155.453 129.484 155.923 129.587 156.418 129.676C156.913 129.764 157.469 129.853 158.086 129.941C158.716 130.021 159.434 130.103 160.24 130.186L160.009 131.914C158.986 131.816 158.004 131.691 157.062 131.538C156.127 131.398 155.259 131.22 154.455 131.005ZM153.37 123.31C153.341 122.22 153.354 121.163 153.407 120.14C153.464 119.106 153.558 118.093 153.691 117.102L155.636 117.325C155.513 118.319 155.426 119.322 155.376 120.336C155.328 121.339 155.322 122.348 155.36 123.363L153.37 123.31Z" fill="white"/>
<g filter="url(#filter4_d_122_1107)">
<rect x="167" y="150.553" width="91" height="29" transform="rotate(-15 167 150.553)" fill="#128FCD" fill-opacity="0.2" shape-rendering="crispEdges"/>
<rect x="168.225" y="151.26" width="89" height="27" transform="rotate(-15 168.225 151.26)" stroke="#48BCCB" stroke-opacity="0.5" stroke-width="2" shape-rendering="crispEdges"/>
</g>
<path d="M189.162 167.763C188.904 167.832 188.563 167.918 188.138 168.021C187.713 168.124 187.183 168.249 186.549 168.397L186.03 166.83C186.643 166.688 187.153 166.573 187.561 166.486C187.965 166.389 188.25 166.318 188.415 166.274C188.662 166.207 188.835 166.15 188.932 166.102C189.027 166.043 189.076 165.959 189.079 165.847C189.08 165.726 189.047 165.541 188.981 165.294L186.479 155.959L179.633 157.794L179.211 156.217L188.963 153.604L189.385 155.181L188.288 155.475L190.785 164.794C190.928 165.33 191.017 165.764 191.051 166.097C191.096 166.428 191.066 166.69 190.963 166.883C190.861 167.076 190.66 167.235 190.362 167.359C190.077 167.49 189.677 167.625 189.162 167.763ZM179.64 170.431L176.932 160.323L178.74 159.839L181.448 169.946L179.64 170.431ZM177.135 165.287L175.84 163.73C176.187 162.963 176.463 162.182 176.67 161.387C176.874 160.581 177.009 159.745 177.074 158.877C177.147 157.996 177.151 157.062 177.085 156.075L178.891 155.889C178.984 156.979 178.998 158.019 178.932 159.009C178.876 159.995 178.742 160.92 178.532 161.783L178.217 161.039C178.204 161.363 178.161 161.716 178.087 162.101C178.01 162.474 177.925 162.856 177.831 163.246C177.734 163.625 177.627 163.991 177.511 164.342C177.396 164.693 177.27 165.008 177.135 165.287ZM181.996 166.983L179.967 159.41L185.654 157.886L187.352 164.223L183.396 165.283L183.023 163.892L185.31 163.279L184.362 159.74L182.075 160.353L183.727 166.519L181.996 166.983ZM202.997 162.83C202.069 163.079 201.205 163.172 200.405 163.111C199.615 163.046 198.953 162.843 198.419 162.5C197.893 162.144 197.551 161.672 197.394 161.085C197.112 160.034 197.508 158.769 198.58 157.289L200.178 157.937C199.751 158.526 199.452 159.021 199.283 159.419C199.124 159.815 199.085 160.163 199.165 160.461C199.248 160.77 199.443 161.005 199.751 161.166C200.059 161.326 200.451 161.409 200.927 161.414C201.404 161.419 201.946 161.34 202.554 161.177C203.069 161.039 203.636 160.848 204.255 160.605C204.883 160.348 205.508 160.065 206.131 159.754L206.813 161.311C206.182 161.634 205.538 161.929 204.88 162.193C204.232 162.455 203.605 162.667 202.997 162.83ZM196.411 154.573L195.964 152.904L203.892 150.78L204.34 152.449L196.411 154.573ZM195.374 165.602C194.822 164.612 194.346 163.619 193.946 162.622C193.547 161.624 193.192 160.549 192.883 159.395C192.576 158.251 192.348 157.153 192.199 156.1C192.046 155.036 191.962 153.938 191.945 152.805L193.847 152.544C193.867 153.61 193.951 154.664 194.098 155.707C194.252 156.737 194.476 157.798 194.768 158.89C195.061 159.982 195.399 161.018 195.783 161.997C196.177 162.974 196.629 163.918 197.139 164.831L195.374 165.602ZM216.15 160.051C214.996 160.361 214.027 160.333 213.245 159.968C212.466 159.614 211.951 158.973 211.703 158.046C211.446 157.088 211.579 156.263 212.1 155.571C212.619 154.869 213.475 154.358 214.671 154.037C215.175 153.902 215.696 153.845 216.232 153.867C216.768 153.889 217.346 153.988 217.968 154.164C218.589 154.34 219.271 154.599 220.015 154.941C220.768 155.28 221.597 155.715 222.501 156.246L221.72 157.78C220.68 157.198 219.811 156.735 219.111 156.392C218.42 156.036 217.839 155.784 217.368 155.634C216.904 155.471 216.495 155.387 216.141 155.383C215.797 155.375 215.439 155.422 215.068 155.521C214.368 155.709 213.884 155.965 213.618 156.291C213.362 156.613 213.3 157.022 213.433 157.516C213.568 158.021 213.83 158.359 214.218 158.531C214.604 158.693 215.111 158.69 215.74 158.521C216.43 158.336 216.905 158.049 217.165 157.659C217.435 157.266 217.496 156.792 217.347 156.236L215.206 148.245C216.112 148.002 216.956 147.793 217.737 147.617C218.526 147.428 219.303 147.258 220.069 147.108L220.396 148.76C219.712 148.888 219.002 149.039 218.265 149.215C217.535 149.377 216.759 149.569 215.934 149.79L217.123 148.229L219.09 155.57C219.393 156.703 219.299 157.65 218.808 158.412C218.313 159.162 217.427 159.709 216.15 160.051ZM208.459 159.478C208.584 158.131 208.678 156.813 208.742 155.526C208.803 154.229 208.835 152.928 208.839 151.624C208.841 150.31 208.808 148.971 208.741 147.609L210.533 147.311C210.608 148.704 210.645 150.08 210.645 151.439C210.652 152.784 210.625 154.127 210.565 155.469C210.515 156.807 210.425 158.162 210.296 159.533L208.459 159.478ZM206.414 152.34L205.979 150.718L213.768 148.631L214.203 150.253L206.414 152.34ZM231.262 156.118C229.738 156.527 228.486 156.597 227.509 156.329C226.542 156.058 225.938 155.474 225.698 154.578C225.494 153.815 225.649 153.138 226.165 152.548C226.688 151.944 227.505 151.493 228.618 151.195C229.669 150.913 230.51 150.898 231.14 151.148C231.768 151.389 232.185 151.895 232.392 152.668C232.467 152.946 232.505 153.256 232.509 153.598C232.522 153.936 232.502 154.295 232.449 154.674L230.699 154.944C230.75 154.555 230.773 154.228 230.768 153.964C230.774 153.698 230.752 153.472 230.703 153.286C230.515 152.586 229.906 152.373 228.875 152.65C228.35 152.79 227.961 152.988 227.709 153.244C227.465 153.486 227.386 153.766 227.471 154.086C227.587 154.519 227.932 154.796 228.506 154.918C229.077 155.03 229.795 154.97 230.661 154.739C232.32 154.294 233.486 153.722 234.16 153.022C234.841 152.31 235.047 151.449 234.776 150.439C234.547 149.584 234.059 149.041 233.313 148.81C232.577 148.577 231.518 148.645 230.138 149.015C229.344 149.228 228.663 149.487 228.094 149.795C227.522 150.091 227.017 150.453 226.579 150.88L224.854 152.601L223.731 151.378L231.201 144.142L231.279 144.435L223.413 146.543L222.995 144.982L233.566 142.15L233.984 143.711L227.556 149.889L226.387 149.358C226.676 149.159 227.003 148.96 227.37 148.763C227.744 148.552 228.129 148.361 228.525 148.188C228.928 148.003 229.32 147.837 229.7 147.691C230.078 147.535 230.426 147.414 230.746 147.328C232.312 146.908 233.601 146.917 234.612 147.352C235.623 147.788 236.292 148.614 236.617 149.83C237.007 151.282 236.734 152.554 235.801 153.643C234.877 154.73 233.364 155.555 231.262 156.118ZM244.854 147.805C244.738 147.372 244.675 146.953 244.666 146.547C244.657 146.141 244.729 145.729 244.882 145.313C245.033 144.886 245.288 144.459 245.648 144.031C245.932 143.69 246.155 143.387 246.316 143.123C246.477 142.859 246.573 142.618 246.603 142.4C246.643 142.18 246.637 141.971 246.584 141.776C246.477 141.374 246.219 141.134 245.812 141.055C245.412 140.963 244.825 141.021 244.053 141.228C243.506 141.375 242.978 141.566 242.467 141.802C241.953 142.028 241.429 142.318 240.894 142.671L240.041 141.094C240.579 140.751 241.179 140.436 241.842 140.148C242.504 139.86 243.176 139.625 243.856 139.442C246.514 138.73 248.073 139.234 248.535 140.955C248.639 141.346 248.669 141.725 248.623 142.091C248.585 142.443 248.464 142.813 248.258 143.199C248.052 143.585 247.757 144.007 247.371 144.464C247.12 144.763 246.937 145.071 246.824 145.389C246.71 145.706 246.657 146.024 246.665 146.342C246.673 146.66 246.708 146.977 246.77 147.291L244.854 147.805ZM245.622 151.227L245.059 149.125L247.253 148.537L247.816 150.639L245.622 151.227Z" fill="white"/>
<g filter="url(#filter5_d_122_1107)">
<rect x="221.506" y="35" width="91" height="29" transform="rotate(15 221.506 35)" fill="#128FCD" fill-opacity="0.2" shape-rendering="crispEdges"/>
<rect x="222.213" y="36.2247" width="89" height="27" transform="rotate(15 222.213 36.2247)" stroke="#48BCCB" stroke-opacity="0.5" stroke-width="2" shape-rendering="crispEdges"/>
</g>
<path d="M235.791 61.0323C234.709 60.7424 233.847 60.4562 233.205 60.1737C232.56 59.9016 232.088 59.5818 231.789 59.2146C231.503 58.8398 231.359 58.3871 231.358 57.8567C231.359 57.3159 231.467 56.6437 231.683 55.8401L233.91 47.5254L235.796 48.0306L233.56 56.3762C233.433 56.8502 233.368 57.2359 233.366 57.5334C233.373 57.8337 233.478 58.0825 233.679 58.28C233.88 58.4774 234.216 58.6668 234.686 58.848C235.17 59.0218 235.824 59.2191 236.648 59.4399C237.297 59.6138 237.975 59.7844 238.681 59.9515C239.397 60.1214 240.095 60.2806 240.773 60.4291C241.464 60.5701 242.093 60.6946 242.66 60.8024L242.267 62.519C241.805 62.4285 241.297 62.3255 240.743 62.2101C240.188 62.0946 239.615 61.9686 239.022 61.8318C238.439 61.6978 237.869 61.5614 237.309 61.4227C236.761 61.2866 236.254 61.1565 235.791 61.0323ZM234.121 51.6235C235.077 51.725 235.977 51.8061 236.822 51.8669C237.667 51.9277 238.494 51.9727 239.304 52.0018C240.116 52.0206 240.949 52.023 241.803 52.0089C242.67 51.9873 243.612 51.9527 244.63 51.9051L244.666 53.6871C242.84 53.7832 241.061 53.8089 239.328 53.7642C237.595 53.7196 235.801 53.5975 233.944 53.3981L234.121 51.6235ZM255.609 66.6906L255.899 65.6087L245.761 62.8922L246.204 61.2385L256.342 63.9551L257.196 60.7714L247.675 58.2205L248.106 56.6132L257.626 59.1641L258.388 56.3204L248.25 53.6038L248.693 51.9502L260.748 55.1802L257.526 67.2041L255.609 66.6906ZM271.048 70.8935L271.338 69.8117L261.199 67.0951L261.642 65.4414L271.781 68.158L273.86 60.3997L263.721 57.6831L264.164 56.0294L276.219 59.2595L272.964 71.407L271.048 70.8935ZM283.215 73.8887C282.102 73.5905 281.298 73.11 280.802 72.447C280.319 71.7765 280.198 70.9931 280.438 70.0967C280.684 69.1797 281.182 68.5568 281.933 68.2279C282.683 67.899 283.62 67.885 284.743 68.1859C285.227 68.3156 285.68 68.5031 286.1 68.7482C286.523 68.983 286.936 69.3147 287.341 69.7432C287.745 70.1718 288.175 70.7288 288.632 71.4144C289.102 72.0925 289.636 72.9424 290.235 73.9641L288.764 74.8786C288.231 73.9407 287.76 73.1631 287.352 72.5456C286.956 71.9205 286.593 71.4202 286.263 71.0447C285.933 70.6691 285.601 70.3815 285.268 70.1818C284.949 69.9746 284.603 69.8214 284.232 69.722C283.037 69.4017 282.323 69.6743 282.092 70.5398C281.862 71.395 282.345 71.9827 283.541 72.3029C284.19 72.4768 284.684 72.4658 285.024 72.2697C285.377 72.066 285.637 71.6499 285.805 71.0214L288.365 61.4704L290.157 61.9507L287.578 71.5791C287.288 72.6609 286.771 73.3948 286.027 73.7808C285.296 74.1592 284.359 74.1951 283.215 73.8887ZM282.103 64.0663L282.522 62.5054L292.351 65.1391L291.933 66.7L282.103 64.0663ZM276.789 72.4649C276.805 71.3319 276.89 70.2337 277.042 69.1702C277.194 68.1068 277.425 66.9981 277.734 65.8441C278.041 64.7004 278.393 63.6352 278.79 62.6483C279.189 61.6511 279.66 60.6564 280.202 59.6642L281.964 60.3846C281.449 61.3178 280.994 62.2727 280.6 63.2493C280.219 64.2183 279.882 65.2489 279.589 66.341C279.296 67.4332 279.071 68.4993 278.914 69.5394C278.767 70.5822 278.686 71.6262 278.671 72.6712L276.789 72.4649Z" fill="white"/>
<g filter="url(#filter6_d_122_1107)">
<rect x="13.5059" y="120" width="139" height="29" transform="rotate(15 13.5059 120)" fill="#128FCD" fill-opacity="0.2" shape-rendering="crispEdges"/>
<rect x="14.213" y="121.225" width="137" height="27" transform="rotate(15 14.213 121.225)" stroke="#48BCCB" stroke-opacity="0.5" stroke-width="2" shape-rendering="crispEdges"/>
</g>
<path d="M21.8005 143.351L22.1194 142.161L18.0084 141.059L18.3852 139.653L22.4962 140.754L22.7157 139.935L20.7838 139.417L21.1275 138.135L23.0594 138.652L23.312 137.71L21.3801 137.192L21.6824 136.064L23.6143 136.581L23.8586 135.67L25.6823 136.158L25.438 137.07L27.2925 137.567L26.9902 138.695L25.1357 138.198L24.8831 139.141L26.7376 139.638L27.5369 136.655L21.9268 135.152L20.7838 139.417L19.1147 138.97L20.6014 133.422L24.2023 134.387L24.4094 133.614L20.1593 132.475L20.5527 131.007L24.8028 132.146L25.0513 131.219L26.8749 131.707L26.6265 132.634L30.6447 133.711L30.2513 135.179L26.2331 134.103L26.026 134.875L29.5497 135.82L28.063 141.368L24.5393 140.424L24.3199 141.243L28.3381 142.319L27.9613 143.726L23.943 142.649L23.6242 143.839L21.8005 143.351ZM13.8634 143.361L13.4264 141.653C14.1159 141.43 14.75 141.185 15.3289 140.921C15.9208 140.649 16.4835 140.341 17.0171 139.998L17.6904 141.504C17.1588 141.88 16.5826 142.217 15.9618 142.515C15.341 142.812 14.6416 143.094 13.8634 143.361ZM15.7887 140.812L16.8156 136.979L15.0538 136.507L15.4679 134.962L18.9762 135.902L17.535 141.28L15.7887 140.812ZM22.9553 145.532C21.8838 145.245 20.9648 144.965 20.1983 144.694C19.4318 144.422 18.7949 144.141 18.2874 143.85C17.7876 143.573 17.3891 143.267 17.0919 142.934C16.7948 142.6 16.5733 142.232 16.4275 141.828C16.2919 141.427 16.2038 140.973 16.1632 140.465L17.6687 140.72C17.7439 141.016 17.8442 141.28 17.9697 141.512C18.1082 141.737 18.3 141.949 18.5451 142.147C18.7901 142.345 19.1142 142.537 19.5173 142.722C19.9307 142.91 20.4527 143.105 21.0832 143.307C21.7137 143.51 22.4772 143.731 23.3736 143.971L27.7164 145.134L27.1899 146.666L22.9553 145.532ZM18.7061 134.19C18.3901 133.597 18.0675 133.008 17.7384 132.423C17.4093 131.838 17.0709 131.267 16.7232 130.71L18.2227 129.935C18.5601 130.49 18.8882 131.058 19.207 131.64C19.5388 132.215 19.8576 132.797 20.1634 133.387L18.7061 134.19ZM36.7577 143.847L39.0022 135.47L46.0342 137.354L43.7897 145.731L38.5196 144.319L38.8799 142.974L42.3417 143.902L42.6482 142.758L39.1863 141.831L39.4886 140.702L42.9505 141.63L43.2528 140.502L39.7909 139.574L40.0932 138.446L43.5551 139.374L43.845 138.292L40.3831 137.364L38.5196 144.319L36.7577 143.847ZM29.7369 147.299L28.6853 145.908C29.2058 145.572 29.6948 145.19 30.1522 144.76C30.6124 144.32 31.0201 143.85 31.3752 143.349L32.6922 144.43C32.3101 144.991 31.8639 145.523 31.3535 146.026C30.8561 146.522 30.3173 146.947 29.7369 147.299ZM35.8383 149.133C35.488 149.039 35.139 148.94 34.7915 148.836C34.4439 148.732 34.1376 148.638 33.8725 148.556C33.4659 148.425 33.142 148.294 32.901 148.164C32.6676 148.046 32.5083 147.898 32.4233 147.721C32.3384 147.544 32.3125 147.31 32.3458 147.021C32.3792 146.732 32.458 146.355 32.5822 145.892L33.1619 143.728L35.032 144.229L34.5185 146.145C34.4412 146.434 34.3963 146.643 34.3837 146.772C34.3712 146.901 34.3955 146.996 34.4566 147.056C34.5307 147.109 34.6578 147.171 34.8377 147.241C34.9998 147.296 35.2031 147.361 35.4476 147.438C35.6921 147.515 35.9483 147.589 36.2162 147.66C36.4326 147.718 36.6709 147.777 36.9313 147.836C37.2019 147.897 37.4313 147.947 37.6196 147.987C37.8621 148.03 38.061 148.05 38.2162 148.047C38.3715 148.045 38.499 148.002 38.5988 147.918C38.7116 147.827 38.8124 147.677 38.9013 147.469C38.9902 147.261 39.0998 146.975 39.2301 146.613L40.8751 147.335C40.6786 147.945 40.4946 148.426 40.323 148.777C40.1646 149.122 39.9833 149.366 39.779 149.51C39.5748 149.654 39.3188 149.723 39.0109 149.718C38.7107 149.726 38.3232 149.688 37.8485 149.605C37.5751 149.554 37.2722 149.489 36.9397 149.411C36.6175 149.336 36.2504 149.243 35.8383 149.133ZM30.561 141.689L30.1993 139.886C31.0937 139.474 31.8659 139.024 32.5158 138.536C33.1657 138.047 33.7493 137.497 34.2667 136.885L34.5917 138.33C34.2738 138.775 33.8991 139.205 33.4678 139.619C33.0496 140.026 32.5943 140.407 32.1019 140.761C31.6122 141.104 31.0986 141.414 30.561 141.689ZM37.3856 147.129C37.1086 146.679 36.7965 146.237 36.4493 145.801C36.1152 145.359 35.755 144.931 35.3687 144.518L36.7136 143.702C37.1027 144.105 37.4657 144.522 37.8025 144.955C38.1394 145.387 38.4477 145.823 38.7275 146.263L37.3856 147.129ZM32.3528 142.915L33.8643 137.274L31.6543 136.682L32.0518 135.198L34.2619 135.79L34.7464 133.982L36.5237 134.458L36.0392 136.266L38.1565 136.834L37.7589 138.317L35.6416 137.75L34.1301 143.391L32.3528 142.915ZM35.9785 142.18C35.7396 141.465 35.4735 140.747 35.1803 140.028C34.9001 139.302 34.6097 138.572 34.3089 137.84L35.4248 137.261C35.7607 137.903 36.0835 138.553 36.3933 139.21C36.7161 139.86 37.0245 140.522 37.3185 141.198L35.9785 142.18ZM41.6868 150.302C41.5715 149.62 41.4085 148.93 41.1977 148.233C40.9972 147.539 40.7668 146.853 40.5065 146.176L42.1776 145.812C42.4455 146.503 42.682 147.206 42.8873 147.924C43.0953 148.631 43.2608 149.333 43.3836 150.028L41.6868 150.302ZM52.0686 152.852C50.7498 152.499 49.6438 152.031 48.7506 151.45C47.8649 150.881 47.2315 150.237 46.8503 149.516C46.4794 148.798 46.4003 148.043 46.6129 147.249C46.7979 146.559 47.1937 145.947 47.8003 145.414C48.4098 144.871 49.174 144.429 50.0931 144.09L51.3716 145.377C50.5824 145.685 49.9464 146.039 49.4636 146.44C48.9938 146.833 48.6968 147.261 48.5726 147.725C48.4484 148.188 48.5159 148.637 48.7751 149.071C49.037 149.495 49.4794 149.884 50.1022 150.238C50.7277 150.583 51.5196 150.883 52.4778 151.14C53.2402 151.344 54.046 151.51 54.8951 151.638C55.7442 151.767 56.5813 151.836 57.4065 151.848L57.2066 153.583C56.3196 153.555 55.4295 153.477 54.5364 153.348C53.6537 153.222 52.8311 153.057 52.0686 152.852ZM47.5142 141.66L47.9366 140.084L60.6614 143.162L60.239 144.738L47.5142 141.66ZM55.0738 149.55C54.9374 148.74 54.8384 147.935 54.7768 147.134C54.7152 146.334 54.6873 145.531 54.6931 144.727C54.712 143.915 54.7658 143.095 54.8548 142.269C54.954 141.445 55.0883 140.614 55.2577 139.776L57.1062 140.172C56.9451 140.979 56.8219 141.769 56.7364 142.541C56.6613 143.316 56.6212 144.084 56.6162 144.844C56.6214 145.608 56.6576 146.379 56.7247 147.159C56.8049 147.932 56.9169 148.729 57.0609 149.552L55.0738 149.55ZM71.8069 157.76C71.1578 157.586 70.7243 157.288 70.5063 156.865C70.3014 156.435 70.3011 155.838 70.5053 155.076L72.0169 149.435C72.1825 148.817 72.2267 148.343 72.1494 148.013C72.0825 147.686 71.8893 147.479 71.5699 147.394C71.3742 147.341 71.1244 147.346 70.8206 147.408C70.5196 147.46 70.1282 147.582 69.6463 147.773C69.1747 147.967 68.5866 148.245 67.8818 148.608C67.1799 148.961 66.3301 149.413 65.3324 149.963L65.1624 149.917C64.611 150.244 63.9891 150.608 63.2967 151.007C62.6146 151.41 61.8644 151.861 61.0462 152.359L60.4433 150.591C62.0914 149.674 63.5016 148.903 64.6738 148.279C65.8461 147.654 66.8416 147.154 67.6604 146.777C68.4792 146.4 69.1618 146.119 69.7083 145.934C70.265 145.752 70.7389 145.653 71.1299 145.636C71.5312 145.622 71.907 145.662 72.2573 145.756C73.0918 145.979 73.6513 146.405 73.9357 147.034C74.2332 147.654 74.2494 148.459 73.9844 149.449L72.5805 154.688C72.4811 155.059 72.4155 155.345 72.3837 155.546C72.3621 155.75 72.3674 155.895 72.3996 155.981C72.4449 156.059 72.5242 156.114 72.6375 156.144C72.823 156.194 73.092 156.2 73.4445 156.162C73.8073 156.126 74.2149 156.048 74.6671 155.926L74.7702 157.643C74.232 157.797 73.7118 157.884 73.2095 157.904C72.7072 157.924 72.2397 157.876 71.8069 157.76ZM62.8196 156.064L65.3291 146.699L61.8673 145.771L62.2897 144.195L65.7515 145.122L66.3561 142.866L68.1489 143.346L64.6124 156.545L62.8196 156.064ZM81.8302 161.092C80.3053 160.683 79.1867 160.119 78.4743 159.398C77.7723 158.679 77.5414 157.872 77.7815 156.976C77.9858 156.213 78.4588 155.705 79.2005 155.451C79.9553 155.19 80.889 155.208 82.0018 155.506C83.0527 155.788 83.7884 156.195 84.209 156.727C84.6323 157.249 84.7404 157.896 84.5334 158.669C84.4588 158.947 84.3376 159.235 84.1695 159.532C84.0118 159.832 83.8153 160.133 83.58 160.434L81.9296 159.793C82.1677 159.482 82.3508 159.211 82.4789 158.98C82.6173 158.752 82.7113 158.545 82.761 158.36C82.9487 157.659 82.5275 157.171 81.4971 156.895C80.9717 156.754 80.5361 156.731 80.1903 156.826C79.8577 156.914 79.6486 157.117 79.563 157.437C79.447 157.869 79.607 158.282 80.0428 158.675C80.4814 159.058 81.1334 159.365 81.9989 159.597C83.6577 160.041 84.9538 160.129 85.8872 159.86C86.8337 159.584 87.4422 158.94 87.7128 157.931C87.9419 157.076 87.7909 156.361 87.2598 155.788C86.739 155.218 85.7882 154.748 84.4076 154.378C83.6143 154.166 82.8943 154.05 82.2478 154.031C81.604 154.002 80.9859 154.063 80.3934 154.214L78.0387 154.842L77.6778 153.221L87.7647 150.689L87.6861 150.983L79.8196 148.875L80.2378 147.314L90.8089 150.147L90.3906 151.708L81.7347 153.844L80.9877 152.799C81.3375 152.772 81.7206 152.764 82.1369 152.776C82.5664 152.781 82.9954 152.807 83.4241 152.856C83.8659 152.897 84.288 152.949 84.6906 153.013C85.0959 153.066 85.4583 153.136 85.7777 153.221C87.3438 153.641 88.4558 154.292 89.1136 155.175C89.7715 156.058 89.9376 157.108 89.6118 158.324C89.2225 159.776 88.3512 160.741 86.9977 161.218C85.6545 161.697 83.932 161.655 81.8302 161.092ZM99.5173 163.578C100.08 163.663 100.621 163.642 101.141 163.516C101.673 163.383 102.157 163.165 102.592 162.862C103.039 162.551 103.425 162.163 103.748 161.697C104.072 161.232 104.314 160.7 104.474 160.103C104.7 159.258 104.702 158.469 104.479 157.735C104.258 156.992 103.843 156.356 103.234 155.828C102.635 155.303 101.877 154.918 100.96 154.672C100.176 154.462 99.4156 154.397 98.6769 154.475C97.9381 154.553 97.2491 154.755 96.6097 155.08C95.9834 155.398 95.4431 155.828 94.989 156.369C94.5376 156.899 94.2181 157.515 94.0303 158.216C93.8951 158.72 93.8477 159.227 93.8883 159.735C93.929 160.242 94.0329 160.679 94.2001 161.044C94.3804 161.401 94.6096 161.617 94.8878 161.692C95.2896 161.8 95.774 161.537 96.3409 160.905C96.9079 160.273 97.5243 159.312 98.1903 158.022C98.8693 156.724 99.57 155.139 100.292 153.268L102.035 153.933C101.295 155.789 100.597 157.363 99.9416 158.657C99.286 159.95 98.6553 160.984 98.0497 161.761C97.4442 162.537 96.8478 163.073 96.2607 163.368C95.6763 163.654 95.0853 163.716 94.4877 163.556C93.9932 163.423 93.5678 163.177 93.2116 162.816C92.8555 162.456 92.5822 162.013 92.3918 161.487C92.2014 160.961 92.0973 160.381 92.0795 159.747C92.0645 159.102 92.1481 158.44 92.3303 157.76C92.5898 156.792 93.0089 155.949 93.5876 155.231C94.1691 154.504 94.8644 153.928 95.6737 153.504C96.4829 153.081 97.3747 152.823 98.3491 152.73C99.3366 152.631 100.361 152.723 101.422 153.007C102.669 153.341 103.708 153.874 104.539 154.604C105.381 155.338 105.957 156.216 106.268 157.238C106.58 158.26 106.574 159.374 106.251 160.579C106.033 161.393 105.706 162.117 105.271 162.751C104.847 163.389 104.34 163.921 103.75 164.348C103.164 164.765 102.516 165.061 101.806 165.235C101.097 165.41 100.354 165.442 99.577 165.334L99.5173 163.578ZM113.852 169.241C112.739 168.943 111.935 168.463 111.439 167.8C110.956 167.129 110.835 166.346 111.075 165.449C111.321 164.532 111.819 163.91 112.569 163.581C113.32 163.252 114.257 163.238 115.38 163.539C115.864 163.668 116.317 163.856 116.737 164.101C117.16 164.336 117.573 164.667 117.978 165.096C118.382 165.525 118.812 166.082 119.269 166.767C119.739 167.445 120.273 168.295 120.872 169.317L119.401 170.231C118.868 169.294 118.397 168.516 117.989 167.898C117.593 167.273 117.23 166.773 116.9 166.397C116.57 166.022 116.238 165.734 115.905 165.535C115.585 165.327 115.24 165.174 114.869 165.075C113.674 164.754 112.96 165.027 112.728 165.893C112.499 166.748 112.982 167.335 114.178 167.656C114.827 167.83 115.321 167.819 115.661 167.622C116.013 167.419 116.274 167.003 116.442 166.374L119.002 156.823L120.794 157.303L118.214 166.932C117.925 168.014 117.408 168.748 116.664 169.134C115.933 169.512 114.996 169.548 113.852 169.241ZM112.74 159.419L113.159 157.858L122.988 160.492L122.57 162.053L112.74 159.419ZM107.426 167.818C107.442 166.685 107.526 165.586 107.679 164.523C107.831 163.46 108.062 162.351 108.371 161.197C108.678 160.053 109.03 158.988 109.426 158.001C109.826 157.004 110.297 156.009 110.839 155.017L112.6 155.737C112.085 156.671 111.631 157.625 111.237 158.602C110.855 159.571 110.519 160.602 110.226 161.694C109.933 162.786 109.708 163.852 109.551 164.892C109.404 165.935 109.323 166.979 109.308 168.024L107.426 167.818ZM128.667 168.971C128.783 168.538 128.938 168.143 129.133 167.787C129.328 167.431 129.596 167.11 129.937 166.826C130.281 166.532 130.716 166.29 131.242 166.099C131.658 165.946 132.002 165.795 132.274 165.647C132.546 165.499 132.749 165.338 132.884 165.164C133.029 164.993 133.128 164.81 133.18 164.614C133.288 164.212 133.185 163.876 132.871 163.604C132.571 163.325 132.034 163.081 131.261 162.874C130.715 162.728 130.162 162.629 129.601 162.579C129.043 162.517 128.444 162.506 127.805 162.545L127.854 160.752C128.491 160.724 129.169 160.751 129.887 160.833C130.605 160.915 131.304 161.047 131.984 161.229C134.642 161.942 135.74 163.158 135.279 164.879C135.174 165.27 135.011 165.613 134.789 165.907C134.579 166.193 134.289 166.452 133.918 166.684C133.546 166.915 133.08 167.133 132.517 167.335C132.15 167.469 131.838 167.645 131.581 167.863C131.324 168.081 131.119 168.33 130.967 168.61C130.815 168.889 130.687 169.181 130.583 169.484L128.667 168.971ZM127.621 172.318L128.184 170.216L130.379 170.804L129.816 172.906L127.621 172.318Z" fill="white"/>
<defs>
<filter id="filter0_d_122_1107" x="49" y="0" width="214" height="27" filterUnits="userSpaceOnUse" color-interpolation-filters="sRGB">
<feFlood flood-opacity="0" result="BackgroundImageFix"/>
<feColorMatrix in="SourceAlpha" type="matrix" values="0 0 0 0 0 0 0 0 0 0 0 0 0 0 0 0 0 0 127 0" result="hardAlpha"/>
<feOffset/>
<feGaussianBlur stdDeviation="2"/>
<feComposite in2="hardAlpha" operator="out"/>
<feColorMatrix type="matrix" values="0 0 0 0 1 0 0 0 0 1 0 0 0 0 1 0 0 0 0.6 0"/>
<feBlend mode="normal" in2="BackgroundImageFix" result="effect1_dropShadow_122_1107"/>
<feBlend mode="normal" in="SourceGraphic" in2="effect1_dropShadow_122_1107" result="shape"/>
</filter>
<filter id="filter1_d_122_1107" x="131" y="55" width="135.417" height="71.0701" filterUnits="userSpaceOnUse" color-interpolation-filters="sRGB">
<feFlood flood-opacity="0" result="BackgroundImageFix"/>
<feColorMatrix in="SourceAlpha" type="matrix" values="0 0 0 0 0 0 0 0 0 0 0 0 0 0 0 0 0 0 127 0" result="hardAlpha"/>
<feOffset/>
<feGaussianBlur stdDeviation="3"/>
<feComposite in2="hardAlpha" operator="out"/>
<feColorMatrix type="matrix" values="0 0 0 0 0.282353 0 0 0 0 0.737255 0 0 0 0 0.796078 0 0 0 0.25 0"/>
<feBlend mode="normal" in2="BackgroundImageFix" result="effect1_dropShadow_122_1107"/>
<feBlend mode="normal" in="SourceGraphic" in2="effect1_dropShadow_122_1107" result="shape"/>
</filter>
<filter id="filter2_d_122_1107" x="1" y="29" width="135.417" height="71.0701" filterUnits="userSpaceOnUse" color-interpolation-filters="sRGB">
<feFlood flood-opacity="0" result="BackgroundImageFix"/>
<feColorMatrix in="SourceAlpha" type="matrix" values="0 0 0 0 0 0 0 0 0 0 0 0 0 0 0 0 0 0 127 0" result="hardAlpha"/>
<feOffset/>
<feGaussianBlur stdDeviation="3"/>
<feComposite in2="hardAlpha" operator="out"/>
<feColorMatrix type="matrix" values="0 0 0 0 0.282353 0 0 0 0 0.737255 0 0 0 0 0.796078 0 0 0 0.25 0"/>
<feBlend mode="normal" in2="BackgroundImageFix" result="effect1_dropShadow_122_1107"/>
<feBlend mode="normal" in="SourceGraphic" in2="effect1_dropShadow_122_1107" result="shape"/>
</filter>
<filter id="filter3_d_122_1107" x="50" y="78" width="135.417" height="71.0701" filterUnits="userSpaceOnUse" color-interpolation-filters="sRGB">
<feFlood flood-opacity="0" result="BackgroundImageFix"/>
<feColorMatrix in="SourceAlpha" type="matrix" values="0 0 0 0 0 0 0 0 0 0 0 0 0 0 0 0 0 0 127 0" result="hardAlpha"/>
<feOffset/>
<feGaussianBlur stdDeviation="3"/>
<feComposite in2="hardAlpha" operator="out"/>
<feColorMatrix type="matrix" values="0 0 0 0 0.282353 0 0 0 0 0.737255 0 0 0 0 0.796078 0 0 0 0.25 0"/>
<feBlend mode="normal" in2="BackgroundImageFix" result="effect1_dropShadow_122_1107"/>
<feBlend mode="normal" in="SourceGraphic" in2="effect1_dropShadow_122_1107" result="shape"/>
</filter>
<filter id="filter4_d_122_1107" x="161" y="121" width="107.405" height="63.5644" filterUnits="userSpaceOnUse" color-interpolation-filters="sRGB">
<feFlood flood-opacity="0" result="BackgroundImageFix"/>
<feColorMatrix in="SourceAlpha" type="matrix" values="0 0 0 0 0 0 0 0 0 0 0 0 0 0 0 0 0 0 127 0" result="hardAlpha"/>
<feOffset/>
<feGaussianBlur stdDeviation="3"/>
<feComposite in2="hardAlpha" operator="out"/>
<feColorMatrix type="matrix" values="0 0 0 0 0.282353 0 0 0 0 0.737255 0 0 0 0 0.796078 0 0 0 0.25 0"/>
<feBlend mode="normal" in2="BackgroundImageFix" result="effect1_dropShadow_122_1107"/>
<feBlend mode="normal" in="SourceGraphic" in2="effect1_dropShadow_122_1107" result="shape"/>
</filter>
<filter id="filter5_d_122_1107" x="208" y="29" width="107.405" height="63.5644" filterUnits="userSpaceOnUse" color-interpolation-filters="sRGB">
<feFlood flood-opacity="0" result="BackgroundImageFix"/>
<feColorMatrix in="SourceAlpha" type="matrix" values="0 0 0 0 0 0 0 0 0 0 0 0 0 0 0 0 0 0 127 0" result="hardAlpha"/>
<feOffset/>
<feGaussianBlur stdDeviation="3"/>
<feComposite in2="hardAlpha" operator="out"/>
<feColorMatrix type="matrix" values="0 0 0 0 0.282353 0 0 0 0 0.737255 0 0 0 0 0.796078 0 0 0 0.25 0"/>
<feBlend mode="normal" in2="BackgroundImageFix" result="effect1_dropShadow_122_1107"/>
<feBlend mode="normal" in="SourceGraphic" in2="effect1_dropShadow_122_1107" result="shape"/>
</filter>
<filter id="filter6_d_122_1107" x="0" y="114" width="153.77" height="75.9877" filterUnits="userSpaceOnUse" color-interpolation-filters="sRGB">
<feFlood flood-opacity="0" result="BackgroundImageFix"/>
<feColorMatrix in="SourceAlpha" type="matrix" values="0 0 0 0 0 0 0 0 0 0 0 0 0 0 0 0 0 0 127 0" result="hardAlpha"/>
<feOffset/>
<feGaussianBlur stdDeviation="3"/>
<feComposite in2="hardAlpha" operator="out"/>
<feColorMatrix type="matrix" values="0 0 0 0 0.282353 0 0 0 0 0.737255 0 0 0 0 0.796078 0 0 0 0.25 0"/>
<feBlend mode="normal" in2="BackgroundImageFix" result="effect1_dropShadow_122_1107"/>
<feBlend mode="normal" in="SourceGraphic" in2="effect1_dropShadow_122_1107" result="shape"/>
</filter>
</defs>
</svg>
