<svg width="296" height="180" viewBox="0 0 296 180" fill="none" xmlns="http://www.w3.org/2000/svg">
<g filter="url(#filter0_d_122_1162)">
<rect x="91" y="5" width="64" height="17" stroke="white" stroke-width="2"/>
<rect x="177" y="5" width="64" height="17" stroke="white" stroke-width="2"/>
<rect x="5" y="5" width="64" height="17" stroke="white" stroke-width="2"/>
<path d="M248.916 18.372V17.1H246.672V16.08H248.916V15.276L248.94 15.156V12.3L248.916 12.228V11.376H246.576V10.356H248.916V9.264H250.344V10.356H252.468V11.376H250.344V12.204L250.332 12.3V15.156L250.344 15.336V16.08H252.312V17.1H250.344V18.372H248.916ZM246.528 18.96L246.456 17.832C246.904 17.816 247.372 17.796 247.86 17.772C248.356 17.74 248.856 17.704 249.36 17.664C249.864 17.616 250.36 17.572 250.848 17.532C251.336 17.492 251.796 17.444 252.228 17.388L252.312 18.444C251.712 18.532 251.08 18.608 250.416 18.672C249.76 18.736 249.1 18.792 248.436 18.84C247.772 18.888 247.136 18.928 246.528 18.96ZM246.84 15.576V11.892H252.336V15.576H248.1V14.628H251.148V14.088H248.1V13.368H251.148V12.828H248.1V15.576H246.84ZM252.924 19.056L251.82 18.336C252.06 17.984 252.272 17.604 252.456 17.196C252.648 16.78 252.812 16.308 252.948 15.78C253.084 15.252 253.196 14.636 253.284 13.932C253.372 13.228 253.436 12.412 253.476 11.484C253.516 10.548 253.536 9.464 253.536 8.232H254.844C254.844 9.496 254.82 10.62 254.772 11.604C254.724 12.588 254.652 13.456 254.556 14.208C254.46 14.96 254.336 15.624 254.184 16.2C254.032 16.776 253.852 17.296 253.644 17.76C253.444 18.216 253.204 18.648 252.924 19.056ZM255.876 18.852C255.724 18.852 255.492 18.836 255.18 18.804C254.876 18.78 254.564 18.752 254.244 18.72L254.22 17.436C254.524 17.476 254.776 17.508 254.976 17.532C255.176 17.548 255.34 17.556 255.468 17.556C255.532 17.556 255.592 17.528 255.648 17.472C255.712 17.408 255.764 17.284 255.804 17.1C255.852 16.908 255.888 16.628 255.912 16.26C255.944 15.884 255.968 15.384 255.984 14.76C256 14.136 256.008 13.356 256.008 12.42V11.832H252.288V10.632H257.412V11.484C257.412 12.652 257.404 13.644 257.388 14.46C257.372 15.276 257.344 15.956 257.304 16.5C257.264 17.044 257.204 17.476 257.124 17.796C257.052 18.108 256.96 18.336 256.848 18.48C256.736 18.632 256.6 18.732 256.44 18.78C256.288 18.828 256.1 18.852 255.876 18.852ZM246.816 9.912L246.756 8.808C247.188 8.792 247.644 8.768 248.124 8.736C248.604 8.704 249.088 8.664 249.576 8.616C250.072 8.568 250.548 8.516 251.004 8.46C251.468 8.404 251.896 8.344 252.288 8.28L252.444 9.408C251.908 9.488 251.316 9.564 250.668 9.636C250.028 9.708 249.376 9.768 248.712 9.816C248.056 9.864 247.424 9.896 246.816 9.912ZM267.924 18.948C267.78 18.948 267.576 18.944 267.312 18.936C267.056 18.928 266.784 18.916 266.496 18.9C266.216 18.884 265.956 18.872 265.716 18.864L265.656 17.616C265.96 17.64 266.264 17.66 266.568 17.676C266.872 17.684 267.108 17.688 267.276 17.688C267.364 17.688 267.44 17.648 267.504 17.568C267.576 17.48 267.636 17.312 267.684 17.064C267.74 16.808 267.788 16.428 267.828 15.924C267.876 15.412 267.916 14.736 267.948 13.896C267.988 13.048 268.024 11.984 268.056 10.704H264.048V9.468H269.388C269.364 10.972 269.336 12.252 269.304 13.308C269.272 14.364 269.232 15.24 269.184 15.936C269.136 16.624 269.076 17.176 269.004 17.592C268.932 18 268.844 18.3 268.74 18.492C268.644 18.684 268.528 18.808 268.392 18.864C268.256 18.92 268.1 18.948 267.924 18.948ZM258.516 15.912L258.384 14.712C259.168 14.576 259.932 14.42 260.676 14.244C261.428 14.06 262.164 13.856 262.884 13.632L262.992 14.832C262.264 15.064 261.528 15.268 260.784 15.444C260.048 15.62 259.292 15.776 258.516 15.912ZM260.328 19.104V11.28H259.368V10.08H260.328V8.256H261.708V10.08H262.824V11.28H261.708V19.104H260.328ZM259.404 13.488L258.276 13.224C258.42 12.576 258.552 11.872 258.672 11.112C258.792 10.352 258.88 9.56 258.936 8.736L260.076 8.808C260.02 9.696 259.936 10.528 259.824 11.304C259.72 12.08 259.58 12.808 259.404 13.488ZM263.748 19.08L262.908 18.084C263.684 17.524 264.384 16.848 265.008 16.056C265.632 15.264 266.164 14.384 266.604 13.416C267.052 12.44 267.392 11.404 267.624 10.308L268.632 10.716C268.48 11.588 268.252 12.436 267.948 13.26C267.652 14.076 267.292 14.848 266.868 15.576C266.444 16.296 265.968 16.956 265.44 17.556C264.912 18.148 264.348 18.656 263.748 19.08ZM263.124 16.512L262.284 15.516C262.788 15.108 263.256 14.62 263.688 14.052C264.12 13.476 264.5 12.84 264.828 12.144C265.164 11.448 265.436 10.712 265.644 9.936L266.796 10.32C266.572 11.168 266.272 11.984 265.896 12.768C265.52 13.552 265.096 14.264 264.624 14.904C264.152 15.544 263.652 16.08 263.124 16.512ZM262.848 13.5L261.984 12.564C262.296 12.196 262.588 11.776 262.86 11.304C263.132 10.824 263.376 10.308 263.592 9.756C263.816 9.204 263.996 8.64 264.132 8.064L265.44 8.22C265.264 8.9 265.04 9.568 264.768 10.224C264.504 10.88 264.204 11.488 263.868 12.048C263.54 12.608 263.2 13.092 262.848 13.5ZM276.504 18.444C275.64 18.444 274.964 18.252 274.476 17.868C273.996 17.476 273.756 16.932 273.756 16.236C273.756 15.524 273.996 14.976 274.476 14.592C274.956 14.208 275.632 14.016 276.504 14.016C276.88 14.016 277.244 14.064 277.596 14.16C277.948 14.248 278.312 14.408 278.688 14.64C279.064 14.872 279.484 15.192 279.948 15.6C280.42 16 280.972 16.512 281.604 17.136L280.716 18.084C280.148 17.508 279.656 17.036 279.24 16.668C278.832 16.292 278.472 16 278.16 15.792C277.848 15.584 277.552 15.44 277.272 15.36C277 15.272 276.72 15.228 276.432 15.228C275.504 15.228 275.04 15.564 275.04 16.236C275.04 16.9 275.504 17.232 276.432 17.232C276.936 17.232 277.292 17.128 277.5 16.92C277.716 16.704 277.824 16.352 277.824 15.864V8.448H279.216V15.924C279.216 16.764 278.984 17.396 278.52 17.82C278.064 18.236 277.392 18.444 276.504 18.444ZM273.792 11.544V10.332H281.424V11.544H273.792ZM271.572 18.66C271.364 17.836 271.212 17.024 271.116 16.224C271.02 15.424 270.972 14.576 270.972 13.68C270.972 12.792 271.02 11.952 271.116 11.16C271.212 10.36 271.36 9.548 271.56 8.724L272.976 8.904C272.784 9.68 272.64 10.46 272.544 11.244C272.456 12.02 272.412 12.832 272.412 13.68C272.412 14.528 272.456 15.344 272.544 16.128C272.64 16.912 272.784 17.684 272.976 18.444L271.572 18.66ZM287.184 15.372C287.184 15.036 287.22 14.72 287.292 14.424C287.364 14.128 287.496 13.844 287.688 13.572C287.88 13.292 288.148 13.032 288.492 12.792C288.764 12.6 288.984 12.424 289.152 12.264C289.32 12.104 289.436 11.948 289.5 11.796C289.572 11.644 289.608 11.492 289.608 11.34C289.608 11.028 289.468 10.804 289.188 10.668C288.916 10.524 288.48 10.452 287.88 10.452C287.456 10.452 287.036 10.488 286.62 10.56C286.204 10.624 285.768 10.732 285.312 10.884L285 9.576C285.456 9.432 285.952 9.32 286.488 9.24C287.024 9.16 287.556 9.12 288.084 9.12C290.148 9.12 291.18 9.788 291.18 11.124C291.18 11.428 291.128 11.708 291.024 11.964C290.928 12.212 290.768 12.456 290.544 12.696C290.32 12.936 290.024 13.184 289.656 13.44C289.416 13.608 289.224 13.796 289.08 14.004C288.936 14.212 288.836 14.432 288.78 14.664C288.724 14.896 288.688 15.132 288.672 15.372H287.184ZM287.076 18V16.368H288.78V18H287.076Z" fill="white"/>
<path d="M167.944 18.132C167.224 18.132 166.58 18.032 166.012 17.832C165.452 17.632 165.012 17.356 164.692 17.004C164.38 16.644 164.224 16.236 164.224 15.78C164.224 14.964 164.756 14.124 165.82 13.26L166.852 14.04C166.428 14.384 166.116 14.684 165.916 14.94C165.724 15.196 165.628 15.44 165.628 15.672C165.628 15.912 165.724 16.12 165.916 16.296C166.108 16.472 166.376 16.608 166.72 16.704C167.064 16.8 167.472 16.848 167.944 16.848C168.344 16.848 168.792 16.82 169.288 16.764C169.792 16.7 170.3 16.616 170.812 16.512L171.004 17.772C170.484 17.884 169.96 17.972 169.432 18.036C168.912 18.1 168.416 18.132 167.944 18.132ZM164.776 10.872V9.576H170.932V10.872H164.776ZM161.884 18.66C161.676 17.836 161.524 17.024 161.428 16.224C161.332 15.424 161.284 14.576 161.284 13.68C161.284 12.792 161.332 11.952 161.428 11.16C161.524 10.36 161.676 9.548 161.884 8.724L163.312 8.904C163.12 9.68 162.976 10.46 162.88 11.244C162.792 12.02 162.748 12.832 162.748 13.68C162.748 14.528 162.792 15.344 162.88 16.128C162.976 16.912 163.12 17.684 163.312 18.444L161.884 18.66Z" fill="white"/>
<path d="M81.824 18.564C80.856 18.564 80.012 18.392 79.292 18.048C78.58 17.712 78.028 17.236 77.636 16.62C77.244 15.996 77.048 15.264 77.048 14.424C77.048 13.768 77.164 13.16 77.396 12.6C77.636 12.04 77.972 11.552 78.404 11.136C78.844 10.712 79.364 10.388 79.964 10.164L80.084 10.536L74.372 10.668V9.384L84.488 9.144V10.428L82.964 10.464C82.324 10.48 81.732 10.584 81.188 10.776C80.652 10.96 80.188 11.22 79.796 11.556C79.412 11.892 79.112 12.292 78.896 12.756C78.68 13.212 78.572 13.72 78.572 14.28C78.572 14.888 78.704 15.416 78.968 15.864C79.232 16.304 79.604 16.644 80.084 16.884C80.572 17.124 81.156 17.244 81.836 17.244C81.98 17.244 82.14 17.24 82.316 17.232C82.5 17.216 82.684 17.2 82.868 17.184C83.06 17.16 83.228 17.136 83.372 17.112L83.528 18.432C83.36 18.456 83.176 18.476 82.976 18.492C82.776 18.516 82.576 18.532 82.376 18.54C82.176 18.556 81.992 18.564 81.824 18.564ZM83.048 14.82C82.864 14.412 82.664 14.024 82.448 13.656C82.24 13.28 82 12.896 81.728 12.504L82.772 11.928C83.044 12.32 83.288 12.708 83.504 13.092C83.72 13.468 83.924 13.868 84.116 14.292L83.048 14.82ZM84.872 14.136C84.696 13.72 84.504 13.328 84.296 12.96C84.096 12.584 83.864 12.2 83.6 11.808L84.644 11.256C84.908 11.656 85.144 12.048 85.352 12.432C85.568 12.816 85.764 13.224 85.94 13.656L84.872 14.136Z" fill="white"/>
</g>
<g filter="url(#filter1_d_122_1162)">
<rect x="77" y="95" width="91" height="29" fill="#128FCD" fill-opacity="0.2" shape-rendering="crispEdges"/>
<rect x="78" y="96" width="89" height="27" stroke="#48BCCB" stroke-opacity="0.5" stroke-width="2" shape-rendering="crispEdges"/>
</g>
<path d="M93.584 116.416C93.2747 116.416 92.9013 116.4 92.464 116.368C92.0267 116.347 91.5627 116.315 91.072 116.272C90.592 116.229 90.128 116.181 89.68 116.128L89.84 114.368C90.1493 114.4 90.5067 114.437 90.912 114.48C91.3173 114.512 91.712 114.539 92.096 114.56C92.4907 114.581 92.8 114.592 93.024 114.592C93.2907 114.592 93.504 114.555 93.664 114.48C93.8347 114.395 93.968 114.208 94.064 113.92C94.1707 113.621 94.2507 113.173 94.304 112.576C94.368 111.979 94.416 111.168 94.448 110.144C94.48 109.109 94.5013 107.803 94.512 106.224L95.488 107.216H83.2V105.504H96.416V106.416C96.416 108.155 96.3947 109.616 96.352 110.8C96.3093 111.984 96.2347 112.949 96.128 113.696C96.0213 114.432 95.8613 114.997 95.648 115.392C95.4347 115.787 95.1627 116.053 94.832 116.192C94.5013 116.341 94.0853 116.416 93.584 116.416ZM83.152 115.376C83.824 114.864 84.4053 114.352 84.896 113.84C85.3867 113.317 85.792 112.741 86.112 112.112C86.432 111.472 86.6827 110.731 86.864 109.888C87.0453 109.045 87.168 108.053 87.232 106.912C87.3067 105.771 87.344 104.437 87.344 102.912H89.2C89.2 104.523 89.152 105.952 89.056 107.2C88.96 108.448 88.8 109.552 88.576 110.512C88.3627 111.461 88.0747 112.304 87.712 113.04C87.3493 113.776 86.8907 114.443 86.336 115.04C85.792 115.627 85.1467 116.187 84.4 116.72L83.152 115.376ZM100.688 115.264C101.701 115.2 102.539 115.061 103.2 114.848C103.861 114.635 104.379 114.325 104.752 113.92C105.125 113.504 105.387 112.944 105.536 112.24C105.696 111.536 105.776 110.656 105.776 109.6V105.088H107.712V109.6C107.712 110.891 107.6 111.984 107.376 112.88C107.152 113.776 106.784 114.512 106.272 115.088C105.76 115.664 105.083 116.101 104.24 116.4C103.397 116.699 102.357 116.896 101.12 116.992L100.688 115.264ZM98.928 110.944V109.232H113.072V110.944H98.928ZM100.304 104.768C101.029 104.768 101.797 104.747 102.608 104.704C103.419 104.651 104.24 104.587 105.072 104.512C105.904 104.427 106.709 104.331 107.488 104.224C108.277 104.107 109.013 103.984 109.696 103.856C110.389 103.717 111.003 103.568 111.536 103.408L112.064 105.088C111.371 105.291 110.571 105.477 109.664 105.648C108.757 105.819 107.781 105.968 106.736 106.096C105.691 106.224 104.619 106.32 103.52 106.384C102.432 106.448 101.36 106.48 100.304 106.48V104.768ZM125.584 116.416C125.275 116.416 124.901 116.4 124.464 116.368C124.027 116.347 123.563 116.315 123.072 116.272C122.592 116.229 122.128 116.181 121.68 116.128L121.84 114.368C122.149 114.4 122.507 114.437 122.912 114.48C123.317 114.512 123.712 114.539 124.096 114.56C124.491 114.581 124.8 114.592 125.024 114.592C125.291 114.592 125.504 114.555 125.664 114.48C125.835 114.395 125.968 114.208 126.064 113.92C126.171 113.621 126.251 113.173 126.304 112.576C126.368 111.979 126.416 111.168 126.448 110.144C126.48 109.109 126.501 107.803 126.512 106.224L127.488 107.216H115.2V105.504H128.416V106.416C128.416 108.155 128.395 109.616 128.352 110.8C128.309 111.984 128.235 112.949 128.128 113.696C128.021 114.432 127.861 114.997 127.648 115.392C127.435 115.787 127.163 116.053 126.832 116.192C126.501 116.341 126.085 116.416 125.584 116.416ZM115.152 115.376C115.824 114.864 116.405 114.352 116.896 113.84C117.387 113.317 117.792 112.741 118.112 112.112C118.432 111.472 118.683 110.731 118.864 109.888C119.045 109.045 119.168 108.053 119.232 106.912C119.307 105.771 119.344 104.437 119.344 102.912H121.2C121.2 104.523 121.152 105.952 121.056 107.2C120.96 108.448 120.8 109.552 120.576 110.512C120.363 111.461 120.075 112.304 119.712 113.04C119.349 113.776 118.891 114.443 118.336 115.04C117.792 115.627 117.147 116.187 116.4 116.72L115.152 115.376ZM132.688 115.264C133.701 115.2 134.539 115.061 135.2 114.848C135.861 114.635 136.379 114.325 136.752 113.92C137.125 113.504 137.387 112.944 137.536 112.24C137.696 111.536 137.776 110.656 137.776 109.6V105.088H139.712V109.6C139.712 110.891 139.6 111.984 139.376 112.88C139.152 113.776 138.784 114.512 138.272 115.088C137.76 115.664 137.083 116.101 136.24 116.4C135.397 116.699 134.357 116.896 133.12 116.992L132.688 115.264ZM130.928 110.944V109.232H145.072V110.944H130.928ZM132.304 104.768C133.029 104.768 133.797 104.747 134.608 104.704C135.419 104.651 136.24 104.587 137.072 104.512C137.904 104.427 138.709 104.331 139.488 104.224C140.277 104.107 141.013 103.984 141.696 103.856C142.389 103.717 143.003 103.568 143.536 103.408L144.064 105.088C143.371 105.291 142.571 105.477 141.664 105.648C140.757 105.819 139.781 105.968 138.736 106.096C137.691 106.224 136.619 106.32 135.52 106.384C134.432 106.448 133.36 106.48 132.304 106.48V104.768ZM147.312 117.216V106.784H149.184V114.432H153.024V103.104H154.976V114.432H158.816V106.784H160.688V117.216H158.816V116.112H149.184V117.216H147.312Z" fill="white"/>
<g filter="url(#filter2_d_122_1162)">
<rect x="131" y="46" width="91" height="29" fill="#128FCD" fill-opacity="0.2" shape-rendering="crispEdges"/>
<rect x="132" y="47" width="89" height="27" stroke="#48BCCB" stroke-opacity="0.5" stroke-width="2" shape-rendering="crispEdges"/>
</g>
<path d="M137.792 68.424L136.448 66.744C136.64 66.36 136.811 65.976 136.96 65.592C137.109 65.208 137.232 64.8027 137.328 64.376C137.435 63.9493 137.52 63.4907 137.584 63C137.648 62.5093 137.691 61.9547 137.712 61.336C137.744 60.7173 137.76 60.0293 137.76 59.272V55.512H150.928V57.096H139.616V60.6C139.616 61.7413 139.552 62.776 139.424 63.704C139.296 64.632 139.099 65.48 138.832 66.248C138.565 67.016 138.219 67.7413 137.792 68.424ZM142.048 65.496C141.845 65.496 141.552 65.4853 141.168 65.464C140.784 65.4427 140.352 65.4107 139.872 65.368L139.68 63.816C140.021 63.8587 140.347 63.8907 140.656 63.912C140.976 63.9227 141.205 63.928 141.344 63.928C141.493 63.928 141.616 63.9173 141.712 63.896C141.808 63.864 141.883 63.7893 141.936 63.672C141.989 63.5547 142.027 63.368 142.048 63.112C142.08 62.856 142.101 62.4987 142.112 62.04C142.123 61.5813 142.128 61 142.128 60.296H139.04V58.792H143.856C143.856 60.0827 143.845 61.1493 143.824 61.992C143.803 62.824 143.755 63.48 143.68 63.96C143.605 64.4293 143.504 64.776 143.376 65C143.248 65.2133 143.072 65.352 142.848 65.416C142.635 65.4693 142.368 65.496 142.048 65.496ZM142.352 68.152L141.52 66.616C142.683 66.2 143.728 65.608 144.656 64.84C145.595 64.072 146.389 63.1333 147.04 62.024C147.701 60.9147 148.197 59.64 148.528 58.2L150.224 58.68C149.872 60.2373 149.317 61.6453 148.56 62.904C147.813 64.152 146.912 65.224 145.856 66.12C144.811 67.0053 143.643 67.6827 142.352 68.152ZM149.488 68.328C149.104 68.328 148.672 68.152 148.192 67.8C147.723 67.448 147.243 66.9093 146.752 66.184C146.272 65.4587 145.829 64.5253 145.424 63.384C145.019 62.2427 144.688 60.8827 144.432 59.304C144.187 57.7253 144.064 55.912 144.064 53.864H145.872C145.872 55.6133 145.968 57.1653 146.16 58.52C146.363 59.864 146.613 61.016 146.912 61.976C147.211 62.936 147.515 63.7253 147.824 64.344C148.144 64.952 148.432 65.4053 148.688 65.704C148.944 65.992 149.125 66.136 149.232 66.136C149.317 66.136 149.397 66.0667 149.472 65.928C149.557 65.7787 149.643 65.512 149.728 65.128C149.813 64.7333 149.893 64.1627 149.968 63.416L151.616 64.04C151.552 64.8187 151.451 65.48 151.312 66.024C151.184 66.568 151.024 67.0107 150.832 67.352C150.64 67.6933 150.427 67.9387 150.192 68.088C149.957 68.248 149.723 68.328 149.488 68.328ZM149.12 56.248C148.725 55.9173 148.309 55.592 147.872 55.272C147.445 54.952 147.029 54.664 146.624 54.408L147.744 53.352C148.171 53.608 148.592 53.9013 149.008 54.232C149.435 54.552 149.851 54.8773 150.256 55.208L149.12 56.248ZM159.52 68.28L158.528 66.808C159.669 66.3387 160.629 65.8427 161.408 65.32C162.187 64.7973 162.816 64.1893 163.296 63.496C163.776 62.792 164.133 61.944 164.368 60.952C164.613 59.96 164.779 58.7547 164.864 57.336L166.656 57.4C166.56 58.968 166.368 60.3227 166.08 61.464C165.803 62.5947 165.387 63.5707 164.832 64.392C164.288 65.2027 163.579 65.9173 162.704 66.536C161.829 67.1547 160.768 67.736 159.52 68.28ZM153.696 68.536L152.32 67.528C152.757 67.0693 153.157 66.584 153.52 66.072C153.883 65.5493 154.176 65.0587 154.4 64.6L155.872 65.368C155.573 66.008 155.232 66.6 154.848 67.144C154.475 67.6987 154.091 68.1627 153.696 68.536ZM158.272 68.04C158.005 67.624 157.701 67.1973 157.36 66.76C157.029 66.3227 156.683 65.9067 156.32 65.512L157.696 64.664C158.08 65.08 158.443 65.512 158.784 65.96C159.125 66.3973 159.419 66.808 159.664 67.192L158.272 68.04ZM153.088 64.52V54.392H159.152V64.52H154.896V62.968H157.424V61.544H154.896V60.168H157.424V58.744H154.896V57.368H157.424V55.944H154.896V64.52H153.088ZM166.688 68.28C165.781 67.7893 164.992 67.256 164.32 66.68C163.659 66.104 163.088 65.4533 162.608 64.728C162.139 64.0027 161.749 63.1707 161.44 62.232C161.131 61.2827 160.88 60.2 160.688 58.984L162.496 58.712C162.645 59.8 162.843 60.7547 163.088 61.576C163.344 62.3867 163.669 63.1067 164.064 63.736C164.459 64.3547 164.939 64.9147 165.504 65.416C166.08 65.9067 166.768 66.376 167.568 66.824L166.688 68.28ZM159.856 61.944L158.416 60.808C159.003 59.944 159.536 58.92 160.016 57.736C160.496 56.5413 160.907 55.2133 161.248 53.752L163.024 53.96C162.843 54.8773 162.592 55.8107 162.272 56.76C161.963 57.6987 161.6 58.6107 161.184 59.496C160.779 60.3813 160.336 61.1973 159.856 61.944ZM161.168 57.688V56.056H167.552V57.688H161.168ZM176.752 67.752C175.387 67.752 174.197 67.5867 173.184 67.256C172.181 66.936 171.403 66.4773 170.848 65.88C170.304 65.2827 170.032 64.5733 170.032 63.752C170.032 63.0373 170.256 62.344 170.704 61.672C171.152 60.9893 171.776 60.3653 172.576 59.8L174.144 60.712C173.461 61.2133 172.939 61.72 172.576 62.232C172.224 62.7333 172.048 63.224 172.048 63.704C172.048 64.184 172.229 64.6 172.592 64.952C172.955 65.2933 173.483 65.5547 174.176 65.736C174.869 65.9067 175.712 65.992 176.704 65.992C177.493 65.992 178.315 65.944 179.168 65.848C180.021 65.752 180.848 65.6027 181.648 65.4L181.904 67.128C181.04 67.3307 180.16 67.4853 179.264 67.592C178.379 67.6987 177.541 67.752 176.752 67.752ZM169.456 58.12V56.488L182.544 56.168V57.8L169.456 58.12ZM178.8 63.784C178.459 63.0373 178.155 62.2853 177.888 61.528C177.621 60.7707 177.387 60.0027 177.184 59.224C176.992 58.4347 176.832 57.6293 176.704 56.808C176.587 55.9867 176.501 55.1493 176.448 54.296L178.336 54.2C178.389 55.0213 178.475 55.816 178.592 56.584C178.72 57.352 178.88 58.104 179.072 58.84C179.275 59.576 179.509 60.312 179.776 61.048C180.053 61.7733 180.368 62.5147 180.72 63.272L178.8 63.784ZM197.088 67.384C196.416 67.384 195.92 67.208 195.6 66.856C195.291 66.4933 195.136 65.9173 195.136 65.128V59.288C195.136 58.648 195.056 58.1787 194.896 57.88C194.747 57.5813 194.507 57.432 194.176 57.432C193.973 57.432 193.733 57.5013 193.456 57.64C193.179 57.768 192.832 57.9867 192.416 58.296C192.011 58.6053 191.515 59.0267 190.928 59.56C190.341 60.0827 189.637 60.7387 188.816 61.528H188.64C188.192 61.9867 187.685 62.4987 187.12 63.064C186.565 63.6293 185.957 64.2587 185.296 64.952L184.256 63.4C185.611 62.088 186.773 60.9787 187.744 60.072C188.715 59.1653 189.547 58.424 190.24 57.848C190.933 57.272 191.52 56.824 192 56.504C192.491 56.184 192.923 55.9653 193.296 55.848C193.68 55.7307 194.053 55.672 194.416 55.672C195.28 55.672 195.931 55.9387 196.368 56.472C196.816 56.9947 197.04 57.768 197.04 58.792V64.216C197.04 64.6 197.051 64.8933 197.072 65.096C197.104 65.2987 197.147 65.4373 197.2 65.512C197.264 65.576 197.355 65.608 197.472 65.608C197.664 65.608 197.925 65.544 198.256 65.416C198.597 65.288 198.971 65.1067 199.376 64.872L199.92 66.504C199.44 66.792 198.96 67.0107 198.48 67.16C198 67.3093 197.536 67.384 197.088 67.384ZM187.968 68.072V58.376H184.384V56.744H187.968V54.408H189.824V68.072H187.968ZM201.392 67.672C201.84 66.232 202.245 64.7707 202.608 63.288C202.981 61.7947 203.307 60.28 203.584 58.744C203.872 57.1973 204.117 55.64 204.32 54.072L206.224 54.152C206.043 55.688 205.808 57.24 205.52 58.808C205.243 60.376 204.917 61.9333 204.544 63.48C204.171 65.016 203.755 66.5253 203.296 68.008L201.392 67.672ZM211.312 67.688C210.341 67.688 209.499 67.5707 208.784 67.336C208.069 67.112 207.515 66.7973 207.12 66.392C206.725 65.976 206.528 65.48 206.528 64.904C206.528 64.4773 206.672 64.056 206.96 63.64C207.248 63.224 207.691 62.792 208.288 62.344L209.728 63.368C209.323 63.624 209.019 63.864 208.816 64.088C208.624 64.3013 208.528 64.5147 208.528 64.728C208.528 64.9733 208.64 65.192 208.864 65.384C209.099 65.5653 209.424 65.7093 209.84 65.816C210.267 65.9227 210.757 65.976 211.312 65.976C211.813 65.976 212.325 65.9493 212.848 65.896C213.371 65.8427 213.915 65.7627 214.48 65.656L214.688 67.368C214.101 67.4747 213.536 67.5547 212.992 67.608C212.448 67.6613 211.888 67.688 211.312 67.688ZM201.168 57.736V56.072H212.432V57.736H201.168ZM207.152 59.544C208.411 59.4267 209.643 59.336 210.848 59.272C212.064 59.208 213.28 59.176 214.496 59.176V60.856C213.301 60.856 212.101 60.888 210.896 60.952C209.701 61.0053 208.491 61.1013 207.264 61.24L207.152 59.544Z" fill="white"/>
<g filter="url(#filter3_d_122_1162)">
<rect x="25" y="144.193" width="91" height="29" fill="#128FCD" fill-opacity="0.2" shape-rendering="crispEdges"/>
<rect x="26" y="145.193" width="89" height="27" stroke="#48BCCB" stroke-opacity="0.5" stroke-width="2" shape-rendering="crispEdges"/>
</g>
<path d="M49.824 164.329C51.1253 164.275 52.2933 164.147 53.328 163.945C54.3627 163.731 55.248 163.454 55.984 163.113C56.72 162.771 57.28 162.382 57.664 161.945C58.048 161.497 58.24 161.001 58.24 160.457C58.24 159.849 57.968 159.395 57.424 159.097C56.8907 158.787 56.0693 158.633 54.96 158.633C54.416 158.633 53.8133 158.67 53.152 158.745C52.4907 158.809 51.728 158.921 50.864 159.081C50 159.241 48.9813 159.449 47.808 159.705L47.344 157.945C48.9013 157.593 50.32 157.331 51.6 157.161C52.88 156.979 54.0107 156.889 54.992 156.889C56.752 156.889 58.0747 157.177 58.96 157.753C59.8453 158.329 60.288 159.187 60.288 160.329C60.288 161.171 60.0533 161.939 59.584 162.633C59.1253 163.315 58.4587 163.907 57.584 164.409C56.7093 164.91 55.6533 165.305 54.416 165.593C53.1893 165.881 51.8027 166.051 50.256 166.105L49.824 164.329ZM57.888 155.049C57.152 155.049 56.32 155.033 55.392 155.001C54.4747 154.958 53.52 154.899 52.528 154.825C51.5467 154.739 50.592 154.649 49.664 154.553L49.904 152.697C50.6933 152.803 51.552 152.899 52.48 152.985C53.408 153.07 54.3413 153.134 55.28 153.177C56.2187 153.219 57.088 153.241 57.888 153.241V155.049ZM70.752 165.945C69.3867 165.945 68.1973 165.779 67.184 165.449C66.1813 165.129 65.4027 164.67 64.848 164.073C64.304 163.475 64.032 162.766 64.032 161.945C64.032 161.23 64.256 160.537 64.704 159.865C65.152 159.182 65.776 158.558 66.576 157.993L68.144 158.905C67.4613 159.406 66.9387 159.913 66.576 160.425C66.224 160.926 66.048 161.417 66.048 161.897C66.048 162.377 66.2293 162.793 66.592 163.145C66.9547 163.486 67.4827 163.747 68.176 163.929C68.8693 164.099 69.712 164.185 70.704 164.185C71.4933 164.185 72.3147 164.137 73.168 164.041C74.0213 163.945 74.848 163.795 75.648 163.593L75.904 165.321C75.04 165.523 74.16 165.678 73.264 165.785C72.3787 165.891 71.5413 165.945 70.752 165.945ZM63.456 156.313V154.681L76.544 154.361V155.993L63.456 156.313ZM72.8 161.977C72.4587 161.23 72.1547 160.478 71.888 159.721C71.6213 158.963 71.3867 158.195 71.184 157.417C70.992 156.627 70.832 155.822 70.704 155.001C70.5867 154.179 70.5013 153.342 70.448 152.489L72.336 152.393C72.3893 153.214 72.4747 154.009 72.592 154.777C72.72 155.545 72.88 156.297 73.072 157.033C73.2747 157.769 73.5093 158.505 73.776 159.241C74.0533 159.966 74.368 160.707 74.72 161.465L72.8 161.977ZM78.688 159.497V157.929L91.392 157.609V159.177L78.688 159.497ZM87.328 162.809C86.976 161.987 86.6613 161.155 86.384 160.313C86.1067 159.47 85.8667 158.617 85.664 157.753C85.472 156.889 85.312 156.009 85.184 155.113C85.056 154.206 84.9653 153.289 84.912 152.361L86.816 152.249C86.8693 153.155 86.9547 154.035 87.072 154.889C87.1893 155.742 87.344 156.579 87.536 157.401C87.7387 158.222 87.9787 159.049 88.256 159.881C88.544 160.702 88.8747 161.534 89.248 162.377L87.328 162.809ZM89.36 155.689L78.848 155.961V154.393L89.36 154.121V155.689ZM90.128 155.257C90.0427 154.681 89.9307 154.137 89.792 153.625C89.664 153.113 89.504 152.595 89.312 152.073L90.8 151.673C90.992 152.206 91.1573 152.734 91.296 153.257C91.4347 153.779 91.552 154.35 91.648 154.969L90.128 155.257ZM92.432 155.081C92.3467 154.473 92.24 153.918 92.112 153.417C91.9947 152.905 91.84 152.387 91.648 151.865L93.136 151.513C93.328 152.035 93.488 152.563 93.616 153.097C93.744 153.619 93.8453 154.19 93.92 154.809L92.432 155.081ZM85.776 166.201C84.4747 166.201 83.344 166.073 82.384 165.817C81.4347 165.561 80.704 165.203 80.192 164.745C79.68 164.275 79.424 163.721 79.424 163.081C79.424 162.526 79.6107 162.009 79.984 161.529C80.3573 161.049 80.88 160.654 81.552 160.345L82.816 161.465C82.336 161.699 81.9893 161.934 81.776 162.169C81.5627 162.393 81.4613 162.643 81.472 162.921C81.4827 163.273 81.648 163.571 81.968 163.817C82.288 164.051 82.7573 164.233 83.376 164.361C84.0053 164.489 84.7627 164.553 85.648 164.553C86.4267 164.553 87.2427 164.499 88.096 164.393C88.96 164.286 89.7653 164.147 90.512 163.977L90.784 165.641C90.016 165.822 89.2 165.961 88.336 166.057C87.472 166.153 86.6187 166.201 85.776 166.201Z" fill="white"/>
<g filter="url(#filter4_d_122_1162)">
<rect x="131.154" y="144" width="91" height="29" fill="#128FCD" fill-opacity="0.2" shape-rendering="crispEdges"/>
<rect x="132.154" y="145" width="89" height="27" stroke="#48BCCB" stroke-opacity="0.5" stroke-width="2" shape-rendering="crispEdges"/>
</g>
<path d="M168.618 165.368C168.352 165.368 168.01 165.331 167.594 165.256C167.178 165.192 166.741 165.101 166.282 164.984C165.824 164.856 165.392 164.717 164.986 164.568L165.418 162.952C165.76 163.059 166.101 163.165 166.442 163.272C166.794 163.368 167.114 163.448 167.402 163.512C167.701 163.565 167.936 163.592 168.106 163.592C168.448 163.592 168.73 163.437 168.954 163.128C169.178 162.808 169.344 162.312 169.45 161.64C169.568 160.957 169.626 160.083 169.626 159.016C169.626 158.397 169.6 157.901 169.546 157.528C169.504 157.144 169.418 156.856 169.29 156.664C169.162 156.472 168.965 156.344 168.698 156.28C168.432 156.216 168.074 156.184 167.626 156.184H160.81V154.52H167.434C168.181 154.52 168.8 154.552 169.29 154.616C169.781 154.669 170.176 154.781 170.474 154.952C170.773 155.123 170.997 155.384 171.146 155.736C171.306 156.077 171.408 156.536 171.45 157.112C171.504 157.677 171.53 158.387 171.53 159.24C171.53 160.627 171.424 161.773 171.21 162.68C171.008 163.587 170.693 164.264 170.266 164.712C169.84 165.149 169.29 165.368 168.618 165.368ZM161.002 165.192C161.397 164.179 161.749 163.245 162.058 162.392C162.368 161.528 162.645 160.701 162.89 159.912C163.146 159.123 163.376 158.323 163.578 157.512C163.792 156.701 163.989 155.837 164.17 154.92C164.352 154.003 164.533 152.989 164.714 151.88L166.57 152.088C166.4 153.155 166.224 154.152 166.042 155.08C165.861 155.997 165.658 156.883 165.434 157.736C165.221 158.579 164.981 159.421 164.714 160.264C164.458 161.107 164.165 161.976 163.834 162.872C163.514 163.768 163.152 164.728 162.746 165.752L161.002 165.192ZM174.026 162.248C173.93 161.608 173.802 160.925 173.642 160.2C173.482 159.475 173.301 158.744 173.098 158.008C172.896 157.272 172.682 156.563 172.458 155.88C172.234 155.187 172.005 154.552 171.77 153.976L173.562 153.464C173.808 154.061 174.042 154.707 174.266 155.4C174.49 156.093 174.704 156.808 174.906 157.544C175.109 158.28 175.29 159.016 175.45 159.752C175.61 160.477 175.744 161.171 175.85 161.832L174.026 162.248ZM185.53 164.104C186.341 163.997 187.04 163.768 187.626 163.416C188.213 163.053 188.661 162.589 188.97 162.024C189.29 161.448 189.45 160.792 189.45 160.056C189.45 159.224 189.248 158.509 188.842 157.912C188.448 157.315 187.877 156.856 187.13 156.536C186.384 156.205 185.498 156.04 184.474 156.04C183.333 156.04 182.336 156.243 181.482 156.648C180.64 157.053 179.984 157.629 179.514 158.376C179.056 159.112 178.826 159.992 178.826 161.016C178.826 161.507 178.885 161.933 179.002 162.296C179.12 162.648 179.285 162.92 179.498 163.112C179.712 163.304 179.968 163.4 180.266 163.4C180.682 163.4 181.12 163.213 181.578 162.84C182.048 162.467 182.522 161.939 183.002 161.256C183.493 160.563 183.973 159.741 184.442 158.792C184.922 157.843 185.37 156.792 185.786 155.64C186.213 154.477 186.597 153.245 186.938 151.944L188.714 152.312C188.202 154.275 187.616 156.051 186.954 157.64C186.293 159.219 185.584 160.568 184.826 161.688C184.069 162.797 183.285 163.656 182.474 164.264C181.664 164.861 180.853 165.16 180.042 165.16C179.445 165.16 178.922 164.995 178.474 164.664C178.026 164.333 177.68 163.864 177.434 163.256C177.189 162.648 177.066 161.933 177.066 161.112C177.066 160.088 177.242 159.155 177.594 158.312C177.946 157.469 178.448 156.744 179.098 156.136C179.76 155.528 180.544 155.064 181.45 154.744C182.357 154.413 183.365 154.248 184.474 154.248C185.84 154.248 187.029 154.488 188.042 154.968C189.066 155.437 189.856 156.109 190.41 156.984C190.965 157.859 191.242 158.883 191.242 160.056C191.242 161.091 191.024 162.019 190.586 162.84C190.16 163.651 189.546 164.317 188.746 164.84C187.957 165.352 187.029 165.677 185.962 165.816L185.53 164.104ZM182.154 162.872C181.76 161.837 181.386 160.797 181.034 159.752C180.682 158.696 180.352 157.608 180.042 156.488C179.744 155.357 179.445 154.179 179.146 152.952L180.954 152.552C181.232 153.757 181.52 154.915 181.818 156.024C182.117 157.123 182.432 158.189 182.762 159.224C183.104 160.259 183.466 161.288 183.85 162.312L182.154 162.872Z" fill="white"/>
<g filter="url(#filter5_d_122_1162)">
<rect x="183" y="95" width="91" height="29" fill="#128FCD" fill-opacity="0.2" shape-rendering="crispEdges"/>
<rect x="184" y="96" width="89" height="27" stroke="#48BCCB" stroke-opacity="0.5" stroke-width="2" shape-rendering="crispEdges"/>
</g>
<path d="M190.896 117.328C190.693 117.328 190.427 117.301 190.096 117.248C189.776 117.205 189.451 117.141 189.12 117.056L189.056 115.472C189.376 115.557 189.664 115.627 189.92 115.68C190.187 115.723 190.389 115.744 190.528 115.744C190.656 115.744 190.773 115.653 190.88 115.472C190.987 115.28 191.072 114.944 191.136 114.464C191.211 113.984 191.248 113.307 191.248 112.432C191.248 110.779 191.072 109.259 190.72 107.872C190.379 106.485 189.856 105.173 189.152 103.936L190.752 103.104C191.499 104.405 192.053 105.824 192.416 107.36C192.779 108.896 192.96 110.587 192.96 112.432C192.96 113.424 192.917 114.24 192.832 114.88C192.747 115.52 192.613 116.021 192.432 116.384C192.261 116.747 192.048 116.992 191.792 117.12C191.536 117.259 191.237 117.328 190.896 117.328ZM189.024 113.264L188.368 111.728C188.923 111.408 189.451 111.024 189.952 110.576C190.464 110.128 190.917 109.653 191.312 109.152L192.272 110.272C191.867 110.88 191.381 111.445 190.816 111.968C190.251 112.48 189.653 112.912 189.024 113.264ZM193.312 117.472L193.152 115.936C194.112 115.829 195.104 115.685 196.128 115.504C197.163 115.323 198.203 115.093 199.248 114.816L199.44 116.288C198.384 116.576 197.339 116.816 196.304 117.008C195.269 117.211 194.272 117.365 193.312 117.472ZM195.072 116.336V112.64H196.896V116.336H195.072ZM192.72 115.072L192.24 113.52C193.008 113.307 193.68 113.077 194.256 112.832C194.843 112.576 195.349 112.293 195.776 111.984C196.213 111.675 196.603 111.339 196.944 110.976L198.048 111.888C197.632 112.357 197.168 112.784 196.656 113.168C196.144 113.552 195.568 113.904 194.928 114.224C194.288 114.533 193.552 114.816 192.72 115.072ZM189.072 108.496L188.368 106.96C189.221 106.459 190.037 105.856 190.816 105.152C191.595 104.437 192.288 103.669 192.896 102.848L194.176 103.792C193.493 104.752 192.715 105.637 191.84 106.448C190.965 107.248 190.043 107.931 189.072 108.496ZM202.992 117.52C202.203 117.243 201.461 116.821 200.768 116.256C200.075 115.701 199.477 115.04 198.976 114.272C198.475 113.493 198.101 112.64 197.856 111.712L199.344 111.216C199.589 112.016 199.909 112.725 200.304 113.344C200.699 113.952 201.173 114.475 201.728 114.912C202.293 115.349 202.949 115.712 203.696 116L202.992 117.52ZM193.696 111.984V108.064H202.496V111.984H195.472V110.704H200.672V109.376H195.472V111.984H193.696ZM201.216 114.832L200.048 113.808C200.453 113.467 200.832 113.104 201.184 112.72C201.536 112.325 201.856 111.92 202.144 111.504L203.424 112.416C203.115 112.853 202.768 113.275 202.384 113.68C202.011 114.085 201.621 114.469 201.216 114.832ZM192.864 107.408V105.936H197.232V105.152H193.792V103.728H197.232V102.736H199.104V103.728H202.848V105.152H199.104V105.936H203.472V107.408H192.864ZM212.464 116.368C212.197 116.368 211.856 116.331 211.44 116.256C211.024 116.192 210.587 116.101 210.128 115.984C209.669 115.856 209.237 115.717 208.832 115.568L209.264 113.952C209.605 114.059 209.947 114.165 210.288 114.272C210.64 114.368 210.96 114.448 211.248 114.512C211.547 114.565 211.781 114.592 211.952 114.592C212.293 114.592 212.576 114.437 212.8 114.128C213.024 113.808 213.189 113.312 213.296 112.64C213.413 111.957 213.472 111.083 213.472 110.016C213.472 109.397 213.445 108.901 213.392 108.528C213.349 108.144 213.264 107.856 213.136 107.664C213.008 107.472 212.811 107.344 212.544 107.28C212.277 107.216 211.92 107.184 211.472 107.184H204.656V105.52H211.28C212.027 105.52 212.645 105.552 213.136 105.616C213.627 105.669 214.021 105.781 214.32 105.952C214.619 106.123 214.843 106.384 214.992 106.736C215.152 107.077 215.253 107.536 215.296 108.112C215.349 108.677 215.376 109.387 215.376 110.24C215.376 111.627 215.269 112.773 215.056 113.68C214.853 114.587 214.539 115.264 214.112 115.712C213.685 116.149 213.136 116.368 212.464 116.368ZM204.848 116.192C205.243 115.179 205.595 114.245 205.904 113.392C206.213 112.528 206.491 111.701 206.736 110.912C206.992 110.123 207.221 109.323 207.424 108.512C207.637 107.701 207.835 106.837 208.016 105.92C208.197 105.003 208.379 103.989 208.56 102.88L210.416 103.088C210.245 104.155 210.069 105.152 209.888 106.08C209.707 106.997 209.504 107.883 209.28 108.736C209.067 109.579 208.827 110.421 208.56 111.264C208.304 112.107 208.011 112.976 207.68 113.872C207.36 114.768 206.997 115.728 206.592 116.752L204.848 116.192ZM217.872 113.248C217.776 112.608 217.648 111.925 217.488 111.2C217.328 110.475 217.147 109.744 216.944 109.008C216.741 108.272 216.528 107.563 216.304 106.88C216.08 106.187 215.851 105.552 215.616 104.976L217.408 104.464C217.653 105.061 217.888 105.707 218.112 106.4C218.336 107.093 218.549 107.808 218.752 108.544C218.955 109.28 219.136 110.016 219.296 110.752C219.456 111.477 219.589 112.171 219.696 112.832L217.872 113.248ZM230.592 116.176C229.632 116.176 228.773 116.043 228.016 115.776C227.269 115.509 226.683 115.141 226.256 114.672C225.84 114.192 225.632 113.648 225.632 113.04C225.632 111.952 226.341 110.832 227.76 109.68L229.136 110.72C228.571 111.179 228.155 111.579 227.888 111.92C227.632 112.261 227.504 112.587 227.504 112.896C227.504 113.216 227.632 113.493 227.888 113.728C228.144 113.963 228.501 114.144 228.96 114.272C229.419 114.4 229.963 114.464 230.592 114.464C231.125 114.464 231.723 114.427 232.384 114.352C233.056 114.267 233.733 114.155 234.416 114.016L234.672 115.696C233.979 115.845 233.28 115.963 232.576 116.048C231.883 116.133 231.221 116.176 230.592 116.176ZM226.368 106.496V104.768H234.576V106.496H226.368ZM222.512 116.88C222.235 115.781 222.032 114.699 221.904 113.632C221.776 112.565 221.712 111.435 221.712 110.24C221.712 109.056 221.776 107.936 221.904 106.88C222.032 105.813 222.235 104.731 222.512 103.632L224.416 103.872C224.16 104.907 223.968 105.947 223.84 106.992C223.723 108.027 223.664 109.109 223.664 110.24C223.664 111.371 223.723 112.459 223.84 113.504C223.968 114.549 224.16 115.579 224.416 116.592L222.512 116.88ZM237.408 109.104L236.624 107.52C237.456 107.061 238.219 106.608 238.912 106.16C239.605 105.701 240.267 105.216 240.896 104.704C241.536 104.181 242.171 103.616 242.8 103.008H245.2C245.829 103.616 246.459 104.181 247.088 104.704C247.728 105.216 248.395 105.701 249.088 106.16C249.781 106.608 250.544 107.061 251.376 107.52L250.592 109.104C249.323 108.432 248.149 107.701 247.072 106.912C246.005 106.112 244.981 105.221 244 104.24C243.019 105.221 241.989 106.112 240.912 106.912C239.845 107.701 238.677 108.432 237.408 109.104ZM238.32 117.424V110.528H249.68V117.424H247.744V116.656H240.256V115.136H247.744V112.096H240.256V117.424H238.32ZM239.52 108.976V107.424H248.48V108.976H239.52ZM256.128 117.472V114.736H252.528V113.184H256.128V112.16H254.816V110.8H256.16V109.504H254.816V108.24H256.16V107.008H257.968V108.24H259.328V109.504H257.968V110.8H259.328V107.008H254.816V112.16H253.152V105.584H260.928V112.16H258V113.184H261.248V114.736H258V117.472H256.128ZM254.112 106.32C253.931 105.819 253.739 105.323 253.536 104.832C253.333 104.341 253.131 103.877 252.928 103.44L254.416 102.96C254.629 103.397 254.832 103.861 255.024 104.352C255.227 104.843 255.419 105.344 255.6 105.856L254.112 106.32ZM259.824 117.328L258.912 115.952C260.043 115.44 261.029 114.853 261.872 114.192C262.725 113.52 263.461 112.747 264.08 111.872C264.709 110.987 265.248 109.973 265.696 108.832L267.216 109.408C266.715 110.688 266.117 111.819 265.424 112.8C264.731 113.781 263.925 114.64 263.008 115.376C262.101 116.112 261.04 116.763 259.824 117.328ZM256.864 106.224C256.683 105.712 256.491 105.205 256.288 104.704C256.096 104.203 255.893 103.728 255.68 103.28L257.168 102.816C257.381 103.264 257.589 103.739 257.792 104.24C257.995 104.741 258.181 105.253 258.352 105.776L256.864 106.224ZM265.968 117.328C265.659 117.328 265.349 117.243 265.04 117.072C264.741 116.912 264.453 116.629 264.176 116.224C263.899 115.829 263.637 115.285 263.392 114.592C263.157 113.899 262.949 113.024 262.768 111.968C262.587 110.901 262.443 109.627 262.336 108.144C262.24 106.651 262.192 104.912 262.192 102.928H264.032C264.043 104.72 264.096 106.293 264.192 107.648C264.288 108.992 264.405 110.149 264.544 111.12C264.693 112.08 264.848 112.864 265.008 113.472C265.168 114.069 265.317 114.512 265.456 114.8C265.595 115.077 265.696 115.216 265.76 115.216C265.792 115.216 265.824 115.189 265.856 115.136C265.888 115.072 265.92 114.949 265.952 114.768C265.995 114.576 266.037 114.309 266.08 113.968C266.123 113.627 266.165 113.173 266.208 112.608L267.696 113.216C267.653 113.963 267.579 114.597 267.472 115.12C267.365 115.643 267.232 116.064 267.072 116.384C266.923 116.715 266.747 116.955 266.544 117.104C266.352 117.253 266.16 117.328 265.968 117.328ZM260.128 106.288L258.512 105.856C258.747 105.376 258.976 104.885 259.2 104.384C259.424 103.883 259.621 103.392 259.792 102.912L261.424 103.312C261.253 103.803 261.056 104.299 260.832 104.8C260.608 105.301 260.373 105.797 260.128 106.288ZM260.64 108.736L260.544 107.104L267.312 106.496L267.392 108.128L260.64 108.736ZM265.728 106.336C265.536 105.888 265.323 105.445 265.088 105.008C264.864 104.571 264.635 104.155 264.4 103.76L265.872 103.136C266.107 103.531 266.341 103.952 266.576 104.4C266.811 104.848 267.029 105.291 267.232 105.728L265.728 106.336Z" fill="white"/>
<g filter="url(#filter6_d_122_1162)">
<rect x="25" y="46" width="91" height="29" fill="#128FCD" fill-opacity="0.2" shape-rendering="crispEdges"/>
<rect x="26" y="47" width="89" height="27" stroke="#48BCCB" stroke-opacity="0.5" stroke-width="2" shape-rendering="crispEdges"/>
</g>
<path d="M51.312 68.36C51.2373 68.36 51.152 68.36 51.056 68.36C50.9707 68.36 50.8907 68.3547 50.816 68.344C50.4107 68.3333 50.1067 68.3013 49.904 68.248C49.712 68.1947 49.584 68.0827 49.52 67.912C49.456 67.752 49.424 67.5067 49.424 67.176V63.864H48.096V62.504H50.928V61.272H48.096V63.864H46.304V59.896H52.784V63.864H51.136V66.44C51.136 66.6 51.1467 66.696 51.168 66.728C51.2 66.7493 51.28 66.7707 51.408 66.792C51.44 66.792 51.4667 66.792 51.488 66.792C51.52 66.792 51.552 66.792 51.584 66.792C51.616 66.792 51.648 66.792 51.68 66.792C51.712 66.792 51.7387 66.792 51.76 66.792C51.8453 66.7813 51.9093 66.76 51.952 66.728C51.9947 66.696 52.0267 66.616 52.048 66.488C52.08 66.36 52.096 66.1467 52.096 65.848C52.1067 65.5493 52.1173 65.144 52.128 64.632L53.616 64.808C53.584 65.6507 53.5467 66.3067 53.504 66.776C53.4613 67.2453 53.3813 67.5867 53.264 67.8C53.1573 68.024 52.9867 68.1627 52.752 68.216C52.5173 68.28 52.2027 68.3227 51.808 68.344C51.7227 68.3547 51.6373 68.36 51.552 68.36C51.4667 68.36 51.3867 68.36 51.312 68.36ZM39.408 68.6L38.368 67.272C38.7413 67.0267 39.056 66.7707 39.312 66.504C39.568 66.2373 39.776 65.9333 39.936 65.592C40.1067 65.24 40.2293 64.84 40.304 64.392C40.3893 63.944 40.432 63.4267 40.432 62.84L42.032 62.888C42.032 63.6347 41.9787 64.3013 41.872 64.888C41.7653 65.464 41.6053 65.976 41.392 66.424C41.1893 66.872 40.9227 67.272 40.592 67.624C40.2613 67.976 39.8667 68.3013 39.408 68.6ZM41.536 67.8L41.296 66.232C42.0747 66.0293 42.848 65.7947 43.616 65.528C44.384 65.2507 45.1627 64.9253 45.952 64.552L46.128 66.056C45.36 66.4507 44.592 66.7867 43.824 67.064C43.0667 67.352 42.304 67.5973 41.536 67.8ZM42.752 66.536V63.864H40.976V62.504H43.696V61.272H40.976V63.864H39.216V59.896H45.52V63.864H44.432V66.536H42.752ZM45.184 68.6L44.272 67.224C44.8373 66.9893 45.3067 66.744 45.68 66.488C46.064 66.2213 46.3733 65.9227 46.608 65.592C46.8427 65.2507 47.008 64.856 47.104 64.408C47.2107 63.96 47.264 63.4267 47.264 62.808L48.912 62.888C48.912 63.6453 48.8427 64.3227 48.704 64.92C48.5653 65.5067 48.3413 66.0293 48.032 66.488C47.7333 66.936 47.344 67.3307 46.864 67.672C46.3947 68.024 45.8347 68.3333 45.184 68.6ZM38.64 59.288V57.88H45.696V59.288H38.64ZM40.592 58.872C40.4 58.392 40.1973 57.912 39.984 57.432C39.7813 56.952 39.5627 56.4933 39.328 56.056L40.752 55.4C40.9867 55.8587 41.2107 56.3387 41.424 56.84C41.648 57.3413 41.856 57.8373 42.048 58.328L40.592 58.872ZM43.84 58.984L42.448 58.328C42.6933 57.8907 42.912 57.4373 43.104 56.968C43.3067 56.4987 43.488 56.024 43.648 55.544L45.152 56.04C44.9813 56.552 44.784 57.0587 44.56 57.56C44.336 58.0507 44.096 58.5253 43.84 58.984ZM38.848 56.424V54.952H41.328V53.704H43.2V54.952H45.664V56.424H38.848ZM47.76 58.872C47.5787 58.392 47.3813 57.912 47.168 57.432C46.9547 56.952 46.736 56.4933 46.512 56.056L47.968 55.4C48.2133 55.8587 48.4427 56.3387 48.656 56.84C48.88 57.3413 49.088 57.8373 49.28 58.328L47.76 58.872ZM46.128 59.288V57.88H53.36V59.288H46.128ZM51.232 58.984L49.792 58.328C50.0373 57.8907 50.2613 57.4373 50.464 56.968C50.6667 56.4987 50.848 56.024 51.008 55.544L52.56 56.04C52.3893 56.552 52.192 57.0587 51.968 57.56C51.744 58.0507 51.4987 58.5253 51.232 58.984ZM46.16 56.424V54.952H48.56V53.704H50.432V54.952H53.152V56.424H46.16ZM60.848 68.392C60.6027 68.392 60.272 68.3867 59.856 68.376C59.4507 68.3653 58.9547 68.344 58.368 68.312L58.288 66.712C58.8213 66.7333 59.264 66.7493 59.616 66.76C59.9787 66.7707 60.256 66.776 60.448 66.776C60.6933 66.776 60.8693 66.7653 60.976 66.744C61.0827 66.712 61.1467 66.6427 61.168 66.536C61.2 66.4187 61.216 66.2373 61.216 65.992V58.824H58V57.368H68.224V60.328H69.552V61.88H68.224V65.48H66.352V64.856H55.712V63.416H66.352V61.88H54.448V60.328H66.352V58.824H63.136V65.944C63.136 66.4987 63.1093 66.9413 63.056 67.272C63.0027 67.6027 62.9013 67.848 62.752 68.008C62.6027 68.168 62.3733 68.2693 62.064 68.312C61.7547 68.3653 61.3493 68.392 60.848 68.392ZM56.176 59.72L54.832 58.6C55.4613 58.1307 56.0427 57.624 56.576 57.08C57.1093 56.5253 57.584 55.96 58 55.384C58.416 54.7973 58.7573 54.2107 59.024 53.624L60.832 53.896C60.6507 54.3867 60.4053 54.8933 60.096 55.416C59.7973 55.9387 59.44 56.4613 59.024 56.984C58.6187 57.496 58.176 57.9867 57.696 58.456C57.216 58.9253 56.7093 59.3467 56.176 59.72ZM58.928 56.2V54.728H65.856V56.2H58.928ZM63.184 58.776L61.728 57.88C62.016 57.656 62.3147 57.4053 62.624 57.128C62.9333 56.84 63.2267 56.552 63.504 56.264C63.7813 55.976 64.0107 55.7253 64.192 55.512L65.856 56.2C65.5573 56.5733 65.1627 57 64.672 57.48C64.192 57.9493 63.696 58.3813 63.184 58.776ZM77.712 67.832C76.496 67.832 75.4987 67.64 74.72 67.256C73.952 66.8827 73.3813 66.3013 73.008 65.512C72.6453 64.7227 72.464 63.7093 72.464 62.472V54.68H74.416V62.472C74.416 63.72 74.6773 64.6267 75.2 65.192C75.7227 65.7467 76.56 66.024 77.712 66.024C78.5547 66.024 79.296 65.8693 79.936 65.56C80.5867 65.2507 81.1733 64.7493 81.696 64.056C82.2293 63.352 82.7413 62.4187 83.232 61.256L85.008 61.976C84.5813 63.0427 84.1227 63.9493 83.632 64.696C83.152 65.432 82.624 66.0347 82.048 66.504C81.4827 66.9627 80.8427 67.2987 80.128 67.512C79.4133 67.7253 78.608 67.832 77.712 67.832ZM87.392 67.672C87.84 66.232 88.2453 64.7707 88.608 63.288C88.9813 61.7947 89.3067 60.28 89.584 58.744C89.872 57.1973 90.1173 55.64 90.32 54.072L92.224 54.152C92.0427 55.688 91.808 57.24 91.52 58.808C91.2427 60.376 90.9173 61.9333 90.544 63.48C90.1707 65.016 89.7547 66.5253 89.296 68.008L87.392 67.672ZM97.312 67.688C96.3413 67.688 95.4987 67.5707 94.784 67.336C94.0693 67.112 93.5147 66.7973 93.12 66.392C92.7253 65.976 92.528 65.48 92.528 64.904C92.528 64.4773 92.672 64.056 92.96 63.64C93.248 63.224 93.6907 62.792 94.288 62.344L95.728 63.368C95.3227 63.624 95.0187 63.864 94.816 64.088C94.624 64.3013 94.528 64.5147 94.528 64.728C94.528 64.9733 94.64 65.192 94.864 65.384C95.0987 65.5653 95.424 65.7093 95.84 65.816C96.2667 65.9227 96.7573 65.976 97.312 65.976C97.8133 65.976 98.3253 65.9493 98.848 65.896C99.3707 65.8427 99.9147 65.7627 100.48 65.656L100.688 67.368C100.101 67.4747 99.536 67.5547 98.992 67.608C98.448 67.6613 97.888 67.688 97.312 67.688ZM87.168 57.736V56.072H98.432V57.736H87.168ZM93.152 59.544C94.4107 59.4267 95.6427 59.336 96.848 59.272C98.064 59.208 99.28 59.176 100.496 59.176V60.856C99.3013 60.856 98.1013 60.888 96.896 60.952C95.7013 61.0053 94.4907 61.1013 93.264 61.24L93.152 59.544Z" fill="white"/>
<defs>
<filter id="filter0_d_122_1162" x="0" y="0" width="295.18" height="27" filterUnits="userSpaceOnUse" color-interpolation-filters="sRGB">
<feFlood flood-opacity="0" result="BackgroundImageFix"/>
<feColorMatrix in="SourceAlpha" type="matrix" values="0 0 0 0 0 0 0 0 0 0 0 0 0 0 0 0 0 0 127 0" result="hardAlpha"/>
<feOffset/>
<feGaussianBlur stdDeviation="2"/>
<feComposite in2="hardAlpha" operator="out"/>
<feColorMatrix type="matrix" values="0 0 0 0 1 0 0 0 0 1 0 0 0 0 1 0 0 0 0.6 0"/>
<feBlend mode="normal" in2="BackgroundImageFix" result="effect1_dropShadow_122_1162"/>
<feBlend mode="normal" in="SourceGraphic" in2="effect1_dropShadow_122_1162" result="shape"/>
</filter>
<filter id="filter1_d_122_1162" x="71" y="89" width="103" height="41" filterUnits="userSpaceOnUse" color-interpolation-filters="sRGB">
<feFlood flood-opacity="0" result="BackgroundImageFix"/>
<feColorMatrix in="SourceAlpha" type="matrix" values="0 0 0 0 0 0 0 0 0 0 0 0 0 0 0 0 0 0 127 0" result="hardAlpha"/>
<feOffset/>
<feGaussianBlur stdDeviation="3"/>
<feComposite in2="hardAlpha" operator="out"/>
<feColorMatrix type="matrix" values="0 0 0 0 0.282353 0 0 0 0 0.737255 0 0 0 0 0.796078 0 0 0 0.25 0"/>
<feBlend mode="normal" in2="BackgroundImageFix" result="effect1_dropShadow_122_1162"/>
<feBlend mode="normal" in="SourceGraphic" in2="effect1_dropShadow_122_1162" result="shape"/>
</filter>
<filter id="filter2_d_122_1162" x="125" y="40" width="103" height="41" filterUnits="userSpaceOnUse" color-interpolation-filters="sRGB">
<feFlood flood-opacity="0" result="BackgroundImageFix"/>
<feColorMatrix in="SourceAlpha" type="matrix" values="0 0 0 0 0 0 0 0 0 0 0 0 0 0 0 0 0 0 127 0" result="hardAlpha"/>
<feOffset/>
<feGaussianBlur stdDeviation="3"/>
<feComposite in2="hardAlpha" operator="out"/>
<feColorMatrix type="matrix" values="0 0 0 0 0.282353 0 0 0 0 0.737255 0 0 0 0 0.796078 0 0 0 0.25 0"/>
<feBlend mode="normal" in2="BackgroundImageFix" result="effect1_dropShadow_122_1162"/>
<feBlend mode="normal" in="SourceGraphic" in2="effect1_dropShadow_122_1162" result="shape"/>
</filter>
<filter id="filter3_d_122_1162" x="19" y="138.193" width="103" height="41" filterUnits="userSpaceOnUse" color-interpolation-filters="sRGB">
<feFlood flood-opacity="0" result="BackgroundImageFix"/>
<feColorMatrix in="SourceAlpha" type="matrix" values="0 0 0 0 0 0 0 0 0 0 0 0 0 0 0 0 0 0 127 0" result="hardAlpha"/>
<feOffset/>
<feGaussianBlur stdDeviation="3"/>
<feComposite in2="hardAlpha" operator="out"/>
<feColorMatrix type="matrix" values="0 0 0 0 0.282353 0 0 0 0 0.737255 0 0 0 0 0.796078 0 0 0 0.25 0"/>
<feBlend mode="normal" in2="BackgroundImageFix" result="effect1_dropShadow_122_1162"/>
<feBlend mode="normal" in="SourceGraphic" in2="effect1_dropShadow_122_1162" result="shape"/>
</filter>
<filter id="filter4_d_122_1162" x="125.154" y="138" width="103" height="41" filterUnits="userSpaceOnUse" color-interpolation-filters="sRGB">
<feFlood flood-opacity="0" result="BackgroundImageFix"/>
<feColorMatrix in="SourceAlpha" type="matrix" values="0 0 0 0 0 0 0 0 0 0 0 0 0 0 0 0 0 0 127 0" result="hardAlpha"/>
<feOffset/>
<feGaussianBlur stdDeviation="3"/>
<feComposite in2="hardAlpha" operator="out"/>
<feColorMatrix type="matrix" values="0 0 0 0 0.282353 0 0 0 0 0.737255 0 0 0 0 0.796078 0 0 0 0.25 0"/>
<feBlend mode="normal" in2="BackgroundImageFix" result="effect1_dropShadow_122_1162"/>
<feBlend mode="normal" in="SourceGraphic" in2="effect1_dropShadow_122_1162" result="shape"/>
</filter>
<filter id="filter5_d_122_1162" x="177" y="89" width="103" height="41" filterUnits="userSpaceOnUse" color-interpolation-filters="sRGB">
<feFlood flood-opacity="0" result="BackgroundImageFix"/>
<feColorMatrix in="SourceAlpha" type="matrix" values="0 0 0 0 0 0 0 0 0 0 0 0 0 0 0 0 0 0 127 0" result="hardAlpha"/>
<feOffset/>
<feGaussianBlur stdDeviation="3"/>
<feComposite in2="hardAlpha" operator="out"/>
<feColorMatrix type="matrix" values="0 0 0 0 0.282353 0 0 0 0 0.737255 0 0 0 0 0.796078 0 0 0 0.25 0"/>
<feBlend mode="normal" in2="BackgroundImageFix" result="effect1_dropShadow_122_1162"/>
<feBlend mode="normal" in="SourceGraphic" in2="effect1_dropShadow_122_1162" result="shape"/>
</filter>
<filter id="filter6_d_122_1162" x="19" y="40" width="103" height="41" filterUnits="userSpaceOnUse" color-interpolation-filters="sRGB">
<feFlood flood-opacity="0" result="BackgroundImageFix"/>
<feColorMatrix in="SourceAlpha" type="matrix" values="0 0 0 0 0 0 0 0 0 0 0 0 0 0 0 0 0 0 127 0" result="hardAlpha"/>
<feOffset/>
<feGaussianBlur stdDeviation="3"/>
<feComposite in2="hardAlpha" operator="out"/>
<feColorMatrix type="matrix" values="0 0 0 0 0.282353 0 0 0 0 0.737255 0 0 0 0 0.796078 0 0 0 0.25 0"/>
<feBlend mode="normal" in2="BackgroundImageFix" result="effect1_dropShadow_122_1162"/>
<feBlend mode="normal" in="SourceGraphic" in2="effect1_dropShadow_122_1162" result="shape"/>
</filter>
</defs>
</svg>
