<svg width="293" height="184" viewBox="0 0 293 184" fill="none" xmlns="http://www.w3.org/2000/svg">
<g filter="url(#filter0_d_122_1160)">
<rect x="46" y="5" width="64" height="17" stroke="white" stroke-width="2"/>
<rect x="116" y="5" width="64" height="17" stroke="white" stroke-width="2"/>
<rect x="186" y="5" width="64" height="17" stroke="white" stroke-width="2"/>
<path d="M51.012 40.648C49.516 40.648 48.38 40.416 47.604 39.952C46.828 39.48 46.44 38.792 46.44 37.888C46.44 37.128 46.724 36.436 47.292 35.812C47.86 35.18 48.744 34.596 49.944 34.06C51.152 33.524 52.704 33.016 54.6 32.536L54.936 33.82C53.328 34.228 52.004 34.644 50.964 35.068C49.932 35.492 49.168 35.928 48.672 36.376C48.184 36.816 47.94 37.288 47.94 37.792C47.94 38.832 48.992 39.352 51.096 39.352C51.44 39.352 51.8 39.336 52.176 39.304C52.552 39.272 52.972 39.228 53.436 39.172C53.908 39.108 54.444 39.028 55.044 38.932L55.212 40.228C54.452 40.356 53.716 40.456 53.004 40.528C52.3 40.608 51.636 40.648 51.012 40.648ZM48.732 35.284C48.5 34.5 48.304 33.732 48.144 32.98C47.984 32.22 47.856 31.468 47.76 30.724L49.212 30.508C49.316 31.252 49.448 31.996 49.608 32.74C49.768 33.476 49.96 34.208 50.184 34.936L48.732 35.284ZM64.356 40.996C64.156 40.996 63.9 40.988 63.588 40.972C63.276 40.964 62.928 40.952 62.544 40.936L62.472 39.748C62.8 39.764 63.088 39.78 63.336 39.796C63.592 39.804 63.796 39.808 63.948 39.808C64.1 39.808 64.208 39.796 64.272 39.772C64.336 39.748 64.376 39.696 64.392 39.616C64.408 39.528 64.416 39.392 64.416 39.208V37.324H61.56V36.1H64.428V31.636H65.832V36.1H68.724V37.324H65.832V39.148C65.832 39.572 65.812 39.904 65.772 40.144C65.74 40.392 65.672 40.576 65.568 40.696C65.472 40.824 65.324 40.904 65.124 40.936C64.932 40.976 64.676 40.996 64.356 40.996ZM57.78 40.624V30.844H61.392V39.916H59.136V38.728H60.096V32.068H59.136V40.624H57.78ZM62.784 35.704C62.616 35.248 62.444 34.804 62.268 34.372C62.092 33.932 61.912 33.516 61.728 33.124L62.892 32.704C63.076 33.088 63.256 33.5 63.432 33.94C63.616 34.372 63.792 34.82 63.96 35.284L62.784 35.704ZM67.368 35.704L66.204 35.284C66.42 34.78 66.624 34.26 66.816 33.724C67.008 33.188 67.172 32.668 67.308 32.164L68.532 32.524C68.38 33.036 68.204 33.568 68.004 34.12C67.812 34.664 67.6 35.192 67.368 35.704ZM61.872 32.428L61.632 31.204C62.504 31.164 63.344 31.104 64.152 31.024C64.968 30.936 65.724 30.836 66.42 30.724C67.116 30.612 67.716 30.492 68.22 30.364L68.484 31.588C68.02 31.716 67.452 31.836 66.78 31.948C66.108 32.06 65.36 32.16 64.536 32.248C63.712 32.328 62.824 32.388 61.872 32.428ZM75.108 40.564C74.244 40.564 73.568 40.372 73.08 39.988C72.6 39.596 72.36 39.052 72.36 38.356C72.36 37.644 72.6 37.096 73.08 36.712C73.56 36.328 74.236 36.136 75.108 36.136C75.492 36.136 75.856 36.184 76.2 36.28C76.552 36.368 76.916 36.528 77.292 36.76C77.668 36.992 78.092 37.312 78.564 37.72C79.036 38.12 79.584 38.632 80.208 39.256L79.332 40.204C78.764 39.628 78.272 39.156 77.856 38.788C77.44 38.412 77.076 38.12 76.764 37.912C76.452 37.704 76.16 37.56 75.888 37.48C75.616 37.392 75.332 37.348 75.036 37.348C74.108 37.348 73.644 37.684 73.644 38.356C73.644 39.02 74.108 39.352 75.036 39.352C75.532 39.352 75.884 39.248 76.092 39.04C76.308 38.824 76.416 38.472 76.416 37.984V33.112H76.08V30.628H77.472V33.112H77.808V38.044C77.808 38.884 77.58 39.516 77.124 39.94C76.668 40.356 75.996 40.564 75.108 40.564ZM70.176 40.78C69.968 39.956 69.816 39.144 69.72 38.344C69.624 37.544 69.576 36.696 69.576 35.8C69.576 34.912 69.624 34.072 69.72 33.28C69.816 32.48 69.968 31.668 70.176 30.844L71.592 31.024C71.4 31.8 71.256 32.58 71.16 33.364C71.072 34.14 71.028 34.952 71.028 35.8C71.028 36.648 71.072 37.464 71.16 38.248C71.256 39.032 71.4 39.804 71.592 40.564L70.176 40.78ZM72.396 33.724V32.512H80.028V33.724H72.396ZM78.156 32.26C78.084 31.876 78.004 31.512 77.916 31.168C77.828 30.824 77.724 30.48 77.604 30.136L78.72 29.86C78.856 30.204 78.968 30.552 79.056 30.904C79.144 31.256 79.22 31.636 79.284 32.044L78.156 32.26ZM79.824 32.128C79.76 31.736 79.684 31.368 79.596 31.024C79.516 30.68 79.416 30.336 79.296 29.992L80.424 29.74C80.544 30.084 80.644 30.436 80.724 30.796C80.812 31.148 80.884 31.524 80.94 31.924L79.824 32.128ZM90.816 40.288C90.312 40.288 89.94 40.156 89.7 39.892C89.468 39.62 89.352 39.188 89.352 38.596V34.216C89.352 33.736 89.292 33.384 89.172 33.16C89.06 32.936 88.88 32.824 88.632 32.824C88.48 32.824 88.3 32.876 88.092 32.98C87.884 33.076 87.624 33.24 87.312 33.472C87.008 33.704 86.636 34.02 86.196 34.42C85.756 34.812 85.228 35.304 84.612 35.896H84.48C84.144 36.24 83.764 36.624 83.34 37.048C82.924 37.472 82.468 37.944 81.972 38.464L81.192 37.3C82.208 36.316 83.08 35.484 83.808 34.804C84.536 34.124 85.16 33.568 85.68 33.136C86.2 32.704 86.64 32.368 87 32.128C87.368 31.888 87.692 31.724 87.972 31.636C88.26 31.548 88.54 31.504 88.812 31.504C89.46 31.504 89.948 31.704 90.276 32.104C90.612 32.496 90.78 33.076 90.78 33.844V37.912C90.78 38.2 90.788 38.42 90.804 38.572C90.828 38.724 90.86 38.828 90.9 38.884C90.948 38.932 91.016 38.956 91.104 38.956C91.248 38.956 91.444 38.908 91.692 38.812C91.948 38.716 92.228 38.58 92.532 38.404L92.94 39.628C92.58 39.844 92.22 40.008 91.86 40.12C91.5 40.232 91.152 40.288 90.816 40.288ZM83.976 40.804V33.532H81.288V32.308H83.976V30.556H85.368V40.804H83.976ZM98.724 40.756C97.54 40.756 96.62 40.564 95.964 40.18C95.316 39.796 94.992 39.256 94.992 38.56C94.992 37.968 95.236 37.508 95.724 37.18C96.22 36.844 96.9 36.676 97.764 36.676C98.58 36.676 99.192 36.828 99.6 37.132C100.008 37.428 100.212 37.876 100.212 38.476C100.212 38.692 100.18 38.924 100.116 39.172C100.06 39.42 99.976 39.676 99.864 39.94L98.544 39.796C98.656 39.524 98.736 39.292 98.784 39.1C98.84 38.908 98.868 38.74 98.868 38.596C98.868 38.052 98.468 37.78 97.668 37.78C97.26 37.78 96.94 37.848 96.708 37.984C96.484 38.112 96.372 38.3 96.372 38.548C96.372 38.884 96.568 39.152 96.96 39.352C97.352 39.544 97.884 39.64 98.556 39.64C99.844 39.64 100.8 39.452 101.424 39.076C102.056 38.692 102.372 38.108 102.372 37.324C102.372 36.66 102.124 36.172 101.628 35.86C101.14 35.548 100.36 35.392 99.288 35.392C98.672 35.392 98.128 35.448 97.656 35.56C97.184 35.664 96.748 35.828 96.348 36.052L94.764 36.964L94.188 35.86L101.004 32.068V32.296H94.896V31.084H103.104V32.296L97.248 35.524L96.504 34.912C96.752 34.824 97.028 34.744 97.332 34.672C97.644 34.592 97.96 34.528 98.28 34.48C98.608 34.424 98.924 34.38 99.228 34.348C99.532 34.308 99.808 34.288 100.056 34.288C101.272 34.288 102.204 34.544 102.852 35.056C103.5 35.568 103.824 36.296 103.824 37.24C103.824 38.368 103.38 39.236 102.492 39.844C101.612 40.452 100.356 40.756 98.724 40.756ZM105.756 40.744V39.508H110.46V36.712H107.352V35.512H110.46V33.292H107.136V32.056H110.46V30.244H111.936V32.056H115.836V33.292H111.936V35.512H115.236V36.712H111.936V39.508H116.244V40.744H105.756ZM106.752 36.004L105.504 35.38C105.872 34.644 106.204 33.856 106.5 33.016C106.796 32.168 107.044 31.312 107.244 30.448L108.6 30.688C108.416 31.592 108.164 32.504 107.844 33.424C107.532 34.344 107.168 35.204 106.752 36.004ZM123.552 40.636C122.576 40.636 121.728 40.54 121.008 40.348C120.296 40.156 119.748 39.888 119.364 39.544C118.98 39.192 118.788 38.776 118.788 38.296C118.788 37.88 118.928 37.492 119.208 37.132C119.488 36.772 119.88 36.476 120.384 36.244L121.332 37.084C120.972 37.26 120.712 37.436 120.552 37.612C120.392 37.78 120.316 37.968 120.324 38.176C120.332 38.44 120.456 38.664 120.696 38.848C120.936 39.024 121.288 39.16 121.752 39.256C122.224 39.352 122.792 39.4 123.456 39.4C124.04 39.4 124.652 39.36 125.292 39.28C125.94 39.2 126.544 39.096 127.104 38.968L127.308 40.216C126.732 40.352 126.12 40.456 125.472 40.528C124.824 40.6 124.184 40.636 123.552 40.636ZM118.236 35.608V34.432L127.764 34.192V35.368L118.236 35.608ZM124.716 38.092C124.452 37.476 124.216 36.852 124.008 36.22C123.8 35.588 123.62 34.952 123.468 34.312C123.324 33.664 123.204 33.004 123.108 32.332C123.012 31.652 122.944 30.96 122.904 30.256L124.332 30.172C124.372 30.852 124.436 31.512 124.524 32.152C124.62 32.792 124.74 33.42 124.884 34.036C125.028 34.652 125.204 35.272 125.412 35.896C125.628 36.512 125.876 37.136 126.156 37.768L124.716 38.092ZM118.356 32.956V31.78L127.644 31.54V32.716L118.356 32.956ZM138.924 40.948C138.78 40.948 138.576 40.944 138.312 40.936C138.056 40.928 137.784 40.916 137.496 40.9C137.216 40.884 136.956 40.872 136.716 40.864L136.656 39.616C136.96 39.64 137.264 39.66 137.568 39.676C137.872 39.684 138.108 39.688 138.276 39.688C138.364 39.688 138.44 39.648 138.504 39.568C138.576 39.48 138.636 39.312 138.684 39.064C138.74 38.808 138.788 38.428 138.828 37.924C138.876 37.412 138.916 36.736 138.948 35.896C138.988 35.048 139.024 33.984 139.056 32.704H135.048V31.468H140.388C140.364 32.972 140.336 34.252 140.304 35.308C140.272 36.364 140.232 37.24 140.184 37.936C140.136 38.624 140.076 39.176 140.004 39.592C139.932 40 139.844 40.3 139.74 40.492C139.644 40.684 139.528 40.808 139.392 40.864C139.256 40.92 139.1 40.948 138.924 40.948ZM129.516 37.912L129.384 36.712C130.168 36.576 130.932 36.42 131.676 36.244C132.428 36.06 133.164 35.856 133.884 35.632L133.992 36.832C133.264 37.064 132.528 37.268 131.784 37.444C131.048 37.62 130.292 37.776 129.516 37.912ZM131.328 41.104V33.28H130.368V32.08H131.328V30.256H132.708V32.08H133.824V33.28H132.708V41.104H131.328ZM130.404 35.488L129.276 35.224C129.42 34.576 129.552 33.872 129.672 33.112C129.792 32.352 129.88 31.56 129.936 30.736L131.076 30.808C131.02 31.696 130.936 32.528 130.824 33.304C130.72 34.08 130.58 34.808 130.404 35.488ZM134.748 41.08L133.908 40.084C134.684 39.524 135.384 38.848 136.008 38.056C136.632 37.264 137.164 36.384 137.604 35.416C138.052 34.44 138.392 33.404 138.624 32.308L139.632 32.716C139.48 33.588 139.252 34.436 138.948 35.26C138.652 36.076 138.292 36.848 137.868 37.576C137.444 38.296 136.968 38.956 136.44 39.556C135.912 40.148 135.348 40.656 134.748 41.08ZM134.124 38.512L133.284 37.516C133.788 37.108 134.256 36.62 134.688 36.052C135.12 35.476 135.5 34.84 135.828 34.144C136.164 33.448 136.436 32.712 136.644 31.936L137.796 32.32C137.572 33.168 137.272 33.984 136.896 34.768C136.52 35.552 136.096 36.264 135.624 36.904C135.152 37.544 134.652 38.08 134.124 38.512ZM133.848 35.5L132.984 34.564C133.296 34.196 133.588 33.776 133.86 33.304C134.132 32.824 134.376 32.308 134.592 31.756C134.816 31.204 134.996 30.64 135.132 30.064L136.44 30.22C136.264 30.9 136.04 31.568 135.768 32.224C135.504 32.88 135.204 33.488 134.868 34.048C134.54 34.608 134.2 35.092 133.848 35.5ZM147.504 40.444C146.64 40.444 145.964 40.252 145.476 39.868C144.996 39.476 144.756 38.932 144.756 38.236C144.756 37.524 144.996 36.976 145.476 36.592C145.956 36.208 146.632 36.016 147.504 36.016C147.88 36.016 148.244 36.064 148.596 36.16C148.948 36.248 149.312 36.408 149.688 36.64C150.064 36.872 150.484 37.192 150.948 37.6C151.42 38 151.972 38.512 152.604 39.136L151.716 40.084C151.148 39.508 150.656 39.036 150.24 38.668C149.832 38.292 149.472 38 149.16 37.792C148.848 37.584 148.552 37.44 148.272 37.36C148 37.272 147.72 37.228 147.432 37.228C146.504 37.228 146.04 37.564 146.04 38.236C146.04 38.9 146.504 39.232 147.432 39.232C147.936 39.232 148.292 39.128 148.5 38.92C148.716 38.704 148.824 38.352 148.824 37.864V30.448H150.216V37.924C150.216 38.764 149.984 39.396 149.52 39.82C149.064 40.236 148.392 40.444 147.504 40.444ZM144.792 33.544V32.332H152.424V33.544H144.792ZM142.572 40.66C142.364 39.836 142.212 39.024 142.116 38.224C142.02 37.424 141.972 36.576 141.972 35.68C141.972 34.792 142.02 33.952 142.116 33.16C142.212 32.36 142.36 31.548 142.56 30.724L143.976 30.904C143.784 31.68 143.64 32.46 143.544 33.244C143.456 34.02 143.412 34.832 143.412 35.68C143.412 36.528 143.456 37.344 143.544 38.128C143.64 38.912 143.784 39.684 143.976 40.444L142.572 40.66ZM158.184 37.372C158.184 37.036 158.22 36.72 158.292 36.424C158.364 36.128 158.496 35.844 158.688 35.572C158.88 35.292 159.148 35.032 159.492 34.792C159.764 34.6 159.984 34.424 160.152 34.264C160.32 34.104 160.436 33.948 160.5 33.796C160.572 33.644 160.608 33.492 160.608 33.34C160.608 33.028 160.468 32.804 160.188 32.668C159.916 32.524 159.48 32.452 158.88 32.452C158.456 32.452 158.036 32.488 157.62 32.56C157.204 32.624 156.768 32.732 156.312 32.884L156 31.576C156.456 31.432 156.952 31.32 157.488 31.24C158.024 31.16 158.556 31.12 159.084 31.12C161.148 31.12 162.18 31.788 162.18 33.124C162.18 33.428 162.128 33.708 162.024 33.964C161.928 34.212 161.768 34.456 161.544 34.696C161.32 34.936 161.024 35.184 160.656 35.44C160.416 35.608 160.224 35.796 160.08 36.004C159.936 36.212 159.836 36.432 159.78 36.664C159.724 36.896 159.688 37.132 159.672 37.372H158.184ZM158.076 40V38.368H159.78V40H158.076Z" fill="white"/>
</g>
<g filter="url(#filter1_d_122_1160)">
<rect x="196" y="58" width="91" height="29" fill="#128FCD" fill-opacity="0.2" shape-rendering="crispEdges"/>
<rect x="197" y="59" width="89" height="27" stroke="#48BCCB" stroke-opacity="0.5" stroke-width="2" shape-rendering="crispEdges"/>
</g>
<path d="M230.136 79.464C229.592 79.464 229.091 79.2987 228.632 78.968C228.173 78.6267 227.773 78.152 227.432 77.544C227.091 76.936 226.824 76.2213 226.632 75.4C226.451 74.568 226.36 73.672 226.36 72.712C226.36 71.9333 226.424 71.112 226.552 70.248C226.691 69.3733 226.899 68.456 227.176 67.496L229.048 67.72C228.803 68.6053 228.616 69.448 228.488 70.248C228.36 71.048 228.296 71.8 228.296 72.504C228.296 73.176 228.349 73.8107 228.456 74.408C228.563 75.0053 228.707 75.528 228.888 75.976C229.08 76.424 229.293 76.776 229.528 77.032C229.773 77.288 230.029 77.416 230.296 77.416C230.552 77.416 230.829 77.3093 231.128 77.096C231.437 76.872 231.752 76.5733 232.072 76.2C232.392 75.8267 232.691 75.4 232.968 74.92C233.256 74.44 233.496 73.9387 233.688 73.416L235.4 74.28C235.133 75.0053 234.803 75.6827 234.408 76.312C234.013 76.9413 233.576 77.496 233.096 77.976C232.627 78.4453 232.136 78.808 231.624 79.064C231.112 79.3307 230.616 79.464 230.136 79.464ZM238.168 77.912C238.168 76.696 238.083 75.4853 237.912 74.28C237.752 73.0747 237.512 71.9173 237.192 70.808C236.883 69.6987 236.509 68.68 236.072 67.752L237.848 67.224C238.339 68.1947 238.744 69.256 239.064 70.408C239.395 71.5493 239.645 72.7547 239.816 74.024C239.997 75.2827 240.088 76.5787 240.088 77.912H238.168ZM249.736 79.848C248.435 79.848 247.304 79.72 246.344 79.464C245.395 79.208 244.664 78.8507 244.152 78.392C243.64 77.9227 243.384 77.368 243.384 76.728C243.384 76.1733 243.571 75.656 243.944 75.176C244.317 74.696 244.84 74.3013 245.512 73.992L246.776 75.112C246.296 75.3467 245.949 75.5813 245.736 75.816C245.523 76.04 245.421 76.2907 245.432 76.568C245.443 76.92 245.608 77.2187 245.928 77.464C246.248 77.6987 246.717 77.88 247.336 78.008C247.965 78.136 248.723 78.2 249.608 78.2C250.387 78.2 251.203 78.1467 252.056 78.04C252.92 77.9333 253.725 77.7947 254.472 77.624L254.744 79.288C253.976 79.4693 253.16 79.608 252.296 79.704C251.432 79.8 250.579 79.848 249.736 79.848ZM242.648 73.144V71.576L255.352 71.256V72.824L242.648 73.144ZM251.288 76.456C250.936 75.6347 250.621 74.8027 250.344 73.96C250.067 73.1173 249.827 72.2693 249.624 71.416C249.432 70.552 249.272 69.672 249.144 68.776C249.016 67.8693 248.925 66.9467 248.872 66.008L250.776 65.896C250.829 66.8027 250.915 67.6827 251.032 68.536C251.16 69.3893 251.32 70.2267 251.512 71.048C251.704 71.8693 251.939 72.696 252.216 73.528C252.504 74.3493 252.835 75.1813 253.208 76.024L251.288 76.456ZM242.808 69.608V68.04L255.192 67.72V69.288L242.808 69.608Z" fill="white"/>
<g filter="url(#filter2_d_122_1160)">
<rect x="6" y="113" width="91" height="29" fill="#128FCD" fill-opacity="0.2" shape-rendering="crispEdges"/>
<rect x="7" y="114" width="89" height="27" stroke="#48BCCB" stroke-opacity="0.5" stroke-width="2" shape-rendering="crispEdges"/>
</g>
<path d="M43.736 134.72C42.616 134.72 41.6987 134.661 40.984 134.544C40.2693 134.437 39.7093 134.24 39.304 133.952C38.9093 133.664 38.632 133.264 38.472 132.752C38.3227 132.229 38.248 131.563 38.248 130.752V121.584H40.136V130.752C40.136 131.253 40.1787 131.653 40.264 131.952C40.36 132.251 40.5307 132.48 40.776 132.64C41.0213 132.8 41.3787 132.907 41.848 132.96C42.328 133.013 42.9573 133.04 43.736 133.04C44.536 133.04 45.3893 133.019 46.296 132.976C47.2027 132.923 48.0827 132.848 48.936 132.752L49.08 134.432C48.2053 134.528 47.2987 134.597 46.36 134.64C45.4213 134.693 44.5467 134.72 43.736 134.72ZM35.448 125.856V124.24L50.552 123.92V125.536L35.448 125.856ZM45.992 130.752C45.6613 130.752 45.2827 130.725 44.856 130.672C44.4293 130.608 43.992 130.523 43.544 130.416C43.1067 130.299 42.68 130.171 42.264 130.032L42.712 128.368C43.2347 128.517 43.6613 128.635 43.992 128.72C44.3333 128.795 44.616 128.848 44.84 128.88C45.0747 128.912 45.2827 128.928 45.464 128.928C45.6347 128.928 45.7413 128.891 45.784 128.816C45.8267 128.731 45.848 128.501 45.848 128.128V121.264H47.752V128.752C47.752 129.253 47.6987 129.653 47.592 129.952C47.4853 130.24 47.304 130.448 47.048 130.576C46.792 130.693 46.44 130.752 45.992 130.752ZM59.736 134.848C58.4347 134.848 57.304 134.72 56.344 134.464C55.3947 134.208 54.664 133.851 54.152 133.392C53.64 132.923 53.384 132.368 53.384 131.728C53.384 131.173 53.5707 130.656 53.944 130.176C54.3173 129.696 54.84 129.301 55.512 128.992L56.776 130.112C56.296 130.347 55.9493 130.581 55.736 130.816C55.5227 131.04 55.4213 131.291 55.432 131.568C55.4427 131.92 55.608 132.219 55.928 132.464C56.248 132.699 56.7173 132.88 57.336 133.008C57.9653 133.136 58.7227 133.2 59.608 133.2C60.3867 133.2 61.2027 133.147 62.056 133.04C62.92 132.933 63.7253 132.795 64.472 132.624L64.744 134.288C63.976 134.469 63.16 134.608 62.296 134.704C61.432 134.8 60.5787 134.848 59.736 134.848ZM52.648 128.144V126.576L65.352 126.256V127.824L52.648 128.144ZM61.288 131.456C60.936 130.635 60.6213 129.803 60.344 128.96C60.0667 128.117 59.8267 127.269 59.624 126.416C59.432 125.552 59.272 124.672 59.144 123.776C59.016 122.869 58.9253 121.947 58.872 121.008L60.776 120.896C60.8293 121.803 60.9147 122.683 61.032 123.536C61.16 124.389 61.32 125.227 61.512 126.048C61.704 126.869 61.9387 127.696 62.216 128.528C62.504 129.349 62.8347 130.181 63.208 131.024L61.288 131.456ZM52.808 124.608V123.04L65.192 122.72V124.288L52.808 124.608Z" fill="white"/>
<g filter="url(#filter3_d_122_1160)">
<rect x="40" y="62" width="91" height="29" fill="#128FCD" fill-opacity="0.2" shape-rendering="crispEdges"/>
<rect x="41" y="63" width="89" height="27" stroke="#48BCCB" stroke-opacity="0.5" stroke-width="2" shape-rendering="crispEdges"/>
</g>
<path d="M78.872 83.752C77.9227 83.752 77.128 83.688 76.488 83.56C75.848 83.4427 75.3467 83.24 74.984 82.952C74.6213 82.6533 74.36 82.2533 74.2 81.752C74.0507 81.24 73.976 80.5947 73.976 79.816C73.976 79.5707 73.9813 79.1973 73.992 78.696C74.0027 78.184 74.0187 77.5867 74.04 76.904C74.0613 76.2213 74.0827 75.496 74.104 74.728C74.136 73.9493 74.168 73.1653 74.2 72.376C74.232 71.5867 74.264 70.8293 74.296 70.104L76.2 70.152C76.168 70.792 76.136 71.48 76.104 72.216C76.072 72.952 76.04 73.688 76.008 74.424C75.9867 75.16 75.9653 75.8587 75.944 76.52C75.9227 77.1813 75.9067 77.7733 75.896 78.296C75.8853 78.808 75.88 79.208 75.88 79.496C75.88 80.04 75.9173 80.4773 75.992 80.808C76.0667 81.1387 76.2107 81.3947 76.424 81.576C76.6373 81.7573 76.9413 81.88 77.336 81.944C77.7413 82.008 78.2533 82.04 78.872 82.04C79.7147 82.04 80.376 81.9867 80.856 81.88C81.3467 81.7627 81.688 81.576 81.88 81.32C82.0827 81.0533 82.184 80.696 82.184 80.248C82.184 80.056 82.1627 79.8267 82.12 79.56C82.0773 79.2933 82.0293 79.0693 81.976 78.888L83.832 78.488C83.928 78.872 83.992 79.2027 84.024 79.48C84.0667 79.7573 84.088 80.0347 84.088 80.312C84.088 81.112 83.9067 81.768 83.544 82.28C83.1813 82.792 82.616 83.1653 81.848 83.4C81.08 83.6347 80.088 83.752 78.872 83.752ZM70.008 77.832V76.216H82.696V77.832H70.008ZM70.328 73.656V72.04H82.376V73.656H70.328ZM88.408 82.04C90.4667 82.04 92.1253 81.864 93.384 81.512C94.6533 81.16 95.5707 80.5893 96.136 79.8C96.712 79 97 77.9707 97 76.712C97 75.432 96.728 74.4773 96.184 73.848C95.6507 73.208 94.8293 72.888 93.72 72.888C93.1013 72.888 92.52 72.9893 91.976 73.192C91.4427 73.3947 90.9733 73.6827 90.568 74.056C90.1627 74.4293 89.8373 74.872 89.592 75.384C89.3573 75.896 89.24 76.4613 89.24 77.08V79.176H87.384V70.76H89.24V74.168H88.52C88.904 73.5067 89.3573 72.9467 89.88 72.488C90.4133 72.0293 91.016 71.6827 91.688 71.448C92.3707 71.2027 93.112 71.08 93.912 71.08C95.544 71.08 96.792 71.5653 97.656 72.536C98.5307 73.496 98.968 74.888 98.968 76.712C98.968 78.3547 98.5947 79.6987 97.848 80.744C97.112 81.7893 95.976 82.5573 94.44 83.048C92.904 83.5493 90.9253 83.8 88.504 83.8L88.408 82.04Z" fill="white"/>
<g filter="url(#filter4_d_122_1160)">
<rect x="124" y="149" width="91" height="29" fill="#128FCD" fill-opacity="0.2" shape-rendering="crispEdges"/>
<rect x="125" y="150" width="89" height="27" stroke="#48BCCB" stroke-opacity="0.5" stroke-width="2" shape-rendering="crispEdges"/>
</g>
<path d="M163.672 170.192C163.096 170.192 162.488 170.139 161.848 170.032C161.219 169.925 160.616 169.776 160.04 169.584L160.392 167.936C160.925 168.085 161.496 168.208 162.104 168.304C162.712 168.389 163.235 168.432 163.672 168.432C164.344 168.432 164.867 168.32 165.24 168.096C165.624 167.872 165.901 167.488 166.072 166.944C166.243 166.4 166.328 165.653 166.328 164.704C166.328 163.349 166.099 162.352 165.64 161.712C165.192 161.061 164.488 160.736 163.528 160.736C163.123 160.736 162.717 160.805 162.312 160.944C161.917 161.072 161.491 161.28 161.032 161.568C160.584 161.856 160.088 162.256 159.544 162.768C159 163.269 158.376 163.893 157.672 164.64H157.528C157.112 165.131 156.664 165.68 156.184 166.288C155.715 166.896 155.208 167.573 154.664 168.32L153.56 166.752C154.563 165.536 155.459 164.491 156.248 163.616C157.048 162.731 157.773 161.989 158.424 161.392C159.075 160.795 159.683 160.325 160.248 159.984C160.813 159.632 161.357 159.381 161.88 159.232C162.413 159.072 162.963 158.992 163.528 158.992C165.096 158.992 166.269 159.472 167.048 160.432C167.837 161.381 168.232 162.805 168.232 164.704C168.232 166.624 167.869 168.021 167.144 168.896C166.419 169.76 165.261 170.192 163.672 170.192ZM156.52 171.072V161.376H153.448V159.744H156.52V157.408H158.376V171.072H156.52ZM176.712 170.832C175.496 170.832 174.499 170.64 173.72 170.256C172.952 169.883 172.381 169.301 172.008 168.512C171.645 167.723 171.464 166.709 171.464 165.472V157.68H173.416V165.472C173.416 166.72 173.677 167.627 174.2 168.192C174.723 168.747 175.56 169.024 176.712 169.024C177.555 169.024 178.296 168.869 178.936 168.56C179.587 168.251 180.173 167.749 180.696 167.056C181.229 166.352 181.741 165.419 182.232 164.256L184.008 164.976C183.581 166.043 183.123 166.949 182.632 167.696C182.152 168.432 181.624 169.035 181.048 169.504C180.483 169.963 179.843 170.299 179.128 170.512C178.413 170.725 177.608 170.832 176.712 170.832Z" fill="white"/>
<g filter="url(#filter5_d_122_1160)">
<rect x="154" y="103" width="91" height="29" fill="#128FCD" fill-opacity="0.2" shape-rendering="crispEdges"/>
<rect x="155" y="104" width="89" height="27" stroke="#48BCCB" stroke-opacity="0.5" stroke-width="2" shape-rendering="crispEdges"/>
</g>
<path d="M184.392 124.672C184.84 123.232 185.245 121.771 185.608 120.288C185.981 118.795 186.307 117.28 186.584 115.744C186.872 114.197 187.117 112.64 187.32 111.072L189.224 111.152C189.043 112.688 188.808 114.24 188.52 115.808C188.243 117.376 187.917 118.933 187.544 120.48C187.171 122.016 186.755 123.525 186.296 125.008L184.392 124.672ZM194.312 124.688C193.341 124.688 192.499 124.571 191.784 124.336C191.069 124.112 190.515 123.797 190.12 123.392C189.725 122.976 189.528 122.48 189.528 121.904C189.528 121.477 189.672 121.056 189.96 120.64C190.248 120.224 190.691 119.792 191.288 119.344L192.728 120.368C192.323 120.624 192.019 120.864 191.816 121.088C191.624 121.301 191.528 121.515 191.528 121.728C191.528 121.973 191.64 122.192 191.864 122.384C192.099 122.565 192.424 122.709 192.84 122.816C193.267 122.923 193.757 122.976 194.312 122.976C194.813 122.976 195.325 122.949 195.848 122.896C196.371 122.843 196.915 122.763 197.48 122.656L197.688 124.368C197.101 124.475 196.536 124.555 195.992 124.608C195.448 124.661 194.888 124.688 194.312 124.688ZM184.168 114.736V113.072H195.432V114.736H184.168ZM190.152 116.544C191.411 116.427 192.643 116.336 193.848 116.272C195.064 116.208 196.28 116.176 197.496 116.176V117.856C196.301 117.856 195.101 117.888 193.896 117.952C192.701 118.005 191.491 118.101 190.264 118.24L190.152 116.544ZM207.464 124.368C207.197 124.368 206.856 124.331 206.44 124.256C206.024 124.192 205.587 124.101 205.128 123.984C204.669 123.856 204.237 123.717 203.832 123.568L204.264 121.952C204.605 122.059 204.947 122.165 205.288 122.272C205.64 122.368 205.96 122.448 206.248 122.512C206.547 122.565 206.781 122.592 206.952 122.592C207.293 122.592 207.576 122.437 207.8 122.128C208.024 121.808 208.189 121.312 208.296 120.64C208.413 119.957 208.472 119.083 208.472 118.016C208.472 117.397 208.445 116.901 208.392 116.528C208.349 116.144 208.264 115.856 208.136 115.664C208.008 115.472 207.811 115.344 207.544 115.28C207.277 115.216 206.92 115.184 206.472 115.184H199.656V113.52H206.28C207.027 113.52 207.645 113.552 208.136 113.616C208.627 113.669 209.021 113.781 209.32 113.952C209.619 114.123 209.843 114.384 209.992 114.736C210.152 115.077 210.253 115.536 210.296 116.112C210.349 116.677 210.376 117.387 210.376 118.24C210.376 119.627 210.269 120.773 210.056 121.68C209.853 122.587 209.539 123.264 209.112 123.712C208.685 124.149 208.136 124.368 207.464 124.368ZM199.848 124.192C200.243 123.179 200.595 122.245 200.904 121.392C201.213 120.528 201.491 119.701 201.736 118.912C201.992 118.123 202.221 117.323 202.424 116.512C202.637 115.701 202.835 114.837 203.016 113.92C203.197 113.003 203.379 111.989 203.56 110.88L205.416 111.088C205.245 112.155 205.069 113.152 204.888 114.08C204.707 114.997 204.504 115.883 204.28 116.736C204.067 117.579 203.827 118.421 203.56 119.264C203.304 120.107 203.011 120.976 202.68 121.872C202.36 122.768 201.997 123.728 201.592 124.752L199.848 124.192ZM212.872 121.248C212.776 120.608 212.648 119.925 212.488 119.2C212.328 118.475 212.147 117.744 211.944 117.008C211.741 116.272 211.528 115.563 211.304 114.88C211.08 114.187 210.851 113.552 210.616 112.976L212.408 112.464C212.653 113.061 212.888 113.707 213.112 114.4C213.336 115.093 213.549 115.808 213.752 116.544C213.955 117.28 214.136 118.016 214.296 118.752C214.456 119.477 214.589 120.171 214.696 120.832L212.872 121.248Z" fill="white"/>
<defs>
<filter id="filter0_d_122_1160" x="41" y="0" width="214" height="45.104" filterUnits="userSpaceOnUse" color-interpolation-filters="sRGB">
<feFlood flood-opacity="0" result="BackgroundImageFix"/>
<feColorMatrix in="SourceAlpha" type="matrix" values="0 0 0 0 0 0 0 0 0 0 0 0 0 0 0 0 0 0 127 0" result="hardAlpha"/>
<feOffset/>
<feGaussianBlur stdDeviation="2"/>
<feComposite in2="hardAlpha" operator="out"/>
<feColorMatrix type="matrix" values="0 0 0 0 1 0 0 0 0 1 0 0 0 0 1 0 0 0 0.6 0"/>
<feBlend mode="normal" in2="BackgroundImageFix" result="effect1_dropShadow_122_1160"/>
<feBlend mode="normal" in="SourceGraphic" in2="effect1_dropShadow_122_1160" result="shape"/>
</filter>
<filter id="filter1_d_122_1160" x="190" y="52" width="103" height="41" filterUnits="userSpaceOnUse" color-interpolation-filters="sRGB">
<feFlood flood-opacity="0" result="BackgroundImageFix"/>
<feColorMatrix in="SourceAlpha" type="matrix" values="0 0 0 0 0 0 0 0 0 0 0 0 0 0 0 0 0 0 127 0" result="hardAlpha"/>
<feOffset/>
<feGaussianBlur stdDeviation="3"/>
<feComposite in2="hardAlpha" operator="out"/>
<feColorMatrix type="matrix" values="0 0 0 0 0.282353 0 0 0 0 0.737255 0 0 0 0 0.796078 0 0 0 0.25 0"/>
<feBlend mode="normal" in2="BackgroundImageFix" result="effect1_dropShadow_122_1160"/>
<feBlend mode="normal" in="SourceGraphic" in2="effect1_dropShadow_122_1160" result="shape"/>
</filter>
<filter id="filter2_d_122_1160" x="0" y="107" width="103" height="41" filterUnits="userSpaceOnUse" color-interpolation-filters="sRGB">
<feFlood flood-opacity="0" result="BackgroundImageFix"/>
<feColorMatrix in="SourceAlpha" type="matrix" values="0 0 0 0 0 0 0 0 0 0 0 0 0 0 0 0 0 0 127 0" result="hardAlpha"/>
<feOffset/>
<feGaussianBlur stdDeviation="3"/>
<feComposite in2="hardAlpha" operator="out"/>
<feColorMatrix type="matrix" values="0 0 0 0 0.282353 0 0 0 0 0.737255 0 0 0 0 0.796078 0 0 0 0.25 0"/>
<feBlend mode="normal" in2="BackgroundImageFix" result="effect1_dropShadow_122_1160"/>
<feBlend mode="normal" in="SourceGraphic" in2="effect1_dropShadow_122_1160" result="shape"/>
</filter>
<filter id="filter3_d_122_1160" x="34" y="56" width="103" height="41" filterUnits="userSpaceOnUse" color-interpolation-filters="sRGB">
<feFlood flood-opacity="0" result="BackgroundImageFix"/>
<feColorMatrix in="SourceAlpha" type="matrix" values="0 0 0 0 0 0 0 0 0 0 0 0 0 0 0 0 0 0 127 0" result="hardAlpha"/>
<feOffset/>
<feGaussianBlur stdDeviation="3"/>
<feComposite in2="hardAlpha" operator="out"/>
<feColorMatrix type="matrix" values="0 0 0 0 0.282353 0 0 0 0 0.737255 0 0 0 0 0.796078 0 0 0 0.25 0"/>
<feBlend mode="normal" in2="BackgroundImageFix" result="effect1_dropShadow_122_1160"/>
<feBlend mode="normal" in="SourceGraphic" in2="effect1_dropShadow_122_1160" result="shape"/>
</filter>
<filter id="filter4_d_122_1160" x="118" y="143" width="103" height="41" filterUnits="userSpaceOnUse" color-interpolation-filters="sRGB">
<feFlood flood-opacity="0" result="BackgroundImageFix"/>
<feColorMatrix in="SourceAlpha" type="matrix" values="0 0 0 0 0 0 0 0 0 0 0 0 0 0 0 0 0 0 127 0" result="hardAlpha"/>
<feOffset/>
<feGaussianBlur stdDeviation="3"/>
<feComposite in2="hardAlpha" operator="out"/>
<feColorMatrix type="matrix" values="0 0 0 0 0.282353 0 0 0 0 0.737255 0 0 0 0 0.796078 0 0 0 0.25 0"/>
<feBlend mode="normal" in2="BackgroundImageFix" result="effect1_dropShadow_122_1160"/>
<feBlend mode="normal" in="SourceGraphic" in2="effect1_dropShadow_122_1160" result="shape"/>
</filter>
<filter id="filter5_d_122_1160" x="148" y="97" width="103" height="41" filterUnits="userSpaceOnUse" color-interpolation-filters="sRGB">
<feFlood flood-opacity="0" result="BackgroundImageFix"/>
<feColorMatrix in="SourceAlpha" type="matrix" values="0 0 0 0 0 0 0 0 0 0 0 0 0 0 0 0 0 0 127 0" result="hardAlpha"/>
<feOffset/>
<feGaussianBlur stdDeviation="3"/>
<feComposite in2="hardAlpha" operator="out"/>
<feColorMatrix type="matrix" values="0 0 0 0 0.282353 0 0 0 0 0.737255 0 0 0 0 0.796078 0 0 0 0.25 0"/>
<feBlend mode="normal" in2="BackgroundImageFix" result="effect1_dropShadow_122_1160"/>
<feBlend mode="normal" in="SourceGraphic" in2="effect1_dropShadow_122_1160" result="shape"/>
</filter>
</defs>
</svg>
