<svg width="317" height="188" viewBox="0 0 317 188" fill="none" xmlns="http://www.w3.org/2000/svg">
<g filter="url(#filter0_d_122_1164)">
<rect x="102" y="5" width="64" height="17" stroke="white" stroke-width="2"/>
<rect x="172" y="5" width="64" height="17" stroke="white" stroke-width="2"/>
<rect x="32" y="5" width="64" height="17" stroke="white" stroke-width="2"/>
<path d="M242.916 18.372V17.1H240.672V16.08H242.916V15.276L242.94 15.156V12.3L242.916 12.228V11.376H240.576V10.356H242.916V9.264H244.344V10.356H246.468V11.376H244.344V12.204L244.332 12.3V15.156L244.344 15.336V16.08H246.312V17.1H244.344V18.372H242.916ZM240.528 18.96L240.456 17.832C240.904 17.816 241.372 17.796 241.86 17.772C242.356 17.74 242.856 17.704 243.36 17.664C243.864 17.616 244.36 17.572 244.848 17.532C245.336 17.492 245.796 17.444 246.228 17.388L246.312 18.444C245.712 18.532 245.08 18.608 244.416 18.672C243.76 18.736 243.1 18.792 242.436 18.84C241.772 18.888 241.136 18.928 240.528 18.96ZM240.84 15.576V11.892H246.336V15.576H242.1V14.628H245.148V14.088H242.1V13.368H245.148V12.828H242.1V15.576H240.84ZM246.924 19.056L245.82 18.336C246.06 17.984 246.272 17.604 246.456 17.196C246.648 16.78 246.812 16.308 246.948 15.78C247.084 15.252 247.196 14.636 247.284 13.932C247.372 13.228 247.436 12.412 247.476 11.484C247.516 10.548 247.536 9.464 247.536 8.232H248.844C248.844 9.496 248.82 10.62 248.772 11.604C248.724 12.588 248.652 13.456 248.556 14.208C248.46 14.96 248.336 15.624 248.184 16.2C248.032 16.776 247.852 17.296 247.644 17.76C247.444 18.216 247.204 18.648 246.924 19.056ZM249.876 18.852C249.724 18.852 249.492 18.836 249.18 18.804C248.876 18.78 248.564 18.752 248.244 18.72L248.22 17.436C248.524 17.476 248.776 17.508 248.976 17.532C249.176 17.548 249.34 17.556 249.468 17.556C249.532 17.556 249.592 17.528 249.648 17.472C249.712 17.408 249.764 17.284 249.804 17.1C249.852 16.908 249.888 16.628 249.912 16.26C249.944 15.884 249.968 15.384 249.984 14.76C250 14.136 250.008 13.356 250.008 12.42V11.832H246.288V10.632H251.412V11.484C251.412 12.652 251.404 13.644 251.388 14.46C251.372 15.276 251.344 15.956 251.304 16.5C251.264 17.044 251.204 17.476 251.124 17.796C251.052 18.108 250.96 18.336 250.848 18.48C250.736 18.632 250.6 18.732 250.44 18.78C250.288 18.828 250.1 18.852 249.876 18.852ZM240.816 9.912L240.756 8.808C241.188 8.792 241.644 8.768 242.124 8.736C242.604 8.704 243.088 8.664 243.576 8.616C244.072 8.568 244.548 8.516 245.004 8.46C245.468 8.404 245.896 8.344 246.288 8.28L246.444 9.408C245.908 9.488 245.316 9.564 244.668 9.636C244.028 9.708 243.376 9.768 242.712 9.816C242.056 9.864 241.424 9.896 240.816 9.912ZM261.924 18.948C261.78 18.948 261.576 18.944 261.312 18.936C261.056 18.928 260.784 18.916 260.496 18.9C260.216 18.884 259.956 18.872 259.716 18.864L259.656 17.616C259.96 17.64 260.264 17.66 260.568 17.676C260.872 17.684 261.108 17.688 261.276 17.688C261.364 17.688 261.44 17.648 261.504 17.568C261.576 17.48 261.636 17.312 261.684 17.064C261.74 16.808 261.788 16.428 261.828 15.924C261.876 15.412 261.916 14.736 261.948 13.896C261.988 13.048 262.024 11.984 262.056 10.704H258.048V9.468H263.388C263.364 10.972 263.336 12.252 263.304 13.308C263.272 14.364 263.232 15.24 263.184 15.936C263.136 16.624 263.076 17.176 263.004 17.592C262.932 18 262.844 18.3 262.74 18.492C262.644 18.684 262.528 18.808 262.392 18.864C262.256 18.92 262.1 18.948 261.924 18.948ZM252.516 15.912L252.384 14.712C253.168 14.576 253.932 14.42 254.676 14.244C255.428 14.06 256.164 13.856 256.884 13.632L256.992 14.832C256.264 15.064 255.528 15.268 254.784 15.444C254.048 15.62 253.292 15.776 252.516 15.912ZM254.328 19.104V11.28H253.368V10.08H254.328V8.256H255.708V10.08H256.824V11.28H255.708V19.104H254.328ZM253.404 13.488L252.276 13.224C252.42 12.576 252.552 11.872 252.672 11.112C252.792 10.352 252.88 9.56 252.936 8.736L254.076 8.808C254.02 9.696 253.936 10.528 253.824 11.304C253.72 12.08 253.58 12.808 253.404 13.488ZM257.748 19.08L256.908 18.084C257.684 17.524 258.384 16.848 259.008 16.056C259.632 15.264 260.164 14.384 260.604 13.416C261.052 12.44 261.392 11.404 261.624 10.308L262.632 10.716C262.48 11.588 262.252 12.436 261.948 13.26C261.652 14.076 261.292 14.848 260.868 15.576C260.444 16.296 259.968 16.956 259.44 17.556C258.912 18.148 258.348 18.656 257.748 19.08ZM257.124 16.512L256.284 15.516C256.788 15.108 257.256 14.62 257.688 14.052C258.12 13.476 258.5 12.84 258.828 12.144C259.164 11.448 259.436 10.712 259.644 9.936L260.796 10.32C260.572 11.168 260.272 11.984 259.896 12.768C259.52 13.552 259.096 14.264 258.624 14.904C258.152 15.544 257.652 16.08 257.124 16.512ZM256.848 13.5L255.984 12.564C256.296 12.196 256.588 11.776 256.86 11.304C257.132 10.824 257.376 10.308 257.592 9.756C257.816 9.204 257.996 8.64 258.132 8.064L259.44 8.22C259.264 8.9 259.04 9.568 258.768 10.224C258.504 10.88 258.204 11.488 257.868 12.048C257.54 12.608 257.2 13.092 256.848 13.5ZM270.504 18.444C269.64 18.444 268.964 18.252 268.476 17.868C267.996 17.476 267.756 16.932 267.756 16.236C267.756 15.524 267.996 14.976 268.476 14.592C268.956 14.208 269.632 14.016 270.504 14.016C270.88 14.016 271.244 14.064 271.596 14.16C271.948 14.248 272.312 14.408 272.688 14.64C273.064 14.872 273.484 15.192 273.948 15.6C274.42 16 274.972 16.512 275.604 17.136L274.716 18.084C274.148 17.508 273.656 17.036 273.24 16.668C272.832 16.292 272.472 16 272.16 15.792C271.848 15.584 271.552 15.44 271.272 15.36C271 15.272 270.72 15.228 270.432 15.228C269.504 15.228 269.04 15.564 269.04 16.236C269.04 16.9 269.504 17.232 270.432 17.232C270.936 17.232 271.292 17.128 271.5 16.92C271.716 16.704 271.824 16.352 271.824 15.864V8.448H273.216V15.924C273.216 16.764 272.984 17.396 272.52 17.82C272.064 18.236 271.392 18.444 270.504 18.444ZM267.792 11.544V10.332H275.424V11.544H267.792ZM265.572 18.66C265.364 17.836 265.212 17.024 265.116 16.224C265.02 15.424 264.972 14.576 264.972 13.68C264.972 12.792 265.02 11.952 265.116 11.16C265.212 10.36 265.36 9.548 265.56 8.724L266.976 8.904C266.784 9.68 266.64 10.46 266.544 11.244C266.456 12.02 266.412 12.832 266.412 13.68C266.412 14.528 266.456 15.344 266.544 16.128C266.64 16.912 266.784 17.684 266.976 18.444L265.572 18.66ZM281.184 15.372C281.184 15.036 281.22 14.72 281.292 14.424C281.364 14.128 281.496 13.844 281.688 13.572C281.88 13.292 282.148 13.032 282.492 12.792C282.764 12.6 282.984 12.424 283.152 12.264C283.32 12.104 283.436 11.948 283.5 11.796C283.572 11.644 283.608 11.492 283.608 11.34C283.608 11.028 283.468 10.804 283.188 10.668C282.916 10.524 282.48 10.452 281.88 10.452C281.456 10.452 281.036 10.488 280.62 10.56C280.204 10.624 279.768 10.732 279.312 10.884L279 9.576C279.456 9.432 279.952 9.32 280.488 9.24C281.024 9.16 281.556 9.12 282.084 9.12C284.148 9.12 285.18 9.788 285.18 11.124C285.18 11.428 285.128 11.708 285.024 11.964C284.928 12.212 284.768 12.456 284.544 12.696C284.32 12.936 284.024 13.184 283.656 13.44C283.416 13.608 283.224 13.796 283.08 14.004C282.936 14.212 282.836 14.432 282.78 14.664C282.724 14.896 282.688 15.132 282.672 15.372H281.184ZM281.076 18V16.368H282.78V18H281.076Z" fill="white"/>
</g>
<g filter="url(#filter1_d_122_1164)">
<rect x="37" y="50.5835" width="120" height="29" transform="rotate(-8.42584 37 50.5835)" fill="#128FCD" fill-opacity="0.2" shape-rendering="crispEdges"/>
<rect x="38.1357" y="51.4262" width="118" height="27" transform="rotate(-8.42584 38.1357 51.4262)" stroke="#48BCCB" stroke-opacity="0.5" stroke-width="2" shape-rendering="crispEdges"/>
</g>
<path d="M48.8848 71.5241L47.1452 59.7802L57.3854 58.2633L59.125 70.0072L57.2574 70.2838L57.1191 69.35L50.5507 70.323L50.3233 68.7877L56.8917 67.8148L56.4204 64.6335L54.0147 64.9899L54.4859 68.1711L52.7133 68.4337L52.242 65.2524L49.8521 65.6064L49.6247 64.0712L52.0146 63.7172L50.9455 56.4999L52.7498 56.2327L53.8189 63.4499L56.193 63.0982L55.7523 60.1227L49.1839 61.0957L50.6891 71.2568L48.8848 71.5241ZM46.5077 71.7468L44.8547 71.0697C45.1224 70.3291 45.3581 69.5178 45.5617 68.6358C45.7758 67.7522 45.9373 66.8765 46.0459 66.0085L47.7019 66.3778C47.6433 67.0012 47.553 67.6292 47.4311 68.2619C47.3091 68.8946 47.1682 69.5085 47.0084 70.1037C46.8591 70.6973 46.6922 71.245 46.5077 71.7468ZM46.3519 64.7986C45.8916 64.457 45.3996 64.1202 44.8759 63.788C44.3613 63.4437 43.8263 63.1078 43.2709 62.7803L44.1667 61.4021C44.731 61.7175 45.2697 62.0421 45.7828 62.3759C46.2943 62.699 46.7803 63.0314 47.2406 63.373L46.3519 64.7986ZM46.0917 60.8582C45.6799 60.5526 45.2416 60.2509 44.7769 59.9531C44.3213 59.6432 43.84 59.3425 43.3332 59.0509L44.2541 57.7337C44.7594 58.0147 45.2444 58.3041 45.709 58.6019C46.1737 58.8997 46.6059 59.1969 47.0057 59.4936L46.0917 60.8582ZM62.012 69.5148C61.896 69.532 61.7264 69.5518 61.5032 69.574C61.2801 69.5963 61.0132 69.6143 60.7025 69.628L60.3983 68.1203C60.6863 68.0992 60.9215 68.0859 61.1041 68.0804C61.2955 68.0628 61.4335 68.0478 61.5179 68.0353C61.6023 68.0228 61.6588 68.0036 61.6873 67.9778C61.7248 67.9399 61.7411 67.8674 61.736 67.7604C61.7309 67.6533 61.7088 67.4679 61.6697 67.2041L60.5467 59.6228L59.0906 59.8385L58.8562 58.2557L60.3123 58.0401L59.9044 55.2861L61.7087 55.0188L62.1166 57.7728L63.4619 57.5735L63.6964 59.1562L62.3511 59.3555L63.4576 66.826C63.5389 67.3747 63.588 67.8149 63.6048 68.1467C63.6216 68.4785 63.5784 68.7329 63.4752 68.9099C63.3826 69.0854 63.218 69.2122 62.9816 69.2904C62.7573 69.3775 62.4341 69.4523 62.012 69.5148ZM59.9657 64.9818L59.5748 63.3252C60.0551 63.1462 60.5383 62.9506 61.0244 62.7384C61.5211 62.5247 62.0005 62.3027 62.4624 62.0725C62.9349 61.8408 63.3651 61.6153 63.7532 61.3961L63.9994 63.058C63.6219 63.2756 63.2029 63.5048 62.7426 63.7455C62.2822 63.9863 61.8142 64.2119 61.3386 64.4226C60.863 64.6332 60.4054 64.8196 59.9657 64.9818ZM65.1312 68.4058L64.0016 67.4409C64.4436 67.149 64.8794 66.8149 65.3089 66.4386C65.7368 66.0517 66.1405 65.6468 66.52 65.224C66.8994 64.8012 67.2359 64.3793 67.5294 63.9584C67.8319 63.5254 68.0742 63.1229 68.2563 62.7509L69.7335 63.1143C69.4545 63.7056 69.0723 64.3283 68.5869 64.9825C68.1015 65.6367 67.5587 66.267 66.9584 66.8736C66.3566 67.4695 65.7475 67.9803 65.1312 68.4058ZM64.3809 65.9614L63.2648 64.9783C63.7307 64.6289 64.1924 64.2155 64.65 63.738C65.1182 63.2588 65.535 62.7604 65.9004 62.2426C66.2764 61.7232 66.5613 61.2443 66.7551 60.8058L68.1198 61.283C67.9052 61.8001 67.5988 62.3522 67.2006 62.9396C66.8008 63.5164 66.3549 64.0731 65.8628 64.6096C65.3798 65.1341 64.8858 65.5847 64.3809 65.9614ZM68.6314 68.777L67.4115 67.8578C67.8035 67.5194 68.1884 67.1335 68.5663 66.7001C68.9532 66.2546 69.3098 65.7866 69.6362 65.2962C69.9625 64.8057 70.2413 64.3223 70.4727 63.8459C70.7146 63.368 70.8956 62.9153 71.0155 62.4877L72.4851 62.6906C72.364 63.183 72.1721 63.7074 71.9095 64.2639C71.6558 64.8083 71.3539 65.3544 71.0037 65.9023C70.6641 66.4486 70.2882 66.968 69.8759 67.4604C69.4757 67.9618 69.0609 68.4006 68.6314 68.777ZM72.8989 67.886C72.6456 67.9235 72.3494 67.962 72.0102 68.0015C71.6815 68.0394 71.3152 68.0775 70.9111 68.1158L70.5729 66.5969C70.8609 66.5758 71.1436 66.5555 71.4211 66.536C71.7076 66.5043 71.9299 66.4768 72.0882 66.4534C72.2676 66.4268 72.4006 66.3424 72.4874 66.2001C72.5832 66.0458 72.6216 65.7597 72.6029 65.3419C72.5931 64.9121 72.525 64.2698 72.3984 63.4151L72.3773 63.2727L65.7614 64.2527L65.5645 62.9232L73.9846 61.6759L74.1581 62.8471C74.3066 63.8495 74.3908 64.6727 74.4107 65.3168C74.4291 65.9502 74.3833 66.4423 74.2735 66.7928C74.1653 67.1539 73.9931 67.4112 73.7571 67.5648C73.5331 67.7274 73.2471 67.8344 72.8989 67.886ZM64.1594 62.5005L63.9531 61.1077L74.0826 59.6072L74.2889 61L64.1594 62.5005ZM64.4748 60.4805L63.673 55.0675L72.4255 53.771L73.2273 59.184L66.2791 60.2132L66.1056 59.042L71.1387 58.2964L71.0145 57.4576L65.9814 58.2031L65.8079 57.0319L70.841 56.2864L70.7238 55.495L65.6907 56.2405L66.2791 60.2132L64.4748 60.4805ZM81.305 64.3602C82.1323 64.1945 82.8201 64.0334 83.3684 63.8767C83.9272 63.7184 84.3645 63.5404 84.6803 63.3427C85.0051 63.1328 85.2368 62.8774 85.3755 62.5765C85.5248 62.274 85.5938 61.9026 85.5825 61.4622C85.5802 61.0096 85.5313 60.4615 85.436 59.8179L84.8757 56.0352L84.7807 56.0492L84.3001 52.8046L86.1835 52.5256L86.6641 55.7702L86.7591 55.7562L87.3194 59.5389C87.4445 60.383 87.4943 61.1197 87.4689 61.7489C87.4419 62.3675 87.3217 62.9029 87.1083 63.355C86.8949 63.8072 86.5749 64.1942 86.1481 64.5163C85.7214 64.8383 85.1639 65.1149 84.4757 65.3463C83.798 65.576 82.9778 65.7892 82.0148 65.9858L81.305 64.3602ZM77.7719 66.8245C77.3366 65.7784 76.9722 64.7379 76.6787 63.703C76.3958 62.6666 76.1668 61.5575 75.9918 60.3758C75.8183 59.2045 75.7175 58.0873 75.6894 57.0239C75.6597 55.95 75.7015 54.8493 75.8149 53.7219L77.7652 53.6756C77.6635 54.7366 77.626 55.7935 77.6525 56.8463C77.6775 57.8886 77.7729 58.9689 77.9385 60.0874C78.1042 61.2059 78.327 62.2727 78.6067 63.288C78.8865 64.3033 79.2273 65.2934 79.629 66.2583L77.7719 66.8245ZM79.4181 57.8464L79.172 56.1845L89.0482 54.7216L89.2944 56.3835L79.4181 57.8464ZM85.9836 54.1242C85.8136 53.6318 85.637 53.1673 85.4537 52.7308C85.2704 52.2943 85.0661 51.8609 84.8406 51.4306L86.2744 50.8462C86.5104 51.2749 86.7209 51.7128 86.9057 52.1599C87.0906 52.6069 87.265 53.0933 87.4292 53.6189L85.9836 54.1242ZM88.1578 53.6242C87.9968 53.1197 87.8247 52.6492 87.6414 52.2126C87.4687 51.7746 87.2696 51.3404 87.0441 50.9101L88.4826 50.3574C88.7081 50.7876 88.9088 51.2324 89.0846 51.6915C89.2695 52.1386 89.4379 52.6205 89.5899 53.1371L88.1578 53.6242ZM100.326 60.1031C100.145 58.8791 99.9283 57.9246 99.6759 57.2395C99.4324 56.5423 99.1192 56.0657 98.7362 55.8098C98.3638 55.5522 97.8874 55.4664 97.3071 55.5524C96.8006 55.6274 96.3279 55.8214 95.8891 56.1344C95.4608 56.4459 95.049 56.9059 94.6539 57.5143C94.2678 58.1107 93.8608 58.8934 93.4328 59.8626L91.7505 59.206C92.1577 58.3154 92.511 57.4975 92.8104 56.7522C93.1203 56.0054 93.3903 55.2807 93.6205 54.5781C93.8597 53.8633 94.0657 53.1427 94.2384 52.4162C94.4202 51.6776 94.5827 50.8825 94.7262 50.031L96.6384 50.055C96.4566 51.0848 96.2428 52.0438 95.997 52.9321C95.7496 53.8098 95.4645 54.6877 95.1417 55.5658L94.6768 55.3759C95.0973 55.0117 95.5604 54.7166 96.0661 54.4908C96.5808 54.2528 97.1072 54.0939 97.6454 54.0142C98.5211 53.8845 99.2541 53.9916 99.8442 54.3355C100.445 54.6778 100.936 55.3006 101.318 56.2037C101.698 57.0963 102.001 58.3023 102.226 59.8217L100.326 60.1031ZM100.644 63.3395C99.0192 63.5802 97.711 63.5205 96.7196 63.1606C95.7297 62.8112 95.1699 62.1986 95.0402 61.3228C94.9495 60.7109 95.0926 60.075 95.4693 59.4154C95.8445 58.7452 96.4309 58.0814 97.2285 57.4241C98.0367 56.7652 99.0252 56.1228 100.194 55.4968C101.374 54.8692 102.72 54.2761 104.233 53.7177L104.748 55.2266C103.49 55.6932 102.365 56.178 101.372 56.6809C100.39 57.1823 99.553 57.6836 98.8616 58.185C98.1793 58.6743 97.6673 59.1491 97.3258 59.6094C96.9842 60.0698 96.8416 60.4899 96.8978 60.8697C96.9635 61.3129 97.2999 61.6189 97.9072 61.7877C98.5235 61.9445 99.3645 61.9439 100.43 61.786C101.084 61.6891 101.806 61.5391 102.596 61.3359C103.383 61.1221 104.229 60.8621 105.133 60.5557L105.62 62.1009C105.096 62.2756 104.539 62.4444 103.949 62.6074C103.358 62.7703 102.776 62.9159 102.202 63.044C101.638 63.1707 101.119 63.2691 100.644 63.3395ZM90.9985 53.8019L90.7758 52.2983L103.39 50.4297L103.613 51.9333L90.9985 53.8019ZM114.507 61.8197L113.438 54.6025L111.175 54.9377L111.365 56.2198L121.114 54.7756L121.321 56.1684L108.279 58.1002L108.073 56.7074L109.592 56.4823L109.402 55.2003L107.25 55.5192L107.02 53.9681L109.172 53.6492L108.996 52.4622L107.319 52.7107L107.11 51.3021L120.468 49.3233L120.677 50.732L118.999 50.9805L119.595 55.0006L117.822 55.2632L117.227 51.2431L110.769 52.1996L110.945 53.3867L113.208 53.0514L112.608 48.9996L114.539 48.7136L115.139 52.7654L121.328 51.8487L121.557 53.3998L115.369 54.3165L116.438 61.5337L114.507 61.8197ZM108.745 62.4468L107.751 60.9766C109.138 60.2213 110.324 59.4579 111.309 58.6865C112.306 57.9135 113.108 57.1423 113.716 56.3728L114.821 57.2767C114.204 58.1337 113.388 58.9985 112.375 59.8712C111.371 60.7422 110.161 61.6008 108.745 62.4468ZM122.135 60.4634C120.544 60.0628 119.137 59.5919 117.914 59.0506C116.691 58.5093 115.66 57.918 114.821 57.2767L115.616 56.0915C116.432 56.6499 117.423 57.1554 118.59 57.608C119.767 58.059 121.124 58.4457 122.66 58.7682L122.135 60.4634ZM107.775 50.4433L107.56 48.9872C108.668 48.8231 109.763 48.6447 110.845 48.4521C111.925 48.2489 112.973 48.0398 113.987 47.8249C115.001 47.61 115.949 47.3886 116.832 47.1608C117.726 46.9314 118.528 46.7048 119.239 46.4809L119.683 47.9516C118.713 48.2463 117.603 48.5401 116.352 48.8332C115.102 49.1263 113.748 49.4131 112.29 49.6937C110.831 49.9637 109.327 50.2136 107.775 50.4433ZM131.918 58.4805C130.81 58.6446 129.894 58.721 129.17 58.7097C128.447 58.7089 127.864 58.5957 127.421 58.3702C126.988 58.1432 126.655 57.7881 126.422 57.3051C126.198 56.8099 126.026 56.1614 125.908 55.3595L124.564 46.2905L126.432 46.0138L127.775 55.0829C127.849 55.5788 127.949 55.9682 128.078 56.2511C128.216 56.5325 128.419 56.7344 128.685 56.8567C128.951 56.979 129.32 57.0322 129.792 57.0162C130.275 56.9986 130.901 56.9328 131.672 56.8187C132.463 56.7014 133.304 56.5553 134.195 56.3802C135.084 56.1946 135.943 55.9918 136.773 55.7718L137.162 57.4126C136.311 57.6357 135.424 57.8371 134.502 58.0169C133.581 58.2072 132.72 58.3617 131.918 58.4805ZM122.42 50.9266L122.184 49.3281L137.078 46.7983L137.314 48.3969L122.42 50.9266ZM133.568 54.2248C133.241 54.2732 132.862 54.3023 132.432 54.3121C132.001 54.3113 131.556 54.291 131.097 54.2511C130.647 54.1991 130.207 54.135 129.775 54.0588L129.974 52.3471C130.513 52.4183 130.952 52.4718 131.292 52.5078C131.64 52.5316 131.928 52.543 132.154 52.5418C132.391 52.5391 132.599 52.5244 132.778 52.4978C132.947 52.4728 133.047 52.4203 133.079 52.3402C133.108 52.2495 133.096 52.0195 133.041 51.6502L132.035 44.8603L133.919 44.5813L135.016 51.9885C135.089 52.4844 135.095 52.8879 135.033 53.199C134.97 53.4995 134.821 53.7318 134.587 53.8959C134.351 54.0495 134.011 54.1591 133.568 54.2248ZM140.473 57.1647C140.705 55.6746 140.892 54.1696 141.034 52.6498C141.184 51.1179 141.284 49.5719 141.333 48.0119C141.392 46.4397 141.406 44.8632 141.377 43.2824L143.272 43.0826C143.318 44.6286 143.313 46.1982 143.258 47.7915C143.213 49.3832 143.12 50.9714 142.977 52.5561C142.833 54.1302 142.642 55.6842 142.406 57.2181L140.473 57.1647ZM150.289 55.7269C149.328 55.8692 148.478 55.8766 147.736 55.7492C146.996 55.6323 146.402 55.4023 145.952 55.0592C145.501 54.7055 145.233 54.2438 145.148 53.674C145.086 53.2519 145.166 52.814 145.39 52.3603C145.614 51.9066 145.989 51.4144 146.514 50.8837L148.089 51.6857C147.725 51.9983 147.46 52.2803 147.292 52.5315C147.133 52.7707 147.07 52.9958 147.101 53.2068C147.137 53.4495 147.28 53.6494 147.529 53.8065C147.788 53.9515 148.131 54.0463 148.558 54.0908C148.996 54.1338 149.489 54.1147 150.038 54.0334C150.534 53.96 151.036 53.8586 151.545 53.7292C152.055 53.5999 152.581 53.441 153.125 53.2527L153.581 54.9157C153.016 55.1072 152.469 55.2692 151.939 55.4016C151.408 55.5341 150.858 55.6425 150.289 55.7269ZM138.796 47.3687L138.552 45.7227L149.694 44.0722L149.938 45.7182L138.796 47.3687ZM144.98 48.2804C146.208 47.9799 147.413 47.7097 148.596 47.4698C149.79 47.2283 150.988 47.0184 152.191 46.8403L152.437 48.5021C151.255 48.6772 150.073 48.8847 148.89 49.1246C147.716 49.3524 146.533 49.6248 145.339 49.9417L144.98 48.2804Z" fill="white"/>
<g filter="url(#filter2_d_122_1164)">
<rect x="13.5059" y="80" width="120" height="29" transform="rotate(15 13.5059 80)" fill="#128FCD" fill-opacity="0.2" shape-rendering="crispEdges"/>
<rect x="14.213" y="81.2247" width="118" height="27" transform="rotate(15 14.213 81.2247)" stroke="#48BCCB" stroke-opacity="0.5" stroke-width="2" shape-rendering="crispEdges"/>
</g>
<path d="M24.1249 105.464C22.8885 105.133 22.0059 104.615 21.477 103.91C20.9453 103.215 20.8092 102.384 21.0687 101.415C21.331 100.436 21.8595 99.7829 22.6541 99.4547C23.4516 99.1162 24.4788 99.1154 25.7358 99.4522C26.4158 99.6344 27.07 99.8925 27.6983 100.227C28.3396 100.553 28.987 100.98 29.6405 101.509C30.294 102.037 30.9766 102.684 31.6882 103.449C32.4128 104.206 33.1933 105.106 34.0297 106.147L32.5732 107.132C31.6237 105.894 30.7407 104.863 29.924 104.036C29.1204 103.203 28.3424 102.541 27.5899 102.053C26.8374 101.564 26.08 101.217 25.3175 101.013C24.6066 100.823 24.0443 100.799 23.6304 100.942C23.2194 101.075 22.9476 101.389 22.8151 101.883C22.5556 102.852 23.1007 103.517 24.4504 103.878C25.2129 104.083 25.8106 104.077 26.2438 103.862C26.6797 103.636 26.9873 103.189 27.1668 102.519L29.784 92.7516L31.6231 93.2444L30.9564 95.7326L36.4274 97.1986L36.0091 98.7595L30.5381 97.2936L29.0059 103.012C28.6857 104.207 28.1288 105.008 27.3354 105.413C26.5448 105.809 25.4746 105.826 24.1249 105.464ZM46.074 112.074C45.4888 111.332 44.9488 110.668 44.4541 110.083C43.9567 109.508 43.487 108.974 43.0451 108.48C42.6032 107.986 42.1661 107.515 41.7337 107.068C41.3041 106.611 40.8567 106.138 40.3914 105.649C39.9083 105.144 39.522 104.731 39.2324 104.41C38.9559 104.082 38.7432 103.804 38.5944 103.577C38.4559 103.352 38.374 103.142 38.3488 102.948C38.3367 102.746 38.3624 102.526 38.4259 102.289C38.4922 102.042 38.5862 101.835 38.708 101.669C38.8429 101.496 39.0317 101.347 39.2744 101.225C39.5198 101.092 39.8532 100.96 40.2746 100.83C40.6959 100.7 41.2327 100.551 41.885 100.384C42.5606 100.211 43.3039 100.013 44.115 99.7886C44.926 99.5642 45.7763 99.3171 46.6657 99.0475C47.5551 98.7778 48.4477 98.4759 49.3434 98.1416L50.0235 99.9306C49.4874 100.118 48.9241 100.304 48.3336 100.488C47.746 100.662 47.1648 100.832 46.5902 100.998C46.0183 101.154 45.4712 101.3 44.9489 101.437C44.4396 101.565 43.977 101.684 43.5612 101.794C43.1481 101.893 42.8117 101.974 42.5519 102.037C42.0426 102.165 41.645 102.268 41.3591 102.346C41.0834 102.427 40.8803 102.505 40.7497 102.581C40.6321 102.649 40.5581 102.739 40.5277 102.853C40.4974 102.966 40.5021 103.072 40.5418 103.171C40.5918 103.273 40.7071 103.42 40.8876 103.611C41.068 103.803 41.3453 104.088 41.7193 104.464C41.9307 104.664 42.1966 104.929 42.5171 105.257C42.8479 105.589 43.2205 105.97 43.635 106.402C44.0523 106.823 44.4819 107.28 44.9238 107.774C45.3787 108.26 45.8333 108.769 46.2876 109.299C46.7548 109.822 47.2002 110.344 47.6235 110.866L46.074 112.074ZM58.0711 115.272L57.5681 113.564C58.4402 113.4 59.2093 113.209 59.8754 112.989C60.5545 112.763 61.1543 112.482 61.6749 112.146C62.1954 111.811 62.6631 111.384 63.0781 110.866C63.5033 110.351 63.8968 109.727 64.2584 108.996C64.6227 108.254 64.9701 107.37 65.3004 106.343C65.6411 105.319 65.995 104.122 66.3622 102.752L68.1704 103.236C67.7811 104.689 67.3869 105.975 66.9877 107.093C66.5989 108.215 66.1892 109.187 65.7588 110.011C65.3387 110.837 64.8778 111.547 64.3762 112.141C63.8774 112.726 63.3206 113.217 62.7058 113.615C62.1014 114.017 61.4166 114.347 60.6516 114.605C59.8838 114.875 59.0236 115.097 58.0711 115.272ZM51.8593 113.542L54.5014 103.681L56.2478 104.149L53.6057 114.01L51.8593 113.542ZM54.829 112.35L54.7765 110.629C55.8622 110.534 56.9776 110.369 58.1226 110.135C59.2806 109.893 60.4473 109.598 61.6227 109.25L61.7423 110.906C60.5745 111.266 59.4102 111.573 58.2494 111.825C57.1016 112.07 55.9615 112.244 54.829 112.35ZM52.3902 108.284L52.3891 105.815C52.949 105.292 53.4695 104.73 53.9505 104.13C54.4342 103.52 54.8878 102.857 55.3112 102.143C55.7477 101.42 56.1596 100.625 56.5467 99.7571L58.1361 100.564C57.6593 101.684 57.153 102.708 56.6173 103.635C56.0844 104.553 55.5458 105.347 55.0015 106.018L55.086 105.147C54.9263 105.413 54.7353 105.693 54.513 105.987C54.2935 106.27 54.0558 106.56 53.7998 106.856C53.5569 107.144 53.3144 107.411 53.0722 107.655C52.8301 107.899 52.6028 108.109 52.3902 108.284ZM56.0634 110.958L58.7634 100.881L60.5561 101.361L57.8561 111.438L56.0634 110.958ZM64.0328 116.638C63.8551 115.817 63.6376 114.98 63.3803 114.127C63.1257 113.264 62.8597 112.464 62.5823 111.727L64.3239 111.1C64.5985 111.848 64.8603 112.663 65.1094 113.547C65.3584 114.431 65.5704 115.288 65.7453 116.119L64.0328 116.638ZM62.3652 108.025C62.1689 107.232 61.9305 106.412 61.6498 105.564C61.3794 104.718 61.0924 103.935 60.7889 103.213L62.449 102.581C62.7628 103.305 63.0522 104.101 63.317 104.967C63.595 105.825 63.8293 106.661 64.02 107.474L62.3652 108.025ZM67.1967 116.823C68.0021 115.548 68.7718 114.241 69.5059 112.903C70.253 111.557 70.9593 110.178 71.6247 108.767C72.3032 107.347 72.9432 105.906 73.5448 104.444L75.3632 105.014C74.7905 106.451 74.1622 107.889 73.4782 109.329C72.8045 110.772 72.0871 112.192 71.3262 113.59C70.5681 114.977 69.7756 116.327 68.9488 117.64L67.1967 116.823ZM76.7745 119.406C75.8369 119.155 75.0533 118.823 74.4237 118.412C73.7914 118.01 73.3371 117.563 73.0608 117.069C72.7872 116.565 72.725 116.035 72.8741 115.479C72.9845 115.066 73.2326 114.697 73.6185 114.369C74.0043 114.042 74.5437 113.739 75.2367 113.461L76.3626 114.823C75.9048 114.965 75.549 115.119 75.2953 115.283C75.0546 115.439 74.9067 115.62 74.8515 115.826C74.788 116.063 74.8396 116.303 75.0062 116.547C75.186 116.783 75.4629 117.006 75.8372 117.217C76.2217 117.43 76.6818 117.609 77.2176 117.752C77.7018 117.882 78.2033 117.989 78.722 118.073C79.2406 118.156 79.7868 118.22 80.3605 118.263L80.1183 119.971C79.524 119.922 78.9572 119.853 78.418 119.763C77.8787 119.674 77.3309 119.555 76.7745 119.406ZM69.5519 107.168L69.9826 105.56L80.8628 108.476L80.4321 110.083L69.5519 107.168ZM74.8641 110.463C76.1102 110.675 77.3237 110.906 78.5045 111.157C79.6957 111.409 80.8785 111.693 82.0531 112.008L81.6183 113.631C80.4643 113.322 79.2969 113.042 78.1161 112.792C76.9483 112.534 75.7541 112.313 74.5333 112.13L74.8641 110.463ZM93.9348 124.6C93.7493 124.551 93.488 124.475 93.1508 124.374C92.8238 124.275 92.4776 124.166 92.1122 124.046C91.7572 123.928 91.4264 123.823 91.1201 123.73L91.4735 122.102C91.8567 122.238 92.2414 122.369 92.6274 122.494C93.0161 122.609 93.3187 122.696 93.5351 122.754C93.6484 122.784 93.7601 122.759 93.8701 122.678C93.9932 122.59 94.1285 122.394 94.2759 122.091C94.4363 121.781 94.6293 121.308 94.8547 120.673C95.0932 120.03 95.378 119.173 95.7091 118.102C96.0533 117.024 96.4668 115.666 96.9497 114.028L91.7878 112.645L92.2144 111.053L99.0918 112.896C98.5418 114.825 98.0641 116.464 97.6584 117.813C97.2528 119.162 96.899 120.276 96.597 121.156C96.2977 122.025 96.03 122.716 95.7937 123.227C95.5602 123.727 95.3433 124.083 95.1431 124.295C94.9532 124.509 94.761 124.628 94.5665 124.654C94.3721 124.679 94.1615 124.661 93.9348 124.6ZM82.8659 117.444L83.11 115.853C84.1667 115.948 85.2045 116.011 86.2234 116.041C87.2554 116.063 88.2737 116.055 89.2783 116.015L89.0033 117.597C87.9856 117.645 86.9673 117.654 85.9484 117.624C84.9398 117.596 83.9123 117.536 82.8659 117.444ZM84.0981 122.18L86.7981 112.103L85.5617 111.772L85.9758 110.227L87.2122 110.558L87.8416 108.209L89.6189 108.685L88.9895 111.034L90.4268 111.419L90.0127 112.965L88.5754 112.58L85.8754 122.656L84.0981 122.18ZM84.8461 114.628L83.4844 113.899C83.8935 113.114 84.3065 112.253 84.7233 111.316C85.1401 110.378 85.5268 109.388 85.8832 108.347L87.3266 108.833C86.948 109.957 86.5527 111 86.1407 111.96C85.739 112.924 85.3074 113.813 84.8461 114.628ZM88.511 123.329L87.7729 121.757C88.9655 121.303 90.1003 120.674 91.1773 119.869C92.2543 119.065 93.2431 118.115 94.1438 117.02C95.0576 115.918 95.853 114.701 96.53 113.369L97.6874 114.243C97.1908 115.313 96.6045 116.327 95.9286 117.283C95.2658 118.232 94.5357 119.102 93.7384 119.893C92.9439 120.674 92.1031 121.36 91.216 121.95C90.3317 122.531 89.43 122.99 88.511 123.329ZM88.5935 119.807L87.8554 118.234C88.6453 117.882 89.4164 117.415 90.1688 116.833C90.924 116.24 91.6329 115.552 92.2955 114.769C92.9684 113.989 93.5727 113.135 94.1084 112.207L95.4595 113.099C94.8784 114.114 94.2104 115.061 93.4556 115.941C92.7008 116.821 91.909 117.592 91.0803 118.253C90.2515 118.915 89.4226 119.432 88.5935 119.807ZM89.2775 115.832L88.4877 114.329C89.0166 113.962 89.5376 113.522 90.0508 113.008C90.5667 112.484 91.059 111.903 91.5277 111.267C92.0067 110.633 92.4331 109.969 92.8071 109.274L94.4378 109.926C93.9765 110.742 93.4575 111.525 92.8808 112.276C92.3144 113.029 91.7182 113.709 91.0922 114.314C90.4765 114.922 89.8716 115.428 89.2775 115.832ZM106.818 127.522C105.571 127.188 104.543 126.675 103.735 125.984C102.934 125.305 102.387 124.502 102.095 123.573C101.805 122.634 101.805 121.624 102.095 120.542C102.322 119.697 102.681 118.954 103.173 118.313C103.675 117.675 104.276 117.162 104.976 116.775C105.689 116.381 106.471 116.143 107.321 116.062L107.347 116.582L99.9449 114.781L100.388 113.128L113.499 116.309L113.056 117.963L111.081 117.484C110.251 117.283 109.453 117.213 108.686 117.273C107.932 117.325 107.245 117.499 106.624 117.797C106.014 118.097 105.489 118.509 105.051 119.032C104.615 119.544 104.301 120.161 104.108 120.883C103.898 121.666 103.886 122.391 104.071 123.059C104.259 123.717 104.621 124.283 105.156 124.758C105.702 125.236 106.413 125.592 107.289 125.826C107.474 125.876 107.681 125.926 107.911 125.976C108.153 126.019 108.396 126.062 108.638 126.105C108.894 126.14 109.119 126.168 109.312 126.186L109.058 127.94C108.833 127.913 108.589 127.875 108.326 127.827C108.06 127.789 107.797 127.74 107.537 127.682C107.274 127.633 107.034 127.58 106.818 127.522ZM109.686 123.123C109.59 122.534 109.466 121.965 109.315 121.416C109.177 120.86 109 120.283 108.785 119.684L110.329 119.303C110.544 119.902 110.724 120.485 110.87 121.055C111.018 121.613 111.143 122.199 111.244 122.811L109.686 123.123ZM112.271 122.871C112.188 122.275 112.076 121.704 111.935 121.158C111.807 120.605 111.641 120.03 111.436 119.434L112.971 119.083C113.173 119.69 113.342 120.276 113.477 120.842C113.623 121.411 113.735 122.004 113.812 122.622L112.271 122.871Z" fill="white"/>
<g filter="url(#filter3_d_122_1164)">
<rect x="194.506" y="36" width="120" height="29" transform="rotate(15 194.506 36)" fill="#128FCD" fill-opacity="0.2" shape-rendering="crispEdges"/>
<rect x="195.213" y="37.2247" width="118" height="27" transform="rotate(15 195.213 37.2247)" stroke="#48BCCB" stroke-opacity="0.5" stroke-width="2" shape-rendering="crispEdges"/>
</g>
<path d="M196.851 57.4749C198.122 57.7602 199.283 57.9388 200.335 58.0109C201.39 58.0726 202.317 58.0339 203.116 57.8946C203.915 57.7554 204.557 57.5243 205.041 57.2013C205.528 56.8679 205.842 56.4385 205.983 55.913C206.14 55.3258 205.995 54.8175 205.547 54.3882C205.111 53.9514 204.358 53.5894 203.287 53.3023C202.761 53.1615 202.169 53.0416 201.511 52.9425C200.856 52.8332 200.09 52.744 199.214 52.6749C198.338 52.6058 197.3 52.5431 196.101 52.4867L196.108 50.6665C197.704 50.7296 199.141 50.8444 200.422 51.0108C201.705 51.1669 202.821 51.372 203.769 51.626C205.469 52.0815 206.672 52.702 207.378 53.4875C208.084 54.273 208.289 55.217 207.994 56.3195C207.776 57.1334 207.351 57.8145 206.718 58.3628C206.098 58.9034 205.301 59.3027 204.326 59.5606C203.352 59.8185 202.229 59.9264 200.96 59.8843C199.7 59.845 198.317 59.651 196.809 59.3022L196.851 57.4749ZM207.042 50.5982C206.331 50.4077 205.532 50.1769 204.644 49.9058C203.769 49.6272 202.862 49.3234 201.923 48.9946C200.997 48.6582 200.099 48.3235 199.227 47.9906L199.939 46.2599C200.674 46.5673 201.479 46.8822 202.353 47.2048C203.227 47.5275 204.112 47.8308 205.008 48.115C205.903 48.3992 206.738 48.6448 207.51 48.8518L207.042 50.5982ZM215.465 64.417C213.538 63.9007 212.147 63.2408 211.291 62.4372C210.432 61.644 210.159 60.6652 210.471 59.501C210.717 58.584 211.296 57.8447 212.208 57.283C213.134 56.7138 214.434 56.3114 216.11 56.0756C217.795 55.8427 219.911 55.7579 222.456 55.8215L222.45 57.5756C220.308 57.5318 218.523 57.5781 217.095 57.7145C215.677 57.8537 214.584 58.1018 213.815 58.4589C213.058 58.8084 212.603 59.2716 212.448 59.8486C212.272 60.508 212.48 61.0717 213.072 61.5396C213.678 62 214.66 62.4124 216.02 62.7768C216.463 62.8955 216.931 63.0043 217.424 63.1032C217.919 63.1917 218.475 63.28 219.092 63.368C219.719 63.4587 220.434 63.551 221.237 63.6447L221.026 65.3605C219.993 65.2603 219.007 65.1286 218.068 64.9653C217.136 64.8151 216.268 64.6323 215.465 64.417ZM214.38 56.7219C214.351 55.6321 214.364 54.5753 214.417 53.5516C214.474 52.5176 214.568 51.5049 214.701 50.5136L216.646 50.7365C216.523 51.7306 216.436 52.7343 216.386 53.7477C216.338 54.7508 216.332 55.7598 216.37 56.7747L214.38 56.7219ZM221.574 55.403C221.455 54.7748 221.326 54.2047 221.187 53.6927C221.051 53.1703 220.88 52.6551 220.674 52.1471L222.144 51.7294C222.355 52.2608 222.526 52.7979 222.657 53.3409C222.797 53.8866 222.927 54.4736 223.046 55.1017L221.574 55.403ZM223.979 55.2688C223.896 54.6283 223.786 54.052 223.647 53.54C223.521 53.0204 223.365 52.5093 223.18 52.0068L224.618 51.6468C224.826 52.1885 224.996 52.7308 225.126 53.2738C225.257 53.8168 225.365 54.4033 225.45 55.0335L223.979 55.2688ZM225.887 67.1267L224.437 66.1087L232.815 54.8702L234.382 55.8203L229.913 61.7453L229.44 61.2211C230.069 60.9368 230.672 60.7451 231.251 60.6462C231.84 60.55 232.381 60.5681 232.876 60.7007C233.257 60.8028 233.565 60.9736 233.799 61.213C234.036 61.4421 234.21 61.7374 234.323 62.0989C234.439 62.4502 234.506 62.8601 234.524 63.3287C234.552 63.8001 234.548 64.3292 234.513 64.9159C234.49 65.3735 234.481 65.7744 234.489 66.1187C234.506 66.4657 234.569 66.7475 234.676 66.964C234.794 67.1833 234.982 67.3275 235.239 67.3965C235.693 67.518 236.178 67.3334 236.696 66.8428C237.217 66.3418 237.81 65.4902 238.474 64.2878L239.952 65.2636C239.378 66.3355 238.812 67.1888 238.256 67.8237C237.702 68.4483 237.131 68.8695 236.542 69.0873C235.951 69.3154 235.331 69.3425 234.682 69.1686C234.239 69.0499 233.878 68.8705 233.6 68.6303C233.333 68.393 233.125 68.0945 232.979 67.735C232.832 67.3755 232.733 66.9624 232.681 66.4958C232.643 66.0216 232.639 65.5015 232.669 64.9354C232.687 64.4544 232.679 64.0325 232.644 63.6697C232.619 63.3096 232.537 63.0172 232.398 62.7923C232.27 62.5702 232.057 62.4192 231.758 62.3391C231.562 62.2866 231.324 62.2671 231.045 62.2805C230.765 62.2939 230.465 62.3626 230.145 62.4866C229.837 62.603 229.516 62.793 229.18 63.0564C228.847 63.3096 228.518 63.652 228.193 64.0838L225.887 67.1267ZM248.642 71.0374C249.204 71.1219 249.746 71.1012 250.265 70.9754C250.798 70.8421 251.281 70.6238 251.716 70.3206C252.164 70.0099 252.549 69.6218 252.873 69.1564C253.196 68.6909 253.438 68.1594 253.598 67.5618C253.825 66.7169 253.826 65.9278 253.603 65.1944C253.383 64.4507 252.968 63.8149 252.358 63.2872C251.759 62.7622 251.001 62.3769 250.084 62.1312C249.301 61.9214 248.54 61.8555 247.801 61.9337C247.063 62.0118 246.374 62.2137 245.734 62.5393C245.108 62.8573 244.568 63.2868 244.114 63.8277C243.662 64.3583 243.343 64.9739 243.155 65.6745C243.02 66.1794 242.972 66.6857 243.013 67.1935C243.054 67.7013 243.157 68.1378 243.325 68.5028C243.505 68.8603 243.734 69.0764 244.012 69.1509C244.414 69.2586 244.899 68.9963 245.465 68.3642C246.032 67.7321 246.649 66.7708 247.315 65.4806C247.994 64.1828 248.695 62.5981 249.417 60.7266L251.16 61.3925C250.42 63.2481 249.722 64.8225 249.066 66.1155C248.411 67.4085 247.78 68.4432 247.174 69.2196C246.569 69.996 245.972 70.5319 245.385 70.8274C244.801 71.1125 244.21 71.175 243.612 71.0149C243.118 70.8824 242.692 70.6359 242.336 70.2754C241.98 69.9149 241.707 69.4718 241.516 68.9459C241.326 68.42 241.222 67.84 241.204 67.2058C241.189 66.5613 241.273 65.899 241.455 65.219C241.714 64.2505 242.133 63.4076 242.712 62.6903C243.294 61.9626 243.989 61.387 244.798 60.9633C245.607 60.5397 246.499 60.2817 247.474 60.1894C248.461 60.0896 249.486 60.1819 250.547 60.4662C251.793 60.8003 252.832 61.3326 253.664 62.0633C254.505 62.7968 255.082 63.6746 255.393 64.6967C255.704 65.7187 255.699 66.8325 255.376 68.038C255.157 68.852 254.831 69.5761 254.396 70.2105C253.971 70.8476 253.464 71.3798 252.875 71.8072C252.288 72.2242 251.64 72.52 250.931 72.6943C250.222 72.8687 249.479 72.9015 248.702 72.7927L248.642 71.0374ZM256.428 71.7156L256.319 70.0798C257.708 70.1316 259.041 70.0803 260.319 69.9259C261.598 69.7714 262.778 69.53 263.86 69.2015C264.944 68.8626 265.897 68.4608 266.717 67.9959C267.537 67.5311 268.176 67.023 268.633 66.4718L270.305 67.218C269.713 67.9428 268.958 68.5964 268.04 69.1786C267.135 69.7533 266.088 70.2403 264.899 70.6394C263.71 71.0386 262.404 71.3349 260.983 71.5283C259.565 71.7114 258.046 71.7739 256.428 71.7156ZM259.112 76.4103L260.702 70.4757L262.51 70.9602L261.512 74.6848L267.416 76.2667L268.215 73.2839L261.199 71.4039L261.605 69.8893L270.476 72.2663L268.679 78.9737L266.824 78.4767L267.027 77.7195L261.123 76.1376L260.92 76.8948L259.112 76.4103ZM262.976 70.2733C262.755 69.7392 262.51 69.1878 262.243 68.6193C261.986 68.0535 261.726 67.52 261.463 67.0188L263.1 66.3477C263.374 66.8517 263.652 67.401 263.934 67.9957C264.219 68.5801 264.476 69.1459 264.705 69.6931L262.976 70.2733ZM258.397 67.2078L257.993 65.6253C259.293 65.2668 260.467 64.8415 261.515 64.3494C262.577 63.8498 263.534 63.2669 264.386 62.6008L265.632 63.7628C264.757 64.5114 263.714 65.1704 262.501 65.7399C261.299 66.3122 259.931 66.8015 258.397 67.2078ZM262.608 65.1557L263.018 63.6257L270.714 65.6879L270.305 67.218L262.608 65.1557ZM271.302 79.6931L274.022 69.5393L280.359 71.2372L278.247 79.1191C278.103 79.6549 277.976 80.068 277.865 80.3585C277.751 80.6593 277.615 80.8602 277.455 80.961C277.303 81.0748 277.088 81.1165 276.809 81.0859C276.53 81.0554 276.159 80.978 275.695 80.8537C275.561 80.8178 275.378 80.7579 275.147 80.6737C274.926 80.5924 274.643 80.4945 274.298 80.38L274.681 78.8263C275.013 78.9483 275.27 79.0393 275.453 79.0993C275.646 79.162 275.778 79.2031 275.851 79.2224C276.026 79.2693 276.152 79.2922 276.23 79.2909C276.31 79.2793 276.369 79.2234 276.407 79.1231C276.448 79.0125 276.501 78.8336 276.568 78.5863L276.799 77.7209L273.971 76.963L274.336 75.603L277.164 76.3608L277.537 74.9699L274.708 74.2121L275.073 72.852L277.901 73.6099L278.265 72.2498L275.437 71.492L273.11 80.1776L271.302 79.6931ZM279.58 78.7806L281.46 71.7641L283.191 72.2279L281.311 79.2444L279.58 78.7806ZM281.811 82.5091C281.656 82.4677 281.411 82.3963 281.073 82.2948C280.746 82.1962 280.319 82.0596 279.792 81.8852L280.138 80.2221C280.614 80.3828 281.005 80.5097 281.311 80.6028C281.62 80.6856 281.837 80.7436 281.96 80.7767C282.166 80.8319 282.313 80.8603 282.401 80.8618C282.492 80.8529 282.562 80.7998 282.61 80.7023C282.661 80.5945 282.718 80.4221 282.782 80.1851L284.893 72.3031L286.717 72.7918L284.597 80.7046C284.451 81.2507 284.31 81.6714 284.176 81.9667C284.049 82.275 283.893 82.4872 283.707 82.6031C283.519 82.7293 283.275 82.7743 282.975 82.7382C282.683 82.7152 282.295 82.6388 281.811 82.5091ZM277.909 69.1894C277.827 68.7145 277.733 68.242 277.627 67.7719C277.521 67.3018 277.404 66.851 277.277 66.4193L279.127 66.5009C279.264 66.9353 279.38 67.3913 279.472 67.869C279.578 68.3391 279.673 68.8116 279.755 69.2864L277.909 69.1894ZM273.551 68.5184L273.952 67.0193L287.923 70.7628L287.522 72.262L273.551 68.5184ZM283.466 70.6452L281.768 69.8093C282.11 69.4813 282.445 69.1402 282.771 68.7861C283.109 68.4347 283.417 68.0867 283.697 67.7421L285.403 68.547C285.136 68.8841 284.833 69.2334 284.493 69.5951C284.163 69.9596 283.821 70.3096 283.466 70.6452ZM295.848 85.0778C294.921 84.8293 294.126 84.4783 293.464 84.0247C292.812 83.5738 292.34 83.0665 292.049 82.5028C291.772 81.9315 291.712 81.3522 291.869 80.7649C292.151 79.714 293.126 78.8157 294.794 78.0701L295.854 79.4308C295.189 79.7276 294.684 80.0063 294.338 80.2669C294.002 80.5304 293.795 80.8115 293.715 81.1103C293.632 81.4194 293.684 81.7204 293.87 82.0133C294.057 82.3063 294.355 82.5739 294.765 82.8163C295.175 83.0586 295.684 83.2612 296.292 83.4241C296.807 83.5621 297.393 83.6807 298.051 83.7797C298.723 83.8712 299.406 83.9383 300.101 83.9811L299.914 85.6701C299.205 85.6349 298.5 85.5674 297.798 85.4676C297.106 85.3706 296.456 85.2407 295.848 85.0778ZM294.274 74.6344L294.721 72.9652L302.649 75.0896L302.202 76.7587L294.274 74.6344ZM287.862 83.6665C287.878 82.5335 287.962 81.4353 288.115 80.3718C288.267 79.3084 288.498 78.1997 288.807 77.0457C289.114 75.9021 289.466 74.8368 289.862 73.8499C290.262 72.8527 290.738 71.8594 291.29 70.8699L293.067 71.5945C292.552 72.5277 292.098 73.4826 291.704 74.4592C291.322 75.4282 290.985 76.4588 290.693 77.5509C290.4 78.6431 290.175 79.7092 290.018 80.7493C289.871 81.7921 289.79 82.8361 289.775 83.8811L287.862 83.6665Z" fill="white"/>
<g filter="url(#filter4_d_122_1164)">
<rect x="154.506" y="75" width="120" height="29" transform="rotate(15 154.506 75)" fill="#128FCD" fill-opacity="0.2" shape-rendering="crispEdges"/>
<rect x="155.213" y="76.2247" width="118" height="27" transform="rotate(15 155.213 76.2247)" stroke="#48BCCB" stroke-opacity="0.5" stroke-width="2" shape-rendering="crispEdges"/>
</g>
<path d="M162.959 100.447L166.579 86.9396L171.169 88.1695L170.763 89.6841L167.796 88.889L164.582 100.882L162.959 100.447ZM153.787 98.2048L153.259 96.5891C154.035 96.2891 154.784 95.8877 155.504 95.3849C156.237 94.8746 156.918 94.2896 157.547 93.6301C158.187 92.9733 158.736 92.2645 159.194 91.5038L160.258 92.3522C159.772 93.26 159.184 94.0962 158.493 94.8608C157.815 95.6178 157.073 96.2858 156.267 96.8648C155.463 97.4334 154.636 97.8801 153.787 98.2048ZM154.15 93.6971L154.297 92.0967L158.837 92.4021L158.689 93.8201L154.15 93.6971ZM156.964 98.0952L156.987 96.4616C157.838 96.5018 158.706 96.519 159.591 96.5132C160.479 96.4971 161.395 96.4556 162.341 96.3887L162.461 97.9781C161.497 98.0731 160.555 98.1297 159.633 98.1479C158.722 98.1688 157.832 98.1512 156.964 98.0952ZM155.613 93.4927L154.704 92.3713C156.583 90.9643 158.355 89.3796 160.02 87.6171L161.076 88.7449C160.233 89.6234 159.352 90.4585 158.433 91.2503C157.525 92.0449 156.585 92.7924 155.613 93.4927ZM157.223 91.4396C157.098 91.0416 156.95 90.6044 156.78 90.128C156.612 89.6414 156.434 89.1519 156.245 88.6597C156.067 88.1703 155.888 87.708 155.706 87.2729L156.827 85.9333C157.008 86.3685 157.192 86.8373 157.378 87.3398C157.576 87.8348 157.761 88.3204 157.931 88.7968C158.112 89.2759 158.269 89.721 158.402 90.132L157.223 91.4396ZM162.076 99.6638C162.038 99.1457 161.987 98.5963 161.921 98.0156C161.856 97.4349 161.781 96.8515 161.695 96.2653C161.619 95.6818 161.538 95.141 161.45 94.6427L163.063 94.3128C163.147 94.8213 163.226 95.3725 163.299 95.9662C163.385 96.5524 163.454 97.1396 163.506 97.7279C163.571 98.3085 163.624 98.8528 163.665 99.3606L162.076 99.6638ZM157.531 88.6232L156.51 87.4882C156.997 86.9893 157.462 86.49 157.905 85.9903C158.361 85.4831 158.807 84.9511 159.244 84.3944L160.43 85.4079C159.967 85.9797 159.493 86.5319 159.008 87.0645C158.534 87.5999 158.041 88.1194 157.531 88.6232ZM158.167 97.3741L161.323 85.5976L166.129 86.8855L164.142 94.3038L160.973 93.4548L161.363 92.0021L163.016 92.4452L163.447 90.8379L161.793 90.3948L162.15 89.0657L163.803 89.5088L164.213 87.9787L162.559 87.5357L159.806 97.8131L158.167 97.3741ZM165.476 99.3988L165.539 97.7427L165.802 97.8131C166.183 97.9152 166.481 97.8956 166.696 97.7544C166.92 97.6158 167.101 97.2941 167.236 96.7893C167.349 96.3669 167.41 95.9526 167.42 95.5465C167.429 95.1405 167.381 94.7244 167.274 94.2982C167.17 93.8618 167.009 93.4102 166.792 92.9434C167.075 92.5885 167.364 92.191 167.658 91.7509C167.963 91.3136 168.257 90.8567 168.539 90.3802C168.832 89.9064 169.097 89.4529 169.334 89.0197L170.763 89.6841C170.563 90.0611 170.335 90.4583 170.079 90.8757C169.827 91.2829 169.569 91.6886 169.306 92.093C169.043 92.4974 168.782 92.8747 168.522 93.2248C168.702 93.6263 168.83 94.0747 168.907 94.5702C168.984 95.0657 169.016 95.5656 169.002 96.0699C168.989 96.5743 168.922 97.0479 168.804 97.491C168.63 98.1401 168.414 98.6345 168.158 98.9743C167.901 99.3141 167.591 99.5237 167.227 99.603C166.874 99.685 166.445 99.6584 165.94 99.5231L165.476 99.3988ZM168.988 101.499L169.423 99.8766L175.389 101.475L177.008 95.4323L172.124 94.1237L172.551 92.5318L177.435 93.8404L178.462 90.0076L180.347 90.5129L179.32 94.3456L184.204 95.6542L183.777 97.2461L178.894 95.9375L177.274 101.98L183.24 103.579L182.805 105.202L168.988 101.499ZM186.214 106.761L188.239 99.2035L186.09 98.6279L186.488 97.1442L188.652 97.724L189.973 92.7939L191.642 93.2411L190.321 98.1712L192.253 98.6888L191.855 100.172L189.939 99.659L187.914 107.216L186.214 106.761ZM185.014 104.684L184.628 102.725C185.48 102.059 186.223 101.347 186.857 100.589C187.501 99.834 188.06 99.0064 188.533 98.1062L189.232 98.7739C188.902 99.5911 188.517 100.371 188.075 101.114C187.635 101.847 187.152 102.518 186.624 103.127C186.109 103.729 185.573 104.248 185.014 104.684ZM189.798 104.077C189.661 103.19 189.516 102.307 189.366 101.427C189.228 100.54 189.079 99.6329 188.918 98.7065L190.165 98.4441C190.353 99.2675 190.534 100.095 190.709 100.926C190.887 101.746 191.057 102.576 191.218 103.414L189.798 104.077ZM187.301 97.0143C187.33 96.3705 187.35 95.7188 187.361 95.0592C187.383 94.4024 187.39 93.797 187.384 93.2432L188.89 93.2492C188.896 93.803 188.889 94.4083 188.867 95.0651C188.848 95.7117 188.808 96.3578 188.745 97.0036L187.301 97.0143ZM190.23 105.435L190.497 103.817L199.974 104.551L199.707 106.169L190.23 105.435ZM194.488 103.329C194.177 102.716 193.835 102.078 193.46 101.414C193.089 100.74 192.686 100.058 192.253 99.368L193.784 98.5361C194.221 99.2161 194.631 99.8893 195.016 100.556C195.4 101.222 195.743 101.86 196.043 102.471L194.488 103.329ZM191.825 98.2431L190.581 97.4459C190.916 96.9392 191.239 96.391 191.552 95.8011C191.878 95.2037 192.156 94.6379 192.388 94.1036L193.783 94.7093C193.52 95.2792 193.216 95.877 192.872 96.5025C192.53 97.1178 192.181 97.6979 191.825 98.2431ZM195.363 109.212L199.106 95.2413L200.915 95.7258L197.171 109.697L195.363 109.212ZM196.39 99.6317C196.102 99.0576 195.789 98.4715 195.453 97.8733C195.126 97.2779 194.765 96.6676 194.37 96.0426L195.912 95.2302C196.311 95.845 196.678 96.4514 197.015 97.0496C197.355 97.6375 197.67 98.2133 197.96 98.7771L196.39 99.6317ZM203.566 110.93L203.968 109.431L208.465 110.636L208.879 109.09L205.293 108.13L205.67 106.723L209.256 107.684L210.453 103.218L208.613 102.725L208.953 101.458L210.792 101.95L211.219 100.359L213.058 100.851L212.631 102.443L214.47 102.936L214.897 101.344L209.38 99.8657L207.798 105.769L206.098 105.314L208.069 97.9574L216.986 100.347L215.015 107.703L207.798 105.769L208.166 104.394L213.684 105.872L214.131 104.203L212.292 103.71L211.095 108.177L214.866 109.187L214.489 110.594L210.718 109.583L210.304 111.129L214.291 112.197L213.89 113.696L203.566 110.93ZM199.966 108.972L200.218 107.35C200.712 107.361 201.23 107.367 201.771 107.368C202.324 107.362 202.876 107.344 203.425 107.314C203.987 107.277 204.534 107.236 205.065 107.191L204.701 108.733C204.188 108.794 203.655 108.845 203.103 108.885C202.552 108.925 202.009 108.95 201.476 108.962C200.943 108.974 200.439 108.977 199.966 108.972ZM201.622 107.676L202.727 103.55L201.568 103.239L201.995 101.647L203.154 101.958L203.92 99.0986L202.606 98.7466L203.041 97.1238L207.461 98.3082L207.027 99.9309L205.682 99.5707L204.916 102.43L206.168 102.765L205.741 104.357L204.489 104.022L203.384 108.148L201.622 107.676ZM222.273 115.793C220.346 115.277 218.963 114.586 218.124 113.721C217.287 112.845 217.025 111.825 217.337 110.661C217.599 109.682 218.204 108.889 219.15 108.281C220.1 107.663 221.44 107.216 223.171 106.94C224.911 106.667 227.085 106.548 229.693 106.584L229.683 108.354C227.471 108.324 225.622 108.403 224.136 108.59C222.661 108.78 221.526 109.078 220.733 109.484C219.953 109.882 219.476 110.406 219.302 111.055C218.943 112.394 220.118 113.427 222.828 114.153C223.271 114.272 223.74 114.376 224.235 114.464C224.731 114.553 225.287 114.641 225.904 114.729C226.534 114.809 227.252 114.891 228.058 114.975L227.827 116.702C226.804 116.604 225.821 116.479 224.879 116.326C223.945 116.186 223.076 116.009 222.273 115.793ZM221.187 108.098C221.159 107.008 221.172 105.952 221.225 104.928C221.281 103.894 221.376 102.881 221.509 101.89L223.454 102.113C223.331 103.107 223.244 104.111 223.193 105.124C223.145 106.127 223.14 107.136 223.177 108.151L221.187 108.098ZM237.442 119.825C236.267 119.51 235.354 119.067 234.701 118.494C234.056 117.935 233.655 117.226 233.499 116.366C233.353 115.51 233.44 114.484 233.76 113.289L235.777 105.763L237.662 106.268L235.646 113.794C235.323 115 235.34 115.943 235.699 116.625C236.06 117.296 236.797 117.78 237.91 118.079C238.724 118.297 239.48 118.339 240.178 118.206C240.887 118.076 241.583 117.743 242.268 117.209C242.965 116.667 243.701 115.898 244.476 114.902L246.005 116.057C245.317 116.977 244.639 117.734 243.972 118.328C243.318 118.915 242.652 119.36 241.974 119.664C241.309 119.961 240.604 120.12 239.858 120.141C239.113 120.162 238.307 120.057 237.442 119.825ZM256.204 124.604C254.958 124.27 253.927 123.767 253.113 123.096C252.309 122.428 251.759 121.64 251.461 120.732C251.166 119.814 251.159 118.829 251.441 117.778C251.662 116.954 252.014 116.237 252.498 115.627C252.994 115.009 253.591 114.512 254.289 114.135C254.999 113.751 255.778 113.524 256.625 113.453L256.651 113.973L249.249 112.172L249.692 110.518L262.803 113.7L262.36 115.354L260.385 114.874C259.576 114.68 258.796 114.603 258.045 114.645C257.304 114.689 256.619 114.854 255.991 115.138C255.363 115.422 254.827 115.814 254.384 116.314C253.954 116.806 253.644 117.408 253.453 118.119C253.249 118.881 253.242 119.586 253.433 120.234C253.627 120.871 253.994 121.416 254.535 121.871C255.086 122.327 255.8 122.673 256.675 122.908C256.964 122.985 257.298 123.058 257.677 123.127C258.066 123.198 258.407 123.245 258.699 123.268L258.445 125.022C258.101 124.985 257.724 124.928 257.314 124.851C256.914 124.777 256.544 124.695 256.204 124.604Z" fill="white"/>
<g filter="url(#filter5_d_122_1164)">
<rect x="21.999" y="128.374" width="91" height="29" transform="rotate(16.4148 21.999 128.374)" fill="#128FCD" fill-opacity="0.2" shape-rendering="crispEdges"/>
<rect x="22.6757" y="129.616" width="89" height="27" transform="rotate(16.4148 22.6757 129.616)" stroke="#48BCCB" stroke-opacity="0.5" stroke-width="2" shape-rendering="crispEdges"/>
</g>
<path d="M44.2296 151.344C43.3253 150.489 42.5151 149.577 41.7992 148.61C41.0864 147.633 40.4894 146.64 40.0082 145.631C39.5301 144.611 39.186 143.609 38.9757 142.624L40.6624 142.504C40.824 143.352 41.0999 144.19 41.4902 145.016C41.8805 145.843 42.3924 146.672 43.0259 147.504C43.6727 148.328 44.4431 149.167 45.3372 150.019L44.2296 151.344ZM33.1649 153.856C33.1567 153.431 33.1346 152.996 33.0987 152.552C33.0657 152.098 33.0217 151.662 32.9665 151.245L34.8229 151.342C34.8751 151.769 34.9191 152.204 34.955 152.649C35.0012 153.096 35.0269 153.537 35.0321 153.972L33.1649 153.856ZM29.0179 153.552L29.4655 152.032L43.1865 156.074L42.7388 157.594L29.0179 153.552ZM38.2412 155.818L36.8322 154.769C37.2302 154.475 37.6235 154.141 38.0119 153.766C38.4033 153.381 38.7671 152.977 39.1032 152.553L40.6711 153.515C40.3086 153.953 39.9198 154.367 39.5049 154.756C39.1032 155.138 38.682 155.492 38.2412 155.818ZM31.8271 151.093L32.9846 147.164L42.8686 150.076L41.7111 154.005L33.6535 151.631L34.0242 150.373L40.2554 152.208L40.6533 150.858L34.4221 149.022L33.6535 151.631L31.8271 151.093ZM34.3097 145.837C34.0138 145.293 33.7031 144.763 33.3777 144.244C33.0553 143.716 32.7386 143.205 32.4276 142.713L33.9638 141.915C34.282 142.42 34.5972 142.936 34.9094 143.461C35.2246 143.977 35.5404 144.509 35.8568 145.058L34.3097 145.837ZM31.1533 147.492L30.9409 145.778C31.93 145.591 32.8189 145.386 33.6076 145.163C34.4095 144.932 35.131 144.672 35.7722 144.383C36.4165 144.083 36.9906 143.757 37.4945 143.405C38.0016 143.043 38.4619 142.651 38.8757 142.228L40.2956 143.013C39.585 143.727 38.7525 144.382 37.7981 144.979C36.8468 145.567 35.8067 146.077 34.6778 146.512C33.552 146.937 32.3771 147.263 31.1533 147.492ZM35.3711 146.933L35.8006 145.475L41.418 147.13L40.9884 148.588L35.3711 146.933ZM34.3808 142.255L34.8149 140.781L40.6624 142.504L40.2284 143.977L34.3808 142.255ZM41.6676 146.169L40.6605 144.889C41.1036 144.63 41.5345 144.357 41.9529 144.068C42.3847 143.773 42.7893 143.475 43.1669 143.175L44.2688 144.417C43.875 144.735 43.4556 145.045 43.0106 145.347C42.5789 145.643 42.1312 145.917 41.6676 146.169ZM43.318 148.607L42.291 147.337C42.7444 147.082 43.1936 146.802 43.6385 146.5C44.0865 146.187 44.5008 145.875 44.8814 145.565L45.9987 146.811C45.5946 147.126 45.1635 147.438 44.7053 147.748C44.2573 148.061 43.7948 148.347 43.318 148.607ZM46.3018 155.691L47.9114 150.227L46.5301 149.82L46.9641 148.347L48.3454 148.754L49.4215 145.101L51.2172 145.63L50.1411 149.283L51.6606 149.73L51.2265 151.204L49.7071 150.756L48.0975 156.22L46.3018 155.691ZM44.6444 156.787L44.8754 155.154C45.4201 155.192 45.9832 155.225 46.5647 155.251C47.1564 155.281 47.7526 155.296 48.3534 155.295C48.9572 155.283 49.5384 155.255 50.097 155.208L49.8707 156.542C49.2723 156.611 48.6703 156.672 48.0647 156.727C47.4724 156.775 46.8861 156.803 46.3058 156.81C45.7357 156.82 45.1819 156.812 44.6444 156.787ZM48.5812 158.881L47.9614 157.531C48.4852 157.452 49.021 157.332 49.5688 157.171C50.1197 156.999 50.6546 156.807 51.1736 156.593C51.6956 156.368 52.1781 156.127 52.6213 155.868C53.0675 155.599 53.4513 155.334 53.7729 155.073L54.9806 156.013C54.479 156.432 53.8705 156.837 53.1552 157.226C52.4399 157.616 51.6825 157.96 50.883 158.258C50.0865 158.546 49.3192 158.754 48.5812 158.881ZM49.675 156.018L49.1654 154.633C49.6392 154.573 50.1295 154.456 50.6365 154.283C51.1536 154.112 51.6527 153.909 52.1338 153.673C52.6251 153.44 53.0586 153.195 53.4343 152.938L54.5165 153.908C54.089 154.227 53.5934 154.531 53.0299 154.821C52.4796 155.104 51.9127 155.348 51.3293 155.554C50.7562 155.763 50.2047 155.918 49.675 156.018ZM51.5402 160.67L50.804 159.319C51.3019 159.177 51.8133 158.988 52.3383 158.754C52.8766 158.512 53.3968 158.237 53.8989 157.929C54.4011 157.621 54.8623 157.301 55.2827 156.969C55.703 156.637 56.0574 156.302 56.3459 155.965L57.5943 156.766C57.2775 157.162 56.883 157.557 56.4109 157.952C55.952 158.339 55.4486 158.708 54.9007 159.058C54.363 159.411 53.8036 159.725 53.2226 159.998C52.6488 160.285 52.088 160.509 51.5402 160.67ZM55.9406 161.7C55.6951 161.627 55.4116 161.533 55.0902 161.416C54.7658 161.309 54.4122 161.188 54.0294 161.053L54.3714 159.553C54.6416 159.655 54.9067 159.755 55.1667 159.854C55.44 159.945 55.6533 160.014 55.8068 160.059C55.9807 160.11 56.137 160.09 56.2755 159.997C56.4272 159.897 56.5823 159.654 56.7408 159.267C56.9125 158.873 57.1205 158.261 57.3646 157.432L57.4053 157.294L51.3122 155.499L51.692 154.21L59.5348 156.52L59.2002 157.656C58.9138 158.628 58.6444 159.411 58.3919 160.003C58.1425 160.586 57.8943 161.013 57.6473 161.285C57.3974 161.567 57.1331 161.729 56.8544 161.769C56.5829 161.822 56.2783 161.799 55.9406 161.7ZM50.3029 153.15L50.7007 151.8L60.4927 154.684L60.0948 156.035L50.3029 153.15ZM51.6372 151.508L53.1835 146.259L61.4407 148.692L59.8944 153.941L53.3869 152.024L53.7215 150.888L58.3719 152.258L58.6115 151.445L53.9611 150.075L54.2957 148.939L58.9461 150.309L59.1722 149.541L54.5218 148.171L53.3869 152.024L51.6372 151.508ZM63.3185 161.738C64.2514 161.969 65.1203 162.058 65.9251 162.006C66.733 161.944 67.4099 161.759 67.956 161.453C68.5124 161.15 68.8659 160.743 69.0166 160.231L69.1206 159.878L69.8292 160.304C69.6564 160.475 69.4472 160.619 69.2015 160.736C68.9559 160.853 68.6804 160.938 68.3752 160.993C68.0832 161.04 67.7681 161.053 67.4298 161.031C67.1018 161.012 66.774 160.955 66.4466 160.858C65.7713 160.659 65.2258 160.36 64.81 159.959C64.3972 159.549 64.122 159.067 63.9844 158.515C63.8571 157.966 63.8868 157.374 64.0737 156.74C64.2636 156.095 64.5711 155.58 64.9963 155.194C65.4214 154.807 65.9275 154.562 66.5144 154.457C67.1146 154.344 67.7626 154.391 68.4584 154.596C69.0314 154.764 69.499 155.008 69.8612 155.326C70.2235 155.644 70.5519 156.057 70.8467 156.567L69.6666 156.553L71.2626 151.135L73.1044 151.678L71.0516 158.646L71.1486 157.807C71.2526 158.171 71.2922 158.527 71.2673 158.876C71.2557 159.217 71.1912 159.587 71.0736 159.986C70.7692 161.02 70.2466 161.85 69.5059 162.477C68.7652 163.104 67.8543 163.497 66.7731 163.657C65.6889 163.827 64.4712 163.751 63.12 163.431L63.3185 161.738ZM67.1967 159.445C67.4627 159.523 67.7086 159.557 67.9343 159.545C68.1733 159.527 68.3906 159.468 68.5863 159.37C68.782 159.272 68.9509 159.133 69.093 158.953C69.2352 158.772 69.3424 158.559 69.4148 158.313C69.5685 157.792 69.5305 157.336 69.3007 156.945C69.0812 156.558 68.7053 156.286 68.1733 156.13C67.6515 155.976 67.1831 155.999 66.7683 156.199C66.3637 156.403 66.0845 156.765 65.9308 157.287C65.7861 157.778 65.8272 158.224 66.0539 158.624C66.2837 159.015 66.6646 159.288 67.1967 159.445ZM62.8757 152.2L63.3098 150.727L76.8466 154.715L76.4125 156.188L62.8757 152.2ZM81.6141 168.879C80.0998 168.433 78.9955 167.841 78.3012 167.103C77.6171 166.368 77.4061 165.555 77.6684 164.665C77.8914 163.907 78.3768 163.411 79.1246 163.175C79.8855 162.933 80.8185 162.974 81.9236 163.299C82.9672 163.607 83.6927 164.032 84.1 164.574C84.5103 165.107 84.6024 165.757 84.3763 166.524C84.295 166.8 84.1666 167.085 83.9913 167.378C83.8263 167.674 83.6224 167.97 83.3796 168.265L81.7456 167.584C81.9914 167.278 82.1811 167.012 82.3148 166.784C82.4588 166.56 82.5579 166.355 82.6122 166.171C82.8171 165.475 82.408 164.977 81.3848 164.675C80.863 164.522 80.4281 164.488 80.0801 164.575C79.7454 164.654 79.5313 164.852 79.4379 165.169C79.3113 165.599 79.461 166.016 79.887 166.419C80.316 166.812 80.9603 167.136 81.8198 167.389C83.4671 167.874 84.7606 167.994 85.7004 167.748C86.6534 167.495 87.2776 166.867 87.573 165.865C87.8232 165.015 87.6899 164.298 87.1731 163.712C86.6665 163.129 85.7276 162.635 84.3566 162.231C83.5687 161.999 82.8518 161.866 82.206 161.831C81.5631 161.787 80.9437 161.832 80.3477 161.968L77.9781 162.537L77.6574 160.908L87.8037 158.627L87.7178 158.918L79.9058 156.617L80.3624 155.067L90.8604 158.159L90.4037 159.71L81.6977 161.632L80.9767 160.569C81.3271 160.549 81.7102 160.551 82.1262 160.574C82.5553 160.589 82.9836 160.626 83.411 160.685C83.8516 160.737 84.2723 160.8 84.6732 160.874C85.0771 160.937 85.4376 161.015 85.7548 161.109C87.31 161.567 88.4056 162.246 89.0415 163.145C89.6773 164.044 89.8174 165.097 89.4618 166.304C89.0367 167.747 88.1418 168.69 86.777 169.133C85.4224 169.579 83.7014 169.494 81.6141 168.879Z" fill="white"/>
<g filter="url(#filter6_d_122_1164)">
<rect x="142" y="152.409" width="91" height="29" transform="rotate(-10.388 142 152.409)" fill="#128FCD" fill-opacity="0.2" shape-rendering="crispEdges"/>
<rect x="143.164" y="153.212" width="89" height="27" transform="rotate(-10.388 143.164 153.212)" stroke="#48BCCB" stroke-opacity="0.5" stroke-width="2" shape-rendering="crispEdges"/>
</g>
<path d="M164.89 171.189L164.267 167.79L161.764 168.248L161.545 167.052L164.047 166.594L163.9 165.791L161.398 166.25L161.182 165.069L163.684 164.611L163.537 163.808L161.034 164.267L162.082 169.98L160.429 170.283L159.382 164.57L158.186 164.789L157.906 163.262L172.338 160.617L172.617 162.143L165.268 163.491L166.621 170.872L164.89 171.189ZM159.414 171.575L158.995 170.09C159.95 169.796 160.949 169.477 161.992 169.134C163.033 168.78 164.077 168.41 165.123 168.023L165.557 169.505C164.503 169.905 163.459 170.275 162.426 170.616C161.395 170.968 160.391 171.287 159.414 171.575ZM167.336 170.513L166.394 169.189C167.672 168.532 168.675 167.73 169.401 166.783C170.138 165.835 170.588 164.798 170.751 163.673L172.253 164.325C172.09 165.211 171.805 166.023 171.398 166.759C171.001 167.493 170.468 168.166 169.799 168.776C169.13 169.387 168.309 169.966 167.336 170.513ZM173.442 169.394C172.034 169.283 170.739 168.962 169.557 168.43C168.384 167.886 167.34 167.161 166.425 166.255L167.541 164.977C168.265 165.788 169.142 166.435 170.174 166.918C171.204 167.391 172.398 167.693 173.756 167.823L173.442 169.394ZM166.147 165.444L165.87 163.934L171.976 162.814L172.253 164.325L166.147 165.444ZM158.977 162.448L158.143 157.9L170.214 155.687L171.048 160.235L160.865 162.102L160.658 160.969L168.936 159.451L168.835 158.9L160.557 160.418L160.378 159.442L168.656 157.925L168.552 157.358L160.274 158.876L160.865 162.102L158.977 162.448ZM179.546 165.688L177.886 164.707C177.993 164.287 178.073 163.865 178.126 163.443C178.177 163.011 178.188 162.51 178.16 161.941C178.129 161.361 178.054 160.653 177.933 159.819C177.813 158.984 177.641 157.958 177.418 156.741L176.411 156.926L176.131 155.399L177.941 155.068L177.704 153.777L179.514 153.445L179.751 154.736L181.797 154.361L182.076 155.887L179.133 156.427C179.339 157.549 179.501 158.523 179.62 159.347C179.747 160.159 179.84 160.874 179.899 161.492C179.956 162.099 179.98 162.643 179.97 163.122C179.959 163.59 179.914 164.027 179.836 164.431C179.769 164.834 179.672 165.253 179.546 165.688ZM175.789 169.061L174.662 167.706C175.178 167.21 175.641 166.719 176.051 166.231C176.469 165.732 176.845 165.213 177.181 164.674L178.419 165.749C178.1 166.317 177.724 166.868 177.29 167.403C176.868 167.936 176.367 168.489 175.789 169.061ZM176.277 166.044L175.547 162.062L173.91 162.362L173.622 160.788L177.037 160.162L178.055 165.718L176.277 166.044ZM184.776 167.153C183.685 167.353 182.735 167.495 181.926 167.578C181.117 167.661 180.421 167.68 179.838 167.635C179.257 167.601 178.761 167.497 178.349 167.323C177.938 167.149 177.58 166.911 177.275 166.609C176.981 166.305 176.706 165.932 176.452 165.491L177.943 165.104C178.137 165.339 178.341 165.535 178.554 165.691C178.765 165.837 179.024 165.947 179.331 166.021C179.647 166.093 180.028 166.126 180.471 166.12C180.915 166.115 181.465 166.068 182.121 165.981C182.777 165.893 183.567 165.764 184.49 165.595L189.369 164.701L189.545 166.279L184.776 167.153ZM182.125 165.378C181.978 165.405 181.744 165.432 181.423 165.458C181.111 165.472 180.768 165.491 180.393 165.517L180.05 164.002C180.278 164.003 180.473 164 180.634 163.992C180.793 163.974 180.92 163.956 181.015 163.939C181.109 163.921 181.18 163.865 181.228 163.77C181.284 163.662 181.3 163.453 181.276 163.143C181.26 162.82 181.199 162.338 181.092 161.696C180.995 161.052 180.847 160.185 180.647 159.094L178.79 159.434L178.504 157.876L182.108 157.215C182.339 158.474 182.526 159.552 182.668 160.447C182.819 161.331 182.927 162.065 182.991 162.649C183.065 163.232 183.097 163.703 183.087 164.063C183.075 164.412 183.031 164.675 182.955 164.852C182.877 165.018 182.77 165.141 182.632 165.22C182.493 165.289 182.324 165.342 182.125 165.378ZM176.112 158.754C175.57 158.343 175.03 157.944 174.493 157.554C173.964 157.152 173.427 156.768 172.882 156.402L173.94 155.069C174.473 155.438 175.005 155.823 175.534 156.225C176.072 156.614 176.602 157.021 177.124 157.446L176.112 158.754ZM186.136 164.545C185.947 164.58 185.689 164.622 185.362 164.671C185.033 164.709 184.667 164.755 184.265 164.807L183.89 163.298C184.156 163.271 184.417 163.244 184.673 163.219C184.927 163.184 185.122 163.153 185.258 163.128C185.384 163.105 185.471 163.078 185.52 163.048C185.579 163.015 185.604 162.946 185.596 162.839C185.597 162.73 185.575 162.55 185.529 162.298L185.33 161.212L183.3 161.584L183.014 160.026L185.044 159.654L184.851 158.599L186.645 158.271L186.838 159.325L188.223 159.071L188.509 160.629L187.124 160.883L187.355 162.142C187.445 162.635 187.502 163.032 187.524 163.331C187.555 163.618 187.536 163.839 187.466 163.992C187.395 164.136 187.253 164.248 187.04 164.331C186.826 164.403 186.524 164.474 186.136 164.545ZM186.324 159.891L185.006 159.092C185.289 158.682 185.539 158.273 185.757 157.864C185.986 157.453 186.19 156.999 186.369 156.499L187.688 157.217C187.5 157.729 187.299 158.2 187.085 158.629C186.869 159.048 186.615 159.469 186.324 159.891ZM183.109 158.057L182.834 156.562L187.414 155.722L187.688 157.217L183.109 158.057ZM182.804 157.283L181.233 156.611C181.596 156.046 181.911 155.43 182.179 154.762C182.456 154.083 182.665 153.388 182.806 152.679L184.528 152.754C184.374 153.574 184.152 154.374 183.861 155.153C183.579 155.921 183.227 156.631 182.804 157.283ZM183.508 155.446L183.223 153.888L187.031 153.19L187.317 154.748L183.508 155.446ZM201.007 164.21C200.714 164.264 200.423 164.306 200.136 164.337C199.851 164.379 199.559 164.416 199.262 164.449C198.868 164.489 198.555 164.497 198.323 164.475C198.091 164.452 197.906 164.361 197.769 164.202C197.633 164.053 197.518 163.809 197.423 163.468C197.338 163.126 197.241 162.656 197.132 162.058L196.076 156.298L201.411 155.32L200.814 152.062L195.274 153.078L194.98 151.472L202.361 150.119L203.717 157.516L201.875 157.854L201.705 156.925L198.259 157.557L199 161.601C199.067 161.969 199.126 162.229 199.176 162.383C199.226 162.536 199.296 162.626 199.388 162.653C199.49 162.677 199.643 162.682 199.846 162.666C200.049 162.651 200.241 162.632 200.421 162.61C200.6 162.577 200.783 162.543 200.972 162.509C201.15 162.476 201.344 162.435 201.551 162.386C201.77 162.335 201.994 162.283 202.222 162.231C202.418 162.173 202.57 162.113 202.677 162.05C202.783 161.976 202.846 161.845 202.866 161.657C202.896 161.467 202.89 161.17 202.849 160.766C202.805 160.351 202.732 159.773 202.628 159.033L204.549 158.86C204.679 159.866 204.761 160.67 204.796 161.271C204.83 161.872 204.794 162.329 204.689 162.641C204.596 162.961 204.411 163.196 204.135 163.344C203.87 163.501 203.495 163.64 203.007 163.762C202.686 163.843 202.348 163.921 201.993 163.997C201.64 164.083 201.312 164.154 201.007 164.21ZM191.494 166.263L190.62 161.495L195.939 160.52L196.701 164.674L193.081 165.338L192.824 163.937L194.854 163.565L194.606 162.212L192.576 162.584L193.193 165.952L191.494 166.263ZM190.595 160.653L190.336 159.237L195.451 158.299L195.71 159.716L190.595 160.653ZM190.186 158.419L189.926 157.002L195.041 156.065L195.301 157.481L190.186 158.419ZM189.222 156.269L188.943 154.742L195.159 153.603L195.439 155.129L189.222 156.269ZM189.226 153.893L188.958 152.43L194.214 151.466L194.482 152.93L189.226 153.893ZM216.237 160.328C215.293 160.502 214.424 160.525 213.631 160.4C212.849 160.272 212.205 160.016 211.701 159.631C211.205 159.234 210.903 158.736 210.793 158.138C210.597 157.068 211.093 155.839 212.28 154.45L213.821 155.224C213.348 155.778 213.011 156.246 212.81 156.63C212.62 157.012 212.553 157.355 212.608 157.659C212.666 157.974 212.842 158.223 213.136 158.408C213.43 158.593 213.814 158.707 214.289 158.75C214.763 158.793 215.309 158.758 215.928 158.645C216.453 158.548 217.034 158.404 217.671 158.211C218.316 158.006 218.963 157.774 219.609 157.514L220.164 159.121C219.509 159.393 218.843 159.634 218.166 159.845C217.499 160.054 216.856 160.215 216.237 160.328ZM210.337 151.569L210.025 149.869L218.099 148.389L218.41 150.089L210.337 151.569ZM208.417 162.478C207.946 161.447 207.551 160.419 207.233 159.393C206.915 158.367 206.648 157.266 206.432 156.091C206.219 154.926 206.08 153.813 206.015 152.751C205.949 151.679 205.953 150.578 206.028 149.447L207.944 149.34C207.879 150.404 207.877 151.461 207.94 152.512C208.011 153.551 208.148 154.627 208.352 155.739C208.556 156.851 208.81 157.911 209.114 158.918C209.428 159.923 209.803 160.901 210.237 161.851L208.417 162.478Z" fill="white"/>
<defs>
<filter id="filter0_d_122_1164" x="27" y="0" width="262.18" height="27" filterUnits="userSpaceOnUse" color-interpolation-filters="sRGB">
<feFlood flood-opacity="0" result="BackgroundImageFix"/>
<feColorMatrix in="SourceAlpha" type="matrix" values="0 0 0 0 0 0 0 0 0 0 0 0 0 0 0 0 0 0 127 0" result="hardAlpha"/>
<feOffset/>
<feGaussianBlur stdDeviation="2"/>
<feComposite in2="hardAlpha" operator="out"/>
<feColorMatrix type="matrix" values="0 0 0 0 1 0 0 0 0 1 0 0 0 0 1 0 0 0 0.6 0"/>
<feBlend mode="normal" in2="BackgroundImageFix" result="effect1_dropShadow_122_1164"/>
<feBlend mode="normal" in="SourceGraphic" in2="effect1_dropShadow_122_1164" result="shape"/>
</filter>
<filter id="filter1_d_122_1164" x="31" y="27" width="134.954" height="58.2705" filterUnits="userSpaceOnUse" color-interpolation-filters="sRGB">
<feFlood flood-opacity="0" result="BackgroundImageFix"/>
<feColorMatrix in="SourceAlpha" type="matrix" values="0 0 0 0 0 0 0 0 0 0 0 0 0 0 0 0 0 0 127 0" result="hardAlpha"/>
<feOffset/>
<feGaussianBlur stdDeviation="3"/>
<feComposite in2="hardAlpha" operator="out"/>
<feColorMatrix type="matrix" values="0 0 0 0 0.282353 0 0 0 0 0.737255 0 0 0 0 0.796078 0 0 0 0.25 0"/>
<feBlend mode="normal" in2="BackgroundImageFix" result="effect1_dropShadow_122_1164"/>
<feBlend mode="normal" in="SourceGraphic" in2="effect1_dropShadow_122_1164" result="shape"/>
</filter>
<filter id="filter2_d_122_1164" x="0" y="74" width="135.417" height="71.0701" filterUnits="userSpaceOnUse" color-interpolation-filters="sRGB">
<feFlood flood-opacity="0" result="BackgroundImageFix"/>
<feColorMatrix in="SourceAlpha" type="matrix" values="0 0 0 0 0 0 0 0 0 0 0 0 0 0 0 0 0 0 127 0" result="hardAlpha"/>
<feOffset/>
<feGaussianBlur stdDeviation="3"/>
<feComposite in2="hardAlpha" operator="out"/>
<feColorMatrix type="matrix" values="0 0 0 0 0.282353 0 0 0 0 0.737255 0 0 0 0 0.796078 0 0 0 0.25 0"/>
<feBlend mode="normal" in2="BackgroundImageFix" result="effect1_dropShadow_122_1164"/>
<feBlend mode="normal" in="SourceGraphic" in2="effect1_dropShadow_122_1164" result="shape"/>
</filter>
<filter id="filter3_d_122_1164" x="181" y="30" width="135.417" height="71.0701" filterUnits="userSpaceOnUse" color-interpolation-filters="sRGB">
<feFlood flood-opacity="0" result="BackgroundImageFix"/>
<feColorMatrix in="SourceAlpha" type="matrix" values="0 0 0 0 0 0 0 0 0 0 0 0 0 0 0 0 0 0 127 0" result="hardAlpha"/>
<feOffset/>
<feGaussianBlur stdDeviation="3"/>
<feComposite in2="hardAlpha" operator="out"/>
<feColorMatrix type="matrix" values="0 0 0 0 0.282353 0 0 0 0 0.737255 0 0 0 0 0.796078 0 0 0 0.25 0"/>
<feBlend mode="normal" in2="BackgroundImageFix" result="effect1_dropShadow_122_1164"/>
<feBlend mode="normal" in="SourceGraphic" in2="effect1_dropShadow_122_1164" result="shape"/>
</filter>
<filter id="filter4_d_122_1164" x="141" y="69" width="135.417" height="71.0701" filterUnits="userSpaceOnUse" color-interpolation-filters="sRGB">
<feFlood flood-opacity="0" result="BackgroundImageFix"/>
<feColorMatrix in="SourceAlpha" type="matrix" values="0 0 0 0 0 0 0 0 0 0 0 0 0 0 0 0 0 0 127 0" result="hardAlpha"/>
<feOffset/>
<feGaussianBlur stdDeviation="3"/>
<feComposite in2="hardAlpha" operator="out"/>
<feColorMatrix type="matrix" values="0 0 0 0 0.282353 0 0 0 0 0.737255 0 0 0 0 0.796078 0 0 0 0.25 0"/>
<feBlend mode="normal" in2="BackgroundImageFix" result="effect1_dropShadow_122_1164"/>
<feBlend mode="normal" in="SourceGraphic" in2="effect1_dropShadow_122_1164" result="shape"/>
</filter>
<filter id="filter5_d_122_1164" x="7.80371" y="122.374" width="107.486" height="65.5336" filterUnits="userSpaceOnUse" color-interpolation-filters="sRGB">
<feFlood flood-opacity="0" result="BackgroundImageFix"/>
<feColorMatrix in="SourceAlpha" type="matrix" values="0 0 0 0 0 0 0 0 0 0 0 0 0 0 0 0 0 0 127 0" result="hardAlpha"/>
<feOffset/>
<feGaussianBlur stdDeviation="3"/>
<feComposite in2="hardAlpha" operator="out"/>
<feColorMatrix type="matrix" values="0 0 0 0 0.282353 0 0 0 0 0.737255 0 0 0 0 0.796078 0 0 0 0.25 0"/>
<feBlend mode="normal" in2="BackgroundImageFix" result="effect1_dropShadow_122_1164"/>
<feBlend mode="normal" in="SourceGraphic" in2="effect1_dropShadow_122_1164" result="shape"/>
</filter>
<filter id="filter6_d_122_1164" x="136" y="130" width="106.737" height="56.9332" filterUnits="userSpaceOnUse" color-interpolation-filters="sRGB">
<feFlood flood-opacity="0" result="BackgroundImageFix"/>
<feColorMatrix in="SourceAlpha" type="matrix" values="0 0 0 0 0 0 0 0 0 0 0 0 0 0 0 0 0 0 127 0" result="hardAlpha"/>
<feOffset/>
<feGaussianBlur stdDeviation="3"/>
<feComposite in2="hardAlpha" operator="out"/>
<feColorMatrix type="matrix" values="0 0 0 0 0.282353 0 0 0 0 0.737255 0 0 0 0 0.796078 0 0 0 0.25 0"/>
<feBlend mode="normal" in2="BackgroundImageFix" result="effect1_dropShadow_122_1164"/>
<feBlend mode="normal" in="SourceGraphic" in2="effect1_dropShadow_122_1164" result="shape"/>
</filter>
</defs>
</svg>
