<svg width="318" height="193" viewBox="0 0 318 193" fill="none" xmlns="http://www.w3.org/2000/svg">
<g filter="url(#filter0_d_122_1157)">
<rect x="17" y="5" width="64" height="17" stroke="white" stroke-width="2"/>
<rect x="87" y="5" width="64" height="17" stroke="white" stroke-width="2"/>
<rect x="173" y="5" width="64" height="17" stroke="white" stroke-width="2"/>
<path d="M163.824 18.564C162.856 18.564 162.012 18.392 161.292 18.048C160.58 17.712 160.028 17.236 159.636 16.62C159.244 15.996 159.048 15.264 159.048 14.424C159.048 13.768 159.164 13.16 159.396 12.6C159.636 12.04 159.972 11.552 160.404 11.136C160.844 10.712 161.364 10.388 161.964 10.164L162.084 10.536L156.372 10.668V9.384L166.488 9.144V10.428L164.964 10.464C164.324 10.48 163.732 10.584 163.188 10.776C162.652 10.96 162.188 11.22 161.796 11.556C161.412 11.892 161.112 12.292 160.896 12.756C160.68 13.212 160.572 13.72 160.572 14.28C160.572 14.888 160.704 15.416 160.968 15.864C161.232 16.304 161.604 16.644 162.084 16.884C162.572 17.124 163.156 17.244 163.836 17.244C163.98 17.244 164.14 17.24 164.316 17.232C164.5 17.216 164.684 17.2 164.868 17.184C165.06 17.16 165.228 17.136 165.372 17.112L165.528 18.432C165.36 18.456 165.176 18.476 164.976 18.492C164.776 18.516 164.576 18.532 164.376 18.54C164.176 18.556 163.992 18.564 163.824 18.564ZM165.048 14.82C164.864 14.412 164.664 14.024 164.448 13.656C164.24 13.28 164 12.896 163.728 12.504L164.772 11.928C165.044 12.32 165.288 12.708 165.504 13.092C165.72 13.468 165.924 13.868 166.116 14.292L165.048 14.82ZM166.872 14.136C166.696 13.72 166.504 13.328 166.296 12.96C166.096 12.584 165.864 12.2 165.6 11.808L166.644 11.256C166.908 11.656 167.144 12.048 167.352 12.432C167.568 12.816 167.764 13.224 167.94 13.656L166.872 14.136Z" fill="white"/>
<path d="M249.02 17.124C249.444 17.076 249.832 16.956 250.184 16.764C250.544 16.564 250.852 16.312 251.108 16.008C251.372 15.696 251.576 15.34 251.72 14.94C251.864 14.54 251.936 14.108 251.936 13.644C251.936 12.988 251.784 12.416 251.48 11.928C251.176 11.432 250.752 11.052 250.208 10.788C249.672 10.524 249.048 10.392 248.336 10.392C247.728 10.392 247.164 10.492 246.644 10.692C246.124 10.892 245.664 11.172 245.264 11.532C244.872 11.884 244.564 12.3 244.34 12.78C244.116 13.252 244.004 13.76 244.004 14.304C244.004 14.696 244.068 15.072 244.196 15.432C244.324 15.792 244.484 16.088 244.676 16.32C244.876 16.544 245.084 16.656 245.3 16.656C245.612 16.656 245.912 16.372 246.2 15.804C246.488 15.236 246.748 14.42 246.98 13.356C247.22 12.284 247.42 11 247.58 9.504L248.972 9.648C248.796 11.136 248.596 12.412 248.372 13.476C248.148 14.54 247.892 15.412 247.604 16.092C247.316 16.772 246.988 17.276 246.62 17.604C246.252 17.924 245.836 18.084 245.372 18.084C244.988 18.084 244.632 17.988 244.304 17.796C243.976 17.604 243.692 17.336 243.452 16.992C243.212 16.648 243.024 16.248 242.888 15.792C242.752 15.328 242.684 14.832 242.684 14.304C242.684 13.552 242.824 12.86 243.104 12.228C243.384 11.588 243.776 11.036 244.28 10.572C244.784 10.108 245.38 9.748 246.068 9.492C246.764 9.228 247.524 9.096 248.348 9.096C249.316 9.096 250.172 9.28 250.916 9.648C251.668 10.016 252.256 10.54 252.68 11.22C253.104 11.9 253.316 12.708 253.316 13.644C253.316 14.276 253.22 14.864 253.028 15.408C252.844 15.952 252.58 16.436 252.236 16.86C251.892 17.276 251.48 17.616 251 17.88C250.52 18.144 249.988 18.312 249.404 18.384L249.02 17.124ZM256.916 18.372V17.1H254.672V16.08H256.916V15.276L256.94 15.156V12.3L256.916 12.228V11.376H254.576V10.356H256.916V9.264H258.344V10.356H260.468V11.376H258.344V12.204L258.332 12.3V15.156L258.344 15.336V16.08H260.312V17.1H258.344V18.372H256.916ZM254.528 18.96L254.456 17.832C254.904 17.816 255.372 17.796 255.86 17.772C256.356 17.74 256.856 17.704 257.36 17.664C257.864 17.616 258.36 17.572 258.848 17.532C259.336 17.492 259.796 17.444 260.228 17.388L260.312 18.444C259.712 18.532 259.08 18.608 258.416 18.672C257.76 18.736 257.1 18.792 256.436 18.84C255.772 18.888 255.136 18.928 254.528 18.96ZM254.84 15.576V11.892H260.336V15.576H256.1V14.628H259.148V14.088H256.1V13.368H259.148V12.828H256.1V15.576H254.84ZM260.924 19.056L259.82 18.336C260.06 17.984 260.272 17.604 260.456 17.196C260.648 16.78 260.812 16.308 260.948 15.78C261.084 15.252 261.196 14.636 261.284 13.932C261.372 13.228 261.436 12.412 261.476 11.484C261.516 10.548 261.536 9.464 261.536 8.232H262.844C262.844 9.496 262.82 10.62 262.772 11.604C262.724 12.588 262.652 13.456 262.556 14.208C262.46 14.96 262.336 15.624 262.184 16.2C262.032 16.776 261.852 17.296 261.644 17.76C261.444 18.216 261.204 18.648 260.924 19.056ZM263.876 18.852C263.724 18.852 263.492 18.836 263.18 18.804C262.876 18.78 262.564 18.752 262.244 18.72L262.22 17.436C262.524 17.476 262.776 17.508 262.976 17.532C263.176 17.548 263.34 17.556 263.468 17.556C263.532 17.556 263.592 17.528 263.648 17.472C263.712 17.408 263.764 17.284 263.804 17.1C263.852 16.908 263.888 16.628 263.912 16.26C263.944 15.884 263.968 15.384 263.984 14.76C264 14.136 264.008 13.356 264.008 12.42V11.832H260.288V10.632H265.412V11.484C265.412 12.652 265.404 13.644 265.388 14.46C265.372 15.276 265.344 15.956 265.304 16.5C265.264 17.044 265.204 17.476 265.124 17.796C265.052 18.108 264.96 18.336 264.848 18.48C264.736 18.632 264.6 18.732 264.44 18.78C264.288 18.828 264.1 18.852 263.876 18.852ZM254.816 9.912L254.756 8.808C255.188 8.792 255.644 8.768 256.124 8.736C256.604 8.704 257.088 8.664 257.576 8.616C258.072 8.568 258.548 8.516 259.004 8.46C259.468 8.404 259.896 8.344 260.288 8.28L260.444 9.408C259.908 9.488 259.316 9.564 258.668 9.636C258.028 9.708 257.376 9.768 256.712 9.816C256.056 9.864 255.424 9.896 254.816 9.912ZM275.924 18.948C275.78 18.948 275.576 18.944 275.312 18.936C275.056 18.928 274.784 18.916 274.496 18.9C274.216 18.884 273.956 18.872 273.716 18.864L273.656 17.616C273.96 17.64 274.264 17.66 274.568 17.676C274.872 17.684 275.108 17.688 275.276 17.688C275.364 17.688 275.44 17.648 275.504 17.568C275.576 17.48 275.636 17.312 275.684 17.064C275.74 16.808 275.788 16.428 275.828 15.924C275.876 15.412 275.916 14.736 275.948 13.896C275.988 13.048 276.024 11.984 276.056 10.704H272.048V9.468H277.388C277.364 10.972 277.336 12.252 277.304 13.308C277.272 14.364 277.232 15.24 277.184 15.936C277.136 16.624 277.076 17.176 277.004 17.592C276.932 18 276.844 18.3 276.74 18.492C276.644 18.684 276.528 18.808 276.392 18.864C276.256 18.92 276.1 18.948 275.924 18.948ZM266.516 15.912L266.384 14.712C267.168 14.576 267.932 14.42 268.676 14.244C269.428 14.06 270.164 13.856 270.884 13.632L270.992 14.832C270.264 15.064 269.528 15.268 268.784 15.444C268.048 15.62 267.292 15.776 266.516 15.912ZM268.328 19.104V11.28H267.368V10.08H268.328V8.256H269.708V10.08H270.824V11.28H269.708V19.104H268.328ZM267.404 13.488L266.276 13.224C266.42 12.576 266.552 11.872 266.672 11.112C266.792 10.352 266.88 9.56 266.936 8.736L268.076 8.808C268.02 9.696 267.936 10.528 267.824 11.304C267.72 12.08 267.58 12.808 267.404 13.488ZM271.748 19.08L270.908 18.084C271.684 17.524 272.384 16.848 273.008 16.056C273.632 15.264 274.164 14.384 274.604 13.416C275.052 12.44 275.392 11.404 275.624 10.308L276.632 10.716C276.48 11.588 276.252 12.436 275.948 13.26C275.652 14.076 275.292 14.848 274.868 15.576C274.444 16.296 273.968 16.956 273.44 17.556C272.912 18.148 272.348 18.656 271.748 19.08ZM271.124 16.512L270.284 15.516C270.788 15.108 271.256 14.62 271.688 14.052C272.12 13.476 272.5 12.84 272.828 12.144C273.164 11.448 273.436 10.712 273.644 9.936L274.796 10.32C274.572 11.168 274.272 11.984 273.896 12.768C273.52 13.552 273.096 14.264 272.624 14.904C272.152 15.544 271.652 16.08 271.124 16.512ZM270.848 13.5L269.984 12.564C270.296 12.196 270.588 11.776 270.86 11.304C271.132 10.824 271.376 10.308 271.592 9.756C271.816 9.204 271.996 8.64 272.132 8.064L273.44 8.22C273.264 8.9 273.04 9.568 272.768 10.224C272.504 10.88 272.204 11.488 271.868 12.048C271.54 12.608 271.2 13.092 270.848 13.5ZM284.504 18.444C283.64 18.444 282.964 18.252 282.476 17.868C281.996 17.476 281.756 16.932 281.756 16.236C281.756 15.524 281.996 14.976 282.476 14.592C282.956 14.208 283.632 14.016 284.504 14.016C284.88 14.016 285.244 14.064 285.596 14.16C285.948 14.248 286.312 14.408 286.688 14.64C287.064 14.872 287.484 15.192 287.948 15.6C288.42 16 288.972 16.512 289.604 17.136L288.716 18.084C288.148 17.508 287.656 17.036 287.24 16.668C286.832 16.292 286.472 16 286.16 15.792C285.848 15.584 285.552 15.44 285.272 15.36C285 15.272 284.72 15.228 284.432 15.228C283.504 15.228 283.04 15.564 283.04 16.236C283.04 16.9 283.504 17.232 284.432 17.232C284.936 17.232 285.292 17.128 285.5 16.92C285.716 16.704 285.824 16.352 285.824 15.864V8.448H287.216V15.924C287.216 16.764 286.984 17.396 286.52 17.82C286.064 18.236 285.392 18.444 284.504 18.444ZM281.792 11.544V10.332H289.424V11.544H281.792ZM279.572 18.66C279.364 17.836 279.212 17.024 279.116 16.224C279.02 15.424 278.972 14.576 278.972 13.68C278.972 12.792 279.02 11.952 279.116 11.16C279.212 10.36 279.36 9.548 279.56 8.724L280.976 8.904C280.784 9.68 280.64 10.46 280.544 11.244C280.456 12.02 280.412 12.832 280.412 13.68C280.412 14.528 280.456 15.344 280.544 16.128C280.64 16.912 280.784 17.684 280.976 18.444L279.572 18.66ZM295.184 15.372C295.184 15.036 295.22 14.72 295.292 14.424C295.364 14.128 295.496 13.844 295.688 13.572C295.88 13.292 296.148 13.032 296.492 12.792C296.764 12.6 296.984 12.424 297.152 12.264C297.32 12.104 297.436 11.948 297.5 11.796C297.572 11.644 297.608 11.492 297.608 11.34C297.608 11.028 297.468 10.804 297.188 10.668C296.916 10.524 296.48 10.452 295.88 10.452C295.456 10.452 295.036 10.488 294.62 10.56C294.204 10.624 293.768 10.732 293.312 10.884L293 9.576C293.456 9.432 293.952 9.32 294.488 9.24C295.024 9.16 295.556 9.12 296.084 9.12C298.148 9.12 299.18 9.788 299.18 11.124C299.18 11.428 299.128 11.708 299.024 11.964C298.928 12.212 298.768 12.456 298.544 12.696C298.32 12.936 298.024 13.184 297.656 13.44C297.416 13.608 297.224 13.796 297.08 14.004C296.936 14.212 296.836 14.432 296.78 14.664C296.724 14.896 296.688 15.132 296.672 15.372H295.184ZM295.076 18V16.368H296.78V18H295.076Z" fill="white"/>
</g>
<g filter="url(#filter1_d_122_1157)">
<rect x="61" y="158.552" width="91" height="29" transform="rotate(-15 61 158.552)" fill="#128FCD" fill-opacity="0.2" shape-rendering="crispEdges"/>
<rect x="62.2247" y="159.26" width="89" height="27" transform="rotate(-15 62.2247 159.26)" stroke="#48BCCB" stroke-opacity="0.5" stroke-width="2" shape-rendering="crispEdges"/>
</g>
<path d="M94.2293 172.251C93.0547 172.566 92.0417 172.638 91.1902 172.469C90.3517 172.307 89.65 171.893 89.0851 171.227C88.5305 170.559 88.0931 169.627 87.7729 168.432L85.7561 160.905L87.6416 160.4L89.6583 167.926C89.9813 169.132 90.4684 169.94 91.1196 170.351C91.768 170.751 92.6486 170.803 93.7614 170.504C94.5753 170.286 95.2513 169.945 95.7895 169.481C96.3379 169.013 96.7748 168.377 97.1002 167.572C97.4332 166.754 97.6862 165.72 97.8592 164.47L99.761 164.706C99.625 165.847 99.4166 166.841 99.1359 167.689C98.8628 168.525 98.5087 169.243 98.0738 169.846C97.6465 170.435 97.1153 170.925 96.4802 171.316C95.8451 171.707 95.0948 172.019 94.2293 172.251ZM94.4498 162.75C94.0693 162.278 93.6764 161.842 93.2713 161.442C92.8764 161.04 92.4361 160.634 91.9506 160.223L93.0964 159.121C93.5819 159.532 94.0301 159.947 94.4408 160.367C94.8487 160.777 95.2495 161.222 95.6431 161.701L94.4498 162.75ZM96.5629 161.24C96.1927 160.765 95.8087 160.321 95.4111 159.908C95.0238 159.493 94.5925 159.079 94.1172 158.665L95.2754 157.609C95.7507 158.023 96.1885 158.441 96.5889 158.864C96.9996 159.284 97.3942 159.747 97.7727 160.253L96.5629 161.24ZM104.422 167.698L102.385 160.094L104.069 159.642L105.167 163.738L104.224 163.991C104.262 163.307 104.388 162.666 104.603 162.067C104.828 161.465 105.131 160.926 105.511 160.449C105.901 159.969 106.371 159.556 106.919 159.21C107.466 158.865 108.08 158.601 108.76 158.419C109.657 158.178 110.471 158.126 111.203 158.261C111.942 158.383 112.568 158.679 113.081 159.149C113.59 159.609 113.947 160.22 114.152 160.983C114.359 161.755 114.362 162.467 114.16 163.117C113.959 163.767 113.569 164.33 112.99 164.806C112.421 165.278 111.683 165.636 110.776 165.879C109.941 166.103 109.176 166.153 108.481 166.03C107.785 165.907 107.099 165.611 106.421 165.141L107.011 163.575C107.608 163.989 108.164 164.249 108.678 164.354C109.192 164.459 109.748 164.432 110.345 164.272C111.18 164.048 111.779 163.689 112.144 163.194C112.505 162.688 112.597 162.106 112.421 161.446C112.299 160.993 112.094 160.639 111.805 160.386C111.514 160.121 111.145 159.961 110.699 159.903C110.26 159.833 109.758 159.874 109.191 160.026C108.532 160.203 107.949 160.48 107.443 160.859C106.945 161.224 106.532 161.661 106.204 162.168C105.883 162.662 105.669 163.2 105.559 163.782C105.458 164.35 105.486 164.928 105.643 165.515L106.107 167.246L104.422 167.698ZM107.927 167.487C108.421 167.145 108.781 166.822 109.009 166.518C109.237 166.214 109.35 165.853 109.348 165.433C109.346 165.014 109.257 164.475 109.08 163.816L107.386 157.495L109.102 157.035L110.796 163.356C111.036 164.252 111.142 165.019 111.114 165.656C111.096 166.29 110.914 166.847 110.567 167.326C110.234 167.813 109.731 168.285 109.058 168.741L107.927 167.487ZM121.099 163.295C122.342 162.907 123.437 162.481 124.384 162.017C125.328 161.544 126.112 161.047 126.734 160.526C127.357 160.006 127.797 159.485 128.055 158.963C128.31 158.431 128.367 157.902 128.226 157.377C128.069 156.79 127.689 156.422 127.086 156.274C126.491 156.114 125.657 156.177 124.586 156.464C124.06 156.605 123.488 156.797 122.868 157.04C122.246 157.273 121.538 157.579 120.745 157.957C119.952 158.335 119.022 158.8 117.955 159.351L117.051 157.771C118.464 157.028 119.767 156.408 120.959 155.912C122.149 155.405 123.217 155.025 124.165 154.771C125.865 154.316 127.217 154.252 128.222 154.579C129.226 154.906 129.876 155.621 130.171 156.723C130.389 157.537 130.361 158.34 130.087 159.131C129.821 159.909 129.33 160.653 128.615 161.364C127.9 162.075 126.982 162.729 125.862 163.328C124.751 163.923 123.456 164.447 121.976 164.899L121.099 163.295ZM126.486 152.244C125.775 152.435 124.968 152.635 124.063 152.844C123.166 153.04 122.229 153.231 121.251 153.415C120.281 153.587 119.335 153.746 118.414 153.894L118.166 152.039C118.956 151.938 119.81 151.808 120.728 151.65C121.647 151.493 122.565 151.313 123.483 151.111C124.4 150.909 125.246 150.705 126.018 150.498L126.486 152.244Z" fill="white"/>
<g filter="url(#filter2_d_122_1157)">
<rect x="85.5059" y="41" width="91" height="29" transform="rotate(45 85.5059 41)" fill="#128FCD" fill-opacity="0.2" shape-rendering="crispEdges"/>
<rect x="85.5059" y="42.4142" width="89" height="27" transform="rotate(45 85.5059 42.4142)" stroke="#48BCCB" stroke-opacity="0.5" stroke-width="2" shape-rendering="crispEdges"/>
</g>
<path d="M89.8613 76.3893C89.1145 75.6426 88.6054 74.8469 88.3339 74.0021C88.0699 73.1649 88.0473 72.3352 88.266 71.5131C88.4848 70.691 88.9486 69.9254 89.6576 69.2164C90.2158 68.6583 90.8606 68.2095 91.5923 67.8701C92.3239 67.5307 93.1121 67.3082 93.9568 67.2026C94.8091 67.0894 95.6878 67.1007 96.5929 67.2365L96.5816 67.723L93.1309 64.2723L94.2736 63.1296L98.7878 67.6438L97.5772 68.8544C96.7777 68.6733 95.9707 68.6206 95.1561 68.696C94.349 68.7789 93.5872 68.975 92.8707 69.2843C92.1617 69.6011 91.5432 70.0235 91.0153 70.5514C90.2761 71.2906 89.9027 72.0712 89.8952 72.8934C89.9027 73.7155 90.2761 74.4961 91.0153 75.2353C91.8449 76.065 92.7312 76.4534 93.674 76.4006C94.6243 76.3403 95.5634 75.8462 96.4911 74.9185C96.8908 74.5188 97.2868 74.0398 97.679 73.4817C98.0788 72.9311 98.4559 72.3277 98.8104 71.6715C99.1724 71.0077 99.5081 70.3101 99.8173 69.5784L101.526 69.7255C101.496 70.3893 101.492 71.1096 101.514 71.8864C101.545 72.6558 101.594 73.4289 101.661 74.2058C101.737 74.9902 101.831 75.7331 101.944 76.4346L100.225 76.7966C100.164 76.4044 100.108 75.9782 100.055 75.5181C100.017 75.0581 99.987 74.5527 99.9644 74.0021C99.9493 73.444 99.938 72.8142 99.9305 72.1127L100.292 71.977C100.051 72.6105 99.7834 73.2026 99.4892 73.7532C99.2026 74.2963 98.8896 74.7978 98.5502 75.2579C98.2259 75.718 97.8864 76.1253 97.5319 76.4798C96.74 77.2718 95.9065 77.796 95.0316 78.0524C94.1642 78.3164 93.2893 78.3089 92.4068 78.0298C91.5244 77.7507 90.6758 77.2039 89.8613 76.3893ZM97.1699 82.8607C98.1655 82.4233 99.0744 82.0122 99.8965 81.6275C100.726 81.2353 101.507 80.8469 102.238 80.4622C102.978 80.0851 103.705 79.6816 104.422 79.2517C105.146 78.8293 105.897 78.3579 106.673 77.8375C107.45 77.317 108.295 76.7287 109.208 76.0725L110.373 77.532C109.498 78.1656 108.668 78.7463 107.884 79.2743C107.107 79.7947 106.338 80.2774 105.576 80.7224C104.829 81.1675 104.064 81.5936 103.279 82.0009C102.502 82.4157 101.68 82.823 100.813 83.2228C99.9531 83.6301 99.0178 84.0524 98.0071 84.4899L97.1699 82.8607ZM107.816 90.5427C108.201 90.0223 108.593 89.4491 108.993 88.8231C109.408 88.197 109.804 87.5522 110.181 86.8884C110.558 86.2247 110.909 85.5723 111.233 84.9311L112.862 85.8136C112.523 86.4698 112.157 87.1373 111.765 87.8161C111.387 88.495 110.988 89.1587 110.565 89.8074C110.151 90.4485 109.739 91.0481 109.332 91.6062L107.816 90.5427ZM111.765 84.2184C111.983 83.6074 112.161 83.0455 112.296 82.5326C112.432 82.0198 112.541 81.488 112.624 80.9374L114.107 81.3334C114.024 81.8991 113.903 82.4497 113.744 82.9852C113.594 83.5282 113.409 84.0977 113.19 84.6936L111.765 84.2184ZM113.948 85.2027C114.189 84.5993 114.382 84.0449 114.525 83.5396C114.676 83.0267 114.797 82.5062 114.887 81.9783L116.313 82.3856C116.222 82.9588 116.094 83.5094 115.928 84.0374C115.77 84.5729 115.57 85.1348 115.328 85.7231L113.948 85.2027ZM102.419 88.3592C102.223 88.1631 102.005 87.8916 101.763 87.5446C101.514 87.2052 101.273 86.8281 101.039 86.4132C100.805 86.0135 100.594 85.6137 100.406 85.214L101.854 84.3768C102.027 84.7011 102.197 85.0217 102.363 85.3384C102.544 85.6552 102.714 85.9381 102.872 86.187C103.045 86.4359 103.189 86.6169 103.302 86.73C103.543 86.9714 103.853 87.0619 104.23 87.0016C104.614 86.9337 105.082 86.6999 105.633 86.3001C106.198 85.9004 106.858 85.3234 107.612 84.5691C108.05 84.1316 108.386 83.7658 108.619 83.4717C108.861 83.17 109 82.9022 109.038 82.6684C109.083 82.4421 109.034 82.2121 108.891 81.9783C108.748 81.7445 108.518 81.4692 108.201 81.1524L103.404 76.3554L104.58 75.1787L109.253 79.8513C109.773 80.3717 110.184 80.828 110.486 81.2203C110.803 81.6125 111.003 81.9707 111.086 82.2951C111.176 82.6269 111.15 82.9701 111.007 83.3246C110.878 83.6791 110.626 84.0751 110.249 84.5125C109.887 84.95 109.404 85.4704 108.8 86.0738C107.82 87.0544 106.937 87.7935 106.153 88.2913C105.369 88.7891 104.663 89.0418 104.037 89.0493C103.426 89.0569 102.887 88.8268 102.419 88.3592ZM112.998 99.3674C112.138 98.5076 111.568 97.6666 111.289 96.8445C111.01 96.0374 111.018 95.2229 111.312 94.4007C111.614 93.5861 112.202 92.7414 113.077 91.8665L118.587 86.3567L119.967 87.7369L114.457 93.2467C113.575 94.1292 113.118 94.9551 113.088 95.7244C113.066 96.4862 113.462 97.2744 114.276 98.089C114.872 98.6848 115.506 99.0997 116.177 99.3335C116.856 99.5749 117.625 99.6352 118.485 99.5145C119.36 99.3938 120.382 99.0959 121.551 98.6207L122.298 100.386C121.242 100.838 120.276 101.155 119.401 101.336C118.542 101.517 117.742 101.57 117.003 101.494C116.279 101.419 115.589 101.204 114.932 100.85C114.276 100.495 113.631 100.001 112.998 99.3674Z" fill="white"/>
<g filter="url(#filter3_d_122_1157)">
<rect x="156" y="60.5526" width="91" height="29" transform="rotate(-15 156 60.5526)" fill="#128FCD" fill-opacity="0.2" shape-rendering="crispEdges"/>
<rect x="157.225" y="61.2597" width="89" height="27" transform="rotate(-15 157.225 61.2597)" stroke="#48BCCB" stroke-opacity="0.5" stroke-width="2" shape-rendering="crispEdges"/>
</g>
<path d="M198.072 71.7657C196.99 72.0555 196.088 72.2363 195.368 72.3079C194.65 72.3899 194.058 72.3442 193.592 72.1709C193.136 71.9949 192.765 71.6803 192.478 71.2271C192.198 70.7609 191.953 70.1363 191.744 69.3533L189.371 60.4977L191.194 60.009L193.567 68.8646C193.697 69.3489 193.842 69.7242 194.001 69.9906C194.171 70.2542 194.396 70.4316 194.674 70.5226C194.952 70.6137 195.325 70.6242 195.792 70.5543C196.27 70.4816 196.885 70.3444 197.637 70.1429C198.409 69.9359 199.228 69.6944 200.093 69.4185C200.955 69.1323 201.786 68.8325 202.585 68.5189L203.159 70.1044C202.339 70.4235 201.481 70.7251 200.585 71.0093C199.693 71.3037 198.855 71.5559 198.072 71.7657ZM187.772 65.3488L187.353 63.7879L201.86 59.5696L202.278 61.1305L187.772 65.3488ZM199.224 67.349C198.904 67.4346 198.532 67.5068 198.106 67.5657C197.677 67.6143 197.232 67.6451 196.772 67.658C196.319 67.6579 195.874 67.6447 195.436 67.6184L195.438 65.8951C195.982 65.9041 196.424 65.907 196.766 65.9039C197.115 65.8876 197.402 65.866 197.626 65.8389C197.861 65.8091 198.066 65.7707 198.242 65.7238C198.406 65.6796 198.5 65.6159 198.522 65.5328C198.541 65.4393 198.502 65.2123 198.405 64.8517L196.629 58.2215L198.468 57.7288L200.406 64.9616C200.536 65.4459 200.588 65.846 200.562 66.1621C200.534 66.4679 200.412 66.7158 200.198 66.9057C199.981 67.0853 199.656 67.233 199.224 67.349ZM207.433 69.4891L205.669 69.3325L207.305 55.4105L209.138 55.4496L208.229 62.8157L207.558 62.598C207.96 62.0375 208.387 61.5698 208.838 61.1948C209.3 60.817 209.779 60.5619 210.273 60.4294C210.654 60.3272 211.006 60.3213 211.329 60.4116C211.648 60.4916 211.947 60.6599 212.226 60.9166C212.502 61.1629 212.765 61.4845 213.014 61.8814C213.275 62.2754 213.536 62.7355 213.798 63.2615C214.007 63.6694 214.201 64.0206 214.379 64.3152C214.567 64.6069 214.762 64.8197 214.964 64.9535C215.176 65.0844 215.41 65.1154 215.668 65.0464C216.121 64.9249 216.45 64.5222 216.653 63.8383C216.853 63.1441 216.941 62.1103 216.915 60.7368L218.683 60.8429C218.721 62.0583 218.658 63.0801 218.494 63.9083C218.326 64.7261 218.042 65.3765 217.642 65.8593C217.244 66.3524 216.72 66.6859 216.071 66.8599C215.628 66.9786 215.226 67.0035 214.865 66.9345C214.515 66.8628 214.186 66.7079 213.879 66.4698C213.573 66.2318 213.28 65.9236 213.002 65.5453C212.732 65.154 212.468 64.7057 212.211 64.2003C211.987 63.7745 211.768 63.4134 211.557 63.1168C211.355 62.8175 211.138 62.6051 210.905 62.4796C210.683 62.3514 210.423 62.3273 210.124 62.4074C209.928 62.4598 209.713 62.5618 209.477 62.7132C209.242 62.8646 209.016 63.0741 208.801 63.3417C208.593 63.5962 208.41 63.9214 208.251 64.3173C208.089 64.703 207.975 65.1642 207.909 65.7009L207.433 69.4891Z" fill="white"/>
<g filter="url(#filter4_d_122_1157)">
<rect x="186.5" y="105" width="91" height="29" transform="rotate(30 186.5 105)" fill="#128FCD" fill-opacity="0.2" shape-rendering="crispEdges"/>
<rect x="186.866" y="106.366" width="89" height="27" transform="rotate(30 186.866 106.366)" stroke="#48BCCB" stroke-opacity="0.5" stroke-width="2" shape-rendering="crispEdges"/>
</g>
<path d="M210.199 143.135C209.368 142.655 208.691 142.11 208.168 141.501C207.655 140.896 207.331 140.284 207.196 139.664C207.076 139.041 207.168 138.466 207.472 137.939C208.016 136.997 209.19 136.382 210.995 136.093L211.666 137.682C210.947 137.796 210.387 137.935 209.985 138.097C209.593 138.265 209.32 138.483 209.165 138.75C209.005 139.028 208.977 139.332 209.081 139.663C209.186 139.994 209.405 140.33 209.738 140.67C210.071 141.01 210.51 141.338 211.055 141.652C211.517 141.919 212.053 142.185 212.663 142.451C213.288 142.713 213.93 142.955 214.591 143.176L213.973 144.759C213.297 144.542 212.634 144.294 211.981 144.016C211.338 143.743 210.744 143.45 210.199 143.135ZM211.381 132.64L212.245 131.143L219.353 135.247L218.489 136.744L211.381 132.64ZM202.85 139.705C203.159 138.615 203.525 137.576 203.947 136.588C204.37 135.6 204.88 134.589 205.477 133.554C206.069 132.529 206.684 131.591 207.323 130.74C207.967 129.881 208.684 129.044 209.474 128.232L211.003 129.391C210.264 130.159 209.577 130.964 208.944 131.805C208.325 132.643 207.733 133.551 207.167 134.53C206.602 135.509 206.109 136.481 205.688 137.445C205.276 138.414 204.928 139.402 204.643 140.407L202.85 139.705ZM221.233 150.263C220.18 149.655 219.413 148.99 218.93 148.268C218.452 147.561 218.248 146.772 218.32 145.902C218.4 145.037 218.75 144.069 219.369 142.997L223.265 136.249L224.955 137.225L221.059 143.973C220.435 145.054 220.208 145.97 220.378 146.721C220.553 147.462 221.14 148.121 222.137 148.697C222.867 149.119 223.587 149.355 224.295 149.407C225.014 149.465 225.772 149.324 226.572 148.985C227.386 148.642 228.296 148.09 229.302 147.328L230.48 148.84C229.577 149.55 228.727 150.106 227.928 150.507C227.145 150.905 226.386 151.163 225.653 151.281C224.934 151.396 224.211 151.367 223.486 151.194C222.76 151.021 222.009 150.711 221.233 150.263Z" fill="white"/>
<g filter="url(#filter5_d_122_1157)">
<rect x="6" y="158.808" width="91" height="29" transform="rotate(-60 6 158.808)" fill="#128FCD" fill-opacity="0.2" shape-rendering="crispEdges"/>
<rect x="7.36603" y="158.442" width="89" height="27" transform="rotate(-60 7.36603 158.442)" stroke="#48BCCB" stroke-opacity="0.5" stroke-width="2" shape-rendering="crispEdges"/>
</g>
<path d="M39.7134 143.918C39.0307 145.101 38.2928 146.048 37.4998 146.76C36.7214 147.469 35.9348 147.914 35.1402 148.095C34.3509 148.268 33.6006 148.149 32.8893 147.738C32.2703 147.381 31.7819 146.84 31.4239 146.116C31.0567 145.387 30.8283 144.534 30.7387 143.559L32.3125 142.657C32.4054 143.499 32.5828 144.205 32.8449 144.775C33.1031 145.33 33.44 145.728 33.8557 145.968C34.2714 146.208 34.7223 146.259 35.2085 146.121C35.6854 145.978 36.1758 145.651 36.6795 145.141C37.1739 144.626 37.6692 143.939 38.1652 143.08C38.5598 142.396 38.9289 141.661 39.2725 140.874C39.616 140.087 39.9 139.296 40.1245 138.502L41.749 139.145C41.4925 139.994 41.1864 140.834 40.8308 141.663C40.4805 142.483 40.108 143.235 39.7134 143.918ZM27.7238 145.421L26.3105 144.605L32.5773 133.11L33.9907 133.926L27.7238 145.421ZM37.301 140.161C36.4837 140.083 35.6804 139.97 34.8912 139.823C34.102 139.675 33.3196 139.494 32.5439 139.28C31.7643 139.052 30.9869 138.788 30.2116 138.488C29.4416 138.179 28.6738 137.834 27.9081 137.454L28.769 135.771C29.5069 136.135 30.2378 136.458 30.9616 136.741C31.6907 137.014 32.422 137.251 33.1553 137.453C33.8941 137.646 34.6488 137.81 35.4195 137.948C36.1864 138.07 36.9857 138.168 37.8176 138.242L37.301 140.161ZM45.6559 133.05C45.3839 133.521 44.9901 133.872 44.4744 134.104C43.9495 134.331 43.3384 134.44 42.6412 134.431C41.944 134.423 41.1917 134.296 40.3844 134.052C39.5732 133.793 38.7519 133.424 37.9205 132.944C37.2462 132.554 36.5669 132.088 35.8827 131.545C35.1945 130.988 34.5041 130.349 33.8114 129.629L34.9413 128.12C35.5854 128.775 36.2218 129.358 36.8507 129.869C37.4795 130.38 38.0987 130.811 38.7084 131.163C39.2904 131.499 39.8667 131.77 40.4373 131.976C41.008 132.183 41.5326 132.319 42.0113 132.386C42.4952 132.444 42.9067 132.435 43.2458 132.36C43.5901 132.276 43.829 132.118 43.9623 131.887C44.0903 131.665 44.1366 131.372 44.1012 131.006C44.0619 130.627 43.9606 130.205 43.7972 129.741C43.6339 129.277 43.4138 128.805 43.1367 128.325C42.865 127.836 42.5509 127.377 42.1942 126.949L43.7985 125.899C44.2933 126.492 44.7146 127.117 45.0622 127.774C45.4099 128.43 45.6716 129.086 45.8473 129.742C46.0191 130.383 46.0878 130.989 46.0535 131.561C46.0285 132.138 45.8959 132.634 45.6559 133.05ZM48.3279 125.318C47.2748 124.71 46.1837 124.178 45.0545 123.723C43.9306 123.259 42.8083 122.888 41.6876 122.611C40.5723 122.324 39.5034 122.138 38.4811 122.053L38.9118 120.251C39.9978 120.311 41.1196 120.491 42.2772 120.79C43.431 121.074 44.6002 121.46 45.7848 121.946C46.9655 122.419 48.1332 122.988 49.2879 123.655L48.3279 125.318ZM55.2712 117.003C54.6472 118.084 53.9758 118.959 53.2571 119.628C52.5529 120.293 51.8511 120.719 51.1517 120.907C50.4577 121.085 49.815 121.003 49.2238 120.662C48.725 120.374 48.2845 119.91 47.9023 119.271C47.5163 118.617 47.1661 117.762 46.852 116.706L48.4242 115.711C48.6507 116.556 48.901 117.242 49.1752 117.77C49.4493 118.298 49.7434 118.652 50.0575 118.834C50.3808 119.02 50.7525 119.038 51.1726 118.886C51.598 118.726 52.0374 118.413 52.4906 117.948C52.9346 117.477 53.3673 116.877 53.7886 116.147C54.0553 115.685 54.3209 115.161 54.5854 114.575C54.85 113.989 55.0908 113.401 55.3077 112.812C55.5208 112.208 55.6846 111.669 55.7992 111.193L57.4738 111.716C57.3592 112.192 57.1828 112.743 56.9445 113.369C56.7208 113.991 56.4607 114.623 56.1641 115.265C55.8728 115.897 55.5752 116.477 55.2712 117.003ZM43.1667 116.241L41.6841 115.385L46.9961 106.184L48.4787 107.04L43.1667 116.241ZM52.4516 111.551C51.8578 111.492 51.2765 111.464 50.7075 111.468C50.1347 111.457 49.5313 111.479 48.8973 111.531L48.9282 109.942C49.5622 109.889 50.1729 109.866 50.7603 109.873C51.3384 109.874 51.9363 109.905 52.5539 109.966L52.4516 111.551ZM52.8778 108.989C52.2801 108.915 51.6995 108.875 51.1359 108.87C50.5684 108.85 49.973 108.858 49.3496 108.892L49.4002 107.332C50.0381 107.294 50.6481 107.283 51.2302 107.299C51.8176 107.305 52.4194 107.351 53.0355 107.436L52.8778 108.989Z" fill="white"/>
<g filter="url(#filter6_d_122_1157)">
<rect x="241" y="115.808" width="91" height="29" transform="rotate(-60 241 115.808)" fill="#128FCD" fill-opacity="0.2" shape-rendering="crispEdges"/>
<rect x="242.366" y="115.442" width="89" height="27" transform="rotate(-60 242.366 115.442)" stroke="#48BCCB" stroke-opacity="0.5" stroke-width="2" shape-rendering="crispEdges"/>
</g>
<path d="M270.638 107.785C270.062 108.782 269.404 109.431 268.665 109.731C267.931 110.021 267.175 109.942 266.399 109.494C265.624 109.046 265.192 108.44 265.104 107.675C265.012 106.895 265.254 106.006 265.83 105.009C266.102 104.538 266.406 104.128 266.742 103.78C267.079 103.433 267.487 103.12 267.967 102.843C268.453 102.557 269.057 102.29 269.779 102.041C270.497 101.779 271.366 101.511 272.386 101.237L272.814 102.833C271.896 103.079 271.115 103.312 270.471 103.531C269.827 103.75 269.29 103.976 268.86 104.208C268.436 104.432 268.084 104.678 267.805 104.948C267.531 105.209 267.296 105.51 267.098 105.852C266.528 106.84 266.593 107.537 267.295 107.942C267.979 108.337 268.593 108.063 269.137 107.121C269.457 106.567 269.563 106.105 269.457 105.735C269.341 105.36 268.996 105.008 268.423 104.677L261.939 100.933L259.411 105.312L258.011 104.504L262.819 96.1758L264.219 96.9838L262.843 99.3671L269.411 103.159C270.399 103.73 270.995 104.394 271.198 105.152C271.406 105.9 271.22 106.778 270.638 107.785ZM262.514 107.104L261.143 106.312L265.951 97.9838L267.322 98.7758L262.514 107.104ZM267.56 113.564C266.481 113.236 265.447 112.861 264.459 112.439C263.472 112.016 262.46 111.506 261.426 110.909C260.4 110.317 259.462 109.702 258.612 109.063C257.752 108.419 256.911 107.711 256.087 106.94L257.231 105.439C257.999 106.178 258.806 106.859 259.653 107.484C260.49 108.103 261.399 108.695 262.378 109.26C263.357 109.825 264.329 110.319 265.293 110.74C266.256 111.161 267.241 111.514 268.247 111.799L267.56 113.564ZM274.85 97.4499C275.454 96.2962 275.927 95.2207 276.269 94.2233C276.602 93.2206 276.804 92.3152 276.877 91.5072C276.949 90.6991 276.892 90.0195 276.705 89.4683C276.509 88.9117 276.176 88.4974 275.705 88.2254C275.178 87.9214 274.649 87.9303 274.119 88.2521C273.584 88.5593 273.04 89.1933 272.485 90.154C272.213 90.6251 271.944 91.1657 271.678 91.7758C271.403 92.3805 271.118 93.097 270.825 93.9252C270.532 94.7535 270.202 95.7397 269.837 96.8838L268.081 96.4056C268.555 94.881 269.038 93.5217 269.53 92.3278C270.013 91.1287 270.5 90.1041 270.991 89.2543C271.871 87.7301 272.781 86.7286 273.723 86.2499C274.664 85.7712 275.629 85.8171 276.618 86.3878C277.348 86.8091 277.895 87.3964 278.261 88.1495C278.623 88.888 278.802 89.7614 278.799 90.7695C278.796 91.7777 278.61 92.8895 278.241 94.1051C277.877 95.3114 277.331 96.5977 276.604 97.9638L274.85 97.4499ZM270.845 85.8263C270.477 86.4637 270.047 87.1762 269.556 87.9639C269.06 88.737 268.532 89.5344 267.971 90.3562C267.407 91.1634 266.851 91.9448 266.304 92.7005L264.816 91.5646C265.303 90.9344 265.816 90.2387 266.354 89.4777C266.892 88.7167 267.414 87.9404 267.92 87.1489C268.426 86.3573 268.879 85.6151 269.279 84.9223L270.845 85.8263ZM282.415 86.7788C281.735 85.9303 281.102 85.1588 280.518 84.4643C279.925 83.7644 279.347 83.1109 278.786 82.5037C278.231 81.8874 277.653 81.2888 277.052 80.7079C276.456 80.1178 275.807 79.5149 275.103 78.8992C274.399 78.2835 273.612 77.6198 272.742 76.9081L273.851 75.4048C274.689 76.0859 275.465 76.737 276.178 77.358C276.881 77.9737 277.547 78.5919 278.174 79.2126C278.797 79.8186 279.407 80.4478 280.003 81.1001C280.605 81.7431 281.211 82.4318 281.822 83.1662C282.438 83.8913 283.088 84.6854 283.772 85.5484L282.415 86.7788ZM287.08 74.5071C286.478 74.2702 285.822 74.0398 285.114 73.8156C284.402 73.577 283.677 73.3614 282.938 73.1689C282.199 72.9764 281.478 72.8065 280.775 72.6592L281.206 70.8571C281.927 71.0151 282.667 71.1957 283.424 71.3988C284.177 71.5874 284.922 71.8018 285.658 72.0419C286.385 72.2766 287.07 72.5185 287.715 72.7675L287.08 74.5071ZM279.949 72.33C279.302 72.2769 278.714 72.2511 278.183 72.2527C277.652 72.2543 277.111 72.2863 276.557 72.3487L276.556 70.8146C277.124 70.7483 277.687 70.7224 278.245 70.7368C278.809 70.7419 279.407 70.773 280.039 70.8301L279.949 72.33ZM280.335 69.9661C279.689 69.8892 279.104 69.8469 278.579 69.8392C278.044 69.8263 277.51 69.8444 276.977 69.8936L277.001 68.4113C277.579 68.3503 278.144 68.3317 278.697 68.3553C279.255 68.3697 279.849 68.4173 280.48 68.4982L280.335 69.9661ZM286.367 80.285C286.229 80.5252 286.023 80.8067 285.75 81.1297C285.487 81.4579 285.185 81.7887 284.845 82.1219C284.519 82.4512 284.188 82.7587 283.851 83.0443L282.667 81.8621C282.935 81.6106 283.201 81.3637 283.464 81.1215C283.723 80.8646 283.953 80.6275 284.152 80.4101C284.348 80.1781 284.485 79.9928 284.565 79.8543C284.736 79.5587 284.743 79.2365 284.587 78.8879C284.422 78.5339 284.075 78.1427 283.547 77.7143C283.014 77.2714 282.286 76.7832 281.362 76.2499C280.827 75.9406 280.386 75.711 280.042 75.5613C279.688 75.4063 279.393 75.3408 279.157 75.3649C278.927 75.3797 278.718 75.4866 278.529 75.6856C278.34 75.8845 278.134 76.178 277.91 76.5659L274.518 82.4411L273.077 81.6091L276.381 75.8864C276.749 75.249 277.083 74.7338 277.384 74.3409C277.681 73.9334 277.975 73.6476 278.267 73.4835C278.564 73.3102 278.902 73.2469 279.282 73.2935C279.657 73.3256 280.105 73.4672 280.625 73.7183C281.142 73.9547 281.769 74.2863 282.508 74.713C283.709 75.4063 284.652 76.0674 285.335 76.6963C286.019 77.3251 286.446 77.9409 286.615 78.5436C286.781 79.1318 286.698 79.7123 286.367 80.285ZM296.91 64.0723C296.042 64.4455 295.261 64.7953 294.568 65.1216C293.884 65.4533 293.246 65.7687 292.654 66.0677C292.063 66.3667 291.495 66.6672 290.951 66.9691C290.398 67.2656 289.826 67.5753 289.233 67.8981C288.62 68.2341 288.121 68.5005 287.737 68.6972C287.348 68.8794 287.025 69.0129 286.766 69.0977C286.513 69.1733 286.29 69.1981 286.095 69.1721C285.897 69.1316 285.692 69.0499 285.479 68.9273C285.258 68.7993 285.082 68.655 284.953 68.4943C284.82 68.3191 284.726 68.0983 284.67 67.8322C284.605 67.5606 284.565 67.2046 284.548 66.7639C284.532 66.3233 284.527 65.7662 284.534 65.0928C284.542 64.3956 284.543 63.6263 284.536 62.7848C284.529 61.9433 284.511 61.0581 284.48 60.1292C284.45 59.2003 284.39 58.26 284.299 57.3083L286.203 57.1143C286.245 57.6808 286.279 58.273 286.304 58.891C286.32 59.5036 286.334 60.109 286.345 60.7071C286.348 61.2998 286.348 61.8661 286.344 62.4058C286.336 62.9311 286.331 63.4087 286.329 63.8386C286.318 64.2633 286.309 64.6092 286.303 64.8765C286.295 65.4017 286.292 65.8125 286.294 66.1088C286.3 66.396 286.323 66.6124 286.362 66.7581C286.397 66.8892 286.466 66.9841 286.567 67.0428C286.669 67.1015 286.773 67.1244 286.879 67.1117C286.99 67.0897 287.161 67.0163 287.393 66.8917C287.626 66.767 287.972 66.5728 288.432 66.3089C288.68 66.1565 289.004 65.9681 289.405 65.7436C289.811 65.5099 290.276 65.2487 290.8 64.96C291.314 64.6659 291.867 64.3694 292.459 64.0704C293.046 63.7568 293.655 63.4492 294.285 63.1477C294.911 62.8316 295.53 62.5367 296.144 62.2629L296.91 64.0723Z" fill="white"/>
<defs>
<filter id="filter0_d_122_1157" x="12" y="0" width="291.18" height="27" filterUnits="userSpaceOnUse" color-interpolation-filters="sRGB">
<feFlood flood-opacity="0" result="BackgroundImageFix"/>
<feColorMatrix in="SourceAlpha" type="matrix" values="0 0 0 0 0 0 0 0 0 0 0 0 0 0 0 0 0 0 127 0" result="hardAlpha"/>
<feOffset/>
<feGaussianBlur stdDeviation="2"/>
<feComposite in2="hardAlpha" operator="out"/>
<feColorMatrix type="matrix" values="0 0 0 0 1 0 0 0 0 1 0 0 0 0 1 0 0 0 0.6 0"/>
<feBlend mode="normal" in2="BackgroundImageFix" result="effect1_dropShadow_122_1157"/>
<feBlend mode="normal" in="SourceGraphic" in2="effect1_dropShadow_122_1157" result="shape"/>
</filter>
<filter id="filter1_d_122_1157" x="55" y="129" width="107.405" height="63.5644" filterUnits="userSpaceOnUse" color-interpolation-filters="sRGB">
<feFlood flood-opacity="0" result="BackgroundImageFix"/>
<feColorMatrix in="SourceAlpha" type="matrix" values="0 0 0 0 0 0 0 0 0 0 0 0 0 0 0 0 0 0 127 0" result="hardAlpha"/>
<feOffset/>
<feGaussianBlur stdDeviation="3"/>
<feComposite in2="hardAlpha" operator="out"/>
<feColorMatrix type="matrix" values="0 0 0 0 0.282353 0 0 0 0 0.737255 0 0 0 0 0.796078 0 0 0 0.25 0"/>
<feBlend mode="normal" in2="BackgroundImageFix" result="effect1_dropShadow_122_1157"/>
<feBlend mode="normal" in="SourceGraphic" in2="effect1_dropShadow_122_1157" result="shape"/>
</filter>
<filter id="filter2_d_122_1157" x="59" y="35" width="96.8525" height="96.8528" filterUnits="userSpaceOnUse" color-interpolation-filters="sRGB">
<feFlood flood-opacity="0" result="BackgroundImageFix"/>
<feColorMatrix in="SourceAlpha" type="matrix" values="0 0 0 0 0 0 0 0 0 0 0 0 0 0 0 0 0 0 127 0" result="hardAlpha"/>
<feOffset/>
<feGaussianBlur stdDeviation="3"/>
<feComposite in2="hardAlpha" operator="out"/>
<feColorMatrix type="matrix" values="0 0 0 0 0.282353 0 0 0 0 0.737255 0 0 0 0 0.796078 0 0 0 0.25 0"/>
<feBlend mode="normal" in2="BackgroundImageFix" result="effect1_dropShadow_122_1157"/>
<feBlend mode="normal" in="SourceGraphic" in2="effect1_dropShadow_122_1157" result="shape"/>
</filter>
<filter id="filter3_d_122_1157" x="150" y="31" width="107.405" height="63.5644" filterUnits="userSpaceOnUse" color-interpolation-filters="sRGB">
<feFlood flood-opacity="0" result="BackgroundImageFix"/>
<feColorMatrix in="SourceAlpha" type="matrix" values="0 0 0 0 0 0 0 0 0 0 0 0 0 0 0 0 0 0 127 0" result="hardAlpha"/>
<feOffset/>
<feGaussianBlur stdDeviation="3"/>
<feComposite in2="hardAlpha" operator="out"/>
<feColorMatrix type="matrix" values="0 0 0 0 0.282353 0 0 0 0 0.737255 0 0 0 0 0.796078 0 0 0 0.25 0"/>
<feBlend mode="normal" in2="BackgroundImageFix" result="effect1_dropShadow_122_1157"/>
<feBlend mode="normal" in="SourceGraphic" in2="effect1_dropShadow_122_1157" result="shape"/>
</filter>
<filter id="filter4_d_122_1157" x="166" y="99" width="105.309" height="82.6147" filterUnits="userSpaceOnUse" color-interpolation-filters="sRGB">
<feFlood flood-opacity="0" result="BackgroundImageFix"/>
<feColorMatrix in="SourceAlpha" type="matrix" values="0 0 0 0 0 0 0 0 0 0 0 0 0 0 0 0 0 0 127 0" result="hardAlpha"/>
<feOffset/>
<feGaussianBlur stdDeviation="3"/>
<feComposite in2="hardAlpha" operator="out"/>
<feColorMatrix type="matrix" values="0 0 0 0 0.282353 0 0 0 0 0.737255 0 0 0 0 0.796078 0 0 0 0.25 0"/>
<feBlend mode="normal" in2="BackgroundImageFix" result="effect1_dropShadow_122_1157"/>
<feBlend mode="normal" in="SourceGraphic" in2="effect1_dropShadow_122_1157" result="shape"/>
</filter>
<filter id="filter5_d_122_1157" x="0" y="74.0001" width="82.6143" height="105.308" filterUnits="userSpaceOnUse" color-interpolation-filters="sRGB">
<feFlood flood-opacity="0" result="BackgroundImageFix"/>
<feColorMatrix in="SourceAlpha" type="matrix" values="0 0 0 0 0 0 0 0 0 0 0 0 0 0 0 0 0 0 127 0" result="hardAlpha"/>
<feOffset/>
<feGaussianBlur stdDeviation="3"/>
<feComposite in2="hardAlpha" operator="out"/>
<feColorMatrix type="matrix" values="0 0 0 0 0.282353 0 0 0 0 0.737255 0 0 0 0 0.796078 0 0 0 0.25 0"/>
<feBlend mode="normal" in2="BackgroundImageFix" result="effect1_dropShadow_122_1157"/>
<feBlend mode="normal" in="SourceGraphic" in2="effect1_dropShadow_122_1157" result="shape"/>
</filter>
<filter id="filter6_d_122_1157" x="235" y="31" width="82.6143" height="105.308" filterUnits="userSpaceOnUse" color-interpolation-filters="sRGB">
<feFlood flood-opacity="0" result="BackgroundImageFix"/>
<feColorMatrix in="SourceAlpha" type="matrix" values="0 0 0 0 0 0 0 0 0 0 0 0 0 0 0 0 0 0 127 0" result="hardAlpha"/>
<feOffset/>
<feGaussianBlur stdDeviation="3"/>
<feComposite in2="hardAlpha" operator="out"/>
<feColorMatrix type="matrix" values="0 0 0 0 0.282353 0 0 0 0 0.737255 0 0 0 0 0.796078 0 0 0 0.25 0"/>
<feBlend mode="normal" in2="BackgroundImageFix" result="effect1_dropShadow_122_1157"/>
<feBlend mode="normal" in="SourceGraphic" in2="effect1_dropShadow_122_1157" result="shape"/>
</filter>
</defs>
</svg>
