<svg width="313" height="192" viewBox="0 0 313 192" fill="none" xmlns="http://www.w3.org/2000/svg">
<g filter="url(#filter0_d_122_1163)">
<rect x="98" y="5" width="64" height="17" stroke="white" stroke-width="2"/>
<rect x="168" y="5" width="64" height="17" stroke="white" stroke-width="2"/>
<rect x="28" y="5" width="64" height="17" stroke="white" stroke-width="2"/>
<path d="M238.632 13.476V8.544H247.368V13.476H240.108V12.456H245.892V11.544H240.108V10.548H245.892V9.684H240.108V13.476H238.632ZM237.444 18.948L237.324 17.796C238.204 17.708 239.108 17.596 240.036 17.46C240.972 17.316 241.912 17.144 242.856 16.944L242.976 18.096C242.04 18.312 241.104 18.488 240.168 18.624C239.24 18.768 238.332 18.876 237.444 18.948ZM238.632 18.156V13.896H240.072V14.82H242.784V15.984H240.072V18.156H238.632ZM245.796 18.864C245.612 18.864 245.424 18.86 245.232 18.852C245.04 18.852 244.864 18.848 244.704 18.84C244.32 18.824 244.036 18.796 243.852 18.756C243.668 18.716 243.548 18.636 243.492 18.516C243.436 18.404 243.408 18.236 243.408 18.012V13.896H244.848V17.412C244.848 17.5 244.852 17.564 244.86 17.604C244.876 17.636 244.908 17.66 244.956 17.676C245.004 17.684 245.08 17.692 245.184 17.7C245.28 17.708 245.384 17.712 245.496 17.712C245.616 17.712 245.732 17.712 245.844 17.712C245.972 17.712 246.088 17.712 246.192 17.712C246.296 17.712 246.4 17.708 246.504 17.7C246.632 17.692 246.732 17.676 246.804 17.652C246.876 17.628 246.932 17.576 246.972 17.496C247.012 17.416 247.04 17.284 247.056 17.1C247.08 16.908 247.104 16.644 247.128 16.308L248.424 16.464C248.384 17 248.34 17.428 248.292 17.748C248.244 18.06 248.168 18.292 248.064 18.444C247.96 18.596 247.816 18.696 247.632 18.744C247.456 18.792 247.216 18.824 246.912 18.84C246.736 18.848 246.556 18.852 246.372 18.852C246.196 18.86 246.004 18.864 245.796 18.864ZM244.212 16.392L243.816 15.336C244.528 15.176 245.208 14.996 245.856 14.796C246.512 14.588 247.208 14.328 247.944 14.016L248.424 15.096C247.688 15.408 246.984 15.668 246.312 15.876C245.648 16.084 244.948 16.256 244.212 16.392ZM250.284 15.288V9.696H259.716V14.592H251.652V13.428H258.348V10.884H251.652V15.288H250.284ZM249.888 18.804L249.816 17.58C251.32 17.524 252.868 17.436 254.46 17.316C256.052 17.188 257.652 17.028 259.26 16.836L259.476 17.988C258.38 18.14 257.284 18.268 256.188 18.372C255.1 18.484 254.032 18.576 252.984 18.648C251.936 18.72 250.904 18.772 249.888 18.804ZM254.172 17.976V8.136H255.648V17.976H254.172ZM259.344 19.224C259.168 18.856 258.972 18.46 258.756 18.036C258.54 17.62 258.32 17.204 258.096 16.788C257.872 16.372 257.66 15.984 257.46 15.624L258.684 15.108C258.9 15.476 259.12 15.872 259.344 16.296C259.568 16.72 259.788 17.14 260.004 17.556C260.22 17.964 260.42 18.348 260.604 18.708L259.344 19.224ZM267.504 18.444C266.64 18.444 265.964 18.252 265.476 17.868C264.996 17.476 264.756 16.932 264.756 16.236C264.756 15.524 264.996 14.976 265.476 14.592C265.956 14.208 266.632 14.016 267.504 14.016C267.88 14.016 268.244 14.064 268.596 14.16C268.948 14.248 269.312 14.408 269.688 14.64C270.064 14.872 270.484 15.192 270.948 15.6C271.42 16 271.972 16.512 272.604 17.136L271.716 18.084C271.148 17.508 270.656 17.036 270.24 16.668C269.832 16.292 269.472 16 269.16 15.792C268.848 15.584 268.552 15.44 268.272 15.36C268 15.272 267.72 15.228 267.432 15.228C266.504 15.228 266.04 15.564 266.04 16.236C266.04 16.9 266.504 17.232 267.432 17.232C267.936 17.232 268.292 17.128 268.5 16.92C268.716 16.704 268.824 16.352 268.824 15.864V8.448H270.216V15.924C270.216 16.764 269.984 17.396 269.52 17.82C269.064 18.236 268.392 18.444 267.504 18.444ZM264.792 11.544V10.332H272.424V11.544H264.792ZM262.572 18.66C262.364 17.836 262.212 17.024 262.116 16.224C262.02 15.424 261.972 14.576 261.972 13.68C261.972 12.792 262.02 11.952 262.116 11.16C262.212 10.36 262.36 9.548 262.56 8.724L263.976 8.904C263.784 9.68 263.64 10.46 263.544 11.244C263.456 12.02 263.412 12.832 263.412 13.68C263.412 14.528 263.456 15.344 263.544 16.128C263.64 16.912 263.784 17.684 263.976 18.444L262.572 18.66ZM278.184 15.372C278.184 15.036 278.22 14.72 278.292 14.424C278.364 14.128 278.496 13.844 278.688 13.572C278.88 13.292 279.148 13.032 279.492 12.792C279.764 12.6 279.984 12.424 280.152 12.264C280.32 12.104 280.436 11.948 280.5 11.796C280.572 11.644 280.608 11.492 280.608 11.34C280.608 11.028 280.468 10.804 280.188 10.668C279.916 10.524 279.48 10.452 278.88 10.452C278.456 10.452 278.036 10.488 277.62 10.56C277.204 10.624 276.768 10.732 276.312 10.884L276 9.576C276.456 9.432 276.952 9.32 277.488 9.24C278.024 9.16 278.556 9.12 279.084 9.12C281.148 9.12 282.18 9.788 282.18 11.124C282.18 11.428 282.128 11.708 282.024 11.964C281.928 12.212 281.768 12.456 281.544 12.696C281.32 12.936 281.024 13.184 280.656 13.44C280.416 13.608 280.224 13.796 280.08 14.004C279.936 14.212 279.836 14.432 279.78 14.664C279.724 14.896 279.688 15.132 279.672 15.372H278.184ZM278.076 18V16.368H279.78V18H278.076Z" fill="white"/>
</g>
<g filter="url(#filter1_d_122_1163)">
<rect x="112" y="157.552" width="91" height="29" transform="rotate(-15 112 157.552)" fill="#128FCD" fill-opacity="0.2" shape-rendering="crispEdges"/>
<rect x="113.225" y="158.26" width="89" height="27" transform="rotate(-15 113.225 158.26)" stroke="#48BCCB" stroke-opacity="0.5" stroke-width="2" shape-rendering="crispEdges"/>
</g>
<path d="M127.175 176.321L126.786 174.868L131.098 173.712L130.903 172.986L127.132 173.996L126.772 172.652L130.543 171.641L128.94 165.66L124.922 166.737L124.557 165.377L128.576 164.3L128.22 162.971L130.105 162.466L130.461 163.795L134.356 162.752L134.72 164.112L130.826 165.155L132.428 171.136L136.168 170.134L136.528 171.479L132.788 172.481L132.983 173.207L137.14 172.093L137.53 173.546L127.175 176.321ZM123.208 175.363L121.877 173.798C122.224 172.578 122.441 171.449 122.527 170.41C122.613 169.371 122.581 168.386 122.431 167.454L123.415 168.284C123.619 169.83 123.699 171.178 123.654 172.328C123.616 173.464 123.467 174.476 123.208 175.363ZM124.918 177.356L122.628 168.809L121.021 169.24L120.607 167.695L122.214 167.264L121.502 164.606L123.202 164.15L123.914 166.808L125.15 166.477L125.564 168.023L124.328 168.354L126.618 176.9L124.918 177.356ZM126.111 172.349C125.614 171.731 125.107 171.116 124.589 170.504C124.069 169.881 123.529 169.247 122.97 168.602L123.631 167.547C124.287 168.221 124.902 168.868 125.476 169.487C126.048 170.096 126.59 170.674 127.101 171.222L126.111 172.349ZM120.451 166.063L119.907 164.652C120.661 164.373 121.408 164.051 122.15 163.687C122.891 163.322 123.58 162.945 124.215 162.554L125.012 163.798C124.475 164.184 123.813 164.577 123.025 164.976C122.245 165.362 121.387 165.724 120.451 166.063ZM126.884 171.959L125.609 167.199L134.511 164.814L135.786 169.574L128.569 171.508L128.242 170.287L133.697 168.825L133.527 168.191L128.072 169.653L127.794 168.618L133.25 167.156L133.076 166.507L127.62 167.969L128.569 171.508L126.884 171.959ZM124.934 164.68L124.529 163.231C125.698 162.896 126.82 162.551 127.896 162.197C128.979 161.829 129.967 161.476 130.859 161.138C131.759 160.786 132.511 160.463 133.117 160.168L133.723 161.563C133.107 161.861 132.349 162.185 131.449 162.537C130.56 162.885 129.562 163.241 128.455 163.604C127.349 163.967 126.175 164.325 124.934 164.68ZM145.279 168.653L143.11 160.555L149.678 158.795L151.848 166.894L146.964 168.202L146.591 166.811L149.729 165.971L149.455 164.951L146.318 165.791L145.999 164.601L149.136 163.761L148.871 162.771L145.734 163.612L145.415 162.422L148.553 161.581L148.296 160.623L145.159 161.464L146.964 168.202L145.279 168.653ZM139.437 173.432L138.205 172.172C138.836 171.683 139.325 171.199 139.671 170.719C140.017 170.24 140.229 169.753 140.306 169.257C140.391 168.749 140.357 168.211 140.205 167.644L139.895 166.485L141.548 166.042L141.859 167.201C142.066 167.974 142.109 168.73 141.986 169.47C141.872 170.196 141.6 170.893 141.172 171.56C140.746 172.237 140.168 172.861 139.437 173.432ZM144.327 171.344C143.783 170.959 143.213 170.604 142.617 170.278C142.022 169.952 141.381 169.643 140.696 169.352L141.307 168.045C141.936 168.252 142.572 168.501 143.213 168.793C143.862 169.072 144.516 169.41 145.175 169.808L144.327 171.344ZM137.783 169.668L137.398 168.231L144.275 166.388L144.66 167.826L137.783 169.668ZM146.007 171.738L144.804 170.587C145.322 170.172 145.789 169.732 146.206 169.267C146.633 168.799 146.968 168.361 147.212 167.953L148.521 168.944C148.285 169.383 147.941 169.851 147.489 170.347C147.05 170.851 146.556 171.315 146.007 171.738ZM137.841 167.35L136.624 166.335C137.259 165.612 137.783 164.909 138.196 164.224C138.606 163.529 138.908 162.863 139.101 162.226L140.219 162.44C139.82 164.247 139.027 165.884 137.841 167.35ZM137.174 162.328C136.902 162.014 136.62 161.703 136.328 161.395C136.033 161.077 135.744 160.784 135.463 160.517L136.58 159.555C136.862 159.822 137.155 160.113 137.46 160.429C137.763 160.734 138.045 161.045 138.307 161.362L137.174 162.328ZM143.11 165.441C142.553 165.05 142.004 164.694 141.466 164.375C140.935 164.042 140.386 163.742 139.817 163.475L140.292 162.403C140.809 162.563 141.369 162.777 141.972 163.047C142.574 163.316 143.213 163.642 143.89 164.023L143.11 165.441ZM139.791 166.099L139.087 163.472L136.321 164.213L135.948 162.822L138.715 162.081L137.886 158.99L139.54 158.547L140.368 161.638L142.779 160.992L143.152 162.382L140.741 163.028L141.445 165.656L139.791 166.099ZM152.437 170.082C151.9 169.85 151.323 169.635 150.707 169.435C150.103 169.244 149.502 169.079 148.902 168.942L149.4 167.4C150.051 167.524 150.686 167.691 151.306 167.9C151.922 168.099 152.472 168.316 152.955 168.552L152.437 170.082ZM141.736 161.056L140.3 160.828C140.423 160.419 140.527 160.005 140.613 159.584C140.71 159.161 140.773 158.757 140.802 158.374L142.299 158.52C142.249 158.909 142.173 159.326 142.072 159.773C141.981 160.217 141.869 160.645 141.736 161.056ZM146.881 160.472L145.005 160.644C145.018 160.198 145.017 159.74 145.001 159.27C144.993 158.786 144.969 158.284 144.929 157.765L146.785 157.582C146.835 158.099 146.865 158.599 146.873 159.083C146.891 159.564 146.894 160.027 146.881 160.472ZM142.69 159.607L142.292 158.124L149.386 156.223L149.784 157.707L142.69 159.607ZM154.085 168.381C154.204 167.3 154.302 166.308 154.38 165.403C154.456 164.489 154.509 163.618 154.542 162.792C154.585 161.964 154.6 161.132 154.586 160.296C154.582 159.458 154.549 158.572 154.486 157.639C154.424 156.706 154.337 155.68 154.225 154.562L156.072 154.283C156.183 155.357 156.271 156.366 156.336 157.309C156.398 158.242 156.432 159.15 156.436 160.032C156.448 160.901 156.435 161.777 156.395 162.66C156.366 163.541 156.308 164.456 156.22 165.407C156.143 166.356 156.041 167.377 155.915 168.471L154.085 168.381ZM166.061 163.002C165.803 162.409 165.502 161.783 165.16 161.123C164.825 160.451 164.465 159.786 164.078 159.127C163.692 158.469 163.303 157.839 162.91 157.238L164.488 156.268C164.887 156.89 165.282 157.54 165.674 158.22C166.073 158.886 166.448 159.564 166.799 160.254C167.146 160.934 167.46 161.589 167.74 162.221L166.061 163.002ZM162.558 156.421C162.138 155.926 161.74 155.491 161.364 155.117C160.988 154.743 160.582 154.383 160.147 154.035L161.231 152.95C161.679 153.305 162.096 153.684 162.48 154.089C162.875 154.492 163.276 154.936 163.682 155.424L162.558 156.421ZM164.502 155.022C164.1 154.511 163.717 154.067 163.351 153.691C162.982 153.303 162.591 152.939 162.179 152.596L163.245 151.565C163.696 151.93 164.109 152.317 164.483 152.724C164.868 153.129 165.254 153.583 165.643 154.087L164.502 155.022ZM161.472 166.584C161.204 166.656 160.859 166.71 160.438 166.745C160.02 166.791 159.572 166.811 159.096 166.807C158.633 166.809 158.181 166.792 157.741 166.756L157.74 165.083C158.108 165.095 158.47 165.108 158.827 165.123C159.192 165.124 159.522 165.119 159.817 165.106C160.119 165.08 160.347 165.047 160.502 165.005C160.832 164.917 161.065 164.694 161.201 164.338C161.334 163.971 161.366 163.449 161.295 162.772C161.232 162.082 161.062 161.222 160.786 160.192C160.626 159.594 160.477 159.121 160.339 158.771C160.198 158.411 160.036 158.157 159.852 158.007C159.679 157.855 159.455 157.782 159.181 157.789C158.907 157.796 158.554 157.858 158.121 157.974L151.568 159.73L151.137 158.123L157.52 156.412C158.231 156.222 158.832 156.094 159.322 156.029C159.82 155.95 160.231 155.957 160.553 156.047C160.886 156.134 161.17 156.329 161.405 156.63C161.648 156.918 161.865 157.335 162.055 157.881C162.253 158.413 162.462 159.091 162.683 159.915C163.042 161.255 163.241 162.389 163.28 163.317C163.318 164.245 163.185 164.982 162.878 165.528C162.579 166.061 162.11 166.413 161.472 166.584ZM173.609 161.56L172.093 155.903L170.557 150.169L172.303 149.701L173.839 155.435L175.355 161.092L173.609 161.56ZM167.668 154.472L167.27 152.988L179.696 149.659L180.093 151.142L167.668 154.472ZM177.679 161.049C178.285 160.754 178.782 160.405 179.171 160.003C179.568 159.587 179.832 159.13 179.963 158.631C180.105 158.129 180.107 157.621 179.969 157.106C179.811 156.518 179.511 156.058 179.068 155.724C178.636 155.387 178.089 155.18 177.428 155.103C176.767 155.026 176.024 155.098 175.2 155.319C174.448 155.521 173.78 155.81 173.196 156.187C172.61 156.554 172.128 156.982 171.751 157.469C171.373 157.957 171.121 158.477 170.993 159.03C170.862 159.573 170.874 160.133 171.029 160.71C171.145 161.143 171.315 161.468 171.538 161.684C171.769 161.887 172.024 161.951 172.302 161.877C172.57 161.805 172.872 161.613 173.209 161.302C173.545 160.991 173.9 160.587 174.275 160.089C174.66 159.588 175.04 159.028 175.415 158.409C175.8 157.787 176.16 157.132 176.496 156.446C176.831 155.76 177.124 155.063 177.376 154.355L178.988 154.867C178.664 155.76 178.302 156.614 177.902 157.428C177.501 158.242 177.076 159.002 176.624 159.708C176.181 160.401 175.723 161.021 175.251 161.567C174.786 162.1 174.319 162.54 173.848 162.887C173.378 163.234 172.922 163.466 172.478 163.585C171.747 163.781 171.092 163.664 170.513 163.234C169.944 162.801 169.539 162.137 169.299 161.24C169.084 160.436 169.051 159.656 169.202 158.898C169.362 158.137 169.675 157.429 170.14 156.774C170.613 156.107 171.22 155.53 171.962 155.044C172.702 154.547 173.55 154.171 174.509 153.914C175.786 153.572 176.92 153.456 177.91 153.566C178.908 153.663 179.736 153.971 180.394 154.491C181.053 155.01 181.503 155.723 181.746 156.63C181.95 157.392 181.954 158.147 181.757 158.896C181.57 159.642 181.207 160.324 180.666 160.944C180.136 161.561 179.462 162.056 178.646 162.43L177.679 161.049ZM191.717 158.977C190.192 159.385 188.941 159.456 187.964 159.187C186.997 158.916 186.393 158.333 186.153 157.436C185.949 156.674 186.104 155.997 186.62 155.407C187.142 154.803 187.96 154.352 189.073 154.053C190.124 153.772 190.964 153.756 191.595 154.007C192.222 154.248 192.64 154.754 192.847 155.527C192.921 155.805 192.96 156.115 192.963 156.456C192.977 156.795 192.957 157.154 192.904 157.532L191.154 157.803C191.205 157.414 191.228 157.087 191.223 156.823C191.229 156.557 191.207 156.331 191.157 156.145C190.97 155.445 190.361 155.232 189.33 155.508C188.805 155.649 188.416 155.847 188.164 156.102C187.92 156.345 187.841 156.625 187.926 156.945C188.042 157.377 188.387 157.655 188.961 157.777C189.532 157.889 190.25 157.829 191.116 157.597C192.775 157.153 193.941 156.581 194.615 155.881C195.296 155.169 195.502 154.308 195.231 153.298C195.002 152.443 194.514 151.9 193.768 151.669C193.032 151.436 191.973 151.504 190.593 151.874C189.799 152.086 189.118 152.346 188.549 152.653C187.977 152.95 187.472 153.312 187.034 153.738L185.309 155.46L184.186 154.237L191.656 147.001L191.734 147.294L183.868 149.402L183.449 147.841L194.021 145.009L194.439 146.57L188.011 152.748L186.841 152.216C187.13 152.017 187.458 151.819 187.825 151.622C188.199 151.411 188.584 151.219 188.98 151.047C189.383 150.862 189.775 150.696 190.155 150.55C190.533 150.394 190.881 150.273 191.201 150.187C192.767 149.767 194.055 149.775 195.067 150.211C196.078 150.647 196.746 151.473 197.072 152.689C197.461 154.141 197.189 155.412 196.255 156.502C195.332 157.589 193.819 158.414 191.717 158.977Z" fill="white"/>
<g filter="url(#filter2_d_122_1163)">
<rect x="221" y="154.923" width="120" height="29" transform="rotate(-60 221 154.923)" fill="#128FCD" fill-opacity="0.2" shape-rendering="crispEdges"/>
<rect x="222.366" y="154.557" width="118" height="27" transform="rotate(-60 222.366 154.557)" stroke="#48BCCB" stroke-opacity="0.5" stroke-width="2" shape-rendering="crispEdges"/>
</g>
<path d="M245.942 155.449C244.945 157.176 243.92 158.333 242.867 158.92C241.804 159.502 240.751 159.491 239.707 158.888C238.83 158.382 238.22 157.592 237.878 156.52C237.527 155.443 237.442 154.033 237.623 152.29C237.81 150.538 238.258 148.407 238.967 145.898L240.674 146.366C240.073 148.495 239.671 150.301 239.467 151.784C239.269 153.259 239.263 154.432 239.449 155.303C239.632 156.16 240.015 156.756 240.597 157.092C241.797 157.785 243.099 156.917 244.502 154.488C244.731 154.091 244.953 153.664 245.166 153.209C245.38 152.753 245.609 152.239 245.854 151.666C246.095 151.078 246.36 150.406 246.649 149.649L248.257 150.319C247.899 151.282 247.523 152.199 247.132 153.069C246.755 153.935 246.358 154.728 245.942 155.449ZM238.229 154.506C237.169 154.251 236.151 153.965 235.176 153.649C234.192 153.327 233.238 152.973 232.315 152.588L233.034 150.767C233.962 151.143 234.909 151.487 235.875 151.798C236.832 152.104 237.805 152.37 238.795 152.597L238.229 154.506ZM252.855 139.413C253.082 138.891 253.202 138.363 253.215 137.829C253.224 137.279 253.138 136.756 252.958 136.258C252.774 135.745 252.499 135.272 252.133 134.839C251.767 134.406 251.316 134.035 250.78 133.725C250.023 133.288 249.261 133.082 248.495 133.108C247.719 133.128 246.998 133.365 246.33 133.817C245.668 134.26 245.1 134.892 244.625 135.714C244.22 136.416 243.959 137.134 243.844 137.868C243.728 138.602 243.744 139.32 243.894 140.022C244.039 140.709 244.314 141.342 244.719 141.921C245.114 142.494 245.626 142.962 246.254 143.325C246.707 143.586 247.184 143.763 247.685 143.855C248.186 143.947 248.634 143.96 249.03 143.893C249.422 143.811 249.69 143.645 249.834 143.396C250.042 143.036 249.914 142.5 249.45 141.789C248.987 141.078 248.218 140.233 247.144 139.256C246.066 138.264 244.717 137.177 243.096 135.995L244.19 134.484C245.791 135.679 247.131 136.761 248.21 137.729C249.29 138.697 250.126 139.574 250.719 140.36C251.312 141.146 251.675 141.86 251.809 142.504C251.933 143.142 251.84 143.729 251.531 144.265C251.275 144.708 250.927 145.055 250.487 145.306C250.046 145.557 249.547 145.706 248.99 145.754C248.433 145.802 247.846 145.752 247.229 145.605C246.602 145.453 245.984 145.201 245.374 144.849C244.506 144.347 243.8 143.724 243.257 142.98C242.705 142.23 242.329 141.409 242.129 140.518C241.929 139.627 241.911 138.698 242.074 137.733C242.233 136.754 242.587 135.788 243.137 134.837C243.782 133.719 244.565 132.853 245.486 132.239C246.412 131.616 247.409 131.287 248.477 131.25C249.545 131.214 250.619 131.508 251.7 132.132C252.43 132.553 253.045 133.056 253.545 133.641C254.051 134.216 254.433 134.843 254.694 135.523C254.945 136.198 255.063 136.9 255.048 137.63C255.032 138.361 254.872 139.087 254.566 139.809L252.855 139.413ZM262.213 127.043C261.531 128.225 260.793 129.172 260 129.885C259.221 130.593 258.435 131.038 257.64 131.22C256.851 131.392 256.101 131.273 255.389 130.862C254.77 130.505 254.282 129.964 253.924 129.24C253.557 128.511 253.328 127.659 253.239 126.683L254.813 125.781C254.905 126.623 255.083 127.329 255.345 127.899C255.603 128.455 255.94 128.853 256.356 129.093C256.771 129.333 257.222 129.383 257.708 129.245C258.185 129.102 258.676 128.775 259.179 128.266C259.674 127.75 260.169 127.063 260.665 126.204C261.06 125.521 261.429 124.785 261.772 123.998C262.116 123.211 262.4 122.421 262.624 121.627L264.249 122.269C263.992 123.119 263.686 123.958 263.331 124.787C262.981 125.607 262.608 126.359 262.213 127.043ZM250.224 128.545L248.81 127.729L255.077 116.235L256.491 117.051L250.224 128.545ZM259.801 123.285C258.984 123.207 258.18 123.095 257.391 122.947C256.602 122.799 255.82 122.618 255.044 122.405C254.264 122.176 253.487 121.912 252.712 121.612C251.942 121.303 251.174 120.958 250.408 120.578L251.269 118.895C252.007 119.259 252.738 119.583 253.462 119.865C254.191 120.138 254.922 120.376 255.655 120.578C256.394 120.77 257.149 120.935 257.92 121.072C258.686 121.194 259.486 121.293 260.318 121.366L259.801 123.285ZM268.857 115.728C268.227 116.819 267.522 117.538 266.741 117.888C265.975 118.234 265.195 118.178 264.4 117.719C263.606 117.26 263.171 116.615 263.097 115.784C263.023 114.953 263.303 113.988 263.937 112.888C264.284 112.288 264.685 111.743 265.139 111.255C265.594 110.766 266.13 110.318 266.747 109.91C267.369 109.494 268.095 109.1 268.925 108.729C269.746 108.353 270.698 107.985 271.78 107.625L272.225 109.286C271.219 109.641 270.341 109.99 269.589 110.332C268.833 110.659 268.185 110.993 267.644 111.333C267.093 111.668 266.632 112.03 266.26 112.419C265.883 112.793 265.562 113.211 265.295 113.672C264.613 114.855 264.622 115.649 265.324 116.054C265.685 116.262 266.047 116.274 266.412 116.091C266.767 115.902 267.11 115.521 267.441 114.948C267.836 114.265 267.983 113.678 267.883 113.19C267.784 112.701 267.438 112.286 266.847 111.945L258.118 106.905L259.022 105.339L267.751 110.379C268.795 110.982 269.409 111.731 269.595 112.626C269.785 113.512 269.539 114.546 268.857 115.728ZM260.575 115.64L259.203 114.848L265.395 104.123L266.767 104.915L260.575 115.64ZM257.669 114.147L256.269 113.339L262.621 102.337L264.021 103.145L257.669 114.147ZM277.97 100.039C277.373 101.074 276.669 101.739 275.858 102.034C275.056 102.335 274.239 102.245 273.408 101.765C272.549 101.269 272.059 100.592 271.938 99.7346C271.809 98.8714 272.053 97.904 272.672 96.8324C272.933 96.3798 273.261 95.9718 273.655 95.6084C274.05 95.245 274.529 94.9058 275.093 94.5907C275.657 94.2757 276.322 93.9764 277.089 93.6927C277.862 93.3998 278.756 93.1213 279.77 92.8572L280.303 94.4949C279.156 94.8179 278.214 95.1054 277.477 95.3575C276.736 95.595 276.146 95.8272 275.708 96.0541C275.265 96.2665 274.916 96.4965 274.663 96.7441C274.414 96.9824 274.194 97.2679 274.002 97.6004C273.639 98.2286 273.479 98.7518 273.521 99.1701C273.568 99.5791 273.813 99.9116 274.256 100.168C274.709 100.429 275.133 100.483 275.53 100.33C275.917 100.172 276.273 99.8108 276.598 99.2473C276.956 98.6284 277.088 98.0892 276.996 97.6297C276.91 97.1609 276.617 96.7825 276.118 96.4945L268.955 92.3585C269.424 91.5456 269.872 90.8008 270.3 90.1239C270.724 89.4326 271.154 88.763 271.589 88.1153L272.988 89.0523C272.595 89.6261 272.2 90.2356 271.803 90.8808C271.402 91.5114 270.988 92.1963 270.562 92.9353L270.298 90.9912L276.88 94.7912C277.896 95.3779 278.5 96.1142 278.69 97.0002C278.871 97.8808 278.631 98.8938 277.97 100.039ZM272.127 105.072C271.262 104.031 270.397 103.033 269.533 102.078C268.658 101.117 267.761 100.174 266.842 99.2495C265.913 98.3192 264.944 97.3961 263.933 96.48L264.99 95.0022C266.028 95.9343 267.027 96.8807 267.988 97.8416C268.944 98.7879 269.875 99.7565 270.781 100.748C271.692 101.729 272.586 102.751 273.464 103.812L272.127 105.072ZM265.634 101.471L264.179 100.631L268.211 93.6472L269.666 94.4872L265.634 101.471ZM285.873 86.6072C284.876 88.3346 283.878 89.5077 282.88 90.1264C281.892 90.7504 280.876 90.7611 279.832 90.1585C279.01 89.6838 278.446 88.9331 278.139 87.9064C277.829 86.8651 277.777 85.5047 277.983 83.8254C278.194 82.1368 278.66 80.0716 279.38 77.6298L281.072 78.0898C280.476 80.1472 280.059 81.8831 279.821 83.2977C279.588 84.7031 279.545 85.8235 279.691 86.659C279.833 87.4799 280.162 88.0397 280.68 88.3384C281.271 88.6797 281.869 88.6248 282.474 88.1737C283.076 87.7081 283.728 86.8655 284.432 85.6462C284.662 85.2489 284.888 84.8253 285.111 84.3751C285.325 83.9196 285.554 83.4053 285.798 82.8322C286.048 82.2498 286.323 81.5829 286.621 80.8314L288.224 81.4796C287.859 82.4517 287.477 83.3702 287.076 84.235C286.69 85.0959 286.289 85.8866 285.873 86.6072ZM278.159 85.6639C277.099 85.4091 276.082 85.1234 275.107 84.8068C274.122 84.4849 273.169 84.1314 272.246 83.7462L272.964 81.9256C273.893 82.3015 274.84 82.6451 275.806 82.9564C276.762 83.2623 277.735 83.5286 278.725 83.7553L278.159 85.6639ZM278.747 78.3732C278.11 78.3254 277.526 78.3023 276.995 78.3039C276.455 78.3001 275.913 78.3321 275.369 78.3998L275.346 76.8716C275.914 76.8053 276.477 76.7794 277.036 76.7938C277.599 76.7989 278.2 76.8254 278.837 76.8732L278.747 78.3732ZM279.24 76.0157C278.6 75.9295 278.015 75.8872 277.484 75.8888C276.95 75.8759 276.416 75.894 275.882 75.9432L275.907 74.4608C276.484 74.3999 277.052 74.3766 277.61 74.391C278.168 74.4054 278.763 74.4531 279.393 74.5339L279.24 76.0157ZM292.855 70.1305C293.082 69.609 293.202 69.0809 293.215 68.5465C293.224 67.9975 293.138 67.4738 292.958 66.9755C292.774 66.4627 292.499 65.9898 292.133 65.5569C291.767 65.1239 291.316 64.7528 290.78 64.4434C290.023 64.0061 289.261 63.8003 288.495 63.826C287.719 63.8463 286.998 64.0826 286.33 64.5348C285.668 64.9777 285.1 65.6102 284.625 66.4324C284.22 67.1344 283.959 67.8523 283.844 68.5861C283.728 69.3199 283.744 70.0377 283.894 70.7396C284.039 71.4269 284.314 72.0599 284.719 72.6385C285.114 73.2119 285.626 73.6799 286.254 74.0425C286.707 74.3039 287.184 74.4806 287.685 74.5728C288.186 74.665 288.634 74.6776 289.03 74.6106C289.422 74.529 289.69 74.3635 289.834 74.114C290.042 73.7538 289.914 73.218 289.45 72.5068C288.987 71.7956 288.218 70.9514 287.144 69.9741C286.066 68.9823 284.717 67.8954 283.096 66.7133L284.19 65.202C285.791 66.3972 287.131 67.4788 288.21 68.4468C289.29 69.4148 290.126 70.2917 290.719 71.0776C291.312 71.8635 291.675 72.5782 291.809 73.2218C291.933 73.8601 291.84 74.4471 291.531 74.9829C291.275 75.4263 290.927 75.7734 290.487 76.0241C290.046 76.2749 289.547 76.4241 288.99 76.4719C288.433 76.5197 287.846 76.4701 287.229 76.3232C286.602 76.1709 285.984 75.9187 285.374 75.5667C284.506 75.0654 283.8 74.4424 283.257 73.6978C282.705 72.9478 282.329 72.1271 282.129 71.2358C281.929 70.3445 281.911 69.4163 282.074 68.4512C282.233 67.4716 282.587 66.506 283.137 65.5545C283.782 64.4368 284.565 63.571 285.486 62.9572C286.412 62.3342 287.409 62.0046 288.477 61.9683C289.545 61.9321 290.619 62.226 291.7 62.85C292.43 63.2713 293.045 63.7741 293.545 64.3585C294.051 64.9336 294.433 65.5611 294.694 66.241C294.945 66.9156 295.063 67.618 295.048 68.3482C295.032 69.0785 294.872 69.8048 294.566 70.5271L292.855 70.1305Z" fill="white"/>
<g filter="url(#filter3_d_122_1163)">
<rect x="13.5059" y="113" width="91" height="29" transform="rotate(15 13.5059 113)" fill="#128FCD" fill-opacity="0.2" shape-rendering="crispEdges"/>
<rect x="14.213" y="114.225" width="89" height="27" transform="rotate(15 14.213 114.225)" stroke="#48BCCB" stroke-opacity="0.5" stroke-width="2" shape-rendering="crispEdges"/>
</g>
<path d="M32.6724 141.152C32.1675 141.017 31.7623 140.881 31.4567 140.743C31.1586 140.619 30.9503 140.47 30.8316 140.294C30.7102 140.129 30.6531 139.91 30.6603 139.636C30.6675 139.361 30.7263 139.018 30.8367 138.606L33.984 126.861L35.7458 127.333L32.6897 138.738C32.6372 138.934 32.6089 139.081 32.6047 139.179C32.6135 139.27 32.6601 139.343 32.7446 139.399C32.8421 139.447 32.999 139.5 33.2154 139.558C33.4627 139.625 33.6509 139.664 33.78 139.676C33.9223 139.681 34.0357 139.629 34.1203 139.519C34.218 139.402 34.3172 139.196 34.4179 138.903C34.5316 138.602 34.6654 138.185 34.8193 137.652L36.3181 138.303C36.1125 138.987 35.9298 139.546 35.7699 139.978C35.6127 140.399 35.4532 140.727 35.2915 140.959C35.1297 141.192 34.941 141.34 34.7251 141.404C34.5065 141.478 34.2334 141.487 33.9057 141.433C33.578 141.378 33.1669 141.285 32.6724 141.152ZM22.2326 135.357L21.7269 133.349C22.5104 132.609 23.1871 131.836 23.757 131.028C24.3269 130.22 24.8371 129.346 25.2876 128.406L26.0175 129.082C25.7135 129.928 25.3569 130.744 24.9478 131.529C24.5415 132.303 24.1078 133.015 23.6466 133.665C23.1986 134.307 22.7272 134.871 22.2326 135.357ZM22.5337 138.684L25.1882 128.777L23.4727 128.318L23.8868 126.772L25.6023 127.232L26.2773 124.713L27.9773 125.168L27.3023 127.687L28.5541 128.023L28.14 129.568L26.8882 129.233L24.2338 139.139L22.5337 138.684ZM25.9408 135.489L25.8791 133.617C26.7608 133.5 27.5824 133.339 28.344 133.135C29.1186 132.922 29.8939 132.666 30.67 132.366L30.6475 133.934C29.9662 134.293 29.2313 134.604 28.4429 134.867C27.6648 135.134 26.8307 135.341 25.9408 135.489ZM26.284 133.775C26.2615 133.57 26.2289 133.28 26.1861 132.904C26.1432 132.528 26.0984 132.119 26.0515 131.676C26.0046 131.232 25.956 130.816 25.9056 130.427C25.8552 130.038 25.815 129.735 25.7851 129.517L27.048 129.193C27.0863 129.38 27.1333 129.657 27.1892 130.026C27.2582 130.387 27.3254 130.775 27.3909 131.19C27.4666 131.607 27.5325 132.001 27.5884 132.369C27.647 132.727 27.689 133.003 27.7142 133.198L26.284 133.775ZM25.4856 139.475L24.7105 137.793C25.2796 137.647 25.7738 137.493 26.1931 137.329C26.6152 137.155 26.9824 136.938 27.2946 136.68C27.6069 136.421 27.8814 136.097 28.1183 135.708C28.3682 135.311 28.5924 134.824 28.791 134.248C28.9998 133.675 29.2119 132.986 29.4273 132.182L31.063 126.078L32.8249 126.55L31.1891 132.655C30.8799 133.809 30.5465 134.785 30.189 135.584C29.8445 136.375 29.4493 137.025 29.0035 137.535C28.5604 138.035 28.049 138.439 27.4694 138.747C26.9001 139.059 26.2389 139.301 25.4856 139.475ZM28.7482 131.255C28.6088 130.621 28.4515 129.972 28.2764 129.307C28.1041 128.631 27.9022 127.942 27.6708 127.239L29.3234 126.821C29.5473 127.51 29.7426 128.203 29.9094 128.899C30.079 129.585 30.2167 130.246 30.3224 130.882L28.7482 131.255ZM35.5542 137.568C35.1083 137.007 34.616 136.433 34.0773 135.847C33.5414 135.251 32.9807 134.664 32.3953 134.088L33.6953 132.945C34.2807 133.522 34.8452 134.115 35.3886 134.724C35.9348 135.323 36.4282 135.914 36.8686 136.495L35.5542 137.568ZM35.3176 132.949L34.1378 131.788C34.6468 131.372 35.1592 130.902 35.6752 130.378C36.1911 129.854 36.6896 129.292 37.1706 128.692L38.4566 129.765C37.9598 130.383 37.439 130.967 36.8941 131.516C36.3623 132.059 35.8368 132.536 35.3176 132.949ZM37.4129 142.439L36.8884 140.625C38.0424 140.316 39.0921 139.902 40.0375 139.382C40.9829 138.862 41.8225 138.242 42.5565 137.523C43.3008 136.805 43.9315 135.997 44.4486 135.098C44.9788 134.191 45.3902 133.191 45.6828 132.099L46.2709 129.904L48.1563 130.41L47.5393 132.712C47.2909 133.64 46.9304 134.531 46.4581 135.388C45.9857 136.244 45.4209 137.053 44.7638 137.816C44.1198 138.571 43.4006 139.256 42.6063 139.871C41.8223 140.49 40.9906 141.018 40.1113 141.456C39.2347 141.883 38.3352 142.211 37.4129 142.439ZM43.8824 144.073C43.6776 143.477 43.4448 142.862 43.1837 142.229C42.9255 141.586 42.6593 140.951 42.3852 140.326L44.0627 139.814C44.334 140.45 44.5988 141.09 44.8571 141.733C45.1181 142.367 45.351 142.981 45.5557 143.577L43.8824 144.073ZM49.5603 145.694C48.8933 145.051 48.2936 144.322 47.7614 143.506C47.2422 142.682 46.8029 141.808 46.4432 140.883C46.0967 139.951 45.8333 138.997 45.6531 138.021C45.4728 137.045 45.3922 136.068 45.4113 135.091C45.4434 134.105 45.5809 133.159 45.8238 132.253L47.5683 132.604C47.2784 133.686 47.1311 134.751 47.1265 135.799C47.1245 136.836 47.2614 137.85 47.5371 138.841C47.8232 139.834 48.2442 140.797 48.8003 141.73C49.3592 142.653 50.0662 143.538 50.9213 144.385L49.5603 145.694ZM39.3196 132.912L39.7544 131.289L53.1074 134.867L52.6726 136.49L39.3196 132.912ZM52.7176 145.347L55.7365 134.081L58.1166 134.718L58.5265 133.188L60.3038 133.664L59.8939 135.194L62.2584 135.828L60.3949 142.783L55.6967 141.524L56.0818 140.087L59.0646 140.886L59.4414 139.479L56.4586 138.68L56.8106 137.366L59.7934 138.166L60.1496 136.837L57.1668 136.037L54.5413 145.836L52.7176 145.347ZM51.848 146.058L52.0725 144.478C53.0563 144.599 54.0614 144.68 55.0879 144.723C56.1246 144.769 57.1907 144.768 58.286 144.719L58.1007 146.276C57.0129 146.338 55.9493 146.351 54.9097 146.315C53.8702 146.28 52.8496 146.194 51.848 146.058ZM58.1563 148.047C58.0669 147.515 57.9432 146.946 57.7852 146.34C57.63 145.725 57.4682 145.113 57.2999 144.504C57.1316 143.896 56.9626 143.332 56.7928 142.811L58.5103 142.46C58.6848 143.004 58.8511 143.578 59.0091 144.184C59.1671 144.789 59.3186 145.399 59.4635 146.012C59.6112 146.614 59.7363 147.178 59.8387 147.702L58.1563 148.047ZM59.8623 148.603L63.4817 135.096L69.5863 136.731L69.1805 138.246L64.8686 137.091L61.6551 149.084L59.8623 148.603ZM62.9512 147.708L63.0449 146.06L63.6168 146.213C64.2453 146.382 64.6781 146.415 64.9153 146.313C65.1552 146.201 65.3345 145.923 65.4532 145.48C65.5554 145.099 65.5906 144.699 65.5588 144.282C65.5297 143.855 65.4262 143.396 65.2481 142.907C65.0804 142.42 64.8254 141.888 64.4832 141.311C64.8279 140.972 65.1784 140.591 65.5348 140.168C65.9043 139.737 66.2546 139.295 66.5856 138.843C66.9297 138.383 67.2374 137.935 67.5086 137.5L69.1805 138.246C68.9437 138.635 68.6704 139.037 68.3607 139.451C68.0613 139.868 67.7479 140.275 67.4203 140.673C67.1031 141.074 66.7904 141.437 66.4822 141.763C66.9088 142.397 67.1855 143.095 67.3124 143.858C67.4393 144.621 67.4089 145.352 67.2212 146.053C66.9699 146.99 66.5947 147.608 66.0955 147.905C65.5963 148.202 64.9346 148.24 64.1104 148.019L62.9512 147.708ZM76.8737 152.499C75.627 152.165 74.5994 151.652 73.7908 150.96C72.9898 150.282 72.4431 149.479 72.1509 148.55C71.8613 147.611 71.8615 146.601 72.1514 145.519C72.3778 144.674 72.737 143.931 73.229 143.29C73.7314 142.651 74.3325 142.139 75.0325 141.752C75.7455 141.358 76.527 141.12 77.377 141.039L77.4032 141.559L70.0011 139.758L70.4442 138.104L83.5555 141.286L83.1124 142.94L81.1372 142.46C80.3074 142.26 79.5091 142.19 78.7422 142.249C77.9884 142.301 77.3011 142.476 76.6803 142.773C76.0698 143.074 75.5454 143.485 75.1071 144.008C74.6715 144.521 74.3571 145.138 74.1639 145.859C73.954 146.642 73.9418 147.368 74.1272 148.036C74.3154 148.694 74.6772 149.26 75.2125 149.735C75.7582 150.212 76.4689 150.568 77.3447 150.803C77.5302 150.853 77.7376 150.903 77.967 150.953C78.2095 150.996 78.452 151.039 78.6945 151.082C78.9501 151.117 79.1747 151.144 79.3685 151.163L79.1139 152.917C78.8892 152.89 78.6453 152.852 78.3822 152.804C78.1164 152.766 77.8533 152.717 77.5929 152.658C77.3298 152.61 77.0901 152.557 76.8737 152.499ZM79.7422 148.099C79.646 147.51 79.5223 146.942 79.3711 146.393C79.233 145.837 79.0564 145.26 78.8414 144.661L80.3847 144.279C80.5997 144.878 80.7801 145.462 80.9258 146.031C81.0742 146.59 81.1989 147.176 81.2998 147.788L79.7422 148.099ZM82.3273 147.848C82.2442 147.251 82.1322 146.68 81.9913 146.134C81.8635 145.581 81.6972 145.007 81.4925 144.411L83.0275 144.06C83.2295 144.666 83.3982 145.253 83.5336 145.819C83.6792 146.388 83.7909 146.981 83.8684 147.598L82.3273 147.848Z" fill="white"/>
<g filter="url(#filter4_d_122_1163)">
<rect x="167.506" y="35" width="91" height="29" transform="rotate(15 167.506 35)" fill="#128FCD" fill-opacity="0.2" shape-rendering="crispEdges"/>
<rect x="168.213" y="36.2247" width="89" height="27" transform="rotate(15 168.213 36.2247)" stroke="#48BCCB" stroke-opacity="0.5" stroke-width="2" shape-rendering="crispEdges"/>
</g>
<path d="M183.821 62.421L183.197 60.73C184.664 60.4493 185.959 59.9847 187.082 59.336C188.216 58.6901 189.16 57.8664 189.914 56.8648C190.682 55.8557 191.247 54.6711 191.612 53.3111L192.502 49.9883L194.388 50.4935L193.497 53.8163C193.199 54.9291 192.738 55.9705 192.114 56.9406C191.492 57.9004 190.748 58.7612 189.881 59.5228C189.028 60.2769 188.082 60.9014 187.044 61.3962C186.016 61.8938 184.941 62.2354 183.821 62.421ZM195.69 65.6013C194.843 64.8885 194.104 64.061 193.473 63.1189C192.852 62.1796 192.361 61.17 191.998 60.0902C191.649 59.0027 191.451 57.8894 191.403 56.7501C191.357 55.6006 191.484 54.4694 191.782 53.3566L193.497 53.8163C193.133 55.1763 193.026 56.4838 193.175 57.7386C193.338 58.9859 193.749 60.1726 194.408 61.2989C195.067 62.4252 195.956 63.4751 197.075 64.4487L195.69 65.6013ZM185.51 53.1502L185.944 51.5275L199.297 55.1054L198.862 56.7281L185.51 53.1502ZM198.327 66.2085L198.712 64.7712L204.677 66.3696L204.81 65.8751L199.524 64.4588L199.831 63.3152L205.116 64.7314L205.638 62.7841L202.779 62.018L203.015 61.1371L205.874 61.9032L206.019 61.3623L207.904 61.8675L207.759 62.4084L210.619 63.1745L210.764 62.6336L203.16 60.5962L202.398 63.4398L200.497 62.9305L201.499 59.1904L212.905 62.2466L211.903 65.9866L202.398 63.4398L202.634 62.5589L210.238 64.5963L210.383 64.0554L207.523 63.2893L207.002 65.2366L212.287 66.6529L211.981 67.7965L206.695 66.3803L206.563 66.8748L212.528 68.4733L212.143 69.9106L198.327 66.2085ZM200.581 58.4143L200.928 57.1161L214.436 60.7354L214.088 62.0336L200.581 58.4143ZM201.957 56.8617L203.005 52.9516L214.72 56.0906L213.672 60.0007L203.858 57.3711L204.082 56.5365L211.995 58.6567L212.127 58.1622L204.214 56.0419L204.434 55.2228L212.347 57.3431L212.475 56.864L204.562 54.7437L203.858 57.3711L201.957 56.8617ZM222.608 70.2962C223.171 70.3807 223.712 70.3601 224.231 70.2343C224.764 70.1009 225.248 69.8827 225.682 69.5795C226.13 69.2688 226.515 68.8807 226.839 68.4152C227.162 67.9497 227.404 67.4182 227.564 66.8206C227.791 65.9758 227.792 65.1866 227.569 64.4532C227.349 63.7095 226.934 63.0738 226.324 62.5461C225.725 62.0211 224.967 61.6357 224.05 61.39C223.267 61.1802 222.506 61.1144 221.768 61.1925C221.029 61.2706 220.34 61.4725 219.7 61.7981C219.074 62.1162 218.534 62.5457 218.08 63.0866C217.628 63.6171 217.309 64.2327 217.121 64.9334C216.986 65.4382 216.938 65.9446 216.979 66.4524C217.02 66.9602 217.124 67.3966 217.291 67.7617C217.471 68.1192 217.7 68.3352 217.978 68.4097C218.38 68.5174 218.865 68.2552 219.432 67.623C219.998 66.9909 220.615 66.0297 221.281 64.7394C221.96 63.4416 222.661 61.857 223.383 59.9855L225.126 60.6513C224.386 62.507 223.688 64.0813 223.032 65.3743C222.377 66.6674 221.746 67.7021 221.14 68.4785C220.535 69.2548 219.938 69.7908 219.351 70.0862C218.767 70.3713 218.176 70.4338 217.578 70.2737C217.084 70.1412 216.658 69.8947 216.302 69.5342C215.946 69.1738 215.673 68.7306 215.482 68.2048C215.292 67.6789 215.188 67.0989 215.17 66.4646C215.155 65.8201 215.239 65.1579 215.421 64.4778C215.68 63.5093 216.1 62.6664 216.678 61.9491C217.26 61.2215 217.955 60.6458 218.764 60.2222C219.574 59.7985 220.465 59.5405 221.44 59.4483C222.427 59.3484 223.452 59.4407 224.513 59.7251C225.76 60.0591 226.798 60.5915 227.63 61.3222C228.471 62.0556 229.048 62.9334 229.359 63.9555C229.67 64.9776 229.665 66.0914 229.342 67.2968C229.124 68.1108 228.797 68.835 228.362 69.4693C227.937 70.1064 227.43 70.6387 226.841 71.066C226.254 71.4831 225.606 71.7788 224.897 71.9532C224.188 72.1275 223.445 72.1603 222.668 72.0515L222.608 70.2962Z" fill="white"/>
<g filter="url(#filter5_d_122_1163)">
<rect x="93" y="92" width="120" height="29" fill="#128FCD" fill-opacity="0.2" shape-rendering="crispEdges"/>
<rect x="94" y="93" width="118" height="27" stroke="#48BCCB" stroke-opacity="0.5" stroke-width="2" shape-rendering="crispEdges"/>
</g>
<path d="M103.304 111.96C104.157 111.917 104.872 111.859 105.448 111.784C106.024 111.709 106.483 111.597 106.824 111.448C107.176 111.288 107.443 111.069 107.624 110.792C107.816 110.515 107.944 110.157 108.008 109.72C108.072 109.272 108.104 108.723 108.104 108.072V100.328H109.992V108.072C109.992 108.925 109.933 109.661 109.816 110.28C109.699 110.888 109.501 111.4 109.224 111.816C108.957 112.232 108.584 112.568 108.104 112.824C107.635 113.08 107.043 113.272 106.328 113.4C105.613 113.528 104.76 113.619 103.768 113.672L103.304 111.96ZM102.392 105.048V103.368H112.392V105.048H102.392ZM99.448 113.88C99.1707 112.781 98.968 111.699 98.84 110.632C98.712 109.565 98.648 108.435 98.648 107.24C98.648 106.056 98.712 104.936 98.84 103.88C98.968 102.813 99.1707 101.731 99.448 100.632L101.384 100.872C101.128 101.907 100.936 102.947 100.808 103.992C100.68 105.027 100.616 106.109 100.616 107.24C100.616 108.371 100.68 109.459 100.808 110.504C100.936 111.549 101.128 112.579 101.384 113.592L99.448 113.88ZM120.904 113.608C120.328 113.608 119.704 113.581 119.032 113.528C118.371 113.485 117.725 113.421 117.096 113.336C116.477 113.251 115.917 113.155 115.416 113.048L115.592 111.384C116.211 111.491 116.835 111.587 117.464 111.672C118.104 111.757 118.717 111.827 119.304 111.88C119.891 111.923 120.424 111.944 120.904 111.944C122.419 111.944 123.565 111.72 124.344 111.272C125.123 110.824 125.512 110.163 125.512 109.288C125.512 108.563 125.24 108.013 124.696 107.64C124.152 107.256 123.368 107.064 122.344 107.064C121.651 107.064 120.952 107.144 120.248 107.304C119.544 107.464 118.877 107.693 118.248 107.992C117.619 108.291 117.059 108.643 116.568 109.048L114.856 108.712C114.995 108.029 115.117 107.4 115.224 106.824C115.331 106.237 115.421 105.688 115.496 105.176C115.571 104.653 115.635 104.147 115.688 103.656L117.544 103.8C117.48 104.387 117.4 104.995 117.304 105.624C117.219 106.243 117.112 106.867 116.984 107.496L116.712 107.048C117.288 106.685 117.885 106.387 118.504 106.152C119.123 105.907 119.757 105.72 120.408 105.592C121.069 105.464 121.752 105.4 122.456 105.4C124.088 105.4 125.325 105.725 126.168 106.376C127.011 107.027 127.432 107.987 127.432 109.256C127.432 110.696 126.883 111.784 125.784 112.52C124.685 113.245 123.059 113.608 120.904 113.608ZM125.576 102.776C124.573 102.787 123.613 102.781 122.696 102.76C121.779 102.728 120.861 102.675 119.944 102.6C119.037 102.525 118.093 102.424 117.112 102.296L117.304 100.632C118.211 100.739 119.128 100.829 120.056 100.904C120.984 100.968 121.907 101.021 122.824 101.064C123.741 101.096 124.659 101.112 125.576 101.112V102.776ZM134.136 113.464C133.592 113.464 133.091 113.299 132.632 112.968C132.173 112.627 131.773 112.152 131.432 111.544C131.091 110.936 130.824 110.221 130.632 109.4C130.451 108.568 130.36 107.672 130.36 106.712C130.36 105.933 130.424 105.112 130.552 104.248C130.691 103.373 130.899 102.456 131.176 101.496L133.048 101.72C132.803 102.605 132.616 103.448 132.488 104.248C132.36 105.048 132.296 105.8 132.296 106.504C132.296 107.176 132.349 107.811 132.456 108.408C132.563 109.005 132.707 109.528 132.888 109.976C133.08 110.424 133.293 110.776 133.528 111.032C133.773 111.288 134.029 111.416 134.296 111.416C134.552 111.416 134.829 111.309 135.128 111.096C135.437 110.872 135.752 110.573 136.072 110.2C136.392 109.827 136.691 109.4 136.968 108.92C137.256 108.44 137.496 107.939 137.688 107.416L139.4 108.28C139.133 109.005 138.803 109.683 138.408 110.312C138.013 110.941 137.576 111.496 137.096 111.976C136.627 112.445 136.136 112.808 135.624 113.064C135.112 113.331 134.616 113.464 134.136 113.464ZM142.168 111.912C142.168 110.696 142.083 109.485 141.912 108.28C141.752 107.075 141.512 105.917 141.192 104.808C140.883 103.699 140.509 102.68 140.072 101.752L141.848 101.224C142.339 102.195 142.744 103.256 143.064 104.408C143.395 105.549 143.645 106.755 143.816 108.024C143.997 109.283 144.088 110.579 144.088 111.912H142.168ZM154.248 110.696C154.248 109.459 154.173 108.483 154.024 107.768C153.885 107.043 153.645 106.525 153.304 106.216C152.973 105.907 152.515 105.752 151.928 105.752C151.416 105.752 150.92 105.875 150.44 106.12C149.971 106.365 149.496 106.76 149.016 107.304C148.547 107.837 148.029 108.552 147.464 109.448L145.896 108.552C146.429 107.731 146.899 106.973 147.304 106.28C147.72 105.587 148.093 104.909 148.424 104.248C148.765 103.576 149.075 102.893 149.352 102.2C149.64 101.496 149.917 100.733 150.184 99.912L152.072 100.216C151.741 101.208 151.389 102.125 151.016 102.968C150.643 103.8 150.232 104.627 149.784 105.448L149.352 105.192C149.821 104.893 150.323 104.669 150.856 104.52C151.4 104.36 151.944 104.28 152.488 104.28C153.373 104.28 154.083 104.493 154.616 104.92C155.16 105.347 155.555 106.035 155.8 106.984C156.045 107.923 156.168 109.16 156.168 110.696H154.248ZM154.088 113.944C152.445 113.944 151.16 113.693 150.232 113.192C149.304 112.701 148.84 112.013 148.84 111.128C148.84 110.509 149.075 109.901 149.544 109.304C150.013 108.696 150.691 108.125 151.576 107.592C152.472 107.059 153.544 106.568 154.792 106.12C156.051 105.672 157.469 105.283 159.048 104.952L159.336 106.52C158.024 106.797 156.84 107.112 155.784 107.464C154.739 107.816 153.837 108.189 153.08 108.584C152.333 108.968 151.757 109.363 151.352 109.768C150.947 110.173 150.744 110.568 150.744 110.952C150.744 111.4 151.032 111.752 151.608 112.008C152.195 112.253 153.027 112.376 154.104 112.376C154.765 112.376 155.501 112.333 156.312 112.248C157.123 112.152 157.997 112.019 158.936 111.848L159.192 113.448C158.648 113.544 158.072 113.629 157.464 113.704C156.856 113.779 156.259 113.837 155.672 113.88C155.096 113.923 154.568 113.944 154.088 113.944ZM145.944 103.096V101.576H158.696V103.096H145.944ZM170.056 112.408V111.176H165.8V109.72H170.056V108.872H168.056V107.544H170.056V106.568H168.056V105.4H170.056V104.456H171.944V105.4H173.864V106.568H171.944V107.544H173.864V104.456H168.056V108.872H166.328V103.128H170.056V102.328H165.656V100.808H170.056V99.848H171.944V100.808H176.104V102.328H171.944V103.128H175.592V108.872H171.944V109.72H176.104V111.176H171.944V112.408H170.056ZM162.392 114.472L161.528 112.936C162.136 112.541 162.685 112.141 163.176 111.736C163.677 111.32 164.141 110.877 164.568 110.408L165.608 111.688C165.192 112.189 164.723 112.664 164.2 113.112C163.677 113.56 163.075 114.013 162.392 114.472ZM163.592 111.512V107.544H161.768V105.944H165.4V111.512H163.592ZM171.736 114.216C170.627 114.216 169.667 114.184 168.856 114.12C168.045 114.056 167.357 113.949 166.792 113.8C166.237 113.661 165.773 113.469 165.4 113.224C165.027 112.979 164.717 112.68 164.472 112.328C164.237 111.976 164.035 111.56 163.864 111.08L165.384 110.936C165.533 111.203 165.699 111.432 165.88 111.624C166.072 111.805 166.312 111.96 166.6 112.088C166.888 112.216 167.251 112.317 167.688 112.392C168.136 112.467 168.691 112.52 169.352 112.552C170.013 112.584 170.808 112.6 171.736 112.6H176.232L176.12 114.216H171.736ZM164.696 104.36C164.237 103.869 163.773 103.384 163.304 102.904C162.835 102.424 162.36 101.96 161.88 101.512L163.128 100.376C163.597 100.824 164.061 101.288 164.52 101.768C164.989 102.237 165.448 102.717 165.896 103.208L164.696 104.36ZM190.088 113.384C189.416 113.384 188.92 113.208 188.6 112.856C188.291 112.493 188.136 111.917 188.136 111.128V105.288C188.136 104.648 188.056 104.179 187.896 103.88C187.747 103.581 187.507 103.432 187.176 103.432C186.973 103.432 186.733 103.501 186.456 103.64C186.179 103.768 185.832 103.987 185.416 104.296C185.011 104.605 184.515 105.027 183.928 105.56C183.341 106.083 182.637 106.739 181.816 107.528H181.64C181.192 107.987 180.685 108.499 180.12 109.064C179.565 109.629 178.957 110.259 178.296 110.952L177.256 109.4C178.611 108.088 179.773 106.979 180.744 106.072C181.715 105.165 182.547 104.424 183.24 103.848C183.933 103.272 184.52 102.824 185 102.504C185.491 102.184 185.923 101.965 186.296 101.848C186.68 101.731 187.053 101.672 187.416 101.672C188.28 101.672 188.931 101.939 189.368 102.472C189.816 102.995 190.04 103.768 190.04 104.792V110.216C190.04 110.6 190.051 110.893 190.072 111.096C190.104 111.299 190.147 111.437 190.2 111.512C190.264 111.576 190.355 111.608 190.472 111.608C190.664 111.608 190.925 111.544 191.256 111.416C191.597 111.288 191.971 111.107 192.376 110.872L192.92 112.504C192.44 112.792 191.96 113.011 191.48 113.16C191 113.309 190.536 113.384 190.088 113.384ZM180.968 114.072V104.376H177.384V102.744H180.968V100.408H182.824V114.072H180.968ZM194.392 113.672C194.84 112.232 195.245 110.771 195.608 109.288C195.981 107.795 196.307 106.28 196.584 104.744C196.872 103.197 197.117 101.64 197.32 100.072L199.224 100.152C199.043 101.688 198.808 103.24 198.52 104.808C198.243 106.376 197.917 107.933 197.544 109.48C197.171 111.016 196.755 112.525 196.296 114.008L194.392 113.672ZM204.312 113.688C203.341 113.688 202.499 113.571 201.784 113.336C201.069 113.112 200.515 112.797 200.12 112.392C199.725 111.976 199.528 111.48 199.528 110.904C199.528 110.477 199.672 110.056 199.96 109.64C200.248 109.224 200.691 108.792 201.288 108.344L202.728 109.368C202.323 109.624 202.019 109.864 201.816 110.088C201.624 110.301 201.528 110.515 201.528 110.728C201.528 110.973 201.64 111.192 201.864 111.384C202.099 111.565 202.424 111.709 202.84 111.816C203.267 111.923 203.757 111.976 204.312 111.976C204.813 111.976 205.325 111.949 205.848 111.896C206.371 111.843 206.915 111.763 207.48 111.656L207.688 113.368C207.101 113.475 206.536 113.555 205.992 113.608C205.448 113.661 204.888 113.688 204.312 113.688ZM194.168 103.736V102.072H205.432V103.736H194.168ZM200.152 105.544C201.411 105.427 202.643 105.336 203.848 105.272C205.064 105.208 206.28 105.176 207.496 105.176V106.856C206.301 106.856 205.101 106.888 203.896 106.952C202.701 107.005 201.491 107.101 200.264 107.24L200.152 105.544Z" fill="white"/>
<g filter="url(#filter6_d_122_1163)">
<rect x="10" y="67.0583" width="120" height="29" transform="rotate(-15 10 67.0583)" fill="#128FCD" fill-opacity="0.2" shape-rendering="crispEdges"/>
<rect x="11.2247" y="67.7654" width="118" height="27" transform="rotate(-15 11.2247 67.7654)" stroke="#48BCCB" stroke-opacity="0.5" stroke-width="2" shape-rendering="crispEdges"/>
</g>
<path d="M25.9971 85.3739C24.8226 85.6887 23.8095 85.7613 22.958 85.5919C22.1195 85.4301 21.4179 85.0163 20.853 84.3505C20.2983 83.6819 19.8609 82.75 19.5407 81.5548L17.524 74.0284L19.4094 73.5231L21.4262 81.0496C21.7492 82.2551 22.2363 83.0632 22.8874 83.474C23.5359 83.8745 24.4164 83.9257 25.5292 83.6275C26.3431 83.4094 27.0192 83.0682 27.5573 82.6037C28.1057 82.1365 28.5427 81.5004 28.8681 80.6955C29.201 79.8774 29.454 78.8434 29.627 77.5933L31.5289 77.8291C31.3928 78.9699 31.1844 79.9644 30.9038 80.8126C30.6306 81.6477 30.2766 82.3665 29.8417 82.9689C29.4143 83.5583 28.8831 84.0485 28.248 84.4395C27.6129 84.8306 26.8626 85.142 25.9971 85.3739ZM39.2996 81.793C38.2693 82.0691 37.4334 82.0611 36.792 81.7692C36.1636 81.4848 35.7376 80.9253 35.514 80.0908C35.2959 79.2768 35.393 78.5882 35.8053 78.025C36.2251 77.4487 36.9399 77.0253 37.9496 76.7547C38.6605 76.5642 39.4121 76.4843 40.2044 76.515C40.9966 76.5456 41.8945 76.7026 42.898 76.9858C43.8988 77.2588 45.0701 77.6738 46.412 78.2308L45.6396 79.6138C44.506 79.1335 43.4972 78.7688 42.6133 78.5198C41.7397 78.268 40.9559 78.1246 40.2619 78.0897C39.5754 78.0418 38.9386 78.0965 38.3513 78.2538C37.8464 78.3891 37.5027 78.5695 37.3202 78.7951C37.1453 79.0076 37.1034 79.2839 37.1945 79.6239C37.2856 79.9639 37.4614 80.1874 37.7219 80.2942C37.9928 80.3984 38.36 80.3883 38.8237 80.2641C39.4006 80.1095 39.781 79.8805 39.9648 79.5773C40.1561 79.261 40.18 78.835 40.0364 78.2992L39.7631 77.2792L39.7322 77.2875L37.9805 70.7501L39.7424 70.278L40.2393 72.1326L44.4585 71.0021L44.8684 72.5321L40.6493 73.6626L41.8378 78.0982C42.0862 79.0254 41.9958 79.8006 41.5664 80.4236C41.137 81.0467 40.3814 81.5031 39.2996 81.793ZM52.7123 76.4598C53.9555 76.0715 55.0505 75.6455 55.9975 75.182C56.9417 74.7081 57.7251 74.2111 58.3477 73.6909C58.9702 73.1707 59.4104 72.6497 59.6681 72.1279C59.9231 71.5958 59.9802 71.067 59.8394 70.5415C59.682 69.9542 59.3019 69.5867 58.6992 69.439C58.104 69.2783 57.2706 69.3415 56.199 69.6286C55.6736 69.7694 55.1011 69.9614 54.4816 70.2047C53.8594 70.4377 53.1517 70.7433 52.3586 71.1214C51.5654 71.4996 50.6353 71.9642 49.5682 72.5151L48.6645 70.9352C50.0776 70.1921 51.3803 69.5725 52.5725 69.0764C53.762 68.5699 54.8307 68.1897 55.7786 67.9357C57.4786 67.4802 58.8307 67.4161 59.835 67.7433C60.8392 68.0705 61.4891 68.7854 61.7845 69.8878C62.0025 70.7018 61.9747 71.5043 61.7008 72.2955C61.4344 73.0736 60.9437 73.818 60.2286 74.5286C59.5135 75.2393 58.5956 75.8938 57.475 76.4922C56.3646 77.0879 55.0694 77.6116 53.5892 78.0635L52.7123 76.4598ZM58.0997 65.4089C57.3887 65.5994 56.581 65.7993 55.6763 66.0085C54.7792 66.2047 53.8418 66.3952 52.8643 66.5798C51.8943 66.7514 50.9487 66.9109 50.0275 67.0583L49.779 65.2034C50.569 65.1022 51.4233 64.9727 52.3417 64.8149C53.2602 64.6572 54.1783 64.4774 55.096 64.2757C56.0137 64.0739 56.859 63.8696 57.6317 63.6625L58.0997 65.4089ZM67.7404 72.3336C69.7289 71.8008 71.2855 71.2015 72.4102 70.5357C73.5452 69.8672 74.2836 69.0786 74.6253 68.1698C74.9747 67.248 74.9864 66.1792 74.6607 64.9634C74.3294 63.727 73.8196 62.8753 73.1312 62.4082C72.4504 61.928 71.5742 61.8315 70.5027 62.1186C69.9051 62.2788 69.3698 62.5271 68.8968 62.8637C68.4341 63.1975 68.0553 63.5971 67.7604 64.0626C67.4655 64.5282 67.2658 65.0399 67.1614 65.598C67.0672 66.1533 67.1002 66.7297 67.2603 67.3273L67.8028 69.3519L66.0101 69.8323L63.8318 61.703L65.6246 61.2227L66.5066 64.5145L65.8112 64.7009C66.0109 63.9627 66.3039 63.3044 66.69 62.7261C67.0865 62.1451 67.5789 61.6542 68.1672 61.2536C68.7632 60.84 69.4475 60.5296 70.2202 60.3225C71.7966 59.9002 73.1277 60.0459 74.2135 60.7599C75.3068 61.4608 76.0895 62.6922 76.5616 64.4541C76.9868 66.0407 76.974 67.4356 76.5233 68.6385C76.083 69.8387 75.1844 70.8746 73.8278 71.7461C72.4739 72.6279 70.6275 73.3821 68.2887 74.0088L67.7404 72.3336ZM85.664 69.3697C84.6337 69.6457 83.7978 69.6378 83.1564 69.3459C82.5281 69.0615 82.1021 68.502 81.8785 67.6674C81.6604 66.8535 81.7575 66.1649 82.1697 65.6017C82.5895 65.0254 83.3043 64.602 84.314 64.3314C85.0249 64.1409 85.7765 64.061 86.5688 64.0917C87.3611 64.1223 88.2589 64.2793 89.2625 64.5625C90.2632 64.8355 91.4345 65.2505 92.7764 65.8075L92.004 67.1905C90.8704 66.7102 89.8617 66.3455 88.9778 66.0965C88.1042 65.8447 87.3204 65.7013 86.6263 65.6664C85.9399 65.6185 85.303 65.6732 84.7157 65.8305C84.2109 65.9658 83.8672 66.1462 83.6847 66.3718C83.5097 66.5843 83.4678 66.8606 83.5589 67.2006C83.65 67.5406 83.8258 67.7641 84.0864 67.8709C84.3572 67.975 84.7244 67.965 85.1881 67.8408C85.7651 67.6862 86.1455 67.4572 86.3292 67.154C86.5206 66.8377 86.5444 66.4117 86.4009 65.8759L86.1276 64.8559L86.0967 64.8642L84.345 58.3268L86.1068 57.8547L86.6037 59.7093L90.8229 58.5788L91.2329 60.1088L87.0137 61.2393L88.2022 65.6748C88.4507 66.6021 88.3602 67.3773 87.9308 68.0003C87.5015 68.6233 86.7459 69.0798 85.664 69.3697ZM99.0767 64.0365C100.32 63.6482 101.415 63.2222 102.362 62.7587C103.306 62.2848 104.09 61.7878 104.712 61.2676C105.335 60.7474 105.775 60.2264 106.033 59.7046C106.288 59.1725 106.345 58.6437 106.204 58.1182C106.046 57.5309 105.666 57.1634 105.064 57.0157C104.468 56.855 103.635 56.9182 102.563 57.2053C102.038 57.3461 101.466 57.5381 100.846 57.7814C100.224 58.0144 99.5161 58.32 98.723 58.6981C97.9298 59.0763 96.9997 59.5409 95.9326 60.0918L95.0289 58.5119C96.4421 57.7688 97.7448 57.1492 98.937 56.6531C100.126 56.1466 101.195 55.7664 102.143 55.5124C103.843 55.0569 105.195 54.9928 106.199 55.32C107.204 55.6472 107.853 56.3621 108.149 57.4645C108.367 58.2785 108.339 59.081 108.065 59.8722C107.799 60.6503 107.308 61.3947 106.593 62.1053C105.878 62.816 104.96 63.4705 103.839 64.0689C102.729 64.6646 101.434 65.1883 99.9537 65.6402L99.0767 64.0365ZM104.464 52.9856C103.753 53.1761 102.945 53.3759 102.041 53.5852C101.144 53.7814 100.206 53.9719 99.2288 54.1565C98.2588 54.328 97.3132 54.4875 96.392 54.635L96.1434 52.7801C96.9335 52.6789 97.7877 52.5494 98.7062 52.3916C99.6246 52.2338 100.543 52.0541 101.46 51.8524C102.378 51.6506 103.223 51.4462 103.996 51.2392L104.464 52.9856ZM120.742 56.2436C120.515 56.3043 120.267 56.3654 119.996 56.4269C119.733 56.4753 119.465 56.5251 119.191 56.5763L118.756 54.9535C118.986 54.9031 119.212 54.8592 119.433 54.8218C119.663 54.7714 119.87 54.7213 120.056 54.6716C121.055 54.4038 121.728 54.0303 122.074 53.5509C122.428 53.0585 122.499 52.4157 122.287 51.6223C121.933 50.3035 121.154 49.8056 119.948 50.1286C119.753 50.1811 119.522 50.2703 119.258 50.3964C119.001 50.5094 118.686 50.6712 118.311 50.8819C117.948 51.0899 117.489 51.3783 116.937 51.7473L110.406 55.9983L109.426 54.505L115.972 50.2498C116.525 49.8809 117.008 49.5804 117.42 49.3484C117.84 49.1032 118.224 48.9066 118.571 48.7585C118.915 48.6 119.252 48.4766 119.581 48.3883C120.735 48.0791 121.704 48.1508 122.488 48.6033C123.272 49.0559 123.821 49.8694 124.136 51.044C124.484 52.3422 124.369 53.4386 123.791 54.3332C123.222 55.2148 122.205 55.8515 120.742 56.2436ZM117.148 61.3145C116.414 59.9763 115.654 58.6449 114.869 57.3204C114.091 55.9829 113.31 54.679 112.528 53.4088C111.754 52.1255 110.988 50.8952 110.231 49.7177L111.833 48.7748C112.604 49.9598 113.383 51.1977 114.17 52.4885C114.955 53.769 115.738 55.0832 116.519 56.431C117.307 57.7658 118.08 59.1047 118.837 60.4478L117.148 61.3145ZM118.215 53.9225C117.778 53.1562 117.248 52.2711 116.626 51.2674C116.011 50.2505 115.325 49.1533 114.568 47.9759L116.19 47.0443C116.596 47.6532 117.007 48.2996 117.422 48.9835C117.844 49.6543 118.258 50.333 118.663 51.0196C119.078 51.7035 119.458 52.3582 119.802 52.9837L118.215 53.9225Z" fill="white"/>
<defs>
<filter id="filter0_d_122_1163" x="23" y="0" width="263.18" height="27" filterUnits="userSpaceOnUse" color-interpolation-filters="sRGB">
<feFlood flood-opacity="0" result="BackgroundImageFix"/>
<feColorMatrix in="SourceAlpha" type="matrix" values="0 0 0 0 0 0 0 0 0 0 0 0 0 0 0 0 0 0 127 0" result="hardAlpha"/>
<feOffset/>
<feGaussianBlur stdDeviation="2"/>
<feComposite in2="hardAlpha" operator="out"/>
<feColorMatrix type="matrix" values="0 0 0 0 1 0 0 0 0 1 0 0 0 0 1 0 0 0 0.6 0"/>
<feBlend mode="normal" in2="BackgroundImageFix" result="effect1_dropShadow_122_1163"/>
<feBlend mode="normal" in="SourceGraphic" in2="effect1_dropShadow_122_1163" result="shape"/>
</filter>
<filter id="filter1_d_122_1163" x="106" y="128" width="107.405" height="63.5644" filterUnits="userSpaceOnUse" color-interpolation-filters="sRGB">
<feFlood flood-opacity="0" result="BackgroundImageFix"/>
<feColorMatrix in="SourceAlpha" type="matrix" values="0 0 0 0 0 0 0 0 0 0 0 0 0 0 0 0 0 0 127 0" result="hardAlpha"/>
<feOffset/>
<feGaussianBlur stdDeviation="3"/>
<feComposite in2="hardAlpha" operator="out"/>
<feColorMatrix type="matrix" values="0 0 0 0 0.282353 0 0 0 0 0.737255 0 0 0 0 0.796078 0 0 0 0.25 0"/>
<feBlend mode="normal" in2="BackgroundImageFix" result="effect1_dropShadow_122_1163"/>
<feBlend mode="normal" in="SourceGraphic" in2="effect1_dropShadow_122_1163" result="shape"/>
</filter>
<filter id="filter2_d_122_1163" x="215" y="45.0001" width="97.1143" height="130.423" filterUnits="userSpaceOnUse" color-interpolation-filters="sRGB">
<feFlood flood-opacity="0" result="BackgroundImageFix"/>
<feColorMatrix in="SourceAlpha" type="matrix" values="0 0 0 0 0 0 0 0 0 0 0 0 0 0 0 0 0 0 127 0" result="hardAlpha"/>
<feOffset/>
<feGaussianBlur stdDeviation="3"/>
<feComposite in2="hardAlpha" operator="out"/>
<feColorMatrix type="matrix" values="0 0 0 0 0.282353 0 0 0 0 0.737255 0 0 0 0 0.796078 0 0 0 0.25 0"/>
<feBlend mode="normal" in2="BackgroundImageFix" result="effect1_dropShadow_122_1163"/>
<feBlend mode="normal" in="SourceGraphic" in2="effect1_dropShadow_122_1163" result="shape"/>
</filter>
<filter id="filter3_d_122_1163" x="0" y="107" width="107.405" height="63.5644" filterUnits="userSpaceOnUse" color-interpolation-filters="sRGB">
<feFlood flood-opacity="0" result="BackgroundImageFix"/>
<feColorMatrix in="SourceAlpha" type="matrix" values="0 0 0 0 0 0 0 0 0 0 0 0 0 0 0 0 0 0 127 0" result="hardAlpha"/>
<feOffset/>
<feGaussianBlur stdDeviation="3"/>
<feComposite in2="hardAlpha" operator="out"/>
<feColorMatrix type="matrix" values="0 0 0 0 0.282353 0 0 0 0 0.737255 0 0 0 0 0.796078 0 0 0 0.25 0"/>
<feBlend mode="normal" in2="BackgroundImageFix" result="effect1_dropShadow_122_1163"/>
<feBlend mode="normal" in="SourceGraphic" in2="effect1_dropShadow_122_1163" result="shape"/>
</filter>
<filter id="filter4_d_122_1163" x="154" y="29" width="107.405" height="63.5644" filterUnits="userSpaceOnUse" color-interpolation-filters="sRGB">
<feFlood flood-opacity="0" result="BackgroundImageFix"/>
<feColorMatrix in="SourceAlpha" type="matrix" values="0 0 0 0 0 0 0 0 0 0 0 0 0 0 0 0 0 0 127 0" result="hardAlpha"/>
<feOffset/>
<feGaussianBlur stdDeviation="3"/>
<feComposite in2="hardAlpha" operator="out"/>
<feColorMatrix type="matrix" values="0 0 0 0 0.282353 0 0 0 0 0.737255 0 0 0 0 0.796078 0 0 0 0.25 0"/>
<feBlend mode="normal" in2="BackgroundImageFix" result="effect1_dropShadow_122_1163"/>
<feBlend mode="normal" in="SourceGraphic" in2="effect1_dropShadow_122_1163" result="shape"/>
</filter>
<filter id="filter5_d_122_1163" x="87" y="86" width="132" height="41" filterUnits="userSpaceOnUse" color-interpolation-filters="sRGB">
<feFlood flood-opacity="0" result="BackgroundImageFix"/>
<feColorMatrix in="SourceAlpha" type="matrix" values="0 0 0 0 0 0 0 0 0 0 0 0 0 0 0 0 0 0 127 0" result="hardAlpha"/>
<feOffset/>
<feGaussianBlur stdDeviation="3"/>
<feComposite in2="hardAlpha" operator="out"/>
<feColorMatrix type="matrix" values="0 0 0 0 0.282353 0 0 0 0 0.737255 0 0 0 0 0.796078 0 0 0 0.25 0"/>
<feBlend mode="normal" in2="BackgroundImageFix" result="effect1_dropShadow_122_1163"/>
<feBlend mode="normal" in="SourceGraphic" in2="effect1_dropShadow_122_1163" result="shape"/>
</filter>
<filter id="filter6_d_122_1163" x="4" y="30" width="135.417" height="71.0701" filterUnits="userSpaceOnUse" color-interpolation-filters="sRGB">
<feFlood flood-opacity="0" result="BackgroundImageFix"/>
<feColorMatrix in="SourceAlpha" type="matrix" values="0 0 0 0 0 0 0 0 0 0 0 0 0 0 0 0 0 0 127 0" result="hardAlpha"/>
<feOffset/>
<feGaussianBlur stdDeviation="3"/>
<feComposite in2="hardAlpha" operator="out"/>
<feColorMatrix type="matrix" values="0 0 0 0 0.282353 0 0 0 0 0.737255 0 0 0 0 0.796078 0 0 0 0.25 0"/>
<feBlend mode="normal" in2="BackgroundImageFix" result="effect1_dropShadow_122_1163"/>
<feBlend mode="normal" in="SourceGraphic" in2="effect1_dropShadow_122_1163" result="shape"/>
</filter>
</defs>
</svg>
