<svg width="322" height="193" viewBox="0 0 322 193" fill="none" xmlns="http://www.w3.org/2000/svg">
<g filter="url(#filter0_d_122_982)">
<rect x="75" y="5" width="64" height="17" stroke="white" stroke-width="2"/>
<rect x="145" y="5" width="64" height="17" stroke="white" stroke-width="2"/>
<rect x="215" y="5" width="64" height="17" stroke="white" stroke-width="2"/>
<rect x="5" y="5" width="64" height="17" stroke="white" stroke-width="2"/>
<path d="M290.02 17.124C290.444 17.076 290.832 16.956 291.184 16.764C291.544 16.564 291.852 16.312 292.108 16.008C292.372 15.696 292.576 15.34 292.72 14.94C292.864 14.54 292.936 14.108 292.936 13.644C292.936 12.988 292.784 12.416 292.48 11.928C292.176 11.432 291.752 11.052 291.208 10.788C290.672 10.524 290.048 10.392 289.336 10.392C288.728 10.392 288.164 10.492 287.644 10.692C287.124 10.892 286.664 11.172 286.264 11.532C285.872 11.884 285.564 12.3 285.34 12.78C285.116 13.252 285.004 13.76 285.004 14.304C285.004 14.696 285.068 15.072 285.196 15.432C285.324 15.792 285.484 16.088 285.676 16.32C285.876 16.544 286.084 16.656 286.3 16.656C286.612 16.656 286.912 16.372 287.2 15.804C287.488 15.236 287.748 14.42 287.98 13.356C288.22 12.284 288.42 11 288.58 9.504L289.972 9.648C289.796 11.136 289.596 12.412 289.372 13.476C289.148 14.54 288.892 15.412 288.604 16.092C288.316 16.772 287.988 17.276 287.62 17.604C287.252 17.924 286.836 18.084 286.372 18.084C285.988 18.084 285.632 17.988 285.304 17.796C284.976 17.604 284.692 17.336 284.452 16.992C284.212 16.648 284.024 16.248 283.888 15.792C283.752 15.328 283.684 14.832 283.684 14.304C283.684 13.552 283.824 12.86 284.104 12.228C284.384 11.588 284.776 11.036 285.28 10.572C285.784 10.108 286.38 9.748 287.068 9.492C287.764 9.228 288.524 9.096 289.348 9.096C290.316 9.096 291.172 9.28 291.916 9.648C292.668 10.016 293.256 10.54 293.68 11.22C294.104 11.9 294.316 12.708 294.316 13.644C294.316 14.276 294.22 14.864 294.028 15.408C293.844 15.952 293.58 16.436 293.236 16.86C292.892 17.276 292.48 17.616 292 17.88C291.52 18.144 290.988 18.312 290.404 18.384L290.02 17.124ZM301.504 18.444C300.64 18.444 299.964 18.252 299.476 17.868C298.996 17.476 298.756 16.932 298.756 16.236C298.756 15.524 298.996 14.976 299.476 14.592C299.956 14.208 300.632 14.016 301.504 14.016C301.88 14.016 302.244 14.064 302.596 14.16C302.948 14.248 303.312 14.408 303.688 14.64C304.064 14.872 304.484 15.192 304.948 15.6C305.42 16 305.972 16.512 306.604 17.136L305.716 18.084C305.148 17.508 304.656 17.036 304.24 16.668C303.832 16.292 303.472 16 303.16 15.792C302.848 15.584 302.552 15.44 302.272 15.36C302 15.272 301.72 15.228 301.432 15.228C300.504 15.228 300.04 15.564 300.04 16.236C300.04 16.9 300.504 17.232 301.432 17.232C301.936 17.232 302.292 17.128 302.5 16.92C302.716 16.704 302.824 16.352 302.824 15.864V8.448H304.216V15.924C304.216 16.764 303.984 17.396 303.52 17.82C303.064 18.236 302.392 18.444 301.504 18.444ZM298.792 11.544V10.332H306.424V11.544H298.792ZM296.572 18.66C296.364 17.836 296.212 17.024 296.116 16.224C296.02 15.424 295.972 14.576 295.972 13.68C295.972 12.792 296.02 11.952 296.116 11.16C296.212 10.36 296.36 9.548 296.56 8.724L297.976 8.904C297.784 9.68 297.64 10.46 297.544 11.244C297.456 12.02 297.412 12.832 297.412 13.68C297.412 14.528 297.456 15.344 297.544 16.128C297.64 16.912 297.784 17.684 297.976 18.444L296.572 18.66ZM312.184 15.372C312.184 15.036 312.22 14.72 312.292 14.424C312.364 14.128 312.496 13.844 312.688 13.572C312.88 13.292 313.148 13.032 313.492 12.792C313.764 12.6 313.984 12.424 314.152 12.264C314.32 12.104 314.436 11.948 314.5 11.796C314.572 11.644 314.608 11.492 314.608 11.34C314.608 11.028 314.468 10.804 314.188 10.668C313.916 10.524 313.48 10.452 312.88 10.452C312.456 10.452 312.036 10.488 311.62 10.56C311.204 10.624 310.768 10.732 310.312 10.884L310 9.576C310.456 9.432 310.952 9.32 311.488 9.24C312.024 9.16 312.556 9.12 313.084 9.12C315.148 9.12 316.18 9.788 316.18 11.124C316.18 11.428 316.128 11.708 316.024 11.964C315.928 12.212 315.768 12.456 315.544 12.696C315.32 12.936 315.024 13.184 314.656 13.44C314.416 13.608 314.224 13.796 314.08 14.004C313.936 14.212 313.836 14.432 313.78 14.664C313.724 14.896 313.688 15.132 313.672 15.372H312.184ZM312.076 18V16.368H313.78V18H312.076Z" fill="white"/>
</g>
<g filter="url(#filter1_d_122_982)">
<rect x="18" y="167.899" width="91" height="29" transform="rotate(-75 18 167.899)" fill="#128FCD" fill-opacity="0.2" shape-rendering="crispEdges"/>
<rect x="19.2247" y="167.192" width="89" height="27" transform="rotate(-75 19.2247 167.192)" stroke="#48BCCB" stroke-opacity="0.5" stroke-width="2" shape-rendering="crispEdges"/>
</g>
<path d="M44.2124 156.031C44.0937 156.474 43.9778 156.824 43.8648 157.081C43.7621 157.341 43.6348 157.527 43.4828 157.641C43.3336 157.745 43.135 157.785 42.887 157.763C42.6492 157.744 42.3346 157.681 41.9431 157.577L37.8476 156.479L37.2595 158.674L35.8068 158.284L36.9166 154.143L34.3356 153.451L33.2258 157.593L37.2595 158.674L36.7957 160.405L31.2629 158.922L33.3252 151.226L38.858 152.708L38.3155 154.733L42.071 155.739C42.2462 155.786 42.3764 155.815 42.4615 155.827C42.5364 155.836 42.5938 155.807 42.6338 155.741C42.6634 155.671 42.6989 155.559 42.7403 155.405C42.7735 155.281 42.7777 155.183 42.7531 155.11C42.7312 155.027 42.6419 154.948 42.4854 154.873C42.3316 154.787 42.0706 154.69 41.7024 154.58C41.3267 154.457 40.8054 154.301 40.1385 154.111L40.6875 152.619C41.4959 152.857 42.1588 153.063 42.6759 153.234C43.1931 153.406 43.5849 153.572 43.8513 153.731C44.1205 153.881 44.2948 154.055 44.3743 154.253C44.4668 154.443 44.4912 154.681 44.4476 154.968C44.4067 155.244 44.3283 155.599 44.2124 156.031ZM40.8741 168.057L39.3099 167.837C39.3902 166.754 39.4368 165.673 39.4498 164.594C39.4525 163.513 39.4335 162.409 39.393 161.283L40.9191 161.46C40.9728 162.579 40.9955 163.689 40.9873 164.791C40.9819 165.883 40.9441 166.971 40.8741 168.057ZM38.527 166.616C37.9739 166.579 37.4401 166.552 36.9255 166.535C36.4005 166.516 35.9117 166.506 35.4589 166.507L35.4852 165.172C35.9408 165.161 36.431 165.166 36.9559 165.185C37.4809 165.204 38.0133 165.236 38.5533 165.282L38.527 166.616ZM39.7282 165.348L35.1999 164.135L34.6036 166.36L33.1045 165.959L33.7008 163.733L32.3099 163.36L31.962 164.659L30.5402 164.278L31.7535 159.749L33.1754 160.13L32.7613 161.676L34.1522 162.049L34.6284 160.271L36.1275 160.673L35.6513 162.45L40.1796 163.664L39.7282 165.348ZM39.2077 161.912L38.5911 163.039C38.2093 162.815 37.821 162.595 37.4262 162.379C37.0314 162.163 36.6479 161.966 36.2757 161.789L36.8263 160.661C37.2088 160.841 37.604 161.035 38.0119 161.244C38.4198 161.453 38.8184 161.676 39.2077 161.912ZM42.7889 162.209L41.0658 162.891C40.8764 162.155 40.6112 161.537 40.2703 161.038C39.9322 160.527 39.4504 160.1 38.8248 159.756C38.2021 159.401 37.3755 159.086 36.3452 158.81L36.9749 157.14C38.17 157.46 39.1494 157.844 39.9129 158.291C40.6764 158.739 41.2832 159.277 41.7331 159.906C42.1831 160.534 42.535 161.302 42.7889 162.209ZM31.9978 165.761L30.1449 165.629C29.8715 164.96 29.5596 164.352 29.2092 163.805C28.8512 163.245 28.444 162.683 27.9878 162.119L28.435 160.45C29.0476 160.184 29.5866 159.903 30.0521 159.608C30.5204 159.303 30.954 158.983 31.3529 158.648L32.6359 159.671C32.1633 160.074 31.671 160.428 31.1587 160.733C30.6361 161.035 30.0611 161.306 29.4335 161.546C29.9968 162.205 30.4886 162.883 30.909 163.581C31.3293 164.279 31.6923 165.006 31.9978 165.761ZM32.5786 157.535C32.055 157.594 31.5338 157.664 31.0149 157.746C30.4857 157.825 29.9693 157.918 29.4655 158.026L29.3873 156.217C29.8883 156.119 30.3968 156.034 30.9129 155.963C31.4318 155.881 31.9568 155.817 32.488 155.772L32.5786 157.535ZM33.8046 153.64L32.7599 155.066C32.3921 154.625 31.9969 154.205 31.5741 153.804C31.141 153.401 30.6983 153.034 30.2459 152.703L31.1341 151.119C31.6175 151.458 32.087 151.849 32.5427 152.291C32.9908 152.721 33.4115 153.17 33.8046 153.64ZM45.4967 148.209C45.3559 148.735 45.0664 149.176 44.6283 149.533C44.1799 149.888 43.6179 150.152 42.9422 150.324C42.2666 150.496 41.5073 150.569 40.6642 150.542C39.8137 150.502 38.9247 150.357 37.9974 150.109C37.2453 149.907 36.4685 149.633 35.6671 149.286C34.8581 148.925 34.0259 148.487 33.1704 147.971L33.8712 146.22C34.6629 146.687 35.4285 147.085 36.1682 147.416C36.9078 147.746 37.6176 148.003 38.2976 148.185C38.9467 148.359 39.5735 148.472 40.1781 148.523C40.7827 148.575 41.3248 148.571 41.8045 148.512C42.2869 148.442 42.6822 148.327 42.9902 148.167C43.3009 147.996 43.4908 147.782 43.5599 147.524C43.6261 147.277 43.5949 146.982 43.4661 146.638C43.3298 146.281 43.1227 145.9 42.845 145.494C42.5672 145.089 42.2323 144.69 41.8405 144.298C41.4514 143.895 41.0292 143.534 40.5741 143.213L41.8517 141.783C42.4833 142.228 43.052 142.723 43.5577 143.267C44.0635 143.811 44.4861 144.377 44.8255 144.965C45.1573 145.54 45.3807 146.107 45.4954 146.668C45.6205 147.232 45.6209 147.745 45.4967 148.209ZM46.0764 140.049C44.9018 139.734 43.7103 139.503 42.5019 139.356C41.2962 139.199 40.1162 139.131 38.9618 139.153C37.8102 139.165 36.7297 139.262 35.7201 139.444L35.6697 137.592C36.7343 137.369 37.8644 137.252 39.06 137.241C40.248 137.217 41.4771 137.287 42.7474 137.451C44.0101 137.602 45.2854 137.849 46.5733 138.195L46.0764 140.049ZM52.0908 128.359C52.0384 128.555 51.9766 128.765 51.9056 128.989C51.8448 129.216 51.7527 129.539 51.6292 129.958L50.1701 129.717C50.266 129.4 50.3429 129.133 50.4009 128.917C50.472 128.693 50.5309 128.494 50.5779 128.318C50.6552 128.03 50.6987 127.826 50.7085 127.707C50.721 127.578 50.6864 127.481 50.6047 127.415C50.5361 127.341 50.4057 127.251 50.2134 127.144C49.7492 126.898 49.2977 126.667 48.8589 126.45C48.4126 126.22 47.9597 125.994 47.5003 125.771C47.0409 125.549 46.5595 125.326 46.0561 125.103L44.2796 131.733C44.8825 132.038 45.5057 132.37 46.149 132.731C46.7952 133.08 47.4269 133.443 48.0441 133.818C48.6642 134.183 49.2402 134.547 49.7723 134.911L49.1404 136.712C48.4751 136.269 47.7762 135.828 47.0436 135.389C46.3006 134.947 45.5536 134.52 44.8024 134.109C44.0409 133.695 43.302 133.32 42.5858 132.985L45.3355 122.723C45.9522 122.977 46.5905 123.253 47.2505 123.551C47.9104 123.849 48.5662 124.163 49.2179 124.492C49.862 124.808 50.4738 125.121 51.0534 125.431C51.4022 125.613 51.6761 125.786 51.8752 125.95C52.0743 126.113 52.207 126.298 52.2734 126.503C52.3426 126.699 52.3591 126.946 52.323 127.246C52.2869 127.545 52.2095 127.916 52.0908 128.359ZM48.3545 135.442L46.9945 135.077L50.2618 122.883L51.6218 123.248L48.3545 135.442ZM49.702 129.856L49.1587 131.698C48.6596 131.377 48.1165 131.055 47.5294 130.732C46.9423 130.409 46.3473 130.095 45.7444 129.79C45.1312 129.482 44.5382 129.201 43.9655 128.949L44.5016 127.071C45.3696 127.459 46.2627 127.897 47.1808 128.386C48.0988 128.874 48.9393 129.365 49.702 129.856ZM45.5705 136.435L44.1332 136.05L48.001 121.615L49.4383 122L45.5705 136.435ZM41.3721 135.227L40.0584 134.875L41.7024 128.74L41.0842 128.574L39.7632 133.504L38.5732 133.185L39.8942 128.255L39.276 128.09L37.7935 133.622L36.4335 133.258L37.916 127.725L36.9578 127.468L37.4961 125.459L38.4543 125.716L39.9369 120.183L41.2969 120.548L39.8144 126.08L40.4326 126.246L41.7536 121.316L42.9436 121.635L41.6226 126.565L42.2408 126.731L43.8848 120.595L45.1985 120.947L41.3721 135.227ZM56.2723 111.888L48.5913 109.83L47.7299 113.045L46.0763 112.602L46.9376 109.387L42.3012 108.145L42.7939 106.306L47.4304 107.548L48.1509 104.859L49.8046 105.302L49.0841 107.991L56.7651 110.049L56.2723 111.888ZM53.3182 121.615L51.7498 121.41C51.9099 120.194 52.0443 118.972 52.153 117.742C52.2514 116.509 52.3113 115.255 52.3327 113.98L53.8382 114.234C53.825 115.479 53.773 116.724 53.6822 117.969C53.5942 119.205 53.4728 120.42 53.3182 121.615ZM51.0618 120.083C50.506 120.056 49.9694 120.039 49.452 120.033C48.9346 120.027 48.4468 120.034 47.9885 120.055L48.0046 118.634C48.4705 118.627 48.9672 118.627 49.4949 118.636C50.0151 118.632 50.5493 118.637 51.0976 118.652L51.0618 120.083ZM52.2758 118.52L47.7475 117.307L47.0435 119.934L45.5444 119.532L46.2484 116.905L44.8574 116.532L44.4019 118.232L42.9801 117.851L44.4502 112.365L45.872 112.746L45.3295 114.77L46.7205 115.143L47.3582 112.763L48.8573 113.165L48.2196 115.545L52.7478 116.758L52.2758 118.52ZM51.9165 114.73L51.2667 115.98C50.8877 115.746 50.5022 115.516 50.1101 115.289C49.7208 115.053 49.3414 114.841 48.972 114.653L49.5599 113.386C49.9397 113.576 50.3294 113.791 50.729 114.031C51.1313 114.26 51.5272 114.493 51.9165 114.73ZM44.4573 119.324L42.5538 119.195C42.2729 118.512 41.9656 117.867 41.6317 117.258C41.2902 116.637 40.9124 116.027 40.4981 115.43L40.9412 113.777C41.5243 113.414 42.0596 113.044 42.5472 112.667C43.0348 112.289 43.4929 111.899 43.9215 111.494L45.1404 112.633C44.6128 113.077 44.0964 113.479 43.5909 113.841C43.0751 114.2 42.5261 114.538 41.9437 114.857C42.4754 115.552 42.9534 116.282 43.3778 117.047C43.7947 117.799 44.1545 118.558 44.4573 119.324ZM59.5689 96.8037C59.2348 98.0504 58.722 99.078 58.0305 99.8866C57.3521 100.688 56.5486 101.234 55.6199 101.527C54.681 101.816 53.6706 101.816 52.5888 101.526C51.7439 101.3 51.0009 100.94 50.3598 100.448C49.7214 99.946 49.2088 99.3449 48.8221 98.6449C48.4279 97.9319 48.1901 97.1504 48.1086 96.3004L48.6291 96.2742L46.828 103.676L45.1743 103.233L48.3562 90.1219L50.0098 90.565L49.5303 92.5402C49.33 93.37 49.2597 94.1683 49.3192 94.9352C49.3712 95.689 49.546 96.3763 49.8434 96.9971C50.1436 97.6076 50.5553 98.132 51.0783 98.5703C51.5911 99.0059 52.208 99.3203 52.9293 99.5135C53.7123 99.7234 54.4379 99.7356 55.106 99.5502C55.7637 99.362 56.33 99.0002 56.8047 98.4649C57.2822 97.9192 57.6383 97.2085 57.873 96.3327C57.9227 96.1472 57.9727 95.9398 58.0232 95.7104C58.0661 95.4679 58.109 95.2254 58.1518 94.9829C58.1872 94.7273 58.2143 94.5027 58.233 94.3089L59.9869 94.5635C59.9598 94.7882 59.9221 95.0321 59.8737 95.2952C59.8356 95.561 59.7872 95.8241 59.7284 96.0845C59.68 96.3476 59.6268 96.5873 59.5689 96.8037ZM55.1694 93.9352C54.5804 94.0314 54.0117 94.1551 53.4632 94.3063C52.9072 94.4444 52.3298 94.621 51.7311 94.836L51.3495 93.2927C51.9482 93.0777 52.5321 92.8973 53.1012 92.7516C53.66 92.6032 54.2456 92.4785 54.8579 92.3776L55.1694 93.9352ZM54.9179 91.3501C54.3214 91.4332 53.7503 91.5452 53.2045 91.6861C52.6513 91.8139 52.0767 91.9802 51.4807 92.1849L51.13 90.6498C51.7363 90.4479 52.3226 90.2792 52.8889 90.1438C53.458 89.9982 54.0511 89.8865 54.6682 89.8089L54.9179 91.3501Z" fill="white"/>
<g filter="url(#filter2_d_122_982)">
<rect x="27.5059" y="31" width="120" height="29" transform="rotate(15 27.5059 31)" fill="#128FCD" fill-opacity="0.2" shape-rendering="crispEdges"/>
<rect x="28.213" y="32.2247" width="118" height="27" transform="rotate(15 28.213 32.2247)" stroke="#48BCCB" stroke-opacity="0.5" stroke-width="2" shape-rendering="crispEdges"/>
</g>
<path d="M35.0641 56.141C34.8065 56.0719 34.4796 55.9733 34.0833 55.845C33.6842 55.7271 33.2402 55.5915 32.7511 55.4384L33.0684 53.8835C33.4853 54.0173 33.8507 54.1373 34.1646 54.2435C34.4915 54.3421 34.7529 54.4177 34.9486 54.4701C35.1444 54.5226 35.2876 54.5444 35.3783 54.5356C35.469 54.5268 35.5385 54.4736 35.5867 54.3761C35.6377 54.2683 35.6949 54.0959 35.7584 53.8589L36.4086 51.4325L32.7303 50.4469L33.1527 48.8705L36.8464 49.8602L38.3869 44.1111L40.1951 44.5956L38.6546 50.3448L42.3792 51.3428L41.9569 52.9192L38.2322 51.9211L37.6028 54.2703C37.4565 54.8164 37.3161 55.237 37.1818 55.5323C37.055 55.8407 36.9039 56.0542 36.7286 56.1728C36.5608 56.3046 36.3426 56.3565 36.0739 56.3287C35.8129 56.314 35.4762 56.2514 35.0641 56.141ZM26.7233 53.3925L30.0983 40.7969L34.7502 42.0433L31.6195 53.7272L28.714 52.9487L29.1239 51.4186L30.3603 51.7499L32.6586 43.1725L31.4223 42.8412L28.4696 53.8605L26.7233 53.3925ZM34.8658 48.7829C34.8068 48.1376 34.7385 47.5065 34.6609 46.8894C34.586 46.2619 34.4978 45.6641 34.3961 45.0957L36.0401 44.9565C36.1446 45.5145 36.2342 46.1073 36.3091 46.7347C36.397 47.3545 36.469 47.9923 36.5253 48.6478L34.8658 48.7829ZM40.7695 50.3648L39.4153 49.4222C39.8674 48.8476 40.3096 48.2483 40.7419 47.6243C41.1741 47.0002 41.5648 46.3871 41.9139 45.7849L43.366 46.671C42.9936 47.2779 42.5833 47.9024 42.1352 48.5443C41.7002 49.1786 41.245 49.7855 40.7695 50.3648ZM34.8217 44.249L34.935 42.5898C36.0719 42.8392 37.1744 43.0518 38.2426 43.2276C39.3239 43.3959 40.3321 43.528 41.2671 43.6239C42.2022 43.7199 43.0163 43.7724 43.7096 43.7814L43.6272 45.4489C42.9854 45.4537 42.2125 45.4122 41.3084 45.3245C40.4043 45.2369 39.4064 45.1075 38.3148 44.9365C37.226 44.7552 36.0616 44.526 34.8217 44.249ZM47.6559 59.283C46.6153 59.0042 45.7714 58.5683 45.1242 57.9752C44.4742 57.3924 44.0384 56.6904 43.8167 55.869C43.6054 55.0505 43.6309 54.1518 43.8931 53.173C44.0974 52.4105 44.4315 51.6994 44.8954 51.0397C45.3593 50.3799 45.9307 49.7931 46.6094 49.2793C47.291 48.7552 48.0576 48.3256 48.9093 47.9907L49.1428 48.4176L44.6145 47.2043L45.0328 45.6433L51.0138 47.246L50.5707 48.8996C49.7878 49.1426 49.0625 49.5004 48.3947 49.973C47.7373 50.4484 47.1756 50.9991 46.7097 51.6252C46.2541 52.254 45.9297 52.9291 45.7364 53.6503C45.4631 54.6703 45.5301 55.533 45.9374 56.2385C46.355 56.9467 47.0686 57.4361 48.0783 57.7066C49.1911 58.0048 50.1463 57.9018 50.9439 57.3978C51.7443 56.8834 52.3115 56.0029 52.6456 54.7562C52.7919 54.2101 52.8926 53.6077 52.9477 52.9488C53.0158 52.2824 53.0393 51.5764 53.0182 50.8309C52.9971 50.0854 52.9362 49.3236 52.8355 48.5457L54.3885 47.8189C54.6915 48.4191 55.047 49.05 55.455 49.7114C55.8658 50.3626 56.2948 51.0076 56.742 51.6465C57.1996 52.2881 57.6527 52.8843 58.1014 53.4353L56.7931 54.6086C56.5448 54.2991 56.2841 53.9532 56.0111 53.5709C55.7484 53.1913 55.4696 52.7687 55.1747 52.3032C54.8825 51.8274 54.5578 51.2876 54.2006 50.6839L54.4421 50.4008C54.5554 51.0495 54.6223 51.6859 54.6428 52.3098C54.6662 52.9234 54.6486 53.504 54.5902 54.0515C54.5422 54.6018 54.4519 55.1242 54.3194 55.6188C54.0405 56.6594 53.5826 57.503 52.9456 58.1495C52.3189 58.7987 51.5536 59.2231 50.6498 59.4227C49.7564 59.625 48.7584 59.5784 47.6559 59.283ZM55.551 50.466C55.6232 49.8669 55.6599 49.297 55.6613 48.7563C55.6626 48.2155 55.6344 47.6613 55.5767 47.0937L57.1329 47.0966C57.1776 47.6718 57.1965 48.24 57.1897 48.8014C57.1959 49.3552 57.1639 49.9485 57.0937 50.5812L55.551 50.466ZM57.822 50.8923C57.8997 50.2726 57.9444 49.6938 57.956 49.1558C57.978 48.6206 57.9601 48.0692 57.9024 47.5016L59.4308 47.5467C59.4885 48.1143 59.5088 48.6774 59.4916 49.236C59.4744 49.7946 59.4205 50.3875 59.3297 51.0147L57.822 50.8923ZM58.6203 62.5025L57.7453 60.7607C58.4794 60.4936 59.1311 60.2044 59.7004 59.8932C60.28 59.5847 60.7893 59.2297 61.2281 58.8283C61.6697 58.4165 62.0582 57.9353 62.3934 57.3847C62.7418 56.8265 63.0555 56.1707 63.3347 55.4173C63.6242 54.6666 63.9056 53.7813 64.1789 52.7613L60.037 51.6515L60.4594 50.0751L66.5022 51.6942L67.0489 49.6542L68.9344 50.1594L68.3877 52.1994L74.4306 53.8186L74.0082 55.395L66.0799 53.2706C65.7127 54.641 65.3086 55.8192 64.8677 56.8053C64.4268 57.7915 63.9183 58.6381 63.3424 59.3451C62.7692 60.0418 62.0955 60.6398 61.3212 61.1391C60.5572 61.6411 59.6569 62.0956 58.6203 62.5025ZM67.0333 64.4255C66.6726 64.3288 66.2183 64.1905 65.6702 64.0106C65.1296 63.8436 64.5211 63.6419 63.8446 63.4054L64.2146 61.7156C64.8011 61.9169 65.353 62.1035 65.8702 62.2752C66.3873 62.4469 66.8005 62.5741 67.1096 62.657C67.3569 62.7232 67.5884 62.7245 67.8042 62.6609C68.0201 62.5972 68.2237 62.4144 68.415 62.1123C68.6167 61.813 68.8275 61.3559 69.0474 60.7412C69.2804 60.119 69.5377 59.2824 69.8193 58.2315L69.8442 58.1388L64.0177 56.5776L64.4442 54.9857L72.1253 57.0439L71.7981 58.2648C71.4668 59.5012 71.1585 60.5284 70.873 61.3464C70.6006 62.1568 70.3285 62.8017 70.0565 63.2809C69.7845 63.7602 69.5007 64.0983 69.205 64.2951C68.9196 64.4947 68.5996 64.5967 68.2451 64.6011C67.8905 64.6055 67.4866 64.5469 67.0333 64.4255ZM73.0265 65.3025C73.67 64.4259 74.2515 63.6154 74.7712 62.8712C75.2936 62.1167 75.7754 61.39 76.2167 60.6911C76.6683 59.9949 77.0968 59.2815 77.5024 58.5509C77.9183 57.8231 78.3325 57.0396 78.7451 56.2005C79.1577 55.3613 79.5951 54.4294 80.0574 53.4048L81.7963 54.0861C81.3554 55.0723 80.9273 55.9901 80.5119 56.8395C80.0993 57.6787 79.6744 58.4814 79.2372 59.2477C78.813 60.0064 78.3631 60.7582 77.8874 61.5032C77.4221 62.2509 76.9137 63.0147 76.3624 63.7945C75.8214 64.5772 75.2227 65.4106 74.5661 66.2948L73.0265 65.3025ZM86.0874 66.6322C86.1603 65.9892 86.2133 65.2967 86.2465 64.5546C86.2927 63.8051 86.3132 63.0486 86.308 62.2852C86.3027 61.5218 86.2802 60.7815 86.2405 60.0641L88.0927 60.0137C88.1268 60.7517 88.1438 61.5127 88.1435 62.2967C88.1564 63.0731 88.142 63.8478 88.1006 64.6207C88.0619 65.3834 88.0057 66.1082 87.932 66.7952L86.0874 66.6322ZM86.3447 59.1809C86.2286 58.5425 86.1012 57.9672 85.9623 57.4552C85.8234 56.9431 85.6523 56.4279 85.4488 55.9096L86.9303 55.5115C87.1413 56.0429 87.3121 56.58 87.4427 57.123C87.5836 57.6687 87.7083 58.2543 87.8168 58.8797L86.3447 59.1809ZM88.7278 58.9416C88.6351 58.2983 88.5245 57.7221 88.396 57.2128C88.2701 56.6932 88.1144 56.1821 87.9288 55.6796L89.367 55.3196C89.5753 55.8613 89.7395 56.4022 89.8598 56.9424C89.9904 57.4854 90.0982 58.072 90.1834 58.7021L88.7278 58.9416ZM80.322 67.4395C80.0541 67.3678 79.7289 67.242 79.3464 67.0622C78.9611 66.8927 78.5635 66.6868 78.1536 66.4444C77.7513 66.2151 77.3685 65.9745 77.0053 65.7226L77.8408 64.2735C78.1532 64.4676 78.4605 64.6604 78.7626 64.8518C79.0777 65.0356 79.3661 65.1957 79.6278 65.3321C79.9024 65.4609 80.1171 65.546 80.2716 65.5874C80.6013 65.6757 80.9144 65.5995 81.2108 65.3587C81.51 65.1076 81.7981 64.6713 82.075 64.0498C82.3651 63.4207 82.6481 62.5911 82.9242 61.5607C83.0843 60.9631 83.1921 60.4785 83.2475 60.1069C83.3056 59.7249 83.2926 59.4233 83.2084 59.2019C83.1344 58.9833 82.9769 58.8086 82.7359 58.6778C82.4949 58.5469 82.158 58.4235 81.7253 58.3076L75.1725 56.5518L75.6031 54.9445L81.986 56.6547C82.6969 56.8452 83.281 57.0349 83.7384 57.2237C84.2089 57.405 84.5611 57.6153 84.7951 57.8547C85.0394 58.0968 85.1882 58.4072 85.2413 58.7859C85.3075 59.157 85.2867 59.6263 85.1788 60.1937C85.084 60.7536 84.9262 61.4456 84.7053 62.2699C84.3464 63.6093 83.9518 64.6907 83.5213 65.514C83.0909 66.3373 82.6065 66.9087 82.0681 67.2283C81.5428 67.5403 80.9608 67.6107 80.322 67.4395ZM98.1946 65.5862C98.0195 65.5393 97.7801 65.4641 97.4765 65.3606C97.1833 65.26 96.823 65.1414 96.3958 65.0048L96.6739 63.4726C96.9774 63.576 97.2346 63.667 97.4455 63.7456C97.6694 63.8166 97.8432 63.8687 97.9668 63.9018C98.1214 63.9432 98.2309 63.9671 98.2955 63.9733C98.3732 63.9721 98.4282 63.9316 98.4606 63.8519C98.5033 63.775 98.5508 63.6387 98.6033 63.4429L99.2244 61.1247L91.4816 59.05L91.8874 57.5354L97.6521 59.0801L97.9792 57.8591L99.8647 58.3643L99.5375 59.5853L105.302 61.1299L104.896 62.6445L100.986 61.5968L100.39 63.8223C100.257 64.3168 100.131 64.708 100.009 64.9957C99.8908 65.2732 99.7555 65.4688 99.6035 65.5827C99.4619 65.6994 99.2759 65.7544 99.0458 65.748C98.8287 65.734 98.5449 65.68 98.1946 65.5862ZM89.7245 67.524L89.3358 65.9456C90.6283 65.8612 91.8007 65.6895 92.853 65.4303C93.9052 65.1712 94.7982 64.8473 95.5318 64.4586L96.8302 65.4856C96.2237 65.8532 95.5338 66.1818 94.7605 66.4715C93.9899 66.7509 93.1775 66.9805 92.3232 67.1602C91.4689 67.3399 90.6027 67.4611 89.7245 67.524ZM88.7047 70.4642L88.7057 68.7915C90.1325 69.0302 91.4159 69.1864 92.5557 69.2599C93.6982 69.3231 94.7207 69.2989 95.623 69.1873C96.5356 69.0784 97.3538 68.8891 98.0776 68.6193C98.8042 68.3391 99.4674 67.9867 100.067 67.5621L101.215 68.7807C100.387 69.3981 99.3734 69.883 98.1746 70.2354C96.9862 70.5906 95.6077 70.7899 94.039 70.8334C92.4675 70.8872 90.6894 70.7641 88.7047 70.4642ZM91.2661 64.2432L90.0701 62.8957C90.6738 62.5385 91.2501 62.1187 91.799 61.6363C92.3507 61.1436 92.8357 60.611 93.2542 60.0385L94.7165 61.0101C94.276 61.665 93.7548 62.2708 93.1529 62.8273C92.5613 63.3866 91.9324 63.8585 91.2661 64.2432ZM101.594 73.9179C100.335 73.4258 99.1335 72.839 97.9909 72.1574C96.8484 71.4758 95.8259 70.738 94.9233 69.944C94.031 69.1528 93.3095 68.3631 92.7587 67.575L94.2088 66.7378C94.7445 67.4998 95.3998 68.2275 96.1747 68.921C96.9627 69.607 97.8781 70.2498 98.9211 70.8496C99.9669 71.439 101.136 71.9787 102.43 72.4688L101.594 73.9179ZM93.3173 66.6646L93.69 65.2737L101.587 67.3898L101.215 68.7807L93.3173 66.6646ZM93.8068 65.0233L92.7562 63.5658C93.4203 63.313 93.9751 63.0145 94.4208 62.6701C94.8795 62.3181 95.2569 61.8782 95.553 61.3501C95.8518 60.8118 96.1089 60.1408 96.3243 59.3372L98.0398 59.7968C97.783 60.755 97.4667 61.5647 97.0907 62.226C96.7251 62.89 96.2719 63.4477 95.7313 63.8992C95.2038 64.3431 94.5623 64.7178 93.8068 65.0233ZM102.473 67.1136C102.29 66.4352 102.054 65.7313 101.763 65.002C101.483 64.2754 101.169 63.5728 100.821 62.8942L102.531 62.5077C102.872 63.1732 103.187 63.8706 103.478 64.6C103.781 65.3218 104.025 66.0219 104.207 66.7003L102.473 67.1136ZM113.467 75.9728C112.91 75.8237 112.337 75.6149 111.746 75.3462C111.166 75.0803 110.623 74.78 110.116 74.4455L110.882 72.9448C111.359 73.227 111.878 73.4932 112.441 73.7433C113.006 73.9831 113.5 74.1596 113.922 74.2728C114.571 74.4467 115.105 74.4738 115.524 74.3541C115.953 74.2371 116.32 73.9379 116.626 73.4567C116.931 72.9754 117.207 72.2762 117.453 71.3592C117.803 70.0507 117.84 69.028 117.562 68.2911C117.298 67.5467 116.702 67.0502 115.775 66.8018C115.384 66.6968 114.974 66.6589 114.547 66.6879C114.132 66.7094 113.666 66.7999 113.149 66.9594C112.641 67.1216 112.059 67.3796 111.401 67.7334C110.746 68.0768 109.981 68.5181 109.108 69.0571L108.969 69.0198C108.44 69.3861 107.865 69.8008 107.244 70.2638C106.634 70.7296 105.969 71.2527 105.25 71.8332L104.59 70.0329C105.873 69.1178 107.009 68.34 107.998 67.6994C109 67.0513 109.892 66.523 110.675 66.1144C111.458 65.7058 112.167 65.4098 112.801 65.2264C113.439 65.0328 114.029 64.9314 114.572 64.9225C115.129 64.906 115.68 64.9709 116.226 65.1172C117.741 65.523 118.75 66.2903 119.254 67.4192C119.771 68.5404 119.783 70.0181 119.292 71.852C118.795 73.7066 118.083 74.9625 117.156 75.6196C116.232 76.2664 115.002 76.3842 113.467 75.9728ZM106.331 74.9718L108.84 65.6061L105.873 64.811L106.295 63.2347L109.263 64.0297L109.867 61.7733L111.66 62.2537L108.123 75.4521L106.331 74.9718ZM125.774 80.1153C124.249 79.7067 123.13 79.142 122.418 78.421C121.716 77.7028 121.485 76.8956 121.725 75.9992C121.93 75.2368 122.403 74.7285 123.144 74.4745C123.899 74.2129 124.833 74.2312 125.946 74.5294C126.996 74.811 127.732 75.2179 128.153 75.7503C128.576 76.2723 128.684 76.9196 128.477 77.6924C128.403 77.9706 128.281 78.2583 128.113 78.5556C127.956 78.8557 127.759 79.1564 127.524 79.4578L125.873 78.8168C126.112 78.5051 126.295 78.234 126.423 78.0032C126.561 77.7753 126.655 77.5686 126.705 77.3831C126.893 76.6825 126.471 76.1942 125.441 75.9181C124.915 75.7773 124.48 75.7544 124.134 75.8495C123.801 75.9371 123.592 76.1406 123.507 76.46C123.391 76.8927 123.551 77.3055 123.987 77.6984C124.425 78.0809 125.077 78.3881 125.943 78.62C127.602 79.0645 128.898 79.1523 129.831 78.8834C130.778 78.6069 131.386 77.9638 131.657 76.9541C131.886 76.099 131.735 75.3849 131.204 74.8119C130.683 74.2417 129.732 73.7716 128.351 73.4016C127.558 73.1891 126.838 73.0735 126.192 73.0548C125.548 73.0259 124.93 73.0866 124.337 73.2371L121.982 73.865L121.622 72.2444L131.709 69.7128L131.63 70.0065L123.763 67.8987L124.182 66.3377L134.753 69.1702L134.334 70.7312L125.679 72.8677L124.932 71.8227C125.281 71.795 125.664 71.7872 126.081 71.7993C126.51 71.804 126.939 71.8306 127.368 71.8792C127.81 71.9203 128.232 71.9727 128.634 72.0364C129.04 72.0898 129.402 72.1592 129.722 72.2448C131.288 72.6645 132.4 73.3158 133.057 74.1988C133.715 75.0818 133.881 76.1312 133.556 77.347C133.166 78.7998 132.295 79.7644 130.942 80.241C129.598 80.7204 127.876 80.6785 125.774 80.1153Z" fill="white"/>
<g filter="url(#filter3_d_122_982)">
<rect x="80" y="158.553" width="91" height="29" transform="rotate(-15 80 158.553)" fill="#128FCD" fill-opacity="0.2" shape-rendering="crispEdges"/>
<rect x="81.2247" y="159.26" width="89" height="27" transform="rotate(-15 81.2247 159.26)" stroke="#48BCCB" stroke-opacity="0.5" stroke-width="2" shape-rendering="crispEdges"/>
</g>
<path d="M104.725 175.01L102.493 166.68L108.567 165.052L108.19 163.646L107.031 163.956L107.408 165.363L105.863 165.777L105.121 163.01L107.826 162.286L107.557 161.281L103.801 162.287L104.812 166.058L103.173 166.497L101.765 161.243L108.844 159.346L110.252 164.601L111.04 164.39L112.618 170.278C112.761 170.814 112.859 171.24 112.911 171.558C112.966 171.885 112.957 172.142 112.885 172.326C112.826 172.519 112.694 172.665 112.489 172.764C112.286 172.873 111.999 172.978 111.629 173.077C111.433 173.13 111.169 173.195 110.836 173.273C110.514 173.348 110.108 173.44 109.618 173.55L109.114 171.979C109.522 171.891 109.852 171.825 110.105 171.779C110.355 171.723 110.536 171.68 110.65 171.65C110.815 171.606 110.925 171.565 110.981 171.528C111.048 171.488 111.073 171.415 111.055 171.309C111.048 171.201 111.01 171.018 110.941 170.76L109.753 166.325L104.545 167.72L106.379 174.567L104.725 175.01ZM98.9658 176.387L98.3436 174.931C99.2322 174.538 100.107 174.116 100.969 173.664C101.841 173.21 102.715 172.721 103.591 172.199L104.104 173.619C103.267 174.164 102.418 174.662 101.556 175.114C100.705 175.563 99.8414 175.987 98.9658 176.387ZM98.9625 173.655C98.7187 173.157 98.4752 172.681 98.2321 172.228C97.9863 171.763 97.7501 171.335 97.5236 170.943L98.6308 170.315C98.8676 170.705 99.1089 171.131 99.3548 171.595C99.6006 172.06 99.8389 172.537 100.07 173.027L98.9625 173.655ZM100.492 174.107L99.2782 169.579L97.2845 170.113L96.8828 168.614L98.8765 168.079L98.5038 166.689L97.3447 166.999L96.9637 165.577L101.337 164.405L101.718 165.827L100.173 166.241L100.546 167.632L102.23 167.181L102.632 168.68L100.947 169.131L102.161 173.66L100.492 174.107ZM103.052 171.98L101.83 171.992C101.833 171.55 101.829 171.104 101.819 170.654C101.809 170.204 101.787 169.773 101.755 169.362L102.945 169.292C102.98 169.713 103.005 170.154 103.018 170.614C103.041 171.072 103.052 171.527 103.052 171.98ZM106.902 173.366L105.536 168.266L109.183 167.289L110.297 171.446L108.087 172.038L107.727 170.694L108.561 170.47L108.172 169.018L107.337 169.241L108.34 172.981L106.902 173.366ZM96.5002 167.557L95.6798 165.855C96.0687 165.287 96.4085 164.721 96.6992 164.157C96.9871 163.583 97.2419 162.968 97.4638 162.313L99.0247 161.894C99.5116 162.228 100.008 162.536 100.515 162.82C101.029 163.091 101.576 163.337 102.154 163.557L101.504 165.089C100.985 164.842 100.494 164.576 100.031 164.291C99.579 164.004 99.1141 163.67 98.6368 163.29C98.376 164.089 98.0704 164.844 97.7202 165.557C97.3671 166.259 96.9605 166.925 96.5002 167.557ZM116.579 172.016L114.554 164.459L112.405 165.034L112.008 163.55L114.171 162.971L112.85 158.041L114.52 157.593L115.841 162.524L117.772 162.006L118.17 163.49L116.254 164.003L118.279 171.56L116.579 172.016ZM114.501 170.817L113.188 169.314C113.592 168.311 113.88 167.323 114.05 166.349C114.23 165.373 114.3 164.377 114.259 163.361L115.199 163.59C115.322 164.462 115.378 165.331 115.367 166.195C115.353 167.049 115.269 167.872 115.117 168.664C114.972 169.443 114.767 170.16 114.501 170.817ZM118.341 167.899C117.778 167.2 117.212 166.507 116.641 165.821C116.078 165.121 115.496 164.41 114.894 163.688L115.842 162.838C116.416 163.457 116.987 164.083 117.554 164.715C118.118 165.337 118.68 165.97 119.239 166.615L118.341 167.899ZM112.647 163.031C112.35 162.459 112.042 161.885 111.722 161.308C111.412 160.729 111.116 160.201 110.833 159.724L112.14 158.976C112.423 159.453 112.719 159.981 113.029 160.56C113.336 161.13 113.624 161.71 113.892 162.3L112.647 163.031ZM119.394 168.86L118.817 167.325L127.391 163.222L127.968 164.757L119.394 168.86ZM122.028 164.907C121.453 164.531 120.837 164.15 120.181 163.762C119.522 163.365 118.833 162.975 118.112 162.594L119.023 161.108C119.74 161.479 120.432 161.856 121.099 162.241C121.765 162.626 122.381 163.007 122.946 163.386L122.028 164.907ZM117.18 161.833L115.704 161.765C115.74 161.159 115.746 160.522 115.722 159.855C115.705 159.175 115.664 158.546 115.597 157.967L117.108 157.794C117.165 158.42 117.201 159.089 117.215 159.803C117.227 160.507 117.215 161.183 117.18 161.833ZM125.728 169.564L121.984 155.593L123.792 155.109L127.536 169.08L125.728 169.564ZM121.826 160.754C121.29 160.401 120.727 160.049 120.136 159.7C119.556 159.347 118.938 158.999 118.283 158.656L119.213 157.181C119.865 157.514 120.487 157.855 121.077 158.205C121.665 158.544 122.226 158.886 122.759 159.228L121.826 160.754ZM133.691 166.95L133.289 165.451L137.786 164.246L137.372 162.701L133.787 163.662L133.41 162.255L136.995 161.294L135.798 156.828L133.959 157.321L133.62 156.053L135.459 155.561L135.032 153.969L136.871 153.476L137.298 155.068L139.137 154.575L138.711 152.983L133.193 154.462L134.775 160.365L133.075 160.821L131.104 153.464L140.021 151.075L141.993 158.431L134.775 160.365L134.407 158.99L139.924 157.511L139.477 155.842L137.638 156.335L138.834 160.802L142.605 159.791L142.982 161.198L139.211 162.208L139.625 163.753L143.613 162.685L144.014 164.184L133.691 166.95ZM129.594 167.054L129.001 165.523C129.435 165.286 129.886 165.032 130.355 164.763C130.831 164.481 131.3 164.19 131.761 163.89C132.229 163.576 132.682 163.267 133.119 162.962L133.575 164.48C133.161 164.79 132.725 165.1 132.267 165.41C131.809 165.721 131.353 166.014 130.897 166.291C130.441 166.568 130.006 166.822 129.594 167.054ZM130.38 165.104L129.274 160.978L128.115 161.289L127.689 159.697L128.848 159.386L128.082 156.527L126.768 156.879L126.333 155.256L130.753 154.072L131.188 155.695L129.843 156.055L130.61 158.914L131.861 158.579L132.288 160.17L131.036 160.506L132.142 164.632L130.38 165.104ZM154.633 160.478C153.706 160.726 152.842 160.82 152.041 160.758C151.251 160.694 150.589 160.49 150.055 160.147C149.529 159.791 149.188 159.319 149.03 158.732C148.749 157.681 149.144 156.416 150.216 154.936L151.814 155.584C151.387 156.174 151.089 156.668 150.919 157.066C150.76 157.462 150.721 157.81 150.801 158.109C150.884 158.418 151.079 158.652 151.387 158.813C151.695 158.973 152.087 159.056 152.564 159.061C153.04 159.066 153.582 158.987 154.19 158.824C154.705 158.686 155.272 158.495 155.892 158.252C156.519 157.996 157.144 157.712 157.767 157.401L158.45 158.958C157.819 159.282 157.174 159.576 156.516 159.84C155.868 160.102 155.241 160.315 154.633 160.478ZM148.047 152.221L147.6 150.552L155.528 148.427L155.976 150.096L148.047 152.221ZM147.01 163.249C146.458 162.259 145.982 161.266 145.582 160.269C145.183 159.272 144.828 158.196 144.519 157.042C144.213 155.899 143.985 154.8 143.835 153.747C143.682 152.684 143.598 151.585 143.582 150.452L145.483 150.191C145.503 151.257 145.587 152.311 145.734 153.354C145.888 154.384 146.112 155.445 146.405 156.537C146.697 157.629 147.035 158.665 147.419 159.644C147.814 160.621 148.265 161.565 148.775 162.478L147.01 163.249Z" fill="white"/>
<g filter="url(#filter4_d_122_982)">
<rect x="186.506" y="39" width="91" height="29" transform="rotate(15 186.506 39)" fill="#128FCD" fill-opacity="0.2" shape-rendering="crispEdges"/>
<rect x="187.213" y="40.2247" width="89" height="27" transform="rotate(15 187.213 40.2247)" stroke="#48BCCB" stroke-opacity="0.5" stroke-width="2" shape-rendering="crispEdges"/>
</g>
<path d="M195.093 64.3504L194.469 62.6594C195.936 62.3787 197.231 61.9141 198.355 61.2654C199.488 60.6195 200.432 59.7958 201.187 58.7942C201.954 57.7851 202.52 56.6005 202.884 55.2405L203.775 51.9177L205.66 52.4229L204.77 55.7457C204.472 56.8585 204.01 57.8999 203.386 58.87C202.764 59.8299 202.02 60.6906 201.154 61.4522C200.3 62.2063 199.354 62.8308 198.316 63.3257C197.288 63.8233 196.214 64.1648 195.093 64.3504ZM206.962 67.5308C206.115 66.8179 205.376 65.9904 204.745 65.0484C204.125 64.109 203.633 63.0994 203.271 62.0196C202.922 60.9322 202.723 59.8188 202.675 58.6795C202.63 57.53 202.756 56.3988 203.054 55.2861L204.77 55.7457C204.405 57.1057 204.298 58.4132 204.448 59.668C204.61 60.9153 205.021 62.1021 205.68 63.2283C206.339 64.3546 207.228 65.4045 208.348 66.3781L206.962 67.5308ZM196.782 55.0796L197.217 53.4569L210.57 57.0348L210.135 58.6576L196.782 55.0796ZM220.204 66.888C219.977 66.8273 219.731 66.7559 219.466 66.6738C219.214 66.5842 218.957 66.4932 218.695 66.4008L219.129 64.778C219.353 64.8491 219.571 64.9239 219.781 65.0025C220.005 65.0735 220.21 65.1339 220.396 65.1836C221.395 65.4513 222.164 65.4643 222.704 65.2224C223.257 64.9729 223.64 64.4516 223.852 63.6582C224.205 62.3394 223.779 61.5185 222.574 61.1955C222.378 61.143 222.134 61.1053 221.842 61.0823C221.563 61.0517 221.209 61.0341 220.78 61.0295C220.361 61.0276 219.82 61.0482 219.156 61.0914L211.376 61.5078L211.274 59.7246L219.07 59.3124C219.733 59.2692 220.301 59.2503 220.775 59.2557C221.261 59.2535 221.692 59.275 222.066 59.3201C222.443 59.3549 222.797 59.4165 223.126 59.5048C224.28 59.814 225.084 60.3606 225.536 61.1444C225.989 61.9282 226.058 62.9074 225.743 64.082C225.395 65.3802 224.747 66.2723 223.8 66.7583C222.866 67.2368 221.667 67.28 220.204 66.888ZM214.556 69.4826C214.589 67.9566 214.597 66.4237 214.579 64.8839C214.574 63.3365 214.55 61.8173 214.508 60.3263C214.479 58.8277 214.431 57.3792 214.364 55.9809L216.223 55.9656C216.298 57.377 216.353 58.8385 216.39 60.3502C216.429 61.8515 216.45 63.381 216.453 64.9387C216.468 66.4888 216.468 68.0348 216.452 69.5766L214.556 69.4826ZM219.176 63.6145C219.181 62.7322 219.164 61.7009 219.127 60.5204C219.103 59.3324 219.058 58.0392 218.991 56.6409L220.861 56.6452C220.909 57.3756 220.941 58.1407 220.959 58.9405C220.989 59.7328 221.008 60.5275 221.015 61.3245C221.033 62.1243 221.035 62.8812 221.02 63.595L219.176 63.6145ZM226.368 68.9206L228.467 61.085L241.511 64.5801L239.412 72.4157L237.634 71.9395L237.875 71.0431L228.385 68.5005L228.799 66.955L238.289 69.4976L239.307 65.6957L229.818 63.1531L228.145 69.3969L226.368 68.9206ZM230.899 74.3256L234.726 60.0454L236.611 60.5506L232.785 74.8308L230.899 74.3256ZM247.511 77.9817C245.584 77.4654 244.201 76.7746 243.362 75.9092C242.526 75.0335 242.263 74.0136 242.575 72.8493C242.838 71.8705 243.442 71.0773 244.389 70.4696C245.339 69.8517 246.679 69.4046 248.409 69.1284C250.15 68.855 252.324 68.7363 254.931 68.7724L254.921 70.542C252.709 70.5126 250.861 70.5914 249.375 70.7786C247.899 70.9685 246.765 71.2664 245.972 71.6722C245.191 72.0705 244.714 72.5942 244.54 73.2433C244.181 74.5827 245.357 75.6155 248.066 76.3415C248.51 76.4602 248.979 76.5639 249.474 76.6524C249.969 76.7409 250.525 76.8292 251.142 76.9172C251.772 76.9977 252.49 77.0796 253.296 77.163L253.065 78.8901C252.042 78.7927 251.06 78.6675 250.118 78.5145C249.184 78.3746 248.315 78.197 247.511 77.9817ZM246.426 70.2865C246.397 69.1968 246.41 68.14 246.464 67.1163C246.52 66.0823 246.614 65.0696 246.748 64.0783L248.692 64.3012C248.569 65.2953 248.483 66.299 248.432 67.3124C248.384 68.3155 248.379 69.3245 248.416 70.3394L246.426 70.2865Z" fill="white"/>
<g filter="url(#filter5_d_122_982)">
<rect x="88" y="111.058" width="120" height="29" transform="rotate(-15 88 111.058)" fill="#128FCD" fill-opacity="0.2" shape-rendering="crispEdges"/>
<rect x="89.2247" y="111.765" width="118" height="27" transform="rotate(-15 89.2247 111.765)" stroke="#48BCCB" stroke-opacity="0.5" stroke-width="2" shape-rendering="crispEdges"/>
</g>
<path d="M114.597 127.113L110.978 113.606L116.665 112.082L117.05 113.519L113.14 114.567L116.375 126.637L114.597 127.113ZM106.715 129.225L105.1 123.198L111.885 121.38L113.5 127.407L111.738 127.879L111.581 127.292L108.382 128.149L107.992 126.697L111.192 125.839L110.521 123.336L107.322 124.193L108.539 128.737L106.715 129.225ZM105.583 120.733C105.302 120.179 105.008 119.639 104.702 119.114C104.403 118.576 104.101 118.066 103.795 117.585L105.319 116.845C105.628 117.336 105.933 117.856 106.234 118.405C106.544 118.941 106.839 119.486 107.12 120.04L105.583 120.733ZM104.108 122.338L103.694 120.792L111.807 118.618L112.222 120.163L104.108 122.338ZM110.131 119.531L108.491 119.656C108.528 119.094 108.548 118.508 108.551 117.9C108.551 117.282 108.52 116.672 108.458 116.07L110.13 115.821C110.185 116.436 110.209 117.064 110.205 117.706C110.208 118.334 110.183 118.943 110.131 119.531ZM103.132 118.077L102.726 116.562L105.647 115.78L105.278 114.404L107.117 113.911L107.486 115.287L110.531 114.471L110.936 115.986L103.132 118.077ZM116.593 124.856L115.85 123.382L116.252 123.274C116.664 123.164 116.97 123.049 117.17 122.929C117.367 122.799 117.485 122.64 117.523 122.453C117.561 122.266 117.54 122.024 117.46 121.725C117.358 121.344 117.189 120.98 116.953 120.635C116.714 120.279 116.395 119.934 115.996 119.599C115.608 119.262 115.121 118.928 114.536 118.599C114.665 118.134 114.778 117.629 114.875 117.084C114.979 116.526 115.062 115.968 115.122 115.411C115.19 114.84 115.233 114.299 115.25 113.786L117.05 113.519C117.043 113.985 117.01 114.48 116.951 115.003C116.893 115.527 116.823 116.048 116.741 116.567C116.656 117.076 116.563 117.553 116.462 118C117.164 118.353 117.759 118.823 118.248 119.41C118.744 119.984 119.087 120.626 119.278 121.337C119.529 122.275 119.508 122.998 119.213 123.508C118.93 124.015 118.381 124.377 117.567 124.595L116.593 124.856ZM120.375 119.867L119.109 118.235C119.435 117.474 119.696 116.697 119.893 115.905C120.099 115.11 120.235 114.278 120.301 113.41C120.377 112.54 120.382 111.611 120.316 110.623L122.075 110.45C122.169 111.54 122.186 112.574 122.127 113.55C122.076 114.514 121.944 115.421 121.731 116.274L121.456 115.619C121.43 115.935 121.38 116.285 121.307 116.669C121.24 117.04 121.16 117.42 121.066 117.81C120.971 118.2 120.861 118.572 120.735 118.926C120.62 119.277 120.499 119.591 120.375 119.867ZM122.84 124.988L120.173 115.035L121.981 114.55L124.648 124.503L122.84 124.988ZM125.224 123.869L124.789 122.246L135.205 119.455L135.64 121.077L125.224 123.869ZM126.93 120.778C126.428 119.73 125.898 118.68 125.34 117.626C124.792 116.569 124.231 115.549 123.658 114.565L125.316 113.706C125.892 114.7 126.458 115.741 127.015 116.829C127.579 117.904 128.108 118.971 128.602 120.031L126.93 120.778ZM131.92 121.163L130.123 120.949C130.327 119.691 130.451 118.321 130.496 116.84C130.549 115.347 130.511 113.827 130.385 112.282L132.28 112.122C132.42 113.719 132.457 115.299 132.391 116.863C132.321 118.416 132.164 119.85 131.92 121.163ZM122.779 113.508L122.356 111.932L126.375 110.855L125.857 108.923L127.727 108.422L128.245 110.354L132.278 109.273L132.701 110.85L122.779 113.508ZM146.212 117.383C145.285 117.632 144.421 117.725 143.62 117.664C142.83 117.599 142.168 117.396 141.635 117.053C141.109 116.697 140.767 116.225 140.61 115.638C140.328 114.587 140.723 113.322 141.795 111.842L143.394 112.49C142.966 113.079 142.668 113.573 142.499 113.972C142.34 114.368 142.3 114.715 142.38 115.014C142.463 115.323 142.659 115.558 142.967 115.719C143.275 115.879 143.667 115.962 144.143 115.967C144.619 115.971 145.161 115.893 145.769 115.73C146.284 115.592 146.852 115.401 147.471 115.158C148.098 114.901 148.723 114.618 149.347 114.307L150.029 115.864C149.398 116.187 148.753 116.482 148.095 116.746C147.448 117.008 146.82 117.22 146.212 117.383ZM139.627 109.126L139.18 107.457L147.108 105.333L147.555 107.002L139.627 109.126ZM138.59 120.155C138.037 119.165 137.562 118.172 137.162 117.175C136.762 116.177 136.408 115.102 136.098 113.948C135.792 112.804 135.564 111.706 135.414 110.653C135.262 109.589 135.177 108.491 135.161 107.358L137.062 107.097C137.083 108.163 137.166 109.217 137.313 110.26C137.468 111.29 137.691 112.351 137.984 113.443C138.277 114.535 138.615 115.571 138.999 116.55C139.393 117.526 139.845 118.471 140.354 119.384L138.59 120.155ZM156.293 115.378C155.056 115.709 154.033 115.702 153.222 115.356C152.415 115.02 151.881 114.368 151.621 113.4C151.359 112.421 151.49 111.591 152.014 110.909C152.536 110.217 153.425 109.703 154.682 109.366C155.362 109.184 156.057 109.08 156.768 109.055C157.487 109.017 158.262 109.064 159.092 109.195C159.922 109.326 160.836 109.545 161.835 109.851C162.841 110.145 163.967 110.533 165.212 111.017L164.443 112.598C163.002 112.001 161.721 111.549 160.601 111.242C159.488 110.922 158.484 110.738 157.588 110.691C156.692 110.644 155.862 110.723 155.1 110.927C154.389 111.117 153.89 111.378 153.603 111.709C153.314 112.029 153.235 112.437 153.368 112.932C153.627 113.9 154.432 114.204 155.782 113.842C156.544 113.638 157.059 113.334 157.327 112.931C157.591 112.518 157.634 111.976 157.454 111.307L154.837 101.539L156.676 101.046L157.343 103.534L162.814 102.069L163.232 103.629L157.761 105.095L159.294 110.814C159.614 112.009 159.532 112.981 159.048 113.729C158.561 114.467 157.642 115.016 156.293 115.378ZM171.101 109.008C172.656 108.591 173.891 108.15 174.804 107.685C175.725 107.206 176.351 106.679 176.683 106.104C177.015 105.53 177.086 104.887 176.895 104.176C176.683 103.383 176.261 102.86 175.631 102.61C175.011 102.356 174.17 102.372 173.109 102.656C172.687 102.769 172.233 102.93 171.747 103.137C171.259 103.334 170.703 103.588 170.079 103.899C169.466 104.206 168.757 104.59 167.952 105.048L167.129 103.397C168.355 102.737 169.427 102.207 170.347 101.806C171.264 101.395 172.067 101.097 172.758 100.912C174.334 100.489 175.636 100.505 176.663 100.958C177.69 101.412 178.373 102.273 178.713 103.54C179.143 105.147 178.763 106.552 177.573 107.755C176.392 108.954 174.421 109.924 171.66 110.664L171.101 109.008ZM193.148 105.238C191.901 105.572 190.758 105.652 189.717 105.478C188.687 105.301 187.816 104.894 187.104 104.256C186.389 103.609 185.891 102.759 185.61 101.708C185.389 100.884 185.335 100.087 185.449 99.3164C185.57 98.533 185.839 97.804 186.255 97.1294C186.678 96.4418 187.238 95.8554 187.936 95.3702L188.219 95.8078L180.908 97.949L180.465 96.2954L193.411 92.4953L193.854 94.149L191.904 94.7213C191.106 94.9572 190.392 95.281 189.762 95.6926C189.143 96.1015 188.632 96.5862 188.23 97.1467C187.828 97.7071 187.56 98.3145 187.427 98.9688C187.3 99.61 187.332 100.286 187.523 100.997C187.727 101.759 188.074 102.373 188.563 102.839C189.049 103.294 189.64 103.582 190.336 103.705C191.041 103.825 191.832 103.768 192.708 103.533C192.996 103.456 193.322 103.352 193.685 103.222C194.058 103.089 194.376 102.959 194.641 102.833L195.297 104.48C194.981 104.619 194.626 104.759 194.233 104.897C193.85 105.033 193.488 105.146 193.148 105.238Z" fill="white"/>
<g filter="url(#filter6_d_122_982)">
<rect x="210" y="159.853" width="120" height="29" transform="rotate(-45 210 159.853)" fill="#128FCD" fill-opacity="0.2" shape-rendering="crispEdges"/>
<rect x="211.414" y="159.853" width="118" height="27" transform="rotate(-45 211.414 159.853)" stroke="#48BCCB" stroke-opacity="0.5" stroke-width="2" shape-rendering="crispEdges"/>
</g>
<path d="M241.214 160.328C241.033 160.509 240.769 160.758 240.422 161.075C240.083 161.399 239.687 161.772 239.235 162.195L238.058 161.131C238.473 160.747 238.842 160.407 239.167 160.113C239.491 159.804 239.725 159.578 239.868 159.434C240.049 159.253 240.17 159.117 240.23 159.027C240.29 158.936 240.294 158.85 240.241 158.767C240.181 158.676 240.068 158.548 239.902 158.382L238.42 156.9L231.168 164.152L230.116 163.1L237.368 155.848L236.18 154.66L237.56 153.28L238.748 154.467L240.117 153.099L241.169 154.151L239.8 155.52L241.282 157.002C241.659 157.379 241.942 157.692 242.131 157.941C242.319 158.19 242.41 158.424 242.402 158.642C242.402 158.853 242.304 159.087 242.108 159.344C241.912 159.6 241.614 159.928 241.214 160.328ZM238.725 161.346C238.152 161.361 237.571 161.399 236.983 161.459C236.395 161.505 235.795 161.584 235.184 161.697L235.082 159.989C235.708 159.875 236.319 159.792 236.915 159.74C237.511 159.687 238.092 159.649 238.658 159.627L238.725 161.346ZM234.981 165.974L233.17 166.155C233.268 165.076 233.223 163.967 233.035 162.828C232.854 161.682 232.541 160.532 232.096 159.378C231.658 158.216 231.092 157.077 230.399 155.961C229.705 154.83 228.894 153.762 227.966 152.759L229.38 151.435C230.353 152.514 231.206 153.653 231.937 154.852C232.661 156.044 233.261 157.27 233.736 158.529C234.211 159.789 234.558 161.048 234.777 162.308C234.988 163.56 235.056 164.782 234.981 165.974ZM229.03 162.24L227.977 161.188L238.205 150.96L239.257 152.012L229.03 162.24ZM228.023 159.694L227.05 158.721L235.739 150.033L236.712 151.005L228.023 159.694ZM225.964 158.405L224.889 157.33L234.347 147.872L235.422 148.946L225.964 158.405ZM253.422 147.917C253.233 148.105 252.977 148.347 252.653 148.641C252.343 148.935 251.951 149.305 251.476 149.75L250.277 148.664C250.737 148.234 251.114 147.879 251.408 147.6C251.71 147.313 251.921 147.11 252.042 146.989C252.223 146.808 252.343 146.672 252.404 146.582C252.464 146.476 252.464 146.378 252.404 146.288C252.343 146.182 252.226 146.043 252.053 145.869L245.129 138.945L237.028 147.046L235.908 145.926L245.367 136.467L253.377 144.477C253.776 144.877 254.074 145.213 254.27 145.484C254.474 145.748 254.576 145.994 254.576 146.22C254.576 146.446 254.478 146.687 254.282 146.944C254.093 147.208 253.807 147.532 253.422 147.917ZM246.045 153.981L241.192 149.127L246.803 143.516L250.752 147.464L246.464 151.752L245.468 150.757L248.478 147.747L246.509 145.779L243.5 148.788L247.369 152.657L246.045 153.981ZM239.585 148.607L238.522 147.544L245.276 140.789L246.34 141.853L239.585 148.607ZM261.047 136.852C261.402 136.407 261.655 135.928 261.805 135.415C261.956 134.887 262.009 134.359 261.964 133.831C261.919 133.288 261.775 132.76 261.534 132.247C261.293 131.734 260.953 131.259 260.516 130.822C259.897 130.203 259.215 129.807 258.468 129.634C257.714 129.453 256.956 129.494 256.194 129.758C255.44 130.015 254.727 130.479 254.055 131.15C253.482 131.723 253.045 132.349 252.743 133.028C252.441 133.707 252.272 134.405 252.234 135.121C252.196 135.822 252.298 136.505 252.539 137.169C252.773 137.825 253.147 138.41 253.66 138.922C254.029 139.292 254.444 139.586 254.904 139.805C255.364 140.024 255.794 140.152 256.194 140.19C256.594 140.212 256.895 140.122 257.099 139.918C257.393 139.624 257.408 139.073 257.144 138.266C256.88 137.459 256.356 136.445 255.572 135.223C254.787 133.986 253.765 132.587 252.506 131.025L253.954 129.849C255.191 131.418 256.205 132.809 256.997 134.024C257.789 135.238 258.37 136.301 258.739 137.214C259.109 138.127 259.275 138.911 259.237 139.567C259.192 140.216 258.951 140.759 258.513 141.197C258.151 141.559 257.725 141.804 257.235 141.932C256.744 142.06 256.224 142.075 255.673 141.977C255.123 141.879 254.568 141.679 254.01 141.378C253.445 141.068 252.913 140.665 252.415 140.167C251.706 139.458 251.186 138.674 250.854 137.814C250.514 136.946 250.363 136.056 250.401 135.144C250.439 134.231 250.661 133.33 251.069 132.44C251.476 131.535 252.068 130.694 252.845 129.917C253.758 129.004 254.738 128.371 255.786 128.016C256.842 127.654 257.891 127.594 258.932 127.835C259.973 128.076 260.934 128.638 261.817 129.521C262.413 130.117 262.876 130.761 263.208 131.455C263.548 132.142 263.755 132.847 263.831 133.571C263.898 134.288 263.831 134.997 263.627 135.698C263.423 136.399 263.08 137.059 262.597 137.678L261.047 136.852ZM264.702 129.849C265.147 129.193 265.562 128.514 265.946 127.812C266.338 127.103 266.697 126.383 267.021 125.651C267.345 124.905 267.632 124.166 267.881 123.434C268.13 122.702 268.341 121.986 268.514 121.284C268.688 120.583 268.812 119.915 268.888 119.282C268.963 118.648 268.99 118.064 268.967 117.528L269.702 117.562L261.489 125.776L260.278 124.565L264.136 120.707L262.303 118.875L263.717 117.46L265.55 119.293L269.465 115.379L270.675 116.589C270.766 117.208 270.788 117.886 270.743 118.626C270.69 119.357 270.585 120.134 270.426 120.956C270.268 121.763 270.057 122.601 269.793 123.468C269.529 124.32 269.216 125.169 268.854 126.014C268.492 126.858 268.092 127.688 267.655 128.503C267.217 129.302 266.746 130.06 266.24 130.777L264.702 129.849ZM272.531 129.102L268.028 124.599L269.442 123.185L273.945 127.688L272.531 129.102ZM275.744 122.585C274.997 122.563 274.277 122.582 273.583 122.642C272.882 122.695 272.184 122.782 271.49 122.902C270.796 123.023 270.087 123.189 269.363 123.4L269.521 121.567C270.555 121.288 271.622 121.081 272.723 120.945C273.824 120.794 274.88 120.726 275.891 120.741L275.744 122.585ZM279.195 119.135C279.934 118.23 280.522 117.294 280.959 116.329C281.405 115.356 281.706 114.383 281.865 113.41C282.023 112.422 282.034 111.46 281.899 110.525C281.763 109.59 281.48 108.696 281.05 107.844C280.62 106.991 280.047 106.207 279.33 105.49L280.552 105.558L275.042 111.068L273.821 109.846L280.145 103.522L280.722 104.099C281.582 104.959 282.268 105.894 282.781 106.905C283.294 107.9 283.637 108.945 283.811 110.039C283.984 111.132 283.988 112.245 283.822 113.376C283.663 114.5 283.332 115.616 282.826 116.725C282.336 117.834 281.668 118.909 280.824 119.949L279.195 119.135ZM273.673 116.668C273.832 115.71 273.9 114.738 273.877 113.749C273.847 112.754 273.73 111.785 273.526 110.842C273.323 109.899 273.04 109.035 272.678 108.251L274.262 107.12C274.737 108.047 275.103 109.032 275.359 110.072C275.608 111.106 275.744 112.184 275.767 113.308C275.789 114.417 275.695 115.56 275.484 116.736L273.673 116.668ZM283.415 112.245C282.2 112.373 281.054 112.524 279.975 112.697C278.889 112.863 277.86 113.063 276.887 113.297L276.649 111.43C277.765 111.174 278.87 110.959 279.964 110.785C281.058 110.612 282.132 110.48 283.188 110.389L283.415 112.245ZM297.104 103.511C296.192 104.423 295.234 105.057 294.23 105.411C293.242 105.766 292.273 105.837 291.323 105.626C290.365 105.407 289.49 104.902 288.698 104.11C288.08 103.492 287.616 102.809 287.306 102.062C287.005 101.308 286.861 100.531 286.877 99.7318C286.892 98.9172 287.076 98.1215 287.431 97.3446L287.895 97.5822L282.634 103.092L281.423 101.881L290.735 92.1176L291.945 93.3282L290.542 94.799C289.954 95.4175 289.494 96.0737 289.162 96.7676C288.83 97.4464 288.638 98.129 288.585 98.8154C288.54 99.4942 288.634 100.154 288.868 100.795C289.094 101.429 289.471 102.01 289.999 102.538C290.572 103.111 291.195 103.484 291.866 103.658C292.53 103.824 293.201 103.793 293.88 103.567C294.566 103.333 295.23 102.896 295.871 102.255C296.007 102.119 296.154 101.964 296.312 101.791C296.471 101.602 296.629 101.414 296.787 101.225C296.946 101.022 297.082 100.841 297.195 100.682L298.586 101.78C298.45 101.961 298.296 102.153 298.122 102.357C297.956 102.568 297.783 102.771 297.602 102.967C297.428 103.171 297.263 103.352 297.104 103.511ZM294.728 98.8267C294.17 98.6155 293.616 98.4382 293.065 98.2949C292.515 98.1365 291.926 98.0008 291.3 97.8876L291.741 96.3603C292.367 96.4734 292.963 96.6092 293.529 96.7676C294.087 96.9184 294.657 97.1032 295.237 97.3219L294.728 98.8267ZM295.803 96.4621C295.245 96.2358 294.694 96.0473 294.151 95.8964C293.608 95.7305 293.027 95.5872 292.409 95.4665L292.873 93.9618C293.499 94.09 294.091 94.2371 294.649 94.403C295.215 94.5614 295.784 94.7613 296.357 95.0026L295.803 96.4621Z" fill="white"/>
<defs>
<filter id="filter0_d_122_982" x="0" y="0" width="320.18" height="27" filterUnits="userSpaceOnUse" color-interpolation-filters="sRGB">
<feFlood flood-opacity="0" result="BackgroundImageFix"/>
<feColorMatrix in="SourceAlpha" type="matrix" values="0 0 0 0 0 0 0 0 0 0 0 0 0 0 0 0 0 0 127 0" result="hardAlpha"/>
<feOffset/>
<feGaussianBlur stdDeviation="2"/>
<feComposite in2="hardAlpha" operator="out"/>
<feColorMatrix type="matrix" values="0 0 0 0 1 0 0 0 0 1 0 0 0 0 1 0 0 0 0.6 0"/>
<feBlend mode="normal" in2="BackgroundImageFix" result="effect1_dropShadow_122_982"/>
<feBlend mode="normal" in="SourceGraphic" in2="effect1_dropShadow_122_982" result="shape"/>
</filter>
<filter id="filter1_d_122_982" x="12" y="74" width="63.5645" height="107.405" filterUnits="userSpaceOnUse" color-interpolation-filters="sRGB">
<feFlood flood-opacity="0" result="BackgroundImageFix"/>
<feColorMatrix in="SourceAlpha" type="matrix" values="0 0 0 0 0 0 0 0 0 0 0 0 0 0 0 0 0 0 127 0" result="hardAlpha"/>
<feOffset/>
<feGaussianBlur stdDeviation="3"/>
<feComposite in2="hardAlpha" operator="out"/>
<feColorMatrix type="matrix" values="0 0 0 0 0.282353 0 0 0 0 0.737255 0 0 0 0 0.796078 0 0 0 0.25 0"/>
<feBlend mode="normal" in2="BackgroundImageFix" result="effect1_dropShadow_122_982"/>
<feBlend mode="normal" in="SourceGraphic" in2="effect1_dropShadow_122_982" result="shape"/>
</filter>
<filter id="filter2_d_122_982" x="14" y="25" width="135.417" height="71.0701" filterUnits="userSpaceOnUse" color-interpolation-filters="sRGB">
<feFlood flood-opacity="0" result="BackgroundImageFix"/>
<feColorMatrix in="SourceAlpha" type="matrix" values="0 0 0 0 0 0 0 0 0 0 0 0 0 0 0 0 0 0 127 0" result="hardAlpha"/>
<feOffset/>
<feGaussianBlur stdDeviation="3"/>
<feComposite in2="hardAlpha" operator="out"/>
<feColorMatrix type="matrix" values="0 0 0 0 0.282353 0 0 0 0 0.737255 0 0 0 0 0.796078 0 0 0 0.25 0"/>
<feBlend mode="normal" in2="BackgroundImageFix" result="effect1_dropShadow_122_982"/>
<feBlend mode="normal" in="SourceGraphic" in2="effect1_dropShadow_122_982" result="shape"/>
</filter>
<filter id="filter3_d_122_982" x="74" y="129" width="107.405" height="63.5644" filterUnits="userSpaceOnUse" color-interpolation-filters="sRGB">
<feFlood flood-opacity="0" result="BackgroundImageFix"/>
<feColorMatrix in="SourceAlpha" type="matrix" values="0 0 0 0 0 0 0 0 0 0 0 0 0 0 0 0 0 0 127 0" result="hardAlpha"/>
<feOffset/>
<feGaussianBlur stdDeviation="3"/>
<feComposite in2="hardAlpha" operator="out"/>
<feColorMatrix type="matrix" values="0 0 0 0 0.282353 0 0 0 0 0.737255 0 0 0 0 0.796078 0 0 0 0.25 0"/>
<feBlend mode="normal" in2="BackgroundImageFix" result="effect1_dropShadow_122_982"/>
<feBlend mode="normal" in="SourceGraphic" in2="effect1_dropShadow_122_982" result="shape"/>
</filter>
<filter id="filter4_d_122_982" x="173" y="33" width="107.405" height="63.5644" filterUnits="userSpaceOnUse" color-interpolation-filters="sRGB">
<feFlood flood-opacity="0" result="BackgroundImageFix"/>
<feColorMatrix in="SourceAlpha" type="matrix" values="0 0 0 0 0 0 0 0 0 0 0 0 0 0 0 0 0 0 127 0" result="hardAlpha"/>
<feOffset/>
<feGaussianBlur stdDeviation="3"/>
<feComposite in2="hardAlpha" operator="out"/>
<feColorMatrix type="matrix" values="0 0 0 0 0.282353 0 0 0 0 0.737255 0 0 0 0 0.796078 0 0 0 0.25 0"/>
<feBlend mode="normal" in2="BackgroundImageFix" result="effect1_dropShadow_122_982"/>
<feBlend mode="normal" in="SourceGraphic" in2="effect1_dropShadow_122_982" result="shape"/>
</filter>
<filter id="filter5_d_122_982" x="82" y="74" width="135.417" height="71.0701" filterUnits="userSpaceOnUse" color-interpolation-filters="sRGB">
<feFlood flood-opacity="0" result="BackgroundImageFix"/>
<feColorMatrix in="SourceAlpha" type="matrix" values="0 0 0 0 0 0 0 0 0 0 0 0 0 0 0 0 0 0 127 0" result="hardAlpha"/>
<feOffset/>
<feGaussianBlur stdDeviation="3"/>
<feComposite in2="hardAlpha" operator="out"/>
<feColorMatrix type="matrix" values="0 0 0 0 0.282353 0 0 0 0 0.737255 0 0 0 0 0.796078 0 0 0 0.25 0"/>
<feBlend mode="normal" in2="BackgroundImageFix" result="effect1_dropShadow_122_982"/>
<feBlend mode="normal" in="SourceGraphic" in2="effect1_dropShadow_122_982" result="shape"/>
</filter>
<filter id="filter6_d_122_982" x="204" y="69" width="117.359" height="117.359" filterUnits="userSpaceOnUse" color-interpolation-filters="sRGB">
<feFlood flood-opacity="0" result="BackgroundImageFix"/>
<feColorMatrix in="SourceAlpha" type="matrix" values="0 0 0 0 0 0 0 0 0 0 0 0 0 0 0 0 0 0 127 0" result="hardAlpha"/>
<feOffset/>
<feGaussianBlur stdDeviation="3"/>
<feComposite in2="hardAlpha" operator="out"/>
<feColorMatrix type="matrix" values="0 0 0 0 0.282353 0 0 0 0 0.737255 0 0 0 0 0.796078 0 0 0 0.25 0"/>
<feBlend mode="normal" in2="BackgroundImageFix" result="effect1_dropShadow_122_982"/>
<feBlend mode="normal" in="SourceGraphic" in2="effect1_dropShadow_122_982" result="shape"/>
</filter>
</defs>
</svg>
