<svg width="249" height="127" viewBox="0 0 249 127" fill="none" xmlns="http://www.w3.org/2000/svg">
<circle cx="27" cy="95" r="27" fill="#128FCD" fill-opacity="0.2"/>
<circle cx="27" cy="95" r="26" stroke="#48BCCB" stroke-opacity="0.4" stroke-width="2"/>
<path d="M24.552 101.116C24.552 100.108 24.66 99.16 24.876 98.272C25.092 97.384 25.488 96.532 26.064 95.716C26.64 94.876 27.444 94.096 28.476 93.376C29.292 92.8 29.952 92.272 30.456 91.792C30.96 91.312 31.308 90.844 31.5 90.388C31.716 89.932 31.824 89.476 31.824 89.02C31.824 88.084 31.404 87.412 30.564 87.004C29.748 86.572 28.44 86.356 26.64 86.356C25.368 86.356 24.108 86.464 22.86 86.68C21.612 86.872 20.304 87.196 18.936 87.652L18 83.728C19.368 83.296 20.856 82.96 22.464 82.72C24.072 82.48 25.668 82.36 27.252 82.36C33.444 82.36 36.54 84.364 36.54 88.372C36.54 89.284 36.384 90.124 36.072 90.892C35.784 91.636 35.304 92.368 34.632 93.088C33.96 93.808 33.072 94.552 31.968 95.32C31.248 95.824 30.672 96.388 30.24 97.012C29.808 97.636 29.508 98.296 29.34 98.992C29.172 99.688 29.064 100.396 29.016 101.116H24.552ZM24.228 109V104.104H29.34V109H24.228Z" fill="white"/>
<g filter="url(#filter0_d_122_2166)">
<rect x="63" y="67" width="54" height="54" fill="#128FCD" fill-opacity="0.2" shape-rendering="crispEdges"/>
<rect x="64" y="68" width="52" height="52" stroke="#48BCCB" stroke-opacity="0.5" stroke-width="2" shape-rendering="crispEdges"/>
</g>
<circle cx="81" cy="55" r="8" fill="#128FCD" fill-opacity="0.2"/>
<circle cx="81" cy="55" r="7.5" stroke="#48BCCB" stroke-opacity="0.4"/>
<path d="M80.32 56.81C80.32 56.53 80.35 56.2667 80.41 56.02C80.47 55.7733 80.58 55.5367 80.74 55.31C80.9 55.0767 81.1233 54.86 81.41 54.66C81.6367 54.5 81.82 54.3533 81.96 54.22C82.1 54.0867 82.1967 53.9567 82.25 53.83C82.31 53.7033 82.34 53.5767 82.34 53.45C82.34 53.19 82.2233 53.0033 81.99 52.89C81.7633 52.77 81.4 52.71 80.9 52.71C80.5467 52.71 80.1967 52.74 79.85 52.8C79.5033 52.8533 79.14 52.9433 78.76 53.07L78.5 51.98C78.88 51.86 79.2933 51.7667 79.74 51.7C80.1867 51.6333 80.63 51.6 81.07 51.6C82.79 51.6 83.65 52.1567 83.65 53.27C83.65 53.5233 83.6067 53.7567 83.52 53.97C83.44 54.1767 83.3067 54.38 83.12 54.58C82.9333 54.78 82.6867 54.9867 82.38 55.2C82.18 55.34 82.02 55.4967 81.9 55.67C81.78 55.8433 81.6967 56.0267 81.65 56.22C81.6033 56.4133 81.5733 56.61 81.56 56.81H80.32ZM80.23 59V57.64H81.65V59H80.23Z" fill="white"/>
<circle cx="99" cy="55" r="8" fill="#128FCD" fill-opacity="0.2"/>
<circle cx="99" cy="55" r="7.5" stroke="#48BCCB" stroke-opacity="0.4"/>
<path d="M98.32 56.81C98.32 56.53 98.35 56.2667 98.41 56.02C98.47 55.7733 98.58 55.5367 98.74 55.31C98.9 55.0767 99.1233 54.86 99.41 54.66C99.6367 54.5 99.82 54.3533 99.96 54.22C100.1 54.0867 100.197 53.9567 100.25 53.83C100.31 53.7033 100.34 53.5767 100.34 53.45C100.34 53.19 100.223 53.0033 99.99 52.89C99.7633 52.77 99.4 52.71 98.9 52.71C98.5467 52.71 98.1967 52.74 97.85 52.8C97.5033 52.8533 97.14 52.9433 96.76 53.07L96.5 51.98C96.88 51.86 97.2933 51.7667 97.74 51.7C98.1867 51.6333 98.63 51.6 99.07 51.6C100.79 51.6 101.65 52.1567 101.65 53.27C101.65 53.5233 101.607 53.7567 101.52 53.97C101.44 54.1767 101.307 54.38 101.12 54.58C100.933 54.78 100.687 54.9867 100.38 55.2C100.18 55.34 100.02 55.4967 99.9 55.67C99.78 55.8433 99.6967 56.0267 99.65 56.22C99.6033 56.4133 99.5733 56.61 99.56 56.81H98.32ZM98.23 59V57.64H99.65V59H98.23Z" fill="white"/>
<circle cx="153" cy="95" r="27" fill="#128FCD" fill-opacity="0.2"/>
<circle cx="153" cy="95" r="26" stroke="#48BCCB" stroke-opacity="0.4" stroke-width="2"/>
<path d="M140.328 111.124L136.584 109.756L148.248 80.452L152.208 81.604L145.944 97.084L144.612 96.22C145.812 95.236 147.012 94.468 148.212 93.916C149.436 93.364 150.624 93.088 151.776 93.088C152.664 93.088 153.432 93.28 154.08 93.664C154.728 94.024 155.28 94.564 155.736 95.284C156.192 95.98 156.576 96.832 156.888 97.84C157.224 98.848 157.524 100 157.788 101.296C158.004 102.304 158.22 103.18 158.436 103.924C158.676 104.668 158.976 105.244 159.336 105.652C159.72 106.06 160.212 106.264 160.812 106.264C161.868 106.264 162.816 105.58 163.656 104.212C164.496 102.82 165.288 100.624 166.032 97.624L169.812 98.884C169.188 101.548 168.456 103.732 167.616 105.436C166.776 107.116 165.78 108.364 164.628 109.18C163.476 110.02 162.144 110.44 160.632 110.44C159.6 110.44 158.712 110.26 157.968 109.9C157.248 109.54 156.624 109.012 156.096 108.316C155.568 107.62 155.112 106.78 154.728 105.796C154.368 104.788 154.056 103.66 153.792 102.412C153.552 101.356 153.288 100.444 153 99.676C152.736 98.908 152.388 98.32 151.956 97.912C151.548 97.504 150.996 97.3 150.3 97.3C149.844 97.3 149.316 97.396 148.716 97.588C148.116 97.78 147.504 98.104 146.88 98.56C146.28 98.992 145.692 99.592 145.116 100.36C144.54 101.104 144.024 102.04 143.568 103.168L140.328 111.124Z" fill="white"/>
<g filter="url(#filter1_d_122_2166)">
<rect x="189" y="67" width="54" height="54" fill="#128FCD" fill-opacity="0.2" shape-rendering="crispEdges"/>
<rect x="190" y="68" width="52" height="52" stroke="#48BCCB" stroke-opacity="0.5" stroke-width="2" shape-rendering="crispEdges"/>
</g>
<circle cx="207" cy="55" r="8" fill="#128FCD" fill-opacity="0.2"/>
<circle cx="207" cy="55" r="7.5" stroke="#48BCCB" stroke-opacity="0.4"/>
<path d="M206.32 56.81C206.32 56.53 206.35 56.2667 206.41 56.02C206.47 55.7733 206.58 55.5367 206.74 55.31C206.9 55.0767 207.123 54.86 207.41 54.66C207.637 54.5 207.82 54.3533 207.96 54.22C208.1 54.0867 208.197 53.9567 208.25 53.83C208.31 53.7033 208.34 53.5767 208.34 53.45C208.34 53.19 208.223 53.0033 207.99 52.89C207.763 52.77 207.4 52.71 206.9 52.71C206.547 52.71 206.197 52.74 205.85 52.8C205.503 52.8533 205.14 52.9433 204.76 53.07L204.5 51.98C204.88 51.86 205.293 51.7667 205.74 51.7C206.187 51.6333 206.63 51.6 207.07 51.6C208.79 51.6 209.65 52.1567 209.65 53.27C209.65 53.5233 209.607 53.7567 209.52 53.97C209.44 54.1767 209.307 54.38 209.12 54.58C208.933 54.78 208.687 54.9867 208.38 55.2C208.18 55.34 208.02 55.4967 207.9 55.67C207.78 55.8433 207.697 56.0267 207.65 56.22C207.603 56.4133 207.573 56.61 207.56 56.81H206.32ZM206.23 59V57.64H207.65V59H206.23Z" fill="white"/>
<circle cx="225" cy="55" r="8" fill="#128FCD" fill-opacity="0.2"/>
<circle cx="225" cy="55" r="7.5" stroke="#48BCCB" stroke-opacity="0.4"/>
<path d="M224.32 56.81C224.32 56.53 224.35 56.2667 224.41 56.02C224.47 55.7733 224.58 55.5367 224.74 55.31C224.9 55.0767 225.123 54.86 225.41 54.66C225.637 54.5 225.82 54.3533 225.96 54.22C226.1 54.0867 226.197 53.9567 226.25 53.83C226.31 53.7033 226.34 53.5767 226.34 53.45C226.34 53.19 226.223 53.0033 225.99 52.89C225.763 52.77 225.4 52.71 224.9 52.71C224.547 52.71 224.197 52.74 223.85 52.8C223.503 52.8533 223.14 52.9433 222.76 53.07L222.5 51.98C222.88 51.86 223.293 51.7667 223.74 51.7C224.187 51.6333 224.63 51.6 225.07 51.6C226.79 51.6 227.65 52.1567 227.65 53.27C227.65 53.5233 227.607 53.7567 227.52 53.97C227.44 54.1767 227.307 54.38 227.12 54.58C226.933 54.78 226.687 54.9867 226.38 55.2C226.18 55.34 226.02 55.4967 225.9 55.67C225.78 55.8433 225.697 56.0267 225.65 56.22C225.603 56.4133 225.573 56.61 225.56 56.81H224.32ZM224.23 59V57.64H225.65V59H224.23Z" fill="white"/>
<path d="M24.552 18.832C23.336 18.832 22.3387 18.64 21.56 18.256C20.792 17.8827 20.2213 17.3013 19.848 16.512C19.4853 15.7227 19.304 14.7093 19.304 13.472V5.68H21.256V13.472C21.256 14.72 21.5173 15.6267 22.04 16.192C22.5627 16.7467 23.4 17.024 24.552 17.024C25.3947 17.024 26.136 16.8693 26.776 16.56C27.4267 16.2507 28.0133 15.7493 28.536 15.056C29.0693 14.352 29.5813 13.4187 30.072 12.256L31.848 12.976C31.4213 14.0427 30.9627 14.9493 30.472 15.696C29.992 16.432 29.464 17.0347 28.888 17.504C28.3227 17.9627 27.6827 18.2987 26.968 18.512C26.2533 18.7253 25.448 18.832 24.552 18.832ZM27.224 9.712C26.9787 9.15733 26.712 8.63467 26.424 8.144C26.1467 7.65333 25.8267 7.14667 25.464 6.624L26.856 5.856C27.2187 6.37867 27.544 6.896 27.832 7.408C28.12 7.90933 28.392 8.44267 28.648 9.008L27.224 9.712ZM29.656 8.8C29.4213 8.24533 29.1653 7.71733 28.888 7.216C28.6213 6.71467 28.312 6.20267 27.96 5.68L29.352 4.96C29.704 5.48267 30.0187 6 30.296 6.512C30.584 7.024 30.8453 7.57333 31.08 8.16L29.656 8.8ZM37.8 16.528C39.4107 16.528 40.7173 16.4213 41.72 16.208C42.7333 15.984 43.4747 15.6373 43.944 15.168C44.4133 14.6987 44.648 14.096 44.648 13.36C44.648 12.5387 44.376 11.9253 43.832 11.52C43.2987 11.1147 42.4827 10.912 41.384 10.912C40.9467 10.912 40.4667 10.9493 39.944 11.024C39.4213 11.088 38.8187 11.1893 38.136 11.328C37.464 11.4667 36.68 11.6533 35.784 11.888L35.416 10.08C36.7707 9.76 37.944 9.52533 38.936 9.376C39.928 9.216 40.7813 9.136 41.496 9.136C43.128 9.136 44.3813 9.488 45.256 10.192C46.1307 10.896 46.568 11.904 46.568 13.216C46.568 14.88 45.8373 16.1387 44.376 16.992C42.9253 17.8453 40.7707 18.272 37.912 18.272L37.8 16.528ZM60.76 19.552C60.0027 18.9867 59.3093 18.4853 58.68 18.048C58.0507 17.6213 57.4587 17.2267 56.904 16.864C56.3493 16.5013 55.8053 16.16 55.272 15.84C54.7387 15.5093 54.184 15.168 53.608 14.816C53.0107 14.4533 52.5307 14.1547 52.168 13.92C51.816 13.6747 51.5387 13.4613 51.336 13.28C51.144 13.0987 51.0107 12.9173 50.936 12.736C50.872 12.544 50.84 12.3253 50.84 12.08C50.84 11.824 50.8773 11.6 50.952 11.408C51.0373 11.2053 51.1813 11.0133 51.384 10.832C51.5867 10.64 51.8747 10.4267 52.248 10.192C52.6213 9.95733 53.1013 9.67467 53.688 9.344C54.296 9.00267 54.9627 8.61867 55.688 8.192C56.4133 7.76533 57.1707 7.30667 57.96 6.816C58.7493 6.32533 59.5333 5.80267 60.312 5.248L61.432 6.8C60.9627 7.12 60.4667 7.44533 59.944 7.776C59.4213 8.096 58.904 8.41067 58.392 8.72C57.88 9.01867 57.3893 9.30133 56.92 9.568C56.4613 9.824 56.0453 10.0587 55.672 10.272C55.2987 10.4747 54.9947 10.64 54.76 10.768C54.3013 11.024 53.944 11.2267 53.688 11.376C53.4427 11.5253 53.2667 11.6533 53.16 11.76C53.064 11.856 53.016 11.9627 53.016 12.08C53.016 12.1973 53.048 12.2987 53.112 12.384C53.1867 12.4693 53.336 12.5813 53.56 12.72C53.784 12.8587 54.1253 13.0613 54.584 13.328C54.84 13.4667 55.1653 13.6533 55.56 13.888C55.9653 14.1227 56.424 14.3947 56.936 14.704C57.448 15.0027 57.9813 15.3333 58.536 15.696C59.1013 16.048 59.672 16.4213 60.248 16.816C60.8347 17.2 61.4 17.5893 61.944 17.984L60.76 19.552ZM68.408 17.04C70.4667 17.04 72.1253 16.864 73.384 16.512C74.6533 16.16 75.5707 15.5893 76.136 14.8C76.712 14 77 12.9707 77 11.712C77 10.432 76.728 9.47733 76.184 8.848C75.6507 8.208 74.8293 7.888 73.72 7.888C73.1013 7.888 72.52 7.98933 71.976 8.192C71.4427 8.39467 70.9733 8.68267 70.568 9.056C70.1627 9.42933 69.8373 9.872 69.592 10.384C69.3573 10.896 69.24 11.4613 69.24 12.08V14.176H67.384V5.76H69.24V9.168H68.52C68.904 8.50667 69.3573 7.94667 69.88 7.488C70.4133 7.02933 71.016 6.68267 71.688 6.448C72.3707 6.20267 73.112 6.08 73.912 6.08C75.544 6.08 76.792 6.56533 77.656 7.536C78.5307 8.496 78.968 9.888 78.968 11.712C78.968 13.3547 78.5947 14.6987 77.848 15.744C77.112 16.7893 75.976 17.5573 74.44 18.048C72.904 18.5493 70.9253 18.8 68.504 18.8L68.408 17.04ZM83.688 17.264C84.7013 17.2 85.5387 17.0613 86.2 16.848C86.8613 16.6347 87.3787 16.3253 87.752 15.92C88.1253 15.504 88.3867 14.944 88.536 14.24C88.696 13.536 88.776 12.656 88.776 11.6V7.088H90.712V11.6C90.712 12.8907 90.6 13.984 90.376 14.88C90.152 15.776 89.784 16.512 89.272 17.088C88.76 17.664 88.0827 18.1013 87.24 18.4C86.3973 18.6987 85.3573 18.896 84.12 18.992L83.688 17.264ZM81.928 12.944V11.232H96.072V12.944H81.928ZM83.304 6.768C84.0293 6.768 84.7973 6.74667 85.608 6.704C86.4187 6.65067 87.24 6.58667 88.072 6.512C88.904 6.42667 89.7093 6.33067 90.488 6.224C91.2773 6.10667 92.0133 5.984 92.696 5.856C93.3893 5.71733 94.0027 5.568 94.536 5.408L95.064 7.088C94.3707 7.29067 93.5707 7.47733 92.664 7.648C91.7573 7.81867 90.7813 7.968 89.736 8.096C88.6907 8.224 87.6187 8.32 86.52 8.384C85.432 8.448 84.36 8.48 83.304 8.48V6.768ZM99.32 13.2L98.984 11.456L110.552 9.232L110.888 10.976L99.32 13.2ZM103.56 19.088L101.624 8.32L103.512 8L105.448 18.752L103.56 19.088ZM106.424 14.768C106.808 14.5653 107.165 14.3147 107.496 14.016C107.827 13.7173 108.109 13.392 108.344 13.04C108.579 12.688 108.76 12.32 108.888 11.936C109.016 11.552 109.08 11.168 109.08 10.784L110.888 10.976C110.877 11.488 110.787 12 110.616 12.512C110.445 13.024 110.211 13.5093 109.912 13.968C109.624 14.4267 109.283 14.8427 108.888 15.216C108.493 15.5787 108.056 15.8773 107.576 16.112L106.424 14.768ZM115.256 16.704C116.845 16.544 118.253 16.2507 119.48 15.824C120.717 15.3973 121.773 14.8213 122.648 14.096C123.533 13.36 124.264 12.4693 124.84 11.424C125.416 10.3787 125.843 9.15733 126.12 7.76L127.928 8.16C127.555 10.272 126.845 12.064 125.8 13.536C124.765 15.008 123.395 16.16 121.688 16.992C119.992 17.824 117.944 18.3467 115.544 18.56L115.256 16.704ZM120.024 10.256C119.171 9.73333 118.296 9.25333 117.4 8.816C116.515 8.37867 115.624 7.97867 114.728 7.616L115.608 5.92C117.432 6.624 119.229 7.504 121 8.56L120.024 10.256ZM130.456 16.848C132.035 16.08 133.464 15.216 134.744 14.256C136.035 13.2853 137.16 12.24 138.12 11.12C139.091 10 139.869 8.82133 140.456 7.584L141.032 8.032H131.288V6.288H142.344V8.032C141.736 9.42933 140.888 10.7787 139.8 12.08C138.723 13.3707 137.464 14.56 136.024 15.648C134.595 16.736 133.027 17.68 131.32 18.48L130.456 16.848ZM142.36 18.592C141.752 17.8987 141.149 17.2693 140.552 16.704C139.965 16.1387 139.357 15.6107 138.728 15.12C138.099 14.6293 137.421 14.1547 136.696 13.696L137.944 12.336C139.011 13.008 140.013 13.7493 140.952 14.56C141.891 15.36 142.803 16.2667 143.688 17.28L142.36 18.592ZM154.248 15.696C154.248 14.4587 154.173 13.4827 154.024 12.768C153.885 12.0427 153.645 11.5253 153.304 11.216C152.973 10.9067 152.515 10.752 151.928 10.752C151.416 10.752 150.92 10.8747 150.44 11.12C149.971 11.3653 149.496 11.76 149.016 12.304C148.547 12.8373 148.029 13.552 147.464 14.448L145.896 13.552C146.429 12.7307 146.899 11.9733 147.304 11.28C147.72 10.5867 148.093 9.90933 148.424 9.248C148.765 8.576 149.075 7.89333 149.352 7.2C149.64 6.496 149.917 5.73333 150.184 4.912L152.072 5.216C151.741 6.208 151.389 7.12533 151.016 7.968C150.643 8.8 150.232 9.62667 149.784 10.448L149.352 10.192C149.821 9.89333 150.323 9.66933 150.856 9.52C151.4 9.36 151.944 9.28 152.488 9.28C153.373 9.28 154.083 9.49333 154.616 9.92C155.16 10.3467 155.555 11.0347 155.8 11.984C156.045 12.9227 156.168 14.16 156.168 15.696H154.248ZM154.088 18.944C152.445 18.944 151.16 18.6933 150.232 18.192C149.304 17.7013 148.84 17.0133 148.84 16.128C148.84 15.5093 149.075 14.9013 149.544 14.304C150.013 13.696 150.691 13.1253 151.576 12.592C152.472 12.0587 153.544 11.568 154.792 11.12C156.051 10.672 157.469 10.2827 159.048 9.952L159.336 11.52C158.024 11.7973 156.84 12.112 155.784 12.464C154.739 12.816 153.837 13.1893 153.08 13.584C152.333 13.968 151.757 14.3627 151.352 14.768C150.947 15.1733 150.744 15.568 150.744 15.952C150.744 16.4 151.032 16.752 151.608 17.008C152.195 17.2533 153.027 17.376 154.104 17.376C154.765 17.376 155.501 17.3333 156.312 17.248C157.123 17.152 157.997 17.0187 158.936 16.848L159.192 18.448C158.648 18.544 158.072 18.6293 157.464 18.704C156.856 18.7787 156.259 18.8373 155.672 18.88C155.096 18.9227 154.568 18.944 154.088 18.944ZM145.944 8.096V6.576H158.696V8.096H145.944ZM174.248 19.264C173.992 19.264 173.645 19.2587 173.208 19.248C172.781 19.2373 172.232 19.216 171.56 19.184L171.464 17.568C172.029 17.5893 172.472 17.6053 172.792 17.616C173.123 17.6267 173.363 17.632 173.512 17.632C173.715 17.632 173.859 17.6213 173.944 17.6C174.04 17.5787 174.093 17.5147 174.104 17.408C174.125 17.2907 174.136 17.104 174.136 16.848V7.056H166.312V5.472H176.008V16.8C176.008 17.3653 175.987 17.8133 175.944 18.144C175.912 18.4747 175.837 18.72 175.72 18.88C175.603 19.04 175.427 19.1413 175.192 19.184C174.957 19.2373 174.643 19.264 174.248 19.264ZM162.872 19.472V9.136H164.728V19.472H162.872ZM161.8 14.048L161.128 11.936C161.619 11.296 162.051 10.6187 162.424 9.904C162.797 9.18933 163.123 8.42667 163.4 7.616C163.677 6.79467 163.907 5.904 164.088 4.944L165.864 5.264C165.693 6.30933 165.459 7.296 165.16 8.224C164.861 9.14133 164.515 9.97333 164.12 10.72L163.976 10.256C163.869 10.576 163.731 10.9067 163.56 11.248C163.389 11.5893 163.203 11.936 163 12.288C162.808 12.6293 162.605 12.9547 162.392 13.264C162.189 13.5627 161.992 13.824 161.8 14.048ZM166.408 17.84V11.296H172.728V16.56H168.168V15.168H171.048V12.688H168.168V17.84H166.408ZM165.976 9.888V8.384H173.16V9.888H165.976ZM182.136 18.464C181.592 18.464 181.091 18.2987 180.632 17.968C180.173 17.6267 179.773 17.152 179.432 16.544C179.091 15.936 178.824 15.2213 178.632 14.4C178.451 13.568 178.36 12.672 178.36 11.712C178.36 10.9333 178.424 10.112 178.552 9.248C178.691 8.37333 178.899 7.456 179.176 6.496L181.048 6.72C180.803 7.60533 180.616 8.448 180.488 9.248C180.36 10.048 180.296 10.8 180.296 11.504C180.296 12.176 180.349 12.8107 180.456 13.408C180.563 14.0053 180.707 14.528 180.888 14.976C181.08 15.424 181.293 15.776 181.528 16.032C181.773 16.288 182.029 16.416 182.296 16.416C182.552 16.416 182.829 16.3093 183.128 16.096C183.437 15.872 183.752 15.5733 184.072 15.2C184.392 14.8267 184.691 14.4 184.968 13.92C185.256 13.44 185.496 12.9387 185.688 12.416L187.4 13.28C187.133 14.0053 186.803 14.6827 186.408 15.312C186.013 15.9413 185.576 16.496 185.096 16.976C184.627 17.4453 184.136 17.808 183.624 18.064C183.112 18.3307 182.616 18.464 182.136 18.464ZM190.168 16.912C190.168 15.696 190.083 14.4853 189.912 13.28C189.752 12.0747 189.512 10.9173 189.192 9.808C188.883 8.69867 188.509 7.68 188.072 6.752L189.848 6.224C190.339 7.19467 190.744 8.256 191.064 9.408C191.395 10.5493 191.645 11.7547 191.816 13.024C191.997 14.2827 192.088 15.5787 192.088 16.912H190.168ZM198.872 18.848C197.613 18.848 196.637 18.5973 195.944 18.096C195.261 17.6053 194.92 16.9013 194.92 15.984C194.92 15.0667 195.261 14.368 195.944 13.888C196.627 13.408 197.603 13.168 198.872 13.168C199.565 13.168 200.237 13.2427 200.888 13.392C201.539 13.5413 202.195 13.7813 202.856 14.112C203.528 14.4427 204.232 14.8747 204.968 15.408C205.704 15.9307 206.499 16.5707 207.352 17.328L206.136 18.544C205.325 17.8507 204.584 17.264 203.912 16.784C203.251 16.2933 202.637 15.8987 202.072 15.6C201.507 15.2907 200.963 15.072 200.44 14.944C199.928 14.8053 199.405 14.736 198.872 14.736C197.507 14.736 196.824 15.1413 196.824 15.952C196.824 16.368 196.995 16.688 197.336 16.912C197.677 17.1253 198.179 17.232 198.84 17.232C199.629 17.232 200.211 17.0667 200.584 16.736C200.957 16.4053 201.144 15.8987 201.144 15.216V5.136H202.952V15.216C202.952 16.4213 202.611 17.328 201.928 17.936C201.256 18.544 200.237 18.848 198.872 18.848ZM194.808 11.632V10.048H207.192V11.632H194.808ZM194.648 8.368V6.752H207.352V8.368H194.648ZM213.064 17.328C214.024 17.2853 214.883 17.1253 215.64 16.848C216.397 16.56 216.995 16.192 217.432 15.744C217.88 15.296 218.104 14.8053 218.104 14.272V13.904L218.904 14.112C218.787 14.3253 218.627 14.5227 218.424 14.704C218.221 14.8853 217.981 15.0453 217.704 15.184C217.437 15.312 217.139 15.4133 216.808 15.488C216.488 15.5627 216.157 15.6 215.816 15.6C215.112 15.6 214.504 15.4667 213.992 15.2C213.48 14.9227 213.08 14.5387 212.792 14.048C212.515 13.5573 212.376 12.9813 212.376 12.32C212.376 11.648 212.525 11.0667 212.824 10.576C213.123 10.0853 213.539 9.70667 214.072 9.44C214.616 9.16267 215.251 9.024 215.976 9.024C216.573 9.024 217.091 9.12533 217.528 9.328C217.965 9.53067 218.397 9.83467 218.824 10.24L217.688 10.56V4.912H219.608V12.176L219.464 11.344C219.667 11.664 219.805 11.9947 219.88 12.336C219.965 12.6667 220.008 13.04 220.008 13.456C220.008 14.5333 219.741 15.4773 219.208 16.288C218.675 17.0987 217.912 17.7333 216.92 18.192C215.928 18.6613 214.739 18.9333 213.352 19.008L213.064 17.328ZM216.136 14.032C216.413 14.032 216.659 13.9947 216.872 13.92C217.096 13.8347 217.288 13.7173 217.448 13.568C217.608 13.4187 217.731 13.2373 217.816 13.024C217.901 12.8107 217.944 12.576 217.944 12.32C217.944 11.776 217.779 11.3493 217.448 11.04C217.128 10.7307 216.691 10.576 216.136 10.576C215.592 10.576 215.149 10.7307 214.808 11.04C214.477 11.3493 214.312 11.776 214.312 12.32C214.312 12.832 214.477 13.248 214.808 13.568C215.139 13.8773 215.581 14.032 216.136 14.032ZM209.944 8.304V6.768H224.056V8.304H209.944Z" fill="white"/>
<defs>
<filter id="filter0_d_122_2166" x="57" y="61" width="66" height="66" filterUnits="userSpaceOnUse" color-interpolation-filters="sRGB">
<feFlood flood-opacity="0" result="BackgroundImageFix"/>
<feColorMatrix in="SourceAlpha" type="matrix" values="0 0 0 0 0 0 0 0 0 0 0 0 0 0 0 0 0 0 127 0" result="hardAlpha"/>
<feOffset/>
<feGaussianBlur stdDeviation="3"/>
<feComposite in2="hardAlpha" operator="out"/>
<feColorMatrix type="matrix" values="0 0 0 0 0.282353 0 0 0 0 0.737255 0 0 0 0 0.796078 0 0 0 0.25 0"/>
<feBlend mode="normal" in2="BackgroundImageFix" result="effect1_dropShadow_122_2166"/>
<feBlend mode="normal" in="SourceGraphic" in2="effect1_dropShadow_122_2166" result="shape"/>
</filter>
<filter id="filter1_d_122_2166" x="183" y="61" width="66" height="66" filterUnits="userSpaceOnUse" color-interpolation-filters="sRGB">
<feFlood flood-opacity="0" result="BackgroundImageFix"/>
<feColorMatrix in="SourceAlpha" type="matrix" values="0 0 0 0 0 0 0 0 0 0 0 0 0 0 0 0 0 0 127 0" result="hardAlpha"/>
<feOffset/>
<feGaussianBlur stdDeviation="3"/>
<feComposite in2="hardAlpha" operator="out"/>
<feColorMatrix type="matrix" values="0 0 0 0 0.282353 0 0 0 0 0.737255 0 0 0 0 0.796078 0 0 0 0.25 0"/>
<feBlend mode="normal" in2="BackgroundImageFix" result="effect1_dropShadow_122_2166"/>
<feBlend mode="normal" in="SourceGraphic" in2="effect1_dropShadow_122_2166" result="shape"/>
</filter>
</defs>
</svg>
