<svg width="208" height="127" viewBox="0 0 208 127" fill="none" xmlns="http://www.w3.org/2000/svg">
<circle cx="104" cy="95" r="27" fill="#128FCD" fill-opacity="0.2"/>
<circle cx="104" cy="95" r="26" stroke="#48BCCB" stroke-opacity="0.4" stroke-width="2"/>
<path d="M101.552 101.116C101.552 100.108 101.66 99.16 101.876 98.272C102.092 97.384 102.488 96.532 103.064 95.716C103.64 94.876 104.444 94.096 105.476 93.376C106.292 92.8 106.952 92.272 107.456 91.792C107.96 91.312 108.308 90.844 108.5 90.388C108.716 89.932 108.824 89.476 108.824 89.02C108.824 88.084 108.404 87.412 107.564 87.004C106.748 86.572 105.44 86.356 103.64 86.356C102.368 86.356 101.108 86.464 99.86 86.68C98.612 86.872 97.304 87.196 95.936 87.652L95 83.728C96.368 83.296 97.856 82.96 99.464 82.72C101.072 82.48 102.668 82.36 104.252 82.36C110.444 82.36 113.54 84.364 113.54 88.372C113.54 89.284 113.384 90.124 113.072 90.892C112.784 91.636 112.304 92.368 111.632 93.088C110.96 93.808 110.072 94.552 108.968 95.32C108.248 95.824 107.672 96.388 107.24 97.012C106.808 97.636 106.508 98.296 106.34 98.992C106.172 99.688 106.064 100.396 106.016 101.116H101.552ZM101.228 109V104.104H106.34V109H101.228Z" fill="white"/>
<g filter="url(#filter0_d_122_1993)">
<rect x="140" y="67" width="54" height="54" fill="#128FCD" fill-opacity="0.2" shape-rendering="crispEdges"/>
<rect x="141" y="68" width="52" height="52" stroke="#48BCCB" stroke-opacity="0.5" stroke-width="2" shape-rendering="crispEdges"/>
</g>
<circle cx="158" cy="55" r="8" fill="#128FCD" fill-opacity="0.2"/>
<circle cx="158" cy="55" r="7.5" stroke="#48BCCB" stroke-opacity="0.4"/>
<path d="M157.32 56.81C157.32 56.53 157.35 56.2667 157.41 56.02C157.47 55.7733 157.58 55.5367 157.74 55.31C157.9 55.0767 158.123 54.86 158.41 54.66C158.637 54.5 158.82 54.3533 158.96 54.22C159.1 54.0867 159.197 53.9567 159.25 53.83C159.31 53.7033 159.34 53.5767 159.34 53.45C159.34 53.19 159.223 53.0033 158.99 52.89C158.763 52.77 158.4 52.71 157.9 52.71C157.547 52.71 157.197 52.74 156.85 52.8C156.503 52.8533 156.14 52.9433 155.76 53.07L155.5 51.98C155.88 51.86 156.293 51.7667 156.74 51.7C157.187 51.6333 157.63 51.6 158.07 51.6C159.79 51.6 160.65 52.1567 160.65 53.27C160.65 53.5233 160.607 53.7567 160.52 53.97C160.44 54.1767 160.307 54.38 160.12 54.58C159.933 54.78 159.687 54.9867 159.38 55.2C159.18 55.34 159.02 55.4967 158.9 55.67C158.78 55.8433 158.697 56.0267 158.65 56.22C158.603 56.4133 158.573 56.61 158.56 56.81H157.32ZM157.23 59V57.64H158.65V59H157.23Z" fill="white"/>
<circle cx="176" cy="55" r="8" fill="#128FCD" fill-opacity="0.2"/>
<circle cx="176" cy="55" r="7.5" stroke="#48BCCB" stroke-opacity="0.4"/>
<path d="M175.75 59.64C174.503 59.64 173.557 59.4667 172.91 59.12C172.263 58.78 171.94 58.2333 171.94 57.48C171.94 56.8867 172.17 56.3467 172.63 55.86C173.097 55.3667 173.817 54.9133 174.79 54.5C175.77 54.0867 177.033 53.6933 178.58 53.32L178.86 54.38C177.56 54.7 176.49 55.0167 175.65 55.33C174.817 55.6433 174.197 55.97 173.79 56.31C173.39 56.6433 173.19 56.9967 173.19 57.37C173.19 57.7967 173.407 58.1033 173.84 58.29C174.28 58.47 174.94 58.56 175.82 58.56C176.107 58.56 176.407 58.55 176.72 58.53C177.033 58.5033 177.383 58.4667 177.77 58.42C178.163 58.3733 178.61 58.3133 179.11 58.24L179.26 59.31C178.62 59.4167 178.003 59.4967 177.41 59.55C176.823 59.61 176.27 59.64 175.75 59.64ZM173.85 55.17C173.657 54.5167 173.493 53.8767 173.36 53.25C173.227 52.6167 173.12 51.99 173.04 51.37L174.25 51.19C174.337 51.81 174.447 52.43 174.58 53.05C174.713 53.6633 174.873 54.2733 175.06 54.88L173.85 55.17ZM177.98 53.21C177.807 52.85 177.637 52.5267 177.47 52.24C177.303 51.9467 177.117 51.6633 176.91 51.39L177.73 50.9C177.943 51.1867 178.133 51.4833 178.3 51.79C178.473 52.0967 178.647 52.43 178.82 52.79L177.98 53.21ZM179.41 52.74C179.257 52.3667 179.097 52.0367 178.93 51.75C178.77 51.4567 178.593 51.1733 178.4 50.9L179.21 50.45C179.423 50.7433 179.613 51.0433 179.78 51.35C179.947 51.6567 180.107 51.9933 180.26 52.36L179.41 52.74Z" fill="white"/>
<g filter="url(#filter1_d_122_1993)">
<rect x="14" y="67" width="54" height="54" fill="#128FCD" fill-opacity="0.2" shape-rendering="crispEdges"/>
<rect x="15" y="68" width="52" height="52" stroke="#48BCCB" stroke-opacity="0.5" stroke-width="2" shape-rendering="crispEdges"/>
</g>
<circle cx="22" cy="55" r="8" fill="#128FCD" fill-opacity="0.2"/>
<circle cx="22" cy="55" r="7.5" stroke="#48BCCB" stroke-opacity="0.4"/>
<path d="M21.32 56.81C21.32 56.53 21.35 56.2667 21.41 56.02C21.47 55.7733 21.58 55.5367 21.74 55.31C21.9 55.0767 22.1233 54.86 22.41 54.66C22.6367 54.5 22.82 54.3533 22.96 54.22C23.1 54.0867 23.1967 53.9567 23.25 53.83C23.31 53.7033 23.34 53.5767 23.34 53.45C23.34 53.19 23.2233 53.0033 22.99 52.89C22.7633 52.77 22.4 52.71 21.9 52.71C21.5467 52.71 21.1967 52.74 20.85 52.8C20.5033 52.8533 20.14 52.9433 19.76 53.07L19.5 51.98C19.88 51.86 20.2933 51.7667 20.74 51.7C21.1867 51.6333 21.63 51.6 22.07 51.6C23.79 51.6 24.65 52.1567 24.65 53.27C24.65 53.5233 24.6067 53.7567 24.52 53.97C24.44 54.1767 24.3067 54.38 24.12 54.58C23.9333 54.78 23.6867 54.9867 23.38 55.2C23.18 55.34 23.02 55.4967 22.9 55.67C22.78 55.8433 22.6967 56.0267 22.65 56.22C22.6033 56.4133 22.5733 56.61 22.56 56.81H21.32ZM21.23 59V57.64H22.65V59H21.23Z" fill="white"/>
<circle cx="40" cy="55" r="8" fill="#128FCD" fill-opacity="0.2"/>
<circle cx="40" cy="55" r="7.5" stroke="#48BCCB" stroke-opacity="0.4"/>
<path d="M39.32 56.81C39.32 56.53 39.35 56.2667 39.41 56.02C39.47 55.7733 39.58 55.5367 39.74 55.31C39.9 55.0767 40.1233 54.86 40.41 54.66C40.6367 54.5 40.82 54.3533 40.96 54.22C41.1 54.0867 41.1967 53.9567 41.25 53.83C41.31 53.7033 41.34 53.5767 41.34 53.45C41.34 53.19 41.2233 53.0033 40.99 52.89C40.7633 52.77 40.4 52.71 39.9 52.71C39.5467 52.71 39.1967 52.74 38.85 52.8C38.5033 52.8533 38.14 52.9433 37.76 53.07L37.5 51.98C37.88 51.86 38.2933 51.7667 38.74 51.7C39.1867 51.6333 39.63 51.6 40.07 51.6C41.79 51.6 42.65 52.1567 42.65 53.27C42.65 53.5233 42.6067 53.7567 42.52 53.97C42.44 54.1767 42.3067 54.38 42.12 54.58C41.9333 54.78 41.6867 54.9867 41.38 55.2C41.18 55.34 41.02 55.4967 40.9 55.67C40.78 55.8433 40.6967 56.0267 40.65 56.22C40.6033 56.4133 40.5733 56.61 40.56 56.81H39.32ZM39.23 59V57.64H40.65V59H39.23Z" fill="white"/>
<circle cx="58" cy="55" r="8" fill="#128FCD" fill-opacity="0.2"/>
<circle cx="58" cy="55" r="7.5" stroke="#48BCCB" stroke-opacity="0.4"/>
<path d="M57.32 56.81C57.32 56.53 57.35 56.2667 57.41 56.02C57.47 55.7733 57.58 55.5367 57.74 55.31C57.9 55.0767 58.1233 54.86 58.41 54.66C58.6367 54.5 58.82 54.3533 58.96 54.22C59.1 54.0867 59.1967 53.9567 59.25 53.83C59.31 53.7033 59.34 53.5767 59.34 53.45C59.34 53.19 59.2233 53.0033 58.99 52.89C58.7633 52.77 58.4 52.71 57.9 52.71C57.5467 52.71 57.1967 52.74 56.85 52.8C56.5033 52.8533 56.14 52.9433 55.76 53.07L55.5 51.98C55.88 51.86 56.2933 51.7667 56.74 51.7C57.1867 51.6333 57.63 51.6 58.07 51.6C59.79 51.6 60.65 52.1567 60.65 53.27C60.65 53.5233 60.6067 53.7567 60.52 53.97C60.44 54.1767 60.3067 54.38 60.12 54.58C59.9333 54.78 59.6867 54.9867 59.38 55.2C59.18 55.34 59.02 55.4967 58.9 55.67C58.78 55.8433 58.6967 56.0267 58.65 56.22C58.6033 56.4133 58.5733 56.61 58.56 56.81H57.32ZM57.23 59V57.64H58.65V59H57.23Z" fill="white"/>
<path d="M0.768 12.816V10.928H15.232V12.816H0.768ZM20.016 16.368C22.1067 16.368 23.808 16.2187 25.12 15.92C26.432 15.6107 27.392 15.1413 28 14.512C28.6187 13.872 28.928 13.0453 28.928 12.032C28.928 10.9013 28.5547 10.048 27.808 9.472C27.0613 8.896 25.9467 8.608 24.464 8.608C23.9093 8.608 23.3013 8.65067 22.64 8.736C21.9787 8.82133 21.2213 8.95467 20.368 9.136C19.5253 9.31733 18.5387 9.55733 17.408 9.856L17.008 7.952C18.7147 7.536 20.1813 7.23733 21.408 7.056C22.6453 6.864 23.712 6.768 24.608 6.768C25.9733 6.768 27.1307 6.96533 28.08 7.36C29.0293 7.744 29.7493 8.31467 30.24 9.072C30.7307 9.82933 30.976 10.7573 30.976 11.856C30.976 13.936 30.064 15.5093 28.24 16.576C26.416 17.6427 23.7173 18.176 20.144 18.176L20.016 16.368ZM32.768 12.816V10.928H47.232V12.816H32.768ZM52.016 16.368C54.1067 16.368 55.808 16.2187 57.12 15.92C58.432 15.6107 59.392 15.1413 60 14.512C60.6187 13.872 60.928 13.0453 60.928 12.032C60.928 10.9013 60.5547 10.048 59.808 9.472C59.0613 8.896 57.9467 8.608 56.464 8.608C55.9093 8.608 55.3013 8.65067 54.64 8.736C53.9787 8.82133 53.2213 8.95467 52.368 9.136C51.5253 9.31733 50.5387 9.55733 49.408 9.856L49.008 7.952C50.7147 7.536 52.1813 7.23733 53.408 7.056C54.6453 6.864 55.712 6.768 56.608 6.768C57.9733 6.768 59.1307 6.96533 60.08 7.36C61.0293 7.744 61.7493 8.31467 62.24 9.072C62.7307 9.82933 62.976 10.7573 62.976 11.856C62.976 13.936 62.064 15.5093 60.24 16.576C58.416 17.6427 55.7173 18.176 52.144 18.176L52.016 16.368ZM66.24 14.336V7.984H70.96V7.376H65.008V5.824H70.96V4.848H72.928V5.824H78.992V7.376H72.928V7.984H77.76V14.336H68.16V13.104H75.84V12.512H68.16V11.456H75.84V10.848H68.16V9.792H75.84V9.2H68.16V14.336H66.24ZM65.6 19.536L64.96 18.016C65.9947 17.7493 66.9653 17.4507 67.872 17.12C68.7893 16.7787 69.536 16.4267 70.112 16.064L70.976 17.344C70.5813 17.6213 70.1013 17.8933 69.536 18.16C68.9707 18.4267 68.352 18.6773 67.68 18.912C67.008 19.1467 66.3147 19.3547 65.6 19.536ZM64.688 16.416V14.912H79.312V16.416H64.688ZM78.256 19.632C77.5733 19.28 76.7787 18.912 75.872 18.528C74.976 18.1547 74.032 17.8027 73.04 17.472L73.696 16.144C74.72 16.4427 75.696 16.768 76.624 17.12C77.552 17.4613 78.368 17.8133 79.072 18.176L78.256 19.632ZM88.544 19.232C88.2667 19.232 87.952 19.2267 87.6 19.216C87.248 19.2053 86.9387 19.1947 86.672 19.184C86.2347 19.152 85.888 19.104 85.632 19.04C85.376 18.976 85.184 18.864 85.056 18.704C84.928 18.544 84.8427 18.3093 84.8 18C84.7573 17.6907 84.736 17.2853 84.736 16.784V8.64H86.736V16.528C86.736 16.8373 86.7467 17.0613 86.768 17.2C86.7893 17.3387 86.8373 17.4293 86.912 17.472C86.9973 17.504 87.1307 17.5307 87.312 17.552C87.4933 17.5627 87.68 17.5733 87.872 17.584C88.064 17.584 88.256 17.584 88.448 17.584C88.6507 17.584 88.8427 17.584 89.024 17.584C89.2053 17.5733 89.392 17.5627 89.584 17.552C89.776 17.5307 89.9307 17.504 90.048 17.472C90.176 17.4293 90.272 17.3493 90.336 17.232C90.4107 17.1147 90.464 16.928 90.496 16.672C90.5387 16.416 90.576 16.064 90.608 15.616C90.64 15.1573 90.672 14.5707 90.704 13.856L92.544 14.144C92.5013 15.0613 92.4533 15.8187 92.4 16.416C92.3573 17.0133 92.288 17.488 92.192 17.84C92.1067 18.192 91.9893 18.4533 91.84 18.624C91.7013 18.8053 91.5147 18.928 91.28 18.992C91.056 19.0667 90.7733 19.12 90.432 19.152C90.144 19.1733 89.84 19.1893 89.52 19.2C89.2107 19.2213 88.8853 19.232 88.544 19.232ZM82.096 17.712L80.288 17.104C80.5973 16.2293 80.8693 15.2 81.104 14.016C81.3387 12.8213 81.5147 11.52 81.632 10.112L83.44 10.288C83.3867 11.2053 83.296 12.1173 83.168 13.024C83.04 13.9307 82.8853 14.784 82.704 15.584C82.5227 16.3733 82.32 17.0827 82.096 17.712ZM93.904 17.424C93.7013 16.1013 93.4613 14.8213 93.184 13.584C92.9067 12.336 92.5973 11.1627 92.256 10.064L94.016 9.632C94.368 10.752 94.6827 11.936 94.96 13.184C95.248 14.432 95.4987 15.7227 95.712 17.056L93.904 17.424ZM91.632 8.72C90.7787 8.37867 89.9413 8.08 89.12 7.824C88.2987 7.568 87.488 7.34933 86.688 7.168C85.8987 6.976 85.0987 6.82133 84.288 6.704L84.72 5.088C85.552 5.19467 86.3733 5.33867 87.184 5.52C87.9947 5.70133 88.8107 5.92 89.632 6.176C90.4533 6.42133 91.3067 6.71467 92.192 7.056L91.632 8.72ZM102.016 16.688L100.928 15.2C101.685 14.752 102.357 14.24 102.944 13.664C103.541 13.088 104.048 12.4693 104.464 11.808C104.88 11.1467 105.195 10.4587 105.408 9.744C105.621 9.01867 105.728 8.27733 105.728 7.52V7.248H102.56V5.568H107.648V6.96C107.648 7.87733 107.499 8.816 107.2 9.776C106.912 10.736 106.507 11.6587 105.984 12.544C105.461 13.4293 104.859 14.2293 104.176 14.944C103.504 15.6587 102.784 16.24 102.016 16.688ZM97.408 19.472L96.544 17.936C97.152 17.5413 97.7013 17.1413 98.192 16.736C98.6933 16.32 99.152 15.8773 99.568 15.408L100.624 16.688C100.197 17.1893 99.7227 17.664 99.2 18.112C98.688 18.56 98.0907 19.0133 97.408 19.472ZM98.624 16.512V12.544H96.768V10.944H100.464V16.512H98.624ZM106.736 19.216C105.637 19.216 104.683 19.184 103.872 19.12C103.061 19.056 102.373 18.9493 101.808 18.8C101.253 18.6613 100.789 18.4693 100.416 18.224C100.043 17.9787 99.7333 17.68 99.488 17.328C99.2533 16.976 99.0507 16.56 98.88 16.08L100.448 15.968C100.597 16.224 100.768 16.448 100.96 16.64C101.152 16.832 101.387 16.992 101.664 17.12C101.952 17.2373 102.315 17.3333 102.752 17.408C103.2 17.4827 103.755 17.536 104.416 17.568C105.077 17.6 105.877 17.616 106.816 17.616H111.216L111.104 19.216H106.736ZM99.76 9.392C99.312 8.89067 98.8587 8.4 98.4 7.92C97.9413 7.42933 97.4773 6.95467 97.008 6.496L98.304 5.376C98.7627 5.83467 99.216 6.30933 99.664 6.8C100.112 7.28 100.555 7.776 100.992 8.288L99.76 9.392ZM110.272 16.688C109.643 16.304 109.061 15.7867 108.528 15.136C108.005 14.4747 107.547 13.7173 107.152 12.864C106.757 12 106.448 11.072 106.224 10.08C106.011 9.07733 105.904 8.03733 105.904 6.96H107.648C107.648 7.952 107.728 8.864 107.888 9.696C108.059 10.528 108.299 11.2907 108.608 11.984C108.928 12.6667 109.312 13.2747 109.76 13.808C110.219 14.3307 110.736 14.7893 111.312 15.184L110.272 16.688ZM121.376 17.104C122.187 16.9973 122.885 16.768 123.472 16.416C124.059 16.0533 124.507 15.5893 124.816 15.024C125.136 14.448 125.296 13.792 125.296 13.056C125.296 12.224 125.093 11.5093 124.688 10.912C124.293 10.3147 123.723 9.856 122.976 9.536C122.229 9.20533 121.344 9.04 120.32 9.04C119.179 9.04 118.181 9.24267 117.328 9.648C116.485 10.0533 115.829 10.6293 115.36 11.376C114.901 12.112 114.672 12.992 114.672 14.016C114.672 14.5067 114.731 14.9333 114.848 15.296C114.965 15.648 115.131 15.92 115.344 16.112C115.557 16.304 115.813 16.4 116.112 16.4C116.528 16.4 116.965 16.2133 117.424 15.84C117.893 15.4667 118.368 14.9387 118.848 14.256C119.339 13.5627 119.819 12.7413 120.288 11.792C120.768 10.8427 121.216 9.792 121.632 8.64C122.059 7.47733 122.443 6.24533 122.784 4.944L124.56 5.312C124.048 7.27467 123.461 9.05067 122.8 10.64C122.139 12.2187 121.429 13.568 120.672 14.688C119.915 15.7973 119.131 16.656 118.32 17.264C117.509 17.8613 116.699 18.16 115.888 18.16C115.291 18.16 114.768 17.9947 114.32 17.664C113.872 17.3333 113.525 16.864 113.28 16.256C113.035 15.648 112.912 14.9333 112.912 14.112C112.912 13.088 113.088 12.1547 113.44 11.312C113.792 10.4693 114.293 9.744 114.944 9.136C115.605 8.528 116.389 8.064 117.296 7.744C118.203 7.41333 119.211 7.248 120.32 7.248C121.685 7.248 122.875 7.488 123.888 7.968C124.912 8.43733 125.701 9.10933 126.256 9.984C126.811 10.8587 127.088 11.8827 127.088 13.056C127.088 14.0907 126.869 15.0187 126.432 15.84C126.005 16.6507 125.392 17.3173 124.592 17.84C123.803 18.352 122.875 18.6773 121.808 18.816L121.376 17.104ZM118 15.872C117.605 14.8373 117.232 13.7973 116.88 12.752C116.528 11.696 116.197 10.608 115.888 9.488C115.589 8.35733 115.291 7.17867 114.992 5.952L116.8 5.552C117.077 6.75733 117.365 7.91467 117.664 9.024C117.963 10.1227 118.277 11.1893 118.608 12.224C118.949 13.2587 119.312 14.288 119.696 15.312L118 15.872ZM139.072 18.592C137.781 18.592 136.656 18.3733 135.696 17.936C134.747 17.4987 134.011 16.88 133.488 16.08C132.965 15.2693 132.704 14.32 132.704 13.232C132.704 12.3787 132.859 11.5947 133.168 10.88C133.488 10.1547 133.936 9.52 134.512 8.976C135.099 8.42133 135.792 8 136.592 7.712L136.752 8.208L129.136 8.384V6.672L142.624 6.352V8.064L140.592 8.112C139.76 8.13333 138.987 8.26133 138.272 8.496C137.568 8.73067 136.949 9.06667 136.416 9.504C135.883 9.94133 135.467 10.4587 135.168 11.056C134.88 11.6427 134.736 12.304 134.736 13.04C134.736 13.8293 134.912 14.512 135.264 15.088C135.616 15.6533 136.112 16.0853 136.752 16.384C137.403 16.6827 138.181 16.832 139.088 16.832C139.387 16.832 139.728 16.816 140.112 16.784C140.507 16.752 140.848 16.7093 141.136 16.656L141.344 18.416C141.003 18.4693 140.624 18.512 140.208 18.544C139.803 18.576 139.424 18.592 139.072 18.592ZM152.784 19.472V7.952H151.712V6.368H159.472V7.952H154.784V10.4H158.992V12H154.784V14.512H158.992V16.144H154.784V19.472H152.784ZM146.464 19.472V9.056H148.416V19.472H146.464ZM145.248 13.968L144.432 12.112C144.997 11.44 145.493 10.7413 145.92 10.016C146.347 9.28 146.715 8.496 147.024 7.664C147.333 6.82133 147.595 5.91467 147.808 4.944L149.6 5.328C149.408 6.352 149.147 7.30667 148.816 8.192C148.485 9.07733 148.091 9.888 147.632 10.624L147.568 10.144C147.451 10.4533 147.301 10.784 147.12 11.136C146.949 11.4773 146.757 11.824 146.544 12.176C146.341 12.5173 146.128 12.8427 145.904 13.152C145.68 13.4613 145.461 13.7333 145.248 13.968ZM150.144 12.32L148.624 11.168C149.264 10.1867 149.835 9.16267 150.336 8.096C150.848 7.01867 151.28 5.91467 151.632 4.784L153.456 5.152C153.083 6.4 152.613 7.63733 152.048 8.864C151.483 10.08 150.848 11.232 150.144 12.32ZM163.408 17.04C165.467 17.04 167.125 16.864 168.384 16.512C169.653 16.16 170.571 15.5893 171.136 14.8C171.712 14 172 12.9707 172 11.712C172 10.432 171.728 9.47733 171.184 8.848C170.651 8.208 169.829 7.888 168.72 7.888C168.101 7.888 167.52 7.98933 166.976 8.192C166.443 8.39467 165.973 8.68267 165.568 9.056C165.163 9.42933 164.837 9.872 164.592 10.384C164.357 10.896 164.24 11.4613 164.24 12.08V14.176H162.384V5.76H164.24V9.168H163.52C163.904 8.50667 164.357 7.94667 164.88 7.488C165.413 7.02933 166.016 6.68267 166.688 6.448C167.371 6.20267 168.112 6.08 168.912 6.08C170.544 6.08 171.792 6.56533 172.656 7.536C173.531 8.496 173.968 9.888 173.968 11.712C173.968 13.3547 173.595 14.6987 172.848 15.744C172.112 16.7893 170.976 17.5573 169.44 18.048C167.904 18.5493 165.925 18.8 163.504 18.8L163.408 17.04ZM181.872 18.848C180.613 18.848 179.637 18.5973 178.944 18.096C178.261 17.6053 177.92 16.9013 177.92 15.984C177.92 15.0667 178.261 14.368 178.944 13.888C179.627 13.408 180.603 13.168 181.872 13.168C182.565 13.168 183.237 13.2427 183.888 13.392C184.539 13.5413 185.195 13.7813 185.856 14.112C186.528 14.4427 187.232 14.8747 187.968 15.408C188.704 15.9307 189.499 16.5707 190.352 17.328L189.136 18.544C188.325 17.8507 187.584 17.264 186.912 16.784C186.251 16.2933 185.637 15.8987 185.072 15.6C184.507 15.2907 183.963 15.072 183.44 14.944C182.928 14.8053 182.405 14.736 181.872 14.736C180.507 14.736 179.824 15.1413 179.824 15.952C179.824 16.368 179.995 16.688 180.336 16.912C180.677 17.1253 181.179 17.232 181.84 17.232C182.629 17.232 183.211 17.0667 183.584 16.736C183.957 16.4053 184.144 15.8987 184.144 15.216V5.136H185.952V15.216C185.952 16.4213 185.611 17.328 184.928 17.936C184.256 18.544 183.237 18.848 181.872 18.848ZM177.808 11.632V10.048H190.192V11.632H177.808ZM177.648 8.368V6.752H190.352V8.368H177.648ZM196.064 17.328C197.024 17.2853 197.883 17.1253 198.64 16.848C199.397 16.56 199.995 16.192 200.432 15.744C200.88 15.296 201.104 14.8053 201.104 14.272V13.904L201.904 14.112C201.787 14.3253 201.627 14.5227 201.424 14.704C201.221 14.8853 200.981 15.0453 200.704 15.184C200.437 15.312 200.139 15.4133 199.808 15.488C199.488 15.5627 199.157 15.6 198.816 15.6C198.112 15.6 197.504 15.4667 196.992 15.2C196.48 14.9227 196.08 14.5387 195.792 14.048C195.515 13.5573 195.376 12.9813 195.376 12.32C195.376 11.648 195.525 11.0667 195.824 10.576C196.123 10.0853 196.539 9.70667 197.072 9.44C197.616 9.16267 198.251 9.024 198.976 9.024C199.573 9.024 200.091 9.12533 200.528 9.328C200.965 9.53067 201.397 9.83467 201.824 10.24L200.688 10.56V4.912H202.608V12.176L202.464 11.344C202.667 11.664 202.805 11.9947 202.88 12.336C202.965 12.6667 203.008 13.04 203.008 13.456C203.008 14.5333 202.741 15.4773 202.208 16.288C201.675 17.0987 200.912 17.7333 199.92 18.192C198.928 18.6613 197.739 18.9333 196.352 19.008L196.064 17.328ZM199.136 14.032C199.413 14.032 199.659 13.9947 199.872 13.92C200.096 13.8347 200.288 13.7173 200.448 13.568C200.608 13.4187 200.731 13.2373 200.816 13.024C200.901 12.8107 200.944 12.576 200.944 12.32C200.944 11.776 200.779 11.3493 200.448 11.04C200.128 10.7307 199.691 10.576 199.136 10.576C198.592 10.576 198.149 10.7307 197.808 11.04C197.477 11.3493 197.312 11.776 197.312 12.32C197.312 12.832 197.477 13.248 197.808 13.568C198.139 13.8773 198.581 14.032 199.136 14.032ZM192.944 8.304V6.768H207.056V8.304H192.944Z" fill="white"/>
<defs>
<filter id="filter0_d_122_1993" x="134" y="61" width="66" height="66" filterUnits="userSpaceOnUse" color-interpolation-filters="sRGB">
<feFlood flood-opacity="0" result="BackgroundImageFix"/>
<feColorMatrix in="SourceAlpha" type="matrix" values="0 0 0 0 0 0 0 0 0 0 0 0 0 0 0 0 0 0 127 0" result="hardAlpha"/>
<feOffset/>
<feGaussianBlur stdDeviation="3"/>
<feComposite in2="hardAlpha" operator="out"/>
<feColorMatrix type="matrix" values="0 0 0 0 0.282353 0 0 0 0 0.737255 0 0 0 0 0.796078 0 0 0 0.25 0"/>
<feBlend mode="normal" in2="BackgroundImageFix" result="effect1_dropShadow_122_1993"/>
<feBlend mode="normal" in="SourceGraphic" in2="effect1_dropShadow_122_1993" result="shape"/>
</filter>
<filter id="filter1_d_122_1993" x="8" y="61" width="66" height="66" filterUnits="userSpaceOnUse" color-interpolation-filters="sRGB">
<feFlood flood-opacity="0" result="BackgroundImageFix"/>
<feColorMatrix in="SourceAlpha" type="matrix" values="0 0 0 0 0 0 0 0 0 0 0 0 0 0 0 0 0 0 127 0" result="hardAlpha"/>
<feOffset/>
<feGaussianBlur stdDeviation="3"/>
<feComposite in2="hardAlpha" operator="out"/>
<feColorMatrix type="matrix" values="0 0 0 0 0.282353 0 0 0 0 0.737255 0 0 0 0 0.796078 0 0 0 0.25 0"/>
<feBlend mode="normal" in2="BackgroundImageFix" result="effect1_dropShadow_122_1993"/>
<feBlend mode="normal" in="SourceGraphic" in2="effect1_dropShadow_122_1993" result="shape"/>
</filter>
</defs>
</svg>
