<svg width="186" height="127" viewBox="0 0 186 127" fill="none" xmlns="http://www.w3.org/2000/svg">
<circle cx="27" cy="95" r="27" fill="#128FCD" fill-opacity="0.2"/>
<circle cx="27" cy="95" r="26" stroke="#48BCCB" stroke-opacity="0.4" stroke-width="2"/>
<path d="M24.552 101.116C24.552 100.108 24.66 99.16 24.876 98.272C25.092 97.384 25.488 96.532 26.064 95.716C26.64 94.876 27.444 94.096 28.476 93.376C29.292 92.8 29.952 92.272 30.456 91.792C30.96 91.312 31.308 90.844 31.5 90.388C31.716 89.932 31.824 89.476 31.824 89.02C31.824 88.084 31.404 87.412 30.564 87.004C29.748 86.572 28.44 86.356 26.64 86.356C25.368 86.356 24.108 86.464 22.86 86.68C21.612 86.872 20.304 87.196 18.936 87.652L18 83.728C19.368 83.296 20.856 82.96 22.464 82.72C24.072 82.48 25.668 82.36 27.252 82.36C33.444 82.36 36.54 84.364 36.54 88.372C36.54 89.284 36.384 90.124 36.072 90.892C35.784 91.636 35.304 92.368 34.632 93.088C33.96 93.808 33.072 94.552 31.968 95.32C31.248 95.824 30.672 96.388 30.24 97.012C29.808 97.636 29.508 98.296 29.34 98.992C29.172 99.688 29.064 100.396 29.016 101.116H24.552ZM24.228 109V104.104H29.34V109H24.228Z" fill="white"/>
<g filter="url(#filter0_d_122_2195)">
<rect x="63" y="67" width="54" height="54" fill="#128FCD" fill-opacity="0.2" shape-rendering="crispEdges"/>
<rect x="64" y="68" width="52" height="52" stroke="#48BCCB" stroke-opacity="0.5" stroke-width="2" shape-rendering="crispEdges"/>
</g>
<circle cx="81" cy="55" r="8" fill="#128FCD" fill-opacity="0.2"/>
<circle cx="81" cy="55" r="7.5" stroke="#48BCCB" stroke-opacity="0.4"/>
<path d="M80.32 56.81C80.32 56.53 80.35 56.2667 80.41 56.02C80.47 55.7733 80.58 55.5367 80.74 55.31C80.9 55.0767 81.1233 54.86 81.41 54.66C81.6367 54.5 81.82 54.3533 81.96 54.22C82.1 54.0867 82.1967 53.9567 82.25 53.83C82.31 53.7033 82.34 53.5767 82.34 53.45C82.34 53.19 82.2233 53.0033 81.99 52.89C81.7633 52.77 81.4 52.71 80.9 52.71C80.5467 52.71 80.1967 52.74 79.85 52.8C79.5033 52.8533 79.14 52.9433 78.76 53.07L78.5 51.98C78.88 51.86 79.2933 51.7667 79.74 51.7C80.1867 51.6333 80.63 51.6 81.07 51.6C82.79 51.6 83.65 52.1567 83.65 53.27C83.65 53.5233 83.6067 53.7567 83.52 53.97C83.44 54.1767 83.3067 54.38 83.12 54.58C82.9333 54.78 82.6867 54.9867 82.38 55.2C82.18 55.34 82.02 55.4967 81.9 55.67C81.78 55.8433 81.6967 56.0267 81.65 56.22C81.6033 56.4133 81.5733 56.61 81.56 56.81H80.32ZM80.23 59V57.64H81.65V59H80.23Z" fill="white"/>
<circle cx="99" cy="55" r="8" fill="#128FCD" fill-opacity="0.2"/>
<circle cx="99" cy="55" r="7.5" stroke="#48BCCB" stroke-opacity="0.4"/>
<path d="M99.46 59.53C98.6467 59.53 97.94 59.45 97.34 59.29C96.7467 59.13 96.29 58.9067 95.97 58.62C95.65 58.3267 95.49 57.98 95.49 57.58C95.49 57.2333 95.6067 56.91 95.84 56.61C96.0733 56.31 96.4 56.0633 96.82 55.87L97.61 56.57C97.31 56.7167 97.0933 56.8633 96.96 57.01C96.8267 57.15 96.7633 57.3067 96.77 57.48C96.7767 57.7 96.88 57.8867 97.08 58.04C97.28 58.1867 97.5733 58.3 97.96 58.38C98.3533 58.46 98.8267 58.5 99.38 58.5C99.8667 58.5 100.377 58.4667 100.91 58.4C101.45 58.3333 101.953 58.2467 102.42 58.14L102.59 59.18C102.11 59.2933 101.6 59.38 101.06 59.44C100.52 59.5 99.9867 59.53 99.46 59.53ZM95.03 55.34V54.36L102.97 54.16V55.14L95.03 55.34ZM100.43 57.41C100.21 56.8967 100.013 56.3767 99.84 55.85C99.6667 55.3233 99.5167 54.7933 99.39 54.26C99.27 53.72 99.17 53.17 99.09 52.61C99.01 52.0433 98.9533 51.4667 98.92 50.88L100.11 50.81C100.143 51.3767 100.197 51.9267 100.27 52.46C100.35 52.9933 100.45 53.5167 100.57 54.03C100.69 54.5433 100.837 55.06 101.01 55.58C101.19 56.0933 101.397 56.6133 101.63 57.14L100.43 57.41ZM95.13 53.13V52.15L102.87 51.95V52.93L95.13 53.13Z" fill="white"/>
<g filter="url(#filter1_d_122_2195)">
<rect x="126" y="67" width="54" height="54" fill="#128FCD" fill-opacity="0.2" shape-rendering="crispEdges"/>
<rect x="127" y="68" width="52" height="52" stroke="#48BCCB" stroke-opacity="0.5" stroke-width="2" shape-rendering="crispEdges"/>
</g>
<circle cx="134" cy="55" r="8" fill="#128FCD" fill-opacity="0.2"/>
<circle cx="134" cy="55" r="7.5" stroke="#48BCCB" stroke-opacity="0.4"/>
<path d="M133.32 56.81C133.32 56.53 133.35 56.2667 133.41 56.02C133.47 55.7733 133.58 55.5367 133.74 55.31C133.9 55.0767 134.123 54.86 134.41 54.66C134.637 54.5 134.82 54.3533 134.96 54.22C135.1 54.0867 135.197 53.9567 135.25 53.83C135.31 53.7033 135.34 53.5767 135.34 53.45C135.34 53.19 135.223 53.0033 134.99 52.89C134.763 52.77 134.4 52.71 133.9 52.71C133.547 52.71 133.197 52.74 132.85 52.8C132.503 52.8533 132.14 52.9433 131.76 53.07L131.5 51.98C131.88 51.86 132.293 51.7667 132.74 51.7C133.187 51.6333 133.63 51.6 134.07 51.6C135.79 51.6 136.65 52.1567 136.65 53.27C136.65 53.5233 136.607 53.7567 136.52 53.97C136.44 54.1767 136.307 54.38 136.12 54.58C135.933 54.78 135.687 54.9867 135.38 55.2C135.18 55.34 135.02 55.4967 134.9 55.67C134.78 55.8433 134.697 56.0267 134.65 56.22C134.603 56.4133 134.573 56.61 134.56 56.81H133.32ZM133.23 59V57.64H134.65V59H133.23Z" fill="white"/>
<circle cx="152" cy="55" r="8" fill="#128FCD" fill-opacity="0.2"/>
<circle cx="152" cy="55" r="7.5" stroke="#48BCCB" stroke-opacity="0.4"/>
<path d="M151.32 56.81C151.32 56.53 151.35 56.2667 151.41 56.02C151.47 55.7733 151.58 55.5367 151.74 55.31C151.9 55.0767 152.123 54.86 152.41 54.66C152.637 54.5 152.82 54.3533 152.96 54.22C153.1 54.0867 153.197 53.9567 153.25 53.83C153.31 53.7033 153.34 53.5767 153.34 53.45C153.34 53.19 153.223 53.0033 152.99 52.89C152.763 52.77 152.4 52.71 151.9 52.71C151.547 52.71 151.197 52.74 150.85 52.8C150.503 52.8533 150.14 52.9433 149.76 53.07L149.5 51.98C149.88 51.86 150.293 51.7667 150.74 51.7C151.187 51.6333 151.63 51.6 152.07 51.6C153.79 51.6 154.65 52.1567 154.65 53.27C154.65 53.5233 154.607 53.7567 154.52 53.97C154.44 54.1767 154.307 54.38 154.12 54.58C153.933 54.78 153.687 54.9867 153.38 55.2C153.18 55.34 153.02 55.4967 152.9 55.67C152.78 55.8433 152.697 56.0267 152.65 56.22C152.603 56.4133 152.573 56.61 152.56 56.81H151.32ZM151.23 59V57.64H152.65V59H151.23Z" fill="white"/>
<circle cx="170" cy="55" r="8" fill="#128FCD" fill-opacity="0.2"/>
<circle cx="170" cy="55" r="7.5" stroke="#48BCCB" stroke-opacity="0.4"/>
<path d="M169.32 56.81C169.32 56.53 169.35 56.2667 169.41 56.02C169.47 55.7733 169.58 55.5367 169.74 55.31C169.9 55.0767 170.123 54.86 170.41 54.66C170.637 54.5 170.82 54.3533 170.96 54.22C171.1 54.0867 171.197 53.9567 171.25 53.83C171.31 53.7033 171.34 53.5767 171.34 53.45C171.34 53.19 171.223 53.0033 170.99 52.89C170.763 52.77 170.4 52.71 169.9 52.71C169.547 52.71 169.197 52.74 168.85 52.8C168.503 52.8533 168.14 52.9433 167.76 53.07L167.5 51.98C167.88 51.86 168.293 51.7667 168.74 51.7C169.187 51.6333 169.63 51.6 170.07 51.6C171.79 51.6 172.65 52.1567 172.65 53.27C172.65 53.5233 172.607 53.7567 172.52 53.97C172.44 54.1767 172.307 54.38 172.12 54.58C171.933 54.78 171.687 54.9867 171.38 55.2C171.18 55.34 171.02 55.4967 170.9 55.67C170.78 55.8433 170.697 56.0267 170.65 56.22C170.603 56.4133 170.573 56.61 170.56 56.81H169.32ZM169.23 59V57.64H170.65V59H169.23Z" fill="white"/>
<path d="M35.488 13.04L35.024 11.52C36.0907 11.3067 36.9493 11.024 37.6 10.672C38.2613 10.32 38.7413 9.89867 39.04 9.408C39.3493 8.91733 39.504 8.35733 39.504 7.728H37.12V9.84H35.248V6.192H41.024V4.624H42.976V6.192H48.752V9.04H46.88V7.728H44.512V10.272C44.512 10.5173 44.5333 10.6667 44.576 10.72C44.6293 10.7627 44.8 10.7947 45.088 10.816C45.184 10.8267 45.2747 10.832 45.36 10.832C45.456 10.832 45.5467 10.832 45.632 10.832C45.728 10.832 45.8187 10.832 45.904 10.832C46 10.832 46.096 10.8267 46.192 10.816C46.48 10.8053 46.6827 10.7787 46.8 10.736C46.928 10.6933 47.008 10.592 47.04 10.432C47.0827 10.2613 47.1147 9.98933 47.136 9.616L48.96 9.824C48.9173 10.4 48.864 10.848 48.8 11.168C48.736 11.488 48.6187 11.728 48.448 11.888C48.2773 12.0373 48.016 12.1333 47.664 12.176C47.3227 12.2187 46.848 12.2507 46.24 12.272C46.112 12.272 45.9787 12.272 45.84 12.272C45.712 12.272 45.5787 12.272 45.44 12.272C45.312 12.272 45.1787 12.272 45.04 12.272C44.912 12.272 44.7787 12.272 44.64 12.272C44.192 12.2613 43.8347 12.24 43.568 12.208C43.3013 12.1653 43.0987 12.1013 42.96 12.016C42.8213 11.92 42.7307 11.7973 42.688 11.648C42.6453 11.488 42.624 11.2853 42.624 11.04V7.728H41.392C41.3387 9.06133 40.8267 10.176 39.856 11.072C38.8853 11.968 37.4293 12.624 35.488 13.04ZM35.168 19.008V17.424H41.024V14.656H36.64V13.104H47.376V14.656H42.976V17.424H48.832V19.008H35.168ZM63.68 19.408C63.424 19.408 63.136 19.3547 62.816 19.248C62.5067 19.152 62.1867 18.9707 61.856 18.704C61.536 18.448 61.2267 18.08 60.928 17.6C60.64 17.12 60.384 16.512 60.16 15.776C59.9467 15.04 59.7867 14.1333 59.68 13.056H58.336V19.28H56.464V13.056H50.608V11.52H56.464V7.456H58.336V11.52H61.408C61.408 12.672 61.4933 13.6373 61.664 14.416C61.8453 15.1947 62.0587 15.8187 62.304 16.288C62.5493 16.7467 62.784 17.0773 63.008 17.28C63.2427 17.4827 63.4133 17.584 63.52 17.584C63.6267 17.584 63.728 17.488 63.824 17.296C63.9307 17.0933 64.0267 16.736 64.112 16.224L65.6 16.768C65.4507 17.6533 65.1947 18.3147 64.832 18.752C64.48 19.1893 64.096 19.408 63.68 19.408ZM51.808 19.44L50.608 17.92C51.024 17.6107 51.376 17.2693 51.664 16.896C51.9627 16.5227 52.2027 16.0693 52.384 15.536C52.5653 14.992 52.6987 14.3093 52.784 13.488C52.8693 12.6667 52.912 11.6533 52.912 10.448V8.576H54.72V10.256C54.72 11.632 54.672 12.8053 54.576 13.776C54.48 14.736 54.32 15.5573 54.096 16.24C53.8827 16.9227 53.5893 17.5147 53.216 18.016C52.8427 18.5173 52.3733 18.992 51.808 19.44ZM51.296 10.304L50.768 8.768C51.7707 8.544 52.6667 8.26667 53.456 7.936C54.2453 7.59467 54.9493 7.216 55.568 6.8L56.432 8.096C55.8347 8.59733 55.104 9.03467 54.24 9.408C53.376 9.78133 52.3947 10.08 51.296 10.304ZM64.832 16.816C64.4373 16.6027 63.9787 16.3893 63.456 16.176C62.9333 15.9627 62.3893 15.7547 61.824 15.552L62.4 14.128C62.9547 14.32 63.4987 14.528 64.032 14.752C64.576 14.976 65.056 15.1947 65.472 15.408L64.832 16.816ZM63.52 12.48C63.296 12.48 63.024 12.4267 62.704 12.32C62.3947 12.2133 62.0693 12.0373 61.728 11.792C61.3867 11.5467 61.0613 11.216 60.752 10.8C60.4427 10.3733 60.1707 9.85067 59.936 9.232C59.7013 8.60267 59.5307 7.85067 59.424 6.976H51.216V5.392H61.12C61.12 6.36267 61.216 7.18933 61.408 7.872C61.6 8.544 61.8293 9.088 62.096 9.504C62.3733 9.92 62.6293 10.224 62.864 10.416C63.1093 10.608 63.2853 10.704 63.392 10.704C63.488 10.704 63.5787 10.6347 63.664 10.496C63.7493 10.3573 63.8293 10.0853 63.904 9.68L65.408 10.208C65.2693 10.976 65.024 11.5467 64.672 11.92C64.32 12.2933 63.936 12.48 63.52 12.48ZM62.544 14.752L61.712 13.408C62.16 13.2053 62.5867 12.9867 62.992 12.752C63.3973 12.5173 63.7867 12.2667 64.16 12L65.072 13.248C64.6987 13.5467 64.2987 13.824 63.872 14.08C63.4453 14.3253 63.0027 14.5493 62.544 14.752ZM64.624 10.208C64.2293 9.984 63.7653 9.76 63.232 9.536C62.6987 9.30133 62.1547 9.08267 61.6 8.88L62.24 7.488C62.7947 7.69067 63.3387 7.90933 63.872 8.144C64.416 8.37867 64.896 8.60267 65.312 8.816L64.624 10.208ZM62.288 8.096L61.36 6.784C61.872 6.54933 62.3627 6.29333 62.832 6.016C63.312 5.728 63.76 5.424 64.176 5.104L65.12 6.304C64.704 6.656 64.256 6.98133 63.776 7.28C63.3067 7.57867 62.8107 7.85067 62.288 8.096ZM73.232 18.992C72.6133 18.992 71.9627 18.9067 71.28 18.736C70.608 18.576 70.032 18.3627 69.552 18.096L70.16 16.496C70.6187 16.7627 71.0933 16.96 71.584 17.088C72.0747 17.216 72.544 17.2747 72.992 17.264C73.4293 17.2533 73.808 17.1893 74.128 17.072C74.4587 16.944 74.7147 16.7733 74.896 16.56C75.088 16.336 75.184 16.08 75.184 15.792C75.184 15.536 75.12 15.296 74.992 15.072C74.864 14.8373 74.688 14.6027 74.464 14.368C74.24 14.1227 73.9787 13.872 73.68 13.616C73.3173 13.2747 73.0027 12.96 72.736 12.672C72.4693 12.3733 72.2667 12.0747 72.128 11.776C71.9893 11.4773 71.92 11.1627 71.92 10.832C71.92 10.3947 72.0373 9.97333 72.272 9.568C72.5173 9.152 72.8747 8.752 73.344 8.368C73.8133 7.97333 74.4 7.6 75.104 7.248L75.424 7.776H68.64V6.144H77.968V7.856C77.1147 8.08 76.3947 8.336 75.808 8.624C75.2213 8.912 74.7733 9.22667 74.464 9.568C74.1653 9.90933 74.016 10.2667 74.016 10.64C74.016 10.8747 74.0747 11.104 74.192 11.328C74.32 11.552 74.4907 11.7867 74.704 12.032C74.9173 12.2773 75.1733 12.544 75.472 12.832C75.8453 13.2267 76.1653 13.5893 76.432 13.92C76.6987 14.24 76.9013 14.5547 77.04 14.864C77.1893 15.1733 77.264 15.5093 77.264 15.872C77.264 16.48 77.0933 17.024 76.752 17.504C76.4107 17.9733 75.936 18.336 75.328 18.592C74.7307 18.8587 74.032 18.992 73.232 18.992ZM66.256 16.576C66.544 16.032 66.8213 15.4507 67.088 14.832C67.3653 14.2027 67.616 13.5733 67.84 12.944C68.0747 12.3147 68.2667 11.7227 68.416 11.168L70.192 11.632C70.0427 12.2293 69.8507 12.8533 69.616 13.504C69.3813 14.144 69.12 14.7893 68.832 15.44C68.5547 16.0907 68.256 16.7147 67.936 17.312L66.256 16.576ZM79.888 17.168C79.7067 16.56 79.4827 15.9413 79.216 15.312C78.96 14.6827 78.6827 14.064 78.384 13.456C78.0853 12.8373 77.776 12.2613 77.456 11.728L79.12 10.96C79.44 11.4933 79.7493 12.08 80.048 12.72C80.3573 13.3493 80.6453 13.9947 80.912 14.656C81.1787 15.3173 81.4187 15.9733 81.632 16.624L79.888 17.168ZM78.24 9.152C77.9733 8.576 77.7067 8.05333 77.44 7.584C77.1733 7.11467 76.8747 6.656 76.544 6.208L77.888 5.44C78.2293 5.90933 78.5333 6.38933 78.8 6.88C79.0773 7.37067 79.3493 7.904 79.616 8.48L78.24 9.152ZM80.544 8.304C80.2987 7.71733 80.0427 7.18933 79.776 6.72C79.52 6.24 79.232 5.78133 78.912 5.344L80.24 4.608C80.5813 5.09867 80.8853 5.58933 81.152 6.08C81.4187 6.57067 81.6747 7.104 81.92 7.68L80.544 8.304ZM89.024 19.472V12.176H86.736V13.472H96.592V14.88H83.408V13.472H84.944V12.176H82.768V10.608H84.944V9.408H83.248V7.984H96.752V9.408H95.056V13.472H93.264V9.408H86.736V10.608H89.024V6.512H90.976V10.608H97.232V12.176H90.976V19.472H89.024ZM83.232 19.248L82.464 17.648C83.9467 17.104 85.232 16.5227 86.32 15.904C87.4187 15.2853 88.3253 14.64 89.04 13.968L90 15.024C89.264 15.7813 88.3307 16.5173 87.2 17.232C86.08 17.9467 84.7573 18.6187 83.232 19.248ZM96.768 19.248C95.2533 18.6187 93.9307 17.9467 92.8 17.232C91.6693 16.5173 90.736 15.7813 90 15.024L90.96 13.968C91.6853 14.64 92.592 15.2853 93.68 15.904C94.7787 16.5227 96.064 17.104 97.536 17.648L96.768 19.248ZM84.032 7.232V5.76C85.152 5.76 86.2613 5.744 87.36 5.712C88.4587 5.66933 89.5253 5.616 90.56 5.552C91.5947 5.488 92.5653 5.408 93.472 5.312C94.3893 5.216 95.216 5.10933 95.952 4.992L96.176 6.512C95.1733 6.66133 94.032 6.78933 92.752 6.896C91.472 7.00267 90.0907 7.088 88.608 7.152C87.1253 7.20533 85.6 7.232 84.032 7.232ZM101.408 17.04C103.467 17.04 105.125 16.864 106.384 16.512C107.653 16.16 108.571 15.5893 109.136 14.8C109.712 14 110 12.9707 110 11.712C110 10.432 109.728 9.47733 109.184 8.848C108.651 8.208 107.829 7.888 106.72 7.888C106.101 7.888 105.52 7.98933 104.976 8.192C104.443 8.39467 103.973 8.68267 103.568 9.056C103.163 9.42933 102.837 9.872 102.592 10.384C102.357 10.896 102.24 11.4613 102.24 12.08V14.176H100.384V5.76H102.24V9.168H101.52C101.904 8.50667 102.357 7.94667 102.88 7.488C103.413 7.02933 104.016 6.68267 104.688 6.448C105.371 6.20267 106.112 6.08 106.912 6.08C108.544 6.08 109.792 6.56533 110.656 7.536C111.531 8.496 111.968 9.888 111.968 11.712C111.968 13.3547 111.595 14.6987 110.848 15.744C110.112 16.7893 108.976 17.5573 107.44 18.048C105.904 18.5493 103.925 18.8 101.504 18.8L101.408 17.04ZM123.872 18.752C122.923 18.752 122.128 18.688 121.488 18.56C120.848 18.4427 120.347 18.24 119.984 17.952C119.621 17.6533 119.36 17.2533 119.2 16.752C119.051 16.24 118.976 15.5947 118.976 14.816C118.976 14.5707 118.981 14.1973 118.992 13.696C119.003 13.184 119.019 12.5867 119.04 11.904C119.061 11.2213 119.083 10.496 119.104 9.728C119.136 8.94933 119.168 8.16533 119.2 7.376C119.232 6.58667 119.264 5.82933 119.296 5.104L121.2 5.152C121.168 5.792 121.136 6.48 121.104 7.216C121.072 7.952 121.04 8.688 121.008 9.424C120.987 10.16 120.965 10.8587 120.944 11.52C120.923 12.1813 120.907 12.7733 120.896 13.296C120.885 13.808 120.88 14.208 120.88 14.496C120.88 15.04 120.917 15.4773 120.992 15.808C121.067 16.1387 121.211 16.3947 121.424 16.576C121.637 16.7573 121.941 16.88 122.336 16.944C122.741 17.008 123.253 17.04 123.872 17.04C124.715 17.04 125.376 16.9867 125.856 16.88C126.347 16.7627 126.688 16.576 126.88 16.32C127.083 16.0533 127.184 15.696 127.184 15.248C127.184 15.056 127.163 14.8267 127.12 14.56C127.077 14.2933 127.029 14.0693 126.976 13.888L128.832 13.488C128.928 13.872 128.992 14.2027 129.024 14.48C129.067 14.7573 129.088 15.0347 129.088 15.312C129.088 16.112 128.907 16.768 128.544 17.28C128.181 17.792 127.616 18.1653 126.848 18.4C126.08 18.6347 125.088 18.752 123.872 18.752ZM115.008 12.832V11.216H127.696V12.832H115.008ZM115.328 8.656V7.04H127.376V8.656H115.328ZM139.36 16.832C139.925 16.768 140.443 16.608 140.912 16.352C141.392 16.0853 141.803 15.7493 142.144 15.344C142.496 14.928 142.768 14.4533 142.96 13.92C143.152 13.3867 143.248 12.8107 143.248 12.192C143.248 11.3173 143.045 10.5547 142.64 9.904C142.235 9.24267 141.669 8.736 140.944 8.384C140.229 8.032 139.397 7.856 138.448 7.856C137.637 7.856 136.885 7.98933 136.192 8.256C135.499 8.52267 134.885 8.896 134.352 9.376C133.829 9.84533 133.419 10.4 133.12 11.04C132.821 11.6693 132.672 12.3467 132.672 13.072C132.672 13.5947 132.757 14.096 132.928 14.576C133.099 15.056 133.312 15.4507 133.568 15.76C133.835 16.0587 134.112 16.208 134.4 16.208C134.816 16.208 135.216 15.8293 135.6 15.072C135.984 14.3147 136.331 13.2267 136.64 11.808C136.96 10.3787 137.227 8.66667 137.44 6.672L139.296 6.864C139.061 8.848 138.795 10.5493 138.496 11.968C138.197 13.3867 137.856 14.5493 137.472 15.456C137.088 16.3627 136.651 17.0347 136.16 17.472C135.669 17.8987 135.115 18.112 134.496 18.112C133.984 18.112 133.509 17.984 133.072 17.728C132.635 17.472 132.256 17.1147 131.936 16.656C131.616 16.1973 131.365 15.664 131.184 15.056C131.003 14.4373 130.912 13.776 130.912 13.072C130.912 12.0693 131.099 11.1467 131.472 10.304C131.845 9.45067 132.368 8.71467 133.04 8.096C133.712 7.47733 134.507 6.99733 135.424 6.656C136.352 6.304 137.365 6.128 138.464 6.128C139.755 6.128 140.896 6.37333 141.888 6.864C142.891 7.35467 143.675 8.05333 144.24 8.96C144.805 9.86667 145.088 10.944 145.088 12.192C145.088 13.0347 144.96 13.8187 144.704 14.544C144.459 15.2693 144.107 15.9147 143.648 16.48C143.189 17.0347 142.64 17.488 142 17.84C141.36 18.192 140.651 18.416 139.872 18.512L139.36 16.832Z" fill="white"/>
<defs>
<filter id="filter0_d_122_2195" x="57" y="61" width="66" height="66" filterUnits="userSpaceOnUse" color-interpolation-filters="sRGB">
<feFlood flood-opacity="0" result="BackgroundImageFix"/>
<feColorMatrix in="SourceAlpha" type="matrix" values="0 0 0 0 0 0 0 0 0 0 0 0 0 0 0 0 0 0 127 0" result="hardAlpha"/>
<feOffset/>
<feGaussianBlur stdDeviation="3"/>
<feComposite in2="hardAlpha" operator="out"/>
<feColorMatrix type="matrix" values="0 0 0 0 0.282353 0 0 0 0 0.737255 0 0 0 0 0.796078 0 0 0 0.25 0"/>
<feBlend mode="normal" in2="BackgroundImageFix" result="effect1_dropShadow_122_2195"/>
<feBlend mode="normal" in="SourceGraphic" in2="effect1_dropShadow_122_2195" result="shape"/>
</filter>
<filter id="filter1_d_122_2195" x="120" y="61" width="66" height="66" filterUnits="userSpaceOnUse" color-interpolation-filters="sRGB">
<feFlood flood-opacity="0" result="BackgroundImageFix"/>
<feColorMatrix in="SourceAlpha" type="matrix" values="0 0 0 0 0 0 0 0 0 0 0 0 0 0 0 0 0 0 127 0" result="hardAlpha"/>
<feOffset/>
<feGaussianBlur stdDeviation="3"/>
<feComposite in2="hardAlpha" operator="out"/>
<feColorMatrix type="matrix" values="0 0 0 0 0.282353 0 0 0 0 0.737255 0 0 0 0 0.796078 0 0 0 0.25 0"/>
<feBlend mode="normal" in2="BackgroundImageFix" result="effect1_dropShadow_122_2195"/>
<feBlend mode="normal" in="SourceGraphic" in2="effect1_dropShadow_122_2195" result="shape"/>
</filter>
</defs>
</svg>
