<svg width="230" height="127" viewBox="0 0 230 127" fill="none" xmlns="http://www.w3.org/2000/svg">
<circle cx="178" cy="95" r="27" fill="#128FCD" fill-opacity="0.2"/>
<circle cx="178" cy="95" r="26" stroke="#48BCCB" stroke-opacity="0.4" stroke-width="2"/>
<path d="M175.552 101.116C175.552 100.108 175.66 99.16 175.876 98.272C176.092 97.384 176.488 96.532 177.064 95.716C177.64 94.876 178.444 94.096 179.476 93.376C180.292 92.8 180.952 92.272 181.456 91.792C181.96 91.312 182.308 90.844 182.5 90.388C182.716 89.932 182.824 89.476 182.824 89.02C182.824 88.084 182.404 87.412 181.564 87.004C180.748 86.572 179.44 86.356 177.64 86.356C176.368 86.356 175.108 86.464 173.86 86.68C172.612 86.872 171.304 87.196 169.936 87.652L169 83.728C170.368 83.296 171.856 82.96 173.464 82.72C175.072 82.48 176.668 82.36 178.252 82.36C184.444 82.36 187.54 84.364 187.54 88.372C187.54 89.284 187.384 90.124 187.072 90.892C186.784 91.636 186.304 92.368 185.632 93.088C184.96 93.808 184.072 94.552 182.968 95.32C182.248 95.824 181.672 96.388 181.24 97.012C180.808 97.636 180.508 98.296 180.34 98.992C180.172 99.688 180.064 100.396 180.016 101.116H175.552ZM175.228 109V104.104H180.34V109H175.228Z" fill="white"/>
<g filter="url(#filter0_d_122_2042)">
<rect x="88" y="67" width="54" height="54" fill="#128FCD" fill-opacity="0.2" shape-rendering="crispEdges"/>
<rect x="89" y="68" width="52" height="52" stroke="#48BCCB" stroke-opacity="0.5" stroke-width="2" shape-rendering="crispEdges"/>
</g>
<circle cx="106" cy="55" r="8" fill="#128FCD" fill-opacity="0.2"/>
<circle cx="106" cy="55" r="7.5" stroke="#48BCCB" stroke-opacity="0.4"/>
<path d="M105.32 56.81C105.32 56.53 105.35 56.2667 105.41 56.02C105.47 55.7733 105.58 55.5367 105.74 55.31C105.9 55.0767 106.123 54.86 106.41 54.66C106.637 54.5 106.82 54.3533 106.96 54.22C107.1 54.0867 107.197 53.9567 107.25 53.83C107.31 53.7033 107.34 53.5767 107.34 53.45C107.34 53.19 107.223 53.0033 106.99 52.89C106.763 52.77 106.4 52.71 105.9 52.71C105.547 52.71 105.197 52.74 104.85 52.8C104.503 52.8533 104.14 52.9433 103.76 53.07L103.5 51.98C103.88 51.86 104.293 51.7667 104.74 51.7C105.187 51.6333 105.63 51.6 106.07 51.6C107.79 51.6 108.65 52.1567 108.65 53.27C108.65 53.5233 108.607 53.7567 108.52 53.97C108.44 54.1767 108.307 54.38 108.12 54.58C107.933 54.78 107.687 54.9867 107.38 55.2C107.18 55.34 107.02 55.4967 106.9 55.67C106.78 55.8433 106.697 56.0267 106.65 56.22C106.603 56.4133 106.573 56.61 106.56 56.81H105.32ZM105.23 59V57.64H106.65V59H105.23Z" fill="white"/>
<circle cx="124" cy="55" r="8" fill="#128FCD" fill-opacity="0.2"/>
<circle cx="124" cy="55" r="7.5" stroke="#48BCCB" stroke-opacity="0.4"/>
<path d="M122.21 59.29C121.87 59.29 121.557 59.1867 121.27 58.98C120.983 58.7667 120.733 58.47 120.52 58.09C120.307 57.71 120.14 57.2633 120.02 56.75C119.907 56.23 119.85 55.67 119.85 55.07C119.85 54.5833 119.89 54.07 119.97 53.53C120.057 52.9833 120.187 52.41 120.36 51.81L121.53 51.95C121.377 52.5033 121.26 53.03 121.18 53.53C121.1 54.03 121.06 54.5 121.06 54.94C121.06 55.36 121.093 55.7567 121.16 56.13C121.227 56.5033 121.317 56.83 121.43 57.11C121.55 57.39 121.683 57.61 121.83 57.77C121.983 57.93 122.143 58.01 122.31 58.01C122.47 58.01 122.643 57.9433 122.83 57.81C123.023 57.67 123.22 57.4833 123.42 57.25C123.62 57.0167 123.807 56.75 123.98 56.45C124.16 56.15 124.31 55.8367 124.43 55.51L125.5 56.05C125.333 56.5033 125.127 56.9267 124.88 57.32C124.633 57.7133 124.36 58.06 124.06 58.36C123.767 58.6533 123.46 58.88 123.14 59.04C122.82 59.2067 122.51 59.29 122.21 59.29ZM127.23 58.32C127.23 57.56 127.177 56.8033 127.07 56.05C126.97 55.2967 126.82 54.5733 126.62 53.88C126.427 53.1867 126.193 52.55 125.92 51.97L127.03 51.64C127.337 52.2467 127.59 52.91 127.79 53.63C127.997 54.3433 128.153 55.0967 128.26 55.89C128.373 56.6767 128.43 57.4867 128.43 58.32H127.23Z" fill="white"/>
<g filter="url(#filter1_d_122_2042)">
<rect x="25" y="67" width="54" height="54" fill="#128FCD" fill-opacity="0.2" shape-rendering="crispEdges"/>
<rect x="26" y="68" width="52" height="52" stroke="#48BCCB" stroke-opacity="0.5" stroke-width="2" shape-rendering="crispEdges"/>
</g>
<circle cx="43" cy="55" r="8" fill="#128FCD" fill-opacity="0.2"/>
<circle cx="43" cy="55" r="7.5" stroke="#48BCCB" stroke-opacity="0.4"/>
<path d="M42.32 56.81C42.32 56.53 42.35 56.2667 42.41 56.02C42.47 55.7733 42.58 55.5367 42.74 55.31C42.9 55.0767 43.1233 54.86 43.41 54.66C43.6367 54.5 43.82 54.3533 43.96 54.22C44.1 54.0867 44.1967 53.9567 44.25 53.83C44.31 53.7033 44.34 53.5767 44.34 53.45C44.34 53.19 44.2233 53.0033 43.99 52.89C43.7633 52.77 43.4 52.71 42.9 52.71C42.5467 52.71 42.1967 52.74 41.85 52.8C41.5033 52.8533 41.14 52.9433 40.76 53.07L40.5 51.98C40.88 51.86 41.2933 51.7667 41.74 51.7C42.1867 51.6333 42.63 51.6 43.07 51.6C44.79 51.6 45.65 52.1567 45.65 53.27C45.65 53.5233 45.6067 53.7567 45.52 53.97C45.44 54.1767 45.3067 54.38 45.12 54.58C44.9333 54.78 44.6867 54.9867 44.38 55.2C44.18 55.34 44.02 55.4967 43.9 55.67C43.78 55.8433 43.6967 56.0267 43.65 56.22C43.6033 56.4133 43.5733 56.61 43.56 56.81H42.32ZM42.23 59V57.64H43.65V59H42.23Z" fill="white"/>
<circle cx="61" cy="55" r="8" fill="#128FCD" fill-opacity="0.2"/>
<circle cx="61" cy="55" r="7.5" stroke="#48BCCB" stroke-opacity="0.4"/>
<path d="M60.32 56.81C60.32 56.53 60.35 56.2667 60.41 56.02C60.47 55.7733 60.58 55.5367 60.74 55.31C60.9 55.0767 61.1233 54.86 61.41 54.66C61.6367 54.5 61.82 54.3533 61.96 54.22C62.1 54.0867 62.1967 53.9567 62.25 53.83C62.31 53.7033 62.34 53.5767 62.34 53.45C62.34 53.19 62.2233 53.0033 61.99 52.89C61.7633 52.77 61.4 52.71 60.9 52.71C60.5467 52.71 60.1967 52.74 59.85 52.8C59.5033 52.8533 59.14 52.9433 58.76 53.07L58.5 51.98C58.88 51.86 59.2933 51.7667 59.74 51.7C60.1867 51.6333 60.63 51.6 61.07 51.6C62.79 51.6 63.65 52.1567 63.65 53.27C63.65 53.5233 63.6067 53.7567 63.52 53.97C63.44 54.1767 63.3067 54.38 63.12 54.58C62.9333 54.78 62.6867 54.9867 62.38 55.2C62.18 55.34 62.02 55.4967 61.9 55.67C61.78 55.8433 61.6967 56.0267 61.65 56.22C61.6033 56.4133 61.5733 56.61 61.56 56.81H60.32ZM60.23 59V57.64H61.65V59H60.23Z" fill="white"/>
<path d="M4.22656 5.68L2.93056 10.48H0.642563L2.48256 5.68H4.22656ZM7.74656 5.68L6.45056 10.48H4.16256L6.01856 5.68H7.74656ZM16.8137 18V6.32H18.8137V18H16.8137ZM9.72569 18V6.32H11.7257V18H9.72569ZM10.7177 12.8V11.008H17.8217V12.8H10.7177ZM24.9172 18.16C23.5732 18.16 22.5332 17.7867 21.7972 17.04C21.0719 16.2827 20.7092 15.216 20.7092 13.84C20.7092 12.464 21.0719 11.4027 21.7972 10.656C22.5332 9.89867 23.5732 9.52 24.9172 9.52C26.2612 9.52 27.3012 9.89867 28.0372 10.656C28.7732 11.4027 29.1412 12.464 29.1412 13.84C29.1412 15.216 28.7732 16.2827 28.0372 17.04C27.3012 17.7867 26.2612 18.16 24.9172 18.16ZM24.9172 16.592C25.6532 16.592 26.2132 16.3627 26.5972 15.904C26.9812 15.4347 27.1732 14.7467 27.1732 13.84C27.1732 12.9333 26.9812 12.2507 26.5972 11.792C26.2132 11.3227 25.6532 11.088 24.9172 11.088C24.1919 11.088 23.6319 11.3227 23.2372 11.792C22.8532 12.2507 22.6612 12.9333 22.6612 13.84C22.6612 14.7467 22.8532 15.4347 23.2372 15.904C23.6319 16.3627 24.1919 16.592 24.9172 16.592ZM32.1604 18L29.9684 9.68L32.0644 9.68L33.3444 16.144H33.3764L34.6884 9.68H37.2484L38.5604 16.144H38.5924L39.8884 9.68H41.9684L39.7764 18H37.2964L35.9844 11.664H35.9524L34.6404 18H32.1604ZM49.8786 18.16C49.0466 18.16 48.3906 17.936 47.9106 17.488C47.4412 17.0293 47.2066 16.4107 47.2066 15.632C47.2066 14.6613 47.5852 13.9147 48.3426 13.392C49.0999 12.8693 50.1772 12.608 51.5746 12.608H52.7426C52.7426 12.2027 52.6892 11.8933 52.5826 11.68C52.4866 11.456 52.3159 11.3013 52.0706 11.216C51.8359 11.1307 51.4999 11.088 51.0626 11.088C50.5292 11.088 49.9746 11.1413 49.3986 11.248C48.8332 11.3547 48.2999 11.5147 47.7986 11.728L47.5426 10.176C48.0866 9.97333 48.6892 9.81333 49.3506 9.696C50.0119 9.57867 50.6732 9.52 51.3346 9.52C52.1772 9.52 52.8386 9.62133 53.3186 9.824C53.8092 10.0267 54.1612 10.368 54.3746 10.848C54.5879 11.328 54.6946 11.9627 54.6946 12.752V18H52.8226L52.8066 17.04H52.7746C52.4866 17.3707 52.0706 17.6427 51.5266 17.856C50.9826 18.0587 50.4332 18.16 49.8786 18.16ZM50.5826 16.624C50.9772 16.624 51.3399 16.5547 51.6706 16.416C52.0012 16.2667 52.2626 16.0693 52.4546 15.824C52.6466 15.5787 52.7426 15.3013 52.7426 14.992V13.984H51.8626C50.9452 13.984 50.2519 14.1067 49.7826 14.352C49.3239 14.5867 49.0946 14.9493 49.0946 15.44C49.0946 15.8027 49.2226 16.0907 49.4786 16.304C49.7346 16.5173 50.1026 16.624 50.5826 16.624ZM56.8008 18V9.68H58.6888L58.7048 11.248H58.7368C59.0141 10.8853 59.3395 10.576 59.7128 10.32C60.0968 10.0533 60.5181 9.856 60.9768 9.728C61.4355 9.58933 61.9155 9.52 62.4168 9.52V11.216C61.7448 11.216 61.1315 11.344 60.5768 11.6C60.0328 11.856 59.5955 12.2027 59.2648 12.64C58.9448 13.0667 58.7848 13.5467 58.7848 14.08V18H56.8008ZM67.3789 18.16C65.9069 18.16 64.7763 17.7867 63.9869 17.04C63.1976 16.2933 62.8029 15.2267 62.8029 13.84C62.8029 12.496 63.1656 11.44 63.8909 10.672C64.6269 9.904 65.6296 9.52 66.8989 9.52C68.1256 9.52 69.0749 9.88267 69.7469 10.608C70.4189 11.3333 70.7549 12.3627 70.7549 13.696C70.7549 13.8453 70.7496 14.0107 70.7389 14.192C70.7283 14.3733 70.7176 14.5067 70.7069 14.592H63.8909V13.168H69.2029L68.9149 13.6C68.9149 12.7253 68.7443 12.08 68.4029 11.664C68.0723 11.2373 67.5709 11.024 66.8989 11.024C66.1843 11.024 65.6403 11.248 65.2669 11.696C64.9043 12.1333 64.7229 12.784 64.7229 13.648V14.208C64.7229 15.0187 64.9363 15.6213 65.3629 16.016C65.7896 16.4 66.4349 16.592 67.2989 16.592C67.7469 16.592 68.2269 16.5493 68.7389 16.464C69.2509 16.368 69.7043 16.2453 70.0989 16.096L70.3389 17.632C69.9336 17.792 69.4696 17.92 68.9469 18.016C68.4243 18.112 67.9016 18.16 67.3789 18.16ZM77.7738 21.36L79.1818 17.936L75.8698 9.696L77.9658 9.68L80.1418 15.984H80.1738L82.3978 9.68H84.5098L79.8218 21.36H77.7738ZM89.2922 18.16C87.9482 18.16 86.9082 17.7867 86.1722 17.04C85.4469 16.2827 85.0842 15.216 85.0842 13.84C85.0842 12.464 85.4469 11.4027 86.1722 10.656C86.9082 9.89867 87.9482 9.52 89.2922 9.52C90.6362 9.52 91.6762 9.89867 92.4122 10.656C93.1482 11.4027 93.5162 12.464 93.5162 13.84C93.5162 15.216 93.1482 16.2827 92.4122 17.04C91.6762 17.7867 90.6362 18.16 89.2922 18.16ZM89.2922 16.592C90.0282 16.592 90.5882 16.3627 90.9722 15.904C91.3562 15.4347 91.5482 14.7467 91.5482 13.84C91.5482 12.9333 91.3562 12.2507 90.9722 11.792C90.5882 11.3227 90.0282 11.088 89.2922 11.088C88.5669 11.088 88.0069 11.3227 87.6122 11.792C87.2282 12.2507 87.0362 12.9333 87.0362 13.84C87.0362 14.7467 87.2282 15.4347 87.6122 15.904C88.0069 16.3627 88.5669 16.592 89.2922 16.592ZM97.8474 18.16C96.8554 18.16 96.1248 17.888 95.6554 17.344C95.1968 16.8 94.9674 15.952 94.9674 14.8V9.68L96.9354 9.68V14.432C96.9354 15.1573 97.0528 15.6907 97.2874 16.032C97.5328 16.3733 97.9221 16.544 98.4554 16.544C98.8608 16.544 99.2181 16.4587 99.5274 16.288C99.8368 16.1173 100.077 15.888 100.247 15.6C100.429 15.312 100.519 14.9813 100.519 14.608V9.68H102.487V18H100.615L100.599 17.024H100.567C100.237 17.3973 99.8474 17.68 99.3994 17.872C98.9621 18.064 98.4448 18.16 97.8474 18.16ZM106.355 14.496C106.355 14.048 106.403 13.6267 106.499 13.232C106.595 12.8373 106.771 12.4587 107.027 12.096C107.283 11.7227 107.64 11.376 108.099 11.056C108.461 10.8 108.755 10.5653 108.979 10.352C109.203 10.1387 109.357 9.93067 109.443 9.728C109.539 9.52533 109.587 9.32267 109.587 9.12C109.587 8.704 109.4 8.40533 109.027 8.224C108.664 8.032 108.083 7.936 107.283 7.936C106.717 7.936 106.157 7.984 105.603 8.08C105.048 8.16533 104.467 8.30933 103.859 8.512L103.443 6.768C104.051 6.576 104.712 6.42667 105.427 6.32C106.141 6.21333 106.851 6.16 107.555 6.16C110.307 6.16 111.683 7.05067 111.683 8.832C111.683 9.23733 111.613 9.61067 111.475 9.952C111.347 10.2827 111.133 10.608 110.835 10.928C110.536 11.248 110.141 11.5787 109.651 11.92C109.331 12.144 109.075 12.3947 108.883 12.672C108.691 12.9493 108.557 13.2427 108.483 13.552C108.408 13.8613 108.36 14.176 108.339 14.496H106.355ZM106.211 18V15.824H108.483V18H106.211ZM112.868 10.48L114.164 5.68H116.452L114.596 10.48H112.868ZM116.404 10.48L117.7 5.68H119.988L118.132 10.48H116.404ZM125.732 14.256V12.464H130.804V14.256H125.732ZM140.148 5.68L138.852 10.48H136.564L138.404 5.68H140.148ZM143.668 5.68L142.372 10.48H140.084L141.94 5.68H143.668ZM145.776 18V6.32H147.856V18H145.776ZM149.961 10.48L151.257 5.68H153.545L151.689 10.48H149.961ZM154.832 18V9.68H156.656L156.688 10.656H156.72C157.019 10.2933 157.376 10.016 157.792 9.824C158.208 9.62133 158.693 9.52 159.248 9.52C159.792 9.52 160.251 9.62133 160.624 9.824C161.008 10.016 161.28 10.2933 161.44 10.656H161.472C161.792 10.2613 162.16 9.97333 162.576 9.792C162.992 9.61067 163.483 9.52 164.048 9.52C164.944 9.52 165.595 9.76 166 10.24C166.405 10.7093 166.608 11.4507 166.608 12.464V18H164.704V12.944C164.704 12.3147 164.603 11.856 164.4 11.568C164.197 11.28 163.872 11.136 163.424 11.136C162.891 11.136 162.469 11.312 162.16 11.664C161.851 12.016 161.696 12.4853 161.696 13.072V18H159.776V12.8C159.776 12.256 159.664 11.8453 159.44 11.568C159.216 11.28 158.896 11.136 158.48 11.136C158.16 11.136 157.867 11.2213 157.6 11.392C157.344 11.5627 157.136 11.792 156.976 12.08C156.827 12.368 156.752 12.6987 156.752 13.072V18H154.832ZM176.376 21.52C175.715 21.52 175.086 21.456 174.488 21.328C173.902 21.2 173.406 21.0187 173 20.784L173.256 19.248C173.64 19.472 174.094 19.6427 174.616 19.76C175.15 19.888 175.672 19.952 176.184 19.952C177.123 19.952 177.79 19.728 178.184 19.28C178.59 18.8427 178.792 18.112 178.792 17.088V16.608H178.76C178.44 16.96 178.051 17.2267 177.592 17.408C177.144 17.5893 176.648 17.68 176.104 17.68C174.995 17.68 174.131 17.3227 173.512 16.608C172.894 15.8933 172.584 14.8907 172.584 13.6C172.584 12.3093 172.894 11.3067 173.512 10.592C174.131 9.87733 174.995 9.52 176.104 9.52C176.659 9.52 177.171 9.616 177.64 9.808C178.12 9.98933 178.515 10.2507 178.824 10.592H178.856L178.872 9.68H180.728V17.088C180.728 18.592 180.376 19.7067 179.672 20.432C178.968 21.1573 177.87 21.52 176.376 21.52ZM176.616 16.08C177.043 16.08 177.416 16.0053 177.736 15.856C178.056 15.7067 178.312 15.504 178.504 15.248C178.696 14.992 178.792 14.6933 178.792 14.352V12.848C178.792 12.5173 178.696 12.224 178.504 11.968C178.312 11.7013 178.056 11.4933 177.736 11.344C177.416 11.1947 177.043 11.12 176.616 11.12C175.955 11.12 175.438 11.3387 175.064 11.776C174.691 12.2027 174.504 12.8107 174.504 13.6C174.504 14.4 174.691 15.0133 175.064 15.44C175.438 15.8667 175.955 16.08 176.616 16.08ZM186.714 18.16C185.37 18.16 184.33 17.7867 183.594 17.04C182.869 16.2827 182.506 15.216 182.506 13.84C182.506 12.464 182.869 11.4027 183.594 10.656C184.33 9.89867 185.37 9.52 186.714 9.52C188.058 9.52 189.098 9.89867 189.834 10.656C190.57 11.4027 190.938 12.464 190.938 13.84C190.938 15.216 190.57 16.2827 189.834 17.04C189.098 17.7867 188.058 18.16 186.714 18.16ZM186.714 16.592C187.45 16.592 188.01 16.3627 188.394 15.904C188.778 15.4347 188.97 14.7467 188.97 13.84C188.97 12.9333 188.778 12.2507 188.394 11.792C188.01 11.3227 187.45 11.088 186.714 11.088C185.989 11.088 185.429 11.3227 185.034 11.792C184.65 12.2507 184.458 12.9333 184.458 13.84C184.458 14.7467 184.65 15.4347 185.034 15.904C185.429 16.3627 185.989 16.592 186.714 16.592ZM196.402 18.16C195.058 18.16 194.018 17.7867 193.282 17.04C192.556 16.2827 192.194 15.216 192.194 13.84C192.194 12.464 192.556 11.4027 193.282 10.656C194.018 9.89867 195.058 9.52 196.402 9.52C197.746 9.52 198.786 9.89867 199.522 10.656C200.258 11.4027 200.626 12.464 200.626 13.84C200.626 15.216 200.258 16.2827 199.522 17.04C198.786 17.7867 197.746 18.16 196.402 18.16ZM196.402 16.592C197.138 16.592 197.698 16.3627 198.082 15.904C198.466 15.4347 198.658 14.7467 198.658 13.84C198.658 12.9333 198.466 12.2507 198.082 11.792C197.698 11.3227 197.138 11.088 196.402 11.088C195.676 11.088 195.116 11.3227 194.722 11.792C194.338 12.2507 194.146 12.9333 194.146 13.84C194.146 14.7467 194.338 15.4347 194.722 15.904C195.116 16.3627 195.676 16.592 196.402 16.592ZM205.401 18.16C204.292 18.16 203.428 17.7813 202.809 17.024C202.19 16.2667 201.881 15.2053 201.881 13.84C201.881 12.4747 202.19 11.4133 202.809 10.656C203.428 9.89867 204.292 9.52 205.401 9.52C205.956 9.52 206.457 9.616 206.905 9.808C207.353 10 207.732 10.2827 208.041 10.656H208.089V6.32H210.025V18H208.185L208.153 17.024H208.121C207.812 17.3867 207.417 17.6693 206.937 17.872C206.468 18.064 205.956 18.16 205.401 18.16ZM205.913 16.56C206.329 16.56 206.697 16.4747 207.017 16.304C207.348 16.1333 207.609 15.8987 207.801 15.6C207.993 15.3013 208.089 14.9653 208.089 14.592V13.088C208.089 12.704 207.993 12.368 207.801 12.08C207.609 11.7813 207.353 11.5467 207.033 11.376C206.713 11.2053 206.34 11.12 205.913 11.12C205.241 11.12 204.718 11.3547 204.345 11.824C203.982 12.2933 203.801 12.9653 203.801 13.84C203.801 14.7147 203.982 15.3867 204.345 15.856C204.718 16.3253 205.241 16.56 205.913 16.56ZM212.923 14.496L212.635 6.32H215.003L214.731 14.496H212.923ZM212.699 18V15.824H214.955V18H212.699ZM218.048 14.496L217.76 6.32H220.128L219.856 14.496H218.048ZM217.824 18V15.824H220.08V18H217.824ZM222.258 10.48L223.554 5.68H225.842L223.986 10.48H222.258ZM225.794 10.48L227.09 5.68H229.378L227.522 10.48H225.794Z" fill="white"/>
<defs>
<filter id="filter0_d_122_2042" x="82" y="61" width="66" height="66" filterUnits="userSpaceOnUse" color-interpolation-filters="sRGB">
<feFlood flood-opacity="0" result="BackgroundImageFix"/>
<feColorMatrix in="SourceAlpha" type="matrix" values="0 0 0 0 0 0 0 0 0 0 0 0 0 0 0 0 0 0 127 0" result="hardAlpha"/>
<feOffset/>
<feGaussianBlur stdDeviation="3"/>
<feComposite in2="hardAlpha" operator="out"/>
<feColorMatrix type="matrix" values="0 0 0 0 0.282353 0 0 0 0 0.737255 0 0 0 0 0.796078 0 0 0 0.25 0"/>
<feBlend mode="normal" in2="BackgroundImageFix" result="effect1_dropShadow_122_2042"/>
<feBlend mode="normal" in="SourceGraphic" in2="effect1_dropShadow_122_2042" result="shape"/>
</filter>
<filter id="filter1_d_122_2042" x="19" y="61" width="66" height="66" filterUnits="userSpaceOnUse" color-interpolation-filters="sRGB">
<feFlood flood-opacity="0" result="BackgroundImageFix"/>
<feColorMatrix in="SourceAlpha" type="matrix" values="0 0 0 0 0 0 0 0 0 0 0 0 0 0 0 0 0 0 127 0" result="hardAlpha"/>
<feOffset/>
<feGaussianBlur stdDeviation="3"/>
<feComposite in2="hardAlpha" operator="out"/>
<feColorMatrix type="matrix" values="0 0 0 0 0.282353 0 0 0 0 0.737255 0 0 0 0 0.796078 0 0 0 0.25 0"/>
<feBlend mode="normal" in2="BackgroundImageFix" result="effect1_dropShadow_122_2042"/>
<feBlend mode="normal" in="SourceGraphic" in2="effect1_dropShadow_122_2042" result="shape"/>
</filter>
</defs>
</svg>
