<svg width="192" height="127" viewBox="0 0 192 127" fill="none" xmlns="http://www.w3.org/2000/svg">
<g filter="url(#filter0_d_122_2121)">
<rect x="69" y="67" width="54" height="54" fill="#128FCD" fill-opacity="0.2" shape-rendering="crispEdges"/>
<rect x="70" y="68" width="52" height="52" stroke="#48BCCB" stroke-opacity="0.5" stroke-width="2" shape-rendering="crispEdges"/>
</g>
<circle cx="77" cy="55" r="8" fill="#128FCD" fill-opacity="0.2"/>
<circle cx="77" cy="55" r="7.5" stroke="#48BCCB" stroke-opacity="0.4"/>
<path d="M76.32 56.81C76.32 56.53 76.35 56.2667 76.41 56.02C76.47 55.7733 76.58 55.5367 76.74 55.31C76.9 55.0767 77.1233 54.86 77.41 54.66C77.6367 54.5 77.82 54.3533 77.96 54.22C78.1 54.0867 78.1967 53.9567 78.25 53.83C78.31 53.7033 78.34 53.5767 78.34 53.45C78.34 53.19 78.2233 53.0033 77.99 52.89C77.7633 52.77 77.4 52.71 76.9 52.71C76.5467 52.71 76.1967 52.74 75.85 52.8C75.5033 52.8533 75.14 52.9433 74.76 53.07L74.5 51.98C74.88 51.86 75.2933 51.7667 75.74 51.7C76.1867 51.6333 76.63 51.6 77.07 51.6C78.79 51.6 79.65 52.1567 79.65 53.27C79.65 53.5233 79.6067 53.7567 79.52 53.97C79.44 54.1767 79.3067 54.38 79.12 54.58C78.9333 54.78 78.6867 54.9867 78.38 55.2C78.18 55.34 78.02 55.4967 77.9 55.67C77.78 55.8433 77.6967 56.0267 77.65 56.22C77.6033 56.4133 77.5733 56.61 77.56 56.81H76.32ZM76.23 59V57.64H77.65V59H76.23Z" fill="white"/>
<circle cx="95" cy="55" r="8" fill="#128FCD" fill-opacity="0.2"/>
<circle cx="95" cy="55" r="7.5" stroke="#48BCCB" stroke-opacity="0.4"/>
<path d="M91.48 59.59L90.44 59.21L93.68 51.07L94.78 51.39L93.04 55.69L92.67 55.45C93.0033 55.1767 93.3367 54.9633 93.67 54.81C94.01 54.6567 94.34 54.58 94.66 54.58C94.9067 54.58 95.12 54.6333 95.3 54.74C95.48 54.84 95.6333 54.99 95.76 55.19C95.8867 55.3833 95.9933 55.62 96.08 55.9C96.1733 56.18 96.2567 56.5 96.33 56.86C96.39 57.14 96.45 57.3833 96.51 57.59C96.5767 57.7967 96.66 57.9567 96.76 58.07C96.8667 58.1833 97.0033 58.24 97.17 58.24C97.4633 58.24 97.7267 58.05 97.96 57.67C98.1933 57.2833 98.4133 56.6733 98.62 55.84L99.67 56.19C99.4967 56.93 99.2933 57.5367 99.06 58.01C98.8267 58.4767 98.55 58.8233 98.23 59.05C97.91 59.2833 97.54 59.4 97.12 59.4C96.8333 59.4 96.5867 59.35 96.38 59.25C96.18 59.15 96.0067 59.0033 95.86 58.81C95.7133 58.6167 95.5867 58.3833 95.48 58.11C95.38 57.83 95.2933 57.5167 95.22 57.17C95.1533 56.8767 95.08 56.6233 95 56.41C94.9267 56.1967 94.83 56.0333 94.71 55.92C94.5967 55.8067 94.4433 55.75 94.25 55.75C94.1233 55.75 93.9767 55.7767 93.81 55.83C93.6433 55.8833 93.4733 55.9733 93.3 56.1C93.1333 56.22 92.97 56.3867 92.81 56.6C92.65 56.8067 92.5067 57.0667 92.38 57.38L91.48 59.59Z" fill="white"/>
<circle cx="113" cy="55" r="8" fill="#128FCD" fill-opacity="0.2"/>
<circle cx="113" cy="55" r="7.5" stroke="#48BCCB" stroke-opacity="0.4"/>
<path d="M112.32 56.81C112.32 56.53 112.35 56.2667 112.41 56.02C112.47 55.7733 112.58 55.5367 112.74 55.31C112.9 55.0767 113.123 54.86 113.41 54.66C113.637 54.5 113.82 54.3533 113.96 54.22C114.1 54.0867 114.197 53.9567 114.25 53.83C114.31 53.7033 114.34 53.5767 114.34 53.45C114.34 53.19 114.223 53.0033 113.99 52.89C113.763 52.77 113.4 52.71 112.9 52.71C112.547 52.71 112.197 52.74 111.85 52.8C111.503 52.8533 111.14 52.9433 110.76 53.07L110.5 51.98C110.88 51.86 111.293 51.7667 111.74 51.7C112.187 51.6333 112.63 51.6 113.07 51.6C114.79 51.6 115.65 52.1567 115.65 53.27C115.65 53.5233 115.607 53.7567 115.52 53.97C115.44 54.1767 115.307 54.38 115.12 54.58C114.933 54.78 114.687 54.9867 114.38 55.2C114.18 55.34 114.02 55.4967 113.9 55.67C113.78 55.8433 113.697 56.0267 113.65 56.22C113.603 56.4133 113.573 56.61 113.56 56.81H112.32ZM112.23 59V57.64H113.65V59H112.23Z" fill="white"/>
<g filter="url(#filter1_d_122_2121)">
<rect x="132" y="67" width="54" height="54" fill="#128FCD" fill-opacity="0.2" shape-rendering="crispEdges"/>
<rect x="133" y="68" width="52" height="52" stroke="#48BCCB" stroke-opacity="0.5" stroke-width="2" shape-rendering="crispEdges"/>
</g>
<circle cx="150" cy="55" r="8" fill="#128FCD" fill-opacity="0.2"/>
<circle cx="150" cy="55" r="7.5" stroke="#48BCCB" stroke-opacity="0.4"/>
<path d="M149.32 56.81C149.32 56.53 149.35 56.2667 149.41 56.02C149.47 55.7733 149.58 55.5367 149.74 55.31C149.9 55.0767 150.123 54.86 150.41 54.66C150.637 54.5 150.82 54.3533 150.96 54.22C151.1 54.0867 151.197 53.9567 151.25 53.83C151.31 53.7033 151.34 53.5767 151.34 53.45C151.34 53.19 151.223 53.0033 150.99 52.89C150.763 52.77 150.4 52.71 149.9 52.71C149.547 52.71 149.197 52.74 148.85 52.8C148.503 52.8533 148.14 52.9433 147.76 53.07L147.5 51.98C147.88 51.86 148.293 51.7667 148.74 51.7C149.187 51.6333 149.63 51.6 150.07 51.6C151.79 51.6 152.65 52.1567 152.65 53.27C152.65 53.5233 152.607 53.7567 152.52 53.97C152.44 54.1767 152.307 54.38 152.12 54.58C151.933 54.78 151.687 54.9867 151.38 55.2C151.18 55.34 151.02 55.4967 150.9 55.67C150.78 55.8433 150.697 56.0267 150.65 56.22C150.603 56.4133 150.573 56.61 150.56 56.81H149.32ZM149.23 59V57.64H150.65V59H149.23Z" fill="white"/>
<circle cx="168" cy="55" r="8" fill="#128FCD" fill-opacity="0.2"/>
<circle cx="168" cy="55" r="7.5" stroke="#48BCCB" stroke-opacity="0.4"/>
<path d="M167.32 56.81C167.32 56.53 167.35 56.2667 167.41 56.02C167.47 55.7733 167.58 55.5367 167.74 55.31C167.9 55.0767 168.123 54.86 168.41 54.66C168.637 54.5 168.82 54.3533 168.96 54.22C169.1 54.0867 169.197 53.9567 169.25 53.83C169.31 53.7033 169.34 53.5767 169.34 53.45C169.34 53.19 169.223 53.0033 168.99 52.89C168.763 52.77 168.4 52.71 167.9 52.71C167.547 52.71 167.197 52.74 166.85 52.8C166.503 52.8533 166.14 52.9433 165.76 53.07L165.5 51.98C165.88 51.86 166.293 51.7667 166.74 51.7C167.187 51.6333 167.63 51.6 168.07 51.6C169.79 51.6 170.65 52.1567 170.65 53.27C170.65 53.5233 170.607 53.7567 170.52 53.97C170.44 54.1767 170.307 54.38 170.12 54.58C169.933 54.78 169.687 54.9867 169.38 55.2C169.18 55.34 169.02 55.4967 168.9 55.67C168.78 55.8433 168.697 56.0267 168.65 56.22C168.603 56.4133 168.573 56.61 168.56 56.81H167.32ZM167.23 59V57.64H168.65V59H167.23Z" fill="white"/>
<g filter="url(#filter2_d_122_2121)">
<rect x="6" y="67" width="54" height="54" fill="#128FCD" fill-opacity="0.2" shape-rendering="crispEdges"/>
<rect x="7" y="68" width="52" height="52" stroke="#48BCCB" stroke-opacity="0.5" stroke-width="2" shape-rendering="crispEdges"/>
</g>
<circle cx="24" cy="55" r="8" fill="#128FCD" fill-opacity="0.2"/>
<circle cx="24" cy="55" r="7.5" stroke="#48BCCB" stroke-opacity="0.4"/>
<path d="M23.32 56.81C23.32 56.53 23.35 56.2667 23.41 56.02C23.47 55.7733 23.58 55.5367 23.74 55.31C23.9 55.0767 24.1233 54.86 24.41 54.66C24.6367 54.5 24.82 54.3533 24.96 54.22C25.1 54.0867 25.1967 53.9567 25.25 53.83C25.31 53.7033 25.34 53.5767 25.34 53.45C25.34 53.19 25.2233 53.0033 24.99 52.89C24.7633 52.77 24.4 52.71 23.9 52.71C23.5467 52.71 23.1967 52.74 22.85 52.8C22.5033 52.8533 22.14 52.9433 21.76 53.07L21.5 51.98C21.88 51.86 22.2933 51.7667 22.74 51.7C23.1867 51.6333 23.63 51.6 24.07 51.6C25.79 51.6 26.65 52.1567 26.65 53.27C26.65 53.5233 26.6067 53.7567 26.52 53.97C26.44 54.1767 26.3067 54.38 26.12 54.58C25.9333 54.78 25.6867 54.9867 25.38 55.2C25.18 55.34 25.02 55.4967 24.9 55.67C24.78 55.8433 24.6967 56.0267 24.65 56.22C24.6033 56.4133 24.5733 56.61 24.56 56.81H23.32ZM23.23 59V57.64H24.65V59H23.23Z" fill="white"/>
<circle cx="42" cy="55" r="8" fill="#128FCD" fill-opacity="0.2"/>
<circle cx="42" cy="55" r="7.5" stroke="#48BCCB" stroke-opacity="0.4"/>
<path d="M41.32 56.81C41.32 56.53 41.35 56.2667 41.41 56.02C41.47 55.7733 41.58 55.5367 41.74 55.31C41.9 55.0767 42.1233 54.86 42.41 54.66C42.6367 54.5 42.82 54.3533 42.96 54.22C43.1 54.0867 43.1967 53.9567 43.25 53.83C43.31 53.7033 43.34 53.5767 43.34 53.45C43.34 53.19 43.2233 53.0033 42.99 52.89C42.7633 52.77 42.4 52.71 41.9 52.71C41.5467 52.71 41.1967 52.74 40.85 52.8C40.5033 52.8533 40.14 52.9433 39.76 53.07L39.5 51.98C39.88 51.86 40.2933 51.7667 40.74 51.7C41.1867 51.6333 41.63 51.6 42.07 51.6C43.79 51.6 44.65 52.1567 44.65 53.27C44.65 53.5233 44.6067 53.7567 44.52 53.97C44.44 54.1767 44.3067 54.38 44.12 54.58C43.9333 54.78 43.6867 54.9867 43.38 55.2C43.18 55.34 43.02 55.4967 42.9 55.67C42.78 55.8433 42.6967 56.0267 42.65 56.22C42.6033 56.4133 42.5733 56.61 42.56 56.81H41.32ZM41.23 59V57.64H42.65V59H41.23Z" fill="white"/>
<path d="M27.76 19.552C27.0027 18.9867 26.3093 18.4853 25.68 18.048C25.0507 17.6213 24.4587 17.2267 23.904 16.864C23.3493 16.5013 22.8053 16.16 22.272 15.84C21.7387 15.5093 21.184 15.168 20.608 14.816C20.0107 14.4533 19.5307 14.1547 19.168 13.92C18.816 13.6747 18.5387 13.4613 18.336 13.28C18.144 13.0987 18.0107 12.9173 17.936 12.736C17.872 12.544 17.84 12.3253 17.84 12.08C17.84 11.824 17.8773 11.6 17.952 11.408C18.0373 11.2053 18.1813 11.0133 18.384 10.832C18.5867 10.64 18.8747 10.4267 19.248 10.192C19.6213 9.95733 20.1013 9.67467 20.688 9.344C21.296 9.00267 21.9627 8.61867 22.688 8.192C23.4133 7.76533 24.1707 7.30667 24.96 6.816C25.7493 6.32533 26.5333 5.80267 27.312 5.248L28.432 6.8C27.9627 7.12 27.4667 7.44533 26.944 7.776C26.4213 8.096 25.904 8.41067 25.392 8.72C24.88 9.01867 24.3893 9.30133 23.92 9.568C23.4613 9.824 23.0453 10.0587 22.672 10.272C22.2987 10.4747 21.9947 10.64 21.76 10.768C21.3013 11.024 20.944 11.2267 20.688 11.376C20.4427 11.5253 20.2667 11.6533 20.16 11.76C20.064 11.856 20.016 11.9627 20.016 12.08C20.016 12.1973 20.048 12.2987 20.112 12.384C20.1867 12.4693 20.336 12.5813 20.56 12.72C20.784 12.8587 21.1253 13.0613 21.584 13.328C21.84 13.4667 22.1653 13.6533 22.56 13.888C22.9653 14.1227 23.424 14.3947 23.936 14.704C24.448 15.0027 24.9813 15.3333 25.536 15.696C26.1013 16.048 26.672 16.4213 27.248 16.816C27.8347 17.2 28.4 17.5893 28.944 17.984L27.76 19.552ZM39.632 19.008C38.0533 19.008 36.8267 18.752 35.952 18.24C35.088 17.728 34.656 17.008 34.656 16.08C34.656 15.2907 34.9813 14.6773 35.632 14.24C36.2933 13.792 37.2 13.568 38.352 13.568C39.44 13.568 40.256 13.7707 40.8 14.176C41.344 14.5707 41.616 15.168 41.616 15.968C41.616 16.256 41.5733 16.5653 41.488 16.896C41.4133 17.2267 41.3013 17.568 41.152 17.92L39.392 17.728C39.5413 17.3653 39.648 17.056 39.712 16.8C39.7867 16.544 39.824 16.32 39.824 16.128C39.824 15.4027 39.2907 15.04 38.224 15.04C37.68 15.04 37.2533 15.1307 36.944 15.312C36.6453 15.4827 36.496 15.7333 36.496 16.064C36.496 16.512 36.7573 16.8693 37.28 17.136C37.8027 17.392 38.512 17.52 39.408 17.52C41.1253 17.52 42.4 17.2693 43.232 16.768C44.0747 16.256 44.496 15.4773 44.496 14.432C44.496 13.5467 44.1653 12.896 43.504 12.48C42.8533 12.064 41.8133 11.856 40.384 11.856C39.5627 11.856 38.8373 11.9307 38.208 12.08C37.5787 12.2187 36.9973 12.4373 36.464 12.736L34.352 13.952L33.584 12.48L42.672 7.424V7.728H34.528V6.112H45.472V7.728L37.664 12.032L36.672 11.216C37.0027 11.0987 37.3707 10.992 37.776 10.896C38.192 10.7893 38.6133 10.704 39.04 10.64C39.4773 10.5653 39.8987 10.5067 40.304 10.464C40.7093 10.4107 41.0773 10.384 41.408 10.384C43.0293 10.384 44.272 10.7253 45.136 11.408C46 12.0907 46.432 13.0613 46.432 14.32C46.432 15.824 45.84 16.9813 44.656 17.792C43.4827 18.6027 41.808 19.008 39.632 19.008ZM59.76 19.552C59.0027 18.9867 58.3093 18.4853 57.68 18.048C57.0507 17.6213 56.4587 17.2267 55.904 16.864C55.3493 16.5013 54.8053 16.16 54.272 15.84C53.7387 15.5093 53.184 15.168 52.608 14.816C52.0107 14.4533 51.5307 14.1547 51.168 13.92C50.816 13.6747 50.5387 13.4613 50.336 13.28C50.144 13.0987 50.0107 12.9173 49.936 12.736C49.872 12.544 49.84 12.3253 49.84 12.08C49.84 11.824 49.8773 11.6 49.952 11.408C50.0373 11.2053 50.1813 11.0133 50.384 10.832C50.5867 10.64 50.8747 10.4267 51.248 10.192C51.6213 9.95733 52.1013 9.67467 52.688 9.344C53.296 9.00267 53.9627 8.61867 54.688 8.192C55.4133 7.76533 56.1707 7.30667 56.96 6.816C57.7493 6.32533 58.5333 5.80267 59.312 5.248L60.432 6.8C59.9627 7.12 59.4667 7.44533 58.944 7.776C58.4213 8.096 57.904 8.41067 57.392 8.72C56.88 9.01867 56.3893 9.30133 55.92 9.568C55.4613 9.824 55.0453 10.0587 54.672 10.272C54.2987 10.4747 53.9947 10.64 53.76 10.768C53.3013 11.024 52.944 11.2267 52.688 11.376C52.4427 11.5253 52.2667 11.6533 52.16 11.76C52.064 11.856 52.016 11.9627 52.016 12.08C52.016 12.1973 52.048 12.2987 52.112 12.384C52.1867 12.4693 52.336 12.5813 52.56 12.72C52.784 12.8587 53.1253 13.0613 53.584 13.328C53.84 13.4667 54.1653 13.6533 54.56 13.888C54.9653 14.1227 55.424 14.3947 55.936 14.704C56.448 15.0027 56.9813 15.3333 57.536 15.696C58.1013 16.048 58.672 16.4213 59.248 16.816C59.8347 17.2 60.4 17.5893 60.944 17.984L59.76 19.552ZM71.632 19.008C70.0533 19.008 68.8267 18.752 67.952 18.24C67.088 17.728 66.656 17.008 66.656 16.08C66.656 15.2907 66.9813 14.6773 67.632 14.24C68.2933 13.792 69.2 13.568 70.352 13.568C71.44 13.568 72.256 13.7707 72.8 14.176C73.344 14.5707 73.616 15.168 73.616 15.968C73.616 16.256 73.5733 16.5653 73.488 16.896C73.4133 17.2267 73.3013 17.568 73.152 17.92L71.392 17.728C71.5413 17.3653 71.648 17.056 71.712 16.8C71.7867 16.544 71.824 16.32 71.824 16.128C71.824 15.4027 71.2907 15.04 70.224 15.04C69.68 15.04 69.2533 15.1307 68.944 15.312C68.6453 15.4827 68.496 15.7333 68.496 16.064C68.496 16.512 68.7573 16.8693 69.28 17.136C69.8027 17.392 70.512 17.52 71.408 17.52C73.1253 17.52 74.4 17.2693 75.232 16.768C76.0747 16.256 76.496 15.4773 76.496 14.432C76.496 13.5467 76.1653 12.896 75.504 12.48C74.8533 12.064 73.8133 11.856 72.384 11.856C71.5627 11.856 70.8373 11.9307 70.208 12.08C69.5787 12.2187 68.9973 12.4373 68.464 12.736L66.352 13.952L65.584 12.48L74.672 7.424V7.728H66.528V6.112H77.472V7.728L69.664 12.032L68.672 11.216C69.0027 11.0987 69.3707 10.992 69.776 10.896C70.192 10.7893 70.6133 10.704 71.04 10.64C71.4773 10.5653 71.8987 10.5067 72.304 10.464C72.7093 10.4107 73.0773 10.384 73.408 10.384C75.0293 10.384 76.272 10.7253 77.136 11.408C78 12.0907 78.432 13.0613 78.432 14.32C78.432 15.824 77.84 16.9813 76.656 17.792C75.4827 18.6027 73.808 19.008 71.632 19.008ZM81.2 19.392V5.392H94.8V19.392H92.928V18.56H83.072V16.976H92.928V6.976H83.072V19.392H81.2ZM84.672 15.312V8.576H91.328V15.312H86.416V13.808H89.584V10.096H86.416V15.312H84.672ZM103.632 19.008C102.053 19.008 100.827 18.752 99.952 18.24C99.088 17.728 98.656 17.008 98.656 16.08C98.656 15.2907 98.9813 14.6773 99.632 14.24C100.293 13.792 101.2 13.568 102.352 13.568C103.44 13.568 104.256 13.7707 104.8 14.176C105.344 14.5707 105.616 15.168 105.616 15.968C105.616 16.256 105.573 16.5653 105.488 16.896C105.413 17.2267 105.301 17.568 105.152 17.92L103.392 17.728C103.541 17.3653 103.648 17.056 103.712 16.8C103.787 16.544 103.824 16.32 103.824 16.128C103.824 15.4027 103.291 15.04 102.224 15.04C101.68 15.04 101.253 15.1307 100.944 15.312C100.645 15.4827 100.496 15.7333 100.496 16.064C100.496 16.512 100.757 16.8693 101.28 17.136C101.803 17.392 102.512 17.52 103.408 17.52C105.125 17.52 106.4 17.2693 107.232 16.768C108.075 16.256 108.496 15.4773 108.496 14.432C108.496 13.5467 108.165 12.896 107.504 12.48C106.853 12.064 105.813 11.856 104.384 11.856C103.563 11.856 102.837 11.9307 102.208 12.08C101.579 12.2187 100.997 12.4373 100.464 12.736L98.352 13.952L97.584 12.48L106.672 7.424V7.728H98.528V6.112H109.472V7.728L101.664 12.032L100.672 11.216C101.003 11.0987 101.371 10.992 101.776 10.896C102.192 10.7893 102.613 10.704 103.04 10.64C103.477 10.5653 103.899 10.5067 104.304 10.464C104.709 10.4107 105.077 10.384 105.408 10.384C107.029 10.384 108.272 10.7253 109.136 11.408C110 12.0907 110.432 13.0613 110.432 14.32C110.432 15.824 109.84 16.9813 108.656 17.792C107.483 18.6027 105.808 19.008 103.632 19.008ZM113.456 19.376V12.912H115.328V16.784H119.024V11.744H114.16V6.288H116.016V10.144H119.024V4.944H120.976V10.144H123.984V6.288H125.84V11.744H120.976V16.784H124.672V12.912H126.544V19.376H124.672V18.432H115.328V19.376H113.456ZM129.728 19.392L128.688 17.92C129.509 17.4827 130.272 16.9707 130.976 16.384C131.691 15.7973 132.325 15.1627 132.88 14.48C133.445 13.7867 133.925 13.0667 134.32 12.32C134.725 11.5627 135.035 10.8 135.248 10.032C135.461 9.25333 135.568 8.48 135.568 7.712V7.248H131.248V5.568H137.536V6.976C137.536 7.968 137.403 8.96533 137.136 9.968C136.88 10.96 136.517 11.9307 136.048 12.88C135.579 13.8187 135.019 14.704 134.368 15.536C133.717 16.3573 133.003 17.0987 132.224 17.76C131.445 18.4213 130.613 18.9653 129.728 19.392ZM142.272 19.392C141.344 18.9227 140.485 18.2613 139.696 17.408C138.907 16.5547 138.213 15.5733 137.616 14.464C137.019 13.344 136.555 12.1493 136.224 10.88C135.904 9.6 135.744 8.29867 135.744 6.976H137.536C137.536 8.20267 137.664 9.36533 137.92 10.464C138.187 11.5627 138.571 12.5867 139.072 13.536C139.573 14.4853 140.181 15.328 140.896 16.064C141.611 16.8 142.416 17.4187 143.312 17.92L142.272 19.392ZM147.408 17.04C149.467 17.04 151.125 16.864 152.384 16.512C153.653 16.16 154.571 15.5893 155.136 14.8C155.712 14 156 12.9707 156 11.712C156 10.432 155.728 9.47733 155.184 8.848C154.651 8.208 153.829 7.888 152.72 7.888C152.101 7.888 151.52 7.98933 150.976 8.192C150.443 8.39467 149.973 8.68267 149.568 9.056C149.163 9.42933 148.837 9.872 148.592 10.384C148.357 10.896 148.24 11.4613 148.24 12.08V14.176H146.384V5.76H148.24V9.168H147.52C147.904 8.50667 148.357 7.94667 148.88 7.488C149.413 7.02933 150.016 6.68267 150.688 6.448C151.371 6.20267 152.112 6.08 152.912 6.08C154.544 6.08 155.792 6.56533 156.656 7.536C157.531 8.496 157.968 9.888 157.968 11.712C157.968 13.3547 157.595 14.6987 156.848 15.744C156.112 16.7893 154.976 17.5573 153.44 18.048C151.904 18.5493 149.925 18.8 147.504 18.8L147.408 17.04ZM161.504 19.184V5.984H174.496V19.184H172.528V18.256H163.472V16.656H172.528V7.632H163.472V19.184H161.504Z" fill="white"/>
<defs>
<filter id="filter0_d_122_2121" x="63" y="61" width="66" height="66" filterUnits="userSpaceOnUse" color-interpolation-filters="sRGB">
<feFlood flood-opacity="0" result="BackgroundImageFix"/>
<feColorMatrix in="SourceAlpha" type="matrix" values="0 0 0 0 0 0 0 0 0 0 0 0 0 0 0 0 0 0 127 0" result="hardAlpha"/>
<feOffset/>
<feGaussianBlur stdDeviation="3"/>
<feComposite in2="hardAlpha" operator="out"/>
<feColorMatrix type="matrix" values="0 0 0 0 0.282353 0 0 0 0 0.737255 0 0 0 0 0.796078 0 0 0 0.25 0"/>
<feBlend mode="normal" in2="BackgroundImageFix" result="effect1_dropShadow_122_2121"/>
<feBlend mode="normal" in="SourceGraphic" in2="effect1_dropShadow_122_2121" result="shape"/>
</filter>
<filter id="filter1_d_122_2121" x="126" y="61" width="66" height="66" filterUnits="userSpaceOnUse" color-interpolation-filters="sRGB">
<feFlood flood-opacity="0" result="BackgroundImageFix"/>
<feColorMatrix in="SourceAlpha" type="matrix" values="0 0 0 0 0 0 0 0 0 0 0 0 0 0 0 0 0 0 127 0" result="hardAlpha"/>
<feOffset/>
<feGaussianBlur stdDeviation="3"/>
<feComposite in2="hardAlpha" operator="out"/>
<feColorMatrix type="matrix" values="0 0 0 0 0.282353 0 0 0 0 0.737255 0 0 0 0 0.796078 0 0 0 0.25 0"/>
<feBlend mode="normal" in2="BackgroundImageFix" result="effect1_dropShadow_122_2121"/>
<feBlend mode="normal" in="SourceGraphic" in2="effect1_dropShadow_122_2121" result="shape"/>
</filter>
<filter id="filter2_d_122_2121" x="0" y="61" width="66" height="66" filterUnits="userSpaceOnUse" color-interpolation-filters="sRGB">
<feFlood flood-opacity="0" result="BackgroundImageFix"/>
<feColorMatrix in="SourceAlpha" type="matrix" values="0 0 0 0 0 0 0 0 0 0 0 0 0 0 0 0 0 0 127 0" result="hardAlpha"/>
<feOffset/>
<feGaussianBlur stdDeviation="3"/>
<feComposite in2="hardAlpha" operator="out"/>
<feColorMatrix type="matrix" values="0 0 0 0 0.282353 0 0 0 0 0.737255 0 0 0 0 0.796078 0 0 0 0.25 0"/>
<feBlend mode="normal" in2="BackgroundImageFix" result="effect1_dropShadow_122_2121"/>
<feBlend mode="normal" in="SourceGraphic" in2="effect1_dropShadow_122_2121" result="shape"/>
</filter>
</defs>
</svg>
