<svg width="249" height="127" viewBox="0 0 249 127" fill="none" xmlns="http://www.w3.org/2000/svg">
<circle cx="153" cy="94" r="27" fill="#128FCD" fill-opacity="0.2"/>
<circle cx="153" cy="94" r="26" stroke="#48BCCB" stroke-opacity="0.4" stroke-width="2"/>
<path d="M150.552 100.116C150.552 99.108 150.66 98.16 150.876 97.272C151.092 96.384 151.488 95.532 152.064 94.716C152.64 93.876 153.444 93.096 154.476 92.376C155.292 91.8 155.952 91.272 156.456 90.792C156.96 90.312 157.308 89.844 157.5 89.388C157.716 88.932 157.824 88.476 157.824 88.02C157.824 87.084 157.404 86.412 156.564 86.004C155.748 85.572 154.44 85.356 152.64 85.356C151.368 85.356 150.108 85.464 148.86 85.68C147.612 85.872 146.304 86.196 144.936 86.652L144 82.728C145.368 82.296 146.856 81.96 148.464 81.72C150.072 81.48 151.668 81.36 153.252 81.36C159.444 81.36 162.54 83.364 162.54 87.372C162.54 88.284 162.384 89.124 162.072 89.892C161.784 90.636 161.304 91.368 160.632 92.088C159.96 92.808 159.072 93.552 157.968 94.32C157.248 94.824 156.672 95.388 156.24 96.012C155.808 96.636 155.508 97.296 155.34 97.992C155.172 98.688 155.064 99.396 155.016 100.116H150.552ZM150.228 108V103.104H155.34V108H150.228Z" fill="white"/>
<circle cx="90" cy="94" r="27" fill="#128FCD" fill-opacity="0.2"/>
<circle cx="90" cy="94" r="26" stroke="#48BCCB" stroke-opacity="0.4" stroke-width="2"/>
<path d="M87.552 100.116C87.552 99.108 87.66 98.16 87.876 97.272C88.092 96.384 88.488 95.532 89.064 94.716C89.64 93.876 90.444 93.096 91.476 92.376C92.292 91.8 92.952 91.272 93.456 90.792C93.96 90.312 94.308 89.844 94.5 89.388C94.716 88.932 94.824 88.476 94.824 88.02C94.824 87.084 94.404 86.412 93.564 86.004C92.748 85.572 91.44 85.356 89.64 85.356C88.368 85.356 87.108 85.464 85.86 85.68C84.612 85.872 83.304 86.196 81.936 86.652L81 82.728C82.368 82.296 83.856 81.96 85.464 81.72C87.072 81.48 88.668 81.36 90.252 81.36C96.444 81.36 99.54 83.364 99.54 87.372C99.54 88.284 99.384 89.124 99.072 89.892C98.784 90.636 98.304 91.368 97.632 92.088C96.96 92.808 96.072 93.552 94.968 94.32C94.248 94.824 93.672 95.388 93.24 96.012C92.808 96.636 92.508 97.296 92.34 97.992C92.172 98.688 92.064 99.396 92.016 100.116H87.552ZM87.228 108V103.104H92.34V108H87.228Z" fill="white"/>
<circle cx="27" cy="94" r="27" fill="#128FCD" fill-opacity="0.2"/>
<circle cx="27" cy="94" r="26" stroke="#48BCCB" stroke-opacity="0.4" stroke-width="2"/>
<path d="M18.144 106.488C20.304 106.392 22.236 106.032 23.94 105.408C25.644 104.76 26.988 103.932 27.972 102.924C28.98 101.916 29.484 100.812 29.484 99.612V98.784L31.284 99.252C31.02 99.732 30.66 100.176 30.204 100.584C29.748 100.992 29.208 101.352 28.584 101.664C27.984 101.952 27.312 102.18 26.568 102.348C25.848 102.516 25.104 102.6 24.336 102.6C22.752 102.6 21.384 102.3 20.232 101.7C19.08 101.076 18.18 100.212 17.532 99.108C16.908 98.004 16.596 96.708 16.596 95.22C16.596 93.708 16.932 92.4 17.604 91.296C18.276 90.192 19.212 89.34 20.412 88.74C21.636 88.116 23.064 87.804 24.696 87.804C26.04 87.804 27.204 88.032 28.188 88.488C29.172 88.944 30.144 89.628 31.104 90.54L28.548 91.26V78.552H32.868V94.896L32.544 93.024C33 93.744 33.312 94.488 33.48 95.256C33.672 96 33.768 96.84 33.768 97.776C33.768 100.2 33.168 102.324 31.968 104.148C30.768 105.972 29.052 107.4 26.82 108.432C24.588 109.488 21.912 110.1 18.792 110.268L18.144 106.488ZM25.056 99.072C25.68 99.072 26.232 98.988 26.712 98.82C27.216 98.628 27.648 98.364 28.008 98.028C28.368 97.692 28.644 97.284 28.836 96.804C29.028 96.324 29.124 95.796 29.124 95.22C29.124 93.996 28.752 93.036 28.008 92.34C27.288 91.644 26.304 91.296 25.056 91.296C23.832 91.296 22.836 91.644 22.068 92.34C21.324 93.036 20.952 93.996 20.952 95.22C20.952 96.372 21.324 97.308 22.068 98.028C22.812 98.724 23.808 99.072 25.056 99.072ZM11.124 86.184V82.728H42.876V86.184H11.124Z" fill="white"/>
<g filter="url(#filter0_d_122_1934)">
<rect x="189" y="67" width="54" height="54" fill="#128FCD" fill-opacity="0.2" shape-rendering="crispEdges"/>
<rect x="190" y="68" width="52" height="52" stroke="#48BCCB" stroke-opacity="0.5" stroke-width="2" shape-rendering="crispEdges"/>
</g>
<circle cx="207" cy="55" r="8" fill="#128FCD" fill-opacity="0.2"/>
<circle cx="207" cy="55" r="7.5" stroke="#48BCCB" stroke-opacity="0.4"/>
<path d="M207.42 59.47C206.7 59.47 206.137 59.31 205.73 58.99C205.33 58.6633 205.13 58.2067 205.13 57.62C205.13 57.0333 205.33 56.58 205.73 56.26C206.13 55.94 206.693 55.78 207.42 55.78C207.733 55.78 208.037 55.82 208.33 55.9C208.623 55.9733 208.927 56.1067 209.24 56.3C209.553 56.4933 209.903 56.76 210.29 57.1C210.683 57.4333 211.143 57.86 211.67 58.38L210.93 59.17C210.457 58.69 210.047 58.2967 209.7 57.99C209.36 57.6767 209.06 57.4333 208.8 57.26C208.54 57.0867 208.293 56.9667 208.06 56.9C207.833 56.8267 207.6 56.79 207.36 56.79C206.587 56.79 206.2 57.07 206.2 57.63C206.2 58.1833 206.587 58.46 207.36 58.46C207.78 58.46 208.077 58.3733 208.25 58.2C208.43 58.02 208.52 57.7267 208.52 57.32V53.27V53.24V51.14H209.66V53.2H209.68V57.37C209.68 58.07 209.487 58.5967 209.1 58.95C208.72 59.2967 208.16 59.47 207.42 59.47ZM205.16 53.72V52.71H209.11V52.87H211.52V53.72H205.16ZM210.45 53.67C210.197 53.67 209.96 53.6067 209.74 53.48C209.527 53.3533 209.357 53.1833 209.23 52.97C209.103 52.75 209.04 52.5133 209.04 52.26C209.04 51.9933 209.103 51.7533 209.23 51.54C209.357 51.3267 209.527 51.1567 209.74 51.03C209.96 50.9033 210.197 50.84 210.45 50.84C210.717 50.84 210.953 50.9033 211.16 51.03C211.373 51.1567 211.543 51.3267 211.67 51.54C211.803 51.7467 211.87 51.9833 211.87 52.25C211.87 52.51 211.807 52.7467 211.68 52.96C211.553 53.1733 211.383 53.3467 211.17 53.48C210.957 53.6067 210.717 53.67 210.45 53.67ZM210.46 52.79C210.607 52.79 210.73 52.7367 210.83 52.63C210.937 52.5233 210.99 52.3967 210.99 52.25C210.99 52.1033 210.937 51.98 210.83 51.88C210.73 51.7733 210.607 51.72 210.46 51.72C210.313 51.72 210.187 51.7733 210.08 51.88C209.973 51.98 209.92 52.1033 209.92 52.25C209.92 52.3967 209.973 52.5233 210.08 52.63C210.187 52.7367 210.313 52.79 210.46 52.79ZM203.31 59.65C203.137 58.9633 203.01 58.2867 202.93 57.62C202.85 56.9533 202.81 56.2467 202.81 55.5C202.81 54.76 202.85 54.06 202.93 53.4C203.01 52.7333 203.133 52.0567 203.3 51.37L204.48 51.52C204.32 52.1667 204.2 52.8167 204.12 53.47C204.047 54.1167 204.01 54.7933 204.01 55.5C204.01 56.2067 204.047 56.8867 204.12 57.54C204.2 58.1933 204.32 58.8367 204.48 59.47L203.31 59.65Z" fill="white"/>
<circle cx="225" cy="55" r="8" fill="#128FCD" fill-opacity="0.2"/>
<circle cx="225" cy="55" r="7.5" stroke="#48BCCB" stroke-opacity="0.4"/>
<path d="M224.32 56.81C224.32 56.53 224.35 56.2667 224.41 56.02C224.47 55.7733 224.58 55.5367 224.74 55.31C224.9 55.0767 225.123 54.86 225.41 54.66C225.637 54.5 225.82 54.3533 225.96 54.22C226.1 54.0867 226.197 53.9567 226.25 53.83C226.31 53.7033 226.34 53.5767 226.34 53.45C226.34 53.19 226.223 53.0033 225.99 52.89C225.763 52.77 225.4 52.71 224.9 52.71C224.547 52.71 224.197 52.74 223.85 52.8C223.503 52.8533 223.14 52.9433 222.76 53.07L222.5 51.98C222.88 51.86 223.293 51.7667 223.74 51.7C224.187 51.6333 224.63 51.6 225.07 51.6C226.79 51.6 227.65 52.1567 227.65 53.27C227.65 53.5233 227.607 53.7567 227.52 53.97C227.44 54.1767 227.307 54.38 227.12 54.58C226.933 54.78 226.687 54.9867 226.38 55.2C226.18 55.34 226.02 55.4967 225.9 55.67C225.78 55.8433 225.697 56.0267 225.65 56.22C225.603 56.4133 225.573 56.61 225.56 56.81H224.32ZM224.23 59V57.64H225.65V59H224.23Z" fill="white"/>
<path d="M45.768 9.616V8.144H49.848V7.232H46.152V5.808H49.848V4.848H51.816V5.808H55.528V7.232H51.816V8.144H55.912V9.616H45.768ZM42.392 19.472L41.528 17.936C42.136 17.5413 42.6853 17.1413 43.176 16.736C43.6773 16.32 44.1413 15.8773 44.568 15.408L45.608 16.688C45.192 17.1893 44.7227 17.664 44.2 18.112C43.6773 18.56 43.0747 19.0133 42.392 19.472ZM43.592 16.512V12.544H41.768V10.944H45.432V16.512H43.592ZM51.736 19.216C50.6267 19.216 49.6667 19.184 48.856 19.12C48.0453 19.056 47.3573 18.9493 46.792 18.8C46.2373 18.6613 45.7733 18.4693 45.4 18.224C45.0267 17.9787 44.7173 17.68 44.472 17.328C44.2373 16.976 44.0347 16.56 43.864 16.08L45.416 15.968C45.5547 16.2347 45.72 16.464 45.912 16.656C46.104 16.8373 46.344 16.992 46.632 17.12C46.92 17.248 47.2827 17.3493 47.72 17.424C48.168 17.4987 48.7227 17.552 49.384 17.584C50.0453 17.616 50.84 17.632 51.768 17.632H56.232L56.12 19.216H51.736ZM46.76 16.944L45.896 15.552C46.6427 15.2853 47.352 14.9973 48.024 14.688C48.696 14.3787 49.304 14.0533 49.848 13.712C50.392 13.3707 50.824 13.04 51.144 12.72L52.536 13.472C52.12 13.888 51.608 14.304 51 14.72C50.392 15.136 49.7253 15.536 49 15.92C48.2747 16.2933 47.528 16.6347 46.76 16.944ZM49.88 17.68V13.888H51.816V17.68H49.88ZM44.712 9.392C44.264 8.89067 43.8107 8.4 43.352 7.92C42.8933 7.42933 42.4293 6.95467 41.96 6.496L43.24 5.376C43.6987 5.83467 44.152 6.30933 44.6 6.8C45.0587 7.28 45.5067 7.776 45.944 8.288L44.712 9.392ZM55.224 17.536C54.5307 17.0773 53.832 16.6453 53.128 16.24C52.424 15.824 51.6667 15.424 50.856 15.04L51.672 13.888C52.4293 14.2293 53.176 14.5973 53.912 14.992C54.648 15.376 55.3947 15.7973 56.152 16.256L55.224 17.536ZM46.408 13.568V10.224H55.272V13.568H48.168V12.336H53.448V11.52H48.168V13.568H46.408ZM54.472 15.776L53.352 14.848C53.6507 14.6027 53.9387 14.3467 54.216 14.08C54.504 13.8133 54.776 13.5467 55.032 13.28L56.168 14.208C55.9227 14.464 55.656 14.7253 55.368 14.992C55.08 15.2587 54.7813 15.52 54.472 15.776ZM68.76 19.552C68.0027 18.9867 67.3093 18.4853 66.68 18.048C66.0507 17.6213 65.4587 17.2267 64.904 16.864C64.3493 16.5013 63.8053 16.16 63.272 15.84C62.7387 15.5093 62.184 15.168 61.608 14.816C61.0107 14.4533 60.5307 14.1547 60.168 13.92C59.816 13.6747 59.5387 13.4613 59.336 13.28C59.144 13.0987 59.0107 12.9173 58.936 12.736C58.872 12.544 58.84 12.3253 58.84 12.08C58.84 11.824 58.8773 11.6 58.952 11.408C59.0373 11.2053 59.1813 11.0133 59.384 10.832C59.5867 10.64 59.8747 10.4267 60.248 10.192C60.6213 9.95733 61.1013 9.67467 61.688 9.344C62.296 9.00267 62.9627 8.61867 63.688 8.192C64.4133 7.76533 65.1707 7.30667 65.96 6.816C66.7493 6.32533 67.5333 5.80267 68.312 5.248L69.432 6.8C68.9627 7.12 68.4667 7.44533 67.944 7.776C67.4213 8.096 66.904 8.41067 66.392 8.72C65.88 9.01867 65.3893 9.30133 64.92 9.568C64.4613 9.824 64.0453 10.0587 63.672 10.272C63.2987 10.4747 62.9947 10.64 62.76 10.768C62.3013 11.024 61.944 11.2267 61.688 11.376C61.4427 11.5253 61.2667 11.6533 61.16 11.76C61.064 11.856 61.016 11.9627 61.016 12.08C61.016 12.1973 61.048 12.2987 61.112 12.384C61.1867 12.4693 61.336 12.5813 61.56 12.72C61.784 12.8587 62.1253 13.0613 62.584 13.328C62.84 13.4667 63.1653 13.6533 63.56 13.888C63.9653 14.1227 64.424 14.3947 64.936 14.704C65.448 15.0027 65.9813 15.3333 66.536 15.696C67.1013 16.048 67.672 16.4213 68.248 16.816C68.8347 17.2 69.4 17.5893 69.944 17.984L68.76 19.552ZM81.464 18.368C81.1973 18.368 80.856 18.3307 80.44 18.256C80.024 18.192 79.5867 18.1013 79.128 17.984C78.6693 17.856 78.2373 17.7173 77.832 17.568L78.264 15.952C78.6053 16.0587 78.9467 16.1653 79.288 16.272C79.64 16.368 79.96 16.448 80.248 16.512C80.5467 16.5653 80.7813 16.592 80.952 16.592C81.2933 16.592 81.576 16.4373 81.8 16.128C82.024 15.808 82.1893 15.312 82.296 14.64C82.4133 13.9573 82.472 13.0827 82.472 12.016C82.472 11.3973 82.4453 10.9013 82.392 10.528C82.3493 10.144 82.264 9.856 82.136 9.664C82.008 9.472 81.8107 9.344 81.544 9.28C81.2773 9.216 80.92 9.184 80.472 9.184H73.656V7.52H80.28C81.0267 7.52 81.6453 7.552 82.136 7.616C82.6267 7.66933 83.0213 7.78133 83.32 7.952C83.6187 8.12267 83.8427 8.384 83.992 8.736C84.152 9.07733 84.2533 9.536 84.296 10.112C84.3493 10.6773 84.376 11.3867 84.376 12.24C84.376 13.6267 84.2693 14.7733 84.056 15.68C83.8533 16.5867 83.5387 17.264 83.112 17.712C82.6853 18.1493 82.136 18.368 81.464 18.368ZM73.848 18.192C74.2427 17.1787 74.5947 16.2453 74.904 15.392C75.2133 14.528 75.4907 13.7013 75.736 12.912C75.992 12.1227 76.2213 11.3227 76.424 10.512C76.6373 9.70133 76.8347 8.83733 77.016 7.92C77.1973 7.00267 77.3787 5.98933 77.56 4.88L79.416 5.088C79.2453 6.15467 79.0693 7.152 78.888 8.08C78.7067 8.99733 78.504 9.88267 78.28 10.736C78.0667 11.5787 77.8267 12.4213 77.56 13.264C77.304 14.1067 77.0107 14.976 76.68 15.872C76.36 16.768 75.9973 17.728 75.592 18.752L73.848 18.192ZM86.872 15.248C86.776 14.608 86.648 13.9253 86.488 13.2C86.328 12.4747 86.1467 11.744 85.944 11.008C85.7413 10.272 85.528 9.56267 85.304 8.88C85.08 8.18667 84.8507 7.552 84.616 6.976L86.408 6.464C86.6533 7.06133 86.888 7.70667 87.112 8.4C87.336 9.09333 87.5493 9.808 87.752 10.544C87.9547 11.28 88.136 12.016 88.296 12.752C88.456 13.4773 88.5893 14.1707 88.696 14.832L86.872 15.248ZM96.904 18.608C96.328 18.608 95.704 18.5813 95.032 18.528C94.3707 18.4853 93.7253 18.4213 93.096 18.336C92.4773 18.2507 91.9173 18.1547 91.416 18.048L91.592 16.384C92.2107 16.4907 92.8347 16.5867 93.464 16.672C94.104 16.7573 94.7173 16.8267 95.304 16.88C95.8907 16.9227 96.424 16.944 96.904 16.944C98.4187 16.944 99.5653 16.72 100.344 16.272C101.123 15.824 101.512 15.1627 101.512 14.288C101.512 13.5627 101.24 13.0133 100.696 12.64C100.152 12.256 99.368 12.064 98.344 12.064C97.6507 12.064 96.952 12.144 96.248 12.304C95.544 12.464 94.8773 12.6933 94.248 12.992C93.6187 13.2907 93.0587 13.6427 92.568 14.048L90.856 13.712C90.9947 13.0293 91.1173 12.4 91.224 11.824C91.3307 11.2373 91.4213 10.688 91.496 10.176C91.5707 9.65333 91.6347 9.14667 91.688 8.656L93.544 8.8C93.48 9.38667 93.4 9.99467 93.304 10.624C93.2187 11.2427 93.112 11.8667 92.984 12.496L92.712 12.048C93.288 11.6853 93.8853 11.3867 94.504 11.152C95.1227 10.9067 95.7573 10.72 96.408 10.592C97.0693 10.464 97.752 10.4 98.456 10.4C100.088 10.4 101.325 10.7253 102.168 11.376C103.011 12.0267 103.432 12.9867 103.432 14.256C103.432 15.696 102.883 16.784 101.784 17.52C100.685 18.2453 99.0587 18.608 96.904 18.608ZM101.576 7.776C100.573 7.78667 99.6133 7.78133 98.696 7.76C97.7787 7.728 96.8613 7.67467 95.944 7.6C95.0373 7.52533 94.0933 7.424 93.112 7.296L93.304 5.632C94.2107 5.73867 95.128 5.82933 96.056 5.904C96.984 5.968 97.9067 6.02133 98.824 6.064C99.7413 6.096 100.659 6.112 101.576 6.112V7.776ZM110.792 19.184V17.584H117.816V15.04H113.816V13.504H117.816V10.992H113.816V9.456H117.816V6.928H113.816V17.584H112.008V5.344H119.688V17.584H120.696V19.184H110.792ZM106.232 15.248L105.56 13.728C106.189 13.408 106.792 13.024 107.368 12.576C107.944 12.128 108.456 11.6533 108.904 11.152L109.912 12.256C109.443 12.864 108.883 13.4293 108.232 13.952C107.592 14.464 106.925 14.896 106.232 15.248ZM108.616 19.328C108.349 19.328 108.003 19.3013 107.576 19.248C107.16 19.2053 106.744 19.1413 106.328 19.056L106.264 17.472C106.701 17.5573 107.085 17.6267 107.416 17.68C107.757 17.7227 108.019 17.744 108.2 17.744C108.371 17.744 108.525 17.648 108.664 17.456C108.803 17.2533 108.909 16.9173 108.984 16.448C109.069 15.968 109.112 15.296 109.112 14.432C109.112 12.8533 108.888 11.3653 108.44 9.968C108.003 8.57067 107.32 7.22667 106.392 5.936L108.04 5.104C109 6.448 109.709 7.888 110.168 9.424C110.637 10.96 110.872 12.6293 110.872 14.432C110.872 15.4133 110.824 16.224 110.728 16.864C110.643 17.504 110.504 18 110.312 18.352C110.12 18.7147 109.885 18.9653 109.608 19.104C109.331 19.2533 109 19.328 108.616 19.328ZM106.28 10.528L105.56 8.96C106.456 8.45867 107.304 7.856 108.104 7.152C108.915 6.43733 109.629 5.664 110.248 4.832L111.576 5.808C110.872 6.75733 110.061 7.64267 109.144 8.464C108.237 9.27467 107.283 9.96267 106.28 10.528ZM125.8 16.528C127.411 16.528 128.717 16.4213 129.72 16.208C130.733 15.984 131.475 15.6373 131.944 15.168C132.413 14.6987 132.648 14.096 132.648 13.36C132.648 12.5387 132.376 11.9253 131.832 11.52C131.299 11.1147 130.483 10.912 129.384 10.912C128.947 10.912 128.467 10.9493 127.944 11.024C127.421 11.088 126.819 11.1893 126.136 11.328C125.464 11.4667 124.68 11.6533 123.784 11.888L123.416 10.08C124.771 9.76 125.944 9.52533 126.936 9.376C127.928 9.216 128.781 9.136 129.496 9.136C131.128 9.136 132.381 9.488 133.256 10.192C134.131 10.896 134.568 11.904 134.568 13.216C134.568 14.88 133.837 16.1387 132.376 16.992C130.925 17.8453 128.771 18.272 125.912 18.272L125.8 16.528ZM148.072 18.592C146.781 18.592 145.656 18.3733 144.696 17.936C143.747 17.4987 143.011 16.88 142.488 16.08C141.965 15.2693 141.704 14.32 141.704 13.232C141.704 12.3787 141.859 11.5947 142.168 10.88C142.488 10.1547 142.936 9.52 143.512 8.976C144.099 8.42133 144.792 8 145.592 7.712L145.752 8.208L138.136 8.384V6.672L151.624 6.352V8.064L149.592 8.112C148.76 8.13333 147.987 8.26133 147.272 8.496C146.568 8.73067 145.949 9.06667 145.416 9.504C144.883 9.94133 144.467 10.4587 144.168 11.056C143.88 11.6427 143.736 12.304 143.736 13.04C143.736 13.8293 143.912 14.512 144.264 15.088C144.616 15.6533 145.112 16.0853 145.752 16.384C146.403 16.6827 147.181 16.832 148.088 16.832C148.387 16.832 148.728 16.816 149.112 16.784C149.507 16.752 149.848 16.7093 150.136 16.656L150.344 18.416C150.003 18.4693 149.624 18.512 149.208 18.544C148.803 18.576 148.424 18.592 148.072 18.592ZM158.136 18.464C157.592 18.464 157.091 18.2987 156.632 17.968C156.173 17.6267 155.773 17.152 155.432 16.544C155.091 15.936 154.824 15.2213 154.632 14.4C154.451 13.568 154.36 12.672 154.36 11.712C154.36 10.9333 154.424 10.112 154.552 9.248C154.691 8.37333 154.899 7.456 155.176 6.496L157.048 6.72C156.803 7.60533 156.616 8.448 156.488 9.248C156.36 10.048 156.296 10.8 156.296 11.504C156.296 12.176 156.349 12.8107 156.456 13.408C156.563 14.0053 156.707 14.528 156.888 14.976C157.08 15.424 157.293 15.776 157.528 16.032C157.773 16.288 158.029 16.416 158.296 16.416C158.552 16.416 158.829 16.3093 159.128 16.096C159.437 15.872 159.752 15.5733 160.072 15.2C160.392 14.8267 160.691 14.4 160.968 13.92C161.256 13.44 161.496 12.9387 161.688 12.416L163.4 13.28C163.133 14.0053 162.803 14.6827 162.408 15.312C162.013 15.9413 161.576 16.496 161.096 16.976C160.627 17.4453 160.136 17.808 159.624 18.064C159.112 18.3307 158.616 18.464 158.136 18.464ZM166.168 16.912C166.168 15.696 166.083 14.4853 165.912 13.28C165.752 12.0747 165.512 10.9173 165.192 9.808C164.883 8.69867 164.509 7.68 164.072 6.752L165.848 6.224C166.339 7.19467 166.744 8.256 167.064 9.408C167.395 10.5493 167.645 11.7547 167.816 13.024C167.997 14.2827 168.088 15.5787 168.088 16.912H166.168ZM174.872 18.848C173.613 18.848 172.637 18.5973 171.944 18.096C171.261 17.6053 170.92 16.9013 170.92 15.984C170.92 15.0667 171.261 14.368 171.944 13.888C172.627 13.408 173.603 13.168 174.872 13.168C175.565 13.168 176.237 13.2427 176.888 13.392C177.539 13.5413 178.195 13.7813 178.856 14.112C179.528 14.4427 180.232 14.8747 180.968 15.408C181.704 15.9307 182.499 16.5707 183.352 17.328L182.136 18.544C181.325 17.8507 180.584 17.264 179.912 16.784C179.251 16.2933 178.637 15.8987 178.072 15.6C177.507 15.2907 176.963 15.072 176.44 14.944C175.928 14.8053 175.405 14.736 174.872 14.736C173.507 14.736 172.824 15.1413 172.824 15.952C172.824 16.368 172.995 16.688 173.336 16.912C173.677 17.1253 174.179 17.232 174.84 17.232C175.629 17.232 176.211 17.0667 176.584 16.736C176.957 16.4053 177.144 15.8987 177.144 15.216V5.136H178.952V15.216C178.952 16.4213 178.611 17.328 177.928 17.936C177.256 18.544 176.237 18.848 174.872 18.848ZM170.808 11.632V10.048H183.192V11.632H170.808ZM170.648 8.368V6.752H183.352V8.368H170.648ZM189.064 17.328C190.024 17.2853 190.883 17.1253 191.64 16.848C192.397 16.56 192.995 16.192 193.432 15.744C193.88 15.296 194.104 14.8053 194.104 14.272V13.904L194.904 14.112C194.787 14.3253 194.627 14.5227 194.424 14.704C194.221 14.8853 193.981 15.0453 193.704 15.184C193.437 15.312 193.139 15.4133 192.808 15.488C192.488 15.5627 192.157 15.6 191.816 15.6C191.112 15.6 190.504 15.4667 189.992 15.2C189.48 14.9227 189.08 14.5387 188.792 14.048C188.515 13.5573 188.376 12.9813 188.376 12.32C188.376 11.648 188.525 11.0667 188.824 10.576C189.123 10.0853 189.539 9.70667 190.072 9.44C190.616 9.16267 191.251 9.024 191.976 9.024C192.573 9.024 193.091 9.12533 193.528 9.328C193.965 9.53067 194.397 9.83467 194.824 10.24L193.688 10.56V4.912H195.608V12.176L195.464 11.344C195.667 11.664 195.805 11.9947 195.88 12.336C195.965 12.6667 196.008 13.04 196.008 13.456C196.008 14.5333 195.741 15.4773 195.208 16.288C194.675 17.0987 193.912 17.7333 192.92 18.192C191.928 18.6613 190.739 18.9333 189.352 19.008L189.064 17.328ZM192.136 14.032C192.413 14.032 192.659 13.9947 192.872 13.92C193.096 13.8347 193.288 13.7173 193.448 13.568C193.608 13.4187 193.731 13.2373 193.816 13.024C193.901 12.8107 193.944 12.576 193.944 12.32C193.944 11.776 193.779 11.3493 193.448 11.04C193.128 10.7307 192.691 10.576 192.136 10.576C191.592 10.576 191.149 10.7307 190.808 11.04C190.477 11.3493 190.312 11.776 190.312 12.32C190.312 12.832 190.477 13.248 190.808 13.568C191.139 13.8773 191.581 14.032 192.136 14.032ZM185.944 8.304V6.768H200.056V8.304H185.944Z" fill="white"/>
<defs>
<filter id="filter0_d_122_1934" x="183" y="61" width="66" height="66" filterUnits="userSpaceOnUse" color-interpolation-filters="sRGB">
<feFlood flood-opacity="0" result="BackgroundImageFix"/>
<feColorMatrix in="SourceAlpha" type="matrix" values="0 0 0 0 0 0 0 0 0 0 0 0 0 0 0 0 0 0 127 0" result="hardAlpha"/>
<feOffset/>
<feGaussianBlur stdDeviation="3"/>
<feComposite in2="hardAlpha" operator="out"/>
<feColorMatrix type="matrix" values="0 0 0 0 0.282353 0 0 0 0 0.737255 0 0 0 0 0.796078 0 0 0 0.25 0"/>
<feBlend mode="normal" in2="BackgroundImageFix" result="effect1_dropShadow_122_1934"/>
<feBlend mode="normal" in="SourceGraphic" in2="effect1_dropShadow_122_1934" result="shape"/>
</filter>
</defs>
</svg>
