<svg width="249" height="127" viewBox="0 0 249 127" fill="none" xmlns="http://www.w3.org/2000/svg">
<circle cx="159" cy="95" r="27" fill="#128FCD" fill-opacity="0.2"/>
<circle cx="159" cy="95" r="26" stroke="#48BCCB" stroke-opacity="0.4" stroke-width="2"/>
<path d="M156.552 101.116C156.552 100.108 156.66 99.16 156.876 98.272C157.092 97.384 157.488 96.532 158.064 95.716C158.64 94.876 159.444 94.096 160.476 93.376C161.292 92.8 161.952 92.272 162.456 91.792C162.96 91.312 163.308 90.844 163.5 90.388C163.716 89.932 163.824 89.476 163.824 89.02C163.824 88.084 163.404 87.412 162.564 87.004C161.748 86.572 160.44 86.356 158.64 86.356C157.368 86.356 156.108 86.464 154.86 86.68C153.612 86.872 152.304 87.196 150.936 87.652L150 83.728C151.368 83.296 152.856 82.96 154.464 82.72C156.072 82.48 157.668 82.36 159.252 82.36C165.444 82.36 168.54 84.364 168.54 88.372C168.54 89.284 168.384 90.124 168.072 90.892C167.784 91.636 167.304 92.368 166.632 93.088C165.96 93.808 165.072 94.552 163.968 95.32C163.248 95.824 162.672 96.388 162.24 97.012C161.808 97.636 161.508 98.296 161.34 98.992C161.172 99.688 161.064 100.396 161.016 101.116H156.552ZM156.228 109V104.104H161.34V109H156.228Z" fill="white"/>
<circle cx="222" cy="95" r="27" fill="#128FCD" fill-opacity="0.2"/>
<circle cx="222" cy="95" r="26" stroke="#48BCCB" stroke-opacity="0.4" stroke-width="2"/>
<path d="M213.036 105.328C217.74 105.328 221.568 104.992 224.52 104.32C227.472 103.624 229.632 102.568 231 101.152C232.392 99.712 233.088 97.852 233.088 95.572C233.088 93.028 232.248 91.108 230.568 89.812C228.888 88.516 226.38 87.868 223.044 87.868C221.796 87.868 220.428 87.964 218.94 88.156C217.452 88.348 215.748 88.648 213.828 89.056C211.932 89.464 209.712 90.004 207.168 90.676L206.268 86.392C210.108 85.456 213.408 84.784 216.168 84.376C218.952 83.944 221.352 83.728 223.368 83.728C226.44 83.728 229.044 84.172 231.18 85.06C233.316 85.924 234.936 87.208 236.04 88.912C237.144 90.616 237.696 92.704 237.696 95.176C237.696 99.856 235.644 103.396 231.54 105.796C227.436 108.196 221.364 109.396 213.324 109.396L213.036 105.328Z" fill="white"/>
<g filter="url(#filter0_d_122_1965)">
<rect x="69" y="67" width="54" height="54" fill="#128FCD" fill-opacity="0.2" shape-rendering="crispEdges"/>
<rect x="70" y="68" width="52" height="52" stroke="#48BCCB" stroke-opacity="0.5" stroke-width="2" shape-rendering="crispEdges"/>
</g>
<circle cx="87" cy="55" r="8" fill="#128FCD" fill-opacity="0.2"/>
<circle cx="87" cy="55" r="7.5" stroke="#48BCCB" stroke-opacity="0.4"/>
<path d="M86.32 56.81C86.32 56.53 86.35 56.2667 86.41 56.02C86.47 55.7733 86.58 55.5367 86.74 55.31C86.9 55.0767 87.1233 54.86 87.41 54.66C87.6367 54.5 87.82 54.3533 87.96 54.22C88.1 54.0867 88.1967 53.9567 88.25 53.83C88.31 53.7033 88.34 53.5767 88.34 53.45C88.34 53.19 88.2233 53.0033 87.99 52.89C87.7633 52.77 87.4 52.71 86.9 52.71C86.5467 52.71 86.1967 52.74 85.85 52.8C85.5033 52.8533 85.14 52.9433 84.76 53.07L84.5 51.98C84.88 51.86 85.2933 51.7667 85.74 51.7C86.1867 51.6333 86.63 51.6 87.07 51.6C88.79 51.6 89.65 52.1567 89.65 53.27C89.65 53.5233 89.6067 53.7567 89.52 53.97C89.44 54.1767 89.3067 54.38 89.12 54.58C88.9333 54.78 88.6867 54.9867 88.38 55.2C88.18 55.34 88.02 55.4967 87.9 55.67C87.78 55.8433 87.6967 56.0267 87.65 56.22C87.6033 56.4133 87.5733 56.61 87.56 56.81H86.32ZM86.23 59V57.64H87.65V59H86.23Z" fill="white"/>
<circle cx="105" cy="55" r="8" fill="#128FCD" fill-opacity="0.2"/>
<circle cx="105" cy="55" r="7.5" stroke="#48BCCB" stroke-opacity="0.4"/>
<path d="M104.32 56.81C104.32 56.53 104.35 56.2667 104.41 56.02C104.47 55.7733 104.58 55.5367 104.74 55.31C104.9 55.0767 105.123 54.86 105.41 54.66C105.637 54.5 105.82 54.3533 105.96 54.22C106.1 54.0867 106.197 53.9567 106.25 53.83C106.31 53.7033 106.34 53.5767 106.34 53.45C106.34 53.19 106.223 53.0033 105.99 52.89C105.763 52.77 105.4 52.71 104.9 52.71C104.547 52.71 104.197 52.74 103.85 52.8C103.503 52.8533 103.14 52.9433 102.76 53.07L102.5 51.98C102.88 51.86 103.293 51.7667 103.74 51.7C104.187 51.6333 104.63 51.6 105.07 51.6C106.79 51.6 107.65 52.1567 107.65 53.27C107.65 53.5233 107.607 53.7567 107.52 53.97C107.44 54.1767 107.307 54.38 107.12 54.58C106.933 54.78 106.687 54.9867 106.38 55.2C106.18 55.34 106.02 55.4967 105.9 55.67C105.78 55.8433 105.697 56.0267 105.65 56.22C105.603 56.4133 105.573 56.61 105.56 56.81H104.32ZM104.23 59V57.64H105.65V59H104.23Z" fill="white"/>
<g filter="url(#filter1_d_122_1965)">
<rect x="6" y="67" width="54" height="54" fill="#128FCD" fill-opacity="0.2" shape-rendering="crispEdges"/>
<rect x="7" y="68" width="52" height="52" stroke="#48BCCB" stroke-opacity="0.5" stroke-width="2" shape-rendering="crispEdges"/>
</g>
<circle cx="14" cy="55" r="8" fill="#128FCD" fill-opacity="0.2"/>
<circle cx="14" cy="55" r="7.5" stroke="#48BCCB" stroke-opacity="0.4"/>
<path d="M13.32 56.81C13.32 56.53 13.35 56.2667 13.41 56.02C13.47 55.7733 13.58 55.5367 13.74 55.31C13.9 55.0767 14.1233 54.86 14.41 54.66C14.6367 54.5 14.82 54.3533 14.96 54.22C15.1 54.0867 15.1967 53.9567 15.25 53.83C15.31 53.7033 15.34 53.5767 15.34 53.45C15.34 53.19 15.2233 53.0033 14.99 52.89C14.7633 52.77 14.4 52.71 13.9 52.71C13.5467 52.71 13.1967 52.74 12.85 52.8C12.5033 52.8533 12.14 52.9433 11.76 53.07L11.5 51.98C11.88 51.86 12.2933 51.7667 12.74 51.7C13.1867 51.6333 13.63 51.6 14.07 51.6C15.79 51.6 16.65 52.1567 16.65 53.27C16.65 53.5233 16.6067 53.7567 16.52 53.97C16.44 54.1767 16.3067 54.38 16.12 54.58C15.9333 54.78 15.6867 54.9867 15.38 55.2C15.18 55.34 15.02 55.4967 14.9 55.67C14.78 55.8433 14.6967 56.0267 14.65 56.22C14.6033 56.4133 14.5733 56.61 14.56 56.81H13.32ZM13.23 59V57.64H14.65V59H13.23Z" fill="white"/>
<circle cx="32" cy="55" r="8" fill="#128FCD" fill-opacity="0.2"/>
<circle cx="32" cy="55" r="7.5" stroke="#48BCCB" stroke-opacity="0.4"/>
<path d="M31.32 56.81C31.32 56.53 31.35 56.2667 31.41 56.02C31.47 55.7733 31.58 55.5367 31.74 55.31C31.9 55.0767 32.1233 54.86 32.41 54.66C32.6367 54.5 32.82 54.3533 32.96 54.22C33.1 54.0867 33.1967 53.9567 33.25 53.83C33.31 53.7033 33.34 53.5767 33.34 53.45C33.34 53.19 33.2233 53.0033 32.99 52.89C32.7633 52.77 32.4 52.71 31.9 52.71C31.5467 52.71 31.1967 52.74 30.85 52.8C30.5033 52.8533 30.14 52.9433 29.76 53.07L29.5 51.98C29.88 51.86 30.2933 51.7667 30.74 51.7C31.1867 51.6333 31.63 51.6 32.07 51.6C33.79 51.6 34.65 52.1567 34.65 53.27C34.65 53.5233 34.6067 53.7567 34.52 53.97C34.44 54.1767 34.3067 54.38 34.12 54.58C33.9333 54.78 33.6867 54.9867 33.38 55.2C33.18 55.34 33.02 55.4967 32.9 55.67C32.78 55.8433 32.6967 56.0267 32.65 56.22C32.6033 56.4133 32.5733 56.61 32.56 56.81H31.32ZM31.23 59V57.64H32.65V59H31.23Z" fill="white"/>
<circle cx="50" cy="55" r="8" fill="#128FCD" fill-opacity="0.2"/>
<circle cx="50" cy="55" r="7.5" stroke="#48BCCB" stroke-opacity="0.4"/>
<path d="M49.32 56.81C49.32 56.53 49.35 56.2667 49.41 56.02C49.47 55.7733 49.58 55.5367 49.74 55.31C49.9 55.0767 50.1233 54.86 50.41 54.66C50.6367 54.5 50.82 54.3533 50.96 54.22C51.1 54.0867 51.1967 53.9567 51.25 53.83C51.31 53.7033 51.34 53.5767 51.34 53.45C51.34 53.19 51.2233 53.0033 50.99 52.89C50.7633 52.77 50.4 52.71 49.9 52.71C49.5467 52.71 49.1967 52.74 48.85 52.8C48.5033 52.8533 48.14 52.9433 47.76 53.07L47.5 51.98C47.88 51.86 48.2933 51.7667 48.74 51.7C49.1867 51.6333 49.63 51.6 50.07 51.6C51.79 51.6 52.65 52.1567 52.65 53.27C52.65 53.5233 52.6067 53.7567 52.52 53.97C52.44 54.1767 52.3067 54.38 52.12 54.58C51.9333 54.78 51.6867 54.9867 51.38 55.2C51.18 55.34 51.02 55.4967 50.9 55.67C50.78 55.8433 50.6967 56.0267 50.65 56.22C50.6033 56.4133 50.5733 56.61 50.56 56.81H49.32ZM49.23 59V57.64H50.65V59H49.23Z" fill="white"/>
<path d="M86.4939 19.472V12.512H80.5099V10.912H86.4939V5.008H88.3499V10.912H94.3339V12.512H88.3499V19.472H86.4939ZM81.1659 18.832L80.0299 17.328C81.5125 16.3573 82.7819 15.3707 83.8379 14.368C84.9045 13.3653 85.7792 12.3413 86.4619 11.296L87.8539 12C87.1179 13.2693 86.1899 14.4747 85.0699 15.616C83.9499 16.7573 82.6485 17.8293 81.1659 18.832ZM83.1819 10.288C82.8512 9.584 82.5045 8.90133 82.1419 8.24C81.7899 7.568 81.4325 6.93333 81.0699 6.336L82.7819 5.68C83.1445 6.26667 83.5072 6.90133 83.8699 7.584C84.2325 8.256 84.5739 8.944 84.8939 9.648L83.1819 10.288ZM93.6779 18.832C92.1952 17.8293 90.8939 16.7573 89.7739 15.616C88.6539 14.4747 87.7259 13.2693 86.9899 12L88.3819 11.296C89.0645 12.3413 89.9339 13.3653 90.9899 14.368C92.0565 15.3707 93.3312 16.3573 94.8139 17.328L93.6779 18.832ZM91.6619 10.288L89.9499 9.632C90.3552 8.98133 90.7339 8.30933 91.0859 7.616C91.4485 6.92267 91.7579 6.25067 92.0139 5.6L93.7739 6.176C93.5072 6.848 93.1925 7.536 92.8299 8.24C92.4672 8.944 92.0779 9.62667 91.6619 10.288ZM106.19 15.216C105.955 15.216 105.699 15.2107 105.422 15.2C105.155 15.1787 104.883 15.1573 104.606 15.136V13.456C104.841 13.4667 105.07 13.4827 105.294 13.504C105.529 13.5147 105.742 13.52 105.934 13.52C106.969 13.52 107.715 13.3333 108.174 12.96C108.643 12.576 108.878 11.9733 108.878 11.152C108.878 9.78667 108.254 9.104 107.006 9.104C106.803 9.104 106.558 9.13067 106.27 9.184C105.993 9.22667 105.646 9.30133 105.23 9.408C104.825 9.51467 104.307 9.67467 103.678 9.888L96.2699 12.304L95.7099 10.608L103.134 8.192C103.763 7.97867 104.307 7.81333 104.766 7.696C105.235 7.568 105.657 7.47733 106.03 7.424C106.403 7.36 106.761 7.328 107.102 7.328C108.297 7.328 109.214 7.648 109.854 8.288C110.494 8.928 110.814 9.856 110.814 11.072C110.814 12.416 110.419 13.4453 109.63 14.16C108.851 14.864 107.705 15.216 106.19 15.216ZM101.406 19.184C101.043 17.7013 100.654 16.2187 100.238 14.736C99.8325 13.2427 99.4165 11.7813 98.9899 10.352C98.5739 8.912 98.1525 7.52533 97.7259 6.192L99.5179 5.696C99.9552 7.04 100.387 8.43733 100.814 9.888C101.241 11.328 101.657 12.8 102.062 14.304C102.478 15.7973 102.878 17.2907 103.262 18.784L101.406 19.184ZM104.35 12.32C104.126 11.4667 103.843 10.4747 103.502 9.344C103.171 8.20267 102.793 6.96533 102.366 5.632L104.174 5.152C104.409 5.84533 104.638 6.576 104.862 7.344C105.097 8.10133 105.321 8.864 105.534 9.632C105.758 10.4 105.955 11.1307 106.126 11.824L104.35 12.32ZM124.862 18.48C124.489 16.8373 124.094 15.3387 123.678 13.984C123.273 12.6293 122.809 11.3333 122.286 10.096L124.158 9.408C124.691 10.6453 125.171 11.9573 125.598 13.344C126.035 14.72 126.457 16.2667 126.862 17.984L124.862 18.48ZM111.982 17.536C112.622 16.3947 113.171 15.2267 113.63 14.032C114.099 12.8373 114.478 11.616 114.766 10.368C115.054 9.12 115.257 7.85067 115.374 6.56L117.374 6.688C117.267 8.064 117.059 9.424 116.75 10.768C116.451 12.112 116.057 13.424 115.566 14.704C115.086 15.984 114.505 17.216 113.822 18.4L111.982 17.536ZM123.502 8.992C123.086 8.992 122.707 8.89067 122.366 8.688C122.025 8.47467 121.747 8.19733 121.534 7.856C121.331 7.51467 121.23 7.136 121.23 6.72C121.23 6.304 121.331 5.92533 121.534 5.584C121.747 5.24267 122.025 4.97067 122.366 4.768C122.707 4.55467 123.086 4.448 123.502 4.448C123.918 4.448 124.297 4.55467 124.638 4.768C124.979 4.97067 125.251 5.24267 125.454 5.584C125.667 5.91467 125.774 6.29333 125.774 6.72C125.774 7.136 125.667 7.51467 125.454 7.856C125.251 8.19733 124.979 8.47467 124.638 8.688C124.307 8.89067 123.929 8.992 123.502 8.992ZM123.502 7.568C123.747 7.568 123.95 7.488 124.11 7.328C124.27 7.15733 124.35 6.95467 124.35 6.72C124.35 6.47467 124.27 6.272 124.11 6.112C123.95 5.952 123.747 5.872 123.502 5.872C123.267 5.872 123.065 5.952 122.894 6.112C122.734 6.272 122.654 6.47467 122.654 6.72C122.654 6.95467 122.734 7.15733 122.894 7.328C123.065 7.488 123.267 7.568 123.502 7.568ZM129.678 16.704C131.267 16.544 132.675 16.2507 133.902 15.824C135.139 15.3973 136.195 14.8213 137.07 14.096C137.955 13.36 138.686 12.4693 139.262 11.424C139.838 10.3787 140.265 9.15733 140.542 7.76L142.35 8.16C141.977 10.272 141.267 12.064 140.222 13.536C139.187 15.008 137.817 16.16 136.11 16.992C134.414 17.824 132.366 18.3467 129.966 18.56L129.678 16.704ZM134.446 10.256C133.593 9.73333 132.718 9.25333 131.822 8.816C130.937 8.37867 130.046 7.97867 129.15 7.616L130.03 5.92C131.854 6.624 133.651 7.504 135.422 8.56L134.446 10.256ZM152.094 18.592C150.942 18.592 150.041 18.336 149.39 17.824C148.75 17.3013 148.43 16.576 148.43 15.648C148.43 14.6987 148.75 13.968 149.39 13.456C150.03 12.944 150.931 12.688 152.094 12.688C152.595 12.688 153.081 12.752 153.55 12.88C154.019 12.9973 154.505 13.2107 155.006 13.52C155.507 13.8293 156.067 14.256 156.686 14.8C157.315 15.3333 158.051 16.016 158.894 16.848L157.71 18.112C156.953 17.344 156.297 16.7147 155.742 16.224C155.198 15.7227 154.718 15.3333 154.302 15.056C153.886 14.7787 153.491 14.5867 153.118 14.48C152.755 14.3627 152.382 14.304 151.998 14.304C150.761 14.304 150.142 14.752 150.142 15.648C150.142 16.5333 150.761 16.976 151.998 16.976C152.67 16.976 153.145 16.8373 153.422 16.56C153.71 16.272 153.854 15.8027 153.854 15.152V5.264H155.71V15.232C155.71 16.352 155.401 17.1947 154.782 17.76C154.174 18.3147 153.278 18.592 152.094 18.592ZM148.478 9.392V7.776H158.654V9.392H148.478ZM145.518 18.88C145.241 17.7813 145.038 16.6987 144.91 15.632C144.782 14.5653 144.718 13.4347 144.718 12.24C144.718 11.056 144.782 9.936 144.91 8.88C145.038 7.81333 145.235 6.73067 145.502 5.632L147.39 5.872C147.134 6.90667 146.942 7.94667 146.814 8.992C146.697 10.0267 146.638 11.1093 146.638 12.24C146.638 13.3707 146.697 14.4587 146.814 15.504C146.942 16.5493 147.134 17.5787 147.39 18.592L145.518 18.88ZM160.846 18V15.744H163.118V18H160.846ZM165.862 18V15.744H168.134V18H165.862ZM170.877 18V15.744H173.149V18H170.877Z" fill="white"/>
<defs>
<filter id="filter0_d_122_1965" x="63" y="61" width="66" height="66" filterUnits="userSpaceOnUse" color-interpolation-filters="sRGB">
<feFlood flood-opacity="0" result="BackgroundImageFix"/>
<feColorMatrix in="SourceAlpha" type="matrix" values="0 0 0 0 0 0 0 0 0 0 0 0 0 0 0 0 0 0 127 0" result="hardAlpha"/>
<feOffset/>
<feGaussianBlur stdDeviation="3"/>
<feComposite in2="hardAlpha" operator="out"/>
<feColorMatrix type="matrix" values="0 0 0 0 0.282353 0 0 0 0 0.737255 0 0 0 0 0.796078 0 0 0 0.25 0"/>
<feBlend mode="normal" in2="BackgroundImageFix" result="effect1_dropShadow_122_1965"/>
<feBlend mode="normal" in="SourceGraphic" in2="effect1_dropShadow_122_1965" result="shape"/>
</filter>
<filter id="filter1_d_122_1965" x="0" y="61" width="66" height="66" filterUnits="userSpaceOnUse" color-interpolation-filters="sRGB">
<feFlood flood-opacity="0" result="BackgroundImageFix"/>
<feColorMatrix in="SourceAlpha" type="matrix" values="0 0 0 0 0 0 0 0 0 0 0 0 0 0 0 0 0 0 127 0" result="hardAlpha"/>
<feOffset/>
<feGaussianBlur stdDeviation="3"/>
<feComposite in2="hardAlpha" operator="out"/>
<feColorMatrix type="matrix" values="0 0 0 0 0.282353 0 0 0 0 0.737255 0 0 0 0 0.796078 0 0 0 0.25 0"/>
<feBlend mode="normal" in2="BackgroundImageFix" result="effect1_dropShadow_122_1965"/>
<feBlend mode="normal" in="SourceGraphic" in2="effect1_dropShadow_122_1965" result="shape"/>
</filter>
</defs>
</svg>
