<svg width="144" height="127" viewBox="0 0 144 127" fill="none" xmlns="http://www.w3.org/2000/svg">
<circle cx="104" cy="95" r="27" fill="#128FCD" fill-opacity="0.2"/>
<circle cx="104" cy="95" r="26" stroke="#48BCCB" stroke-opacity="0.4" stroke-width="2"/>
<path d="M105.656 110.908C102.728 110.908 100.184 110.62 98.024 110.044C95.888 109.468 94.244 108.664 93.092 107.632C91.94 106.576 91.364 105.328 91.364 103.888C91.364 102.64 91.784 101.476 92.624 100.396C93.464 99.316 94.64 98.428 96.152 97.732L98.996 100.252C97.916 100.78 97.136 101.308 96.656 101.836C96.176 102.34 95.948 102.904 95.972 103.528C95.996 104.32 96.368 104.992 97.088 105.544C97.808 106.072 98.864 106.48 100.256 106.768C101.672 107.056 103.376 107.2 105.368 107.2C107.12 107.2 108.956 107.08 110.876 106.84C112.82 106.6 114.632 106.288 116.312 105.904L116.924 109.648C115.196 110.056 113.36 110.368 111.416 110.584C109.472 110.8 107.552 110.908 105.656 110.908ZM89.708 95.824V92.296L118.292 91.576V95.104L89.708 95.824ZM109.148 103.276C108.356 101.428 107.648 99.556 107.024 97.66C106.4 95.764 105.86 93.856 105.404 91.936C104.972 89.992 104.612 88.012 104.324 85.996C104.036 83.956 103.832 81.88 103.712 79.768L107.996 79.516C108.116 81.556 108.308 83.536 108.572 85.456C108.86 87.376 109.22 89.26 109.652 91.108C110.084 92.956 110.612 94.816 111.236 96.688C111.884 98.536 112.628 100.408 113.468 102.304L109.148 103.276ZM90.068 87.868V84.34L117.932 83.62V87.148L90.068 87.868Z" fill="white"/>
<g filter="url(#filter0_d_122_2146)">
<rect x="14" y="67" width="54" height="54" fill="#128FCD" fill-opacity="0.2" shape-rendering="crispEdges"/>
<rect x="15" y="68" width="52" height="52" stroke="#48BCCB" stroke-opacity="0.5" stroke-width="2" shape-rendering="crispEdges"/>
</g>
<circle cx="22" cy="55" r="8" fill="#128FCD" fill-opacity="0.2"/>
<circle cx="22" cy="55" r="7.5" stroke="#48BCCB" stroke-opacity="0.4"/>
<path d="M21.32 56.81C21.32 56.53 21.35 56.2667 21.41 56.02C21.47 55.7733 21.58 55.5367 21.74 55.31C21.9 55.0767 22.1233 54.86 22.41 54.66C22.6367 54.5 22.82 54.3533 22.96 54.22C23.1 54.0867 23.1967 53.9567 23.25 53.83C23.31 53.7033 23.34 53.5767 23.34 53.45C23.34 53.19 23.2233 53.0033 22.99 52.89C22.7633 52.77 22.4 52.71 21.9 52.71C21.5467 52.71 21.1967 52.74 20.85 52.8C20.5033 52.8533 20.14 52.9433 19.76 53.07L19.5 51.98C19.88 51.86 20.2933 51.7667 20.74 51.7C21.1867 51.6333 21.63 51.6 22.07 51.6C23.79 51.6 24.65 52.1567 24.65 53.27C24.65 53.5233 24.6067 53.7567 24.52 53.97C24.44 54.1767 24.3067 54.38 24.12 54.58C23.9333 54.78 23.6867 54.9867 23.38 55.2C23.18 55.34 23.02 55.4967 22.9 55.67C22.78 55.8433 22.6967 56.0267 22.65 56.22C22.6033 56.4133 22.5733 56.61 22.56 56.81H21.32ZM21.23 59V57.64H22.65V59H21.23Z" fill="white"/>
<circle cx="40" cy="55" r="8" fill="#128FCD" fill-opacity="0.2"/>
<circle cx="40" cy="55" r="7.5" stroke="#48BCCB" stroke-opacity="0.4"/>
<path d="M38.21 59.29C37.87 59.29 37.5567 59.1867 37.27 58.98C36.9833 58.7667 36.7333 58.47 36.52 58.09C36.3067 57.71 36.14 57.2633 36.02 56.75C35.9067 56.23 35.85 55.67 35.85 55.07C35.85 54.5833 35.89 54.07 35.97 53.53C36.0567 52.9833 36.1867 52.41 36.36 51.81L37.53 51.95C37.3767 52.5033 37.26 53.03 37.18 53.53C37.1 54.03 37.06 54.5 37.06 54.94C37.06 55.36 37.0933 55.7567 37.16 56.13C37.2267 56.5033 37.3167 56.83 37.43 57.11C37.55 57.39 37.6833 57.61 37.83 57.77C37.9833 57.93 38.1433 58.01 38.31 58.01C38.47 58.01 38.6433 57.9433 38.83 57.81C39.0233 57.67 39.22 57.4833 39.42 57.25C39.62 57.0167 39.8067 56.75 39.98 56.45C40.16 56.15 40.31 55.8367 40.43 55.51L41.5 56.05C41.3333 56.5033 41.1267 56.9267 40.88 57.32C40.6333 57.7133 40.36 58.06 40.06 58.36C39.7667 58.6533 39.46 58.88 39.14 59.04C38.82 59.2067 38.51 59.29 38.21 59.29ZM43.23 58.32C43.23 57.56 43.1767 56.8033 43.07 56.05C42.97 55.2967 42.82 54.5733 42.62 53.88C42.4267 53.1867 42.1933 52.55 41.92 51.97L43.03 51.64C43.3367 52.2467 43.59 52.91 43.79 53.63C43.9967 54.3433 44.1533 55.0967 44.26 55.89C44.3733 56.6767 44.43 57.4867 44.43 58.32H43.23Z" fill="white"/>
<circle cx="58" cy="55" r="8" fill="#128FCD" fill-opacity="0.2"/>
<circle cx="58" cy="55" r="7.5" stroke="#48BCCB" stroke-opacity="0.4"/>
<path d="M57.32 56.81C57.32 56.53 57.35 56.2667 57.41 56.02C57.47 55.7733 57.58 55.5367 57.74 55.31C57.9 55.0767 58.1233 54.86 58.41 54.66C58.6367 54.5 58.82 54.3533 58.96 54.22C59.1 54.0867 59.1967 53.9567 59.25 53.83C59.31 53.7033 59.34 53.5767 59.34 53.45C59.34 53.19 59.2233 53.0033 58.99 52.89C58.7633 52.77 58.4 52.71 57.9 52.71C57.5467 52.71 57.1967 52.74 56.85 52.8C56.5033 52.8533 56.14 52.9433 55.76 53.07L55.5 51.98C55.88 51.86 56.2933 51.7667 56.74 51.7C57.1867 51.6333 57.63 51.6 58.07 51.6C59.79 51.6 60.65 52.1567 60.65 53.27C60.65 53.5233 60.6067 53.7567 60.52 53.97C60.44 54.1767 60.3067 54.38 60.12 54.58C59.9333 54.78 59.6867 54.9867 59.38 55.2C59.18 55.34 59.02 55.4967 58.9 55.67C58.78 55.8433 58.6967 56.0267 58.65 56.22C58.6033 56.4133 58.5733 56.61 58.56 56.81H57.32ZM57.23 59V57.64H58.65V59H57.23Z" fill="white"/>
<path d="M2.304 15.2V8.24H14.192V15.2H4.176V13.776H12.32V12.352H9.072V13.776H7.28V12.352H4.176V11.056H7.28V9.712H9.072V11.056H12.32V9.712H4.176V15.2H2.304ZM2.256 19.552L0.752 18.608C1.168 18.0747 1.54667 17.5467 1.888 17.024C2.24 16.5013 2.58133 15.952 2.912 15.376L4.48 16.16C3.85067 17.3547 3.10933 18.4853 2.256 19.552ZM5.696 19.504C5.632 18.9387 5.552 18.368 5.456 17.792C5.37067 17.216 5.26933 16.6133 5.152 15.984L6.96 15.744C7.088 16.3627 7.19467 16.9653 7.28 17.552C7.36533 18.1387 7.44 18.7147 7.504 19.28L5.696 19.504ZM9.584 19.472C9.424 18.9173 9.24267 18.3573 9.04 17.792C8.83733 17.2267 8.61333 16.6347 8.368 16.016L10.08 15.568C10.3253 16.1867 10.5493 16.784 10.752 17.36C10.9653 17.9253 11.152 18.4907 11.312 19.056L9.584 19.472ZM1.552 11.312L0.688 9.728C1.296 9.22667 1.856 8.69333 2.368 8.128C2.88 7.552 3.33867 6.95467 3.744 6.336C4.16 5.71733 4.50133 5.09333 4.768 4.464L6.64 4.752C6.448 5.296 6.18667 5.86133 5.856 6.448C5.52533 7.024 5.14133 7.6 4.704 8.176C4.26667 8.752 3.78133 9.30667 3.248 9.84C2.71467 10.3733 2.14933 10.864 1.552 11.312ZM13.728 19.472C13.408 18.9173 13.072 18.368 12.72 17.824C12.368 17.28 11.984 16.7147 11.568 16.128L13.072 15.28C13.488 15.856 13.8773 16.4267 14.24 16.992C14.6027 17.5467 14.9387 18.0907 15.248 18.624L13.728 19.472ZM4.576 7.056V5.568H11.312V7.056H4.576ZM8.512 9.664L7.136 8.768C7.43467 8.53333 7.744 8.27733 8.064 8C8.384 7.72267 8.688 7.44 8.976 7.152C9.27467 6.864 9.52533 6.59733 9.728 6.352L11.312 7.056C10.9813 7.45067 10.5653 7.88267 10.064 8.352C9.57333 8.81067 9.056 9.248 8.512 9.664ZM25.36 16.832C25.9253 16.768 26.4427 16.608 26.912 16.352C27.392 16.0853 27.8027 15.7493 28.144 15.344C28.496 14.928 28.768 14.4533 28.96 13.92C29.152 13.3867 29.248 12.8107 29.248 12.192C29.248 11.3173 29.0453 10.5547 28.64 9.904C28.2347 9.24267 27.6693 8.736 26.944 8.384C26.2293 8.032 25.3973 7.856 24.448 7.856C23.6373 7.856 22.8853 7.98933 22.192 8.256C21.4987 8.52267 20.8853 8.896 20.352 9.376C19.8293 9.84533 19.4187 10.4 19.12 11.04C18.8213 11.6693 18.672 12.3467 18.672 13.072C18.672 13.5947 18.7573 14.096 18.928 14.576C19.0987 15.056 19.312 15.4507 19.568 15.76C19.8347 16.0587 20.112 16.208 20.4 16.208C20.816 16.208 21.216 15.8293 21.6 15.072C21.984 14.3147 22.3307 13.2267 22.64 11.808C22.96 10.3787 23.2267 8.66667 23.44 6.672L25.296 6.864C25.0613 8.848 24.7947 10.5493 24.496 11.968C24.1973 13.3867 23.856 14.5493 23.472 15.456C23.088 16.3627 22.6507 17.0347 22.16 17.472C21.6693 17.8987 21.1147 18.112 20.496 18.112C19.984 18.112 19.5093 17.984 19.072 17.728C18.6347 17.472 18.256 17.1147 17.936 16.656C17.616 16.1973 17.3653 15.664 17.184 15.056C17.0027 14.4373 16.912 13.776 16.912 13.072C16.912 12.0693 17.0987 11.1467 17.472 10.304C17.8453 9.45067 18.368 8.71467 19.04 8.096C19.712 7.47733 20.5067 6.99733 21.424 6.656C22.352 6.304 23.3653 6.128 24.464 6.128C25.7547 6.128 26.896 6.37333 27.888 6.864C28.8907 7.35467 29.6747 8.05333 30.24 8.96C30.8053 9.86667 31.088 10.944 31.088 12.192C31.088 13.0347 30.96 13.8187 30.704 14.544C30.4587 15.2693 30.1067 15.9147 29.648 16.48C29.1893 17.0347 28.64 17.488 28 17.84C27.36 18.192 26.6507 18.416 25.872 18.512L25.36 16.832ZM34.016 19.392L32.576 17.936C32.8533 17.6267 33.0987 17.3013 33.312 16.96C33.5253 16.6187 33.7067 16.2187 33.856 15.76C34.0053 15.3013 34.1227 14.7467 34.208 14.096C34.304 13.4453 34.3733 12.6507 34.416 11.712C34.4587 10.7733 34.48 9.65333 34.48 8.352V7.056H32.88V5.472H41.808V7.056H40.112V10.832H41.808V12.416H40.112V19.232H38.256V12.416H32.72V10.832H38.256V7.056H36.32V8.352C36.32 9.74933 36.288 10.9707 36.224 12.016C36.1707 13.0507 36.0853 13.952 35.968 14.72C35.8613 15.4773 35.7173 16.1333 35.536 16.688C35.3547 17.232 35.136 17.7227 34.88 18.16C34.6347 18.5973 34.3467 19.008 34.016 19.392ZM41.52 19.264L40.544 17.744C41.3547 17.4347 42.096 17.0987 42.768 16.736C43.44 16.3627 44.0693 15.9467 44.656 15.488C45.2427 15.0187 45.8133 14.4853 46.368 13.888L47.632 15.072C47.056 15.7227 46.4587 16.304 45.84 16.816C45.232 17.3173 44.5707 17.7653 43.856 18.16C43.152 18.5653 42.3733 18.9333 41.52 19.264ZM41.968 14.336L41.04 12.816C42.1067 12.3787 43.056 11.8827 43.888 11.328C44.72 10.7733 45.4827 10.1067 46.176 9.328L47.44 10.464C46.928 11.04 46.3947 11.5573 45.84 12.016C45.296 12.4747 44.7093 12.8907 44.08 13.264C43.4507 13.6373 42.7467 13.9947 41.968 14.336ZM41.936 9.728L41.04 8.208C42.0533 7.81333 42.96 7.36533 43.76 6.864C44.5707 6.36267 45.3067 5.78133 45.968 5.12L47.216 6.272C46.736 6.77333 46.2293 7.232 45.696 7.648C45.1627 8.05333 44.5867 8.42667 43.968 8.768C43.3493 9.10933 42.672 9.42933 41.936 9.728ZM57.248 15.696C57.248 14.4587 57.1733 13.4827 57.024 12.768C56.8853 12.0427 56.6453 11.5253 56.304 11.216C55.9733 10.9067 55.5147 10.752 54.928 10.752C54.416 10.752 53.92 10.8747 53.44 11.12C52.9707 11.3653 52.496 11.76 52.016 12.304C51.5467 12.8373 51.0293 13.552 50.464 14.448L48.896 13.552C49.4293 12.7307 49.8987 11.9733 50.304 11.28C50.72 10.5867 51.0933 9.90933 51.424 9.248C51.7653 8.576 52.0747 7.89333 52.352 7.2C52.64 6.496 52.9173 5.73333 53.184 4.912L55.072 5.216C54.7413 6.208 54.3893 7.12533 54.016 7.968C53.6427 8.8 53.232 9.62667 52.784 10.448L52.352 10.192C52.8213 9.89333 53.3227 9.66933 53.856 9.52C54.4 9.36 54.944 9.28 55.488 9.28C56.3733 9.28 57.0827 9.49333 57.616 9.92C58.16 10.3467 58.5547 11.0347 58.8 11.984C59.0453 12.9227 59.168 14.16 59.168 15.696H57.248ZM57.088 18.944C55.4453 18.944 54.16 18.6933 53.232 18.192C52.304 17.7013 51.84 17.0133 51.84 16.128C51.84 15.5093 52.0747 14.9013 52.544 14.304C53.0133 13.696 53.6907 13.1253 54.576 12.592C55.472 12.0587 56.544 11.568 57.792 11.12C59.0507 10.672 60.4693 10.2827 62.048 9.952L62.336 11.52C61.024 11.7973 59.84 12.112 58.784 12.464C57.7387 12.816 56.8373 13.1893 56.08 13.584C55.3333 13.968 54.7573 14.3627 54.352 14.768C53.9467 15.1733 53.744 15.568 53.744 15.952C53.744 16.4 54.032 16.752 54.608 17.008C55.1947 17.2533 56.0267 17.376 57.104 17.376C57.7653 17.376 58.5013 17.3333 59.312 17.248C60.1227 17.152 60.9973 17.0187 61.936 16.848L62.192 18.448C61.648 18.544 61.072 18.6293 60.464 18.704C59.856 18.7787 59.2587 18.8373 58.672 18.88C58.096 18.9227 57.568 18.944 57.088 18.944ZM48.944 8.096V6.576H61.696V8.096H48.944ZM71.712 18.832C70.496 18.832 69.4987 18.64 68.72 18.256C67.952 17.8827 67.3813 17.3013 67.008 16.512C66.6453 15.7227 66.464 14.7093 66.464 13.472V5.68H68.416V13.472C68.416 14.72 68.6773 15.6267 69.2 16.192C69.7227 16.7467 70.56 17.024 71.712 17.024C72.5547 17.024 73.296 16.8693 73.936 16.56C74.5867 16.2507 75.1733 15.7493 75.696 15.056C76.2293 14.352 76.7413 13.4187 77.232 12.256L79.008 12.976C78.5813 14.0427 78.1227 14.9493 77.632 15.696C77.152 16.432 76.624 17.0347 76.048 17.504C75.4827 17.9627 74.8427 18.2987 74.128 18.512C73.4133 18.7253 72.608 18.832 71.712 18.832ZM91.072 18.592C89.7813 18.592 88.656 18.3733 87.696 17.936C86.7467 17.4987 86.0107 16.88 85.488 16.08C84.9653 15.2693 84.704 14.32 84.704 13.232C84.704 12.3787 84.8587 11.5947 85.168 10.88C85.488 10.1547 85.936 9.52 86.512 8.976C87.0987 8.42133 87.792 8 88.592 7.712L88.752 8.208L81.136 8.384V6.672L94.624 6.352V8.064L92.592 8.112C91.76 8.13333 90.9867 8.26133 90.272 8.496C89.568 8.73067 88.9493 9.06667 88.416 9.504C87.8827 9.94133 87.4667 10.4587 87.168 11.056C86.88 11.6427 86.736 12.304 86.736 13.04C86.736 13.8293 86.912 14.512 87.264 15.088C87.616 15.6533 88.112 16.0853 88.752 16.384C89.4027 16.6827 90.1813 16.832 91.088 16.832C91.3867 16.832 91.728 16.816 92.112 16.784C92.5067 16.752 92.848 16.7093 93.136 16.656L93.344 18.416C93.0027 18.4693 92.624 18.512 92.208 18.544C91.8027 18.576 91.424 18.592 91.072 18.592ZM101.136 18.464C100.592 18.464 100.091 18.2987 99.632 17.968C99.1733 17.6267 98.7733 17.152 98.432 16.544C98.0907 15.936 97.824 15.2213 97.632 14.4C97.4507 13.568 97.36 12.672 97.36 11.712C97.36 10.9333 97.424 10.112 97.552 9.248C97.6907 8.37333 97.8987 7.456 98.176 6.496L100.048 6.72C99.8027 7.60533 99.616 8.448 99.488 9.248C99.36 10.048 99.296 10.8 99.296 11.504C99.296 12.176 99.3493 12.8107 99.456 13.408C99.5627 14.0053 99.7067 14.528 99.888 14.976C100.08 15.424 100.293 15.776 100.528 16.032C100.773 16.288 101.029 16.416 101.296 16.416C101.552 16.416 101.829 16.3093 102.128 16.096C102.437 15.872 102.752 15.5733 103.072 15.2C103.392 14.8267 103.691 14.4 103.968 13.92C104.256 13.44 104.496 12.9387 104.688 12.416L106.4 13.28C106.133 14.0053 105.803 14.6827 105.408 15.312C105.013 15.9413 104.576 16.496 104.096 16.976C103.627 17.4453 103.136 17.808 102.624 18.064C102.112 18.3307 101.616 18.464 101.136 18.464ZM109.168 16.912C109.168 15.696 109.083 14.4853 108.912 13.28C108.752 12.0747 108.512 10.9173 108.192 9.808C107.883 8.69867 107.509 7.68 107.072 6.752L108.848 6.224C109.339 7.19467 109.744 8.256 110.064 9.408C110.395 10.5493 110.645 11.7547 110.816 13.024C110.997 14.2827 111.088 15.5787 111.088 16.912H109.168ZM117.872 18.848C116.613 18.848 115.637 18.5973 114.944 18.096C114.261 17.6053 113.92 16.9013 113.92 15.984C113.92 15.0667 114.261 14.368 114.944 13.888C115.627 13.408 116.603 13.168 117.872 13.168C118.565 13.168 119.237 13.2427 119.888 13.392C120.539 13.5413 121.195 13.7813 121.856 14.112C122.528 14.4427 123.232 14.8747 123.968 15.408C124.704 15.9307 125.499 16.5707 126.352 17.328L125.136 18.544C124.325 17.8507 123.584 17.264 122.912 16.784C122.251 16.2933 121.637 15.8987 121.072 15.6C120.507 15.2907 119.963 15.072 119.44 14.944C118.928 14.8053 118.405 14.736 117.872 14.736C116.507 14.736 115.824 15.1413 115.824 15.952C115.824 16.368 115.995 16.688 116.336 16.912C116.677 17.1253 117.179 17.232 117.84 17.232C118.629 17.232 119.211 17.0667 119.584 16.736C119.957 16.4053 120.144 15.8987 120.144 15.216V5.136H121.952V15.216C121.952 16.4213 121.611 17.328 120.928 17.936C120.256 18.544 119.237 18.848 117.872 18.848ZM113.808 11.632V10.048H126.192V11.632H113.808ZM113.648 8.368V6.752H126.352V8.368H113.648ZM132.064 17.328C133.024 17.2853 133.883 17.1253 134.64 16.848C135.397 16.56 135.995 16.192 136.432 15.744C136.88 15.296 137.104 14.8053 137.104 14.272V13.904L137.904 14.112C137.787 14.3253 137.627 14.5227 137.424 14.704C137.221 14.8853 136.981 15.0453 136.704 15.184C136.437 15.312 136.139 15.4133 135.808 15.488C135.488 15.5627 135.157 15.6 134.816 15.6C134.112 15.6 133.504 15.4667 132.992 15.2C132.48 14.9227 132.08 14.5387 131.792 14.048C131.515 13.5573 131.376 12.9813 131.376 12.32C131.376 11.648 131.525 11.0667 131.824 10.576C132.123 10.0853 132.539 9.70667 133.072 9.44C133.616 9.16267 134.251 9.024 134.976 9.024C135.573 9.024 136.091 9.12533 136.528 9.328C136.965 9.53067 137.397 9.83467 137.824 10.24L136.688 10.56V4.912H138.608V12.176L138.464 11.344C138.667 11.664 138.805 11.9947 138.88 12.336C138.965 12.6667 139.008 13.04 139.008 13.456C139.008 14.5333 138.741 15.4773 138.208 16.288C137.675 17.0987 136.912 17.7333 135.92 18.192C134.928 18.6613 133.739 18.9333 132.352 19.008L132.064 17.328ZM135.136 14.032C135.413 14.032 135.659 13.9947 135.872 13.92C136.096 13.8347 136.288 13.7173 136.448 13.568C136.608 13.4187 136.731 13.2373 136.816 13.024C136.901 12.8107 136.944 12.576 136.944 12.32C136.944 11.776 136.779 11.3493 136.448 11.04C136.128 10.7307 135.691 10.576 135.136 10.576C134.592 10.576 134.149 10.7307 133.808 11.04C133.477 11.3493 133.312 11.776 133.312 12.32C133.312 12.832 133.477 13.248 133.808 13.568C134.139 13.8773 134.581 14.032 135.136 14.032ZM128.944 8.304V6.768H143.056V8.304H128.944Z" fill="white"/>
<defs>
<filter id="filter0_d_122_2146" x="8" y="61" width="66" height="66" filterUnits="userSpaceOnUse" color-interpolation-filters="sRGB">
<feFlood flood-opacity="0" result="BackgroundImageFix"/>
<feColorMatrix in="SourceAlpha" type="matrix" values="0 0 0 0 0 0 0 0 0 0 0 0 0 0 0 0 0 0 127 0" result="hardAlpha"/>
<feOffset/>
<feGaussianBlur stdDeviation="3"/>
<feComposite in2="hardAlpha" operator="out"/>
<feColorMatrix type="matrix" values="0 0 0 0 0.282353 0 0 0 0 0.737255 0 0 0 0 0.796078 0 0 0 0.25 0"/>
<feBlend mode="normal" in2="BackgroundImageFix" result="effect1_dropShadow_122_2146"/>
<feBlend mode="normal" in="SourceGraphic" in2="effect1_dropShadow_122_2146" result="shape"/>
</filter>
</defs>
</svg>
