<svg width="186" height="127" viewBox="0 0 186 127" fill="none" xmlns="http://www.w3.org/2000/svg">
<circle cx="27" cy="95" r="27" fill="#128FCD" fill-opacity="0.2"/>
<circle cx="27" cy="95" r="26" stroke="#48BCCB" stroke-opacity="0.4" stroke-width="2"/>
<path d="M24.552 101.116C24.552 100.108 24.66 99.16 24.876 98.272C25.092 97.384 25.488 96.532 26.064 95.716C26.64 94.876 27.444 94.096 28.476 93.376C29.292 92.8 29.952 92.272 30.456 91.792C30.96 91.312 31.308 90.844 31.5 90.388C31.716 89.932 31.824 89.476 31.824 89.02C31.824 88.084 31.404 87.412 30.564 87.004C29.748 86.572 28.44 86.356 26.64 86.356C25.368 86.356 24.108 86.464 22.86 86.68C21.612 86.872 20.304 87.196 18.936 87.652L18 83.728C19.368 83.296 20.856 82.96 22.464 82.72C24.072 82.48 25.668 82.36 27.252 82.36C33.444 82.36 36.54 84.364 36.54 88.372C36.54 89.284 36.384 90.124 36.072 90.892C35.784 91.636 35.304 92.368 34.632 93.088C33.96 93.808 33.072 94.552 31.968 95.32C31.248 95.824 30.672 96.388 30.24 97.012C29.808 97.636 29.508 98.296 29.34 98.992C29.172 99.688 29.064 100.396 29.016 101.116H24.552ZM24.228 109V104.104H29.34V109H24.228Z" fill="white"/>
<g filter="url(#filter0_d_122_1967)">
<rect x="63" y="67" width="54" height="54" fill="#128FCD" fill-opacity="0.2" shape-rendering="crispEdges"/>
<rect x="64" y="68" width="52" height="52" stroke="#48BCCB" stroke-opacity="0.5" stroke-width="2" shape-rendering="crispEdges"/>
</g>
<circle cx="81" cy="55" r="8" fill="#128FCD" fill-opacity="0.2"/>
<circle cx="81" cy="55" r="7.5" stroke="#48BCCB" stroke-opacity="0.4"/>
<path d="M80.32 56.81C80.32 56.53 80.35 56.2667 80.41 56.02C80.47 55.7733 80.58 55.5367 80.74 55.31C80.9 55.0767 81.1233 54.86 81.41 54.66C81.6367 54.5 81.82 54.3533 81.96 54.22C82.1 54.0867 82.1967 53.9567 82.25 53.83C82.31 53.7033 82.34 53.5767 82.34 53.45C82.34 53.19 82.2233 53.0033 81.99 52.89C81.7633 52.77 81.4 52.71 80.9 52.71C80.5467 52.71 80.1967 52.74 79.85 52.8C79.5033 52.8533 79.14 52.9433 78.76 53.07L78.5 51.98C78.88 51.86 79.2933 51.7667 79.74 51.7C80.1867 51.6333 80.63 51.6 81.07 51.6C82.79 51.6 83.65 52.1567 83.65 53.27C83.65 53.5233 83.6067 53.7567 83.52 53.97C83.44 54.1767 83.3067 54.38 83.12 54.58C82.9333 54.78 82.6867 54.9867 82.38 55.2C82.18 55.34 82.02 55.4967 81.9 55.67C81.78 55.8433 81.6967 56.0267 81.65 56.22C81.6033 56.4133 81.5733 56.61 81.56 56.81H80.32ZM80.23 59V57.64H81.65V59H80.23Z" fill="white"/>
<circle cx="99" cy="55" r="8" fill="#128FCD" fill-opacity="0.2"/>
<circle cx="99" cy="55" r="7.5" stroke="#48BCCB" stroke-opacity="0.4"/>
<path d="M96.13 58.4C97.4167 58.4 98.4533 58.29 99.24 58.07C100.033 57.85 100.607 57.4933 100.96 57C101.32 56.5 101.5 55.8567 101.5 55.07C101.5 54.27 101.33 53.6733 100.99 53.28C100.657 52.88 100.143 52.68 99.45 52.68C99.0633 52.68 98.7 52.7433 98.36 52.87C98.0267 52.9967 97.7333 53.1767 97.48 53.41C97.2267 53.6433 97.0233 53.92 96.87 54.24C96.7233 54.56 96.65 54.9133 96.65 55.3V56.61H95.49V51.35H96.65V53.48H96.2C96.44 53.0667 96.7233 52.7167 97.05 52.43C97.3833 52.1433 97.76 51.9267 98.18 51.78C98.6067 51.6267 99.07 51.55 99.57 51.55C100.59 51.55 101.37 51.8533 101.91 52.46C102.457 53.06 102.73 53.93 102.73 55.07C102.73 56.0967 102.497 56.9367 102.03 57.59C101.57 58.2433 100.86 58.7233 99.9 59.03C98.94 59.3433 97.7033 59.5 96.19 59.5L96.13 58.4Z" fill="white"/>
<g filter="url(#filter1_d_122_1967)">
<rect x="126" y="67" width="54" height="54" fill="#128FCD" fill-opacity="0.2" shape-rendering="crispEdges"/>
<rect x="127" y="68" width="52" height="52" stroke="#48BCCB" stroke-opacity="0.5" stroke-width="2" shape-rendering="crispEdges"/>
</g>
<circle cx="144" cy="55" r="8" fill="#128FCD" fill-opacity="0.2"/>
<circle cx="144" cy="55" r="7.5" stroke="#48BCCB" stroke-opacity="0.4"/>
<path d="M139.87 59.42C140.15 58.52 140.403 57.6067 140.63 56.68C140.863 55.7467 141.067 54.8 141.24 53.84C141.42 52.8733 141.573 51.9 141.7 50.92L142.89 50.97C142.777 51.93 142.63 52.9 142.45 53.88C142.277 54.86 142.073 55.8333 141.84 56.8C141.607 57.76 141.347 58.7033 141.06 59.63L139.87 59.42ZM146.07 59.43C145.463 59.43 144.937 59.3567 144.49 59.21C144.043 59.07 143.697 58.8733 143.45 58.62C143.203 58.36 143.08 58.05 143.08 57.69C143.08 57.4233 143.17 57.16 143.35 56.9C143.53 56.64 143.807 56.37 144.18 56.09L145.08 56.73C144.827 56.89 144.637 57.04 144.51 57.18C144.39 57.3133 144.33 57.4467 144.33 57.58C144.33 57.7333 144.4 57.87 144.54 57.99C144.687 58.1033 144.89 58.1933 145.15 58.26C145.417 58.3267 145.723 58.36 146.07 58.36C146.383 58.36 146.703 58.3433 147.03 58.31C147.357 58.2767 147.697 58.2267 148.05 58.16L148.18 59.23C147.813 59.2967 147.46 59.3467 147.12 59.38C146.78 59.4133 146.43 59.43 146.07 59.43ZM139.73 53.21V52.17H146.77V53.21H139.73ZM143.47 54.34C144.257 54.2667 145.027 54.21 145.78 54.17C146.54 54.13 147.3 54.11 148.06 54.11V55.16C147.313 55.16 146.563 55.18 145.81 55.22C145.063 55.2533 144.307 55.3133 143.54 55.4L143.47 54.34Z" fill="white"/>
<circle cx="162" cy="55" r="8" fill="#128FCD" fill-opacity="0.2"/>
<circle cx="162" cy="55" r="7.5" stroke="#48BCCB" stroke-opacity="0.4"/>
<path d="M161.32 56.81C161.32 56.53 161.35 56.2667 161.41 56.02C161.47 55.7733 161.58 55.5367 161.74 55.31C161.9 55.0767 162.123 54.86 162.41 54.66C162.637 54.5 162.82 54.3533 162.96 54.22C163.1 54.0867 163.197 53.9567 163.25 53.83C163.31 53.7033 163.34 53.5767 163.34 53.45C163.34 53.19 163.223 53.0033 162.99 52.89C162.763 52.77 162.4 52.71 161.9 52.71C161.547 52.71 161.197 52.74 160.85 52.8C160.503 52.8533 160.14 52.9433 159.76 53.07L159.5 51.98C159.88 51.86 160.293 51.7667 160.74 51.7C161.187 51.6333 161.63 51.6 162.07 51.6C163.79 51.6 164.65 52.1567 164.65 53.27C164.65 53.5233 164.607 53.7567 164.52 53.97C164.44 54.1767 164.307 54.38 164.12 54.58C163.933 54.78 163.687 54.9867 163.38 55.2C163.18 55.34 163.02 55.4967 162.9 55.67C162.78 55.8433 162.697 56.0267 162.65 56.22C162.603 56.4133 162.573 56.61 162.56 56.81H161.32ZM161.23 59V57.64H162.65V59H161.23Z" fill="white"/>
<path d="M17.84 18.768C16.592 18.768 15.4987 18.624 14.56 18.336C13.632 18.0587 12.912 17.664 12.4 17.152C11.8987 16.64 11.648 16.0427 11.648 15.36C11.648 14.784 11.8293 14.1707 12.192 13.52C12.5653 12.8587 13.1307 12.128 13.888 11.328L15.536 12.192C14.9173 12.8107 14.448 13.3707 14.128 13.872C13.808 14.3733 13.648 14.8053 13.648 15.168C13.648 15.5413 13.8187 15.872 14.16 16.16C14.512 16.448 15.0027 16.672 15.632 16.832C16.2613 16.9813 16.9973 17.056 17.84 17.056C18.3733 17.056 18.96 17.024 19.6 16.96C20.24 16.896 20.8693 16.8107 21.488 16.704C22.1173 16.5867 22.6667 16.4587 23.136 16.32L23.52 18.032C23.0507 18.1707 22.4853 18.2933 21.824 18.4C21.1733 18.5173 20.496 18.608 19.792 18.672C19.0987 18.736 18.448 18.768 17.84 18.768ZM12.448 7.904V6.192H23.072V7.904H12.448ZM21.152 13.6C20.9067 13.056 20.64 12.5387 20.352 12.048C20.0747 11.5467 19.7547 11.0347 19.392 10.512L20.784 9.744C21.1467 10.2667 21.472 10.784 21.76 11.296C22.048 11.7973 22.32 12.3307 22.576 12.896L21.152 13.6ZM23.584 12.688C23.3493 12.1333 23.0933 11.6107 22.816 11.12C22.5493 10.6187 22.2453 10.1067 21.904 9.584L23.28 8.848C23.632 9.38133 23.9467 9.904 24.224 10.416C24.512 10.928 24.7733 11.472 25.008 12.048L23.584 12.688ZM33.712 19.248L32.528 17.632C32.7733 17.28 32.992 16.912 33.184 16.528C33.3867 16.1333 33.5573 15.7173 33.696 15.28C33.8347 14.8427 33.952 14.3627 34.048 13.84C34.1547 13.3173 34.2293 12.7467 34.272 12.128C34.3147 11.4987 34.336 10.8107 34.336 10.064V5.472H41.472V7.056H36.128V11.424C36.128 12.4907 36.032 13.4987 35.84 14.448C35.6587 15.3867 35.3867 16.2613 35.024 17.072C34.6613 17.8827 34.224 18.608 33.712 19.248ZM26.832 19.248L26.528 17.744C27.52 17.5413 28.5067 17.3067 29.488 17.04C30.48 16.7733 31.472 16.4533 32.464 16.08L32.976 17.472C31.952 17.8667 30.9227 18.208 29.888 18.496C28.864 18.7947 27.8453 19.0453 26.832 19.248ZM32.368 18.832C32.144 18.2667 31.8827 17.6533 31.584 16.992C31.2853 16.32 30.992 15.6907 30.704 15.104L32.304 14.528C32.592 15.1253 32.8853 15.7493 33.184 16.4C33.4827 17.0507 33.744 17.664 33.968 18.24L32.368 18.832ZM27.552 18.288V8.416H29.968V7.104H31.728V8.416H33.632V14.352H29.408V12.976H31.904V11.936H29.408V10.688H31.904V9.68H29.408V18.288H27.552ZM35.216 19.328L34.416 17.728C35.344 17.2693 36.144 16.6933 36.816 16C37.4987 15.296 38.0533 14.4533 38.48 13.472C38.9173 12.48 39.2267 11.312 39.408 9.968L41.152 10.544C40.9173 12.0373 40.5387 13.3493 40.016 14.48C39.4933 15.6 38.832 16.56 38.032 17.36C37.232 18.16 36.2933 18.816 35.216 19.328ZM26.768 9.728L26.304 7.888C26.9653 7.45067 27.568 6.99733 28.112 6.528C28.6667 6.05867 29.2 5.54667 29.712 4.992H31.792C32.2187 5.376 32.6613 5.74933 33.12 6.112C33.5787 6.464 34.08 6.81067 34.624 7.152L33.952 8.864C33.3653 8.42667 32.8107 7.98933 32.288 7.552C31.776 7.104 31.2747 6.64 30.784 6.16C30.208 6.84267 29.5733 7.488 28.88 8.096C28.1973 8.704 27.4933 9.248 26.768 9.728ZM40.928 19.312C39.7547 18.6187 38.72 17.6213 37.824 16.32C36.928 15.008 36.1973 13.36 35.632 11.376L37.2 10.688C37.68 12.416 38.2933 13.8507 39.04 14.992C39.7973 16.1227 40.6933 17.024 41.728 17.696L40.928 19.312ZM34.672 10.544V8.992H41.152V10.544H34.672ZM42.848 18.352C43.2427 17.3387 43.5947 16.4053 43.904 15.552C44.2133 14.688 44.4907 13.8613 44.736 13.072C44.992 12.2827 45.2213 11.4827 45.424 10.672C45.6373 9.86133 45.8347 8.99733 46.016 8.08C46.1973 7.16267 46.3787 6.14933 46.56 5.04L48.416 5.248C48.2453 6.31467 48.0693 7.312 47.888 8.24C47.7067 9.15733 47.504 10.0427 47.28 10.896C47.0667 11.7387 46.8267 12.5813 46.56 13.424C46.304 14.2667 46.0107 15.136 45.68 16.032C45.36 16.928 44.9973 17.888 44.592 18.912L42.848 18.352ZM55.808 16.256C55.712 15.616 55.584 14.9333 55.424 14.208C55.2747 13.472 55.0987 12.736 54.896 12C54.6933 11.264 54.48 10.5547 54.256 9.872L56.032 9.344C56.256 10.048 56.4693 10.7787 56.672 11.536C56.8853 12.2827 57.072 13.0347 57.232 13.792C57.392 14.5387 57.5253 15.2533 57.632 15.936L55.808 16.256ZM54.128 8.992C53.8507 8.40533 53.5787 7.88267 53.312 7.424C53.0453 6.96533 52.7467 6.512 52.416 6.064L53.744 5.296C54.0853 5.75467 54.3893 6.22933 54.656 6.72C54.9333 7.21067 55.2053 7.744 55.472 8.32L54.128 8.992ZM56.368 8.144C56.112 7.54667 55.856 7.01867 55.6 6.56C55.344 6.09067 55.0613 5.63733 54.752 5.2L56.048 4.48C56.3893 4.94933 56.688 5.42933 56.944 5.92C57.2107 6.41067 57.4667 6.94933 57.712 7.536L56.368 8.144ZM50.448 18.528C50.1707 18.528 49.824 18.4907 49.408 18.416C48.992 18.352 48.5547 18.256 48.096 18.128C47.648 18.0107 47.216 17.8773 46.8 17.728L47.232 16.112C47.584 16.2187 47.9307 16.3253 48.272 16.432C48.624 16.528 48.944 16.608 49.232 16.672C49.5307 16.7253 49.76 16.752 49.92 16.752C50.2613 16.752 50.544 16.5973 50.768 16.288C50.992 15.968 51.1573 15.472 51.264 14.8C51.3813 14.1173 51.44 13.2427 51.44 12.176C51.44 11.5573 51.4187 11.0613 51.376 10.688C51.3333 10.304 51.2427 10.016 51.104 9.824C50.976 9.632 50.7787 9.504 50.512 9.44C50.2453 9.376 49.888 9.344 49.44 9.344H42.656V7.68H49.264C50 7.68 50.6133 7.712 51.104 7.776C51.6053 7.82933 52 7.94133 52.288 8.112C52.5867 8.28267 52.8107 8.544 52.96 8.896C53.12 9.23733 53.2213 9.696 53.264 10.272C53.3173 10.8373 53.344 11.5467 53.344 12.4C53.344 13.7867 53.2427 14.9333 53.04 15.84C52.8373 16.7467 52.5173 17.424 52.08 17.872C51.6533 18.3093 51.1093 18.528 50.448 18.528ZM58.768 12.816V10.928H73.232V12.816H58.768ZM81.072 13.168V10.736H74.848V9.184H81.072V6.512H82.928V9.184H89.152V10.736H82.928V13.168H81.072ZM76.416 19.392V12.768H87.584V19.392H85.728V18.768H78.272V17.52H85.728V16.368H78.272V15.2H85.728V14.08H82.928V17.52H81.072V14.08H78.272V19.392H76.416ZM75.024 14.96L74.464 13.328C75.8827 12.72 77.1093 12.0747 78.144 11.392C79.1893 10.6987 80.032 9.97867 80.672 9.232L81.808 9.984C81.0507 10.912 80.1067 11.7973 78.976 12.64C77.856 13.472 76.5387 14.2453 75.024 14.96ZM78.256 10.256C78.0213 9.81867 77.7813 9.38133 77.536 8.944C77.2907 8.50667 77.0453 8.096 76.8 7.712L78.448 7.232C78.704 7.616 78.9547 8.02667 79.2 8.464C79.4453 8.90133 79.6853 9.344 79.92 9.792L78.256 10.256ZM88.976 14.96C87.472 14.2453 86.1547 13.472 85.024 12.64C83.904 11.7973 82.96 10.912 82.192 9.984L83.328 9.232C83.9787 9.97867 84.8213 10.6987 85.856 11.392C86.8907 12.0747 88.1173 12.72 89.536 13.328L88.976 14.96ZM76.016 7.232L75.904 5.712C78.4 5.712 80.6453 5.65333 82.64 5.536C84.6347 5.408 86.368 5.22667 87.84 4.992L88.192 6.48C86.688 6.71467 84.896 6.90133 82.816 7.04C80.736 7.168 78.4693 7.232 76.016 7.232ZM85.712 9.984L83.984 9.568C84.2827 9.13067 84.5547 8.68267 84.8 8.224C85.0453 7.75467 85.2587 7.312 85.44 6.896L87.168 7.296C86.9867 7.72267 86.768 8.16533 86.512 8.624C86.2667 9.08267 86 9.536 85.712 9.984ZM98.976 17.104C99.6373 17.0827 100.208 16.9707 100.688 16.768C101.179 16.5547 101.557 16.272 101.824 15.92C102.091 15.5573 102.224 15.1413 102.224 14.672C102.224 14.1387 102.059 13.6853 101.728 13.312C101.397 12.928 100.923 12.6347 100.304 12.432C99.696 12.2293 98.9547 12.128 98.08 12.128C97.3227 12.128 96.6133 12.2027 95.952 12.352C95.3013 12.5013 94.7307 12.7093 94.24 12.976C93.7493 13.2427 93.3707 13.5573 93.104 13.92C92.8373 14.272 92.704 14.656 92.704 15.072C92.704 15.4133 92.7893 15.7173 92.96 15.984C93.1307 16.2507 93.3653 16.464 93.664 16.624C93.9733 16.784 94.32 16.864 94.704 16.864C95.0453 16.864 95.28 16.784 95.408 16.624C95.536 16.4533 95.6 16.144 95.6 15.696V5.024H97.408V15.84C97.408 16.7787 97.2107 17.4667 96.816 17.904C96.432 18.3307 95.808 18.544 94.944 18.544C94.1653 18.544 93.4667 18.3947 92.848 18.096C92.24 17.7973 91.76 17.392 91.408 16.88C91.0667 16.3573 90.896 15.7653 90.896 15.104C90.896 14.432 91.072 13.8187 91.424 13.264C91.7867 12.6987 92.2933 12.2133 92.944 11.808C93.5947 11.392 94.3627 11.072 95.248 10.848C96.144 10.624 97.12 10.512 98.176 10.512C99.424 10.512 100.491 10.6773 101.376 11.008C102.261 11.328 102.939 11.792 103.408 12.4C103.877 13.008 104.112 13.744 104.112 14.608C104.112 15.408 103.915 16.1173 103.52 16.736C103.125 17.3547 102.571 17.84 101.856 18.192C101.141 18.5547 100.304 18.752 99.344 18.784L98.976 17.104ZM91.408 8.464V6.896H101.296V8.464H91.408ZM104.064 10.32C103.787 9.68 103.456 9.06133 103.072 8.464C102.699 7.856 102.283 7.28533 101.824 6.752L103.328 5.824C103.787 6.38933 104.203 6.97067 104.576 7.568C104.949 8.15467 105.296 8.8 105.616 9.504L104.064 10.32ZM111.136 18.464C110.592 18.464 110.091 18.2987 109.632 17.968C109.173 17.6267 108.773 17.152 108.432 16.544C108.091 15.936 107.824 15.2213 107.632 14.4C107.451 13.568 107.36 12.672 107.36 11.712C107.36 10.9333 107.424 10.112 107.552 9.248C107.691 8.37333 107.899 7.456 108.176 6.496L110.048 6.72C109.803 7.60533 109.616 8.448 109.488 9.248C109.36 10.048 109.296 10.8 109.296 11.504C109.296 12.176 109.349 12.8107 109.456 13.408C109.563 14.0053 109.707 14.528 109.888 14.976C110.08 15.424 110.293 15.776 110.528 16.032C110.773 16.288 111.029 16.416 111.296 16.416C111.552 16.416 111.829 16.3093 112.128 16.096C112.437 15.872 112.752 15.5733 113.072 15.2C113.392 14.8267 113.691 14.4 113.968 13.92C114.256 13.44 114.496 12.9387 114.688 12.416L116.4 13.28C116.133 14.0053 115.803 14.6827 115.408 15.312C115.013 15.9413 114.576 16.496 114.096 16.976C113.627 17.4453 113.136 17.808 112.624 18.064C112.112 18.3307 111.616 18.464 111.136 18.464ZM119.168 16.912C119.168 15.696 119.083 14.4853 118.912 13.28C118.752 12.0747 118.512 10.9173 118.192 9.808C117.883 8.69867 117.509 7.68 117.072 6.752L118.848 6.224C119.339 7.19467 119.744 8.256 120.064 9.408C120.395 10.5493 120.645 11.7547 120.816 13.024C120.997 14.2827 121.088 15.5787 121.088 16.912H119.168ZM129.712 18.832C128.496 18.832 127.499 18.64 126.72 18.256C125.952 17.8827 125.381 17.3013 125.008 16.512C124.645 15.7227 124.464 14.7093 124.464 13.472V5.68H126.416V13.472C126.416 14.72 126.677 15.6267 127.2 16.192C127.723 16.7467 128.56 17.024 129.712 17.024C130.555 17.024 131.296 16.8693 131.936 16.56C132.587 16.2507 133.173 15.7493 133.696 15.056C134.229 14.352 134.741 13.4187 135.232 12.256L137.008 12.976C136.581 14.0427 136.123 14.9493 135.632 15.696C135.152 16.432 134.624 17.0347 134.048 17.504C133.483 17.9627 132.843 18.2987 132.128 18.512C131.413 18.7253 130.608 18.832 129.712 18.832ZM143.136 18.464C142.592 18.464 142.091 18.2987 141.632 17.968C141.173 17.6267 140.773 17.152 140.432 16.544C140.091 15.936 139.824 15.2213 139.632 14.4C139.451 13.568 139.36 12.672 139.36 11.712C139.36 10.9333 139.424 10.112 139.552 9.248C139.691 8.37333 139.899 7.456 140.176 6.496L142.048 6.72C141.803 7.60533 141.616 8.448 141.488 9.248C141.36 10.048 141.296 10.8 141.296 11.504C141.296 12.176 141.349 12.8107 141.456 13.408C141.563 14.0053 141.707 14.528 141.888 14.976C142.08 15.424 142.293 15.776 142.528 16.032C142.773 16.288 143.029 16.416 143.296 16.416C143.552 16.416 143.829 16.3093 144.128 16.096C144.437 15.872 144.752 15.5733 145.072 15.2C145.392 14.8267 145.691 14.4 145.968 13.92C146.256 13.44 146.496 12.9387 146.688 12.416L148.4 13.28C148.133 14.0053 147.803 14.6827 147.408 15.312C147.013 15.9413 146.576 16.496 146.096 16.976C145.627 17.4453 145.136 17.808 144.624 18.064C144.112 18.3307 143.616 18.464 143.136 18.464ZM151.168 16.912C151.168 15.696 151.083 14.4853 150.912 13.28C150.752 12.0747 150.512 10.9173 150.192 9.808C149.883 8.69867 149.509 7.68 149.072 6.752L150.848 6.224C151.339 7.19467 151.744 8.256 152.064 9.408C152.395 10.5493 152.645 11.7547 152.816 13.024C152.997 14.2827 153.088 15.5787 153.088 16.912H151.168ZM165.44 19.36C165.269 19.36 165.008 19.3493 164.656 19.328C164.315 19.3173 163.915 19.3013 163.456 19.28L163.36 17.712C163.765 17.7227 164.123 17.7387 164.432 17.76C164.741 17.7707 164.965 17.776 165.104 17.776C165.381 17.776 165.579 17.7653 165.696 17.744C165.824 17.712 165.899 17.6373 165.92 17.52C165.952 17.4027 165.968 17.2053 165.968 16.928V13.952H160.336V12.368H165.968V11.008H160.336V9.424H163.856V7.808H160.992V6.272H163.856V4.688H165.776V6.272H168.8V7.808H165.776V9.424H169.36V11.008H167.872V12.368H169.36V13.952H167.872V16.832C167.872 17.4187 167.845 17.8773 167.792 18.208C167.739 18.5493 167.632 18.8 167.472 18.96C167.312 19.1307 167.067 19.2373 166.736 19.28C166.416 19.3333 165.984 19.36 165.44 19.36ZM155.04 18.992V5.632H159.936V18.048H156.8V16.464H158.256V12.48H156.8V10.88H158.256V7.264H156.8V18.992H155.04ZM163.104 17.696C162.752 17.28 162.368 16.8587 161.952 16.432C161.536 16.0053 161.125 15.6107 160.72 15.248L161.968 14.096C162.384 14.4587 162.8 14.8533 163.216 15.28C163.632 15.7067 164.016 16.128 164.368 16.544L163.104 17.696Z" fill="white"/>
<defs>
<filter id="filter0_d_122_1967" x="57" y="61" width="66" height="66" filterUnits="userSpaceOnUse" color-interpolation-filters="sRGB">
<feFlood flood-opacity="0" result="BackgroundImageFix"/>
<feColorMatrix in="SourceAlpha" type="matrix" values="0 0 0 0 0 0 0 0 0 0 0 0 0 0 0 0 0 0 127 0" result="hardAlpha"/>
<feOffset/>
<feGaussianBlur stdDeviation="3"/>
<feComposite in2="hardAlpha" operator="out"/>
<feColorMatrix type="matrix" values="0 0 0 0 0.282353 0 0 0 0 0.737255 0 0 0 0 0.796078 0 0 0 0.25 0"/>
<feBlend mode="normal" in2="BackgroundImageFix" result="effect1_dropShadow_122_1967"/>
<feBlend mode="normal" in="SourceGraphic" in2="effect1_dropShadow_122_1967" result="shape"/>
</filter>
<filter id="filter1_d_122_1967" x="120" y="61" width="66" height="66" filterUnits="userSpaceOnUse" color-interpolation-filters="sRGB">
<feFlood flood-opacity="0" result="BackgroundImageFix"/>
<feColorMatrix in="SourceAlpha" type="matrix" values="0 0 0 0 0 0 0 0 0 0 0 0 0 0 0 0 0 0 127 0" result="hardAlpha"/>
<feOffset/>
<feGaussianBlur stdDeviation="3"/>
<feComposite in2="hardAlpha" operator="out"/>
<feColorMatrix type="matrix" values="0 0 0 0 0.282353 0 0 0 0 0.737255 0 0 0 0 0.796078 0 0 0 0.25 0"/>
<feBlend mode="normal" in2="BackgroundImageFix" result="effect1_dropShadow_122_1967"/>
<feBlend mode="normal" in="SourceGraphic" in2="effect1_dropShadow_122_1967" result="shape"/>
</filter>
</defs>
</svg>
