<svg width="224" height="127" viewBox="0 0 224 127" fill="none" xmlns="http://www.w3.org/2000/svg">
<circle cx="175" cy="95" r="27" fill="#128FCD" fill-opacity="0.2"/>
<circle cx="175" cy="95" r="26" stroke="#48BCCB" stroke-opacity="0.4" stroke-width="2"/>
<path d="M172.552 101.116C172.552 100.108 172.66 99.16 172.876 98.272C173.092 97.384 173.488 96.532 174.064 95.716C174.64 94.876 175.444 94.096 176.476 93.376C177.292 92.8 177.952 92.272 178.456 91.792C178.96 91.312 179.308 90.844 179.5 90.388C179.716 89.932 179.824 89.476 179.824 89.02C179.824 88.084 179.404 87.412 178.564 87.004C177.748 86.572 176.44 86.356 174.64 86.356C173.368 86.356 172.108 86.464 170.86 86.68C169.612 86.872 168.304 87.196 166.936 87.652L166 83.728C167.368 83.296 168.856 82.96 170.464 82.72C172.072 82.48 173.668 82.36 175.252 82.36C181.444 82.36 184.54 84.364 184.54 88.372C184.54 89.284 184.384 90.124 184.072 90.892C183.784 91.636 183.304 92.368 182.632 93.088C181.96 93.808 181.072 94.552 179.968 95.32C179.248 95.824 178.672 96.388 178.24 97.012C177.808 97.636 177.508 98.296 177.34 98.992C177.172 99.688 177.064 100.396 177.016 101.116H172.552ZM172.228 109V104.104H177.34V109H172.228Z" fill="white"/>
<circle cx="112" cy="95" r="27" fill="#128FCD" fill-opacity="0.2"/>
<circle cx="112" cy="95" r="26" stroke="#48BCCB" stroke-opacity="0.4" stroke-width="2"/>
<path d="M109.552 101.116C109.552 100.108 109.66 99.16 109.876 98.272C110.092 97.384 110.488 96.532 111.064 95.716C111.64 94.876 112.444 94.096 113.476 93.376C114.292 92.8 114.952 92.272 115.456 91.792C115.96 91.312 116.308 90.844 116.5 90.388C116.716 89.932 116.824 89.476 116.824 89.02C116.824 88.084 116.404 87.412 115.564 87.004C114.748 86.572 113.44 86.356 111.64 86.356C110.368 86.356 109.108 86.464 107.86 86.68C106.612 86.872 105.304 87.196 103.936 87.652L103 83.728C104.368 83.296 105.856 82.96 107.464 82.72C109.072 82.48 110.668 82.36 112.252 82.36C118.444 82.36 121.54 84.364 121.54 88.372C121.54 89.284 121.384 90.124 121.072 90.892C120.784 91.636 120.304 92.368 119.632 93.088C118.96 93.808 118.072 94.552 116.968 95.32C116.248 95.824 115.672 96.388 115.24 97.012C114.808 97.636 114.508 98.296 114.34 98.992C114.172 99.688 114.064 100.396 114.016 101.116H109.552ZM109.228 109V104.104H114.34V109H109.228Z" fill="white"/>
<g filter="url(#filter0_d_122_2123)">
<rect x="22" y="67" width="54" height="54" fill="#128FCD" fill-opacity="0.2" shape-rendering="crispEdges"/>
<rect x="23" y="68" width="52" height="52" stroke="#48BCCB" stroke-opacity="0.5" stroke-width="2" shape-rendering="crispEdges"/>
</g>
<circle cx="30" cy="55" r="8" fill="#128FCD" fill-opacity="0.2"/>
<circle cx="30" cy="55" r="7.5" stroke="#48BCCB" stroke-opacity="0.4"/>
<path d="M29.83 59.43C29.5233 59.43 29.1933 59.4167 28.84 59.39C28.4867 59.3633 28.1333 59.3267 27.78 59.28C27.4333 59.24 27.1067 59.19 26.8 59.13L26.93 58.05C27.4233 58.1433 27.9233 58.2167 28.43 58.27C28.9433 58.3233 29.41 58.35 29.83 58.35C30.71 58.35 31.38 58.2167 31.84 57.95C32.3 57.6833 32.53 57.3 32.53 56.8C32.53 56.3733 32.3667 56.05 32.04 55.83C31.72 55.61 31.25 55.5 30.63 55.5C30.0967 55.5 29.59 55.59 29.11 55.77C28.6367 55.95 28.1267 56.24 27.58 56.64L26.55 56.23C26.7167 55.89 26.8833 55.4933 27.05 55.04C27.2167 54.58 27.3767 54.1033 27.53 53.61C27.6833 53.11 27.8133 52.63 27.92 52.17C28.0267 51.7033 28.1 51.3 28.14 50.96L29.32 51.03C29.2867 51.3233 29.23 51.66 29.15 52.04C29.0767 52.42 28.9867 52.8133 28.88 53.22C28.78 53.62 28.67 54.0067 28.55 54.38C28.43 54.7467 28.3133 55.0733 28.2 55.36L27.99 55.17C28.45 54.93 28.9133 54.75 29.38 54.63C29.8467 54.51 30.32 54.45 30.8 54.45C31.42 54.45 31.95 54.5467 32.39 54.74C32.8367 54.9333 33.1767 55.21 33.41 55.57C33.65 55.93 33.77 56.36 33.77 56.86C33.77 57.6867 33.43 58.3233 32.75 58.77C32.07 59.21 31.0967 59.43 29.83 59.43ZM25.78 53.24V52.23H34.22V53.24H25.78Z" fill="white"/>
<circle cx="48" cy="55" r="8" fill="#128FCD" fill-opacity="0.2"/>
<circle cx="48" cy="55" r="7.5" stroke="#48BCCB" stroke-opacity="0.4"/>
<path d="M47.32 56.81C47.32 56.53 47.35 56.2667 47.41 56.02C47.47 55.7733 47.58 55.5367 47.74 55.31C47.9 55.0767 48.1233 54.86 48.41 54.66C48.6367 54.5 48.82 54.3533 48.96 54.22C49.1 54.0867 49.1967 53.9567 49.25 53.83C49.31 53.7033 49.34 53.5767 49.34 53.45C49.34 53.19 49.2233 53.0033 48.99 52.89C48.7633 52.77 48.4 52.71 47.9 52.71C47.5467 52.71 47.1967 52.74 46.85 52.8C46.5033 52.8533 46.14 52.9433 45.76 53.07L45.5 51.98C45.88 51.86 46.2933 51.7667 46.74 51.7C47.1867 51.6333 47.63 51.6 48.07 51.6C49.79 51.6 50.65 52.1567 50.65 53.27C50.65 53.5233 50.6067 53.7567 50.52 53.97C50.44 54.1767 50.3067 54.38 50.12 54.58C49.9333 54.78 49.6867 54.9867 49.38 55.2C49.18 55.34 49.02 55.4967 48.9 55.67C48.78 55.8433 48.6967 56.0267 48.65 56.22C48.6033 56.4133 48.5733 56.61 48.56 56.81H47.32ZM47.23 59V57.64H48.65V59H47.23Z" fill="white"/>
<circle cx="66" cy="55" r="8" fill="#128FCD" fill-opacity="0.2"/>
<circle cx="66" cy="55" r="7.5" stroke="#48BCCB" stroke-opacity="0.4"/>
<path d="M65.82 59.52C65.06 59.52 64.4367 59.4 63.95 59.16C63.47 58.9267 63.1133 58.5633 62.88 58.07C62.6533 57.5767 62.54 56.9433 62.54 56.17V51.3H63.76V56.17C63.76 56.95 63.9233 57.5167 64.25 57.87C64.5767 58.2167 65.1 58.39 65.82 58.39C66.3467 58.39 66.81 58.2933 67.21 58.1C67.6167 57.9067 67.9833 57.5933 68.31 57.16C68.6433 56.72 68.9633 56.1367 69.27 55.41L70.38 55.86C70.1133 56.5267 69.8267 57.0933 69.52 57.56C69.22 58.02 68.89 58.3967 68.53 58.69C68.1767 58.9767 67.7767 59.1867 67.33 59.32C66.8833 59.4533 66.38 59.52 65.82 59.52Z" fill="white"/>
<path d="M4.592 18.592C4.12267 18.592 3.66933 18.4747 3.232 18.24C2.79467 18.0053 2.4 17.6907 2.048 17.296C1.696 16.9013 1.41867 16.464 1.216 15.984C1.01333 15.4933 0.912 14.9973 0.912 14.496C0.912 13.696 1.17867 13.0133 1.712 12.448C2.256 11.872 3.02933 11.4347 4.032 11.136C5.03467 10.8267 6.22933 10.672 7.616 10.672C9.04533 10.672 10.4053 10.864 11.696 11.248C12.9867 11.6213 14.2613 12.2027 15.52 12.992L14.848 14.608C14.0267 14.064 13.232 13.6267 12.464 13.296C11.696 12.9653 10.9173 12.7253 10.128 12.576C9.33867 12.416 8.50133 12.336 7.616 12.336C6.06933 12.336 4.864 12.528 4 12.912C3.14667 13.2853 2.72 13.8133 2.72 14.496C2.72 14.7307 2.768 14.976 2.864 15.232C2.96 15.488 3.09333 15.728 3.264 15.952C3.43467 16.1653 3.61067 16.3413 3.792 16.48C3.984 16.608 4.17067 16.672 4.352 16.672C4.704 16.672 5.024 16.4587 5.312 16.032C5.6 15.5947 5.84533 14.9653 6.048 14.144C6.25067 13.3227 6.40533 12.3253 6.512 11.152C6.62933 9.968 6.688 8.63467 6.688 7.152L7.152 7.696H1.568V6.08H8.64V6.24C8.64 8.26667 8.55467 10.0533 8.384 11.6C8.21333 13.136 7.95733 14.4213 7.616 15.456C7.27467 16.4907 6.848 17.2747 6.336 17.808C5.83467 18.3307 5.25333 18.592 4.592 18.592ZM9.2 17.52C9.59467 17.232 9.92533 16.9493 10.192 16.672C10.4587 16.384 10.6773 16.048 10.848 15.664C11.0187 15.28 11.1467 14.816 11.232 14.272C11.3173 13.7173 11.376 13.04 11.408 12.24C11.44 11.44 11.456 10.4693 11.456 9.328V6.496H13.312V9.424C13.312 10.6613 13.2907 11.7333 13.248 12.64C13.2053 13.536 13.1253 14.304 13.008 14.944C12.8907 15.584 12.7253 16.1333 12.512 16.592C12.3093 17.0507 12.048 17.4613 11.728 17.824C11.408 18.1867 11.0133 18.544 10.544 18.896L9.2 17.52ZM18.368 18.944L16.704 18.336L21.888 5.312L23.648 5.824L20.864 12.704L20.272 12.32C20.8053 11.8827 21.3387 11.5413 21.872 11.296C22.416 11.0507 22.944 10.928 23.456 10.928C23.8507 10.928 24.192 11.0133 24.48 11.184C24.768 11.344 25.0133 11.584 25.216 11.904C25.4187 12.2133 25.5893 12.592 25.728 13.04C25.8773 13.488 26.0107 14 26.128 14.576C26.224 15.024 26.32 15.4133 26.416 15.744C26.5227 16.0747 26.656 16.3307 26.816 16.512C26.9867 16.6933 27.2053 16.784 27.472 16.784C27.9413 16.784 28.3627 16.48 28.736 15.872C29.1093 15.2533 29.4613 14.2773 29.792 12.944L31.472 13.504C31.1947 14.688 30.8693 15.6587 30.496 16.416C30.1227 17.1627 29.68 17.7173 29.168 18.08C28.656 18.4533 28.064 18.64 27.392 18.64C26.9333 18.64 26.5387 18.56 26.208 18.4C25.888 18.24 25.6107 18.0053 25.376 17.696C25.1413 17.3867 24.9387 17.0133 24.768 16.576C24.608 16.128 24.4693 15.6267 24.352 15.072C24.2453 14.6027 24.128 14.1973 24 13.856C23.8827 13.5147 23.728 13.2533 23.536 13.072C23.3547 12.8907 23.1093 12.8 22.8 12.8C22.5973 12.8 22.3627 12.8427 22.096 12.928C21.8293 13.0133 21.5573 13.1573 21.28 13.36C21.0133 13.552 20.752 13.8187 20.496 14.16C20.24 14.4907 20.0107 14.9067 19.808 15.408L18.368 18.944ZM40.016 18.896C38.8213 18.896 37.8933 18.6187 37.232 18.064C36.5707 17.52 36.24 16.768 36.24 15.808C36.24 14.816 36.5813 14.0533 37.264 13.52C37.9467 12.976 38.9067 12.704 40.144 12.704C40.6667 12.704 41.184 12.784 41.696 12.944C42.208 13.104 42.7413 13.3493 43.296 13.68C43.8507 14.0107 44.4427 14.4373 45.072 14.96C45.712 15.4827 46.4 16.1173 47.136 16.864L45.984 18.144C45.1307 17.312 44.4107 16.64 43.824 16.128C43.248 15.6053 42.752 15.2107 42.336 14.944C41.9307 14.6667 41.5573 14.48 41.216 14.384C40.8853 14.288 40.528 14.24 40.144 14.24C39.4187 14.24 38.8853 14.3627 38.544 14.608C38.2133 14.8533 38.048 15.232 38.048 15.744C38.048 16.2667 38.2133 16.6613 38.544 16.928C38.8747 17.184 39.3653 17.312 40.016 17.312C40.7307 17.312 41.264 17.1573 41.616 16.848C41.9787 16.5387 42.16 16.096 42.16 15.52V7.248C43.0987 7.248 43.968 7.264 44.768 7.296C45.5787 7.31733 46.3733 7.35467 47.152 7.408L47.04 9.088C46.3467 9.03467 45.6213 8.99733 44.864 8.976C44.1173 8.944 43.3173 8.928 42.464 8.928L44.016 7.728V15.328C44.016 16.5013 43.68 17.392 43.008 18C42.336 18.5973 41.3387 18.896 40.016 18.896ZM32.736 16.352C33.2053 15.0827 33.6373 13.8347 34.032 12.608C34.4267 11.3707 34.7947 10.1227 35.136 8.864C35.4773 7.59467 35.792 6.29333 36.08 4.96L37.888 5.136C37.6 6.50133 37.28 7.84 36.928 9.152C36.5867 10.4533 36.2133 11.744 35.808 13.024C35.4133 14.304 34.976 15.5893 34.496 16.88L32.736 16.352ZM32.608 8.928V7.248H40.672V8.928H32.608ZM58.432 18.752C57.1413 18.752 56.016 18.5227 55.056 18.064C54.1067 17.616 53.3707 16.9813 52.848 16.16C52.3253 15.328 52.064 14.352 52.064 13.232C52.064 12.3573 52.2187 11.5467 52.528 10.8C52.848 10.0533 53.296 9.40267 53.872 8.848C54.4587 8.28267 55.152 7.85067 55.952 7.552L56.112 8.048L48.496 8.224V6.512L61.984 6.192V7.904L59.952 7.952C59.0987 7.97333 58.3093 8.112 57.584 8.368C56.8693 8.61333 56.2507 8.96 55.728 9.408C55.216 9.856 54.816 10.3893 54.528 11.008C54.24 11.616 54.096 12.2933 54.096 13.04C54.096 13.8507 54.272 14.5547 54.624 15.152C54.976 15.7387 55.472 16.192 56.112 16.512C56.7627 16.832 57.5413 16.992 58.448 16.992C58.64 16.992 58.8533 16.9867 59.088 16.976C59.3333 16.9547 59.5787 16.9333 59.824 16.912C60.08 16.88 60.304 16.848 60.496 16.816L60.704 18.576C60.48 18.608 60.2347 18.6347 59.968 18.656C59.7013 18.688 59.4347 18.7093 59.168 18.72C58.9013 18.7413 58.656 18.752 58.432 18.752ZM60.064 13.76C59.8187 13.216 59.552 12.6987 59.264 12.208C58.9867 11.7067 58.6667 11.1947 58.304 10.672L59.696 9.904C60.0587 10.4267 60.384 10.944 60.672 11.456C60.96 11.9573 61.232 12.4907 61.488 13.056L60.064 13.76ZM62.496 12.848C62.2613 12.2933 62.0053 11.7707 61.728 11.28C61.4613 10.7787 61.152 10.2667 60.8 9.744L62.192 9.008C62.544 9.54133 62.8587 10.064 63.136 10.576C63.424 11.088 63.6853 11.632 63.92 12.208L62.496 12.848ZM66.24 16.688C67.968 16.6347 69.472 16.4267 70.752 16.064C72.0427 15.7013 73.1307 15.1627 74.016 14.448C74.912 13.7227 75.6213 12.816 76.144 11.728C76.6773 10.6293 77.0453 9.328 77.248 7.824L79.088 8.128C78.7787 10.4107 78.1227 12.3093 77.12 13.824C76.128 15.328 74.7573 16.464 73.008 17.232C71.2587 17.9893 69.0987 18.416 66.528 18.512L66.24 16.688ZM71.088 12.24C70.0747 11.9947 69.136 11.7973 68.272 11.648C67.408 11.488 66.512 11.3493 65.584 11.232L65.968 9.568C66.9067 9.68533 67.808 9.824 68.672 9.984C69.536 10.1333 70.4747 10.3307 71.488 10.576L71.088 12.24ZM72 8.4C70.976 8.16533 70.016 7.968 69.12 7.808C68.2347 7.648 67.3013 7.50933 66.32 7.392L66.704 5.728C67.696 5.84533 68.64 5.984 69.536 6.144C70.432 6.29333 71.3867 6.49067 72.4 6.736L72 8.4ZM82.736 18.176V16.512H87.056V10.528H82.992V8.864H93.008V10.528H88.944V16.512H93.264V18.176H82.736ZM98.16 17.28C99.0133 17.056 99.7227 16.7893 100.288 16.48C100.853 16.1707 101.301 15.776 101.632 15.296C101.963 14.816 102.197 14.224 102.336 13.52C102.485 12.8053 102.56 11.952 102.56 10.96V8.912H104.464V10.96C104.464 12.1333 104.363 13.1627 104.16 14.048C103.957 14.9227 103.632 15.6747 103.184 16.304C102.747 16.9333 102.181 17.456 101.488 17.872C100.805 18.288 99.9733 18.6133 98.992 18.848L98.16 17.28ZM97.536 7.984V6.304H110.928V7.984H97.536ZM105.152 12.352C106.261 11.8507 107.125 11.2213 107.744 10.464C108.363 9.696 108.763 8.768 108.944 7.68L110.928 7.984C110.757 8.90133 110.453 9.744 110.016 10.512C109.579 11.28 109.035 11.9573 108.384 12.544C107.744 13.12 107.008 13.584 106.176 13.936L105.152 12.352ZM116.064 17.328C117.024 17.2853 117.883 17.1253 118.64 16.848C119.397 16.56 119.995 16.192 120.432 15.744C120.88 15.296 121.104 14.8053 121.104 14.272V13.904L121.904 14.112C121.787 14.3253 121.627 14.5227 121.424 14.704C121.221 14.8853 120.981 15.0453 120.704 15.184C120.437 15.312 120.139 15.4133 119.808 15.488C119.488 15.5627 119.157 15.6 118.816 15.6C118.112 15.6 117.504 15.4667 116.992 15.2C116.48 14.9227 116.08 14.5387 115.792 14.048C115.515 13.5573 115.376 12.9813 115.376 12.32C115.376 11.648 115.525 11.0667 115.824 10.576C116.123 10.0853 116.539 9.70667 117.072 9.44C117.616 9.16267 118.251 9.024 118.976 9.024C119.573 9.024 120.091 9.12533 120.528 9.328C120.965 9.53067 121.397 9.83467 121.824 10.24L120.688 10.56V4.912H122.608V12.176L122.464 11.344C122.667 11.664 122.805 11.9947 122.88 12.336C122.965 12.6667 123.008 13.04 123.008 13.456C123.008 14.5333 122.741 15.4773 122.208 16.288C121.675 17.0987 120.912 17.7333 119.92 18.192C118.928 18.6613 117.739 18.9333 116.352 19.008L116.064 17.328ZM119.136 14.032C119.413 14.032 119.659 13.9947 119.872 13.92C120.096 13.8347 120.288 13.7173 120.448 13.568C120.608 13.4187 120.731 13.2373 120.816 13.024C120.901 12.8107 120.944 12.576 120.944 12.32C120.944 11.776 120.779 11.3493 120.448 11.04C120.128 10.7307 119.691 10.576 119.136 10.576C118.592 10.576 118.149 10.7307 117.808 11.04C117.477 11.3493 117.312 11.776 117.312 12.32C117.312 12.832 117.477 13.248 117.808 13.568C118.139 13.8773 118.581 14.032 119.136 14.032ZM112.944 8.304V6.768H127.056V8.304H112.944ZM135.632 19.008C134.053 19.008 132.827 18.752 131.952 18.24C131.088 17.728 130.656 17.008 130.656 16.08C130.656 15.2907 130.981 14.6773 131.632 14.24C132.293 13.792 133.2 13.568 134.352 13.568C135.44 13.568 136.256 13.7707 136.8 14.176C137.344 14.5707 137.616 15.168 137.616 15.968C137.616 16.256 137.573 16.5653 137.488 16.896C137.413 17.2267 137.301 17.568 137.152 17.92L135.392 17.728C135.541 17.3653 135.648 17.056 135.712 16.8C135.787 16.544 135.824 16.32 135.824 16.128C135.824 15.4027 135.291 15.04 134.224 15.04C133.68 15.04 133.253 15.1307 132.944 15.312C132.645 15.4827 132.496 15.7333 132.496 16.064C132.496 16.512 132.757 16.8693 133.28 17.136C133.803 17.392 134.512 17.52 135.408 17.52C137.125 17.52 138.4 17.2693 139.232 16.768C140.075 16.256 140.496 15.4773 140.496 14.432C140.496 13.5467 140.165 12.896 139.504 12.48C138.853 12.064 137.813 11.856 136.384 11.856C135.563 11.856 134.837 11.9307 134.208 12.08C133.579 12.2187 132.997 12.4373 132.464 12.736L130.352 13.952L129.584 12.48L138.672 7.424V7.728H130.528V6.112H141.472V7.728L133.664 12.032L132.672 11.216C133.003 11.0987 133.371 10.992 133.776 10.896C134.192 10.7893 134.613 10.704 135.04 10.64C135.477 10.5653 135.899 10.5067 136.304 10.464C136.709 10.4107 137.077 10.384 137.408 10.384C139.029 10.384 140.272 10.7253 141.136 11.408C142 12.0907 142.432 13.0613 142.432 14.32C142.432 15.824 141.84 16.9813 140.656 17.792C139.483 18.6027 137.808 19.008 135.632 19.008ZM152.976 17.104C153.637 17.0827 154.208 16.9707 154.688 16.768C155.179 16.5547 155.557 16.272 155.824 15.92C156.091 15.5573 156.224 15.1413 156.224 14.672C156.224 14.1387 156.059 13.6853 155.728 13.312C155.397 12.928 154.923 12.6347 154.304 12.432C153.696 12.2293 152.955 12.128 152.08 12.128C151.323 12.128 150.613 12.2027 149.952 12.352C149.301 12.5013 148.731 12.7093 148.24 12.976C147.749 13.2427 147.371 13.5573 147.104 13.92C146.837 14.272 146.704 14.656 146.704 15.072C146.704 15.4133 146.789 15.7173 146.96 15.984C147.131 16.2507 147.365 16.464 147.664 16.624C147.973 16.784 148.32 16.864 148.704 16.864C149.045 16.864 149.28 16.784 149.408 16.624C149.536 16.4533 149.6 16.144 149.6 15.696V5.024H151.408V15.84C151.408 16.7787 151.211 17.4667 150.816 17.904C150.432 18.3307 149.808 18.544 148.944 18.544C148.165 18.544 147.467 18.3947 146.848 18.096C146.24 17.7973 145.76 17.392 145.408 16.88C145.067 16.3573 144.896 15.7653 144.896 15.104C144.896 14.432 145.072 13.8187 145.424 13.264C145.787 12.6987 146.293 12.2133 146.944 11.808C147.595 11.392 148.363 11.072 149.248 10.848C150.144 10.624 151.12 10.512 152.176 10.512C153.424 10.512 154.491 10.6773 155.376 11.008C156.261 11.328 156.939 11.792 157.408 12.4C157.877 13.008 158.112 13.744 158.112 14.608C158.112 15.408 157.915 16.1173 157.52 16.736C157.125 17.3547 156.571 17.84 155.856 18.192C155.141 18.5547 154.304 18.752 153.344 18.784L152.976 17.104ZM145.408 8.464V6.896H155.296V8.464H145.408ZM158.064 10.32C157.787 9.68 157.456 9.06133 157.072 8.464C156.699 7.856 156.283 7.28533 155.824 6.752L157.328 5.824C157.787 6.38933 158.203 6.97067 158.576 7.568C158.949 8.15467 159.296 8.8 159.616 9.504L158.064 10.32ZM170.736 19.408C170.48 19.408 170.117 19.3973 169.648 19.376C169.179 19.3653 168.635 19.3493 168.016 19.328L167.936 17.744C168.501 17.7653 169.003 17.7867 169.44 17.808C169.888 17.8187 170.213 17.824 170.416 17.824C170.672 17.824 170.853 17.8133 170.96 17.792C171.067 17.7707 171.131 17.712 171.152 17.616C171.173 17.5093 171.184 17.3387 171.184 17.104V15.008H160.928V13.52H171.184V11.84H173.136V13.52H175.072V15.008H173.136V17.104C173.136 17.6373 173.115 18.0587 173.072 18.368C173.029 18.6773 172.928 18.9067 172.768 19.056C172.619 19.2053 172.384 19.3013 172.064 19.344C171.744 19.3867 171.301 19.408 170.736 19.408ZM168.256 18.368C167.84 17.9733 167.403 17.5893 166.944 17.216C166.496 16.832 166.016 16.464 165.504 16.112L166.64 14.832C167.163 15.1947 167.653 15.568 168.112 15.952C168.571 16.336 169.008 16.72 169.424 17.104L168.256 18.368ZM162.336 18.992L160.928 17.84C161.76 17.1467 162.512 16.3307 163.184 15.392C163.867 14.4533 164.459 13.4187 164.96 12.288C165.472 11.1573 165.877 9.952 166.176 8.672C166.485 7.38133 166.667 6.05333 166.72 4.688L168.656 4.752C168.581 6.20267 168.379 7.61067 168.048 8.976C167.717 10.3307 167.275 11.6213 166.72 12.848C166.165 14.0747 165.52 15.2107 164.784 16.256C164.048 17.2907 163.232 18.2027 162.336 18.992ZM160.768 12.144V10.656H175.232V12.144H160.768ZM161.856 9.632V8.256H174.144V9.632H161.856ZM161.312 7.264V5.744H174.688V7.264H161.312ZM188.144 19.264C187.877 19.264 187.525 19.2533 187.088 19.232C186.661 19.2213 186.123 19.2053 185.472 19.184L185.392 17.568C186.021 17.5893 186.539 17.6053 186.944 17.616C187.36 17.6267 187.653 17.632 187.824 17.632C188.08 17.632 188.261 17.6213 188.368 17.6C188.485 17.568 188.555 17.4987 188.576 17.392C188.608 17.2747 188.624 17.0933 188.624 16.848V7.056H177.168V5.472H190.544V16.8C190.544 17.3653 190.517 17.8133 190.464 18.144C190.421 18.4747 190.32 18.72 190.16 18.88C190 19.04 189.76 19.1413 189.44 19.184C189.12 19.2373 188.688 19.264 188.144 19.264ZM178.64 18.336V11.472H186.576V17.056H180.512V15.648H184.768V12.864H180.512V18.336H178.64ZM177.872 9.968V8.464H187.424V9.968H177.872ZM202.432 18.752C201.141 18.752 200.016 18.5227 199.056 18.064C198.107 17.616 197.371 16.9813 196.848 16.16C196.325 15.328 196.064 14.352 196.064 13.232C196.064 12.3573 196.219 11.5467 196.528 10.8C196.848 10.0533 197.296 9.40267 197.872 8.848C198.459 8.28267 199.152 7.85067 199.952 7.552L200.112 8.048L192.496 8.224V6.512L205.984 6.192V7.904L203.952 7.952C203.099 7.97333 202.309 8.112 201.584 8.368C200.869 8.61333 200.251 8.96 199.728 9.408C199.216 9.856 198.816 10.3893 198.528 11.008C198.24 11.616 198.096 12.2933 198.096 13.04C198.096 13.8507 198.272 14.5547 198.624 15.152C198.976 15.7387 199.472 16.192 200.112 16.512C200.763 16.832 201.541 16.992 202.448 16.992C202.64 16.992 202.853 16.9867 203.088 16.976C203.333 16.9547 203.579 16.9333 203.824 16.912C204.08 16.88 204.304 16.848 204.496 16.816L204.704 18.576C204.48 18.608 204.235 18.6347 203.968 18.656C203.701 18.688 203.435 18.7093 203.168 18.72C202.901 18.7413 202.656 18.752 202.432 18.752ZM204.064 13.76C203.819 13.216 203.552 12.6987 203.264 12.208C202.987 11.7067 202.667 11.1947 202.304 10.672L203.696 9.904C204.059 10.4267 204.384 10.944 204.672 11.456C204.96 11.9573 205.232 12.4907 205.488 13.056L204.064 13.76ZM206.496 12.848C206.261 12.2933 206.005 11.7707 205.728 11.28C205.461 10.7787 205.152 10.2667 204.8 9.744L206.192 9.008C206.544 9.54133 206.859 10.064 207.136 10.576C207.424 11.088 207.685 11.632 207.92 12.208L206.496 12.848ZM212.064 17.328C213.024 17.2853 213.883 17.1253 214.64 16.848C215.397 16.56 215.995 16.192 216.432 15.744C216.88 15.296 217.104 14.8053 217.104 14.272V13.904L217.904 14.112C217.787 14.3253 217.627 14.5227 217.424 14.704C217.221 14.8853 216.981 15.0453 216.704 15.184C216.437 15.312 216.139 15.4133 215.808 15.488C215.488 15.5627 215.157 15.6 214.816 15.6C214.112 15.6 213.504 15.4667 212.992 15.2C212.48 14.9227 212.08 14.5387 211.792 14.048C211.515 13.5573 211.376 12.9813 211.376 12.32C211.376 11.648 211.525 11.0667 211.824 10.576C212.123 10.0853 212.539 9.70667 213.072 9.44C213.616 9.16267 214.251 9.024 214.976 9.024C215.573 9.024 216.091 9.12533 216.528 9.328C216.965 9.53067 217.397 9.83467 217.824 10.24L216.688 10.56V4.912H218.608V12.176L218.464 11.344C218.667 11.664 218.805 11.9947 218.88 12.336C218.965 12.6667 219.008 13.04 219.008 13.456C219.008 14.5333 218.741 15.4773 218.208 16.288C217.675 17.0987 216.912 17.7333 215.92 18.192C214.928 18.6613 213.739 18.9333 212.352 19.008L212.064 17.328ZM215.136 14.032C215.413 14.032 215.659 13.9947 215.872 13.92C216.096 13.8347 216.288 13.7173 216.448 13.568C216.608 13.4187 216.731 13.2373 216.816 13.024C216.901 12.8107 216.944 12.576 216.944 12.32C216.944 11.776 216.779 11.3493 216.448 11.04C216.128 10.7307 215.691 10.576 215.136 10.576C214.592 10.576 214.149 10.7307 213.808 11.04C213.477 11.3493 213.312 11.776 213.312 12.32C213.312 12.832 213.477 13.248 213.808 13.568C214.139 13.8773 214.581 14.032 215.136 14.032ZM208.944 8.304V6.768H223.056V8.304H208.944Z" fill="white"/>
<defs>
<filter id="filter0_d_122_2123" x="16" y="61" width="66" height="66" filterUnits="userSpaceOnUse" color-interpolation-filters="sRGB">
<feFlood flood-opacity="0" result="BackgroundImageFix"/>
<feColorMatrix in="SourceAlpha" type="matrix" values="0 0 0 0 0 0 0 0 0 0 0 0 0 0 0 0 0 0 127 0" result="hardAlpha"/>
<feOffset/>
<feGaussianBlur stdDeviation="3"/>
<feComposite in2="hardAlpha" operator="out"/>
<feColorMatrix type="matrix" values="0 0 0 0 0.282353 0 0 0 0 0.737255 0 0 0 0 0.796078 0 0 0 0.25 0"/>
<feBlend mode="normal" in2="BackgroundImageFix" result="effect1_dropShadow_122_2123"/>
<feBlend mode="normal" in="SourceGraphic" in2="effect1_dropShadow_122_2123" result="shape"/>
</filter>
</defs>
</svg>
