<svg width="224" height="127" viewBox="0 0 224 127" fill="none" xmlns="http://www.w3.org/2000/svg">
<circle cx="175" cy="95" r="27" fill="#128FCD" fill-opacity="0.2"/>
<circle cx="175" cy="95" r="26" stroke="#48BCCB" stroke-opacity="0.4" stroke-width="2"/>
<path d="M172.552 101.116C172.552 100.108 172.66 99.16 172.876 98.272C173.092 97.384 173.488 96.532 174.064 95.716C174.64 94.876 175.444 94.096 176.476 93.376C177.292 92.8 177.952 92.272 178.456 91.792C178.96 91.312 179.308 90.844 179.5 90.388C179.716 89.932 179.824 89.476 179.824 89.02C179.824 88.084 179.404 87.412 178.564 87.004C177.748 86.572 176.44 86.356 174.64 86.356C173.368 86.356 172.108 86.464 170.86 86.68C169.612 86.872 168.304 87.196 166.936 87.652L166 83.728C167.368 83.296 168.856 82.96 170.464 82.72C172.072 82.48 173.668 82.36 175.252 82.36C181.444 82.36 184.54 84.364 184.54 88.372C184.54 89.284 184.384 90.124 184.072 90.892C183.784 91.636 183.304 92.368 182.632 93.088C181.96 93.808 181.072 94.552 179.968 95.32C179.248 95.824 178.672 96.388 178.24 97.012C177.808 97.636 177.508 98.296 177.34 98.992C177.172 99.688 177.064 100.396 177.016 101.116H172.552ZM172.228 109V104.104H177.34V109H172.228Z" fill="white"/>
<circle cx="112" cy="95" r="27" fill="#128FCD" fill-opacity="0.2"/>
<circle cx="112" cy="95" r="26" stroke="#48BCCB" stroke-opacity="0.4" stroke-width="2"/>
<path d="M102.604 107.056C105.532 106.936 108.16 106.648 110.488 106.192C112.816 105.712 114.808 105.088 116.464 104.32C118.12 103.552 119.38 102.676 120.244 101.692C121.108 100.684 121.54 99.568 121.54 98.344C121.54 96.976 120.928 95.956 119.704 95.284C118.504 94.588 116.656 94.24 114.16 94.24C112.936 94.24 111.58 94.324 110.092 94.492C108.604 94.636 106.888 94.888 104.944 95.248C103 95.608 100.708 96.076 98.068 96.652L97.024 92.692C100.528 91.9 103.72 91.312 106.6 90.928C109.48 90.52 112.024 90.316 114.232 90.316C118.192 90.316 121.168 90.964 123.16 92.26C125.152 93.556 126.148 95.488 126.148 98.056C126.148 99.952 125.62 101.68 124.564 103.24C123.532 104.776 122.032 106.108 120.064 107.236C118.096 108.364 115.72 109.252 112.936 109.9C110.176 110.548 107.056 110.932 103.576 111.052L102.604 107.056ZM120.748 86.176C119.092 86.176 117.22 86.14 115.132 86.068C113.068 85.972 110.92 85.84 108.688 85.672C106.48 85.48 104.332 85.276 102.244 85.06L102.784 80.884C104.56 81.124 106.492 81.34 108.58 81.532C110.668 81.724 112.768 81.868 114.88 81.964C116.992 82.06 118.948 82.108 120.748 82.108V86.176Z" fill="white"/>
<g filter="url(#filter0_d_122_2266)">
<rect x="22" y="67" width="54" height="54" fill="#128FCD" fill-opacity="0.2" shape-rendering="crispEdges"/>
<rect x="23" y="68" width="52" height="52" stroke="#48BCCB" stroke-opacity="0.5" stroke-width="2" shape-rendering="crispEdges"/>
</g>
<circle cx="30" cy="55" r="8" fill="#128FCD" fill-opacity="0.2"/>
<circle cx="30" cy="55" r="7.5" stroke="#48BCCB" stroke-opacity="0.4"/>
<path d="M29.32 56.81C29.32 56.53 29.35 56.2667 29.41 56.02C29.47 55.7733 29.58 55.5367 29.74 55.31C29.9 55.0767 30.1233 54.86 30.41 54.66C30.6367 54.5 30.82 54.3533 30.96 54.22C31.1 54.0867 31.1967 53.9567 31.25 53.83C31.31 53.7033 31.34 53.5767 31.34 53.45C31.34 53.19 31.2233 53.0033 30.99 52.89C30.7633 52.77 30.4 52.71 29.9 52.71C29.5467 52.71 29.1967 52.74 28.85 52.8C28.5033 52.8533 28.14 52.9433 27.76 53.07L27.5 51.98C27.88 51.86 28.2933 51.7667 28.74 51.7C29.1867 51.6333 29.63 51.6 30.07 51.6C31.79 51.6 32.65 52.1567 32.65 53.27C32.65 53.5233 32.6067 53.7567 32.52 53.97C32.44 54.1767 32.3067 54.38 32.12 54.58C31.9333 54.78 31.6867 54.9867 31.38 55.2C31.18 55.34 31.02 55.4967 30.9 55.67C30.78 55.8433 30.6967 56.0267 30.65 56.22C30.6033 56.4133 30.5733 56.61 30.56 56.81H29.32ZM29.23 59V57.64H30.65V59H29.23Z" fill="white"/>
<circle cx="48" cy="55" r="8" fill="#128FCD" fill-opacity="0.2"/>
<circle cx="48" cy="55" r="7.5" stroke="#48BCCB" stroke-opacity="0.4"/>
<path d="M44.48 59.59L43.44 59.21L46.68 51.07L47.78 51.39L46.04 55.69L45.67 55.45C46.0033 55.1767 46.3367 54.9633 46.67 54.81C47.01 54.6567 47.34 54.58 47.66 54.58C47.9067 54.58 48.12 54.6333 48.3 54.74C48.48 54.84 48.6333 54.99 48.76 55.19C48.8867 55.3833 48.9933 55.62 49.08 55.9C49.1733 56.18 49.2567 56.5 49.33 56.86C49.39 57.14 49.45 57.3833 49.51 57.59C49.5767 57.7967 49.66 57.9567 49.76 58.07C49.8667 58.1833 50.0033 58.24 50.17 58.24C50.4633 58.24 50.7267 58.05 50.96 57.67C51.1933 57.2833 51.4133 56.6733 51.62 55.84L52.67 56.19C52.4967 56.93 52.2933 57.5367 52.06 58.01C51.8267 58.4767 51.55 58.8233 51.23 59.05C50.91 59.2833 50.54 59.4 50.12 59.4C49.8333 59.4 49.5867 59.35 49.38 59.25C49.18 59.15 49.0067 59.0033 48.86 58.81C48.7133 58.6167 48.5867 58.3833 48.48 58.11C48.38 57.83 48.2933 57.5167 48.22 57.17C48.1533 56.8767 48.08 56.6233 48 56.41C47.9267 56.1967 47.83 56.0333 47.71 55.92C47.5967 55.8067 47.4433 55.75 47.25 55.75C47.1233 55.75 46.9767 55.7767 46.81 55.83C46.6433 55.8833 46.4733 55.9733 46.3 56.1C46.1333 56.22 45.97 56.3867 45.81 56.6C45.65 56.8067 45.5067 57.0667 45.38 57.38L44.48 59.59Z" fill="white"/>
<circle cx="66" cy="55" r="8" fill="#128FCD" fill-opacity="0.2"/>
<circle cx="66" cy="55" r="7.5" stroke="#48BCCB" stroke-opacity="0.4"/>
<path d="M65.32 56.81C65.32 56.53 65.35 56.2667 65.41 56.02C65.47 55.7733 65.58 55.5367 65.74 55.31C65.9 55.0767 66.1233 54.86 66.41 54.66C66.6367 54.5 66.82 54.3533 66.96 54.22C67.1 54.0867 67.1967 53.9567 67.25 53.83C67.31 53.7033 67.34 53.5767 67.34 53.45C67.34 53.19 67.2233 53.0033 66.99 52.89C66.7633 52.77 66.4 52.71 65.9 52.71C65.5467 52.71 65.1967 52.74 64.85 52.8C64.5033 52.8533 64.14 52.9433 63.76 53.07L63.5 51.98C63.88 51.86 64.2933 51.7667 64.74 51.7C65.1867 51.6333 65.63 51.6 66.07 51.6C67.79 51.6 68.65 52.1567 68.65 53.27C68.65 53.5233 68.6067 53.7567 68.52 53.97C68.44 54.1767 68.3067 54.38 68.12 54.58C67.9333 54.78 67.6867 54.9867 67.38 55.2C67.18 55.34 67.02 55.4967 66.9 55.67C66.78 55.8433 66.6967 56.0267 66.65 56.22C66.6033 56.4133 66.5733 56.61 66.56 56.81H65.32ZM65.23 59V57.64H66.65V59H65.23Z" fill="white"/>
<path d="M1.008 15.168V13.648H2.544V11.36H0.688L0.688 9.712H2.544L2.544 6.56H4.368V9.712H15.312V11.36H4.368V13.648H11.632V7.536H10.384V13.648H8.656V7.536H7.344V13.648H5.616V7.536H3.36V5.984H14.672V7.536H13.456V13.648H14.992V15.168H1.008ZM2.256 19.552L0.752 18.608C1.168 18.0747 1.54667 17.5467 1.888 17.024C2.24 16.5013 2.58133 15.952 2.912 15.376L4.48 16.16C3.85067 17.3547 3.10933 18.4853 2.256 19.552ZM5.696 19.504C5.632 18.9387 5.552 18.368 5.456 17.792C5.37067 17.216 5.26933 16.6133 5.152 15.984L6.96 15.744C7.088 16.3627 7.19467 16.9653 7.28 17.552C7.36533 18.1387 7.44 18.7147 7.504 19.28L5.696 19.504ZM9.584 19.472C9.424 18.9173 9.24267 18.3573 9.04 17.792C8.83733 17.2267 8.61333 16.6347 8.368 16.016L10.08 15.568C10.3253 16.1867 10.5493 16.784 10.752 17.36C10.9653 17.9253 11.152 18.4907 11.312 19.056L9.584 19.472ZM2.096 9.376L0.608 8.4C1.25867 7.80267 1.85067 7.17867 2.384 6.528C2.928 5.87733 3.41867 5.18933 3.856 4.464L5.6 4.896C5.16267 5.70667 4.64533 6.496 4.048 7.264C3.45067 8.032 2.8 8.736 2.096 9.376ZM13.728 19.472C13.408 18.9173 13.072 18.368 12.72 17.824C12.368 17.28 11.984 16.7147 11.568 16.128L13.072 15.28C13.488 15.856 13.8773 16.4267 14.24 16.992C14.6027 17.5467 14.9387 18.0907 15.248 18.624L13.728 19.472ZM21.04 19.008V17.376H25.696V13.824H22.08V12.224H25.696V9.296H22.528V7.648H25.696V5.008H27.616V7.648H31.232V9.296H27.616V12.224H30.848V13.824H27.616V17.376H31.424V19.008H21.04ZM17.472 13.856L16.144 13.584C16.3253 12.6667 16.4853 11.7387 16.624 10.8C16.7627 9.85067 16.8693 8.90133 16.944 7.952L18.272 8.112C18.1973 9.06133 18.0907 10.0213 17.952 10.992C17.8133 11.9627 17.6533 12.9173 17.472 13.856ZM18.368 19.472V5.008H20.256V19.472H18.368ZM20.704 11.328C20.5973 10.7627 20.48 10.1867 20.352 9.6C20.224 9.00267 20.0907 8.42133 19.952 7.856L21.2 7.552C21.3493 8.11733 21.4933 8.704 21.632 9.312C21.7813 9.90933 21.9093 10.4853 22.016 11.04L20.704 11.328ZM22.736 12.528L21.04 11.888C21.424 10.896 21.7653 9.84 22.064 8.72C22.3627 7.6 22.5973 6.464 22.768 5.312L24.48 5.584C24.3307 6.77867 24.1067 7.97333 23.808 9.168C23.5093 10.352 23.152 11.472 22.736 12.528ZM42.592 18.176C41.632 18.176 40.7733 18.0427 40.016 17.776C39.2693 17.5093 38.6827 17.1413 38.256 16.672C37.84 16.192 37.632 15.648 37.632 15.04C37.632 13.952 38.3413 12.832 39.76 11.68L41.136 12.72C40.5707 13.1787 40.1547 13.5787 39.888 13.92C39.632 14.2613 39.504 14.5867 39.504 14.896C39.504 15.216 39.632 15.4933 39.888 15.728C40.144 15.9627 40.5013 16.144 40.96 16.272C41.4187 16.4 41.9627 16.464 42.592 16.464C43.1253 16.464 43.7227 16.4267 44.384 16.352C45.056 16.2667 45.7333 16.1547 46.416 16.016L46.672 17.696C45.9787 17.8453 45.28 17.9627 44.576 18.048C43.8827 18.1333 43.2213 18.176 42.592 18.176ZM38.368 8.496V6.768H46.576V8.496H38.368ZM34.512 18.88C34.2347 17.7813 34.032 16.6987 33.904 15.632C33.776 14.5653 33.712 13.4347 33.712 12.24C33.712 11.056 33.776 9.936 33.904 8.88C34.032 7.81333 34.2347 6.73067 34.512 5.632L36.416 5.872C36.16 6.90667 35.968 7.94667 35.84 8.992C35.7227 10.0267 35.664 11.1093 35.664 12.24C35.664 13.3707 35.7227 14.4587 35.84 15.504C35.968 16.5493 36.16 17.5787 36.416 18.592L34.512 18.88ZM49.072 11.648C50.1707 11.488 51.3067 11.2053 52.48 10.8C53.6533 10.3947 54.8107 9.904 55.952 9.328C57.0933 8.74133 58.1547 8.096 59.136 7.392C60.1173 6.688 60.9547 5.95733 61.648 5.2L62.96 6.48C62.3627 7.13067 61.6587 7.76533 60.848 8.384C60.048 9.00267 59.1787 9.584 58.24 10.128C57.3013 10.672 56.3307 11.168 55.328 11.616C54.3253 12.0533 53.3173 12.4267 52.304 12.736C51.2907 13.0453 50.3093 13.2693 49.36 13.408L49.072 11.648ZM55.76 19.152V9.968H57.792V19.152H55.76ZM67.184 17.024C69.3173 16.928 71.0667 16.656 72.432 16.208C73.808 15.7493 74.8267 15.0987 75.488 14.256C76.1493 13.4027 76.48 12.352 76.48 11.104L77.392 12.016H65.408V10.288H78.432V11.104C78.432 13.472 77.5093 15.3013 75.664 16.592C73.8293 17.872 71.104 18.592 67.488 18.752L67.184 17.024ZM66.528 7.856V6.144H77.472V7.856H66.528ZM81.072 11.648C82.1707 11.488 83.3067 11.2053 84.48 10.8C85.6533 10.3947 86.8107 9.904 87.952 9.328C89.0933 8.74133 90.1547 8.096 91.136 7.392C92.1173 6.688 92.9547 5.95733 93.648 5.2L94.96 6.48C94.3627 7.13067 93.6587 7.76533 92.848 8.384C92.048 9.00267 91.1787 9.584 90.24 10.128C89.3013 10.672 88.3307 11.168 87.328 11.616C86.3253 12.0533 85.3173 12.4267 84.304 12.736C83.2907 13.0453 82.3093 13.2693 81.36 13.408L81.072 11.648ZM87.76 19.152V9.968H89.792V19.152H87.76ZM99.184 17.024C101.317 16.928 103.067 16.656 104.432 16.208C105.808 15.7493 106.827 15.0987 107.488 14.256C108.149 13.4027 108.48 12.352 108.48 11.104L109.392 12.016H97.408V10.288H110.432V11.104C110.432 13.472 109.509 15.3013 107.664 16.592C105.829 17.872 103.104 18.592 99.488 18.752L99.184 17.024ZM98.528 7.856V6.144H109.472V7.856H98.528ZM119.712 18.832C118.496 18.832 117.499 18.64 116.72 18.256C115.952 17.8827 115.381 17.3013 115.008 16.512C114.645 15.7227 114.464 14.7093 114.464 13.472V5.68H116.416V13.472C116.416 14.72 116.677 15.6267 117.2 16.192C117.723 16.7467 118.56 17.024 119.712 17.024C120.555 17.024 121.296 16.8693 121.936 16.56C122.587 16.2507 123.173 15.7493 123.696 15.056C124.229 14.352 124.741 13.4187 125.232 12.256L127.008 12.976C126.581 14.0427 126.123 14.9493 125.632 15.696C125.152 16.432 124.624 17.0347 124.048 17.504C123.483 17.9627 122.843 18.2987 122.128 18.512C121.413 18.7253 120.608 18.832 119.712 18.832ZM139.072 18.592C137.781 18.592 136.656 18.3733 135.696 17.936C134.747 17.4987 134.011 16.88 133.488 16.08C132.965 15.2693 132.704 14.32 132.704 13.232C132.704 12.3787 132.859 11.5947 133.168 10.88C133.488 10.1547 133.936 9.52 134.512 8.976C135.099 8.42133 135.792 8 136.592 7.712L136.752 8.208L129.136 8.384V6.672L142.624 6.352V8.064L140.592 8.112C139.76 8.13333 138.987 8.26133 138.272 8.496C137.568 8.73067 136.949 9.06667 136.416 9.504C135.883 9.94133 135.467 10.4587 135.168 11.056C134.88 11.6427 134.736 12.304 134.736 13.04C134.736 13.8293 134.912 14.512 135.264 15.088C135.616 15.6533 136.112 16.0853 136.752 16.384C137.403 16.6827 138.181 16.832 139.088 16.832C139.387 16.832 139.728 16.816 140.112 16.784C140.507 16.752 140.848 16.7093 141.136 16.656L141.344 18.416C141.003 18.4693 140.624 18.512 140.208 18.544C139.803 18.576 139.424 18.592 139.072 18.592ZM151.712 18.832C150.496 18.832 149.499 18.64 148.72 18.256C147.952 17.8827 147.381 17.3013 147.008 16.512C146.645 15.7227 146.464 14.7093 146.464 13.472V5.68H148.416V13.472C148.416 14.72 148.677 15.6267 149.2 16.192C149.723 16.7467 150.56 17.024 151.712 17.024C152.555 17.024 153.296 16.8693 153.936 16.56C154.587 16.2507 155.173 15.7493 155.696 15.056C156.229 14.352 156.741 13.4187 157.232 12.256L159.008 12.976C158.581 14.0427 158.123 14.9493 157.632 15.696C157.152 16.432 156.624 17.0347 156.048 17.504C155.483 17.9627 154.843 18.2987 154.128 18.512C153.413 18.7253 152.608 18.832 151.712 18.832ZM165.872 18.848C164.613 18.848 163.637 18.5973 162.944 18.096C162.261 17.6053 161.92 16.9013 161.92 15.984C161.92 15.0667 162.261 14.368 162.944 13.888C163.627 13.408 164.603 13.168 165.872 13.168C166.565 13.168 167.237 13.2427 167.888 13.392C168.539 13.5413 169.195 13.7813 169.856 14.112C170.528 14.4427 171.232 14.8747 171.968 15.408C172.704 15.9307 173.499 16.5707 174.352 17.328L173.136 18.544C172.325 17.8507 171.584 17.264 170.912 16.784C170.251 16.2933 169.637 15.8987 169.072 15.6C168.507 15.2907 167.963 15.072 167.44 14.944C166.928 14.8053 166.405 14.736 165.872 14.736C164.507 14.736 163.824 15.1413 163.824 15.952C163.824 16.368 163.995 16.688 164.336 16.912C164.677 17.1253 165.179 17.232 165.84 17.232C166.629 17.232 167.211 17.0667 167.584 16.736C167.957 16.4053 168.144 15.8987 168.144 15.216V5.136H169.952V15.216C169.952 16.4213 169.611 17.328 168.928 17.936C168.256 18.544 167.237 18.848 165.872 18.848ZM161.808 11.632V10.048H174.192V11.632H161.808ZM161.648 8.368V6.752H174.352V8.368H161.648ZM181.136 18.464C180.592 18.464 180.091 18.2987 179.632 17.968C179.173 17.6267 178.773 17.152 178.432 16.544C178.091 15.936 177.824 15.2213 177.632 14.4C177.451 13.568 177.36 12.672 177.36 11.712C177.36 10.9333 177.424 10.112 177.552 9.248C177.691 8.37333 177.899 7.456 178.176 6.496L180.048 6.72C179.803 7.60533 179.616 8.448 179.488 9.248C179.36 10.048 179.296 10.8 179.296 11.504C179.296 12.176 179.349 12.8107 179.456 13.408C179.563 14.0053 179.707 14.528 179.888 14.976C180.08 15.424 180.293 15.776 180.528 16.032C180.773 16.288 181.029 16.416 181.296 16.416C181.552 16.416 181.829 16.3093 182.128 16.096C182.437 15.872 182.752 15.5733 183.072 15.2C183.392 14.8267 183.691 14.4 183.968 13.92C184.256 13.44 184.496 12.9387 184.688 12.416L186.4 13.28C186.133 14.0053 185.803 14.6827 185.408 15.312C185.013 15.9413 184.576 16.496 184.096 16.976C183.627 17.4453 183.136 17.808 182.624 18.064C182.112 18.3307 181.616 18.464 181.136 18.464ZM189.168 16.912C189.168 15.696 189.083 14.4853 188.912 13.28C188.752 12.0747 188.512 10.9173 188.192 9.808C187.883 8.69867 187.509 7.68 187.072 6.752L188.848 6.224C189.339 7.19467 189.744 8.256 190.064 9.408C190.395 10.5493 190.645 11.7547 190.816 13.024C190.997 14.2827 191.088 15.5787 191.088 16.912H189.168ZM197.872 18.848C196.613 18.848 195.637 18.5973 194.944 18.096C194.261 17.6053 193.92 16.9013 193.92 15.984C193.92 15.0667 194.261 14.368 194.944 13.888C195.627 13.408 196.603 13.168 197.872 13.168C198.565 13.168 199.237 13.2427 199.888 13.392C200.539 13.5413 201.195 13.7813 201.856 14.112C202.528 14.4427 203.232 14.8747 203.968 15.408C204.704 15.9307 205.499 16.5707 206.352 17.328L205.136 18.544C204.325 17.8507 203.584 17.264 202.912 16.784C202.251 16.2933 201.637 15.8987 201.072 15.6C200.507 15.2907 199.963 15.072 199.44 14.944C198.928 14.8053 198.405 14.736 197.872 14.736C196.507 14.736 195.824 15.1413 195.824 15.952C195.824 16.368 195.995 16.688 196.336 16.912C196.677 17.1253 197.179 17.232 197.84 17.232C198.629 17.232 199.211 17.0667 199.584 16.736C199.957 16.4053 200.144 15.8987 200.144 15.216V5.136H201.952V15.216C201.952 16.4213 201.611 17.328 200.928 17.936C200.256 18.544 199.237 18.848 197.872 18.848ZM193.808 11.632V10.048H206.192V11.632H193.808ZM193.648 8.368V6.752H206.352V8.368H193.648ZM212.064 17.328C213.024 17.2853 213.883 17.1253 214.64 16.848C215.397 16.56 215.995 16.192 216.432 15.744C216.88 15.296 217.104 14.8053 217.104 14.272V13.904L217.904 14.112C217.787 14.3253 217.627 14.5227 217.424 14.704C217.221 14.8853 216.981 15.0453 216.704 15.184C216.437 15.312 216.139 15.4133 215.808 15.488C215.488 15.5627 215.157 15.6 214.816 15.6C214.112 15.6 213.504 15.4667 212.992 15.2C212.48 14.9227 212.08 14.5387 211.792 14.048C211.515 13.5573 211.376 12.9813 211.376 12.32C211.376 11.648 211.525 11.0667 211.824 10.576C212.123 10.0853 212.539 9.70667 213.072 9.44C213.616 9.16267 214.251 9.024 214.976 9.024C215.573 9.024 216.091 9.12533 216.528 9.328C216.965 9.53067 217.397 9.83467 217.824 10.24L216.688 10.56V4.912H218.608V12.176L218.464 11.344C218.667 11.664 218.805 11.9947 218.88 12.336C218.965 12.6667 219.008 13.04 219.008 13.456C219.008 14.5333 218.741 15.4773 218.208 16.288C217.675 17.0987 216.912 17.7333 215.92 18.192C214.928 18.6613 213.739 18.9333 212.352 19.008L212.064 17.328ZM215.136 14.032C215.413 14.032 215.659 13.9947 215.872 13.92C216.096 13.8347 216.288 13.7173 216.448 13.568C216.608 13.4187 216.731 13.2373 216.816 13.024C216.901 12.8107 216.944 12.576 216.944 12.32C216.944 11.776 216.779 11.3493 216.448 11.04C216.128 10.7307 215.691 10.576 215.136 10.576C214.592 10.576 214.149 10.7307 213.808 11.04C213.477 11.3493 213.312 11.776 213.312 12.32C213.312 12.832 213.477 13.248 213.808 13.568C214.139 13.8773 214.581 14.032 215.136 14.032ZM208.944 8.304V6.768H223.056V8.304H208.944Z" fill="white"/>
<defs>
<filter id="filter0_d_122_2266" x="16" y="61" width="66" height="66" filterUnits="userSpaceOnUse" color-interpolation-filters="sRGB">
<feFlood flood-opacity="0" result="BackgroundImageFix"/>
<feColorMatrix in="SourceAlpha" type="matrix" values="0 0 0 0 0 0 0 0 0 0 0 0 0 0 0 0 0 0 127 0" result="hardAlpha"/>
<feOffset/>
<feGaussianBlur stdDeviation="3"/>
<feComposite in2="hardAlpha" operator="out"/>
<feColorMatrix type="matrix" values="0 0 0 0 0.282353 0 0 0 0 0.737255 0 0 0 0 0.796078 0 0 0 0.25 0"/>
<feBlend mode="normal" in2="BackgroundImageFix" result="effect1_dropShadow_122_2266"/>
<feBlend mode="normal" in="SourceGraphic" in2="effect1_dropShadow_122_2266" result="shape"/>
</filter>
</defs>
</svg>
