<svg width="272" height="127" viewBox="0 0 272 127" fill="none" xmlns="http://www.w3.org/2000/svg">
<circle cx="73" cy="94" r="27" fill="#128FCD" fill-opacity="0.2"/>
<circle cx="73" cy="94" r="26" stroke="#48BCCB" stroke-opacity="0.4" stroke-width="2"/>
<path d="M70.552 100.116C70.552 99.108 70.66 98.16 70.876 97.272C71.092 96.384 71.488 95.532 72.064 94.716C72.64 93.876 73.444 93.096 74.476 92.376C75.292 91.8 75.952 91.272 76.456 90.792C76.96 90.312 77.308 89.844 77.5 89.388C77.716 88.932 77.824 88.476 77.824 88.02C77.824 87.084 77.404 86.412 76.564 86.004C75.748 85.572 74.44 85.356 72.64 85.356C71.368 85.356 70.108 85.464 68.86 85.68C67.612 85.872 66.304 86.196 64.936 86.652L64 82.728C65.368 82.296 66.856 81.96 68.464 81.72C70.072 81.48 71.668 81.36 73.252 81.36C79.444 81.36 82.54 83.364 82.54 87.372C82.54 88.284 82.384 89.124 82.072 89.892C81.784 90.636 81.304 91.368 80.632 92.088C79.96 92.808 79.072 93.552 77.968 94.32C77.248 94.824 76.672 95.388 76.24 96.012C75.808 96.636 75.508 97.296 75.34 97.992C75.172 98.688 75.064 99.396 75.016 100.116H70.552ZM70.228 108V103.104H75.34V108H70.228Z" fill="white"/>
<circle cx="199" cy="94" r="27" fill="#128FCD" fill-opacity="0.2"/>
<circle cx="199" cy="94" r="26" stroke="#48BCCB" stroke-opacity="0.4" stroke-width="2"/>
<path d="M190.036 104.328C194.74 104.328 198.568 103.992 201.52 103.32C204.472 102.624 206.632 101.568 208 100.152C209.392 98.712 210.088 96.852 210.088 94.572C210.088 92.028 209.248 90.108 207.568 88.812C205.888 87.516 203.38 86.868 200.044 86.868C198.796 86.868 197.428 86.964 195.94 87.156C194.452 87.348 192.748 87.648 190.828 88.056C188.932 88.464 186.712 89.004 184.168 89.676L183.268 85.392C187.108 84.456 190.408 83.784 193.168 83.376C195.952 82.944 198.352 82.728 200.368 82.728C203.44 82.728 206.044 83.172 208.18 84.06C210.316 84.924 211.936 86.208 213.04 87.912C214.144 89.616 214.696 91.704 214.696 94.176C214.696 98.856 212.644 102.396 208.54 104.796C204.436 107.196 198.364 108.396 190.324 108.396L190.036 104.328Z" fill="white"/>
<g filter="url(#filter0_d_122_1894)">
<rect x="109" y="67" width="54" height="54" fill="#128FCD" fill-opacity="0.2" shape-rendering="crispEdges"/>
<rect x="110" y="68" width="52" height="52" stroke="#48BCCB" stroke-opacity="0.5" stroke-width="2" shape-rendering="crispEdges"/>
</g>
<circle cx="127" cy="55" r="8" fill="#128FCD" fill-opacity="0.2"/>
<circle cx="127" cy="55" r="7.5" stroke="#48BCCB" stroke-opacity="0.4"/>
<path d="M126.32 56.81C126.32 56.53 126.35 56.2667 126.41 56.02C126.47 55.7733 126.58 55.5367 126.74 55.31C126.9 55.0767 127.123 54.86 127.41 54.66C127.637 54.5 127.82 54.3533 127.96 54.22C128.1 54.0867 128.197 53.9567 128.25 53.83C128.31 53.7033 128.34 53.5767 128.34 53.45C128.34 53.19 128.223 53.0033 127.99 52.89C127.763 52.77 127.4 52.71 126.9 52.71C126.547 52.71 126.197 52.74 125.85 52.8C125.503 52.8533 125.14 52.9433 124.76 53.07L124.5 51.98C124.88 51.86 125.293 51.7667 125.74 51.7C126.187 51.6333 126.63 51.6 127.07 51.6C128.79 51.6 129.65 52.1567 129.65 53.27C129.65 53.5233 129.607 53.7567 129.52 53.97C129.44 54.1767 129.307 54.38 129.12 54.58C128.933 54.78 128.687 54.9867 128.38 55.2C128.18 55.34 128.02 55.4967 127.9 55.67C127.78 55.8433 127.697 56.0267 127.65 56.22C127.603 56.4133 127.573 56.61 127.56 56.81H126.32ZM126.23 59V57.64H127.65V59H126.23Z" fill="white"/>
<circle cx="145" cy="55" r="8" fill="#128FCD" fill-opacity="0.2"/>
<circle cx="145" cy="55" r="7.5" stroke="#48BCCB" stroke-opacity="0.4"/>
<path d="M144.32 56.81C144.32 56.53 144.35 56.2667 144.41 56.02C144.47 55.7733 144.58 55.5367 144.74 55.31C144.9 55.0767 145.123 54.86 145.41 54.66C145.637 54.5 145.82 54.3533 145.96 54.22C146.1 54.0867 146.197 53.9567 146.25 53.83C146.31 53.7033 146.34 53.5767 146.34 53.45C146.34 53.19 146.223 53.0033 145.99 52.89C145.763 52.77 145.4 52.71 144.9 52.71C144.547 52.71 144.197 52.74 143.85 52.8C143.503 52.8533 143.14 52.9433 142.76 53.07L142.5 51.98C142.88 51.86 143.293 51.7667 143.74 51.7C144.187 51.6333 144.63 51.6 145.07 51.6C146.79 51.6 147.65 52.1567 147.65 53.27C147.65 53.5233 147.607 53.7567 147.52 53.97C147.44 54.1767 147.307 54.38 147.12 54.58C146.933 54.78 146.687 54.9867 146.38 55.2C146.18 55.34 146.02 55.4967 145.9 55.67C145.78 55.8433 145.697 56.0267 145.65 56.22C145.603 56.4133 145.573 56.61 145.56 56.81H144.32ZM144.23 59V57.64H145.65V59H144.23Z" fill="white"/>
<path d="M3.488 16.608C4.84267 16.48 6.02667 16.2613 7.04 15.952C8.064 15.632 8.93333 15.2053 9.648 14.672C10.3627 14.128 10.9387 13.4613 11.376 12.672C11.824 11.872 12.1547 10.9227 12.368 9.824C12.592 8.72533 12.704 7.456 12.704 6.016L14.608 6.112C14.5973 8.14933 14.384 9.90933 13.968 11.392C13.5627 12.864 12.9333 14.0853 12.08 15.056C11.2267 16.0267 10.1173 16.7787 8.752 17.312C7.39733 17.8453 5.75467 18.1973 3.824 18.368L3.488 16.608ZM3.808 12.432C3.43467 11.5147 3.03467 10.592 2.608 9.664C2.18133 8.72533 1.73867 7.81333 1.28 6.928L3.024 6.16C3.48267 7.03467 3.93067 7.94667 4.368 8.896C4.816 9.83467 5.22667 10.7787 5.6 11.728L3.808 12.432ZM17.408 13.184V11.28H30.592V13.184H17.408ZM33.456 16.848C35.0347 16.08 36.464 15.216 37.744 14.256C39.0347 13.2853 40.16 12.24 41.12 11.12C42.0907 10 42.8693 8.82133 43.456 7.584L44.032 8.032H34.288V6.288H45.344V8.032C44.736 9.42933 43.888 10.7787 42.8 12.08C41.7227 13.3707 40.464 14.56 39.024 15.648C37.5947 16.736 36.0267 17.68 34.32 18.48L33.456 16.848ZM45.36 18.592C44.752 17.8987 44.1493 17.2693 43.552 16.704C42.9653 16.1387 42.3573 15.6107 41.728 15.12C41.0987 14.6293 40.4213 14.1547 39.696 13.696L40.944 12.336C42.0107 13.008 43.0133 13.7493 43.952 14.56C44.8907 15.36 45.8027 16.2667 46.688 17.28L45.36 18.592ZM57.248 15.696C57.248 14.4587 57.1733 13.4827 57.024 12.768C56.8853 12.0427 56.6453 11.5253 56.304 11.216C55.9733 10.9067 55.5147 10.752 54.928 10.752C54.416 10.752 53.92 10.8747 53.44 11.12C52.9707 11.3653 52.496 11.76 52.016 12.304C51.5467 12.8373 51.0293 13.552 50.464 14.448L48.896 13.552C49.4293 12.7307 49.8987 11.9733 50.304 11.28C50.72 10.5867 51.0933 9.90933 51.424 9.248C51.7653 8.576 52.0747 7.89333 52.352 7.2C52.64 6.496 52.9173 5.73333 53.184 4.912L55.072 5.216C54.7413 6.208 54.3893 7.12533 54.016 7.968C53.6427 8.8 53.232 9.62667 52.784 10.448L52.352 10.192C52.8213 9.89333 53.3227 9.66933 53.856 9.52C54.4 9.36 54.944 9.28 55.488 9.28C56.3733 9.28 57.0827 9.49333 57.616 9.92C58.16 10.3467 58.5547 11.0347 58.8 11.984C59.0453 12.9227 59.168 14.16 59.168 15.696H57.248ZM57.088 18.944C55.4453 18.944 54.16 18.6933 53.232 18.192C52.304 17.7013 51.84 17.0133 51.84 16.128C51.84 15.5093 52.0747 14.9013 52.544 14.304C53.0133 13.696 53.6907 13.1253 54.576 12.592C55.472 12.0587 56.544 11.568 57.792 11.12C59.0507 10.672 60.4693 10.2827 62.048 9.952L62.336 11.52C61.024 11.7973 59.84 12.112 58.784 12.464C57.7387 12.816 56.8373 13.1893 56.08 13.584C55.3333 13.968 54.7573 14.3627 54.352 14.768C53.9467 15.1733 53.744 15.568 53.744 15.952C53.744 16.4 54.032 16.752 54.608 17.008C55.1947 17.2533 56.0267 17.376 57.104 17.376C57.7653 17.376 58.5013 17.3333 59.312 17.248C60.1227 17.152 60.9973 17.0187 61.936 16.848L62.192 18.448C61.648 18.544 61.072 18.6293 60.464 18.704C59.856 18.7787 59.2587 18.8373 58.672 18.88C58.096 18.9227 57.568 18.944 57.088 18.944ZM48.944 8.096V6.576H61.696V8.096H48.944ZM65.392 18.672C65.84 17.232 66.2453 15.7707 66.608 14.288C66.9813 12.7947 67.3067 11.28 67.584 9.744C67.872 8.19733 68.1173 6.64 68.32 5.072L70.224 5.152C70.0427 6.688 69.808 8.24 69.52 9.808C69.2427 11.376 68.9173 12.9333 68.544 14.48C68.1707 16.016 67.7547 17.5253 67.296 19.008L65.392 18.672ZM75.312 18.688C74.3413 18.688 73.4987 18.5707 72.784 18.336C72.0693 18.112 71.5147 17.7973 71.12 17.392C70.7253 16.976 70.528 16.48 70.528 15.904C70.528 15.4773 70.672 15.056 70.96 14.64C71.248 14.224 71.6907 13.792 72.288 13.344L73.728 14.368C73.3227 14.624 73.0187 14.864 72.816 15.088C72.624 15.3013 72.528 15.5147 72.528 15.728C72.528 15.9733 72.64 16.192 72.864 16.384C73.0987 16.5653 73.424 16.7093 73.84 16.816C74.2667 16.9227 74.7573 16.976 75.312 16.976C75.8133 16.976 76.3253 16.9493 76.848 16.896C77.3707 16.8427 77.9147 16.7627 78.48 16.656L78.688 18.368C78.1013 18.4747 77.536 18.5547 76.992 18.608C76.448 18.6613 75.888 18.688 75.312 18.688ZM65.168 8.736V7.072H76.432V8.736H65.168ZM71.152 10.544C72.4107 10.4267 73.6427 10.336 74.848 10.272C76.064 10.208 77.28 10.176 78.496 10.176V11.856C77.3013 11.856 76.1013 11.888 74.896 11.952C73.7013 12.0053 72.4907 12.1013 71.264 12.24L71.152 10.544ZM84.8 16.528C86.4107 16.528 87.7173 16.4213 88.72 16.208C89.7333 15.984 90.4747 15.6373 90.944 15.168C91.4133 14.6987 91.648 14.096 91.648 13.36C91.648 12.5387 91.376 11.9253 90.832 11.52C90.2987 11.1147 89.4827 10.912 88.384 10.912C87.9467 10.912 87.4667 10.9493 86.944 11.024C86.4213 11.088 85.8187 11.1893 85.136 11.328C84.464 11.4667 83.68 11.6533 82.784 11.888L82.416 10.08C83.7707 9.76 84.944 9.52533 85.936 9.376C86.928 9.216 87.7813 9.136 88.496 9.136C90.128 9.136 91.3813 9.488 92.256 10.192C93.1307 10.896 93.568 11.904 93.568 13.216C93.568 14.88 92.8373 16.1387 91.376 16.992C89.9253 17.8453 87.7707 18.272 84.912 18.272L84.8 16.528ZM103.312 18.992C102.683 18.992 102.027 18.9067 101.344 18.736C100.672 18.576 100.101 18.3627 99.632 18.096L100.224 16.496C100.683 16.7627 101.157 16.96 101.648 17.088C102.149 17.216 102.624 17.2747 103.072 17.264C103.499 17.2533 103.872 17.1893 104.192 17.072C104.523 16.944 104.779 16.7733 104.96 16.56C105.152 16.336 105.248 16.08 105.248 15.792C105.248 15.536 105.184 15.296 105.056 15.072C104.928 14.8373 104.752 14.6027 104.528 14.368C104.304 14.1227 104.043 13.872 103.744 13.616C103.381 13.2747 103.067 12.96 102.8 12.672C102.544 12.3733 102.341 12.0747 102.192 11.776C102.053 11.4773 101.984 11.1627 101.984 10.832C101.984 10.3947 102.101 9.97333 102.336 9.568C102.581 9.152 102.939 8.752 103.408 8.368C103.888 7.97333 104.475 7.6 105.168 7.248L105.488 7.776H98.704V6.144H107.264L107.36 8.096C106.645 8.30933 106.043 8.54933 105.552 8.816C105.061 9.072 104.693 9.35467 104.448 9.664C104.203 9.97333 104.08 10.2987 104.08 10.64C104.08 10.8747 104.139 11.104 104.256 11.328C104.384 11.552 104.555 11.7867 104.768 12.032C104.992 12.2773 105.248 12.544 105.536 12.832C105.909 13.2267 106.229 13.5893 106.496 13.92C106.763 14.24 106.965 14.5547 107.104 14.864C107.253 15.1733 107.328 15.5093 107.328 15.872C107.328 16.48 107.157 17.024 106.816 17.504C106.475 17.9733 106 18.336 105.392 18.592C104.795 18.8587 104.101 18.992 103.312 18.992ZM96.32 16.576C96.6187 16.032 96.9013 15.4507 97.168 14.832C97.4347 14.2027 97.68 13.5733 97.904 12.944C98.1387 12.3147 98.3307 11.7227 98.48 11.168L100.256 11.632C100.107 12.2293 99.9147 12.8533 99.68 13.504C99.4453 14.144 99.184 14.7893 98.896 15.44C98.6187 16.0907 98.32 16.7147 98 17.312L96.32 16.576ZM109.952 17.168C109.771 16.56 109.552 15.9413 109.296 15.312C109.04 14.6827 108.757 14.064 108.448 13.456C108.149 12.8373 107.84 12.2613 107.52 11.728L109.184 10.96C109.504 11.4933 109.813 12.08 110.112 12.72C110.421 13.3493 110.709 13.9947 110.976 14.656C111.253 15.3173 111.493 15.9733 111.696 16.624L109.952 17.168ZM108.368 8.848C107.963 8.848 107.584 8.74667 107.232 8.544C106.891 8.34133 106.619 8.06933 106.416 7.728C106.213 7.376 106.112 6.99733 106.112 6.592C106.112 6.16533 106.213 5.78133 106.416 5.44C106.619 5.09867 106.891 4.82667 107.232 4.624C107.584 4.42133 107.963 4.32 108.368 4.32C108.795 4.32 109.179 4.42133 109.52 4.624C109.861 4.82667 110.133 5.09867 110.336 5.44C110.539 5.78133 110.64 6.16533 110.64 6.592C110.64 6.99733 110.539 7.376 110.336 7.728C110.133 8.06933 109.861 8.34133 109.52 8.544C109.179 8.74667 108.795 8.848 108.368 8.848ZM108.368 7.44C108.613 7.44 108.816 7.35467 108.976 7.184C109.147 7.01333 109.232 6.816 109.232 6.592C109.232 6.34667 109.147 6.144 108.976 5.984C108.816 5.81333 108.613 5.728 108.368 5.728C108.144 5.728 107.947 5.81333 107.776 5.984C107.605 6.144 107.52 6.34667 107.52 6.592C107.52 6.816 107.605 7.01333 107.776 7.184C107.947 7.35467 108.144 7.44 108.368 7.44ZM115.408 17.04C117.467 17.04 119.125 16.864 120.384 16.512C121.653 16.16 122.571 15.5893 123.136 14.8C123.712 14 124 12.9707 124 11.712C124 10.432 123.728 9.47733 123.184 8.848C122.651 8.208 121.829 7.888 120.72 7.888C120.101 7.888 119.52 7.98933 118.976 8.192C118.443 8.39467 117.973 8.68267 117.568 9.056C117.163 9.42933 116.837 9.872 116.592 10.384C116.357 10.896 116.24 11.4613 116.24 12.08V14.176H114.384V5.76H116.24V9.168H115.52C115.904 8.50667 116.357 7.94667 116.88 7.488C117.413 7.02933 118.016 6.68267 118.688 6.448C119.371 6.20267 120.112 6.08 120.912 6.08C122.544 6.08 123.792 6.56533 124.656 7.536C125.531 8.496 125.968 9.888 125.968 11.712C125.968 13.3547 125.595 14.6987 124.848 15.744C124.112 16.7893 122.976 17.5573 121.44 18.048C119.904 18.5493 117.925 18.8 115.504 18.8L115.408 17.04ZM132.016 16.368C134.107 16.368 135.808 16.2187 137.12 15.92C138.432 15.6107 139.392 15.1413 140 14.512C140.619 13.872 140.928 13.0453 140.928 12.032C140.928 10.9013 140.555 10.048 139.808 9.472C139.061 8.896 137.947 8.608 136.464 8.608C135.909 8.608 135.301 8.65067 134.64 8.736C133.979 8.82133 133.221 8.95467 132.368 9.136C131.525 9.31733 130.539 9.55733 129.408 9.856L129.008 7.952C130.715 7.536 132.181 7.23733 133.408 7.056C134.645 6.864 135.712 6.768 136.608 6.768C137.973 6.768 139.131 6.96533 140.08 7.36C141.029 7.744 141.749 8.31467 142.24 9.072C142.731 9.82933 142.976 10.7573 142.976 11.856C142.976 13.936 142.064 15.5093 140.24 16.576C138.416 17.6427 135.717 18.176 132.144 18.176L132.016 16.368ZM150.304 16.96C151.157 16.9173 151.872 16.8587 152.448 16.784C153.024 16.7093 153.483 16.5973 153.824 16.448C154.176 16.288 154.443 16.0693 154.624 15.792C154.816 15.5147 154.944 15.1573 155.008 14.72C155.072 14.272 155.104 13.7227 155.104 13.072V5.328H156.992V13.072C156.992 13.9253 156.933 14.6613 156.816 15.28C156.699 15.888 156.501 16.4 156.224 16.816C155.957 17.232 155.584 17.568 155.104 17.824C154.635 18.08 154.043 18.272 153.328 18.4C152.613 18.528 151.76 18.6187 150.768 18.672L150.304 16.96ZM149.392 10.048V8.368H159.392V10.048H149.392ZM146.448 18.88C146.171 17.7813 145.968 16.6987 145.84 15.632C145.712 14.5653 145.648 13.4347 145.648 12.24C145.648 11.056 145.712 9.936 145.84 8.88C145.968 7.81333 146.171 6.73067 146.448 5.632L148.384 5.872C148.128 6.90667 147.936 7.94667 147.808 8.992C147.68 10.0267 147.616 11.1093 147.616 12.24C147.616 13.3707 147.68 14.4587 147.808 15.504C147.936 16.5493 148.128 17.5787 148.384 18.592L146.448 18.88ZM171.072 18.592C169.781 18.592 168.656 18.3733 167.696 17.936C166.747 17.4987 166.011 16.88 165.488 16.08C164.965 15.2693 164.704 14.32 164.704 13.232C164.704 12.3787 164.859 11.5947 165.168 10.88C165.488 10.1547 165.936 9.52 166.512 8.976C167.099 8.42133 167.792 8 168.592 7.712L168.752 8.208L161.136 8.384V6.672L174.624 6.352V8.064L172.592 8.112C171.76 8.13333 170.987 8.26133 170.272 8.496C169.568 8.73067 168.949 9.06667 168.416 9.504C167.883 9.94133 167.467 10.4587 167.168 11.056C166.88 11.6427 166.736 12.304 166.736 13.04C166.736 13.8293 166.912 14.512 167.264 15.088C167.616 15.6533 168.112 16.0853 168.752 16.384C169.403 16.6827 170.181 16.832 171.088 16.832C171.387 16.832 171.728 16.816 172.112 16.784C172.507 16.752 172.848 16.7093 173.136 16.656L173.344 18.416C173.003 18.4693 172.624 18.512 172.208 18.544C171.803 18.576 171.424 18.592 171.072 18.592ZM183.024 19.472V15.056H177.008V13.472H183.024V12.64H182.256V11.216H185.744V10H182.256V8.608H185.744V7.472H182.256V12.64H180.4V5.968H187.6V12.64H184.976V13.472H190.992V15.056H184.976V19.472H183.024ZM177.168 19.264L176.464 17.696C177.947 17.2267 179.221 16.7253 180.288 16.192C181.355 15.6587 182.24 15.0987 182.944 14.512L184.08 15.36C183.312 16.096 182.352 16.7947 181.2 17.456C180.048 18.1173 178.704 18.72 177.168 19.264ZM177.104 12.896L176.432 11.36C177.061 11.1147 177.653 10.8587 178.208 10.592C178.773 10.3253 179.291 10.0533 179.76 9.776L180.464 11.248C179.984 11.536 179.461 11.8187 178.896 12.096C178.341 12.3733 177.744 12.64 177.104 12.896ZM190.832 19.264C189.296 18.72 187.952 18.1173 186.8 17.456C185.648 16.7947 184.688 16.096 183.92 15.36L185.056 14.512C185.76 15.0987 186.645 15.6587 187.712 16.192C188.779 16.7253 190.053 17.2267 191.536 17.696L190.832 19.264ZM179.2 9.088C178.848 8.768 178.443 8.42133 177.984 8.048C177.536 7.664 177.051 7.28533 176.528 6.912L177.632 5.584C178.144 5.95733 178.629 6.336 179.088 6.72C179.547 7.104 179.952 7.46133 180.304 7.792L179.2 9.088ZM184.288 7.12L182.336 6.976C182.453 6.624 182.565 6.26133 182.672 5.888C182.779 5.51467 182.88 5.11467 182.976 4.688L184.928 4.8C184.832 5.22667 184.731 5.632 184.624 6.016C184.517 6.4 184.405 6.768 184.288 7.12ZM190.784 12.88C190.283 12.5813 189.755 12.2987 189.2 12.032C188.645 11.7547 188.064 11.4933 187.456 11.248L188.224 9.776C188.864 10.0213 189.461 10.2773 190.016 10.544C190.581 10.8 191.104 11.072 191.584 11.36L190.784 12.88ZM188.784 9.056L187.648 7.792C188.117 7.45067 188.581 7.09333 189.04 6.72C189.499 6.336 189.925 5.96267 190.32 5.6L191.472 6.848C191.109 7.18933 190.699 7.552 190.24 7.936C189.781 8.30933 189.296 8.68267 188.784 9.056ZM199.712 18.832C198.496 18.832 197.499 18.64 196.72 18.256C195.952 17.8827 195.381 17.3013 195.008 16.512C194.645 15.7227 194.464 14.7093 194.464 13.472V5.68H196.416V13.472C196.416 14.72 196.677 15.6267 197.2 16.192C197.723 16.7467 198.56 17.024 199.712 17.024C200.555 17.024 201.296 16.8693 201.936 16.56C202.587 16.2507 203.173 15.7493 203.696 15.056C204.229 14.352 204.741 13.4187 205.232 12.256L207.008 12.976C206.581 14.0427 206.123 14.9493 205.632 15.696C205.152 16.432 204.624 17.0347 204.048 17.504C203.483 17.9627 202.843 18.2987 202.128 18.512C201.413 18.7253 200.608 18.832 199.712 18.832ZM216.976 18.912C215.952 18.912 215.104 18.8853 214.432 18.832C213.771 18.7893 213.248 18.7147 212.864 18.608C212.48 18.5013 212.208 18.3467 212.048 18.144C211.888 17.952 211.808 17.7067 211.808 17.408C211.808 17.2587 211.824 17.1093 211.856 16.96C211.888 16.8 211.947 16.6027 212.032 16.368C212.128 16.0693 212.203 15.7973 212.256 15.552C212.309 15.3067 212.341 15.088 212.352 14.896L212.96 14.944C212.8 15.2213 212.576 15.4347 212.288 15.584C212 15.7227 211.653 15.792 211.248 15.792C210.459 15.792 209.845 15.5093 209.408 14.944C208.971 14.3787 208.752 13.5787 208.752 12.544C208.752 11.488 208.971 10.6827 209.408 10.128C209.856 9.57333 210.491 9.296 211.312 9.296C211.739 9.296 212.149 9.38133 212.544 9.552C212.939 9.72267 213.317 9.97333 213.68 10.304L212.688 10.672V5.104H214.56V12.704C214.56 13.3227 214.517 13.856 214.432 14.304C214.357 14.7413 214.261 15.1627 214.144 15.568C214.091 15.76 214.043 15.936 214 16.096C213.957 16.2453 213.936 16.3733 213.936 16.48C213.936 16.672 214.021 16.8213 214.192 16.928C214.363 17.0347 214.667 17.1093 215.104 17.152C215.541 17.184 216.165 17.2 216.976 17.2C217.691 17.2 218.277 17.1787 218.736 17.136C219.205 17.0933 219.568 17.024 219.824 16.928C220.091 16.832 220.277 16.6933 220.384 16.512C220.501 16.3307 220.56 16.112 220.56 15.856C220.56 15.696 220.544 15.504 220.512 15.28C220.491 15.056 220.448 14.7893 220.384 14.48C220.32 14.1707 220.24 13.8133 220.144 13.408C220.059 12.992 219.952 12.512 219.824 11.968L221.584 11.6C221.744 12.2613 221.877 12.8373 221.984 13.328C222.101 13.8187 222.192 14.2507 222.256 14.624C222.331 14.9867 222.384 15.3067 222.416 15.584C222.448 15.8613 222.464 16.1067 222.464 16.32C222.464 16.832 222.373 17.2587 222.192 17.6C222.021 17.9307 221.728 18.192 221.312 18.384C220.907 18.576 220.352 18.7093 219.648 18.784C218.944 18.8693 218.053 18.912 216.976 18.912ZM211.664 14.288C212.08 14.288 212.379 14.1493 212.56 13.872C212.741 13.5947 212.832 13.1467 212.832 12.528C212.832 11.92 212.741 11.4773 212.56 11.2C212.379 10.9227 212.08 10.784 211.664 10.784C211.237 10.784 210.912 10.928 210.688 11.216C210.464 11.504 210.352 11.9413 210.352 12.528C210.352 13.1147 210.464 13.5573 210.688 13.856C210.912 14.144 211.237 14.288 211.664 14.288ZM209.024 8.496V6.88H217.984V8.496H209.024ZM222.672 10.576C222.075 10.0853 221.429 9.616 220.736 9.168C220.053 8.72 219.387 8.34133 218.736 8.032L219.712 6.56C220.352 6.86933 221.019 7.25333 221.712 7.712C222.405 8.16 223.056 8.63467 223.664 9.136L222.672 10.576ZM225.968 19.392C225.851 19.392 225.68 19.3867 225.456 19.376C225.232 19.3653 224.965 19.344 224.656 19.312L224.576 17.776C224.864 17.7973 225.099 17.8187 225.28 17.84C225.472 17.8507 225.611 17.856 225.696 17.856C225.781 17.856 225.84 17.8453 225.872 17.824C225.915 17.792 225.941 17.7227 225.952 17.616C225.963 17.5093 225.968 17.3227 225.968 17.056V9.392H224.496V7.792H225.968V5.008H227.792V7.792H229.152V9.392H227.792V16.944C227.792 17.4987 227.776 17.9413 227.744 18.272C227.712 18.6027 227.632 18.848 227.504 19.008C227.387 19.168 227.205 19.2693 226.96 19.312C226.725 19.3653 226.395 19.392 225.968 19.392ZM224.608 14.608L224.464 12.912C224.965 12.8053 225.472 12.6827 225.984 12.544C226.507 12.4053 227.013 12.256 227.504 12.096C228.005 11.936 228.464 11.776 228.88 11.616V13.296C228.475 13.456 228.027 13.6213 227.536 13.792C227.045 13.9627 226.549 14.1173 226.048 14.256C225.547 14.3947 225.067 14.512 224.608 14.608ZM229.216 18.752L228.24 17.632C228.72 17.408 229.2 17.1413 229.68 16.832C230.16 16.512 230.619 16.1707 231.056 15.808C231.493 15.4453 231.888 15.0773 232.24 14.704C232.603 14.32 232.901 13.9573 233.136 13.616L234.544 14.192C234.181 14.736 233.712 15.296 233.136 15.872C232.56 16.448 231.931 16.992 231.248 17.504C230.565 18.0053 229.888 18.4213 229.216 18.752ZM228.832 16.224L227.872 15.088C228.384 14.8107 228.901 14.4693 229.424 14.064C229.957 13.6587 230.443 13.2267 230.88 12.768C231.328 12.3093 231.68 11.8773 231.936 11.472L233.216 12.144C232.928 12.624 232.544 13.1253 232.064 13.648C231.584 14.16 231.061 14.6453 230.496 15.104C229.941 15.552 229.387 15.9253 228.832 16.224ZM232.624 19.632L231.552 18.544C231.989 18.2667 232.427 17.9413 232.864 17.568C233.312 17.184 233.733 16.7733 234.128 16.336C234.523 15.8987 234.869 15.4613 235.168 15.024C235.477 14.5867 235.723 14.1653 235.904 13.76L237.328 14.176C237.136 14.6453 236.869 15.136 236.528 15.648C236.197 16.1493 235.819 16.6453 235.392 17.136C234.976 17.6267 234.528 18.0853 234.048 18.512C233.579 18.9493 233.104 19.3227 232.624 19.632ZM236.976 19.376C236.72 19.376 236.421 19.3707 236.08 19.36C235.749 19.3493 235.381 19.3333 234.976 19.312L234.864 17.76C235.152 17.7813 235.435 17.8027 235.712 17.824C236 17.8347 236.224 17.84 236.384 17.84C236.565 17.84 236.709 17.776 236.816 17.648C236.933 17.5093 237.013 17.232 237.056 16.816C237.109 16.3893 237.136 15.744 237.136 14.88V14.736H230.448V13.392H238.96V14.576C238.96 15.5893 238.923 16.416 238.848 17.056C238.773 17.6853 238.656 18.1653 238.496 18.496C238.336 18.8373 238.128 19.0667 237.872 19.184C237.627 19.312 237.328 19.376 236.976 19.376ZM229.12 12.768V11.36H239.36V12.768H229.12ZM229.728 10.816V5.344H238.576V10.816H231.552V9.632H236.64V8.784H231.552V7.6H236.64V6.8H231.552V10.816H229.728ZM245.808 17.12C246.651 17.0773 247.355 17.0187 247.92 16.944C248.496 16.8693 248.955 16.7573 249.296 16.608C249.648 16.448 249.915 16.2293 250.096 15.952C250.288 15.6747 250.411 15.3173 250.464 14.88C250.528 14.432 250.56 13.8827 250.56 13.232V9.408H250.464V6.128H252.368V9.408H252.464V13.232C252.464 14.0853 252.405 14.8213 252.288 15.44C252.171 16.048 251.973 16.56 251.696 16.976C251.419 17.392 251.045 17.728 250.576 17.984C250.107 18.24 249.515 18.432 248.8 18.56C248.096 18.688 247.253 18.7787 246.272 18.832L245.808 17.12ZM241.952 19.04C241.675 17.9413 241.467 16.8587 241.328 15.792C241.2 14.7253 241.136 13.5947 241.136 12.4C241.136 11.216 241.2 10.096 241.328 9.04C241.456 7.97333 241.659 6.89067 241.936 5.792L243.872 6.032C243.616 7.06667 243.424 8.10667 243.296 9.152C243.168 10.1867 243.104 11.2693 243.104 12.4C243.104 13.5307 243.168 14.6187 243.296 15.664C243.424 16.7093 243.616 17.7387 243.872 18.752L241.952 19.04ZM244.896 10.4V8.72H254.88V10.4H244.896ZM251.936 7.68C251.84 7.168 251.733 6.68267 251.616 6.224C251.499 5.76533 251.36 5.30667 251.2 4.848L252.704 4.48C252.875 4.93867 253.019 5.40267 253.136 5.872C253.253 6.34133 253.355 6.848 253.44 7.392L251.936 7.68ZM254.16 7.504C254.075 6.98133 253.973 6.49067 253.856 6.032C253.749 5.57333 253.616 5.11467 253.456 4.656L254.96 4.32C255.12 4.77867 255.253 5.248 255.36 5.728C255.477 6.19733 255.573 6.69867 255.648 7.232L254.16 7.504ZM269.232 19.264C269.04 19.264 268.768 19.2587 268.416 19.248C268.075 19.2373 267.712 19.2213 267.328 19.2C266.955 19.1787 266.608 19.1627 266.288 19.152L266.208 17.488C266.613 17.52 267.019 17.5467 267.424 17.568C267.829 17.5787 268.144 17.584 268.368 17.584C268.485 17.584 268.587 17.5307 268.672 17.424C268.768 17.3067 268.848 17.0827 268.912 16.752C268.987 16.4107 269.051 15.904 269.104 15.232C269.168 14.5493 269.221 13.648 269.264 12.528C269.317 11.3973 269.365 9.97867 269.408 8.272H264.064V6.624H271.184C271.152 8.62933 271.115 10.336 271.072 11.744C271.029 13.152 270.976 14.32 270.912 15.248C270.848 16.1653 270.768 16.9013 270.672 17.456C270.576 18 270.459 18.4 270.32 18.656C270.192 18.912 270.037 19.0773 269.856 19.152C269.675 19.2267 269.467 19.264 269.232 19.264ZM256.688 15.216L256.512 13.616C257.557 13.4347 258.576 13.2267 259.568 12.992C260.571 12.7467 261.552 12.4747 262.512 12.176L262.656 13.776C261.685 14.0853 260.704 14.3573 259.712 14.592C258.731 14.8267 257.723 15.0347 256.688 15.216ZM259.104 19.472V9.04H257.824V7.44H259.104V5.008H260.944V7.44H262.432V9.04H260.944V19.472H259.104ZM257.872 11.984L256.368 11.632C256.56 10.768 256.736 9.82933 256.896 8.816C257.056 7.80267 257.173 6.74667 257.248 5.648L258.768 5.744C258.693 6.928 258.581 8.03733 258.432 9.072C258.293 10.1067 258.107 11.0773 257.872 11.984ZM263.664 19.44L262.544 18.112C263.579 17.3653 264.512 16.464 265.344 15.408C266.176 14.352 266.885 13.1787 267.472 11.888C268.069 10.5867 268.523 9.20533 268.832 7.744L270.176 8.288C269.973 9.45067 269.669 10.5813 269.264 11.68C268.869 12.768 268.389 13.7973 267.824 14.768C267.259 15.728 266.624 16.608 265.92 17.408C265.216 18.1973 264.464 18.8747 263.664 19.44ZM262.832 16.016L261.712 14.688C262.384 14.144 263.008 13.4933 263.584 12.736C264.16 11.968 264.667 11.12 265.104 10.192C265.552 9.264 265.915 8.28267 266.192 7.248L267.728 7.76C267.429 8.89067 267.029 9.97867 266.528 11.024C266.027 12.0693 265.461 13.0187 264.832 13.872C264.203 14.7253 263.536 15.44 262.832 16.016ZM262.464 12L261.312 10.752C261.728 10.2613 262.117 9.70133 262.48 9.072C262.843 8.432 263.168 7.744 263.456 7.008C263.755 6.272 263.995 5.52 264.176 4.752L265.92 4.96C265.685 5.86667 265.387 6.75733 265.024 7.632C264.672 8.50667 264.272 9.31733 263.824 10.064C263.387 10.8107 262.933 11.456 262.464 12Z" fill="white"/>
<defs>
<filter id="filter0_d_122_1894" x="103" y="61" width="66" height="66" filterUnits="userSpaceOnUse" color-interpolation-filters="sRGB">
<feFlood flood-opacity="0" result="BackgroundImageFix"/>
<feColorMatrix in="SourceAlpha" type="matrix" values="0 0 0 0 0 0 0 0 0 0 0 0 0 0 0 0 0 0 127 0" result="hardAlpha"/>
<feOffset/>
<feGaussianBlur stdDeviation="3"/>
<feComposite in2="hardAlpha" operator="out"/>
<feColorMatrix type="matrix" values="0 0 0 0 0.282353 0 0 0 0 0.737255 0 0 0 0 0.796078 0 0 0 0.25 0"/>
<feBlend mode="normal" in2="BackgroundImageFix" result="effect1_dropShadow_122_1894"/>
<feBlend mode="normal" in="SourceGraphic" in2="effect1_dropShadow_122_1894" result="shape"/>
</filter>
</defs>
</svg>
