<svg width="180" height="127" viewBox="0 0 180 127" fill="none" xmlns="http://www.w3.org/2000/svg">
<circle cx="27" cy="95" r="27" fill="#128FCD" fill-opacity="0.2"/>
<circle cx="27" cy="95" r="26" stroke="#48BCCB" stroke-opacity="0.4" stroke-width="2"/>
<path d="M33.012 109.432C31.716 109.432 30.348 109.312 28.908 109.072C27.492 108.832 26.136 108.496 24.84 108.064L25.632 104.356C26.832 104.692 28.116 104.968 29.484 105.184C30.852 105.376 32.028 105.472 33.012 105.472C34.524 105.472 35.7 105.22 36.54 104.716C37.404 104.212 38.028 103.348 38.412 102.124C38.796 100.9 38.988 99.22 38.988 97.084C38.988 94.036 38.472 91.792 37.44 90.352C36.432 88.888 34.848 88.156 32.688 88.156C31.776 88.156 30.864 88.312 29.952 88.624C29.064 88.912 28.104 89.38 27.072 90.028C26.064 90.676 24.948 91.576 23.724 92.728C22.5 93.856 21.096 95.26 19.512 96.94H19.188C18.252 98.044 17.244 99.28 16.164 100.648C15.108 102.016 13.968 103.54 12.744 105.22L10.26 101.692C12.516 98.956 14.532 96.604 16.308 94.636C18.108 92.644 19.74 90.976 21.204 89.632C22.668 88.288 24.036 87.232 25.308 86.464C26.58 85.672 27.804 85.108 28.98 84.772C30.18 84.412 31.416 84.232 32.688 84.232C36.216 84.232 38.856 85.312 40.608 87.472C42.384 89.608 43.272 92.812 43.272 97.084C43.272 101.404 42.456 104.548 40.824 106.516C39.192 108.46 36.588 109.432 33.012 109.432ZM16.92 111.412V89.596H10.008V85.924H16.92V80.668H21.096V111.412H16.92Z" fill="white"/>
<circle cx="153" cy="95" r="27" fill="#128FCD" fill-opacity="0.2"/>
<circle cx="153" cy="95" r="26" stroke="#48BCCB" stroke-opacity="0.4" stroke-width="2"/>
<path d="M150.552 101.116C150.552 100.108 150.66 99.16 150.876 98.272C151.092 97.384 151.488 96.532 152.064 95.716C152.64 94.876 153.444 94.096 154.476 93.376C155.292 92.8 155.952 92.272 156.456 91.792C156.96 91.312 157.308 90.844 157.5 90.388C157.716 89.932 157.824 89.476 157.824 89.02C157.824 88.084 157.404 87.412 156.564 87.004C155.748 86.572 154.44 86.356 152.64 86.356C151.368 86.356 150.108 86.464 148.86 86.68C147.612 86.872 146.304 87.196 144.936 87.652L144 83.728C145.368 83.296 146.856 82.96 148.464 82.72C150.072 82.48 151.668 82.36 153.252 82.36C159.444 82.36 162.54 84.364 162.54 88.372C162.54 89.284 162.384 90.124 162.072 90.892C161.784 91.636 161.304 92.368 160.632 93.088C159.96 93.808 159.072 94.552 157.968 95.32C157.248 95.824 156.672 96.388 156.24 97.012C155.808 97.636 155.508 98.296 155.34 98.992C155.172 99.688 155.064 100.396 155.016 101.116H150.552ZM150.228 109V104.104H155.34V109H150.228Z" fill="white"/>
<g filter="url(#filter0_d_122_2022)">
<rect x="63" y="67" width="54" height="54" fill="#128FCD" fill-opacity="0.2" shape-rendering="crispEdges"/>
<rect x="64" y="68" width="52" height="52" stroke="#48BCCB" stroke-opacity="0.5" stroke-width="2" shape-rendering="crispEdges"/>
</g>
<circle cx="81" cy="55" r="8" fill="#128FCD" fill-opacity="0.2"/>
<circle cx="81" cy="55" r="7.5" stroke="#48BCCB" stroke-opacity="0.4"/>
<path d="M80.32 56.81C80.32 56.53 80.35 56.2667 80.41 56.02C80.47 55.7733 80.58 55.5367 80.74 55.31C80.9 55.0767 81.1233 54.86 81.41 54.66C81.6367 54.5 81.82 54.3533 81.96 54.22C82.1 54.0867 82.1967 53.9567 82.25 53.83C82.31 53.7033 82.34 53.5767 82.34 53.45C82.34 53.19 82.2233 53.0033 81.99 52.89C81.7633 52.77 81.4 52.71 80.9 52.71C80.5467 52.71 80.1967 52.74 79.85 52.8C79.5033 52.8533 79.14 52.9433 78.76 53.07L78.5 51.98C78.88 51.86 79.2933 51.7667 79.74 51.7C80.1867 51.6333 80.63 51.6 81.07 51.6C82.79 51.6 83.65 52.1567 83.65 53.27C83.65 53.5233 83.6067 53.7567 83.52 53.97C83.44 54.1767 83.3067 54.38 83.12 54.58C82.9333 54.78 82.6867 54.9867 82.38 55.2C82.18 55.34 82.02 55.4967 81.9 55.67C81.78 55.8433 81.6967 56.0267 81.65 56.22C81.6033 56.4133 81.5733 56.61 81.56 56.81H80.32ZM80.23 59V57.64H81.65V59H80.23Z" fill="white"/>
<circle cx="99" cy="55" r="8" fill="#128FCD" fill-opacity="0.2"/>
<circle cx="99" cy="55" r="7.5" stroke="#48BCCB" stroke-opacity="0.4"/>
<path d="M98.32 56.81C98.32 56.53 98.35 56.2667 98.41 56.02C98.47 55.7733 98.58 55.5367 98.74 55.31C98.9 55.0767 99.1233 54.86 99.41 54.66C99.6367 54.5 99.82 54.3533 99.96 54.22C100.1 54.0867 100.197 53.9567 100.25 53.83C100.31 53.7033 100.34 53.5767 100.34 53.45C100.34 53.19 100.223 53.0033 99.99 52.89C99.7633 52.77 99.4 52.71 98.9 52.71C98.5467 52.71 98.1967 52.74 97.85 52.8C97.5033 52.8533 97.14 52.9433 96.76 53.07L96.5 51.98C96.88 51.86 97.2933 51.7667 97.74 51.7C98.1867 51.6333 98.63 51.6 99.07 51.6C100.79 51.6 101.65 52.1567 101.65 53.27C101.65 53.5233 101.607 53.7567 101.52 53.97C101.44 54.1767 101.307 54.38 101.12 54.58C100.933 54.78 100.687 54.9867 100.38 55.2C100.18 55.34 100.02 55.4967 99.9 55.67C99.78 55.8433 99.6967 56.0267 99.65 56.22C99.6033 56.4133 99.5733 56.61 99.56 56.81H98.32ZM98.23 59V57.64H99.65V59H98.23Z" fill="white"/>
<path d="M22.496 19.248L21.232 17.696C21.424 17.184 21.5787 16.6933 21.696 16.224C21.824 15.7547 21.9253 15.2693 22 14.768C22.0853 14.256 22.144 13.6853 22.176 13.056C22.208 12.4267 22.224 11.7013 22.224 10.88V8.832H33.424V10.272H24.064V12.176C24.064 13.6053 23.936 14.8853 23.68 16.016C23.4347 17.1467 23.04 18.224 22.496 19.248ZM19.552 19.472V9.536H21.344V19.472H19.552ZM18.64 14.192L18.128 11.888C18.5547 11.28 18.9333 10.64 19.264 9.968C19.6053 9.28533 19.9093 8.53333 20.176 7.712C20.4533 6.89067 20.6933 5.97867 20.896 4.976L22.704 5.28C22.5227 6.35733 22.272 7.36533 21.952 8.304C21.632 9.24267 21.2587 10.0907 20.832 10.848L20.608 10.752C20.5227 11.0187 20.4 11.312 20.24 11.632C20.0907 11.952 19.9253 12.272 19.744 12.592C19.5627 12.9013 19.376 13.1947 19.184 13.472C18.992 13.7493 18.8107 13.9893 18.64 14.192ZM24.192 19.392V10.944H32.992V17.488C32.992 17.9253 32.976 18.2667 32.944 18.512C32.9227 18.768 32.8587 18.9547 32.752 19.072C32.6453 19.1893 32.4853 19.264 32.272 19.296C32.0587 19.328 31.76 19.344 31.376 19.344C31.248 19.344 31.056 19.3387 30.8 19.328C30.544 19.328 30.288 19.3227 30.032 19.312L29.952 17.792C30.2293 17.8027 30.464 17.8133 30.656 17.824C30.848 17.8347 30.9707 17.84 31.024 17.84C31.0773 17.84 31.1147 17.8347 31.136 17.824C31.168 17.8027 31.184 17.76 31.184 17.696C31.1947 17.632 31.2 17.5253 31.2 17.376V16.704H25.92V15.488H31.2V14.512H25.92V13.296H31.2V12.304H29.36V19.28H27.696V12.304H25.92V19.392H24.192ZM24.848 8.576V7.552H22.704V6.064H24.848V4.864H26.656V6.064H29.408V4.864H31.28V6.064H33.264V7.552H31.28V8.576H29.408V7.552H26.656V8.576H24.848ZM36.608 18.88L35.456 17.472L44.592 10.304L44.624 10.816H36.096V9.152H46.64V10.816L42.432 14.208L41.536 14.128C41.5787 13.776 41.712 13.5147 41.936 13.344C42.16 13.1627 42.4587 13.072 42.832 13.072C43.344 13.072 43.7227 13.1733 43.968 13.376C44.2133 13.568 44.384 13.8187 44.48 14.128C44.5867 14.4373 44.672 14.752 44.736 15.072C44.7893 15.3813 44.8587 15.68 44.944 15.968C45.04 16.2453 45.1947 16.4747 45.408 16.656C45.6213 16.8267 45.9413 16.912 46.368 16.912C46.5493 16.912 46.7893 16.9013 47.088 16.88C47.3973 16.848 47.712 16.8107 48.032 16.768C48.3627 16.7147 48.6507 16.6613 48.896 16.608L49.072 18.272C48.7627 18.3573 48.432 18.4267 48.08 18.48C47.728 18.5333 47.3867 18.5707 47.056 18.592C46.736 18.624 46.4533 18.64 46.208 18.64C45.568 18.64 45.0507 18.5547 44.656 18.384C44.272 18.224 43.9733 18.0107 43.76 17.744C43.5467 17.4773 43.392 17.1893 43.296 16.88C43.2 16.5707 43.12 16.2827 43.056 16.016C43.0027 15.7493 42.944 15.52 42.88 15.328C42.816 15.136 42.7253 14.9867 42.608 14.88C42.5013 14.7627 42.336 14.704 42.112 14.704C42.0267 14.704 41.936 14.7253 41.84 14.768C41.744 14.8 41.6213 14.8693 41.472 14.976C41.3333 15.072 41.136 15.2267 40.88 15.44L36.608 18.88ZM46.272 7.68C45.4827 7.68 44.5973 7.65867 43.616 7.616C42.6347 7.57333 41.616 7.51467 40.56 7.44C39.5147 7.36533 38.48 7.28 37.456 7.184L37.664 5.472C38.7093 5.57867 39.7387 5.67467 40.752 5.76C41.7653 5.84533 42.7413 5.90933 43.68 5.952C44.6187 5.99467 45.4827 6.016 46.272 6.016V7.68ZM55.472 16.816V10.96V5.024H57.28V10.96V16.816H55.472ZM51.568 8.432V6.896H64.432V8.432H51.568ZM59.536 17.376C60.1973 17.248 60.768 17.04 61.248 16.752C61.7387 16.4533 62.112 16.08 62.368 15.632C62.6347 15.184 62.768 14.6933 62.768 14.16C62.768 13.552 62.5973 13.0293 62.256 12.592C61.9253 12.1547 61.4507 11.8133 60.832 11.568C60.2133 11.3227 59.4773 11.2 58.624 11.2C57.8453 11.2 57.1253 11.3067 56.464 11.52C55.8027 11.7227 55.2267 12.0107 54.736 12.384C54.2453 12.7573 53.8667 13.1947 53.6 13.696C53.3333 14.1867 53.2 14.7307 53.2 15.328C53.2 15.776 53.28 16.1333 53.44 16.4C53.6107 16.656 53.84 16.784 54.128 16.784C54.4053 16.784 54.7467 16.6773 55.152 16.464C55.5573 16.2507 56.0053 15.952 56.496 15.568C56.9973 15.184 57.5093 14.7413 58.032 14.24C58.5653 13.7387 59.0827 13.2 59.584 12.624C60.0853 12.048 60.5493 11.4507 60.976 10.832L62.4 11.744C61.856 12.5227 61.2853 13.2533 60.688 13.936C60.0907 14.6187 59.4827 15.2427 58.864 15.808C58.256 16.3627 57.6533 16.8427 57.056 17.248C56.4693 17.6427 55.904 17.9467 55.36 18.16C54.816 18.3733 54.3147 18.48 53.856 18.48C53.0987 18.48 52.496 18.1973 52.048 17.632C51.6107 17.0667 51.392 16.32 51.392 15.392C51.392 14.56 51.5627 13.7973 51.904 13.104C52.256 12.4107 52.7413 11.808 53.36 11.296C53.9893 10.7733 54.7253 10.3733 55.568 10.096C56.4107 9.808 57.328 9.664 58.32 9.664C59.6427 9.664 60.768 9.84533 61.696 10.208C62.6347 10.56 63.3547 11.072 63.856 11.744C64.3573 12.416 64.608 13.2213 64.608 14.16C64.608 14.9493 64.416 15.68 64.032 16.352C63.6587 17.024 63.1307 17.5893 62.448 18.048C61.776 18.5067 60.9973 18.8107 60.112 18.96L59.536 17.376ZM79.088 18.384C78.416 18.384 77.92 18.208 77.6 17.856C77.2907 17.4933 77.136 16.9173 77.136 16.128V10.288C77.136 9.648 77.056 9.17867 76.896 8.88C76.7467 8.58133 76.5067 8.432 76.176 8.432C75.9733 8.432 75.7333 8.50133 75.456 8.64C75.1787 8.768 74.832 8.98667 74.416 9.296C74.0107 9.60533 73.5147 10.0267 72.928 10.56C72.3413 11.0827 71.6373 11.7387 70.816 12.528H70.64C70.192 12.9867 69.6853 13.4987 69.12 14.064C68.5653 14.6293 67.9573 15.2587 67.296 15.952L66.256 14.4C67.6107 13.088 68.7733 11.9787 69.744 11.072C70.7147 10.1653 71.5467 9.424 72.24 8.848C72.9333 8.272 73.52 7.824 74 7.504C74.4907 7.184 74.9227 6.96533 75.296 6.848C75.68 6.73067 76.0533 6.672 76.416 6.672C77.28 6.672 77.9307 6.93867 78.368 7.472C78.816 7.99467 79.04 8.768 79.04 9.792V15.216C79.04 15.6 79.0507 15.8933 79.072 16.096C79.104 16.2987 79.1467 16.4373 79.2 16.512C79.264 16.576 79.3547 16.608 79.472 16.608C79.664 16.608 79.9253 16.544 80.256 16.416C80.5973 16.288 80.9707 16.1067 81.376 15.872L81.92 17.504C81.44 17.792 80.96 18.0107 80.48 18.16C80 18.3093 79.536 18.384 79.088 18.384ZM69.968 19.072V9.376H66.384V7.744H69.968V5.408H71.824V19.072H69.968ZM90.144 18.752C88.992 18.752 88.0907 18.496 87.44 17.984C86.8 17.4613 86.48 16.736 86.48 15.808C86.48 14.8587 86.8 14.128 87.44 13.616C88.08 13.104 88.9813 12.848 90.144 12.848C90.656 12.848 91.1413 12.912 91.6 13.04C92.0693 13.1573 92.5547 13.3707 93.056 13.68C93.5573 13.9893 94.1227 14.416 94.752 14.96C95.3813 15.4933 96.112 16.176 96.944 17.008L95.776 18.272C95.0187 17.504 94.3627 16.8747 93.808 16.384C93.2533 15.8827 92.768 15.4933 92.352 15.216C91.936 14.9387 91.5467 14.7467 91.184 14.64C90.8213 14.5227 90.4427 14.464 90.048 14.464C88.8107 14.464 88.192 14.912 88.192 15.808C88.192 16.6933 88.8107 17.136 90.048 17.136C90.7093 17.136 91.1787 16.9973 91.456 16.72C91.744 16.432 91.888 15.9627 91.888 15.312V8.816H91.44V5.504H93.296V8.816H93.744V15.392C93.744 16.512 93.44 17.3547 92.832 17.92C92.224 18.4747 91.328 18.752 90.144 18.752ZM83.568 19.04C83.2907 17.9413 83.088 16.8587 82.96 15.792C82.832 14.7253 82.768 13.5947 82.768 12.4C82.768 11.216 82.832 10.096 82.96 9.04C83.088 7.97333 83.2907 6.89067 83.568 5.792L85.456 6.032C85.2 7.06667 85.008 8.10667 84.88 9.152C84.7627 10.1867 84.704 11.2693 84.704 12.4C84.704 13.5307 84.7627 14.6187 84.88 15.664C85.008 16.7093 85.2 17.7387 85.456 18.752L83.568 19.04ZM86.528 9.632V8.016H96.704V9.632H86.528ZM94.208 7.68C94.112 7.168 94.0053 6.68267 93.888 6.224C93.7707 5.76533 93.632 5.30667 93.472 4.848L94.96 4.48C95.1413 4.93867 95.2907 5.40267 95.408 5.872C95.5253 6.34133 95.6267 6.848 95.712 7.392L94.208 7.68ZM96.432 7.504C96.3467 6.98133 96.2453 6.49067 96.128 6.032C96.0213 5.57333 95.888 5.11467 95.728 4.656L97.232 4.32C97.392 4.77867 97.5253 5.248 97.632 5.728C97.7493 6.19733 97.8453 6.69867 97.92 7.232L96.432 7.504ZM99.072 13.472V10.896H109.712V10.432H102.288V9.728H109.712V9.264H102.288V8.592H109.712V8.112H102.288V10.896H100.32V7.28H111.68V10.896H112.928V13.472H111.104V11.968H100.896V13.472H99.072ZM99.392 17.232L98.752 15.84C99.9467 15.5413 101.024 15.1893 101.984 14.784C102.955 14.3787 103.771 13.9467 104.432 13.488L105.344 14.384C104.885 14.7573 104.341 15.1253 103.712 15.488C103.083 15.84 102.4 16.1653 101.664 16.464C100.939 16.7627 100.181 17.0187 99.392 17.232ZM100.24 15.28L99.088 14.272C99.536 13.9733 99.936 13.6533 100.288 13.312C100.651 12.96 100.96 12.6027 101.216 12.24L102.496 13.072C102.24 13.456 101.915 13.8453 101.52 14.24C101.136 14.624 100.709 14.9707 100.24 15.28ZM99.328 19.36L98.896 17.888C100.272 17.8027 101.493 17.6853 102.56 17.536C103.637 17.3867 104.587 17.2107 105.408 17.008C106.229 16.7947 106.944 16.56 107.552 16.304C108.171 16.0373 108.699 15.7547 109.136 15.456L110.736 16.016C110.064 16.5387 109.184 17.024 108.096 17.472C107.019 17.92 105.744 18.304 104.272 18.624C102.811 18.9547 101.163 19.2 99.328 19.36ZM112.672 19.36C111.275 19.2747 109.915 19.1093 108.592 18.864C107.269 18.6293 106.048 18.3307 104.928 17.968C103.819 17.6053 102.875 17.2 102.096 16.752L102.96 15.744C103.717 16.1173 104.587 16.448 105.568 16.736C106.56 17.0133 107.68 17.248 108.928 17.44C110.187 17.6213 111.579 17.7547 113.104 17.84L112.672 19.36ZM102.304 16.016V14.928H110.736V16.016H102.304ZM106.032 14.592C105.179 14.592 104.517 14.5867 104.048 14.576C103.579 14.5547 103.237 14.512 103.024 14.448C102.811 14.3733 102.677 14.2667 102.624 14.128C102.581 13.9893 102.56 13.7973 102.56 13.552V12.272H104.336V13.088C104.336 13.1947 104.341 13.28 104.352 13.344C104.373 13.3973 104.432 13.4347 104.528 13.456C104.624 13.4773 104.784 13.4933 105.008 13.504C105.243 13.504 105.568 13.504 105.984 13.504C106.528 13.504 106.949 13.4987 107.248 13.488C107.547 13.4773 107.76 13.4453 107.888 13.392C108.027 13.328 108.112 13.232 108.144 13.104C108.176 12.976 108.203 12.7947 108.224 12.56L109.92 12.672C109.888 13.0453 109.845 13.3547 109.792 13.6C109.749 13.8347 109.664 14.0213 109.536 14.16C109.408 14.2987 109.211 14.4 108.944 14.464C108.677 14.528 108.309 14.5653 107.84 14.576C107.381 14.5867 106.779 14.592 106.032 14.592ZM107.008 13.408C106.613 13.2373 106.213 13.0773 105.808 12.928C105.403 12.768 104.981 12.6187 104.544 12.48L105.328 11.376C105.787 11.5147 106.235 11.6693 106.672 11.84C107.109 12 107.504 12.16 107.856 12.32L107.008 13.408ZM111.456 15.488C111.157 15.072 110.821 14.6507 110.448 14.224C110.085 13.7867 109.696 13.3547 109.28 12.928L110.64 12.128C111.045 12.5333 111.429 12.9493 111.792 13.376C112.165 13.8027 112.507 14.2293 112.816 14.656L111.456 15.488ZM106.256 7.904L104.368 7.632C104.517 7.33333 104.645 7.024 104.752 6.704C104.869 6.37333 104.976 6.02667 105.072 5.664L106.976 6C106.891 6.37333 106.784 6.71467 106.656 7.024C106.539 7.32267 106.405 7.616 106.256 7.904ZM99.008 6.832V5.392H112.992V6.832H99.008ZM119.136 18.464C118.592 18.464 118.091 18.2987 117.632 17.968C117.173 17.6267 116.773 17.152 116.432 16.544C116.091 15.936 115.824 15.2213 115.632 14.4C115.451 13.568 115.36 12.672 115.36 11.712C115.36 10.9333 115.424 10.112 115.552 9.248C115.691 8.37333 115.899 7.456 116.176 6.496L118.048 6.72C117.803 7.60533 117.616 8.448 117.488 9.248C117.36 10.048 117.296 10.8 117.296 11.504C117.296 12.176 117.349 12.8107 117.456 13.408C117.563 14.0053 117.707 14.528 117.888 14.976C118.08 15.424 118.293 15.776 118.528 16.032C118.773 16.288 119.029 16.416 119.296 16.416C119.552 16.416 119.829 16.3093 120.128 16.096C120.437 15.872 120.752 15.5733 121.072 15.2C121.392 14.8267 121.691 14.4 121.968 13.92C122.256 13.44 122.496 12.9387 122.688 12.416L124.4 13.28C124.133 14.0053 123.803 14.6827 123.408 15.312C123.013 15.9413 122.576 16.496 122.096 16.976C121.627 17.4453 121.136 17.808 120.624 18.064C120.112 18.3307 119.616 18.464 119.136 18.464ZM127.168 16.912C127.168 15.696 127.083 14.4853 126.912 13.28C126.752 12.0747 126.512 10.9173 126.192 9.808C125.883 8.69867 125.509 7.68 125.072 6.752L126.848 6.224C127.339 7.19467 127.744 8.256 128.064 9.408C128.395 10.5493 128.645 11.7547 128.816 13.024C128.997 14.2827 129.088 15.5787 129.088 16.912H127.168ZM138.016 18.896C136.821 18.896 135.893 18.6187 135.232 18.064C134.571 17.52 134.24 16.768 134.24 15.808C134.24 14.816 134.581 14.0533 135.264 13.52C135.947 12.976 136.907 12.704 138.144 12.704C138.667 12.704 139.184 12.784 139.696 12.944C140.208 13.104 140.741 13.3493 141.296 13.68C141.851 14.0107 142.443 14.4373 143.072 14.96C143.712 15.4827 144.4 16.1173 145.136 16.864L143.984 18.144C143.131 17.312 142.411 16.64 141.824 16.128C141.248 15.6053 140.752 15.2107 140.336 14.944C139.931 14.6667 139.557 14.48 139.216 14.384C138.885 14.288 138.528 14.24 138.144 14.24C137.419 14.24 136.885 14.3627 136.544 14.608C136.213 14.8533 136.048 15.232 136.048 15.744C136.048 16.2667 136.213 16.6613 136.544 16.928C136.875 17.184 137.365 17.312 138.016 17.312C138.731 17.312 139.264 17.1573 139.616 16.848C139.979 16.5387 140.16 16.096 140.16 15.52V7.248C141.099 7.248 141.968 7.264 142.768 7.296C143.579 7.31733 144.373 7.35467 145.152 7.408L145.04 9.088C144.347 9.03467 143.621 8.99733 142.864 8.976C142.117 8.944 141.317 8.928 140.464 8.928L142.016 7.728V15.328C142.016 16.5013 141.68 17.392 141.008 18C140.336 18.5973 139.339 18.896 138.016 18.896ZM130.736 16.352C131.205 15.0827 131.637 13.8347 132.032 12.608C132.427 11.3707 132.795 10.1227 133.136 8.864C133.477 7.59467 133.792 6.29333 134.08 4.96L135.888 5.136C135.6 6.50133 135.28 7.84 134.928 9.152C134.587 10.4533 134.213 11.744 133.808 13.024C133.413 14.304 132.976 15.5893 132.496 16.88L130.736 16.352ZM130.608 8.928V7.248H138.672V8.928H130.608ZM153.712 18.832C152.496 18.832 151.499 18.64 150.72 18.256C149.952 17.8827 149.381 17.3013 149.008 16.512C148.645 15.7227 148.464 14.7093 148.464 13.472V5.68H150.416V13.472C150.416 14.72 150.677 15.6267 151.2 16.192C151.723 16.7467 152.56 17.024 153.712 17.024C154.555 17.024 155.296 16.8693 155.936 16.56C156.587 16.2507 157.173 15.7493 157.696 15.056C158.229 14.352 158.741 13.4187 159.232 12.256L161.008 12.976C160.581 14.0427 160.123 14.9493 159.632 15.696C159.152 16.432 158.624 17.0347 158.048 17.504C157.483 17.9627 156.843 18.2987 156.128 18.512C155.413 18.7253 154.608 18.832 153.712 18.832Z" fill="white"/>
<defs>
<filter id="filter0_d_122_2022" x="57" y="61" width="66" height="66" filterUnits="userSpaceOnUse" color-interpolation-filters="sRGB">
<feFlood flood-opacity="0" result="BackgroundImageFix"/>
<feColorMatrix in="SourceAlpha" type="matrix" values="0 0 0 0 0 0 0 0 0 0 0 0 0 0 0 0 0 0 127 0" result="hardAlpha"/>
<feOffset/>
<feGaussianBlur stdDeviation="3"/>
<feComposite in2="hardAlpha" operator="out"/>
<feColorMatrix type="matrix" values="0 0 0 0 0.282353 0 0 0 0 0.737255 0 0 0 0 0.796078 0 0 0 0.25 0"/>
<feBlend mode="normal" in2="BackgroundImageFix" result="effect1_dropShadow_122_2022"/>
<feBlend mode="normal" in="SourceGraphic" in2="effect1_dropShadow_122_2022" result="shape"/>
</filter>
</defs>
</svg>
