<svg width="243" height="127" viewBox="0 0 243 127" fill="none" xmlns="http://www.w3.org/2000/svg">
<circle cx="90" cy="95" r="27" fill="#128FCD" fill-opacity="0.2"/>
<circle cx="90" cy="95" r="26" stroke="#48BCCB" stroke-opacity="0.4" stroke-width="2"/>
<path d="M83.556 110.044C82.332 110.044 81.204 109.672 80.172 108.928C79.14 108.16 78.24 107.092 77.472 105.724C76.704 104.356 76.104 102.748 75.672 100.9C75.264 99.028 75.06 97.012 75.06 94.852C75.06 93.1 75.204 91.252 75.492 89.308C75.804 87.34 76.272 85.276 76.896 83.116L81.108 83.62C80.556 85.612 80.136 87.508 79.848 89.308C79.56 91.108 79.416 92.8 79.416 94.384C79.416 95.896 79.536 97.324 79.776 98.668C80.016 100.012 80.34 101.188 80.748 102.196C81.18 103.204 81.66 103.996 82.188 104.572C82.74 105.148 83.316 105.436 83.916 105.436C84.492 105.436 85.116 105.196 85.788 104.716C86.484 104.212 87.192 103.54 87.912 102.7C88.632 101.86 89.304 100.9 89.928 99.82C90.576 98.74 91.116 97.612 91.548 96.436L95.4 98.38C94.8 100.012 94.056 101.536 93.168 102.952C92.28 104.368 91.296 105.616 90.216 106.696C89.16 107.752 88.056 108.568 86.904 109.144C85.752 109.744 84.636 110.044 83.556 110.044ZM101.628 106.552C101.628 103.816 101.436 101.092 101.052 98.38C100.692 95.668 100.152 93.064 99.432 90.568C98.736 88.072 97.896 85.78 96.912 83.692L100.908 82.504C102.012 84.688 102.924 87.076 103.644 89.668C104.388 92.236 104.952 94.948 105.336 97.804C105.744 100.636 105.948 103.552 105.948 106.552H101.628Z" fill="white"/>
<circle cx="216" cy="95" r="27" fill="#128FCD" fill-opacity="0.2"/>
<circle cx="216" cy="95" r="26" stroke="#48BCCB" stroke-opacity="0.4" stroke-width="2"/>
<path d="M213.552 101.116C213.552 100.108 213.66 99.16 213.876 98.272C214.092 97.384 214.488 96.532 215.064 95.716C215.64 94.876 216.444 94.096 217.476 93.376C218.292 92.8 218.952 92.272 219.456 91.792C219.96 91.312 220.308 90.844 220.5 90.388C220.716 89.932 220.824 89.476 220.824 89.02C220.824 88.084 220.404 87.412 219.564 87.004C218.748 86.572 217.44 86.356 215.64 86.356C214.368 86.356 213.108 86.464 211.86 86.68C210.612 86.872 209.304 87.196 207.936 87.652L207 83.728C208.368 83.296 209.856 82.96 211.464 82.72C213.072 82.48 214.668 82.36 216.252 82.36C222.444 82.36 225.54 84.364 225.54 88.372C225.54 89.284 225.384 90.124 225.072 90.892C224.784 91.636 224.304 92.368 223.632 93.088C222.96 93.808 222.072 94.552 220.968 95.32C220.248 95.824 219.672 96.388 219.24 97.012C218.808 97.636 218.508 98.296 218.34 98.992C218.172 99.688 218.064 100.396 218.016 101.116H213.552ZM213.228 109V104.104H218.34V109H213.228Z" fill="white"/>
<circle cx="27" cy="95" r="27" fill="#128FCD" fill-opacity="0.2"/>
<circle cx="27" cy="95" r="26" stroke="#48BCCB" stroke-opacity="0.4" stroke-width="2"/>
<path d="M24.552 101.116C24.552 100.108 24.66 99.16 24.876 98.272C25.092 97.384 25.488 96.532 26.064 95.716C26.64 94.876 27.444 94.096 28.476 93.376C29.292 92.8 29.952 92.272 30.456 91.792C30.96 91.312 31.308 90.844 31.5 90.388C31.716 89.932 31.824 89.476 31.824 89.02C31.824 88.084 31.404 87.412 30.564 87.004C29.748 86.572 28.44 86.356 26.64 86.356C25.368 86.356 24.108 86.464 22.86 86.68C21.612 86.872 20.304 87.196 18.936 87.652L18 83.728C19.368 83.296 20.856 82.96 22.464 82.72C24.072 82.48 25.668 82.36 27.252 82.36C33.444 82.36 36.54 84.364 36.54 88.372C36.54 89.284 36.384 90.124 36.072 90.892C35.784 91.636 35.304 92.368 34.632 93.088C33.96 93.808 33.072 94.552 31.968 95.32C31.248 95.824 30.672 96.388 30.24 97.012C29.808 97.636 29.508 98.296 29.34 98.992C29.172 99.688 29.064 100.396 29.016 101.116H24.552ZM24.228 109V104.104H29.34V109H24.228Z" fill="white"/>
<g filter="url(#filter0_d_122_2244)">
<rect x="126" y="67" width="54" height="54" fill="#128FCD" fill-opacity="0.2" shape-rendering="crispEdges"/>
<rect x="127" y="68" width="52" height="52" stroke="#48BCCB" stroke-opacity="0.5" stroke-width="2" shape-rendering="crispEdges"/>
</g>
<circle cx="144" cy="55" r="8" fill="#128FCD" fill-opacity="0.2"/>
<circle cx="144" cy="55" r="7.5" stroke="#48BCCB" stroke-opacity="0.4"/>
<path d="M143.32 56.81C143.32 56.53 143.35 56.2667 143.41 56.02C143.47 55.7733 143.58 55.5367 143.74 55.31C143.9 55.0767 144.123 54.86 144.41 54.66C144.637 54.5 144.82 54.3533 144.96 54.22C145.1 54.0867 145.197 53.9567 145.25 53.83C145.31 53.7033 145.34 53.5767 145.34 53.45C145.34 53.19 145.223 53.0033 144.99 52.89C144.763 52.77 144.4 52.71 143.9 52.71C143.547 52.71 143.197 52.74 142.85 52.8C142.503 52.8533 142.14 52.9433 141.76 53.07L141.5 51.98C141.88 51.86 142.293 51.7667 142.74 51.7C143.187 51.6333 143.63 51.6 144.07 51.6C145.79 51.6 146.65 52.1567 146.65 53.27C146.65 53.5233 146.607 53.7567 146.52 53.97C146.44 54.1767 146.307 54.38 146.12 54.58C145.933 54.78 145.687 54.9867 145.38 55.2C145.18 55.34 145.02 55.4967 144.9 55.67C144.78 55.8433 144.697 56.0267 144.65 56.22C144.603 56.4133 144.573 56.61 144.56 56.81H143.32ZM143.23 59V57.64H144.65V59H143.23Z" fill="white"/>
<circle cx="162" cy="55" r="8" fill="#128FCD" fill-opacity="0.2"/>
<circle cx="162" cy="55" r="7.5" stroke="#48BCCB" stroke-opacity="0.4"/>
<path d="M161.32 56.81C161.32 56.53 161.35 56.2667 161.41 56.02C161.47 55.7733 161.58 55.5367 161.74 55.31C161.9 55.0767 162.123 54.86 162.41 54.66C162.637 54.5 162.82 54.3533 162.96 54.22C163.1 54.0867 163.197 53.9567 163.25 53.83C163.31 53.7033 163.34 53.5767 163.34 53.45C163.34 53.19 163.223 53.0033 162.99 52.89C162.763 52.77 162.4 52.71 161.9 52.71C161.547 52.71 161.197 52.74 160.85 52.8C160.503 52.8533 160.14 52.9433 159.76 53.07L159.5 51.98C159.88 51.86 160.293 51.7667 160.74 51.7C161.187 51.6333 161.63 51.6 162.07 51.6C163.79 51.6 164.65 52.1567 164.65 53.27C164.65 53.5233 164.607 53.7567 164.52 53.97C164.44 54.1767 164.307 54.38 164.12 54.58C163.933 54.78 163.687 54.9867 163.38 55.2C163.18 55.34 163.02 55.4967 162.9 55.67C162.78 55.8433 162.697 56.0267 162.65 56.22C162.603 56.4133 162.573 56.61 162.56 56.81H161.32ZM161.23 59V57.64H162.65V59H161.23Z" fill="white"/>
<path d="M103.208 18.912C102.504 18.3893 101.843 17.76 101.224 17.024C100.605 16.2773 100.045 15.4667 99.544 14.592C99.0533 13.7067 98.6373 12.784 98.296 11.824C97.9653 10.864 97.736 9.904 97.608 8.944L99.32 8.464C99.4693 9.62667 99.7627 10.752 100.2 11.84C100.648 12.928 101.229 13.9467 101.944 14.896C102.669 15.8347 103.491 16.672 104.408 17.408L103.208 18.912ZM90.664 18.896L89.976 17.376C91.5547 16.8533 92.9413 16.272 94.136 15.632C95.3413 14.9813 96.344 14.288 97.144 13.552L97.928 14.608C97.128 15.4187 96.12 16.1867 94.904 16.912C93.688 17.6373 92.2747 18.2987 90.664 18.896ZM90.728 15.84L90.088 14.416C91.5387 13.9573 92.8027 13.4507 93.88 12.896C94.968 12.3413 95.8747 11.744 96.6 11.104L97.432 12.032C96.6853 12.7467 95.752 13.4293 94.632 14.08C93.5227 14.72 92.2213 15.3067 90.728 15.84ZM97.144 19.248C96.8453 19.248 96.4933 19.2427 96.088 19.232C95.6827 19.2213 95.1813 19.2 94.584 19.168L94.552 17.584C95.0747 17.616 95.4853 17.6373 95.784 17.648C96.0827 17.6587 96.3173 17.664 96.488 17.664C96.616 17.664 96.7173 17.6533 96.792 17.632C96.8773 17.6107 96.9413 17.5573 96.984 17.472C97.0267 17.376 97.0587 17.2373 97.08 17.056C97.1013 16.8747 97.112 16.624 97.112 16.304C97.112 15.5573 97.0107 14.864 96.808 14.224C96.616 13.5733 96.3013 12.96 95.864 12.384C95.4373 11.808 94.872 11.2427 94.168 10.688L95.56 9.712C96.2747 10.224 96.888 10.8373 97.4 11.552C97.9227 12.256 98.3227 13.0187 98.6 13.84C98.8773 14.6507 99.016 15.472 99.016 16.304C99.016 17.072 98.9467 17.6693 98.808 18.096C98.6693 18.5227 98.4613 18.8213 98.184 18.992C97.9173 19.1627 97.5707 19.248 97.144 19.248ZM90.84 12.864L90.2 11.488C91.6293 11.072 92.8827 10.6027 93.96 10.08C95.0373 9.55733 95.9333 8.99733 96.648 8.4L97.464 9.152C96.7173 9.856 95.7947 10.5227 94.696 11.152C93.5973 11.7707 92.312 12.3413 90.84 12.864ZM91.32 9.664V8.128H102.68V9.664H91.32ZM100.616 14.576L99.544 13.296C100.067 12.9013 100.568 12.464 101.048 11.984C101.528 11.4933 102.008 10.9547 102.488 10.368L103.8 11.36C103.32 11.9787 102.813 12.56 102.28 13.104C101.757 13.6373 101.203 14.128 100.616 14.576ZM89.992 9.04V5.808H96.024V4.464H97.976V5.808H104.008V9.04H102.136V7.296H91.864V9.04H89.992ZM115.512 19.488C115.203 19.488 114.899 19.4827 114.6 19.472C114.312 19.4613 114.019 19.4507 113.72 19.44C113.251 19.408 112.899 19.344 112.664 19.248C112.429 19.152 112.269 18.9653 112.184 18.688C112.109 18.4107 112.072 17.9947 112.072 17.44V13.472H108.712V18.16H106.888V12.24H119.112V17.232H108.712V16.032H117.288V15.28H108.712V14.192H117.288V13.472H113.928V17.024C113.928 17.3227 113.939 17.536 113.96 17.664C113.981 17.792 114.035 17.872 114.12 17.904C114.205 17.936 114.349 17.952 114.552 17.952C114.776 17.9733 114.984 17.984 115.176 17.984C115.379 17.984 115.592 17.984 115.816 17.984C116.029 17.984 116.259 17.984 116.504 17.984C116.76 17.9733 117.027 17.968 117.304 17.968C117.581 17.9573 117.8 17.936 117.96 17.904C118.12 17.8613 118.237 17.776 118.312 17.648C118.387 17.5093 118.429 17.28 118.44 16.96C118.461 16.64 118.477 16.1973 118.488 15.632L120.392 15.808C120.36 16.48 120.317 17.0347 120.264 17.472C120.221 17.8987 120.147 18.24 120.04 18.496C119.944 18.752 119.795 18.944 119.592 19.072C119.4 19.2 119.133 19.2853 118.792 19.328C118.461 19.3707 118.045 19.408 117.544 19.44C117.224 19.4507 116.877 19.4613 116.504 19.472C116.141 19.4827 115.811 19.488 115.512 19.488ZM108.44 11.728V10.656H111.512V11.728H108.44ZM108.44 10.208V9.12H111.512V10.208H108.44ZM112.136 11.808V8.656H107.816V11.104H105.976V7.408H112.136V6.816H106.584V5.312H119.416V6.816H113.864V7.408H120.024V11.104H118.184V8.656H113.864V11.808H112.136ZM114.488 11.728V10.656H117.56V11.728H114.488ZM114.488 10.208V9.12H117.56V10.208H114.488ZM125.24 12.88V10.656H124.104V12.592H122.408V9.504H125.24V8.976H122.008V7.712H125.24V7.12H123.208V5.824H125.24V4.928H127.032V5.824H129.992V7.12H127.032V7.712H130.296V8.976H127.032V9.504H129.992V11.168C129.992 11.5627 129.965 11.856 129.912 12.048C129.859 12.2293 129.736 12.3467 129.544 12.4C129.363 12.4533 129.053 12.48 128.616 12.48C128.488 12.48 128.317 12.4747 128.104 12.464C127.901 12.4533 127.64 12.4427 127.32 12.432L127.288 11.328C127.501 11.328 127.672 11.3333 127.8 11.344C127.928 11.344 128.029 11.344 128.104 11.344C128.2 11.344 128.269 11.3387 128.312 11.328C128.355 11.3173 128.381 11.2747 128.392 11.2C128.403 11.1147 128.408 10.976 128.408 10.784V10.656H127.032V12.88H125.24ZM122.776 19.392L122.616 17.904C123.48 17.8293 124.365 17.7493 125.272 17.664C126.179 17.568 127.107 17.456 128.056 17.328C129.016 17.1893 129.987 17.0347 130.968 16.864L131.144 18.32C130.163 18.4907 129.192 18.6453 128.232 18.784C127.283 18.9333 126.349 19.056 125.432 19.152C124.525 19.248 123.64 19.328 122.776 19.392ZM125.352 18.32V15.216H127.256V18.32H125.352ZM121.912 17.472L121.416 15.968C122.568 15.7547 123.565 15.52 124.408 15.264C125.261 14.9973 125.997 14.704 126.616 14.384C127.245 14.064 127.805 13.712 128.296 13.328L129.112 14.208C128.547 14.688 127.923 15.1253 127.24 15.52C126.557 15.904 125.779 16.256 124.904 16.576C124.04 16.896 123.043 17.1947 121.912 17.472ZM121.848 14.704V13.264H128.376V12.224H130.344V13.264H136.152V14.704H121.848ZM135.768 19.44C134.595 19.152 133.517 18.736 132.536 18.192C131.565 17.648 130.733 17.0133 130.04 16.288C129.347 15.5627 128.835 14.784 128.504 13.952L130.008 13.472C130.36 14.1867 130.819 14.8267 131.384 15.392C131.949 15.9467 132.659 16.4373 133.512 16.864C134.365 17.2907 135.389 17.6587 136.584 17.968L135.768 19.44ZM123.576 7.776L121.928 7.28C122.152 6.90667 122.344 6.53333 122.504 6.16C122.675 5.776 122.797 5.39733 122.872 5.024L124.552 5.184C124.488 5.664 124.371 6.12267 124.2 6.56C124.029 6.98667 123.821 7.392 123.576 7.776ZM133 17.312L131.544 16.4C132.024 16.1227 132.472 15.8347 132.888 15.536C133.315 15.2267 133.715 14.9067 134.088 14.576L135.672 15.36C135.288 15.7013 134.867 16.0427 134.408 16.384C133.96 16.7147 133.491 17.024 133 17.312ZM130.856 10.576V5.472H132.552V10.576H130.856ZM133.496 12.832C133.325 12.832 133.069 12.8267 132.728 12.816C132.397 12.7947 131.949 12.768 131.384 12.736L131.32 11.184C131.821 11.2053 132.227 11.2267 132.536 11.248C132.856 11.2587 133.08 11.264 133.208 11.264C133.421 11.264 133.571 11.2533 133.656 11.232C133.741 11.2 133.795 11.1253 133.816 11.008C133.848 10.8907 133.864 10.7093 133.864 10.464V5.04H135.656V10.352C135.656 10.9067 135.629 11.3547 135.576 11.696C135.533 12.0267 135.443 12.272 135.304 12.432C135.165 12.592 134.952 12.6987 134.664 12.752C134.376 12.8053 133.987 12.832 133.496 12.832ZM140.04 11.392V5.344H149.96V11.392H142.008V9.936H147.992V6.896H142.008V11.392H140.04ZM137.976 19.344V12.416H144.392V19.344H142.568V18.736H139.896V17.28H142.568V13.936H139.896V19.344H137.976ZM145.608 19.344V12.416H152.024V19.344H150.104V18.736H147.432V17.28H150.104V13.936H147.432V19.344H145.608Z" fill="white"/>
<defs>
<filter id="filter0_d_122_2244" x="120" y="61" width="66" height="66" filterUnits="userSpaceOnUse" color-interpolation-filters="sRGB">
<feFlood flood-opacity="0" result="BackgroundImageFix"/>
<feColorMatrix in="SourceAlpha" type="matrix" values="0 0 0 0 0 0 0 0 0 0 0 0 0 0 0 0 0 0 127 0" result="hardAlpha"/>
<feOffset/>
<feGaussianBlur stdDeviation="3"/>
<feComposite in2="hardAlpha" operator="out"/>
<feColorMatrix type="matrix" values="0 0 0 0 0.282353 0 0 0 0 0.737255 0 0 0 0 0.796078 0 0 0 0.25 0"/>
<feBlend mode="normal" in2="BackgroundImageFix" result="effect1_dropShadow_122_2244"/>
<feBlend mode="normal" in="SourceGraphic" in2="effect1_dropShadow_122_2244" result="shape"/>
</filter>
</defs>
</svg>
