<svg width="186" height="128" viewBox="0 0 186 128" fill="none" xmlns="http://www.w3.org/2000/svg">
<circle cx="159" cy="95" r="27" fill="#128FCD" fill-opacity="0.2"/>
<circle cx="159" cy="95" r="26" stroke="#48BCCB" stroke-opacity="0.4" stroke-width="2"/>
<path d="M156.552 101.116C156.552 100.108 156.66 99.16 156.876 98.272C157.092 97.384 157.488 96.532 158.064 95.716C158.64 94.876 159.444 94.096 160.476 93.376C161.292 92.8 161.952 92.272 162.456 91.792C162.96 91.312 163.308 90.844 163.5 90.388C163.716 89.932 163.824 89.476 163.824 89.02C163.824 88.084 163.404 87.412 162.564 87.004C161.748 86.572 160.44 86.356 158.64 86.356C157.368 86.356 156.108 86.464 154.86 86.68C153.612 86.872 152.304 87.196 150.936 87.652L150 83.728C151.368 83.296 152.856 82.96 154.464 82.72C156.072 82.48 157.668 82.36 159.252 82.36C165.444 82.36 168.54 84.364 168.54 88.372C168.54 89.284 168.384 90.124 168.072 90.892C167.784 91.636 167.304 92.368 166.632 93.088C165.96 93.808 165.072 94.552 163.968 95.32C163.248 95.824 162.672 96.388 162.24 97.012C161.808 97.636 161.508 98.296 161.34 98.992C161.172 99.688 161.064 100.396 161.016 101.116H156.552ZM156.228 109V104.104H161.34V109H156.228Z" fill="white"/>
<circle cx="96" cy="95" r="27" fill="#128FCD" fill-opacity="0.2"/>
<circle cx="96" cy="95" r="26" stroke="#48BCCB" stroke-opacity="0.4" stroke-width="2"/>
<path d="M89.556 110.044C88.332 110.044 87.204 109.672 86.172 108.928C85.14 108.16 84.24 107.092 83.472 105.724C82.704 104.356 82.104 102.748 81.672 100.9C81.264 99.028 81.06 97.012 81.06 94.852C81.06 93.1 81.204 91.252 81.492 89.308C81.804 87.34 82.272 85.276 82.896 83.116L87.108 83.62C86.556 85.612 86.136 87.508 85.848 89.308C85.56 91.108 85.416 92.8 85.416 94.384C85.416 95.896 85.536 97.324 85.776 98.668C86.016 100.012 86.34 101.188 86.748 102.196C87.18 103.204 87.66 103.996 88.188 104.572C88.74 105.148 89.316 105.436 89.916 105.436C90.492 105.436 91.116 105.196 91.788 104.716C92.484 104.212 93.192 103.54 93.912 102.7C94.632 101.86 95.304 100.9 95.928 99.82C96.576 98.74 97.116 97.612 97.548 96.436L101.4 98.38C100.8 100.012 100.056 101.536 99.168 102.952C98.28 104.368 97.296 105.616 96.216 106.696C95.16 107.752 94.056 108.568 92.904 109.144C91.752 109.744 90.636 110.044 89.556 110.044ZM107.628 106.552C107.628 103.816 107.436 101.092 107.052 98.38C106.692 95.668 106.152 93.064 105.432 90.568C104.736 88.072 103.896 85.78 102.912 83.692L106.908 82.504C108.012 84.688 108.924 87.076 109.644 89.668C110.388 92.236 110.952 94.948 111.336 97.804C111.744 100.636 111.948 103.552 111.948 106.552H107.628Z" fill="white"/>
<g filter="url(#filter0_d_122_2224)">
<rect x="6" y="68" width="54" height="54" fill="#128FCD" fill-opacity="0.2" shape-rendering="crispEdges"/>
<rect x="7" y="69" width="52" height="52" stroke="#48BCCB" stroke-opacity="0.5" stroke-width="2" shape-rendering="crispEdges"/>
</g>
<circle cx="24" cy="56" r="8" fill="#128FCD" fill-opacity="0.2"/>
<circle cx="24" cy="56" r="7.5" stroke="#48BCCB" stroke-opacity="0.4"/>
<path d="M23.32 57.81C23.32 57.53 23.35 57.2667 23.41 57.02C23.47 56.7733 23.58 56.5367 23.74 56.31C23.9 56.0767 24.1233 55.86 24.41 55.66C24.6367 55.5 24.82 55.3533 24.96 55.22C25.1 55.0867 25.1967 54.9567 25.25 54.83C25.31 54.7033 25.34 54.5767 25.34 54.45C25.34 54.19 25.2233 54.0033 24.99 53.89C24.7633 53.77 24.4 53.71 23.9 53.71C23.5467 53.71 23.1967 53.74 22.85 53.8C22.5033 53.8533 22.14 53.9433 21.76 54.07L21.5 52.98C21.88 52.86 22.2933 52.7667 22.74 52.7C23.1867 52.6333 23.63 52.6 24.07 52.6C25.79 52.6 26.65 53.1567 26.65 54.27C26.65 54.5233 26.6067 54.7567 26.52 54.97C26.44 55.1767 26.3067 55.38 26.12 55.58C25.9333 55.78 25.6867 55.9867 25.38 56.2C25.18 56.34 25.02 56.4967 24.9 56.67C24.78 56.8433 24.6967 57.0267 24.65 57.22C24.6033 57.4133 24.5733 57.61 24.56 57.81H23.32ZM23.23 60V58.64H24.65V60H23.23Z" fill="white"/>
<circle cx="42" cy="56" r="8" fill="#128FCD" fill-opacity="0.2"/>
<circle cx="42" cy="56" r="7.5" stroke="#48BCCB" stroke-opacity="0.4"/>
<path d="M41.32 57.81C41.32 57.53 41.35 57.2667 41.41 57.02C41.47 56.7733 41.58 56.5367 41.74 56.31C41.9 56.0767 42.1233 55.86 42.41 55.66C42.6367 55.5 42.82 55.3533 42.96 55.22C43.1 55.0867 43.1967 54.9567 43.25 54.83C43.31 54.7033 43.34 54.5767 43.34 54.45C43.34 54.19 43.2233 54.0033 42.99 53.89C42.7633 53.77 42.4 53.71 41.9 53.71C41.5467 53.71 41.1967 53.74 40.85 53.8C40.5033 53.8533 40.14 53.9433 39.76 54.07L39.5 52.98C39.88 52.86 40.2933 52.7667 40.74 52.7C41.1867 52.6333 41.63 52.6 42.07 52.6C43.79 52.6 44.65 53.1567 44.65 54.27C44.65 54.5233 44.6067 54.7567 44.52 54.97C44.44 55.1767 44.3067 55.38 44.12 55.58C43.9333 55.78 43.6867 55.9867 43.38 56.2C43.18 56.34 43.02 56.4967 42.9 56.67C42.78 56.8433 42.6967 57.0267 42.65 57.22C42.6033 57.4133 42.5733 57.61 42.56 57.81H41.32ZM41.23 60V58.64H42.65V60H41.23Z" fill="white"/>
<path d="M56.976 17.792V16.56H52.88V15.152H56.976V8.736H53.568V7.424H56.976V6.736H54.496V8.272H52.752V5.312H63.008V8.272H61.264V6.736H58.848V7.424H62.192V8.736H58.848V15.152H63.072V16.56H58.848V17.792H56.976ZM49.392 19.472L48.528 17.936C49.136 17.5413 49.6853 17.1413 50.176 16.736C50.6773 16.32 51.1413 15.8773 51.568 15.408L52.608 16.688C52.192 17.1893 51.7227 17.664 51.2 18.112C50.6773 18.56 50.0747 19.0133 49.392 19.472ZM50.464 16.512V12.544H48.768V10.944H52.272V16.512H50.464ZM58.592 19.216C57.4827 19.216 56.5227 19.184 55.712 19.12C54.912 19.056 54.2293 18.9493 53.664 18.8C53.1093 18.6613 52.64 18.4693 52.256 18.224C51.8827 17.9787 51.5733 17.68 51.328 17.328C51.0933 16.976 50.896 16.56 50.736 16.08L52.256 15.984C52.3947 16.2507 52.56 16.48 52.752 16.672C52.944 16.8533 53.184 17.008 53.472 17.136C53.76 17.264 54.1227 17.3653 54.56 17.44C55.008 17.5147 55.5627 17.568 56.224 17.6C56.8853 17.632 57.68 17.648 58.608 17.648H63.232L63.12 19.216H58.592ZM51.44 9.392C50.992 8.89067 50.5387 8.4 50.08 7.92C49.6213 7.42933 49.1573 6.95467 48.688 6.496L49.968 5.376C50.4267 5.83467 50.88 6.30933 51.328 6.8C51.7867 7.28 52.2347 7.776 52.672 8.288L51.44 9.392ZM53.28 14.48V9.392H62.464V14.48H55.008V13.248H60.736V12.464H55.008V11.376H60.736V10.64H55.008V14.48H53.28ZM67.888 18.496V16.8H64.896V15.44H67.888V14.368L67.92 14.208V10.4L67.888 10.304V9.168H64.768V7.808H67.888V6.352H69.792V7.808H72.624V9.168H69.792V10.272L69.776 10.4V14.208L69.792 14.448V15.44H72.416V16.8H69.792V18.496H67.888ZM64.704 19.28L64.608 17.776C65.2053 17.7547 65.8293 17.728 66.48 17.696C67.1413 17.6533 67.808 17.6053 68.48 17.552C69.152 17.488 69.8133 17.4293 70.464 17.376C71.1147 17.3227 71.728 17.2587 72.304 17.184L72.416 18.592C71.616 18.7093 70.7733 18.8107 69.888 18.896C69.0133 18.9813 68.1333 19.056 67.248 19.12C66.3627 19.184 65.5147 19.2373 64.704 19.28ZM65.12 14.768V9.856H72.448V14.768H66.8V13.504H70.864V12.784H66.8V11.824H70.864V11.104H66.8V14.768H65.12ZM73.232 19.408L71.76 18.448C72.08 17.9787 72.3627 17.472 72.608 16.928C72.864 16.3733 73.0827 15.744 73.264 15.04C73.4453 14.336 73.5947 13.5147 73.712 12.576C73.8293 11.6373 73.9147 10.5493 73.968 9.312C74.0213 8.064 74.048 6.61867 74.048 4.976H75.792C75.792 6.66133 75.76 8.16 75.696 9.472C75.632 10.784 75.536 11.9413 75.408 12.944C75.28 13.9467 75.1147 14.832 74.912 15.6C74.7093 16.368 74.4693 17.0613 74.192 17.68C73.9253 18.288 73.6053 18.864 73.232 19.408ZM77.168 19.136C76.9653 19.136 76.656 19.1147 76.24 19.072C75.8347 19.04 75.4187 19.0027 74.992 18.96L74.96 17.248C75.3653 17.3013 75.7013 17.344 75.968 17.376C76.2347 17.3973 76.4533 17.408 76.624 17.408C76.7093 17.408 76.7893 17.3707 76.864 17.296C76.9493 17.2107 77.0187 17.0453 77.072 16.8C77.136 16.544 77.184 16.1707 77.216 15.68C77.2587 15.1787 77.2907 14.512 77.312 13.68C77.3333 12.848 77.344 11.808 77.344 10.56V9.776H72.384V8.176H79.216V9.312C79.216 10.8693 79.2053 12.192 79.184 13.28C79.1627 14.368 79.1253 15.2747 79.072 16C79.0187 16.7253 78.9387 17.3013 78.832 17.728C78.736 18.144 78.6133 18.448 78.464 18.64C78.3147 18.8427 78.1333 18.976 77.92 19.04C77.7173 19.104 77.4667 19.136 77.168 19.136ZM65.088 7.216L65.008 5.744C65.584 5.72267 66.192 5.69067 66.832 5.648C67.472 5.60533 68.1173 5.552 68.768 5.488C69.4293 5.424 70.064 5.35467 70.672 5.28C71.2907 5.20533 71.8613 5.12533 72.384 5.04L72.592 6.544C71.8773 6.65067 71.088 6.752 70.224 6.848C69.3707 6.944 68.5013 7.024 67.616 7.088C66.7413 7.152 65.8987 7.19467 65.088 7.216ZM81.168 11.104L80.384 9.52C81.2267 9.06133 82.0107 8.60267 82.736 8.144C83.4613 7.68533 84.1547 7.2 84.816 6.688C85.488 6.16533 86.1493 5.60533 86.8 5.008H89.2C89.8507 5.60533 90.5067 6.16533 91.168 6.688C91.84 7.2 92.5387 7.68533 93.264 8.144C93.9893 8.60267 94.7733 9.06133 95.616 9.52L94.832 11.104C93.552 10.4213 92.3413 9.68 91.2 8.88C90.0693 8.08 89.0027 7.2 88 6.24C86.9973 7.2 85.9253 8.08 84.784 8.88C83.6533 9.68 82.448 10.4213 81.168 11.104ZM81.664 19.072L81.568 17.488C83.3813 17.424 85.2533 17.312 87.184 17.152C89.1147 16.992 91.056 16.784 93.008 16.528L93.168 18.08C91.184 18.3467 89.2213 18.5653 87.28 18.736C85.3493 18.9067 83.4773 19.0187 81.664 19.072ZM85.28 18.56L83.552 17.888C83.9787 17.1307 84.3947 16.32 84.8 15.456C85.2053 14.5813 85.584 13.6853 85.936 12.768L87.76 13.28C87.3867 14.2293 86.9867 15.152 86.56 16.048C86.144 16.9333 85.7173 17.7707 85.28 18.56ZM81.168 14.032V12.448H94.832V14.032H81.168ZM93.312 19.632C93.088 19.1627 92.832 18.656 92.544 18.112C92.2667 17.5787 91.984 17.0453 91.696 16.512C91.4187 15.968 91.1467 15.4613 90.88 14.992L92.512 14.304C92.7787 14.7733 93.056 15.28 93.344 15.824C93.6427 16.368 93.9307 16.912 94.208 17.456C94.496 17.9893 94.7573 18.4853 94.992 18.944L93.312 19.632ZM83.456 10.976V9.424H92.544V10.976H83.456ZM105.36 16.832C105.925 16.768 106.443 16.608 106.912 16.352C107.392 16.0853 107.803 15.7493 108.144 15.344C108.496 14.928 108.768 14.4533 108.96 13.92C109.152 13.3867 109.248 12.8107 109.248 12.192C109.248 11.3173 109.045 10.5547 108.64 9.904C108.235 9.24267 107.669 8.736 106.944 8.384C106.229 8.032 105.397 7.856 104.448 7.856C103.637 7.856 102.885 7.98933 102.192 8.256C101.499 8.52267 100.885 8.896 100.352 9.376C99.8293 9.84533 99.4187 10.4 99.12 11.04C98.8213 11.6693 98.672 12.3467 98.672 13.072C98.672 13.5947 98.7573 14.096 98.928 14.576C99.0987 15.056 99.312 15.4507 99.568 15.76C99.8347 16.0587 100.112 16.208 100.4 16.208C100.816 16.208 101.216 15.8293 101.6 15.072C101.984 14.3147 102.331 13.2267 102.64 11.808C102.96 10.3787 103.227 8.66667 103.44 6.672L105.296 6.864C105.061 8.848 104.795 10.5493 104.496 11.968C104.197 13.3867 103.856 14.5493 103.472 15.456C103.088 16.3627 102.651 17.0347 102.16 17.472C101.669 17.8987 101.115 18.112 100.496 18.112C99.984 18.112 99.5093 17.984 99.072 17.728C98.6347 17.472 98.256 17.1147 97.936 16.656C97.616 16.1973 97.3653 15.664 97.184 15.056C97.0027 14.4373 96.912 13.776 96.912 13.072C96.912 12.0693 97.0987 11.1467 97.472 10.304C97.8453 9.45067 98.368 8.71467 99.04 8.096C99.712 7.47733 100.507 6.99733 101.424 6.656C102.352 6.304 103.365 6.128 104.464 6.128C105.755 6.128 106.896 6.37333 107.888 6.864C108.891 7.35467 109.675 8.05333 110.24 8.96C110.805 9.86667 111.088 10.944 111.088 12.192C111.088 13.0347 110.96 13.8187 110.704 14.544C110.459 15.2693 110.107 15.9147 109.648 16.48C109.189 17.0347 108.64 17.488 108 17.84C107.36 18.192 106.651 18.416 105.872 18.512L105.36 16.832ZM125.312 19.36C125.237 19.36 125.152 19.36 125.056 19.36C124.971 19.36 124.891 19.3547 124.816 19.344C124.411 19.3333 124.107 19.3013 123.904 19.248C123.712 19.1947 123.584 19.0827 123.52 18.912C123.456 18.752 123.424 18.5067 123.424 18.176V14.864H122.096V13.504H124.928V12.272H122.096V14.864H120.304V10.896H126.784V14.864H125.136V17.44C125.136 17.6 125.147 17.696 125.168 17.728C125.2 17.7493 125.28 17.7707 125.408 17.792C125.44 17.792 125.467 17.792 125.488 17.792C125.52 17.792 125.552 17.792 125.584 17.792C125.616 17.792 125.648 17.792 125.68 17.792C125.712 17.792 125.739 17.792 125.76 17.792C125.845 17.7813 125.909 17.76 125.952 17.728C125.995 17.696 126.027 17.616 126.048 17.488C126.08 17.36 126.096 17.1467 126.096 16.848C126.107 16.5493 126.117 16.144 126.128 15.632L127.616 15.808C127.584 16.6507 127.547 17.3067 127.504 17.776C127.461 18.2453 127.381 18.5867 127.264 18.8C127.157 19.024 126.987 19.1627 126.752 19.216C126.517 19.28 126.203 19.3227 125.808 19.344C125.723 19.3547 125.637 19.36 125.552 19.36C125.467 19.36 125.387 19.36 125.312 19.36ZM113.408 19.6L112.368 18.272C112.741 18.0267 113.056 17.7707 113.312 17.504C113.568 17.2373 113.776 16.9333 113.936 16.592C114.107 16.24 114.229 15.84 114.304 15.392C114.389 14.944 114.432 14.4267 114.432 13.84L116.032 13.888C116.032 14.6347 115.979 15.3013 115.872 15.888C115.765 16.464 115.605 16.976 115.392 17.424C115.189 17.872 114.923 18.272 114.592 18.624C114.261 18.976 113.867 19.3013 113.408 19.6ZM115.536 18.8L115.296 17.232C116.075 17.0293 116.848 16.7947 117.616 16.528C118.384 16.2507 119.163 15.9253 119.952 15.552L120.128 17.056C119.36 17.4507 118.592 17.7867 117.824 18.064C117.067 18.352 116.304 18.5973 115.536 18.8ZM116.752 17.536V14.864H114.976V13.504H117.696V12.272H114.976V14.864H113.216V10.896H119.52V14.864H118.432V17.536H116.752ZM119.184 19.6L118.272 18.224C118.837 17.9893 119.307 17.744 119.68 17.488C120.064 17.2213 120.373 16.9227 120.608 16.592C120.843 16.2507 121.008 15.856 121.104 15.408C121.211 14.96 121.264 14.4267 121.264 13.808L122.912 13.888C122.912 14.6453 122.843 15.3227 122.704 15.92C122.565 16.5067 122.341 17.0293 122.032 17.488C121.733 17.936 121.344 18.3307 120.864 18.672C120.395 19.024 119.835 19.3333 119.184 19.6ZM112.64 10.288V8.88H119.696V10.288H112.64ZM114.592 9.872C114.4 9.392 114.197 8.912 113.984 8.432C113.781 7.952 113.563 7.49333 113.328 7.056L114.752 6.4C114.987 6.85867 115.211 7.33867 115.424 7.84C115.648 8.34133 115.856 8.83733 116.048 9.328L114.592 9.872ZM117.84 9.984L116.448 9.328C116.693 8.89067 116.912 8.43733 117.104 7.968C117.307 7.49867 117.488 7.024 117.648 6.544L119.152 7.04C118.981 7.552 118.784 8.05867 118.56 8.56C118.336 9.05067 118.096 9.52533 117.84 9.984ZM112.848 7.424V5.952H115.328V4.704H117.2V5.952H119.664V7.424H112.848ZM121.76 9.872C121.579 9.392 121.381 8.912 121.168 8.432C120.955 7.952 120.736 7.49333 120.512 7.056L121.968 6.4C122.213 6.85867 122.443 7.33867 122.656 7.84C122.88 8.34133 123.088 8.83733 123.28 9.328L121.76 9.872ZM120.128 10.288V8.88H127.36V10.288H120.128ZM125.232 9.984L123.792 9.328C124.037 8.89067 124.261 8.43733 124.464 7.968C124.667 7.49867 124.848 7.024 125.008 6.544L126.56 7.04C126.389 7.552 126.192 8.05867 125.968 8.56C125.744 9.05067 125.499 9.52533 125.232 9.984ZM120.16 7.424V5.952H122.56V4.704H124.432V5.952H127.152V7.424H120.16ZM133.376 19.328L132.656 17.744C134.885 17.1467 136.709 16.288 138.128 15.168C139.557 14.048 140.581 12.72 141.2 11.184L142.944 11.712C142.421 12.9173 141.744 13.9893 140.912 14.928C140.08 15.8667 139.045 16.6987 137.808 17.424C136.581 18.1493 135.104 18.784 133.376 19.328ZM128.864 15.232L128.736 13.552C129.291 13.4347 129.856 13.3067 130.432 13.168C131.019 13.0187 131.584 12.8587 132.128 12.688C132.683 12.5067 133.189 12.3307 133.648 12.16L133.904 13.776C133.435 13.9573 132.907 14.1387 132.32 14.32C131.744 14.4907 131.157 14.656 130.56 14.816C129.963 14.976 129.397 15.1147 128.864 15.232ZM130.464 19.328C130.325 19.328 130.128 19.3173 129.872 19.296C129.616 19.2853 129.301 19.2693 128.928 19.248L128.848 17.712C129.179 17.7333 129.461 17.7493 129.696 17.76C129.941 17.7707 130.117 17.776 130.224 17.776C130.32 17.776 130.384 17.7653 130.416 17.744C130.448 17.7227 130.464 17.6587 130.464 17.552C130.475 17.4347 130.48 17.248 130.48 16.992V9.248H128.768V7.648H130.48V5.008H132.352V7.648H133.776V9.248H132.352V16.864C132.352 17.44 132.331 17.888 132.288 18.208C132.245 18.5387 132.16 18.784 132.032 18.944C131.915 19.1147 131.728 19.2213 131.472 19.264C131.227 19.3067 130.891 19.328 130.464 19.328ZM142.912 19.328C141.621 18.9333 140.416 18.416 139.296 17.776C138.187 17.1253 137.189 16.3733 136.304 15.52C135.419 14.656 134.672 13.7227 134.064 12.72L135.776 12.048C136.267 12.8693 136.891 13.6427 137.648 14.368C138.416 15.0827 139.296 15.728 140.288 16.304C141.28 16.8693 142.357 17.3493 143.52 17.744L142.912 19.328ZM133.408 11.712V10.176H137.36V8.192H133.248V6.608H137.36V4.848H139.328V6.608H143.36V8.192H139.328V10.176H142.944V11.712H133.408Z" fill="white"/>
<defs>
<filter id="filter0_d_122_2224" x="0" y="62" width="66" height="66" filterUnits="userSpaceOnUse" color-interpolation-filters="sRGB">
<feFlood flood-opacity="0" result="BackgroundImageFix"/>
<feColorMatrix in="SourceAlpha" type="matrix" values="0 0 0 0 0 0 0 0 0 0 0 0 0 0 0 0 0 0 127 0" result="hardAlpha"/>
<feOffset/>
<feGaussianBlur stdDeviation="3"/>
<feComposite in2="hardAlpha" operator="out"/>
<feColorMatrix type="matrix" values="0 0 0 0 0.282353 0 0 0 0 0.737255 0 0 0 0 0.796078 0 0 0 0.25 0"/>
<feBlend mode="normal" in2="BackgroundImageFix" result="effect1_dropShadow_122_2224"/>
<feBlend mode="normal" in="SourceGraphic" in2="effect1_dropShadow_122_2224" result="shape"/>
</filter>
</defs>
</svg>
