<svg width="87" height="87" viewBox="0 0 87 87" fill="none" xmlns="http://www.w3.org/2000/svg">
<path fill-rule="evenodd" clip-rule="evenodd" d="M43.5 0L54.375 9.50724e-07L65.25 1.90144e-06L76.125 2.85217e-06L87 3.80289e-06V10.875V21.75V32.625L76.125 32.625L65.25 32.625H86.9999L87 43.5L65.25 43.5L43.5 32.625V21.75V10.875V0ZM65.2499 65.25V76.125V86.9999H54.3749H43.4999H32.625H21.75H10.875H0L6.20922e-06 76.1249L6.68458e-06 65.25H10.875H21.75L21.7501 65.25L43.5 54.375L65.25 43.5H76.125H87V54.375V65.25L87 76.1249V86.9999H76.125H65.25L65.25 76.1249L65.25 65.25L65.2499 65.25ZM21.75 21.75H21.75L21.75 32.625V43.5V54.375V65.2499H10.875H6.68458e-06L7.15994e-06 54.375L7.6353e-06 43.5L8.11066e-06 32.625L8.58602e-06 21.75H3.14742e-05L3.19496e-05 10.875L3.24249e-05 4.10657e-05L10.875 4.1541e-05L10.875 4.10657e-05L21.75 4.1541e-05L21.75 1.33455e-05L32.625 1.42963e-05V1.23889e-05L43.5 1.33396e-05V10.875V21.75V32.625L21.75 21.75Z" fill="white"/>
</svg>
